G04 #@! TF.GenerationSoftware,KiCad,Pcbnew,5.1.5+dfsg1-2build2*
G04 #@! TF.CreationDate,2020-08-14T19:59:24+10:00*
G04 #@! TF.ProjectId,sid-board-v3_blocklayout,7369642d-626f-4617-9264-2d76335f626c,rev?*
G04 #@! TF.SameCoordinates,Original*
G04 #@! TF.FileFunction,Paste,Top*
G04 #@! TF.FilePolarity,Positive*
%FSLAX46Y46*%
G04 Gerber Fmt 4.6, Leading zero omitted, Abs format (unit mm)*
G04 Created by KiCad (PCBNEW 5.1.5+dfsg1-2build2) date 2020-08-14 19:59:24*
%MOMM*%
%LPD*%
G04 APERTURE LIST*
%ADD10C,0.100000*%
%ADD11R,1.900000X1.500000*%
%ADD12R,1.350000X0.400000*%
%ADD13R,0.900000X0.800000*%
%ADD14R,0.900000X2.000000*%
%ADD15R,2.000000X0.900000*%
%ADD16R,5.000000X5.000000*%
%ADD17R,1.100000X0.400000*%
%ADD18R,1.750000X0.450000*%
%ADD19R,1.540000X1.800000*%
G04 APERTURE END LIST*
D10*
G36*
X125943505Y-103695204D02*
G01*
X125967773Y-103698804D01*
X125991572Y-103704765D01*
X126014671Y-103713030D01*
X126036850Y-103723520D01*
X126057893Y-103736132D01*
X126077599Y-103750747D01*
X126095777Y-103767223D01*
X126112253Y-103785401D01*
X126126868Y-103805107D01*
X126139480Y-103826150D01*
X126149970Y-103848329D01*
X126158235Y-103871428D01*
X126164196Y-103895227D01*
X126167796Y-103919495D01*
X126169000Y-103943999D01*
X126169000Y-104844001D01*
X126167796Y-104868505D01*
X126164196Y-104892773D01*
X126158235Y-104916572D01*
X126149970Y-104939671D01*
X126139480Y-104961850D01*
X126126868Y-104982893D01*
X126112253Y-105002599D01*
X126095777Y-105020777D01*
X126077599Y-105037253D01*
X126057893Y-105051868D01*
X126036850Y-105064480D01*
X126014671Y-105074970D01*
X125991572Y-105083235D01*
X125967773Y-105089196D01*
X125943505Y-105092796D01*
X125919001Y-105094000D01*
X125268999Y-105094000D01*
X125244495Y-105092796D01*
X125220227Y-105089196D01*
X125196428Y-105083235D01*
X125173329Y-105074970D01*
X125151150Y-105064480D01*
X125130107Y-105051868D01*
X125110401Y-105037253D01*
X125092223Y-105020777D01*
X125075747Y-105002599D01*
X125061132Y-104982893D01*
X125048520Y-104961850D01*
X125038030Y-104939671D01*
X125029765Y-104916572D01*
X125023804Y-104892773D01*
X125020204Y-104868505D01*
X125019000Y-104844001D01*
X125019000Y-103943999D01*
X125020204Y-103919495D01*
X125023804Y-103895227D01*
X125029765Y-103871428D01*
X125038030Y-103848329D01*
X125048520Y-103826150D01*
X125061132Y-103805107D01*
X125075747Y-103785401D01*
X125092223Y-103767223D01*
X125110401Y-103750747D01*
X125130107Y-103736132D01*
X125151150Y-103723520D01*
X125173329Y-103713030D01*
X125196428Y-103704765D01*
X125220227Y-103698804D01*
X125244495Y-103695204D01*
X125268999Y-103694000D01*
X125919001Y-103694000D01*
X125943505Y-103695204D01*
G37*
G36*
X127993505Y-103695204D02*
G01*
X128017773Y-103698804D01*
X128041572Y-103704765D01*
X128064671Y-103713030D01*
X128086850Y-103723520D01*
X128107893Y-103736132D01*
X128127599Y-103750747D01*
X128145777Y-103767223D01*
X128162253Y-103785401D01*
X128176868Y-103805107D01*
X128189480Y-103826150D01*
X128199970Y-103848329D01*
X128208235Y-103871428D01*
X128214196Y-103895227D01*
X128217796Y-103919495D01*
X128219000Y-103943999D01*
X128219000Y-104844001D01*
X128217796Y-104868505D01*
X128214196Y-104892773D01*
X128208235Y-104916572D01*
X128199970Y-104939671D01*
X128189480Y-104961850D01*
X128176868Y-104982893D01*
X128162253Y-105002599D01*
X128145777Y-105020777D01*
X128127599Y-105037253D01*
X128107893Y-105051868D01*
X128086850Y-105064480D01*
X128064671Y-105074970D01*
X128041572Y-105083235D01*
X128017773Y-105089196D01*
X127993505Y-105092796D01*
X127969001Y-105094000D01*
X127318999Y-105094000D01*
X127294495Y-105092796D01*
X127270227Y-105089196D01*
X127246428Y-105083235D01*
X127223329Y-105074970D01*
X127201150Y-105064480D01*
X127180107Y-105051868D01*
X127160401Y-105037253D01*
X127142223Y-105020777D01*
X127125747Y-105002599D01*
X127111132Y-104982893D01*
X127098520Y-104961850D01*
X127088030Y-104939671D01*
X127079765Y-104916572D01*
X127073804Y-104892773D01*
X127070204Y-104868505D01*
X127069000Y-104844001D01*
X127069000Y-103943999D01*
X127070204Y-103919495D01*
X127073804Y-103895227D01*
X127079765Y-103871428D01*
X127088030Y-103848329D01*
X127098520Y-103826150D01*
X127111132Y-103805107D01*
X127125747Y-103785401D01*
X127142223Y-103767223D01*
X127160401Y-103750747D01*
X127180107Y-103736132D01*
X127201150Y-103723520D01*
X127223329Y-103713030D01*
X127246428Y-103704765D01*
X127270227Y-103698804D01*
X127294495Y-103695204D01*
X127318999Y-103694000D01*
X127969001Y-103694000D01*
X127993505Y-103695204D01*
G37*
G36*
X155414505Y-79191204D02*
G01*
X155438773Y-79194804D01*
X155462572Y-79200765D01*
X155485671Y-79209030D01*
X155507850Y-79219520D01*
X155528893Y-79232132D01*
X155548599Y-79246747D01*
X155566777Y-79263223D01*
X155583253Y-79281401D01*
X155597868Y-79301107D01*
X155610480Y-79322150D01*
X155620970Y-79344329D01*
X155629235Y-79367428D01*
X155635196Y-79391227D01*
X155638796Y-79415495D01*
X155640000Y-79439999D01*
X155640000Y-80090001D01*
X155638796Y-80114505D01*
X155635196Y-80138773D01*
X155629235Y-80162572D01*
X155620970Y-80185671D01*
X155610480Y-80207850D01*
X155597868Y-80228893D01*
X155583253Y-80248599D01*
X155566777Y-80266777D01*
X155548599Y-80283253D01*
X155528893Y-80297868D01*
X155507850Y-80310480D01*
X155485671Y-80320970D01*
X155462572Y-80329235D01*
X155438773Y-80335196D01*
X155414505Y-80338796D01*
X155390001Y-80340000D01*
X154489999Y-80340000D01*
X154465495Y-80338796D01*
X154441227Y-80335196D01*
X154417428Y-80329235D01*
X154394329Y-80320970D01*
X154372150Y-80310480D01*
X154351107Y-80297868D01*
X154331401Y-80283253D01*
X154313223Y-80266777D01*
X154296747Y-80248599D01*
X154282132Y-80228893D01*
X154269520Y-80207850D01*
X154259030Y-80185671D01*
X154250765Y-80162572D01*
X154244804Y-80138773D01*
X154241204Y-80114505D01*
X154240000Y-80090001D01*
X154240000Y-79439999D01*
X154241204Y-79415495D01*
X154244804Y-79391227D01*
X154250765Y-79367428D01*
X154259030Y-79344329D01*
X154269520Y-79322150D01*
X154282132Y-79301107D01*
X154296747Y-79281401D01*
X154313223Y-79263223D01*
X154331401Y-79246747D01*
X154351107Y-79232132D01*
X154372150Y-79219520D01*
X154394329Y-79209030D01*
X154417428Y-79200765D01*
X154441227Y-79194804D01*
X154465495Y-79191204D01*
X154489999Y-79190000D01*
X155390001Y-79190000D01*
X155414505Y-79191204D01*
G37*
G36*
X155414505Y-77141204D02*
G01*
X155438773Y-77144804D01*
X155462572Y-77150765D01*
X155485671Y-77159030D01*
X155507850Y-77169520D01*
X155528893Y-77182132D01*
X155548599Y-77196747D01*
X155566777Y-77213223D01*
X155583253Y-77231401D01*
X155597868Y-77251107D01*
X155610480Y-77272150D01*
X155620970Y-77294329D01*
X155629235Y-77317428D01*
X155635196Y-77341227D01*
X155638796Y-77365495D01*
X155640000Y-77389999D01*
X155640000Y-78040001D01*
X155638796Y-78064505D01*
X155635196Y-78088773D01*
X155629235Y-78112572D01*
X155620970Y-78135671D01*
X155610480Y-78157850D01*
X155597868Y-78178893D01*
X155583253Y-78198599D01*
X155566777Y-78216777D01*
X155548599Y-78233253D01*
X155528893Y-78247868D01*
X155507850Y-78260480D01*
X155485671Y-78270970D01*
X155462572Y-78279235D01*
X155438773Y-78285196D01*
X155414505Y-78288796D01*
X155390001Y-78290000D01*
X154489999Y-78290000D01*
X154465495Y-78288796D01*
X154441227Y-78285196D01*
X154417428Y-78279235D01*
X154394329Y-78270970D01*
X154372150Y-78260480D01*
X154351107Y-78247868D01*
X154331401Y-78233253D01*
X154313223Y-78216777D01*
X154296747Y-78198599D01*
X154282132Y-78178893D01*
X154269520Y-78157850D01*
X154259030Y-78135671D01*
X154250765Y-78112572D01*
X154244804Y-78088773D01*
X154241204Y-78064505D01*
X154240000Y-78040001D01*
X154240000Y-77389999D01*
X154241204Y-77365495D01*
X154244804Y-77341227D01*
X154250765Y-77317428D01*
X154259030Y-77294329D01*
X154269520Y-77272150D01*
X154282132Y-77251107D01*
X154296747Y-77231401D01*
X154313223Y-77213223D01*
X154331401Y-77196747D01*
X154351107Y-77182132D01*
X154372150Y-77169520D01*
X154394329Y-77159030D01*
X154417428Y-77150765D01*
X154441227Y-77144804D01*
X154465495Y-77141204D01*
X154489999Y-77140000D01*
X155390001Y-77140000D01*
X155414505Y-77141204D01*
G37*
G36*
X127993505Y-99885204D02*
G01*
X128017773Y-99888804D01*
X128041572Y-99894765D01*
X128064671Y-99903030D01*
X128086850Y-99913520D01*
X128107893Y-99926132D01*
X128127599Y-99940747D01*
X128145777Y-99957223D01*
X128162253Y-99975401D01*
X128176868Y-99995107D01*
X128189480Y-100016150D01*
X128199970Y-100038329D01*
X128208235Y-100061428D01*
X128214196Y-100085227D01*
X128217796Y-100109495D01*
X128219000Y-100133999D01*
X128219000Y-101034001D01*
X128217796Y-101058505D01*
X128214196Y-101082773D01*
X128208235Y-101106572D01*
X128199970Y-101129671D01*
X128189480Y-101151850D01*
X128176868Y-101172893D01*
X128162253Y-101192599D01*
X128145777Y-101210777D01*
X128127599Y-101227253D01*
X128107893Y-101241868D01*
X128086850Y-101254480D01*
X128064671Y-101264970D01*
X128041572Y-101273235D01*
X128017773Y-101279196D01*
X127993505Y-101282796D01*
X127969001Y-101284000D01*
X127318999Y-101284000D01*
X127294495Y-101282796D01*
X127270227Y-101279196D01*
X127246428Y-101273235D01*
X127223329Y-101264970D01*
X127201150Y-101254480D01*
X127180107Y-101241868D01*
X127160401Y-101227253D01*
X127142223Y-101210777D01*
X127125747Y-101192599D01*
X127111132Y-101172893D01*
X127098520Y-101151850D01*
X127088030Y-101129671D01*
X127079765Y-101106572D01*
X127073804Y-101082773D01*
X127070204Y-101058505D01*
X127069000Y-101034001D01*
X127069000Y-100133999D01*
X127070204Y-100109495D01*
X127073804Y-100085227D01*
X127079765Y-100061428D01*
X127088030Y-100038329D01*
X127098520Y-100016150D01*
X127111132Y-99995107D01*
X127125747Y-99975401D01*
X127142223Y-99957223D01*
X127160401Y-99940747D01*
X127180107Y-99926132D01*
X127201150Y-99913520D01*
X127223329Y-99903030D01*
X127246428Y-99894765D01*
X127270227Y-99888804D01*
X127294495Y-99885204D01*
X127318999Y-99884000D01*
X127969001Y-99884000D01*
X127993505Y-99885204D01*
G37*
G36*
X125943505Y-99885204D02*
G01*
X125967773Y-99888804D01*
X125991572Y-99894765D01*
X126014671Y-99903030D01*
X126036850Y-99913520D01*
X126057893Y-99926132D01*
X126077599Y-99940747D01*
X126095777Y-99957223D01*
X126112253Y-99975401D01*
X126126868Y-99995107D01*
X126139480Y-100016150D01*
X126149970Y-100038329D01*
X126158235Y-100061428D01*
X126164196Y-100085227D01*
X126167796Y-100109495D01*
X126169000Y-100133999D01*
X126169000Y-101034001D01*
X126167796Y-101058505D01*
X126164196Y-101082773D01*
X126158235Y-101106572D01*
X126149970Y-101129671D01*
X126139480Y-101151850D01*
X126126868Y-101172893D01*
X126112253Y-101192599D01*
X126095777Y-101210777D01*
X126077599Y-101227253D01*
X126057893Y-101241868D01*
X126036850Y-101254480D01*
X126014671Y-101264970D01*
X125991572Y-101273235D01*
X125967773Y-101279196D01*
X125943505Y-101282796D01*
X125919001Y-101284000D01*
X125268999Y-101284000D01*
X125244495Y-101282796D01*
X125220227Y-101279196D01*
X125196428Y-101273235D01*
X125173329Y-101264970D01*
X125151150Y-101254480D01*
X125130107Y-101241868D01*
X125110401Y-101227253D01*
X125092223Y-101210777D01*
X125075747Y-101192599D01*
X125061132Y-101172893D01*
X125048520Y-101151850D01*
X125038030Y-101129671D01*
X125029765Y-101106572D01*
X125023804Y-101082773D01*
X125020204Y-101058505D01*
X125019000Y-101034001D01*
X125019000Y-100133999D01*
X125020204Y-100109495D01*
X125023804Y-100085227D01*
X125029765Y-100061428D01*
X125038030Y-100038329D01*
X125048520Y-100016150D01*
X125061132Y-99995107D01*
X125075747Y-99975401D01*
X125092223Y-99957223D01*
X125110401Y-99940747D01*
X125130107Y-99926132D01*
X125151150Y-99913520D01*
X125173329Y-99903030D01*
X125196428Y-99894765D01*
X125220227Y-99888804D01*
X125244495Y-99885204D01*
X125268999Y-99884000D01*
X125919001Y-99884000D01*
X125943505Y-99885204D01*
G37*
G36*
X149826505Y-83255204D02*
G01*
X149850773Y-83258804D01*
X149874572Y-83264765D01*
X149897671Y-83273030D01*
X149919850Y-83283520D01*
X149940893Y-83296132D01*
X149960599Y-83310747D01*
X149978777Y-83327223D01*
X149995253Y-83345401D01*
X150009868Y-83365107D01*
X150022480Y-83386150D01*
X150032970Y-83408329D01*
X150041235Y-83431428D01*
X150047196Y-83455227D01*
X150050796Y-83479495D01*
X150052000Y-83503999D01*
X150052000Y-84154001D01*
X150050796Y-84178505D01*
X150047196Y-84202773D01*
X150041235Y-84226572D01*
X150032970Y-84249671D01*
X150022480Y-84271850D01*
X150009868Y-84292893D01*
X149995253Y-84312599D01*
X149978777Y-84330777D01*
X149960599Y-84347253D01*
X149940893Y-84361868D01*
X149919850Y-84374480D01*
X149897671Y-84384970D01*
X149874572Y-84393235D01*
X149850773Y-84399196D01*
X149826505Y-84402796D01*
X149802001Y-84404000D01*
X148901999Y-84404000D01*
X148877495Y-84402796D01*
X148853227Y-84399196D01*
X148829428Y-84393235D01*
X148806329Y-84384970D01*
X148784150Y-84374480D01*
X148763107Y-84361868D01*
X148743401Y-84347253D01*
X148725223Y-84330777D01*
X148708747Y-84312599D01*
X148694132Y-84292893D01*
X148681520Y-84271850D01*
X148671030Y-84249671D01*
X148662765Y-84226572D01*
X148656804Y-84202773D01*
X148653204Y-84178505D01*
X148652000Y-84154001D01*
X148652000Y-83503999D01*
X148653204Y-83479495D01*
X148656804Y-83455227D01*
X148662765Y-83431428D01*
X148671030Y-83408329D01*
X148681520Y-83386150D01*
X148694132Y-83365107D01*
X148708747Y-83345401D01*
X148725223Y-83327223D01*
X148743401Y-83310747D01*
X148763107Y-83296132D01*
X148784150Y-83283520D01*
X148806329Y-83273030D01*
X148829428Y-83264765D01*
X148853227Y-83258804D01*
X148877495Y-83255204D01*
X148901999Y-83254000D01*
X149802001Y-83254000D01*
X149826505Y-83255204D01*
G37*
G36*
X149826505Y-81205204D02*
G01*
X149850773Y-81208804D01*
X149874572Y-81214765D01*
X149897671Y-81223030D01*
X149919850Y-81233520D01*
X149940893Y-81246132D01*
X149960599Y-81260747D01*
X149978777Y-81277223D01*
X149995253Y-81295401D01*
X150009868Y-81315107D01*
X150022480Y-81336150D01*
X150032970Y-81358329D01*
X150041235Y-81381428D01*
X150047196Y-81405227D01*
X150050796Y-81429495D01*
X150052000Y-81453999D01*
X150052000Y-82104001D01*
X150050796Y-82128505D01*
X150047196Y-82152773D01*
X150041235Y-82176572D01*
X150032970Y-82199671D01*
X150022480Y-82221850D01*
X150009868Y-82242893D01*
X149995253Y-82262599D01*
X149978777Y-82280777D01*
X149960599Y-82297253D01*
X149940893Y-82311868D01*
X149919850Y-82324480D01*
X149897671Y-82334970D01*
X149874572Y-82343235D01*
X149850773Y-82349196D01*
X149826505Y-82352796D01*
X149802001Y-82354000D01*
X148901999Y-82354000D01*
X148877495Y-82352796D01*
X148853227Y-82349196D01*
X148829428Y-82343235D01*
X148806329Y-82334970D01*
X148784150Y-82324480D01*
X148763107Y-82311868D01*
X148743401Y-82297253D01*
X148725223Y-82280777D01*
X148708747Y-82262599D01*
X148694132Y-82242893D01*
X148681520Y-82221850D01*
X148671030Y-82199671D01*
X148662765Y-82176572D01*
X148656804Y-82152773D01*
X148653204Y-82128505D01*
X148652000Y-82104001D01*
X148652000Y-81453999D01*
X148653204Y-81429495D01*
X148656804Y-81405227D01*
X148662765Y-81381428D01*
X148671030Y-81358329D01*
X148681520Y-81336150D01*
X148694132Y-81315107D01*
X148708747Y-81295401D01*
X148725223Y-81277223D01*
X148743401Y-81260747D01*
X148763107Y-81246132D01*
X148784150Y-81233520D01*
X148806329Y-81223030D01*
X148829428Y-81214765D01*
X148853227Y-81208804D01*
X148877495Y-81205204D01*
X148901999Y-81204000D01*
X149802001Y-81204000D01*
X149826505Y-81205204D01*
G37*
G36*
X120609505Y-100901204D02*
G01*
X120633773Y-100904804D01*
X120657572Y-100910765D01*
X120680671Y-100919030D01*
X120702850Y-100929520D01*
X120723893Y-100942132D01*
X120743599Y-100956747D01*
X120761777Y-100973223D01*
X120778253Y-100991401D01*
X120792868Y-101011107D01*
X120805480Y-101032150D01*
X120815970Y-101054329D01*
X120824235Y-101077428D01*
X120830196Y-101101227D01*
X120833796Y-101125495D01*
X120835000Y-101149999D01*
X120835000Y-102050001D01*
X120833796Y-102074505D01*
X120830196Y-102098773D01*
X120824235Y-102122572D01*
X120815970Y-102145671D01*
X120805480Y-102167850D01*
X120792868Y-102188893D01*
X120778253Y-102208599D01*
X120761777Y-102226777D01*
X120743599Y-102243253D01*
X120723893Y-102257868D01*
X120702850Y-102270480D01*
X120680671Y-102280970D01*
X120657572Y-102289235D01*
X120633773Y-102295196D01*
X120609505Y-102298796D01*
X120585001Y-102300000D01*
X119934999Y-102300000D01*
X119910495Y-102298796D01*
X119886227Y-102295196D01*
X119862428Y-102289235D01*
X119839329Y-102280970D01*
X119817150Y-102270480D01*
X119796107Y-102257868D01*
X119776401Y-102243253D01*
X119758223Y-102226777D01*
X119741747Y-102208599D01*
X119727132Y-102188893D01*
X119714520Y-102167850D01*
X119704030Y-102145671D01*
X119695765Y-102122572D01*
X119689804Y-102098773D01*
X119686204Y-102074505D01*
X119685000Y-102050001D01*
X119685000Y-101149999D01*
X119686204Y-101125495D01*
X119689804Y-101101227D01*
X119695765Y-101077428D01*
X119704030Y-101054329D01*
X119714520Y-101032150D01*
X119727132Y-101011107D01*
X119741747Y-100991401D01*
X119758223Y-100973223D01*
X119776401Y-100956747D01*
X119796107Y-100942132D01*
X119817150Y-100929520D01*
X119839329Y-100919030D01*
X119862428Y-100910765D01*
X119886227Y-100904804D01*
X119910495Y-100901204D01*
X119934999Y-100900000D01*
X120585001Y-100900000D01*
X120609505Y-100901204D01*
G37*
G36*
X122659505Y-100901204D02*
G01*
X122683773Y-100904804D01*
X122707572Y-100910765D01*
X122730671Y-100919030D01*
X122752850Y-100929520D01*
X122773893Y-100942132D01*
X122793599Y-100956747D01*
X122811777Y-100973223D01*
X122828253Y-100991401D01*
X122842868Y-101011107D01*
X122855480Y-101032150D01*
X122865970Y-101054329D01*
X122874235Y-101077428D01*
X122880196Y-101101227D01*
X122883796Y-101125495D01*
X122885000Y-101149999D01*
X122885000Y-102050001D01*
X122883796Y-102074505D01*
X122880196Y-102098773D01*
X122874235Y-102122572D01*
X122865970Y-102145671D01*
X122855480Y-102167850D01*
X122842868Y-102188893D01*
X122828253Y-102208599D01*
X122811777Y-102226777D01*
X122793599Y-102243253D01*
X122773893Y-102257868D01*
X122752850Y-102270480D01*
X122730671Y-102280970D01*
X122707572Y-102289235D01*
X122683773Y-102295196D01*
X122659505Y-102298796D01*
X122635001Y-102300000D01*
X121984999Y-102300000D01*
X121960495Y-102298796D01*
X121936227Y-102295196D01*
X121912428Y-102289235D01*
X121889329Y-102280970D01*
X121867150Y-102270480D01*
X121846107Y-102257868D01*
X121826401Y-102243253D01*
X121808223Y-102226777D01*
X121791747Y-102208599D01*
X121777132Y-102188893D01*
X121764520Y-102167850D01*
X121754030Y-102145671D01*
X121745765Y-102122572D01*
X121739804Y-102098773D01*
X121736204Y-102074505D01*
X121735000Y-102050001D01*
X121735000Y-101149999D01*
X121736204Y-101125495D01*
X121739804Y-101101227D01*
X121745765Y-101077428D01*
X121754030Y-101054329D01*
X121764520Y-101032150D01*
X121777132Y-101011107D01*
X121791747Y-100991401D01*
X121808223Y-100973223D01*
X121826401Y-100956747D01*
X121846107Y-100942132D01*
X121867150Y-100929520D01*
X121889329Y-100919030D01*
X121912428Y-100910765D01*
X121936227Y-100904804D01*
X121960495Y-100901204D01*
X121984999Y-100900000D01*
X122635001Y-100900000D01*
X122659505Y-100901204D01*
G37*
G36*
X135602505Y-83255204D02*
G01*
X135626773Y-83258804D01*
X135650572Y-83264765D01*
X135673671Y-83273030D01*
X135695850Y-83283520D01*
X135716893Y-83296132D01*
X135736599Y-83310747D01*
X135754777Y-83327223D01*
X135771253Y-83345401D01*
X135785868Y-83365107D01*
X135798480Y-83386150D01*
X135808970Y-83408329D01*
X135817235Y-83431428D01*
X135823196Y-83455227D01*
X135826796Y-83479495D01*
X135828000Y-83503999D01*
X135828000Y-84154001D01*
X135826796Y-84178505D01*
X135823196Y-84202773D01*
X135817235Y-84226572D01*
X135808970Y-84249671D01*
X135798480Y-84271850D01*
X135785868Y-84292893D01*
X135771253Y-84312599D01*
X135754777Y-84330777D01*
X135736599Y-84347253D01*
X135716893Y-84361868D01*
X135695850Y-84374480D01*
X135673671Y-84384970D01*
X135650572Y-84393235D01*
X135626773Y-84399196D01*
X135602505Y-84402796D01*
X135578001Y-84404000D01*
X134677999Y-84404000D01*
X134653495Y-84402796D01*
X134629227Y-84399196D01*
X134605428Y-84393235D01*
X134582329Y-84384970D01*
X134560150Y-84374480D01*
X134539107Y-84361868D01*
X134519401Y-84347253D01*
X134501223Y-84330777D01*
X134484747Y-84312599D01*
X134470132Y-84292893D01*
X134457520Y-84271850D01*
X134447030Y-84249671D01*
X134438765Y-84226572D01*
X134432804Y-84202773D01*
X134429204Y-84178505D01*
X134428000Y-84154001D01*
X134428000Y-83503999D01*
X134429204Y-83479495D01*
X134432804Y-83455227D01*
X134438765Y-83431428D01*
X134447030Y-83408329D01*
X134457520Y-83386150D01*
X134470132Y-83365107D01*
X134484747Y-83345401D01*
X134501223Y-83327223D01*
X134519401Y-83310747D01*
X134539107Y-83296132D01*
X134560150Y-83283520D01*
X134582329Y-83273030D01*
X134605428Y-83264765D01*
X134629227Y-83258804D01*
X134653495Y-83255204D01*
X134677999Y-83254000D01*
X135578001Y-83254000D01*
X135602505Y-83255204D01*
G37*
G36*
X135602505Y-81205204D02*
G01*
X135626773Y-81208804D01*
X135650572Y-81214765D01*
X135673671Y-81223030D01*
X135695850Y-81233520D01*
X135716893Y-81246132D01*
X135736599Y-81260747D01*
X135754777Y-81277223D01*
X135771253Y-81295401D01*
X135785868Y-81315107D01*
X135798480Y-81336150D01*
X135808970Y-81358329D01*
X135817235Y-81381428D01*
X135823196Y-81405227D01*
X135826796Y-81429495D01*
X135828000Y-81453999D01*
X135828000Y-82104001D01*
X135826796Y-82128505D01*
X135823196Y-82152773D01*
X135817235Y-82176572D01*
X135808970Y-82199671D01*
X135798480Y-82221850D01*
X135785868Y-82242893D01*
X135771253Y-82262599D01*
X135754777Y-82280777D01*
X135736599Y-82297253D01*
X135716893Y-82311868D01*
X135695850Y-82324480D01*
X135673671Y-82334970D01*
X135650572Y-82343235D01*
X135626773Y-82349196D01*
X135602505Y-82352796D01*
X135578001Y-82354000D01*
X134677999Y-82354000D01*
X134653495Y-82352796D01*
X134629227Y-82349196D01*
X134605428Y-82343235D01*
X134582329Y-82334970D01*
X134560150Y-82324480D01*
X134539107Y-82311868D01*
X134519401Y-82297253D01*
X134501223Y-82280777D01*
X134484747Y-82262599D01*
X134470132Y-82242893D01*
X134457520Y-82221850D01*
X134447030Y-82199671D01*
X134438765Y-82176572D01*
X134432804Y-82152773D01*
X134429204Y-82128505D01*
X134428000Y-82104001D01*
X134428000Y-81453999D01*
X134429204Y-81429495D01*
X134432804Y-81405227D01*
X134438765Y-81381428D01*
X134447030Y-81358329D01*
X134457520Y-81336150D01*
X134470132Y-81315107D01*
X134484747Y-81295401D01*
X134501223Y-81277223D01*
X134519401Y-81260747D01*
X134539107Y-81246132D01*
X134560150Y-81233520D01*
X134582329Y-81223030D01*
X134605428Y-81214765D01*
X134629227Y-81208804D01*
X134653495Y-81205204D01*
X134677999Y-81204000D01*
X135578001Y-81204000D01*
X135602505Y-81205204D01*
G37*
D11*
X171417500Y-94218000D03*
D12*
X168717500Y-93218000D03*
X168717500Y-92568000D03*
X168717500Y-91918000D03*
X168717500Y-94518000D03*
X168717500Y-93868000D03*
D11*
X171417500Y-92218000D03*
D10*
G36*
X137634505Y-81205204D02*
G01*
X137658773Y-81208804D01*
X137682572Y-81214765D01*
X137705671Y-81223030D01*
X137727850Y-81233520D01*
X137748893Y-81246132D01*
X137768599Y-81260747D01*
X137786777Y-81277223D01*
X137803253Y-81295401D01*
X137817868Y-81315107D01*
X137830480Y-81336150D01*
X137840970Y-81358329D01*
X137849235Y-81381428D01*
X137855196Y-81405227D01*
X137858796Y-81429495D01*
X137860000Y-81453999D01*
X137860000Y-82104001D01*
X137858796Y-82128505D01*
X137855196Y-82152773D01*
X137849235Y-82176572D01*
X137840970Y-82199671D01*
X137830480Y-82221850D01*
X137817868Y-82242893D01*
X137803253Y-82262599D01*
X137786777Y-82280777D01*
X137768599Y-82297253D01*
X137748893Y-82311868D01*
X137727850Y-82324480D01*
X137705671Y-82334970D01*
X137682572Y-82343235D01*
X137658773Y-82349196D01*
X137634505Y-82352796D01*
X137610001Y-82354000D01*
X136709999Y-82354000D01*
X136685495Y-82352796D01*
X136661227Y-82349196D01*
X136637428Y-82343235D01*
X136614329Y-82334970D01*
X136592150Y-82324480D01*
X136571107Y-82311868D01*
X136551401Y-82297253D01*
X136533223Y-82280777D01*
X136516747Y-82262599D01*
X136502132Y-82242893D01*
X136489520Y-82221850D01*
X136479030Y-82199671D01*
X136470765Y-82176572D01*
X136464804Y-82152773D01*
X136461204Y-82128505D01*
X136460000Y-82104001D01*
X136460000Y-81453999D01*
X136461204Y-81429495D01*
X136464804Y-81405227D01*
X136470765Y-81381428D01*
X136479030Y-81358329D01*
X136489520Y-81336150D01*
X136502132Y-81315107D01*
X136516747Y-81295401D01*
X136533223Y-81277223D01*
X136551401Y-81260747D01*
X136571107Y-81246132D01*
X136592150Y-81233520D01*
X136614329Y-81223030D01*
X136637428Y-81214765D01*
X136661227Y-81208804D01*
X136685495Y-81205204D01*
X136709999Y-81204000D01*
X137610001Y-81204000D01*
X137634505Y-81205204D01*
G37*
G36*
X137634505Y-83255204D02*
G01*
X137658773Y-83258804D01*
X137682572Y-83264765D01*
X137705671Y-83273030D01*
X137727850Y-83283520D01*
X137748893Y-83296132D01*
X137768599Y-83310747D01*
X137786777Y-83327223D01*
X137803253Y-83345401D01*
X137817868Y-83365107D01*
X137830480Y-83386150D01*
X137840970Y-83408329D01*
X137849235Y-83431428D01*
X137855196Y-83455227D01*
X137858796Y-83479495D01*
X137860000Y-83503999D01*
X137860000Y-84154001D01*
X137858796Y-84178505D01*
X137855196Y-84202773D01*
X137849235Y-84226572D01*
X137840970Y-84249671D01*
X137830480Y-84271850D01*
X137817868Y-84292893D01*
X137803253Y-84312599D01*
X137786777Y-84330777D01*
X137768599Y-84347253D01*
X137748893Y-84361868D01*
X137727850Y-84374480D01*
X137705671Y-84384970D01*
X137682572Y-84393235D01*
X137658773Y-84399196D01*
X137634505Y-84402796D01*
X137610001Y-84404000D01*
X136709999Y-84404000D01*
X136685495Y-84402796D01*
X136661227Y-84399196D01*
X136637428Y-84393235D01*
X136614329Y-84384970D01*
X136592150Y-84374480D01*
X136571107Y-84361868D01*
X136551401Y-84347253D01*
X136533223Y-84330777D01*
X136516747Y-84312599D01*
X136502132Y-84292893D01*
X136489520Y-84271850D01*
X136479030Y-84249671D01*
X136470765Y-84226572D01*
X136464804Y-84202773D01*
X136461204Y-84178505D01*
X136460000Y-84154001D01*
X136460000Y-83503999D01*
X136461204Y-83479495D01*
X136464804Y-83455227D01*
X136470765Y-83431428D01*
X136479030Y-83408329D01*
X136489520Y-83386150D01*
X136502132Y-83365107D01*
X136516747Y-83345401D01*
X136533223Y-83327223D01*
X136551401Y-83310747D01*
X136571107Y-83296132D01*
X136592150Y-83283520D01*
X136614329Y-83273030D01*
X136637428Y-83264765D01*
X136661227Y-83258804D01*
X136685495Y-83255204D01*
X136709999Y-83254000D01*
X137610001Y-83254000D01*
X137634505Y-83255204D01*
G37*
D13*
X151368000Y-96774000D03*
X149368000Y-97724000D03*
X149368000Y-95824000D03*
X147812000Y-97724000D03*
X147812000Y-95824000D03*
X145812000Y-96774000D03*
D10*
G36*
X127993505Y-107505204D02*
G01*
X128017773Y-107508804D01*
X128041572Y-107514765D01*
X128064671Y-107523030D01*
X128086850Y-107533520D01*
X128107893Y-107546132D01*
X128127599Y-107560747D01*
X128145777Y-107577223D01*
X128162253Y-107595401D01*
X128176868Y-107615107D01*
X128189480Y-107636150D01*
X128199970Y-107658329D01*
X128208235Y-107681428D01*
X128214196Y-107705227D01*
X128217796Y-107729495D01*
X128219000Y-107753999D01*
X128219000Y-108654001D01*
X128217796Y-108678505D01*
X128214196Y-108702773D01*
X128208235Y-108726572D01*
X128199970Y-108749671D01*
X128189480Y-108771850D01*
X128176868Y-108792893D01*
X128162253Y-108812599D01*
X128145777Y-108830777D01*
X128127599Y-108847253D01*
X128107893Y-108861868D01*
X128086850Y-108874480D01*
X128064671Y-108884970D01*
X128041572Y-108893235D01*
X128017773Y-108899196D01*
X127993505Y-108902796D01*
X127969001Y-108904000D01*
X127318999Y-108904000D01*
X127294495Y-108902796D01*
X127270227Y-108899196D01*
X127246428Y-108893235D01*
X127223329Y-108884970D01*
X127201150Y-108874480D01*
X127180107Y-108861868D01*
X127160401Y-108847253D01*
X127142223Y-108830777D01*
X127125747Y-108812599D01*
X127111132Y-108792893D01*
X127098520Y-108771850D01*
X127088030Y-108749671D01*
X127079765Y-108726572D01*
X127073804Y-108702773D01*
X127070204Y-108678505D01*
X127069000Y-108654001D01*
X127069000Y-107753999D01*
X127070204Y-107729495D01*
X127073804Y-107705227D01*
X127079765Y-107681428D01*
X127088030Y-107658329D01*
X127098520Y-107636150D01*
X127111132Y-107615107D01*
X127125747Y-107595401D01*
X127142223Y-107577223D01*
X127160401Y-107560747D01*
X127180107Y-107546132D01*
X127201150Y-107533520D01*
X127223329Y-107523030D01*
X127246428Y-107514765D01*
X127270227Y-107508804D01*
X127294495Y-107505204D01*
X127318999Y-107504000D01*
X127969001Y-107504000D01*
X127993505Y-107505204D01*
G37*
G36*
X125943505Y-107505204D02*
G01*
X125967773Y-107508804D01*
X125991572Y-107514765D01*
X126014671Y-107523030D01*
X126036850Y-107533520D01*
X126057893Y-107546132D01*
X126077599Y-107560747D01*
X126095777Y-107577223D01*
X126112253Y-107595401D01*
X126126868Y-107615107D01*
X126139480Y-107636150D01*
X126149970Y-107658329D01*
X126158235Y-107681428D01*
X126164196Y-107705227D01*
X126167796Y-107729495D01*
X126169000Y-107753999D01*
X126169000Y-108654001D01*
X126167796Y-108678505D01*
X126164196Y-108702773D01*
X126158235Y-108726572D01*
X126149970Y-108749671D01*
X126139480Y-108771850D01*
X126126868Y-108792893D01*
X126112253Y-108812599D01*
X126095777Y-108830777D01*
X126077599Y-108847253D01*
X126057893Y-108861868D01*
X126036850Y-108874480D01*
X126014671Y-108884970D01*
X125991572Y-108893235D01*
X125967773Y-108899196D01*
X125943505Y-108902796D01*
X125919001Y-108904000D01*
X125268999Y-108904000D01*
X125244495Y-108902796D01*
X125220227Y-108899196D01*
X125196428Y-108893235D01*
X125173329Y-108884970D01*
X125151150Y-108874480D01*
X125130107Y-108861868D01*
X125110401Y-108847253D01*
X125092223Y-108830777D01*
X125075747Y-108812599D01*
X125061132Y-108792893D01*
X125048520Y-108771850D01*
X125038030Y-108749671D01*
X125029765Y-108726572D01*
X125023804Y-108702773D01*
X125020204Y-108678505D01*
X125019000Y-108654001D01*
X125019000Y-107753999D01*
X125020204Y-107729495D01*
X125023804Y-107705227D01*
X125029765Y-107681428D01*
X125038030Y-107658329D01*
X125048520Y-107636150D01*
X125061132Y-107615107D01*
X125075747Y-107595401D01*
X125092223Y-107577223D01*
X125110401Y-107560747D01*
X125130107Y-107546132D01*
X125151150Y-107533520D01*
X125173329Y-107523030D01*
X125196428Y-107514765D01*
X125220227Y-107508804D01*
X125244495Y-107505204D01*
X125268999Y-107504000D01*
X125919001Y-107504000D01*
X125943505Y-107505204D01*
G37*
G36*
X156296505Y-103695204D02*
G01*
X156320773Y-103698804D01*
X156344572Y-103704765D01*
X156367671Y-103713030D01*
X156389850Y-103723520D01*
X156410893Y-103736132D01*
X156430599Y-103750747D01*
X156448777Y-103767223D01*
X156465253Y-103785401D01*
X156479868Y-103805107D01*
X156492480Y-103826150D01*
X156502970Y-103848329D01*
X156511235Y-103871428D01*
X156517196Y-103895227D01*
X156520796Y-103919495D01*
X156522000Y-103943999D01*
X156522000Y-104844001D01*
X156520796Y-104868505D01*
X156517196Y-104892773D01*
X156511235Y-104916572D01*
X156502970Y-104939671D01*
X156492480Y-104961850D01*
X156479868Y-104982893D01*
X156465253Y-105002599D01*
X156448777Y-105020777D01*
X156430599Y-105037253D01*
X156410893Y-105051868D01*
X156389850Y-105064480D01*
X156367671Y-105074970D01*
X156344572Y-105083235D01*
X156320773Y-105089196D01*
X156296505Y-105092796D01*
X156272001Y-105094000D01*
X155621999Y-105094000D01*
X155597495Y-105092796D01*
X155573227Y-105089196D01*
X155549428Y-105083235D01*
X155526329Y-105074970D01*
X155504150Y-105064480D01*
X155483107Y-105051868D01*
X155463401Y-105037253D01*
X155445223Y-105020777D01*
X155428747Y-105002599D01*
X155414132Y-104982893D01*
X155401520Y-104961850D01*
X155391030Y-104939671D01*
X155382765Y-104916572D01*
X155376804Y-104892773D01*
X155373204Y-104868505D01*
X155372000Y-104844001D01*
X155372000Y-103943999D01*
X155373204Y-103919495D01*
X155376804Y-103895227D01*
X155382765Y-103871428D01*
X155391030Y-103848329D01*
X155401520Y-103826150D01*
X155414132Y-103805107D01*
X155428747Y-103785401D01*
X155445223Y-103767223D01*
X155463401Y-103750747D01*
X155483107Y-103736132D01*
X155504150Y-103723520D01*
X155526329Y-103713030D01*
X155549428Y-103704765D01*
X155573227Y-103698804D01*
X155597495Y-103695204D01*
X155621999Y-103694000D01*
X156272001Y-103694000D01*
X156296505Y-103695204D01*
G37*
G36*
X158346505Y-103695204D02*
G01*
X158370773Y-103698804D01*
X158394572Y-103704765D01*
X158417671Y-103713030D01*
X158439850Y-103723520D01*
X158460893Y-103736132D01*
X158480599Y-103750747D01*
X158498777Y-103767223D01*
X158515253Y-103785401D01*
X158529868Y-103805107D01*
X158542480Y-103826150D01*
X158552970Y-103848329D01*
X158561235Y-103871428D01*
X158567196Y-103895227D01*
X158570796Y-103919495D01*
X158572000Y-103943999D01*
X158572000Y-104844001D01*
X158570796Y-104868505D01*
X158567196Y-104892773D01*
X158561235Y-104916572D01*
X158552970Y-104939671D01*
X158542480Y-104961850D01*
X158529868Y-104982893D01*
X158515253Y-105002599D01*
X158498777Y-105020777D01*
X158480599Y-105037253D01*
X158460893Y-105051868D01*
X158439850Y-105064480D01*
X158417671Y-105074970D01*
X158394572Y-105083235D01*
X158370773Y-105089196D01*
X158346505Y-105092796D01*
X158322001Y-105094000D01*
X157671999Y-105094000D01*
X157647495Y-105092796D01*
X157623227Y-105089196D01*
X157599428Y-105083235D01*
X157576329Y-105074970D01*
X157554150Y-105064480D01*
X157533107Y-105051868D01*
X157513401Y-105037253D01*
X157495223Y-105020777D01*
X157478747Y-105002599D01*
X157464132Y-104982893D01*
X157451520Y-104961850D01*
X157441030Y-104939671D01*
X157432765Y-104916572D01*
X157426804Y-104892773D01*
X157423204Y-104868505D01*
X157422000Y-104844001D01*
X157422000Y-103943999D01*
X157423204Y-103919495D01*
X157426804Y-103895227D01*
X157432765Y-103871428D01*
X157441030Y-103848329D01*
X157451520Y-103826150D01*
X157464132Y-103805107D01*
X157478747Y-103785401D01*
X157495223Y-103767223D01*
X157513401Y-103750747D01*
X157533107Y-103736132D01*
X157554150Y-103723520D01*
X157576329Y-103713030D01*
X157599428Y-103704765D01*
X157623227Y-103698804D01*
X157647495Y-103695204D01*
X157671999Y-103694000D01*
X158322001Y-103694000D01*
X158346505Y-103695204D01*
G37*
G36*
X156296505Y-105981204D02*
G01*
X156320773Y-105984804D01*
X156344572Y-105990765D01*
X156367671Y-105999030D01*
X156389850Y-106009520D01*
X156410893Y-106022132D01*
X156430599Y-106036747D01*
X156448777Y-106053223D01*
X156465253Y-106071401D01*
X156479868Y-106091107D01*
X156492480Y-106112150D01*
X156502970Y-106134329D01*
X156511235Y-106157428D01*
X156517196Y-106181227D01*
X156520796Y-106205495D01*
X156522000Y-106229999D01*
X156522000Y-107130001D01*
X156520796Y-107154505D01*
X156517196Y-107178773D01*
X156511235Y-107202572D01*
X156502970Y-107225671D01*
X156492480Y-107247850D01*
X156479868Y-107268893D01*
X156465253Y-107288599D01*
X156448777Y-107306777D01*
X156430599Y-107323253D01*
X156410893Y-107337868D01*
X156389850Y-107350480D01*
X156367671Y-107360970D01*
X156344572Y-107369235D01*
X156320773Y-107375196D01*
X156296505Y-107378796D01*
X156272001Y-107380000D01*
X155621999Y-107380000D01*
X155597495Y-107378796D01*
X155573227Y-107375196D01*
X155549428Y-107369235D01*
X155526329Y-107360970D01*
X155504150Y-107350480D01*
X155483107Y-107337868D01*
X155463401Y-107323253D01*
X155445223Y-107306777D01*
X155428747Y-107288599D01*
X155414132Y-107268893D01*
X155401520Y-107247850D01*
X155391030Y-107225671D01*
X155382765Y-107202572D01*
X155376804Y-107178773D01*
X155373204Y-107154505D01*
X155372000Y-107130001D01*
X155372000Y-106229999D01*
X155373204Y-106205495D01*
X155376804Y-106181227D01*
X155382765Y-106157428D01*
X155391030Y-106134329D01*
X155401520Y-106112150D01*
X155414132Y-106091107D01*
X155428747Y-106071401D01*
X155445223Y-106053223D01*
X155463401Y-106036747D01*
X155483107Y-106022132D01*
X155504150Y-106009520D01*
X155526329Y-105999030D01*
X155549428Y-105990765D01*
X155573227Y-105984804D01*
X155597495Y-105981204D01*
X155621999Y-105980000D01*
X156272001Y-105980000D01*
X156296505Y-105981204D01*
G37*
G36*
X158346505Y-105981204D02*
G01*
X158370773Y-105984804D01*
X158394572Y-105990765D01*
X158417671Y-105999030D01*
X158439850Y-106009520D01*
X158460893Y-106022132D01*
X158480599Y-106036747D01*
X158498777Y-106053223D01*
X158515253Y-106071401D01*
X158529868Y-106091107D01*
X158542480Y-106112150D01*
X158552970Y-106134329D01*
X158561235Y-106157428D01*
X158567196Y-106181227D01*
X158570796Y-106205495D01*
X158572000Y-106229999D01*
X158572000Y-107130001D01*
X158570796Y-107154505D01*
X158567196Y-107178773D01*
X158561235Y-107202572D01*
X158552970Y-107225671D01*
X158542480Y-107247850D01*
X158529868Y-107268893D01*
X158515253Y-107288599D01*
X158498777Y-107306777D01*
X158480599Y-107323253D01*
X158460893Y-107337868D01*
X158439850Y-107350480D01*
X158417671Y-107360970D01*
X158394572Y-107369235D01*
X158370773Y-107375196D01*
X158346505Y-107378796D01*
X158322001Y-107380000D01*
X157671999Y-107380000D01*
X157647495Y-107378796D01*
X157623227Y-107375196D01*
X157599428Y-107369235D01*
X157576329Y-107360970D01*
X157554150Y-107350480D01*
X157533107Y-107337868D01*
X157513401Y-107323253D01*
X157495223Y-107306777D01*
X157478747Y-107288599D01*
X157464132Y-107268893D01*
X157451520Y-107247850D01*
X157441030Y-107225671D01*
X157432765Y-107202572D01*
X157426804Y-107178773D01*
X157423204Y-107154505D01*
X157422000Y-107130001D01*
X157422000Y-106229999D01*
X157423204Y-106205495D01*
X157426804Y-106181227D01*
X157432765Y-106157428D01*
X157441030Y-106134329D01*
X157451520Y-106112150D01*
X157464132Y-106091107D01*
X157478747Y-106071401D01*
X157495223Y-106053223D01*
X157513401Y-106036747D01*
X157533107Y-106022132D01*
X157554150Y-106009520D01*
X157576329Y-105999030D01*
X157599428Y-105990765D01*
X157623227Y-105984804D01*
X157647495Y-105981204D01*
X157671999Y-105980000D01*
X158322001Y-105980000D01*
X158346505Y-105981204D01*
G37*
G36*
X127993505Y-101790204D02*
G01*
X128017773Y-101793804D01*
X128041572Y-101799765D01*
X128064671Y-101808030D01*
X128086850Y-101818520D01*
X128107893Y-101831132D01*
X128127599Y-101845747D01*
X128145777Y-101862223D01*
X128162253Y-101880401D01*
X128176868Y-101900107D01*
X128189480Y-101921150D01*
X128199970Y-101943329D01*
X128208235Y-101966428D01*
X128214196Y-101990227D01*
X128217796Y-102014495D01*
X128219000Y-102038999D01*
X128219000Y-102939001D01*
X128217796Y-102963505D01*
X128214196Y-102987773D01*
X128208235Y-103011572D01*
X128199970Y-103034671D01*
X128189480Y-103056850D01*
X128176868Y-103077893D01*
X128162253Y-103097599D01*
X128145777Y-103115777D01*
X128127599Y-103132253D01*
X128107893Y-103146868D01*
X128086850Y-103159480D01*
X128064671Y-103169970D01*
X128041572Y-103178235D01*
X128017773Y-103184196D01*
X127993505Y-103187796D01*
X127969001Y-103189000D01*
X127318999Y-103189000D01*
X127294495Y-103187796D01*
X127270227Y-103184196D01*
X127246428Y-103178235D01*
X127223329Y-103169970D01*
X127201150Y-103159480D01*
X127180107Y-103146868D01*
X127160401Y-103132253D01*
X127142223Y-103115777D01*
X127125747Y-103097599D01*
X127111132Y-103077893D01*
X127098520Y-103056850D01*
X127088030Y-103034671D01*
X127079765Y-103011572D01*
X127073804Y-102987773D01*
X127070204Y-102963505D01*
X127069000Y-102939001D01*
X127069000Y-102038999D01*
X127070204Y-102014495D01*
X127073804Y-101990227D01*
X127079765Y-101966428D01*
X127088030Y-101943329D01*
X127098520Y-101921150D01*
X127111132Y-101900107D01*
X127125747Y-101880401D01*
X127142223Y-101862223D01*
X127160401Y-101845747D01*
X127180107Y-101831132D01*
X127201150Y-101818520D01*
X127223329Y-101808030D01*
X127246428Y-101799765D01*
X127270227Y-101793804D01*
X127294495Y-101790204D01*
X127318999Y-101789000D01*
X127969001Y-101789000D01*
X127993505Y-101790204D01*
G37*
G36*
X125943505Y-101790204D02*
G01*
X125967773Y-101793804D01*
X125991572Y-101799765D01*
X126014671Y-101808030D01*
X126036850Y-101818520D01*
X126057893Y-101831132D01*
X126077599Y-101845747D01*
X126095777Y-101862223D01*
X126112253Y-101880401D01*
X126126868Y-101900107D01*
X126139480Y-101921150D01*
X126149970Y-101943329D01*
X126158235Y-101966428D01*
X126164196Y-101990227D01*
X126167796Y-102014495D01*
X126169000Y-102038999D01*
X126169000Y-102939001D01*
X126167796Y-102963505D01*
X126164196Y-102987773D01*
X126158235Y-103011572D01*
X126149970Y-103034671D01*
X126139480Y-103056850D01*
X126126868Y-103077893D01*
X126112253Y-103097599D01*
X126095777Y-103115777D01*
X126077599Y-103132253D01*
X126057893Y-103146868D01*
X126036850Y-103159480D01*
X126014671Y-103169970D01*
X125991572Y-103178235D01*
X125967773Y-103184196D01*
X125943505Y-103187796D01*
X125919001Y-103189000D01*
X125268999Y-103189000D01*
X125244495Y-103187796D01*
X125220227Y-103184196D01*
X125196428Y-103178235D01*
X125173329Y-103169970D01*
X125151150Y-103159480D01*
X125130107Y-103146868D01*
X125110401Y-103132253D01*
X125092223Y-103115777D01*
X125075747Y-103097599D01*
X125061132Y-103077893D01*
X125048520Y-103056850D01*
X125038030Y-103034671D01*
X125029765Y-103011572D01*
X125023804Y-102987773D01*
X125020204Y-102963505D01*
X125019000Y-102939001D01*
X125019000Y-102038999D01*
X125020204Y-102014495D01*
X125023804Y-101990227D01*
X125029765Y-101966428D01*
X125038030Y-101943329D01*
X125048520Y-101921150D01*
X125061132Y-101900107D01*
X125075747Y-101880401D01*
X125092223Y-101862223D01*
X125110401Y-101845747D01*
X125130107Y-101831132D01*
X125151150Y-101818520D01*
X125173329Y-101808030D01*
X125196428Y-101799765D01*
X125220227Y-101793804D01*
X125244495Y-101790204D01*
X125268999Y-101789000D01*
X125919001Y-101789000D01*
X125943505Y-101790204D01*
G37*
D14*
X130937000Y-100847000D03*
X132207000Y-100847000D03*
X133477000Y-100847000D03*
X134747000Y-100847000D03*
X136017000Y-100847000D03*
X137287000Y-100847000D03*
X138557000Y-100847000D03*
X139827000Y-100847000D03*
X141097000Y-100847000D03*
X142367000Y-100847000D03*
X143637000Y-100847000D03*
X144907000Y-100847000D03*
X146177000Y-100847000D03*
X147447000Y-100847000D03*
D15*
X148447000Y-103632000D03*
X148447000Y-104902000D03*
X148447000Y-106172000D03*
X148447000Y-107442000D03*
X148447000Y-108712000D03*
X148447000Y-109982000D03*
X148447000Y-111252000D03*
X148447000Y-112522000D03*
X148447000Y-113792000D03*
X148447000Y-115062000D03*
D14*
X147447000Y-117847000D03*
X146177000Y-117847000D03*
X144907000Y-117847000D03*
X143637000Y-117847000D03*
X142367000Y-117847000D03*
X141097000Y-117847000D03*
X139827000Y-117847000D03*
X138557000Y-117847000D03*
X137287000Y-117847000D03*
X136017000Y-117847000D03*
X134747000Y-117847000D03*
X133477000Y-117847000D03*
X132207000Y-117847000D03*
X130937000Y-117847000D03*
D16*
X138437000Y-110347000D03*
D10*
G36*
X162156505Y-103695204D02*
G01*
X162180773Y-103698804D01*
X162204572Y-103704765D01*
X162227671Y-103713030D01*
X162249850Y-103723520D01*
X162270893Y-103736132D01*
X162290599Y-103750747D01*
X162308777Y-103767223D01*
X162325253Y-103785401D01*
X162339868Y-103805107D01*
X162352480Y-103826150D01*
X162362970Y-103848329D01*
X162371235Y-103871428D01*
X162377196Y-103895227D01*
X162380796Y-103919495D01*
X162382000Y-103943999D01*
X162382000Y-104844001D01*
X162380796Y-104868505D01*
X162377196Y-104892773D01*
X162371235Y-104916572D01*
X162362970Y-104939671D01*
X162352480Y-104961850D01*
X162339868Y-104982893D01*
X162325253Y-105002599D01*
X162308777Y-105020777D01*
X162290599Y-105037253D01*
X162270893Y-105051868D01*
X162249850Y-105064480D01*
X162227671Y-105074970D01*
X162204572Y-105083235D01*
X162180773Y-105089196D01*
X162156505Y-105092796D01*
X162132001Y-105094000D01*
X161481999Y-105094000D01*
X161457495Y-105092796D01*
X161433227Y-105089196D01*
X161409428Y-105083235D01*
X161386329Y-105074970D01*
X161364150Y-105064480D01*
X161343107Y-105051868D01*
X161323401Y-105037253D01*
X161305223Y-105020777D01*
X161288747Y-105002599D01*
X161274132Y-104982893D01*
X161261520Y-104961850D01*
X161251030Y-104939671D01*
X161242765Y-104916572D01*
X161236804Y-104892773D01*
X161233204Y-104868505D01*
X161232000Y-104844001D01*
X161232000Y-103943999D01*
X161233204Y-103919495D01*
X161236804Y-103895227D01*
X161242765Y-103871428D01*
X161251030Y-103848329D01*
X161261520Y-103826150D01*
X161274132Y-103805107D01*
X161288747Y-103785401D01*
X161305223Y-103767223D01*
X161323401Y-103750747D01*
X161343107Y-103736132D01*
X161364150Y-103723520D01*
X161386329Y-103713030D01*
X161409428Y-103704765D01*
X161433227Y-103698804D01*
X161457495Y-103695204D01*
X161481999Y-103694000D01*
X162132001Y-103694000D01*
X162156505Y-103695204D01*
G37*
G36*
X160106505Y-103695204D02*
G01*
X160130773Y-103698804D01*
X160154572Y-103704765D01*
X160177671Y-103713030D01*
X160199850Y-103723520D01*
X160220893Y-103736132D01*
X160240599Y-103750747D01*
X160258777Y-103767223D01*
X160275253Y-103785401D01*
X160289868Y-103805107D01*
X160302480Y-103826150D01*
X160312970Y-103848329D01*
X160321235Y-103871428D01*
X160327196Y-103895227D01*
X160330796Y-103919495D01*
X160332000Y-103943999D01*
X160332000Y-104844001D01*
X160330796Y-104868505D01*
X160327196Y-104892773D01*
X160321235Y-104916572D01*
X160312970Y-104939671D01*
X160302480Y-104961850D01*
X160289868Y-104982893D01*
X160275253Y-105002599D01*
X160258777Y-105020777D01*
X160240599Y-105037253D01*
X160220893Y-105051868D01*
X160199850Y-105064480D01*
X160177671Y-105074970D01*
X160154572Y-105083235D01*
X160130773Y-105089196D01*
X160106505Y-105092796D01*
X160082001Y-105094000D01*
X159431999Y-105094000D01*
X159407495Y-105092796D01*
X159383227Y-105089196D01*
X159359428Y-105083235D01*
X159336329Y-105074970D01*
X159314150Y-105064480D01*
X159293107Y-105051868D01*
X159273401Y-105037253D01*
X159255223Y-105020777D01*
X159238747Y-105002599D01*
X159224132Y-104982893D01*
X159211520Y-104961850D01*
X159201030Y-104939671D01*
X159192765Y-104916572D01*
X159186804Y-104892773D01*
X159183204Y-104868505D01*
X159182000Y-104844001D01*
X159182000Y-103943999D01*
X159183204Y-103919495D01*
X159186804Y-103895227D01*
X159192765Y-103871428D01*
X159201030Y-103848329D01*
X159211520Y-103826150D01*
X159224132Y-103805107D01*
X159238747Y-103785401D01*
X159255223Y-103767223D01*
X159273401Y-103750747D01*
X159293107Y-103736132D01*
X159314150Y-103723520D01*
X159336329Y-103713030D01*
X159359428Y-103704765D01*
X159383227Y-103698804D01*
X159407495Y-103695204D01*
X159431999Y-103694000D01*
X160082001Y-103694000D01*
X160106505Y-103695204D01*
G37*
G36*
X160494505Y-92127204D02*
G01*
X160518773Y-92130804D01*
X160542572Y-92136765D01*
X160565671Y-92145030D01*
X160587850Y-92155520D01*
X160608893Y-92168132D01*
X160628599Y-92182747D01*
X160646777Y-92199223D01*
X160663253Y-92217401D01*
X160677868Y-92237107D01*
X160690480Y-92258150D01*
X160700970Y-92280329D01*
X160709235Y-92303428D01*
X160715196Y-92327227D01*
X160718796Y-92351495D01*
X160720000Y-92375999D01*
X160720000Y-93026001D01*
X160718796Y-93050505D01*
X160715196Y-93074773D01*
X160709235Y-93098572D01*
X160700970Y-93121671D01*
X160690480Y-93143850D01*
X160677868Y-93164893D01*
X160663253Y-93184599D01*
X160646777Y-93202777D01*
X160628599Y-93219253D01*
X160608893Y-93233868D01*
X160587850Y-93246480D01*
X160565671Y-93256970D01*
X160542572Y-93265235D01*
X160518773Y-93271196D01*
X160494505Y-93274796D01*
X160470001Y-93276000D01*
X159569999Y-93276000D01*
X159545495Y-93274796D01*
X159521227Y-93271196D01*
X159497428Y-93265235D01*
X159474329Y-93256970D01*
X159452150Y-93246480D01*
X159431107Y-93233868D01*
X159411401Y-93219253D01*
X159393223Y-93202777D01*
X159376747Y-93184599D01*
X159362132Y-93164893D01*
X159349520Y-93143850D01*
X159339030Y-93121671D01*
X159330765Y-93098572D01*
X159324804Y-93074773D01*
X159321204Y-93050505D01*
X159320000Y-93026001D01*
X159320000Y-92375999D01*
X159321204Y-92351495D01*
X159324804Y-92327227D01*
X159330765Y-92303428D01*
X159339030Y-92280329D01*
X159349520Y-92258150D01*
X159362132Y-92237107D01*
X159376747Y-92217401D01*
X159393223Y-92199223D01*
X159411401Y-92182747D01*
X159431107Y-92168132D01*
X159452150Y-92155520D01*
X159474329Y-92145030D01*
X159497428Y-92136765D01*
X159521227Y-92130804D01*
X159545495Y-92127204D01*
X159569999Y-92126000D01*
X160470001Y-92126000D01*
X160494505Y-92127204D01*
G37*
G36*
X160494505Y-94177204D02*
G01*
X160518773Y-94180804D01*
X160542572Y-94186765D01*
X160565671Y-94195030D01*
X160587850Y-94205520D01*
X160608893Y-94218132D01*
X160628599Y-94232747D01*
X160646777Y-94249223D01*
X160663253Y-94267401D01*
X160677868Y-94287107D01*
X160690480Y-94308150D01*
X160700970Y-94330329D01*
X160709235Y-94353428D01*
X160715196Y-94377227D01*
X160718796Y-94401495D01*
X160720000Y-94425999D01*
X160720000Y-95076001D01*
X160718796Y-95100505D01*
X160715196Y-95124773D01*
X160709235Y-95148572D01*
X160700970Y-95171671D01*
X160690480Y-95193850D01*
X160677868Y-95214893D01*
X160663253Y-95234599D01*
X160646777Y-95252777D01*
X160628599Y-95269253D01*
X160608893Y-95283868D01*
X160587850Y-95296480D01*
X160565671Y-95306970D01*
X160542572Y-95315235D01*
X160518773Y-95321196D01*
X160494505Y-95324796D01*
X160470001Y-95326000D01*
X159569999Y-95326000D01*
X159545495Y-95324796D01*
X159521227Y-95321196D01*
X159497428Y-95315235D01*
X159474329Y-95306970D01*
X159452150Y-95296480D01*
X159431107Y-95283868D01*
X159411401Y-95269253D01*
X159393223Y-95252777D01*
X159376747Y-95234599D01*
X159362132Y-95214893D01*
X159349520Y-95193850D01*
X159339030Y-95171671D01*
X159330765Y-95148572D01*
X159324804Y-95124773D01*
X159321204Y-95100505D01*
X159320000Y-95076001D01*
X159320000Y-94425999D01*
X159321204Y-94401495D01*
X159324804Y-94377227D01*
X159330765Y-94353428D01*
X159339030Y-94330329D01*
X159349520Y-94308150D01*
X159362132Y-94287107D01*
X159376747Y-94267401D01*
X159393223Y-94249223D01*
X159411401Y-94232747D01*
X159431107Y-94218132D01*
X159452150Y-94205520D01*
X159474329Y-94195030D01*
X159497428Y-94186765D01*
X159521227Y-94180804D01*
X159545495Y-94177204D01*
X159569999Y-94176000D01*
X160470001Y-94176000D01*
X160494505Y-94177204D01*
G37*
G36*
X165574505Y-117799204D02*
G01*
X165598773Y-117802804D01*
X165622572Y-117808765D01*
X165645671Y-117817030D01*
X165667850Y-117827520D01*
X165688893Y-117840132D01*
X165708599Y-117854747D01*
X165726777Y-117871223D01*
X165743253Y-117889401D01*
X165757868Y-117909107D01*
X165770480Y-117930150D01*
X165780970Y-117952329D01*
X165789235Y-117975428D01*
X165795196Y-117999227D01*
X165798796Y-118023495D01*
X165800000Y-118047999D01*
X165800000Y-118698001D01*
X165798796Y-118722505D01*
X165795196Y-118746773D01*
X165789235Y-118770572D01*
X165780970Y-118793671D01*
X165770480Y-118815850D01*
X165757868Y-118836893D01*
X165743253Y-118856599D01*
X165726777Y-118874777D01*
X165708599Y-118891253D01*
X165688893Y-118905868D01*
X165667850Y-118918480D01*
X165645671Y-118928970D01*
X165622572Y-118937235D01*
X165598773Y-118943196D01*
X165574505Y-118946796D01*
X165550001Y-118948000D01*
X164649999Y-118948000D01*
X164625495Y-118946796D01*
X164601227Y-118943196D01*
X164577428Y-118937235D01*
X164554329Y-118928970D01*
X164532150Y-118918480D01*
X164511107Y-118905868D01*
X164491401Y-118891253D01*
X164473223Y-118874777D01*
X164456747Y-118856599D01*
X164442132Y-118836893D01*
X164429520Y-118815850D01*
X164419030Y-118793671D01*
X164410765Y-118770572D01*
X164404804Y-118746773D01*
X164401204Y-118722505D01*
X164400000Y-118698001D01*
X164400000Y-118047999D01*
X164401204Y-118023495D01*
X164404804Y-117999227D01*
X164410765Y-117975428D01*
X164419030Y-117952329D01*
X164429520Y-117930150D01*
X164442132Y-117909107D01*
X164456747Y-117889401D01*
X164473223Y-117871223D01*
X164491401Y-117854747D01*
X164511107Y-117840132D01*
X164532150Y-117827520D01*
X164554329Y-117817030D01*
X164577428Y-117808765D01*
X164601227Y-117802804D01*
X164625495Y-117799204D01*
X164649999Y-117798000D01*
X165550001Y-117798000D01*
X165574505Y-117799204D01*
G37*
G36*
X165574505Y-115749204D02*
G01*
X165598773Y-115752804D01*
X165622572Y-115758765D01*
X165645671Y-115767030D01*
X165667850Y-115777520D01*
X165688893Y-115790132D01*
X165708599Y-115804747D01*
X165726777Y-115821223D01*
X165743253Y-115839401D01*
X165757868Y-115859107D01*
X165770480Y-115880150D01*
X165780970Y-115902329D01*
X165789235Y-115925428D01*
X165795196Y-115949227D01*
X165798796Y-115973495D01*
X165800000Y-115997999D01*
X165800000Y-116648001D01*
X165798796Y-116672505D01*
X165795196Y-116696773D01*
X165789235Y-116720572D01*
X165780970Y-116743671D01*
X165770480Y-116765850D01*
X165757868Y-116786893D01*
X165743253Y-116806599D01*
X165726777Y-116824777D01*
X165708599Y-116841253D01*
X165688893Y-116855868D01*
X165667850Y-116868480D01*
X165645671Y-116878970D01*
X165622572Y-116887235D01*
X165598773Y-116893196D01*
X165574505Y-116896796D01*
X165550001Y-116898000D01*
X164649999Y-116898000D01*
X164625495Y-116896796D01*
X164601227Y-116893196D01*
X164577428Y-116887235D01*
X164554329Y-116878970D01*
X164532150Y-116868480D01*
X164511107Y-116855868D01*
X164491401Y-116841253D01*
X164473223Y-116824777D01*
X164456747Y-116806599D01*
X164442132Y-116786893D01*
X164429520Y-116765850D01*
X164419030Y-116743671D01*
X164410765Y-116720572D01*
X164404804Y-116696773D01*
X164401204Y-116672505D01*
X164400000Y-116648001D01*
X164400000Y-115997999D01*
X164401204Y-115973495D01*
X164404804Y-115949227D01*
X164410765Y-115925428D01*
X164419030Y-115902329D01*
X164429520Y-115880150D01*
X164442132Y-115859107D01*
X164456747Y-115839401D01*
X164473223Y-115821223D01*
X164491401Y-115804747D01*
X164511107Y-115790132D01*
X164532150Y-115777520D01*
X164554329Y-115767030D01*
X164577428Y-115758765D01*
X164601227Y-115752804D01*
X164625495Y-115749204D01*
X164649999Y-115748000D01*
X165550001Y-115748000D01*
X165574505Y-115749204D01*
G37*
G36*
X123350603Y-105299963D02*
G01*
X123370018Y-105302843D01*
X123389057Y-105307612D01*
X123407537Y-105314224D01*
X123425279Y-105322616D01*
X123442114Y-105332706D01*
X123457879Y-105344398D01*
X123472421Y-105357579D01*
X123485602Y-105372121D01*
X123497294Y-105387886D01*
X123507384Y-105404721D01*
X123515776Y-105422463D01*
X123522388Y-105440943D01*
X123527157Y-105459982D01*
X123530037Y-105479397D01*
X123531000Y-105499000D01*
X123531000Y-107099000D01*
X123530037Y-107118603D01*
X123527157Y-107138018D01*
X123522388Y-107157057D01*
X123515776Y-107175537D01*
X123507384Y-107193279D01*
X123497294Y-107210114D01*
X123485602Y-107225879D01*
X123472421Y-107240421D01*
X123457879Y-107253602D01*
X123442114Y-107265294D01*
X123425279Y-107275384D01*
X123407537Y-107283776D01*
X123389057Y-107290388D01*
X123370018Y-107295157D01*
X123350603Y-107298037D01*
X123331000Y-107299000D01*
X122931000Y-107299000D01*
X122911397Y-107298037D01*
X122891982Y-107295157D01*
X122872943Y-107290388D01*
X122854463Y-107283776D01*
X122836721Y-107275384D01*
X122819886Y-107265294D01*
X122804121Y-107253602D01*
X122789579Y-107240421D01*
X122776398Y-107225879D01*
X122764706Y-107210114D01*
X122754616Y-107193279D01*
X122746224Y-107175537D01*
X122739612Y-107157057D01*
X122734843Y-107138018D01*
X122731963Y-107118603D01*
X122731000Y-107099000D01*
X122731000Y-105499000D01*
X122731963Y-105479397D01*
X122734843Y-105459982D01*
X122739612Y-105440943D01*
X122746224Y-105422463D01*
X122754616Y-105404721D01*
X122764706Y-105387886D01*
X122776398Y-105372121D01*
X122789579Y-105357579D01*
X122804121Y-105344398D01*
X122819886Y-105332706D01*
X122836721Y-105322616D01*
X122854463Y-105314224D01*
X122872943Y-105307612D01*
X122891982Y-105302843D01*
X122911397Y-105299963D01*
X122931000Y-105299000D01*
X123331000Y-105299000D01*
X123350603Y-105299963D01*
G37*
G36*
X119150603Y-105299963D02*
G01*
X119170018Y-105302843D01*
X119189057Y-105307612D01*
X119207537Y-105314224D01*
X119225279Y-105322616D01*
X119242114Y-105332706D01*
X119257879Y-105344398D01*
X119272421Y-105357579D01*
X119285602Y-105372121D01*
X119297294Y-105387886D01*
X119307384Y-105404721D01*
X119315776Y-105422463D01*
X119322388Y-105440943D01*
X119327157Y-105459982D01*
X119330037Y-105479397D01*
X119331000Y-105499000D01*
X119331000Y-107099000D01*
X119330037Y-107118603D01*
X119327157Y-107138018D01*
X119322388Y-107157057D01*
X119315776Y-107175537D01*
X119307384Y-107193279D01*
X119297294Y-107210114D01*
X119285602Y-107225879D01*
X119272421Y-107240421D01*
X119257879Y-107253602D01*
X119242114Y-107265294D01*
X119225279Y-107275384D01*
X119207537Y-107283776D01*
X119189057Y-107290388D01*
X119170018Y-107295157D01*
X119150603Y-107298037D01*
X119131000Y-107299000D01*
X118731000Y-107299000D01*
X118711397Y-107298037D01*
X118691982Y-107295157D01*
X118672943Y-107290388D01*
X118654463Y-107283776D01*
X118636721Y-107275384D01*
X118619886Y-107265294D01*
X118604121Y-107253602D01*
X118589579Y-107240421D01*
X118576398Y-107225879D01*
X118564706Y-107210114D01*
X118554616Y-107193279D01*
X118546224Y-107175537D01*
X118539612Y-107157057D01*
X118534843Y-107138018D01*
X118531963Y-107118603D01*
X118531000Y-107099000D01*
X118531000Y-105499000D01*
X118531963Y-105479397D01*
X118534843Y-105459982D01*
X118539612Y-105440943D01*
X118546224Y-105422463D01*
X118554616Y-105404721D01*
X118564706Y-105387886D01*
X118576398Y-105372121D01*
X118589579Y-105357579D01*
X118604121Y-105344398D01*
X118619886Y-105332706D01*
X118636721Y-105322616D01*
X118654463Y-105314224D01*
X118672943Y-105307612D01*
X118691982Y-105302843D01*
X118711397Y-105299963D01*
X118731000Y-105299000D01*
X119131000Y-105299000D01*
X119150603Y-105299963D01*
G37*
G36*
X125943505Y-105600204D02*
G01*
X125967773Y-105603804D01*
X125991572Y-105609765D01*
X126014671Y-105618030D01*
X126036850Y-105628520D01*
X126057893Y-105641132D01*
X126077599Y-105655747D01*
X126095777Y-105672223D01*
X126112253Y-105690401D01*
X126126868Y-105710107D01*
X126139480Y-105731150D01*
X126149970Y-105753329D01*
X126158235Y-105776428D01*
X126164196Y-105800227D01*
X126167796Y-105824495D01*
X126169000Y-105848999D01*
X126169000Y-106749001D01*
X126167796Y-106773505D01*
X126164196Y-106797773D01*
X126158235Y-106821572D01*
X126149970Y-106844671D01*
X126139480Y-106866850D01*
X126126868Y-106887893D01*
X126112253Y-106907599D01*
X126095777Y-106925777D01*
X126077599Y-106942253D01*
X126057893Y-106956868D01*
X126036850Y-106969480D01*
X126014671Y-106979970D01*
X125991572Y-106988235D01*
X125967773Y-106994196D01*
X125943505Y-106997796D01*
X125919001Y-106999000D01*
X125268999Y-106999000D01*
X125244495Y-106997796D01*
X125220227Y-106994196D01*
X125196428Y-106988235D01*
X125173329Y-106979970D01*
X125151150Y-106969480D01*
X125130107Y-106956868D01*
X125110401Y-106942253D01*
X125092223Y-106925777D01*
X125075747Y-106907599D01*
X125061132Y-106887893D01*
X125048520Y-106866850D01*
X125038030Y-106844671D01*
X125029765Y-106821572D01*
X125023804Y-106797773D01*
X125020204Y-106773505D01*
X125019000Y-106749001D01*
X125019000Y-105848999D01*
X125020204Y-105824495D01*
X125023804Y-105800227D01*
X125029765Y-105776428D01*
X125038030Y-105753329D01*
X125048520Y-105731150D01*
X125061132Y-105710107D01*
X125075747Y-105690401D01*
X125092223Y-105672223D01*
X125110401Y-105655747D01*
X125130107Y-105641132D01*
X125151150Y-105628520D01*
X125173329Y-105618030D01*
X125196428Y-105609765D01*
X125220227Y-105603804D01*
X125244495Y-105600204D01*
X125268999Y-105599000D01*
X125919001Y-105599000D01*
X125943505Y-105600204D01*
G37*
G36*
X127993505Y-105600204D02*
G01*
X128017773Y-105603804D01*
X128041572Y-105609765D01*
X128064671Y-105618030D01*
X128086850Y-105628520D01*
X128107893Y-105641132D01*
X128127599Y-105655747D01*
X128145777Y-105672223D01*
X128162253Y-105690401D01*
X128176868Y-105710107D01*
X128189480Y-105731150D01*
X128199970Y-105753329D01*
X128208235Y-105776428D01*
X128214196Y-105800227D01*
X128217796Y-105824495D01*
X128219000Y-105848999D01*
X128219000Y-106749001D01*
X128217796Y-106773505D01*
X128214196Y-106797773D01*
X128208235Y-106821572D01*
X128199970Y-106844671D01*
X128189480Y-106866850D01*
X128176868Y-106887893D01*
X128162253Y-106907599D01*
X128145777Y-106925777D01*
X128127599Y-106942253D01*
X128107893Y-106956868D01*
X128086850Y-106969480D01*
X128064671Y-106979970D01*
X128041572Y-106988235D01*
X128017773Y-106994196D01*
X127993505Y-106997796D01*
X127969001Y-106999000D01*
X127318999Y-106999000D01*
X127294495Y-106997796D01*
X127270227Y-106994196D01*
X127246428Y-106988235D01*
X127223329Y-106979970D01*
X127201150Y-106969480D01*
X127180107Y-106956868D01*
X127160401Y-106942253D01*
X127142223Y-106925777D01*
X127125747Y-106907599D01*
X127111132Y-106887893D01*
X127098520Y-106866850D01*
X127088030Y-106844671D01*
X127079765Y-106821572D01*
X127073804Y-106797773D01*
X127070204Y-106773505D01*
X127069000Y-106749001D01*
X127069000Y-105848999D01*
X127070204Y-105824495D01*
X127073804Y-105800227D01*
X127079765Y-105776428D01*
X127088030Y-105753329D01*
X127098520Y-105731150D01*
X127111132Y-105710107D01*
X127125747Y-105690401D01*
X127142223Y-105672223D01*
X127160401Y-105655747D01*
X127180107Y-105641132D01*
X127201150Y-105628520D01*
X127223329Y-105618030D01*
X127246428Y-105609765D01*
X127270227Y-105603804D01*
X127294495Y-105600204D01*
X127318999Y-105599000D01*
X127969001Y-105599000D01*
X127993505Y-105600204D01*
G37*
G36*
X152874505Y-79200204D02*
G01*
X152898773Y-79203804D01*
X152922572Y-79209765D01*
X152945671Y-79218030D01*
X152967850Y-79228520D01*
X152988893Y-79241132D01*
X153008599Y-79255747D01*
X153026777Y-79272223D01*
X153043253Y-79290401D01*
X153057868Y-79310107D01*
X153070480Y-79331150D01*
X153080970Y-79353329D01*
X153089235Y-79376428D01*
X153095196Y-79400227D01*
X153098796Y-79424495D01*
X153100000Y-79448999D01*
X153100000Y-80099001D01*
X153098796Y-80123505D01*
X153095196Y-80147773D01*
X153089235Y-80171572D01*
X153080970Y-80194671D01*
X153070480Y-80216850D01*
X153057868Y-80237893D01*
X153043253Y-80257599D01*
X153026777Y-80275777D01*
X153008599Y-80292253D01*
X152988893Y-80306868D01*
X152967850Y-80319480D01*
X152945671Y-80329970D01*
X152922572Y-80338235D01*
X152898773Y-80344196D01*
X152874505Y-80347796D01*
X152850001Y-80349000D01*
X151949999Y-80349000D01*
X151925495Y-80347796D01*
X151901227Y-80344196D01*
X151877428Y-80338235D01*
X151854329Y-80329970D01*
X151832150Y-80319480D01*
X151811107Y-80306868D01*
X151791401Y-80292253D01*
X151773223Y-80275777D01*
X151756747Y-80257599D01*
X151742132Y-80237893D01*
X151729520Y-80216850D01*
X151719030Y-80194671D01*
X151710765Y-80171572D01*
X151704804Y-80147773D01*
X151701204Y-80123505D01*
X151700000Y-80099001D01*
X151700000Y-79448999D01*
X151701204Y-79424495D01*
X151704804Y-79400227D01*
X151710765Y-79376428D01*
X151719030Y-79353329D01*
X151729520Y-79331150D01*
X151742132Y-79310107D01*
X151756747Y-79290401D01*
X151773223Y-79272223D01*
X151791401Y-79255747D01*
X151811107Y-79241132D01*
X151832150Y-79228520D01*
X151854329Y-79218030D01*
X151877428Y-79209765D01*
X151901227Y-79203804D01*
X151925495Y-79200204D01*
X151949999Y-79199000D01*
X152850001Y-79199000D01*
X152874505Y-79200204D01*
G37*
G36*
X152874505Y-77150204D02*
G01*
X152898773Y-77153804D01*
X152922572Y-77159765D01*
X152945671Y-77168030D01*
X152967850Y-77178520D01*
X152988893Y-77191132D01*
X153008599Y-77205747D01*
X153026777Y-77222223D01*
X153043253Y-77240401D01*
X153057868Y-77260107D01*
X153070480Y-77281150D01*
X153080970Y-77303329D01*
X153089235Y-77326428D01*
X153095196Y-77350227D01*
X153098796Y-77374495D01*
X153100000Y-77398999D01*
X153100000Y-78049001D01*
X153098796Y-78073505D01*
X153095196Y-78097773D01*
X153089235Y-78121572D01*
X153080970Y-78144671D01*
X153070480Y-78166850D01*
X153057868Y-78187893D01*
X153043253Y-78207599D01*
X153026777Y-78225777D01*
X153008599Y-78242253D01*
X152988893Y-78256868D01*
X152967850Y-78269480D01*
X152945671Y-78279970D01*
X152922572Y-78288235D01*
X152898773Y-78294196D01*
X152874505Y-78297796D01*
X152850001Y-78299000D01*
X151949999Y-78299000D01*
X151925495Y-78297796D01*
X151901227Y-78294196D01*
X151877428Y-78288235D01*
X151854329Y-78279970D01*
X151832150Y-78269480D01*
X151811107Y-78256868D01*
X151791401Y-78242253D01*
X151773223Y-78225777D01*
X151756747Y-78207599D01*
X151742132Y-78187893D01*
X151729520Y-78166850D01*
X151719030Y-78144671D01*
X151710765Y-78121572D01*
X151704804Y-78097773D01*
X151701204Y-78073505D01*
X151700000Y-78049001D01*
X151700000Y-77398999D01*
X151701204Y-77374495D01*
X151704804Y-77350227D01*
X151710765Y-77326428D01*
X151719030Y-77303329D01*
X151729520Y-77281150D01*
X151742132Y-77260107D01*
X151756747Y-77240401D01*
X151773223Y-77222223D01*
X151791401Y-77205747D01*
X151811107Y-77191132D01*
X151832150Y-77178520D01*
X151854329Y-77168030D01*
X151877428Y-77159765D01*
X151901227Y-77153804D01*
X151925495Y-77150204D01*
X151949999Y-77149000D01*
X152850001Y-77149000D01*
X152874505Y-77150204D01*
G37*
G36*
X162156505Y-105981204D02*
G01*
X162180773Y-105984804D01*
X162204572Y-105990765D01*
X162227671Y-105999030D01*
X162249850Y-106009520D01*
X162270893Y-106022132D01*
X162290599Y-106036747D01*
X162308777Y-106053223D01*
X162325253Y-106071401D01*
X162339868Y-106091107D01*
X162352480Y-106112150D01*
X162362970Y-106134329D01*
X162371235Y-106157428D01*
X162377196Y-106181227D01*
X162380796Y-106205495D01*
X162382000Y-106229999D01*
X162382000Y-107130001D01*
X162380796Y-107154505D01*
X162377196Y-107178773D01*
X162371235Y-107202572D01*
X162362970Y-107225671D01*
X162352480Y-107247850D01*
X162339868Y-107268893D01*
X162325253Y-107288599D01*
X162308777Y-107306777D01*
X162290599Y-107323253D01*
X162270893Y-107337868D01*
X162249850Y-107350480D01*
X162227671Y-107360970D01*
X162204572Y-107369235D01*
X162180773Y-107375196D01*
X162156505Y-107378796D01*
X162132001Y-107380000D01*
X161481999Y-107380000D01*
X161457495Y-107378796D01*
X161433227Y-107375196D01*
X161409428Y-107369235D01*
X161386329Y-107360970D01*
X161364150Y-107350480D01*
X161343107Y-107337868D01*
X161323401Y-107323253D01*
X161305223Y-107306777D01*
X161288747Y-107288599D01*
X161274132Y-107268893D01*
X161261520Y-107247850D01*
X161251030Y-107225671D01*
X161242765Y-107202572D01*
X161236804Y-107178773D01*
X161233204Y-107154505D01*
X161232000Y-107130001D01*
X161232000Y-106229999D01*
X161233204Y-106205495D01*
X161236804Y-106181227D01*
X161242765Y-106157428D01*
X161251030Y-106134329D01*
X161261520Y-106112150D01*
X161274132Y-106091107D01*
X161288747Y-106071401D01*
X161305223Y-106053223D01*
X161323401Y-106036747D01*
X161343107Y-106022132D01*
X161364150Y-106009520D01*
X161386329Y-105999030D01*
X161409428Y-105990765D01*
X161433227Y-105984804D01*
X161457495Y-105981204D01*
X161481999Y-105980000D01*
X162132001Y-105980000D01*
X162156505Y-105981204D01*
G37*
G36*
X160106505Y-105981204D02*
G01*
X160130773Y-105984804D01*
X160154572Y-105990765D01*
X160177671Y-105999030D01*
X160199850Y-106009520D01*
X160220893Y-106022132D01*
X160240599Y-106036747D01*
X160258777Y-106053223D01*
X160275253Y-106071401D01*
X160289868Y-106091107D01*
X160302480Y-106112150D01*
X160312970Y-106134329D01*
X160321235Y-106157428D01*
X160327196Y-106181227D01*
X160330796Y-106205495D01*
X160332000Y-106229999D01*
X160332000Y-107130001D01*
X160330796Y-107154505D01*
X160327196Y-107178773D01*
X160321235Y-107202572D01*
X160312970Y-107225671D01*
X160302480Y-107247850D01*
X160289868Y-107268893D01*
X160275253Y-107288599D01*
X160258777Y-107306777D01*
X160240599Y-107323253D01*
X160220893Y-107337868D01*
X160199850Y-107350480D01*
X160177671Y-107360970D01*
X160154572Y-107369235D01*
X160130773Y-107375196D01*
X160106505Y-107378796D01*
X160082001Y-107380000D01*
X159431999Y-107380000D01*
X159407495Y-107378796D01*
X159383227Y-107375196D01*
X159359428Y-107369235D01*
X159336329Y-107360970D01*
X159314150Y-107350480D01*
X159293107Y-107337868D01*
X159273401Y-107323253D01*
X159255223Y-107306777D01*
X159238747Y-107288599D01*
X159224132Y-107268893D01*
X159211520Y-107247850D01*
X159201030Y-107225671D01*
X159192765Y-107202572D01*
X159186804Y-107178773D01*
X159183204Y-107154505D01*
X159182000Y-107130001D01*
X159182000Y-106229999D01*
X159183204Y-106205495D01*
X159186804Y-106181227D01*
X159192765Y-106157428D01*
X159201030Y-106134329D01*
X159211520Y-106112150D01*
X159224132Y-106091107D01*
X159238747Y-106071401D01*
X159255223Y-106053223D01*
X159273401Y-106036747D01*
X159293107Y-106022132D01*
X159314150Y-106009520D01*
X159336329Y-105999030D01*
X159359428Y-105990765D01*
X159383227Y-105984804D01*
X159407495Y-105981204D01*
X159431999Y-105980000D01*
X160082001Y-105980000D01*
X160106505Y-105981204D01*
G37*
G36*
X127993505Y-109410204D02*
G01*
X128017773Y-109413804D01*
X128041572Y-109419765D01*
X128064671Y-109428030D01*
X128086850Y-109438520D01*
X128107893Y-109451132D01*
X128127599Y-109465747D01*
X128145777Y-109482223D01*
X128162253Y-109500401D01*
X128176868Y-109520107D01*
X128189480Y-109541150D01*
X128199970Y-109563329D01*
X128208235Y-109586428D01*
X128214196Y-109610227D01*
X128217796Y-109634495D01*
X128219000Y-109658999D01*
X128219000Y-110559001D01*
X128217796Y-110583505D01*
X128214196Y-110607773D01*
X128208235Y-110631572D01*
X128199970Y-110654671D01*
X128189480Y-110676850D01*
X128176868Y-110697893D01*
X128162253Y-110717599D01*
X128145777Y-110735777D01*
X128127599Y-110752253D01*
X128107893Y-110766868D01*
X128086850Y-110779480D01*
X128064671Y-110789970D01*
X128041572Y-110798235D01*
X128017773Y-110804196D01*
X127993505Y-110807796D01*
X127969001Y-110809000D01*
X127318999Y-110809000D01*
X127294495Y-110807796D01*
X127270227Y-110804196D01*
X127246428Y-110798235D01*
X127223329Y-110789970D01*
X127201150Y-110779480D01*
X127180107Y-110766868D01*
X127160401Y-110752253D01*
X127142223Y-110735777D01*
X127125747Y-110717599D01*
X127111132Y-110697893D01*
X127098520Y-110676850D01*
X127088030Y-110654671D01*
X127079765Y-110631572D01*
X127073804Y-110607773D01*
X127070204Y-110583505D01*
X127069000Y-110559001D01*
X127069000Y-109658999D01*
X127070204Y-109634495D01*
X127073804Y-109610227D01*
X127079765Y-109586428D01*
X127088030Y-109563329D01*
X127098520Y-109541150D01*
X127111132Y-109520107D01*
X127125747Y-109500401D01*
X127142223Y-109482223D01*
X127160401Y-109465747D01*
X127180107Y-109451132D01*
X127201150Y-109438520D01*
X127223329Y-109428030D01*
X127246428Y-109419765D01*
X127270227Y-109413804D01*
X127294495Y-109410204D01*
X127318999Y-109409000D01*
X127969001Y-109409000D01*
X127993505Y-109410204D01*
G37*
G36*
X125943505Y-109410204D02*
G01*
X125967773Y-109413804D01*
X125991572Y-109419765D01*
X126014671Y-109428030D01*
X126036850Y-109438520D01*
X126057893Y-109451132D01*
X126077599Y-109465747D01*
X126095777Y-109482223D01*
X126112253Y-109500401D01*
X126126868Y-109520107D01*
X126139480Y-109541150D01*
X126149970Y-109563329D01*
X126158235Y-109586428D01*
X126164196Y-109610227D01*
X126167796Y-109634495D01*
X126169000Y-109658999D01*
X126169000Y-110559001D01*
X126167796Y-110583505D01*
X126164196Y-110607773D01*
X126158235Y-110631572D01*
X126149970Y-110654671D01*
X126139480Y-110676850D01*
X126126868Y-110697893D01*
X126112253Y-110717599D01*
X126095777Y-110735777D01*
X126077599Y-110752253D01*
X126057893Y-110766868D01*
X126036850Y-110779480D01*
X126014671Y-110789970D01*
X125991572Y-110798235D01*
X125967773Y-110804196D01*
X125943505Y-110807796D01*
X125919001Y-110809000D01*
X125268999Y-110809000D01*
X125244495Y-110807796D01*
X125220227Y-110804196D01*
X125196428Y-110798235D01*
X125173329Y-110789970D01*
X125151150Y-110779480D01*
X125130107Y-110766868D01*
X125110401Y-110752253D01*
X125092223Y-110735777D01*
X125075747Y-110717599D01*
X125061132Y-110697893D01*
X125048520Y-110676850D01*
X125038030Y-110654671D01*
X125029765Y-110631572D01*
X125023804Y-110607773D01*
X125020204Y-110583505D01*
X125019000Y-110559001D01*
X125019000Y-109658999D01*
X125020204Y-109634495D01*
X125023804Y-109610227D01*
X125029765Y-109586428D01*
X125038030Y-109563329D01*
X125048520Y-109541150D01*
X125061132Y-109520107D01*
X125075747Y-109500401D01*
X125092223Y-109482223D01*
X125110401Y-109465747D01*
X125130107Y-109451132D01*
X125151150Y-109438520D01*
X125173329Y-109428030D01*
X125196428Y-109419765D01*
X125220227Y-109413804D01*
X125244495Y-109410204D01*
X125268999Y-109409000D01*
X125919001Y-109409000D01*
X125943505Y-109410204D01*
G37*
D17*
X156154000Y-90839000D03*
X156154000Y-90189000D03*
X156154000Y-89539000D03*
X156154000Y-88889000D03*
X156154000Y-88239000D03*
X156154000Y-87589000D03*
X156154000Y-86939000D03*
X156154000Y-86289000D03*
X156154000Y-85639000D03*
X156154000Y-84989000D03*
X156154000Y-84339000D03*
X156154000Y-83689000D03*
X156154000Y-83039000D03*
X156154000Y-82389000D03*
X161854000Y-82389000D03*
X161854000Y-83039000D03*
X161854000Y-83689000D03*
X161854000Y-84339000D03*
X161854000Y-84989000D03*
X161854000Y-85639000D03*
X161854000Y-86289000D03*
X161854000Y-86939000D03*
X161854000Y-87589000D03*
X161854000Y-88239000D03*
X161854000Y-88889000D03*
X161854000Y-89539000D03*
X161854000Y-90189000D03*
X161854000Y-90839000D03*
D10*
G36*
X127568505Y-111388204D02*
G01*
X127592773Y-111391804D01*
X127616572Y-111397765D01*
X127639671Y-111406030D01*
X127661850Y-111416520D01*
X127682893Y-111429132D01*
X127702599Y-111443747D01*
X127720777Y-111460223D01*
X127737253Y-111478401D01*
X127751868Y-111498107D01*
X127764480Y-111519150D01*
X127774970Y-111541329D01*
X127783235Y-111564428D01*
X127789196Y-111588227D01*
X127792796Y-111612495D01*
X127794000Y-111636999D01*
X127794000Y-113387001D01*
X127792796Y-113411505D01*
X127789196Y-113435773D01*
X127783235Y-113459572D01*
X127774970Y-113482671D01*
X127764480Y-113504850D01*
X127751868Y-113525893D01*
X127737253Y-113545599D01*
X127720777Y-113563777D01*
X127702599Y-113580253D01*
X127682893Y-113594868D01*
X127661850Y-113607480D01*
X127639671Y-113617970D01*
X127616572Y-113626235D01*
X127592773Y-113632196D01*
X127568505Y-113635796D01*
X127544001Y-113637000D01*
X125693999Y-113637000D01*
X125669495Y-113635796D01*
X125645227Y-113632196D01*
X125621428Y-113626235D01*
X125598329Y-113617970D01*
X125576150Y-113607480D01*
X125555107Y-113594868D01*
X125535401Y-113580253D01*
X125517223Y-113563777D01*
X125500747Y-113545599D01*
X125486132Y-113525893D01*
X125473520Y-113504850D01*
X125463030Y-113482671D01*
X125454765Y-113459572D01*
X125448804Y-113435773D01*
X125445204Y-113411505D01*
X125444000Y-113387001D01*
X125444000Y-111636999D01*
X125445204Y-111612495D01*
X125448804Y-111588227D01*
X125454765Y-111564428D01*
X125463030Y-111541329D01*
X125473520Y-111519150D01*
X125486132Y-111498107D01*
X125500747Y-111478401D01*
X125517223Y-111460223D01*
X125535401Y-111443747D01*
X125555107Y-111429132D01*
X125576150Y-111416520D01*
X125598329Y-111406030D01*
X125621428Y-111397765D01*
X125645227Y-111391804D01*
X125669495Y-111388204D01*
X125693999Y-111387000D01*
X127544001Y-111387000D01*
X127568505Y-111388204D01*
G37*
G36*
X127568505Y-116488204D02*
G01*
X127592773Y-116491804D01*
X127616572Y-116497765D01*
X127639671Y-116506030D01*
X127661850Y-116516520D01*
X127682893Y-116529132D01*
X127702599Y-116543747D01*
X127720777Y-116560223D01*
X127737253Y-116578401D01*
X127751868Y-116598107D01*
X127764480Y-116619150D01*
X127774970Y-116641329D01*
X127783235Y-116664428D01*
X127789196Y-116688227D01*
X127792796Y-116712495D01*
X127794000Y-116736999D01*
X127794000Y-118487001D01*
X127792796Y-118511505D01*
X127789196Y-118535773D01*
X127783235Y-118559572D01*
X127774970Y-118582671D01*
X127764480Y-118604850D01*
X127751868Y-118625893D01*
X127737253Y-118645599D01*
X127720777Y-118663777D01*
X127702599Y-118680253D01*
X127682893Y-118694868D01*
X127661850Y-118707480D01*
X127639671Y-118717970D01*
X127616572Y-118726235D01*
X127592773Y-118732196D01*
X127568505Y-118735796D01*
X127544001Y-118737000D01*
X125693999Y-118737000D01*
X125669495Y-118735796D01*
X125645227Y-118732196D01*
X125621428Y-118726235D01*
X125598329Y-118717970D01*
X125576150Y-118707480D01*
X125555107Y-118694868D01*
X125535401Y-118680253D01*
X125517223Y-118663777D01*
X125500747Y-118645599D01*
X125486132Y-118625893D01*
X125473520Y-118604850D01*
X125463030Y-118582671D01*
X125454765Y-118559572D01*
X125448804Y-118535773D01*
X125445204Y-118511505D01*
X125444000Y-118487001D01*
X125444000Y-116736999D01*
X125445204Y-116712495D01*
X125448804Y-116688227D01*
X125454765Y-116664428D01*
X125463030Y-116641329D01*
X125473520Y-116619150D01*
X125486132Y-116598107D01*
X125500747Y-116578401D01*
X125517223Y-116560223D01*
X125535401Y-116543747D01*
X125555107Y-116529132D01*
X125576150Y-116516520D01*
X125598329Y-116506030D01*
X125621428Y-116497765D01*
X125645227Y-116491804D01*
X125669495Y-116488204D01*
X125693999Y-116487000D01*
X127544001Y-116487000D01*
X127568505Y-116488204D01*
G37*
G36*
X119150603Y-110379963D02*
G01*
X119170018Y-110382843D01*
X119189057Y-110387612D01*
X119207537Y-110394224D01*
X119225279Y-110402616D01*
X119242114Y-110412706D01*
X119257879Y-110424398D01*
X119272421Y-110437579D01*
X119285602Y-110452121D01*
X119297294Y-110467886D01*
X119307384Y-110484721D01*
X119315776Y-110502463D01*
X119322388Y-110520943D01*
X119327157Y-110539982D01*
X119330037Y-110559397D01*
X119331000Y-110579000D01*
X119331000Y-112179000D01*
X119330037Y-112198603D01*
X119327157Y-112218018D01*
X119322388Y-112237057D01*
X119315776Y-112255537D01*
X119307384Y-112273279D01*
X119297294Y-112290114D01*
X119285602Y-112305879D01*
X119272421Y-112320421D01*
X119257879Y-112333602D01*
X119242114Y-112345294D01*
X119225279Y-112355384D01*
X119207537Y-112363776D01*
X119189057Y-112370388D01*
X119170018Y-112375157D01*
X119150603Y-112378037D01*
X119131000Y-112379000D01*
X118731000Y-112379000D01*
X118711397Y-112378037D01*
X118691982Y-112375157D01*
X118672943Y-112370388D01*
X118654463Y-112363776D01*
X118636721Y-112355384D01*
X118619886Y-112345294D01*
X118604121Y-112333602D01*
X118589579Y-112320421D01*
X118576398Y-112305879D01*
X118564706Y-112290114D01*
X118554616Y-112273279D01*
X118546224Y-112255537D01*
X118539612Y-112237057D01*
X118534843Y-112218018D01*
X118531963Y-112198603D01*
X118531000Y-112179000D01*
X118531000Y-110579000D01*
X118531963Y-110559397D01*
X118534843Y-110539982D01*
X118539612Y-110520943D01*
X118546224Y-110502463D01*
X118554616Y-110484721D01*
X118564706Y-110467886D01*
X118576398Y-110452121D01*
X118589579Y-110437579D01*
X118604121Y-110424398D01*
X118619886Y-110412706D01*
X118636721Y-110402616D01*
X118654463Y-110394224D01*
X118672943Y-110387612D01*
X118691982Y-110382843D01*
X118711397Y-110379963D01*
X118731000Y-110379000D01*
X119131000Y-110379000D01*
X119150603Y-110379963D01*
G37*
G36*
X123350603Y-110379963D02*
G01*
X123370018Y-110382843D01*
X123389057Y-110387612D01*
X123407537Y-110394224D01*
X123425279Y-110402616D01*
X123442114Y-110412706D01*
X123457879Y-110424398D01*
X123472421Y-110437579D01*
X123485602Y-110452121D01*
X123497294Y-110467886D01*
X123507384Y-110484721D01*
X123515776Y-110502463D01*
X123522388Y-110520943D01*
X123527157Y-110539982D01*
X123530037Y-110559397D01*
X123531000Y-110579000D01*
X123531000Y-112179000D01*
X123530037Y-112198603D01*
X123527157Y-112218018D01*
X123522388Y-112237057D01*
X123515776Y-112255537D01*
X123507384Y-112273279D01*
X123497294Y-112290114D01*
X123485602Y-112305879D01*
X123472421Y-112320421D01*
X123457879Y-112333602D01*
X123442114Y-112345294D01*
X123425279Y-112355384D01*
X123407537Y-112363776D01*
X123389057Y-112370388D01*
X123370018Y-112375157D01*
X123350603Y-112378037D01*
X123331000Y-112379000D01*
X122931000Y-112379000D01*
X122911397Y-112378037D01*
X122891982Y-112375157D01*
X122872943Y-112370388D01*
X122854463Y-112363776D01*
X122836721Y-112355384D01*
X122819886Y-112345294D01*
X122804121Y-112333602D01*
X122789579Y-112320421D01*
X122776398Y-112305879D01*
X122764706Y-112290114D01*
X122754616Y-112273279D01*
X122746224Y-112255537D01*
X122739612Y-112237057D01*
X122734843Y-112218018D01*
X122731963Y-112198603D01*
X122731000Y-112179000D01*
X122731000Y-110579000D01*
X122731963Y-110559397D01*
X122734843Y-110539982D01*
X122739612Y-110520943D01*
X122746224Y-110502463D01*
X122754616Y-110484721D01*
X122764706Y-110467886D01*
X122776398Y-110452121D01*
X122789579Y-110437579D01*
X122804121Y-110424398D01*
X122819886Y-110412706D01*
X122836721Y-110402616D01*
X122854463Y-110394224D01*
X122872943Y-110387612D01*
X122891982Y-110382843D01*
X122911397Y-110379963D01*
X122931000Y-110379000D01*
X123331000Y-110379000D01*
X123350603Y-110379963D01*
G37*
D18*
X162604000Y-109567000D03*
X162604000Y-110217000D03*
X162604000Y-110867000D03*
X162604000Y-111517000D03*
X162604000Y-112167000D03*
X162604000Y-112817000D03*
X162604000Y-113467000D03*
X162604000Y-114117000D03*
X162604000Y-114767000D03*
X162604000Y-115417000D03*
X162604000Y-116067000D03*
X162604000Y-116717000D03*
X162604000Y-117367000D03*
X162604000Y-118017000D03*
X155404000Y-118017000D03*
X155404000Y-117367000D03*
X155404000Y-116717000D03*
X155404000Y-116067000D03*
X155404000Y-115417000D03*
X155404000Y-114767000D03*
X155404000Y-114117000D03*
X155404000Y-113467000D03*
X155404000Y-112817000D03*
X155404000Y-112167000D03*
X155404000Y-111517000D03*
X155404000Y-110867000D03*
X155404000Y-110217000D03*
X155404000Y-109567000D03*
D10*
G36*
X139666505Y-83255204D02*
G01*
X139690773Y-83258804D01*
X139714572Y-83264765D01*
X139737671Y-83273030D01*
X139759850Y-83283520D01*
X139780893Y-83296132D01*
X139800599Y-83310747D01*
X139818777Y-83327223D01*
X139835253Y-83345401D01*
X139849868Y-83365107D01*
X139862480Y-83386150D01*
X139872970Y-83408329D01*
X139881235Y-83431428D01*
X139887196Y-83455227D01*
X139890796Y-83479495D01*
X139892000Y-83503999D01*
X139892000Y-84154001D01*
X139890796Y-84178505D01*
X139887196Y-84202773D01*
X139881235Y-84226572D01*
X139872970Y-84249671D01*
X139862480Y-84271850D01*
X139849868Y-84292893D01*
X139835253Y-84312599D01*
X139818777Y-84330777D01*
X139800599Y-84347253D01*
X139780893Y-84361868D01*
X139759850Y-84374480D01*
X139737671Y-84384970D01*
X139714572Y-84393235D01*
X139690773Y-84399196D01*
X139666505Y-84402796D01*
X139642001Y-84404000D01*
X138741999Y-84404000D01*
X138717495Y-84402796D01*
X138693227Y-84399196D01*
X138669428Y-84393235D01*
X138646329Y-84384970D01*
X138624150Y-84374480D01*
X138603107Y-84361868D01*
X138583401Y-84347253D01*
X138565223Y-84330777D01*
X138548747Y-84312599D01*
X138534132Y-84292893D01*
X138521520Y-84271850D01*
X138511030Y-84249671D01*
X138502765Y-84226572D01*
X138496804Y-84202773D01*
X138493204Y-84178505D01*
X138492000Y-84154001D01*
X138492000Y-83503999D01*
X138493204Y-83479495D01*
X138496804Y-83455227D01*
X138502765Y-83431428D01*
X138511030Y-83408329D01*
X138521520Y-83386150D01*
X138534132Y-83365107D01*
X138548747Y-83345401D01*
X138565223Y-83327223D01*
X138583401Y-83310747D01*
X138603107Y-83296132D01*
X138624150Y-83283520D01*
X138646329Y-83273030D01*
X138669428Y-83264765D01*
X138693227Y-83258804D01*
X138717495Y-83255204D01*
X138741999Y-83254000D01*
X139642001Y-83254000D01*
X139666505Y-83255204D01*
G37*
G36*
X139666505Y-81205204D02*
G01*
X139690773Y-81208804D01*
X139714572Y-81214765D01*
X139737671Y-81223030D01*
X139759850Y-81233520D01*
X139780893Y-81246132D01*
X139800599Y-81260747D01*
X139818777Y-81277223D01*
X139835253Y-81295401D01*
X139849868Y-81315107D01*
X139862480Y-81336150D01*
X139872970Y-81358329D01*
X139881235Y-81381428D01*
X139887196Y-81405227D01*
X139890796Y-81429495D01*
X139892000Y-81453999D01*
X139892000Y-82104001D01*
X139890796Y-82128505D01*
X139887196Y-82152773D01*
X139881235Y-82176572D01*
X139872970Y-82199671D01*
X139862480Y-82221850D01*
X139849868Y-82242893D01*
X139835253Y-82262599D01*
X139818777Y-82280777D01*
X139800599Y-82297253D01*
X139780893Y-82311868D01*
X139759850Y-82324480D01*
X139737671Y-82334970D01*
X139714572Y-82343235D01*
X139690773Y-82349196D01*
X139666505Y-82352796D01*
X139642001Y-82354000D01*
X138741999Y-82354000D01*
X138717495Y-82352796D01*
X138693227Y-82349196D01*
X138669428Y-82343235D01*
X138646329Y-82334970D01*
X138624150Y-82324480D01*
X138603107Y-82311868D01*
X138583401Y-82297253D01*
X138565223Y-82280777D01*
X138548747Y-82262599D01*
X138534132Y-82242893D01*
X138521520Y-82221850D01*
X138511030Y-82199671D01*
X138502765Y-82176572D01*
X138496804Y-82152773D01*
X138493204Y-82128505D01*
X138492000Y-82104001D01*
X138492000Y-81453999D01*
X138493204Y-81429495D01*
X138496804Y-81405227D01*
X138502765Y-81381428D01*
X138511030Y-81358329D01*
X138521520Y-81336150D01*
X138534132Y-81315107D01*
X138548747Y-81295401D01*
X138565223Y-81277223D01*
X138583401Y-81260747D01*
X138603107Y-81246132D01*
X138624150Y-81233520D01*
X138646329Y-81223030D01*
X138669428Y-81214765D01*
X138693227Y-81208804D01*
X138717495Y-81205204D01*
X138741999Y-81204000D01*
X139642001Y-81204000D01*
X139666505Y-81205204D01*
G37*
G36*
X141698505Y-81205204D02*
G01*
X141722773Y-81208804D01*
X141746572Y-81214765D01*
X141769671Y-81223030D01*
X141791850Y-81233520D01*
X141812893Y-81246132D01*
X141832599Y-81260747D01*
X141850777Y-81277223D01*
X141867253Y-81295401D01*
X141881868Y-81315107D01*
X141894480Y-81336150D01*
X141904970Y-81358329D01*
X141913235Y-81381428D01*
X141919196Y-81405227D01*
X141922796Y-81429495D01*
X141924000Y-81453999D01*
X141924000Y-82104001D01*
X141922796Y-82128505D01*
X141919196Y-82152773D01*
X141913235Y-82176572D01*
X141904970Y-82199671D01*
X141894480Y-82221850D01*
X141881868Y-82242893D01*
X141867253Y-82262599D01*
X141850777Y-82280777D01*
X141832599Y-82297253D01*
X141812893Y-82311868D01*
X141791850Y-82324480D01*
X141769671Y-82334970D01*
X141746572Y-82343235D01*
X141722773Y-82349196D01*
X141698505Y-82352796D01*
X141674001Y-82354000D01*
X140773999Y-82354000D01*
X140749495Y-82352796D01*
X140725227Y-82349196D01*
X140701428Y-82343235D01*
X140678329Y-82334970D01*
X140656150Y-82324480D01*
X140635107Y-82311868D01*
X140615401Y-82297253D01*
X140597223Y-82280777D01*
X140580747Y-82262599D01*
X140566132Y-82242893D01*
X140553520Y-82221850D01*
X140543030Y-82199671D01*
X140534765Y-82176572D01*
X140528804Y-82152773D01*
X140525204Y-82128505D01*
X140524000Y-82104001D01*
X140524000Y-81453999D01*
X140525204Y-81429495D01*
X140528804Y-81405227D01*
X140534765Y-81381428D01*
X140543030Y-81358329D01*
X140553520Y-81336150D01*
X140566132Y-81315107D01*
X140580747Y-81295401D01*
X140597223Y-81277223D01*
X140615401Y-81260747D01*
X140635107Y-81246132D01*
X140656150Y-81233520D01*
X140678329Y-81223030D01*
X140701428Y-81214765D01*
X140725227Y-81208804D01*
X140749495Y-81205204D01*
X140773999Y-81204000D01*
X141674001Y-81204000D01*
X141698505Y-81205204D01*
G37*
G36*
X141698505Y-83255204D02*
G01*
X141722773Y-83258804D01*
X141746572Y-83264765D01*
X141769671Y-83273030D01*
X141791850Y-83283520D01*
X141812893Y-83296132D01*
X141832599Y-83310747D01*
X141850777Y-83327223D01*
X141867253Y-83345401D01*
X141881868Y-83365107D01*
X141894480Y-83386150D01*
X141904970Y-83408329D01*
X141913235Y-83431428D01*
X141919196Y-83455227D01*
X141922796Y-83479495D01*
X141924000Y-83503999D01*
X141924000Y-84154001D01*
X141922796Y-84178505D01*
X141919196Y-84202773D01*
X141913235Y-84226572D01*
X141904970Y-84249671D01*
X141894480Y-84271850D01*
X141881868Y-84292893D01*
X141867253Y-84312599D01*
X141850777Y-84330777D01*
X141832599Y-84347253D01*
X141812893Y-84361868D01*
X141791850Y-84374480D01*
X141769671Y-84384970D01*
X141746572Y-84393235D01*
X141722773Y-84399196D01*
X141698505Y-84402796D01*
X141674001Y-84404000D01*
X140773999Y-84404000D01*
X140749495Y-84402796D01*
X140725227Y-84399196D01*
X140701428Y-84393235D01*
X140678329Y-84384970D01*
X140656150Y-84374480D01*
X140635107Y-84361868D01*
X140615401Y-84347253D01*
X140597223Y-84330777D01*
X140580747Y-84312599D01*
X140566132Y-84292893D01*
X140553520Y-84271850D01*
X140543030Y-84249671D01*
X140534765Y-84226572D01*
X140528804Y-84202773D01*
X140525204Y-84178505D01*
X140524000Y-84154001D01*
X140524000Y-83503999D01*
X140525204Y-83479495D01*
X140528804Y-83455227D01*
X140534765Y-83431428D01*
X140543030Y-83408329D01*
X140553520Y-83386150D01*
X140566132Y-83365107D01*
X140580747Y-83345401D01*
X140597223Y-83327223D01*
X140615401Y-83310747D01*
X140635107Y-83296132D01*
X140656150Y-83283520D01*
X140678329Y-83273030D01*
X140701428Y-83264765D01*
X140725227Y-83258804D01*
X140749495Y-83255204D01*
X140773999Y-83254000D01*
X141674001Y-83254000D01*
X141698505Y-83255204D01*
G37*
G36*
X143730505Y-81205204D02*
G01*
X143754773Y-81208804D01*
X143778572Y-81214765D01*
X143801671Y-81223030D01*
X143823850Y-81233520D01*
X143844893Y-81246132D01*
X143864599Y-81260747D01*
X143882777Y-81277223D01*
X143899253Y-81295401D01*
X143913868Y-81315107D01*
X143926480Y-81336150D01*
X143936970Y-81358329D01*
X143945235Y-81381428D01*
X143951196Y-81405227D01*
X143954796Y-81429495D01*
X143956000Y-81453999D01*
X143956000Y-82104001D01*
X143954796Y-82128505D01*
X143951196Y-82152773D01*
X143945235Y-82176572D01*
X143936970Y-82199671D01*
X143926480Y-82221850D01*
X143913868Y-82242893D01*
X143899253Y-82262599D01*
X143882777Y-82280777D01*
X143864599Y-82297253D01*
X143844893Y-82311868D01*
X143823850Y-82324480D01*
X143801671Y-82334970D01*
X143778572Y-82343235D01*
X143754773Y-82349196D01*
X143730505Y-82352796D01*
X143706001Y-82354000D01*
X142805999Y-82354000D01*
X142781495Y-82352796D01*
X142757227Y-82349196D01*
X142733428Y-82343235D01*
X142710329Y-82334970D01*
X142688150Y-82324480D01*
X142667107Y-82311868D01*
X142647401Y-82297253D01*
X142629223Y-82280777D01*
X142612747Y-82262599D01*
X142598132Y-82242893D01*
X142585520Y-82221850D01*
X142575030Y-82199671D01*
X142566765Y-82176572D01*
X142560804Y-82152773D01*
X142557204Y-82128505D01*
X142556000Y-82104001D01*
X142556000Y-81453999D01*
X142557204Y-81429495D01*
X142560804Y-81405227D01*
X142566765Y-81381428D01*
X142575030Y-81358329D01*
X142585520Y-81336150D01*
X142598132Y-81315107D01*
X142612747Y-81295401D01*
X142629223Y-81277223D01*
X142647401Y-81260747D01*
X142667107Y-81246132D01*
X142688150Y-81233520D01*
X142710329Y-81223030D01*
X142733428Y-81214765D01*
X142757227Y-81208804D01*
X142781495Y-81205204D01*
X142805999Y-81204000D01*
X143706001Y-81204000D01*
X143730505Y-81205204D01*
G37*
G36*
X143730505Y-83255204D02*
G01*
X143754773Y-83258804D01*
X143778572Y-83264765D01*
X143801671Y-83273030D01*
X143823850Y-83283520D01*
X143844893Y-83296132D01*
X143864599Y-83310747D01*
X143882777Y-83327223D01*
X143899253Y-83345401D01*
X143913868Y-83365107D01*
X143926480Y-83386150D01*
X143936970Y-83408329D01*
X143945235Y-83431428D01*
X143951196Y-83455227D01*
X143954796Y-83479495D01*
X143956000Y-83503999D01*
X143956000Y-84154001D01*
X143954796Y-84178505D01*
X143951196Y-84202773D01*
X143945235Y-84226572D01*
X143936970Y-84249671D01*
X143926480Y-84271850D01*
X143913868Y-84292893D01*
X143899253Y-84312599D01*
X143882777Y-84330777D01*
X143864599Y-84347253D01*
X143844893Y-84361868D01*
X143823850Y-84374480D01*
X143801671Y-84384970D01*
X143778572Y-84393235D01*
X143754773Y-84399196D01*
X143730505Y-84402796D01*
X143706001Y-84404000D01*
X142805999Y-84404000D01*
X142781495Y-84402796D01*
X142757227Y-84399196D01*
X142733428Y-84393235D01*
X142710329Y-84384970D01*
X142688150Y-84374480D01*
X142667107Y-84361868D01*
X142647401Y-84347253D01*
X142629223Y-84330777D01*
X142612747Y-84312599D01*
X142598132Y-84292893D01*
X142585520Y-84271850D01*
X142575030Y-84249671D01*
X142566765Y-84226572D01*
X142560804Y-84202773D01*
X142557204Y-84178505D01*
X142556000Y-84154001D01*
X142556000Y-83503999D01*
X142557204Y-83479495D01*
X142560804Y-83455227D01*
X142566765Y-83431428D01*
X142575030Y-83408329D01*
X142585520Y-83386150D01*
X142598132Y-83365107D01*
X142612747Y-83345401D01*
X142629223Y-83327223D01*
X142647401Y-83310747D01*
X142667107Y-83296132D01*
X142688150Y-83283520D01*
X142710329Y-83273030D01*
X142733428Y-83264765D01*
X142757227Y-83258804D01*
X142781495Y-83255204D01*
X142805999Y-83254000D01*
X143706001Y-83254000D01*
X143730505Y-83255204D01*
G37*
G36*
X145762505Y-83255204D02*
G01*
X145786773Y-83258804D01*
X145810572Y-83264765D01*
X145833671Y-83273030D01*
X145855850Y-83283520D01*
X145876893Y-83296132D01*
X145896599Y-83310747D01*
X145914777Y-83327223D01*
X145931253Y-83345401D01*
X145945868Y-83365107D01*
X145958480Y-83386150D01*
X145968970Y-83408329D01*
X145977235Y-83431428D01*
X145983196Y-83455227D01*
X145986796Y-83479495D01*
X145988000Y-83503999D01*
X145988000Y-84154001D01*
X145986796Y-84178505D01*
X145983196Y-84202773D01*
X145977235Y-84226572D01*
X145968970Y-84249671D01*
X145958480Y-84271850D01*
X145945868Y-84292893D01*
X145931253Y-84312599D01*
X145914777Y-84330777D01*
X145896599Y-84347253D01*
X145876893Y-84361868D01*
X145855850Y-84374480D01*
X145833671Y-84384970D01*
X145810572Y-84393235D01*
X145786773Y-84399196D01*
X145762505Y-84402796D01*
X145738001Y-84404000D01*
X144837999Y-84404000D01*
X144813495Y-84402796D01*
X144789227Y-84399196D01*
X144765428Y-84393235D01*
X144742329Y-84384970D01*
X144720150Y-84374480D01*
X144699107Y-84361868D01*
X144679401Y-84347253D01*
X144661223Y-84330777D01*
X144644747Y-84312599D01*
X144630132Y-84292893D01*
X144617520Y-84271850D01*
X144607030Y-84249671D01*
X144598765Y-84226572D01*
X144592804Y-84202773D01*
X144589204Y-84178505D01*
X144588000Y-84154001D01*
X144588000Y-83503999D01*
X144589204Y-83479495D01*
X144592804Y-83455227D01*
X144598765Y-83431428D01*
X144607030Y-83408329D01*
X144617520Y-83386150D01*
X144630132Y-83365107D01*
X144644747Y-83345401D01*
X144661223Y-83327223D01*
X144679401Y-83310747D01*
X144699107Y-83296132D01*
X144720150Y-83283520D01*
X144742329Y-83273030D01*
X144765428Y-83264765D01*
X144789227Y-83258804D01*
X144813495Y-83255204D01*
X144837999Y-83254000D01*
X145738001Y-83254000D01*
X145762505Y-83255204D01*
G37*
G36*
X145762505Y-81205204D02*
G01*
X145786773Y-81208804D01*
X145810572Y-81214765D01*
X145833671Y-81223030D01*
X145855850Y-81233520D01*
X145876893Y-81246132D01*
X145896599Y-81260747D01*
X145914777Y-81277223D01*
X145931253Y-81295401D01*
X145945868Y-81315107D01*
X145958480Y-81336150D01*
X145968970Y-81358329D01*
X145977235Y-81381428D01*
X145983196Y-81405227D01*
X145986796Y-81429495D01*
X145988000Y-81453999D01*
X145988000Y-82104001D01*
X145986796Y-82128505D01*
X145983196Y-82152773D01*
X145977235Y-82176572D01*
X145968970Y-82199671D01*
X145958480Y-82221850D01*
X145945868Y-82242893D01*
X145931253Y-82262599D01*
X145914777Y-82280777D01*
X145896599Y-82297253D01*
X145876893Y-82311868D01*
X145855850Y-82324480D01*
X145833671Y-82334970D01*
X145810572Y-82343235D01*
X145786773Y-82349196D01*
X145762505Y-82352796D01*
X145738001Y-82354000D01*
X144837999Y-82354000D01*
X144813495Y-82352796D01*
X144789227Y-82349196D01*
X144765428Y-82343235D01*
X144742329Y-82334970D01*
X144720150Y-82324480D01*
X144699107Y-82311868D01*
X144679401Y-82297253D01*
X144661223Y-82280777D01*
X144644747Y-82262599D01*
X144630132Y-82242893D01*
X144617520Y-82221850D01*
X144607030Y-82199671D01*
X144598765Y-82176572D01*
X144592804Y-82152773D01*
X144589204Y-82128505D01*
X144588000Y-82104001D01*
X144588000Y-81453999D01*
X144589204Y-81429495D01*
X144592804Y-81405227D01*
X144598765Y-81381428D01*
X144607030Y-81358329D01*
X144617520Y-81336150D01*
X144630132Y-81315107D01*
X144644747Y-81295401D01*
X144661223Y-81277223D01*
X144679401Y-81260747D01*
X144699107Y-81246132D01*
X144720150Y-81233520D01*
X144742329Y-81223030D01*
X144765428Y-81214765D01*
X144789227Y-81208804D01*
X144813495Y-81205204D01*
X144837999Y-81204000D01*
X145738001Y-81204000D01*
X145762505Y-81205204D01*
G37*
G36*
X147794505Y-83255204D02*
G01*
X147818773Y-83258804D01*
X147842572Y-83264765D01*
X147865671Y-83273030D01*
X147887850Y-83283520D01*
X147908893Y-83296132D01*
X147928599Y-83310747D01*
X147946777Y-83327223D01*
X147963253Y-83345401D01*
X147977868Y-83365107D01*
X147990480Y-83386150D01*
X148000970Y-83408329D01*
X148009235Y-83431428D01*
X148015196Y-83455227D01*
X148018796Y-83479495D01*
X148020000Y-83503999D01*
X148020000Y-84154001D01*
X148018796Y-84178505D01*
X148015196Y-84202773D01*
X148009235Y-84226572D01*
X148000970Y-84249671D01*
X147990480Y-84271850D01*
X147977868Y-84292893D01*
X147963253Y-84312599D01*
X147946777Y-84330777D01*
X147928599Y-84347253D01*
X147908893Y-84361868D01*
X147887850Y-84374480D01*
X147865671Y-84384970D01*
X147842572Y-84393235D01*
X147818773Y-84399196D01*
X147794505Y-84402796D01*
X147770001Y-84404000D01*
X146869999Y-84404000D01*
X146845495Y-84402796D01*
X146821227Y-84399196D01*
X146797428Y-84393235D01*
X146774329Y-84384970D01*
X146752150Y-84374480D01*
X146731107Y-84361868D01*
X146711401Y-84347253D01*
X146693223Y-84330777D01*
X146676747Y-84312599D01*
X146662132Y-84292893D01*
X146649520Y-84271850D01*
X146639030Y-84249671D01*
X146630765Y-84226572D01*
X146624804Y-84202773D01*
X146621204Y-84178505D01*
X146620000Y-84154001D01*
X146620000Y-83503999D01*
X146621204Y-83479495D01*
X146624804Y-83455227D01*
X146630765Y-83431428D01*
X146639030Y-83408329D01*
X146649520Y-83386150D01*
X146662132Y-83365107D01*
X146676747Y-83345401D01*
X146693223Y-83327223D01*
X146711401Y-83310747D01*
X146731107Y-83296132D01*
X146752150Y-83283520D01*
X146774329Y-83273030D01*
X146797428Y-83264765D01*
X146821227Y-83258804D01*
X146845495Y-83255204D01*
X146869999Y-83254000D01*
X147770001Y-83254000D01*
X147794505Y-83255204D01*
G37*
G36*
X147794505Y-81205204D02*
G01*
X147818773Y-81208804D01*
X147842572Y-81214765D01*
X147865671Y-81223030D01*
X147887850Y-81233520D01*
X147908893Y-81246132D01*
X147928599Y-81260747D01*
X147946777Y-81277223D01*
X147963253Y-81295401D01*
X147977868Y-81315107D01*
X147990480Y-81336150D01*
X148000970Y-81358329D01*
X148009235Y-81381428D01*
X148015196Y-81405227D01*
X148018796Y-81429495D01*
X148020000Y-81453999D01*
X148020000Y-82104001D01*
X148018796Y-82128505D01*
X148015196Y-82152773D01*
X148009235Y-82176572D01*
X148000970Y-82199671D01*
X147990480Y-82221850D01*
X147977868Y-82242893D01*
X147963253Y-82262599D01*
X147946777Y-82280777D01*
X147928599Y-82297253D01*
X147908893Y-82311868D01*
X147887850Y-82324480D01*
X147865671Y-82334970D01*
X147842572Y-82343235D01*
X147818773Y-82349196D01*
X147794505Y-82352796D01*
X147770001Y-82354000D01*
X146869999Y-82354000D01*
X146845495Y-82352796D01*
X146821227Y-82349196D01*
X146797428Y-82343235D01*
X146774329Y-82334970D01*
X146752150Y-82324480D01*
X146731107Y-82311868D01*
X146711401Y-82297253D01*
X146693223Y-82280777D01*
X146676747Y-82262599D01*
X146662132Y-82242893D01*
X146649520Y-82221850D01*
X146639030Y-82199671D01*
X146630765Y-82176572D01*
X146624804Y-82152773D01*
X146621204Y-82128505D01*
X146620000Y-82104001D01*
X146620000Y-81453999D01*
X146621204Y-81429495D01*
X146624804Y-81405227D01*
X146630765Y-81381428D01*
X146639030Y-81358329D01*
X146649520Y-81336150D01*
X146662132Y-81315107D01*
X146676747Y-81295401D01*
X146693223Y-81277223D01*
X146711401Y-81260747D01*
X146731107Y-81246132D01*
X146752150Y-81233520D01*
X146774329Y-81223030D01*
X146797428Y-81214765D01*
X146821227Y-81208804D01*
X146845495Y-81205204D01*
X146869999Y-81204000D01*
X147770001Y-81204000D01*
X147794505Y-81205204D01*
G37*
D19*
X160344000Y-77340000D03*
X157664000Y-77340000D03*
X157664000Y-80140000D03*
X160344000Y-80140000D03*
M02*
