G04 #@! TF.GenerationSoftware,KiCad,Pcbnew,5.1.5-52549c5~86~ubuntu19.04.1*
G04 #@! TF.CreationDate,2020-05-15T20:04:21+10:00*
G04 #@! TF.ProjectId,sid-board-v2,7369642d-626f-4617-9264-2d76322e6b69,rev?*
G04 #@! TF.SameCoordinates,Original*
G04 #@! TF.FileFunction,Copper,L2,Bot*
G04 #@! TF.FilePolarity,Positive*
%FSLAX46Y46*%
G04 Gerber Fmt 4.6, Leading zero omitted, Abs format (unit mm)*
G04 Created by KiCad (PCBNEW 5.1.5-52549c5~86~ubuntu19.04.1) date 2020-05-15 20:04:21*
%MOMM*%
%LPD*%
G04 APERTURE LIST*
%ADD10O,1.700000X1.700000*%
%ADD11R,1.700000X1.700000*%
%ADD12C,0.800000*%
%ADD13C,1.778000*%
%ADD14C,0.250000*%
%ADD15C,0.889000*%
%ADD16C,1.270000*%
%ADD17C,0.254000*%
G04 APERTURE END LIST*
D10*
X84650000Y-81497000D03*
X84650000Y-78957000D03*
X87190000Y-81497000D03*
X87190000Y-78957000D03*
X89730000Y-81497000D03*
X89730000Y-78957000D03*
X92270000Y-81497000D03*
X92270000Y-78957000D03*
X94810000Y-81497000D03*
X94810000Y-78957000D03*
X97350000Y-81497000D03*
D11*
X97350000Y-78957000D03*
D10*
X103150000Y-81497000D03*
X103150000Y-78957000D03*
X105690000Y-81497000D03*
X105690000Y-78957000D03*
X108230000Y-81497000D03*
X108230000Y-78957000D03*
X110770000Y-81497000D03*
X110770000Y-78957000D03*
X113310000Y-81497000D03*
X113310000Y-78957000D03*
X115850000Y-81497000D03*
D11*
X115850000Y-78957000D03*
X86400000Y-119900000D03*
D10*
X86400000Y-122440000D03*
X88940000Y-119900000D03*
X88940000Y-122440000D03*
X91480000Y-119900000D03*
X91480000Y-122440000D03*
X94020000Y-119900000D03*
X94020000Y-122440000D03*
D12*
X102250000Y-95500000D03*
X84500000Y-95500000D03*
X116000000Y-95500000D03*
D13*
X93600000Y-89700000D03*
X108300000Y-89700000D03*
D12*
X81250000Y-89750000D03*
X115989990Y-89710010D03*
X93025000Y-97500000D03*
X94500000Y-108000000D03*
X99400000Y-109600000D03*
X100600000Y-112400000D03*
X97000000Y-123400000D03*
X90975000Y-98275000D03*
X86512500Y-105987500D03*
X115000000Y-106000000D03*
X90975000Y-112400000D03*
X93400000Y-116800000D03*
D13*
X100350000Y-84300000D03*
D12*
X87600000Y-107000000D03*
X98200000Y-111400000D03*
X87625000Y-106000000D03*
X98200000Y-110600000D03*
D13*
X93800000Y-75400000D03*
D12*
X94200000Y-114800000D03*
X93400000Y-110400000D03*
D14*
X95500000Y-95500000D02*
X84500000Y-95500000D01*
X84500000Y-95500000D02*
X84500000Y-95500000D01*
X95500000Y-95500000D02*
X102250000Y-95500000D01*
X102250000Y-95500000D02*
X116000000Y-95500000D01*
X116000000Y-95500000D02*
X116000000Y-95500000D01*
X84500000Y-110380000D02*
X94020000Y-119900000D01*
X84500000Y-95500000D02*
X84500000Y-110380000D01*
D15*
X113310000Y-77754919D02*
X113814919Y-77250000D01*
X113310000Y-78957000D02*
X113310000Y-77754919D01*
X117003102Y-77250000D02*
X118250000Y-78496898D01*
X113814919Y-77250000D02*
X117003102Y-77250000D01*
X118250000Y-78496898D02*
X118250000Y-86250000D01*
D14*
X93025000Y-97500000D02*
X93025000Y-106525000D01*
X93025000Y-106525000D02*
X94500000Y-108000000D01*
X94500000Y-108000000D02*
X97800000Y-108000000D01*
X97800000Y-108000000D02*
X99400000Y-109600000D01*
X99400000Y-109600000D02*
X99400000Y-111200000D01*
X99400000Y-111200000D02*
X100600000Y-112400000D01*
X94500000Y-108000000D02*
X94500000Y-108000000D01*
X99400000Y-109600000D02*
X99400000Y-109600000D01*
X100600000Y-112400000D02*
X100600000Y-112400000D01*
X100600000Y-112400000D02*
X100600000Y-119800000D01*
X100600000Y-119800000D02*
X97000000Y-123400000D01*
X97000000Y-123400000D02*
X97000000Y-123400000D01*
X86512500Y-102737500D02*
X90975000Y-98275000D01*
X86512500Y-105987500D02*
X86512500Y-102737500D01*
X92475001Y-96774999D02*
X105774999Y-96774999D01*
X90975000Y-98275000D02*
X92475001Y-96774999D01*
X105774999Y-96774999D02*
X115000000Y-106000000D01*
X115000000Y-106000000D02*
X115000000Y-106000000D01*
X90975000Y-112400000D02*
X90975000Y-114375000D01*
X90975000Y-114375000D02*
X93400000Y-116800000D01*
X93400000Y-116800000D02*
X93400000Y-116800000D01*
D16*
X104840001Y-78107001D02*
X105690000Y-78957000D01*
X104004999Y-77271999D02*
X104840001Y-78107001D01*
X88875001Y-77271999D02*
X104004999Y-77271999D01*
X87190000Y-78957000D02*
X88875001Y-77271999D01*
D15*
X87190000Y-77754919D02*
X86785081Y-77350000D01*
X87190000Y-78957000D02*
X87190000Y-77754919D01*
X99092765Y-84300000D02*
X100350000Y-84300000D01*
X82066490Y-82665444D02*
X83701046Y-84300000D01*
X83701046Y-84300000D02*
X99092765Y-84300000D01*
X82066489Y-79328649D02*
X82066490Y-82665444D01*
X84045138Y-77350000D02*
X82066489Y-79328649D01*
X86785081Y-77350000D02*
X84045138Y-77350000D01*
D14*
X87600000Y-107000000D02*
X91790588Y-107000000D01*
X91790588Y-107000000D02*
X94495294Y-109704706D01*
X94495294Y-109704706D02*
X96190588Y-111400000D01*
X96190588Y-111400000D02*
X98200000Y-111400000D01*
X98200000Y-111400000D02*
X98200000Y-111400000D01*
X91426998Y-106000000D02*
X96026998Y-110600000D01*
X87625000Y-106000000D02*
X91426998Y-106000000D01*
X96026998Y-110600000D02*
X98200000Y-110600000D01*
X98200000Y-110600000D02*
X98200000Y-110600000D01*
D15*
X83155499Y-82214361D02*
X83155499Y-80451501D01*
X83155499Y-80451501D02*
X83800001Y-79806999D01*
X83932639Y-82991501D02*
X83155499Y-82214361D01*
X103150000Y-78957000D02*
X99115499Y-82991501D01*
X99115499Y-82991501D02*
X83932639Y-82991501D01*
X83800001Y-79806999D02*
X84650000Y-78957000D01*
X107213000Y-75400000D02*
X93800000Y-75400000D01*
X110770000Y-78957000D02*
X107213000Y-75400000D01*
D14*
X93400000Y-114000000D02*
X94200000Y-114800000D01*
X93400000Y-110400000D02*
X93400000Y-114000000D01*
D17*
G36*
X99628115Y-85650551D02*
G01*
X99905466Y-85765434D01*
X100199899Y-85824000D01*
X100500101Y-85824000D01*
X100794534Y-85765434D01*
X101071885Y-85650551D01*
X101107132Y-85627000D01*
X119697394Y-85627000D01*
X120873000Y-86802606D01*
X120873000Y-92697394D01*
X119697394Y-93873000D01*
X80802606Y-93873000D01*
X79627000Y-92697394D01*
X79627000Y-86802606D01*
X80802606Y-85627000D01*
X99592868Y-85627000D01*
X99628115Y-85650551D01*
G37*
X99628115Y-85650551D02*
X99905466Y-85765434D01*
X100199899Y-85824000D01*
X100500101Y-85824000D01*
X100794534Y-85765434D01*
X101071885Y-85650551D01*
X101107132Y-85627000D01*
X119697394Y-85627000D01*
X120873000Y-86802606D01*
X120873000Y-92697394D01*
X119697394Y-93873000D01*
X80802606Y-93873000D01*
X79627000Y-92697394D01*
X79627000Y-86802606D01*
X80802606Y-85627000D01*
X99592868Y-85627000D01*
X99628115Y-85650551D01*
M02*
