G04 #@! TF.GenerationSoftware,KiCad,Pcbnew,5.1.5-52549c5~86~ubuntu19.04.1*
G04 #@! TF.CreationDate,2020-05-15T20:04:21+10:00*
G04 #@! TF.ProjectId,sid-board-v2,7369642d-626f-4617-9264-2d76322e6b69,rev?*
G04 #@! TF.SameCoordinates,Original*
G04 #@! TF.FileFunction,Copper,L1,Top*
G04 #@! TF.FilePolarity,Positive*
%FSLAX46Y46*%
G04 Gerber Fmt 4.6, Leading zero omitted, Abs format (unit mm)*
G04 Created by KiCad (PCBNEW 5.1.5-52549c5~86~ubuntu19.04.1) date 2020-05-15 20:04:21*
%MOMM*%
%LPD*%
G04 APERTURE LIST*
%ADD10R,1.400000X1.400000*%
%ADD11O,1.700000X1.700000*%
%ADD12R,1.700000X1.700000*%
%ADD13R,0.400000X1.100000*%
%ADD14C,0.100000*%
%ADD15R,0.900000X0.800000*%
%ADD16R,2.000000X3.800000*%
%ADD17R,2.000000X1.500000*%
%ADD18C,0.800000*%
%ADD19C,1.778000*%
%ADD20C,0.250000*%
%ADD21C,1.270000*%
%ADD22C,0.889000*%
G04 APERTURE END LIST*
D10*
X101834000Y-102382000D03*
X101834000Y-104882000D03*
X99334000Y-104882000D03*
X99334000Y-102382000D03*
D11*
X84650000Y-81497000D03*
X84650000Y-78957000D03*
X87190000Y-81497000D03*
X87190000Y-78957000D03*
X89730000Y-81497000D03*
X89730000Y-78957000D03*
X92270000Y-81497000D03*
X92270000Y-78957000D03*
X94810000Y-81497000D03*
X94810000Y-78957000D03*
X97350000Y-81497000D03*
D12*
X97350000Y-78957000D03*
D11*
X103150000Y-81497000D03*
X103150000Y-78957000D03*
X105690000Y-81497000D03*
X105690000Y-78957000D03*
X108230000Y-81497000D03*
X108230000Y-78957000D03*
X110770000Y-81497000D03*
X110770000Y-78957000D03*
X113310000Y-81497000D03*
X113310000Y-78957000D03*
X115850000Y-81497000D03*
D12*
X115850000Y-78957000D03*
D13*
X104625000Y-107950000D03*
X103975000Y-107950000D03*
X103325000Y-107950000D03*
X102675000Y-107950000D03*
X102025000Y-107950000D03*
X101375000Y-107950000D03*
X100725000Y-107950000D03*
X100075000Y-107950000D03*
X99425000Y-107950000D03*
X98775000Y-107950000D03*
X98125000Y-107950000D03*
X97475000Y-107950000D03*
X96825000Y-107950000D03*
X96175000Y-107950000D03*
X96175000Y-113650000D03*
X96825000Y-113650000D03*
X97475000Y-113650000D03*
X98125000Y-113650000D03*
X98775000Y-113650000D03*
X99425000Y-113650000D03*
X100075000Y-113650000D03*
X100725000Y-113650000D03*
X101375000Y-113650000D03*
X102025000Y-113650000D03*
X102675000Y-113650000D03*
X103325000Y-113650000D03*
X103975000Y-113650000D03*
X104625000Y-113650000D03*
G04 #@! TA.AperFunction,SMDPad,CuDef*
D14*
G36*
X108124505Y-94701204D02*
G01*
X108148773Y-94704804D01*
X108172572Y-94710765D01*
X108195671Y-94719030D01*
X108217850Y-94729520D01*
X108238893Y-94742132D01*
X108258599Y-94756747D01*
X108276777Y-94773223D01*
X108293253Y-94791401D01*
X108307868Y-94811107D01*
X108320480Y-94832150D01*
X108330970Y-94854329D01*
X108339235Y-94877428D01*
X108345196Y-94901227D01*
X108348796Y-94925495D01*
X108350000Y-94949999D01*
X108350000Y-95850001D01*
X108348796Y-95874505D01*
X108345196Y-95898773D01*
X108339235Y-95922572D01*
X108330970Y-95945671D01*
X108320480Y-95967850D01*
X108307868Y-95988893D01*
X108293253Y-96008599D01*
X108276777Y-96026777D01*
X108258599Y-96043253D01*
X108238893Y-96057868D01*
X108217850Y-96070480D01*
X108195671Y-96080970D01*
X108172572Y-96089235D01*
X108148773Y-96095196D01*
X108124505Y-96098796D01*
X108100001Y-96100000D01*
X107449999Y-96100000D01*
X107425495Y-96098796D01*
X107401227Y-96095196D01*
X107377428Y-96089235D01*
X107354329Y-96080970D01*
X107332150Y-96070480D01*
X107311107Y-96057868D01*
X107291401Y-96043253D01*
X107273223Y-96026777D01*
X107256747Y-96008599D01*
X107242132Y-95988893D01*
X107229520Y-95967850D01*
X107219030Y-95945671D01*
X107210765Y-95922572D01*
X107204804Y-95898773D01*
X107201204Y-95874505D01*
X107200000Y-95850001D01*
X107200000Y-94949999D01*
X107201204Y-94925495D01*
X107204804Y-94901227D01*
X107210765Y-94877428D01*
X107219030Y-94854329D01*
X107229520Y-94832150D01*
X107242132Y-94811107D01*
X107256747Y-94791401D01*
X107273223Y-94773223D01*
X107291401Y-94756747D01*
X107311107Y-94742132D01*
X107332150Y-94729520D01*
X107354329Y-94719030D01*
X107377428Y-94710765D01*
X107401227Y-94704804D01*
X107425495Y-94701204D01*
X107449999Y-94700000D01*
X108100001Y-94700000D01*
X108124505Y-94701204D01*
G37*
G04 #@! TD.AperFunction*
G04 #@! TA.AperFunction,SMDPad,CuDef*
G36*
X110174505Y-94701204D02*
G01*
X110198773Y-94704804D01*
X110222572Y-94710765D01*
X110245671Y-94719030D01*
X110267850Y-94729520D01*
X110288893Y-94742132D01*
X110308599Y-94756747D01*
X110326777Y-94773223D01*
X110343253Y-94791401D01*
X110357868Y-94811107D01*
X110370480Y-94832150D01*
X110380970Y-94854329D01*
X110389235Y-94877428D01*
X110395196Y-94901227D01*
X110398796Y-94925495D01*
X110400000Y-94949999D01*
X110400000Y-95850001D01*
X110398796Y-95874505D01*
X110395196Y-95898773D01*
X110389235Y-95922572D01*
X110380970Y-95945671D01*
X110370480Y-95967850D01*
X110357868Y-95988893D01*
X110343253Y-96008599D01*
X110326777Y-96026777D01*
X110308599Y-96043253D01*
X110288893Y-96057868D01*
X110267850Y-96070480D01*
X110245671Y-96080970D01*
X110222572Y-96089235D01*
X110198773Y-96095196D01*
X110174505Y-96098796D01*
X110150001Y-96100000D01*
X109499999Y-96100000D01*
X109475495Y-96098796D01*
X109451227Y-96095196D01*
X109427428Y-96089235D01*
X109404329Y-96080970D01*
X109382150Y-96070480D01*
X109361107Y-96057868D01*
X109341401Y-96043253D01*
X109323223Y-96026777D01*
X109306747Y-96008599D01*
X109292132Y-95988893D01*
X109279520Y-95967850D01*
X109269030Y-95945671D01*
X109260765Y-95922572D01*
X109254804Y-95898773D01*
X109251204Y-95874505D01*
X109250000Y-95850001D01*
X109250000Y-94949999D01*
X109251204Y-94925495D01*
X109254804Y-94901227D01*
X109260765Y-94877428D01*
X109269030Y-94854329D01*
X109279520Y-94832150D01*
X109292132Y-94811107D01*
X109306747Y-94791401D01*
X109323223Y-94773223D01*
X109341401Y-94756747D01*
X109361107Y-94742132D01*
X109382150Y-94729520D01*
X109404329Y-94719030D01*
X109427428Y-94710765D01*
X109451227Y-94704804D01*
X109475495Y-94701204D01*
X109499999Y-94700000D01*
X110150001Y-94700000D01*
X110174505Y-94701204D01*
G37*
G04 #@! TD.AperFunction*
G04 #@! TA.AperFunction,SMDPad,CuDef*
G36*
X93374505Y-94701204D02*
G01*
X93398773Y-94704804D01*
X93422572Y-94710765D01*
X93445671Y-94719030D01*
X93467850Y-94729520D01*
X93488893Y-94742132D01*
X93508599Y-94756747D01*
X93526777Y-94773223D01*
X93543253Y-94791401D01*
X93557868Y-94811107D01*
X93570480Y-94832150D01*
X93580970Y-94854329D01*
X93589235Y-94877428D01*
X93595196Y-94901227D01*
X93598796Y-94925495D01*
X93600000Y-94949999D01*
X93600000Y-95850001D01*
X93598796Y-95874505D01*
X93595196Y-95898773D01*
X93589235Y-95922572D01*
X93580970Y-95945671D01*
X93570480Y-95967850D01*
X93557868Y-95988893D01*
X93543253Y-96008599D01*
X93526777Y-96026777D01*
X93508599Y-96043253D01*
X93488893Y-96057868D01*
X93467850Y-96070480D01*
X93445671Y-96080970D01*
X93422572Y-96089235D01*
X93398773Y-96095196D01*
X93374505Y-96098796D01*
X93350001Y-96100000D01*
X92699999Y-96100000D01*
X92675495Y-96098796D01*
X92651227Y-96095196D01*
X92627428Y-96089235D01*
X92604329Y-96080970D01*
X92582150Y-96070480D01*
X92561107Y-96057868D01*
X92541401Y-96043253D01*
X92523223Y-96026777D01*
X92506747Y-96008599D01*
X92492132Y-95988893D01*
X92479520Y-95967850D01*
X92469030Y-95945671D01*
X92460765Y-95922572D01*
X92454804Y-95898773D01*
X92451204Y-95874505D01*
X92450000Y-95850001D01*
X92450000Y-94949999D01*
X92451204Y-94925495D01*
X92454804Y-94901227D01*
X92460765Y-94877428D01*
X92469030Y-94854329D01*
X92479520Y-94832150D01*
X92492132Y-94811107D01*
X92506747Y-94791401D01*
X92523223Y-94773223D01*
X92541401Y-94756747D01*
X92561107Y-94742132D01*
X92582150Y-94729520D01*
X92604329Y-94719030D01*
X92627428Y-94710765D01*
X92651227Y-94704804D01*
X92675495Y-94701204D01*
X92699999Y-94700000D01*
X93350001Y-94700000D01*
X93374505Y-94701204D01*
G37*
G04 #@! TD.AperFunction*
G04 #@! TA.AperFunction,SMDPad,CuDef*
G36*
X91324505Y-94701204D02*
G01*
X91348773Y-94704804D01*
X91372572Y-94710765D01*
X91395671Y-94719030D01*
X91417850Y-94729520D01*
X91438893Y-94742132D01*
X91458599Y-94756747D01*
X91476777Y-94773223D01*
X91493253Y-94791401D01*
X91507868Y-94811107D01*
X91520480Y-94832150D01*
X91530970Y-94854329D01*
X91539235Y-94877428D01*
X91545196Y-94901227D01*
X91548796Y-94925495D01*
X91550000Y-94949999D01*
X91550000Y-95850001D01*
X91548796Y-95874505D01*
X91545196Y-95898773D01*
X91539235Y-95922572D01*
X91530970Y-95945671D01*
X91520480Y-95967850D01*
X91507868Y-95988893D01*
X91493253Y-96008599D01*
X91476777Y-96026777D01*
X91458599Y-96043253D01*
X91438893Y-96057868D01*
X91417850Y-96070480D01*
X91395671Y-96080970D01*
X91372572Y-96089235D01*
X91348773Y-96095196D01*
X91324505Y-96098796D01*
X91300001Y-96100000D01*
X90649999Y-96100000D01*
X90625495Y-96098796D01*
X90601227Y-96095196D01*
X90577428Y-96089235D01*
X90554329Y-96080970D01*
X90532150Y-96070480D01*
X90511107Y-96057868D01*
X90491401Y-96043253D01*
X90473223Y-96026777D01*
X90456747Y-96008599D01*
X90442132Y-95988893D01*
X90429520Y-95967850D01*
X90419030Y-95945671D01*
X90410765Y-95922572D01*
X90404804Y-95898773D01*
X90401204Y-95874505D01*
X90400000Y-95850001D01*
X90400000Y-94949999D01*
X90401204Y-94925495D01*
X90404804Y-94901227D01*
X90410765Y-94877428D01*
X90419030Y-94854329D01*
X90429520Y-94832150D01*
X90442132Y-94811107D01*
X90456747Y-94791401D01*
X90473223Y-94773223D01*
X90491401Y-94756747D01*
X90511107Y-94742132D01*
X90532150Y-94729520D01*
X90554329Y-94719030D01*
X90577428Y-94710765D01*
X90601227Y-94704804D01*
X90625495Y-94701204D01*
X90649999Y-94700000D01*
X91300001Y-94700000D01*
X91324505Y-94701204D01*
G37*
G04 #@! TD.AperFunction*
D15*
X83400000Y-101950000D03*
X83400000Y-100050000D03*
X81400000Y-101000000D03*
G04 #@! TA.AperFunction,SMDPad,CuDef*
D14*
G36*
X96024505Y-102301204D02*
G01*
X96048773Y-102304804D01*
X96072572Y-102310765D01*
X96095671Y-102319030D01*
X96117850Y-102329520D01*
X96138893Y-102342132D01*
X96158599Y-102356747D01*
X96176777Y-102373223D01*
X96193253Y-102391401D01*
X96207868Y-102411107D01*
X96220480Y-102432150D01*
X96230970Y-102454329D01*
X96239235Y-102477428D01*
X96245196Y-102501227D01*
X96248796Y-102525495D01*
X96250000Y-102549999D01*
X96250000Y-103200001D01*
X96248796Y-103224505D01*
X96245196Y-103248773D01*
X96239235Y-103272572D01*
X96230970Y-103295671D01*
X96220480Y-103317850D01*
X96207868Y-103338893D01*
X96193253Y-103358599D01*
X96176777Y-103376777D01*
X96158599Y-103393253D01*
X96138893Y-103407868D01*
X96117850Y-103420480D01*
X96095671Y-103430970D01*
X96072572Y-103439235D01*
X96048773Y-103445196D01*
X96024505Y-103448796D01*
X96000001Y-103450000D01*
X95099999Y-103450000D01*
X95075495Y-103448796D01*
X95051227Y-103445196D01*
X95027428Y-103439235D01*
X95004329Y-103430970D01*
X94982150Y-103420480D01*
X94961107Y-103407868D01*
X94941401Y-103393253D01*
X94923223Y-103376777D01*
X94906747Y-103358599D01*
X94892132Y-103338893D01*
X94879520Y-103317850D01*
X94869030Y-103295671D01*
X94860765Y-103272572D01*
X94854804Y-103248773D01*
X94851204Y-103224505D01*
X94850000Y-103200001D01*
X94850000Y-102549999D01*
X94851204Y-102525495D01*
X94854804Y-102501227D01*
X94860765Y-102477428D01*
X94869030Y-102454329D01*
X94879520Y-102432150D01*
X94892132Y-102411107D01*
X94906747Y-102391401D01*
X94923223Y-102373223D01*
X94941401Y-102356747D01*
X94961107Y-102342132D01*
X94982150Y-102329520D01*
X95004329Y-102319030D01*
X95027428Y-102310765D01*
X95051227Y-102304804D01*
X95075495Y-102301204D01*
X95099999Y-102300000D01*
X96000001Y-102300000D01*
X96024505Y-102301204D01*
G37*
G04 #@! TD.AperFunction*
G04 #@! TA.AperFunction,SMDPad,CuDef*
G36*
X96024505Y-104351204D02*
G01*
X96048773Y-104354804D01*
X96072572Y-104360765D01*
X96095671Y-104369030D01*
X96117850Y-104379520D01*
X96138893Y-104392132D01*
X96158599Y-104406747D01*
X96176777Y-104423223D01*
X96193253Y-104441401D01*
X96207868Y-104461107D01*
X96220480Y-104482150D01*
X96230970Y-104504329D01*
X96239235Y-104527428D01*
X96245196Y-104551227D01*
X96248796Y-104575495D01*
X96250000Y-104599999D01*
X96250000Y-105250001D01*
X96248796Y-105274505D01*
X96245196Y-105298773D01*
X96239235Y-105322572D01*
X96230970Y-105345671D01*
X96220480Y-105367850D01*
X96207868Y-105388893D01*
X96193253Y-105408599D01*
X96176777Y-105426777D01*
X96158599Y-105443253D01*
X96138893Y-105457868D01*
X96117850Y-105470480D01*
X96095671Y-105480970D01*
X96072572Y-105489235D01*
X96048773Y-105495196D01*
X96024505Y-105498796D01*
X96000001Y-105500000D01*
X95099999Y-105500000D01*
X95075495Y-105498796D01*
X95051227Y-105495196D01*
X95027428Y-105489235D01*
X95004329Y-105480970D01*
X94982150Y-105470480D01*
X94961107Y-105457868D01*
X94941401Y-105443253D01*
X94923223Y-105426777D01*
X94906747Y-105408599D01*
X94892132Y-105388893D01*
X94879520Y-105367850D01*
X94869030Y-105345671D01*
X94860765Y-105322572D01*
X94854804Y-105298773D01*
X94851204Y-105274505D01*
X94850000Y-105250001D01*
X94850000Y-104599999D01*
X94851204Y-104575495D01*
X94854804Y-104551227D01*
X94860765Y-104527428D01*
X94869030Y-104504329D01*
X94879520Y-104482150D01*
X94892132Y-104461107D01*
X94906747Y-104441401D01*
X94923223Y-104423223D01*
X94941401Y-104406747D01*
X94961107Y-104392132D01*
X94982150Y-104379520D01*
X95004329Y-104369030D01*
X95027428Y-104360765D01*
X95051227Y-104354804D01*
X95075495Y-104351204D01*
X95099999Y-104350000D01*
X96000001Y-104350000D01*
X96024505Y-104351204D01*
G37*
G04 #@! TD.AperFunction*
D16*
X95950000Y-89700000D03*
D17*
X89650000Y-89700000D03*
X89650000Y-92000000D03*
X89650000Y-87400000D03*
G04 #@! TA.AperFunction,SMDPad,CuDef*
D14*
G36*
X115509703Y-91250722D02*
G01*
X115524264Y-91252882D01*
X115538543Y-91256459D01*
X115552403Y-91261418D01*
X115565710Y-91267712D01*
X115578336Y-91275280D01*
X115590159Y-91284048D01*
X115601066Y-91293934D01*
X115610952Y-91304841D01*
X115619720Y-91316664D01*
X115627288Y-91329290D01*
X115633582Y-91342597D01*
X115638541Y-91356457D01*
X115642118Y-91370736D01*
X115644278Y-91385297D01*
X115645000Y-91400000D01*
X115645000Y-93050000D01*
X115644278Y-93064703D01*
X115642118Y-93079264D01*
X115638541Y-93093543D01*
X115633582Y-93107403D01*
X115627288Y-93120710D01*
X115619720Y-93133336D01*
X115610952Y-93145159D01*
X115601066Y-93156066D01*
X115590159Y-93165952D01*
X115578336Y-93174720D01*
X115565710Y-93182288D01*
X115552403Y-93188582D01*
X115538543Y-93193541D01*
X115524264Y-93197118D01*
X115509703Y-93199278D01*
X115495000Y-93200000D01*
X115195000Y-93200000D01*
X115180297Y-93199278D01*
X115165736Y-93197118D01*
X115151457Y-93193541D01*
X115137597Y-93188582D01*
X115124290Y-93182288D01*
X115111664Y-93174720D01*
X115099841Y-93165952D01*
X115088934Y-93156066D01*
X115079048Y-93145159D01*
X115070280Y-93133336D01*
X115062712Y-93120710D01*
X115056418Y-93107403D01*
X115051459Y-93093543D01*
X115047882Y-93079264D01*
X115045722Y-93064703D01*
X115045000Y-93050000D01*
X115045000Y-91400000D01*
X115045722Y-91385297D01*
X115047882Y-91370736D01*
X115051459Y-91356457D01*
X115056418Y-91342597D01*
X115062712Y-91329290D01*
X115070280Y-91316664D01*
X115079048Y-91304841D01*
X115088934Y-91293934D01*
X115099841Y-91284048D01*
X115111664Y-91275280D01*
X115124290Y-91267712D01*
X115137597Y-91261418D01*
X115151457Y-91256459D01*
X115165736Y-91252882D01*
X115180297Y-91250722D01*
X115195000Y-91250000D01*
X115495000Y-91250000D01*
X115509703Y-91250722D01*
G37*
G04 #@! TD.AperFunction*
G04 #@! TA.AperFunction,SMDPad,CuDef*
G36*
X116779703Y-91250722D02*
G01*
X116794264Y-91252882D01*
X116808543Y-91256459D01*
X116822403Y-91261418D01*
X116835710Y-91267712D01*
X116848336Y-91275280D01*
X116860159Y-91284048D01*
X116871066Y-91293934D01*
X116880952Y-91304841D01*
X116889720Y-91316664D01*
X116897288Y-91329290D01*
X116903582Y-91342597D01*
X116908541Y-91356457D01*
X116912118Y-91370736D01*
X116914278Y-91385297D01*
X116915000Y-91400000D01*
X116915000Y-93050000D01*
X116914278Y-93064703D01*
X116912118Y-93079264D01*
X116908541Y-93093543D01*
X116903582Y-93107403D01*
X116897288Y-93120710D01*
X116889720Y-93133336D01*
X116880952Y-93145159D01*
X116871066Y-93156066D01*
X116860159Y-93165952D01*
X116848336Y-93174720D01*
X116835710Y-93182288D01*
X116822403Y-93188582D01*
X116808543Y-93193541D01*
X116794264Y-93197118D01*
X116779703Y-93199278D01*
X116765000Y-93200000D01*
X116465000Y-93200000D01*
X116450297Y-93199278D01*
X116435736Y-93197118D01*
X116421457Y-93193541D01*
X116407597Y-93188582D01*
X116394290Y-93182288D01*
X116381664Y-93174720D01*
X116369841Y-93165952D01*
X116358934Y-93156066D01*
X116349048Y-93145159D01*
X116340280Y-93133336D01*
X116332712Y-93120710D01*
X116326418Y-93107403D01*
X116321459Y-93093543D01*
X116317882Y-93079264D01*
X116315722Y-93064703D01*
X116315000Y-93050000D01*
X116315000Y-91400000D01*
X116315722Y-91385297D01*
X116317882Y-91370736D01*
X116321459Y-91356457D01*
X116326418Y-91342597D01*
X116332712Y-91329290D01*
X116340280Y-91316664D01*
X116349048Y-91304841D01*
X116358934Y-91293934D01*
X116369841Y-91284048D01*
X116381664Y-91275280D01*
X116394290Y-91267712D01*
X116407597Y-91261418D01*
X116421457Y-91256459D01*
X116435736Y-91252882D01*
X116450297Y-91250722D01*
X116465000Y-91250000D01*
X116765000Y-91250000D01*
X116779703Y-91250722D01*
G37*
G04 #@! TD.AperFunction*
G04 #@! TA.AperFunction,SMDPad,CuDef*
G36*
X118049703Y-91250722D02*
G01*
X118064264Y-91252882D01*
X118078543Y-91256459D01*
X118092403Y-91261418D01*
X118105710Y-91267712D01*
X118118336Y-91275280D01*
X118130159Y-91284048D01*
X118141066Y-91293934D01*
X118150952Y-91304841D01*
X118159720Y-91316664D01*
X118167288Y-91329290D01*
X118173582Y-91342597D01*
X118178541Y-91356457D01*
X118182118Y-91370736D01*
X118184278Y-91385297D01*
X118185000Y-91400000D01*
X118185000Y-93050000D01*
X118184278Y-93064703D01*
X118182118Y-93079264D01*
X118178541Y-93093543D01*
X118173582Y-93107403D01*
X118167288Y-93120710D01*
X118159720Y-93133336D01*
X118150952Y-93145159D01*
X118141066Y-93156066D01*
X118130159Y-93165952D01*
X118118336Y-93174720D01*
X118105710Y-93182288D01*
X118092403Y-93188582D01*
X118078543Y-93193541D01*
X118064264Y-93197118D01*
X118049703Y-93199278D01*
X118035000Y-93200000D01*
X117735000Y-93200000D01*
X117720297Y-93199278D01*
X117705736Y-93197118D01*
X117691457Y-93193541D01*
X117677597Y-93188582D01*
X117664290Y-93182288D01*
X117651664Y-93174720D01*
X117639841Y-93165952D01*
X117628934Y-93156066D01*
X117619048Y-93145159D01*
X117610280Y-93133336D01*
X117602712Y-93120710D01*
X117596418Y-93107403D01*
X117591459Y-93093543D01*
X117587882Y-93079264D01*
X117585722Y-93064703D01*
X117585000Y-93050000D01*
X117585000Y-91400000D01*
X117585722Y-91385297D01*
X117587882Y-91370736D01*
X117591459Y-91356457D01*
X117596418Y-91342597D01*
X117602712Y-91329290D01*
X117610280Y-91316664D01*
X117619048Y-91304841D01*
X117628934Y-91293934D01*
X117639841Y-91284048D01*
X117651664Y-91275280D01*
X117664290Y-91267712D01*
X117677597Y-91261418D01*
X117691457Y-91256459D01*
X117705736Y-91252882D01*
X117720297Y-91250722D01*
X117735000Y-91250000D01*
X118035000Y-91250000D01*
X118049703Y-91250722D01*
G37*
G04 #@! TD.AperFunction*
G04 #@! TA.AperFunction,SMDPad,CuDef*
G36*
X119319703Y-91250722D02*
G01*
X119334264Y-91252882D01*
X119348543Y-91256459D01*
X119362403Y-91261418D01*
X119375710Y-91267712D01*
X119388336Y-91275280D01*
X119400159Y-91284048D01*
X119411066Y-91293934D01*
X119420952Y-91304841D01*
X119429720Y-91316664D01*
X119437288Y-91329290D01*
X119443582Y-91342597D01*
X119448541Y-91356457D01*
X119452118Y-91370736D01*
X119454278Y-91385297D01*
X119455000Y-91400000D01*
X119455000Y-93050000D01*
X119454278Y-93064703D01*
X119452118Y-93079264D01*
X119448541Y-93093543D01*
X119443582Y-93107403D01*
X119437288Y-93120710D01*
X119429720Y-93133336D01*
X119420952Y-93145159D01*
X119411066Y-93156066D01*
X119400159Y-93165952D01*
X119388336Y-93174720D01*
X119375710Y-93182288D01*
X119362403Y-93188582D01*
X119348543Y-93193541D01*
X119334264Y-93197118D01*
X119319703Y-93199278D01*
X119305000Y-93200000D01*
X119005000Y-93200000D01*
X118990297Y-93199278D01*
X118975736Y-93197118D01*
X118961457Y-93193541D01*
X118947597Y-93188582D01*
X118934290Y-93182288D01*
X118921664Y-93174720D01*
X118909841Y-93165952D01*
X118898934Y-93156066D01*
X118889048Y-93145159D01*
X118880280Y-93133336D01*
X118872712Y-93120710D01*
X118866418Y-93107403D01*
X118861459Y-93093543D01*
X118857882Y-93079264D01*
X118855722Y-93064703D01*
X118855000Y-93050000D01*
X118855000Y-91400000D01*
X118855722Y-91385297D01*
X118857882Y-91370736D01*
X118861459Y-91356457D01*
X118866418Y-91342597D01*
X118872712Y-91329290D01*
X118880280Y-91316664D01*
X118889048Y-91304841D01*
X118898934Y-91293934D01*
X118909841Y-91284048D01*
X118921664Y-91275280D01*
X118934290Y-91267712D01*
X118947597Y-91261418D01*
X118961457Y-91256459D01*
X118975736Y-91252882D01*
X118990297Y-91250722D01*
X119005000Y-91250000D01*
X119305000Y-91250000D01*
X119319703Y-91250722D01*
G37*
G04 #@! TD.AperFunction*
G04 #@! TA.AperFunction,SMDPad,CuDef*
G36*
X119319703Y-86300722D02*
G01*
X119334264Y-86302882D01*
X119348543Y-86306459D01*
X119362403Y-86311418D01*
X119375710Y-86317712D01*
X119388336Y-86325280D01*
X119400159Y-86334048D01*
X119411066Y-86343934D01*
X119420952Y-86354841D01*
X119429720Y-86366664D01*
X119437288Y-86379290D01*
X119443582Y-86392597D01*
X119448541Y-86406457D01*
X119452118Y-86420736D01*
X119454278Y-86435297D01*
X119455000Y-86450000D01*
X119455000Y-88100000D01*
X119454278Y-88114703D01*
X119452118Y-88129264D01*
X119448541Y-88143543D01*
X119443582Y-88157403D01*
X119437288Y-88170710D01*
X119429720Y-88183336D01*
X119420952Y-88195159D01*
X119411066Y-88206066D01*
X119400159Y-88215952D01*
X119388336Y-88224720D01*
X119375710Y-88232288D01*
X119362403Y-88238582D01*
X119348543Y-88243541D01*
X119334264Y-88247118D01*
X119319703Y-88249278D01*
X119305000Y-88250000D01*
X119005000Y-88250000D01*
X118990297Y-88249278D01*
X118975736Y-88247118D01*
X118961457Y-88243541D01*
X118947597Y-88238582D01*
X118934290Y-88232288D01*
X118921664Y-88224720D01*
X118909841Y-88215952D01*
X118898934Y-88206066D01*
X118889048Y-88195159D01*
X118880280Y-88183336D01*
X118872712Y-88170710D01*
X118866418Y-88157403D01*
X118861459Y-88143543D01*
X118857882Y-88129264D01*
X118855722Y-88114703D01*
X118855000Y-88100000D01*
X118855000Y-86450000D01*
X118855722Y-86435297D01*
X118857882Y-86420736D01*
X118861459Y-86406457D01*
X118866418Y-86392597D01*
X118872712Y-86379290D01*
X118880280Y-86366664D01*
X118889048Y-86354841D01*
X118898934Y-86343934D01*
X118909841Y-86334048D01*
X118921664Y-86325280D01*
X118934290Y-86317712D01*
X118947597Y-86311418D01*
X118961457Y-86306459D01*
X118975736Y-86302882D01*
X118990297Y-86300722D01*
X119005000Y-86300000D01*
X119305000Y-86300000D01*
X119319703Y-86300722D01*
G37*
G04 #@! TD.AperFunction*
G04 #@! TA.AperFunction,SMDPad,CuDef*
G36*
X118049703Y-86300722D02*
G01*
X118064264Y-86302882D01*
X118078543Y-86306459D01*
X118092403Y-86311418D01*
X118105710Y-86317712D01*
X118118336Y-86325280D01*
X118130159Y-86334048D01*
X118141066Y-86343934D01*
X118150952Y-86354841D01*
X118159720Y-86366664D01*
X118167288Y-86379290D01*
X118173582Y-86392597D01*
X118178541Y-86406457D01*
X118182118Y-86420736D01*
X118184278Y-86435297D01*
X118185000Y-86450000D01*
X118185000Y-88100000D01*
X118184278Y-88114703D01*
X118182118Y-88129264D01*
X118178541Y-88143543D01*
X118173582Y-88157403D01*
X118167288Y-88170710D01*
X118159720Y-88183336D01*
X118150952Y-88195159D01*
X118141066Y-88206066D01*
X118130159Y-88215952D01*
X118118336Y-88224720D01*
X118105710Y-88232288D01*
X118092403Y-88238582D01*
X118078543Y-88243541D01*
X118064264Y-88247118D01*
X118049703Y-88249278D01*
X118035000Y-88250000D01*
X117735000Y-88250000D01*
X117720297Y-88249278D01*
X117705736Y-88247118D01*
X117691457Y-88243541D01*
X117677597Y-88238582D01*
X117664290Y-88232288D01*
X117651664Y-88224720D01*
X117639841Y-88215952D01*
X117628934Y-88206066D01*
X117619048Y-88195159D01*
X117610280Y-88183336D01*
X117602712Y-88170710D01*
X117596418Y-88157403D01*
X117591459Y-88143543D01*
X117587882Y-88129264D01*
X117585722Y-88114703D01*
X117585000Y-88100000D01*
X117585000Y-86450000D01*
X117585722Y-86435297D01*
X117587882Y-86420736D01*
X117591459Y-86406457D01*
X117596418Y-86392597D01*
X117602712Y-86379290D01*
X117610280Y-86366664D01*
X117619048Y-86354841D01*
X117628934Y-86343934D01*
X117639841Y-86334048D01*
X117651664Y-86325280D01*
X117664290Y-86317712D01*
X117677597Y-86311418D01*
X117691457Y-86306459D01*
X117705736Y-86302882D01*
X117720297Y-86300722D01*
X117735000Y-86300000D01*
X118035000Y-86300000D01*
X118049703Y-86300722D01*
G37*
G04 #@! TD.AperFunction*
G04 #@! TA.AperFunction,SMDPad,CuDef*
G36*
X116779703Y-86300722D02*
G01*
X116794264Y-86302882D01*
X116808543Y-86306459D01*
X116822403Y-86311418D01*
X116835710Y-86317712D01*
X116848336Y-86325280D01*
X116860159Y-86334048D01*
X116871066Y-86343934D01*
X116880952Y-86354841D01*
X116889720Y-86366664D01*
X116897288Y-86379290D01*
X116903582Y-86392597D01*
X116908541Y-86406457D01*
X116912118Y-86420736D01*
X116914278Y-86435297D01*
X116915000Y-86450000D01*
X116915000Y-88100000D01*
X116914278Y-88114703D01*
X116912118Y-88129264D01*
X116908541Y-88143543D01*
X116903582Y-88157403D01*
X116897288Y-88170710D01*
X116889720Y-88183336D01*
X116880952Y-88195159D01*
X116871066Y-88206066D01*
X116860159Y-88215952D01*
X116848336Y-88224720D01*
X116835710Y-88232288D01*
X116822403Y-88238582D01*
X116808543Y-88243541D01*
X116794264Y-88247118D01*
X116779703Y-88249278D01*
X116765000Y-88250000D01*
X116465000Y-88250000D01*
X116450297Y-88249278D01*
X116435736Y-88247118D01*
X116421457Y-88243541D01*
X116407597Y-88238582D01*
X116394290Y-88232288D01*
X116381664Y-88224720D01*
X116369841Y-88215952D01*
X116358934Y-88206066D01*
X116349048Y-88195159D01*
X116340280Y-88183336D01*
X116332712Y-88170710D01*
X116326418Y-88157403D01*
X116321459Y-88143543D01*
X116317882Y-88129264D01*
X116315722Y-88114703D01*
X116315000Y-88100000D01*
X116315000Y-86450000D01*
X116315722Y-86435297D01*
X116317882Y-86420736D01*
X116321459Y-86406457D01*
X116326418Y-86392597D01*
X116332712Y-86379290D01*
X116340280Y-86366664D01*
X116349048Y-86354841D01*
X116358934Y-86343934D01*
X116369841Y-86334048D01*
X116381664Y-86325280D01*
X116394290Y-86317712D01*
X116407597Y-86311418D01*
X116421457Y-86306459D01*
X116435736Y-86302882D01*
X116450297Y-86300722D01*
X116465000Y-86300000D01*
X116765000Y-86300000D01*
X116779703Y-86300722D01*
G37*
G04 #@! TD.AperFunction*
G04 #@! TA.AperFunction,SMDPad,CuDef*
G36*
X115509703Y-86300722D02*
G01*
X115524264Y-86302882D01*
X115538543Y-86306459D01*
X115552403Y-86311418D01*
X115565710Y-86317712D01*
X115578336Y-86325280D01*
X115590159Y-86334048D01*
X115601066Y-86343934D01*
X115610952Y-86354841D01*
X115619720Y-86366664D01*
X115627288Y-86379290D01*
X115633582Y-86392597D01*
X115638541Y-86406457D01*
X115642118Y-86420736D01*
X115644278Y-86435297D01*
X115645000Y-86450000D01*
X115645000Y-88100000D01*
X115644278Y-88114703D01*
X115642118Y-88129264D01*
X115638541Y-88143543D01*
X115633582Y-88157403D01*
X115627288Y-88170710D01*
X115619720Y-88183336D01*
X115610952Y-88195159D01*
X115601066Y-88206066D01*
X115590159Y-88215952D01*
X115578336Y-88224720D01*
X115565710Y-88232288D01*
X115552403Y-88238582D01*
X115538543Y-88243541D01*
X115524264Y-88247118D01*
X115509703Y-88249278D01*
X115495000Y-88250000D01*
X115195000Y-88250000D01*
X115180297Y-88249278D01*
X115165736Y-88247118D01*
X115151457Y-88243541D01*
X115137597Y-88238582D01*
X115124290Y-88232288D01*
X115111664Y-88224720D01*
X115099841Y-88215952D01*
X115088934Y-88206066D01*
X115079048Y-88195159D01*
X115070280Y-88183336D01*
X115062712Y-88170710D01*
X115056418Y-88157403D01*
X115051459Y-88143543D01*
X115047882Y-88129264D01*
X115045722Y-88114703D01*
X115045000Y-88100000D01*
X115045000Y-86450000D01*
X115045722Y-86435297D01*
X115047882Y-86420736D01*
X115051459Y-86406457D01*
X115056418Y-86392597D01*
X115062712Y-86379290D01*
X115070280Y-86366664D01*
X115079048Y-86354841D01*
X115088934Y-86343934D01*
X115099841Y-86334048D01*
X115111664Y-86325280D01*
X115124290Y-86317712D01*
X115137597Y-86311418D01*
X115151457Y-86306459D01*
X115165736Y-86302882D01*
X115180297Y-86300722D01*
X115195000Y-86300000D01*
X115495000Y-86300000D01*
X115509703Y-86300722D01*
G37*
G04 #@! TD.AperFunction*
G04 #@! TA.AperFunction,SMDPad,CuDef*
G36*
X81259703Y-91300722D02*
G01*
X81274264Y-91302882D01*
X81288543Y-91306459D01*
X81302403Y-91311418D01*
X81315710Y-91317712D01*
X81328336Y-91325280D01*
X81340159Y-91334048D01*
X81351066Y-91343934D01*
X81360952Y-91354841D01*
X81369720Y-91366664D01*
X81377288Y-91379290D01*
X81383582Y-91392597D01*
X81388541Y-91406457D01*
X81392118Y-91420736D01*
X81394278Y-91435297D01*
X81395000Y-91450000D01*
X81395000Y-93100000D01*
X81394278Y-93114703D01*
X81392118Y-93129264D01*
X81388541Y-93143543D01*
X81383582Y-93157403D01*
X81377288Y-93170710D01*
X81369720Y-93183336D01*
X81360952Y-93195159D01*
X81351066Y-93206066D01*
X81340159Y-93215952D01*
X81328336Y-93224720D01*
X81315710Y-93232288D01*
X81302403Y-93238582D01*
X81288543Y-93243541D01*
X81274264Y-93247118D01*
X81259703Y-93249278D01*
X81245000Y-93250000D01*
X80945000Y-93250000D01*
X80930297Y-93249278D01*
X80915736Y-93247118D01*
X80901457Y-93243541D01*
X80887597Y-93238582D01*
X80874290Y-93232288D01*
X80861664Y-93224720D01*
X80849841Y-93215952D01*
X80838934Y-93206066D01*
X80829048Y-93195159D01*
X80820280Y-93183336D01*
X80812712Y-93170710D01*
X80806418Y-93157403D01*
X80801459Y-93143543D01*
X80797882Y-93129264D01*
X80795722Y-93114703D01*
X80795000Y-93100000D01*
X80795000Y-91450000D01*
X80795722Y-91435297D01*
X80797882Y-91420736D01*
X80801459Y-91406457D01*
X80806418Y-91392597D01*
X80812712Y-91379290D01*
X80820280Y-91366664D01*
X80829048Y-91354841D01*
X80838934Y-91343934D01*
X80849841Y-91334048D01*
X80861664Y-91325280D01*
X80874290Y-91317712D01*
X80887597Y-91311418D01*
X80901457Y-91306459D01*
X80915736Y-91302882D01*
X80930297Y-91300722D01*
X80945000Y-91300000D01*
X81245000Y-91300000D01*
X81259703Y-91300722D01*
G37*
G04 #@! TD.AperFunction*
G04 #@! TA.AperFunction,SMDPad,CuDef*
G36*
X82529703Y-91300722D02*
G01*
X82544264Y-91302882D01*
X82558543Y-91306459D01*
X82572403Y-91311418D01*
X82585710Y-91317712D01*
X82598336Y-91325280D01*
X82610159Y-91334048D01*
X82621066Y-91343934D01*
X82630952Y-91354841D01*
X82639720Y-91366664D01*
X82647288Y-91379290D01*
X82653582Y-91392597D01*
X82658541Y-91406457D01*
X82662118Y-91420736D01*
X82664278Y-91435297D01*
X82665000Y-91450000D01*
X82665000Y-93100000D01*
X82664278Y-93114703D01*
X82662118Y-93129264D01*
X82658541Y-93143543D01*
X82653582Y-93157403D01*
X82647288Y-93170710D01*
X82639720Y-93183336D01*
X82630952Y-93195159D01*
X82621066Y-93206066D01*
X82610159Y-93215952D01*
X82598336Y-93224720D01*
X82585710Y-93232288D01*
X82572403Y-93238582D01*
X82558543Y-93243541D01*
X82544264Y-93247118D01*
X82529703Y-93249278D01*
X82515000Y-93250000D01*
X82215000Y-93250000D01*
X82200297Y-93249278D01*
X82185736Y-93247118D01*
X82171457Y-93243541D01*
X82157597Y-93238582D01*
X82144290Y-93232288D01*
X82131664Y-93224720D01*
X82119841Y-93215952D01*
X82108934Y-93206066D01*
X82099048Y-93195159D01*
X82090280Y-93183336D01*
X82082712Y-93170710D01*
X82076418Y-93157403D01*
X82071459Y-93143543D01*
X82067882Y-93129264D01*
X82065722Y-93114703D01*
X82065000Y-93100000D01*
X82065000Y-91450000D01*
X82065722Y-91435297D01*
X82067882Y-91420736D01*
X82071459Y-91406457D01*
X82076418Y-91392597D01*
X82082712Y-91379290D01*
X82090280Y-91366664D01*
X82099048Y-91354841D01*
X82108934Y-91343934D01*
X82119841Y-91334048D01*
X82131664Y-91325280D01*
X82144290Y-91317712D01*
X82157597Y-91311418D01*
X82171457Y-91306459D01*
X82185736Y-91302882D01*
X82200297Y-91300722D01*
X82215000Y-91300000D01*
X82515000Y-91300000D01*
X82529703Y-91300722D01*
G37*
G04 #@! TD.AperFunction*
G04 #@! TA.AperFunction,SMDPad,CuDef*
G36*
X83799703Y-91300722D02*
G01*
X83814264Y-91302882D01*
X83828543Y-91306459D01*
X83842403Y-91311418D01*
X83855710Y-91317712D01*
X83868336Y-91325280D01*
X83880159Y-91334048D01*
X83891066Y-91343934D01*
X83900952Y-91354841D01*
X83909720Y-91366664D01*
X83917288Y-91379290D01*
X83923582Y-91392597D01*
X83928541Y-91406457D01*
X83932118Y-91420736D01*
X83934278Y-91435297D01*
X83935000Y-91450000D01*
X83935000Y-93100000D01*
X83934278Y-93114703D01*
X83932118Y-93129264D01*
X83928541Y-93143543D01*
X83923582Y-93157403D01*
X83917288Y-93170710D01*
X83909720Y-93183336D01*
X83900952Y-93195159D01*
X83891066Y-93206066D01*
X83880159Y-93215952D01*
X83868336Y-93224720D01*
X83855710Y-93232288D01*
X83842403Y-93238582D01*
X83828543Y-93243541D01*
X83814264Y-93247118D01*
X83799703Y-93249278D01*
X83785000Y-93250000D01*
X83485000Y-93250000D01*
X83470297Y-93249278D01*
X83455736Y-93247118D01*
X83441457Y-93243541D01*
X83427597Y-93238582D01*
X83414290Y-93232288D01*
X83401664Y-93224720D01*
X83389841Y-93215952D01*
X83378934Y-93206066D01*
X83369048Y-93195159D01*
X83360280Y-93183336D01*
X83352712Y-93170710D01*
X83346418Y-93157403D01*
X83341459Y-93143543D01*
X83337882Y-93129264D01*
X83335722Y-93114703D01*
X83335000Y-93100000D01*
X83335000Y-91450000D01*
X83335722Y-91435297D01*
X83337882Y-91420736D01*
X83341459Y-91406457D01*
X83346418Y-91392597D01*
X83352712Y-91379290D01*
X83360280Y-91366664D01*
X83369048Y-91354841D01*
X83378934Y-91343934D01*
X83389841Y-91334048D01*
X83401664Y-91325280D01*
X83414290Y-91317712D01*
X83427597Y-91311418D01*
X83441457Y-91306459D01*
X83455736Y-91302882D01*
X83470297Y-91300722D01*
X83485000Y-91300000D01*
X83785000Y-91300000D01*
X83799703Y-91300722D01*
G37*
G04 #@! TD.AperFunction*
G04 #@! TA.AperFunction,SMDPad,CuDef*
G36*
X85069703Y-91300722D02*
G01*
X85084264Y-91302882D01*
X85098543Y-91306459D01*
X85112403Y-91311418D01*
X85125710Y-91317712D01*
X85138336Y-91325280D01*
X85150159Y-91334048D01*
X85161066Y-91343934D01*
X85170952Y-91354841D01*
X85179720Y-91366664D01*
X85187288Y-91379290D01*
X85193582Y-91392597D01*
X85198541Y-91406457D01*
X85202118Y-91420736D01*
X85204278Y-91435297D01*
X85205000Y-91450000D01*
X85205000Y-93100000D01*
X85204278Y-93114703D01*
X85202118Y-93129264D01*
X85198541Y-93143543D01*
X85193582Y-93157403D01*
X85187288Y-93170710D01*
X85179720Y-93183336D01*
X85170952Y-93195159D01*
X85161066Y-93206066D01*
X85150159Y-93215952D01*
X85138336Y-93224720D01*
X85125710Y-93232288D01*
X85112403Y-93238582D01*
X85098543Y-93243541D01*
X85084264Y-93247118D01*
X85069703Y-93249278D01*
X85055000Y-93250000D01*
X84755000Y-93250000D01*
X84740297Y-93249278D01*
X84725736Y-93247118D01*
X84711457Y-93243541D01*
X84697597Y-93238582D01*
X84684290Y-93232288D01*
X84671664Y-93224720D01*
X84659841Y-93215952D01*
X84648934Y-93206066D01*
X84639048Y-93195159D01*
X84630280Y-93183336D01*
X84622712Y-93170710D01*
X84616418Y-93157403D01*
X84611459Y-93143543D01*
X84607882Y-93129264D01*
X84605722Y-93114703D01*
X84605000Y-93100000D01*
X84605000Y-91450000D01*
X84605722Y-91435297D01*
X84607882Y-91420736D01*
X84611459Y-91406457D01*
X84616418Y-91392597D01*
X84622712Y-91379290D01*
X84630280Y-91366664D01*
X84639048Y-91354841D01*
X84648934Y-91343934D01*
X84659841Y-91334048D01*
X84671664Y-91325280D01*
X84684290Y-91317712D01*
X84697597Y-91311418D01*
X84711457Y-91306459D01*
X84725736Y-91302882D01*
X84740297Y-91300722D01*
X84755000Y-91300000D01*
X85055000Y-91300000D01*
X85069703Y-91300722D01*
G37*
G04 #@! TD.AperFunction*
G04 #@! TA.AperFunction,SMDPad,CuDef*
G36*
X85069703Y-86350722D02*
G01*
X85084264Y-86352882D01*
X85098543Y-86356459D01*
X85112403Y-86361418D01*
X85125710Y-86367712D01*
X85138336Y-86375280D01*
X85150159Y-86384048D01*
X85161066Y-86393934D01*
X85170952Y-86404841D01*
X85179720Y-86416664D01*
X85187288Y-86429290D01*
X85193582Y-86442597D01*
X85198541Y-86456457D01*
X85202118Y-86470736D01*
X85204278Y-86485297D01*
X85205000Y-86500000D01*
X85205000Y-88150000D01*
X85204278Y-88164703D01*
X85202118Y-88179264D01*
X85198541Y-88193543D01*
X85193582Y-88207403D01*
X85187288Y-88220710D01*
X85179720Y-88233336D01*
X85170952Y-88245159D01*
X85161066Y-88256066D01*
X85150159Y-88265952D01*
X85138336Y-88274720D01*
X85125710Y-88282288D01*
X85112403Y-88288582D01*
X85098543Y-88293541D01*
X85084264Y-88297118D01*
X85069703Y-88299278D01*
X85055000Y-88300000D01*
X84755000Y-88300000D01*
X84740297Y-88299278D01*
X84725736Y-88297118D01*
X84711457Y-88293541D01*
X84697597Y-88288582D01*
X84684290Y-88282288D01*
X84671664Y-88274720D01*
X84659841Y-88265952D01*
X84648934Y-88256066D01*
X84639048Y-88245159D01*
X84630280Y-88233336D01*
X84622712Y-88220710D01*
X84616418Y-88207403D01*
X84611459Y-88193543D01*
X84607882Y-88179264D01*
X84605722Y-88164703D01*
X84605000Y-88150000D01*
X84605000Y-86500000D01*
X84605722Y-86485297D01*
X84607882Y-86470736D01*
X84611459Y-86456457D01*
X84616418Y-86442597D01*
X84622712Y-86429290D01*
X84630280Y-86416664D01*
X84639048Y-86404841D01*
X84648934Y-86393934D01*
X84659841Y-86384048D01*
X84671664Y-86375280D01*
X84684290Y-86367712D01*
X84697597Y-86361418D01*
X84711457Y-86356459D01*
X84725736Y-86352882D01*
X84740297Y-86350722D01*
X84755000Y-86350000D01*
X85055000Y-86350000D01*
X85069703Y-86350722D01*
G37*
G04 #@! TD.AperFunction*
G04 #@! TA.AperFunction,SMDPad,CuDef*
G36*
X83799703Y-86350722D02*
G01*
X83814264Y-86352882D01*
X83828543Y-86356459D01*
X83842403Y-86361418D01*
X83855710Y-86367712D01*
X83868336Y-86375280D01*
X83880159Y-86384048D01*
X83891066Y-86393934D01*
X83900952Y-86404841D01*
X83909720Y-86416664D01*
X83917288Y-86429290D01*
X83923582Y-86442597D01*
X83928541Y-86456457D01*
X83932118Y-86470736D01*
X83934278Y-86485297D01*
X83935000Y-86500000D01*
X83935000Y-88150000D01*
X83934278Y-88164703D01*
X83932118Y-88179264D01*
X83928541Y-88193543D01*
X83923582Y-88207403D01*
X83917288Y-88220710D01*
X83909720Y-88233336D01*
X83900952Y-88245159D01*
X83891066Y-88256066D01*
X83880159Y-88265952D01*
X83868336Y-88274720D01*
X83855710Y-88282288D01*
X83842403Y-88288582D01*
X83828543Y-88293541D01*
X83814264Y-88297118D01*
X83799703Y-88299278D01*
X83785000Y-88300000D01*
X83485000Y-88300000D01*
X83470297Y-88299278D01*
X83455736Y-88297118D01*
X83441457Y-88293541D01*
X83427597Y-88288582D01*
X83414290Y-88282288D01*
X83401664Y-88274720D01*
X83389841Y-88265952D01*
X83378934Y-88256066D01*
X83369048Y-88245159D01*
X83360280Y-88233336D01*
X83352712Y-88220710D01*
X83346418Y-88207403D01*
X83341459Y-88193543D01*
X83337882Y-88179264D01*
X83335722Y-88164703D01*
X83335000Y-88150000D01*
X83335000Y-86500000D01*
X83335722Y-86485297D01*
X83337882Y-86470736D01*
X83341459Y-86456457D01*
X83346418Y-86442597D01*
X83352712Y-86429290D01*
X83360280Y-86416664D01*
X83369048Y-86404841D01*
X83378934Y-86393934D01*
X83389841Y-86384048D01*
X83401664Y-86375280D01*
X83414290Y-86367712D01*
X83427597Y-86361418D01*
X83441457Y-86356459D01*
X83455736Y-86352882D01*
X83470297Y-86350722D01*
X83485000Y-86350000D01*
X83785000Y-86350000D01*
X83799703Y-86350722D01*
G37*
G04 #@! TD.AperFunction*
G04 #@! TA.AperFunction,SMDPad,CuDef*
G36*
X82529703Y-86350722D02*
G01*
X82544264Y-86352882D01*
X82558543Y-86356459D01*
X82572403Y-86361418D01*
X82585710Y-86367712D01*
X82598336Y-86375280D01*
X82610159Y-86384048D01*
X82621066Y-86393934D01*
X82630952Y-86404841D01*
X82639720Y-86416664D01*
X82647288Y-86429290D01*
X82653582Y-86442597D01*
X82658541Y-86456457D01*
X82662118Y-86470736D01*
X82664278Y-86485297D01*
X82665000Y-86500000D01*
X82665000Y-88150000D01*
X82664278Y-88164703D01*
X82662118Y-88179264D01*
X82658541Y-88193543D01*
X82653582Y-88207403D01*
X82647288Y-88220710D01*
X82639720Y-88233336D01*
X82630952Y-88245159D01*
X82621066Y-88256066D01*
X82610159Y-88265952D01*
X82598336Y-88274720D01*
X82585710Y-88282288D01*
X82572403Y-88288582D01*
X82558543Y-88293541D01*
X82544264Y-88297118D01*
X82529703Y-88299278D01*
X82515000Y-88300000D01*
X82215000Y-88300000D01*
X82200297Y-88299278D01*
X82185736Y-88297118D01*
X82171457Y-88293541D01*
X82157597Y-88288582D01*
X82144290Y-88282288D01*
X82131664Y-88274720D01*
X82119841Y-88265952D01*
X82108934Y-88256066D01*
X82099048Y-88245159D01*
X82090280Y-88233336D01*
X82082712Y-88220710D01*
X82076418Y-88207403D01*
X82071459Y-88193543D01*
X82067882Y-88179264D01*
X82065722Y-88164703D01*
X82065000Y-88150000D01*
X82065000Y-86500000D01*
X82065722Y-86485297D01*
X82067882Y-86470736D01*
X82071459Y-86456457D01*
X82076418Y-86442597D01*
X82082712Y-86429290D01*
X82090280Y-86416664D01*
X82099048Y-86404841D01*
X82108934Y-86393934D01*
X82119841Y-86384048D01*
X82131664Y-86375280D01*
X82144290Y-86367712D01*
X82157597Y-86361418D01*
X82171457Y-86356459D01*
X82185736Y-86352882D01*
X82200297Y-86350722D01*
X82215000Y-86350000D01*
X82515000Y-86350000D01*
X82529703Y-86350722D01*
G37*
G04 #@! TD.AperFunction*
G04 #@! TA.AperFunction,SMDPad,CuDef*
G36*
X81259703Y-86350722D02*
G01*
X81274264Y-86352882D01*
X81288543Y-86356459D01*
X81302403Y-86361418D01*
X81315710Y-86367712D01*
X81328336Y-86375280D01*
X81340159Y-86384048D01*
X81351066Y-86393934D01*
X81360952Y-86404841D01*
X81369720Y-86416664D01*
X81377288Y-86429290D01*
X81383582Y-86442597D01*
X81388541Y-86456457D01*
X81392118Y-86470736D01*
X81394278Y-86485297D01*
X81395000Y-86500000D01*
X81395000Y-88150000D01*
X81394278Y-88164703D01*
X81392118Y-88179264D01*
X81388541Y-88193543D01*
X81383582Y-88207403D01*
X81377288Y-88220710D01*
X81369720Y-88233336D01*
X81360952Y-88245159D01*
X81351066Y-88256066D01*
X81340159Y-88265952D01*
X81328336Y-88274720D01*
X81315710Y-88282288D01*
X81302403Y-88288582D01*
X81288543Y-88293541D01*
X81274264Y-88297118D01*
X81259703Y-88299278D01*
X81245000Y-88300000D01*
X80945000Y-88300000D01*
X80930297Y-88299278D01*
X80915736Y-88297118D01*
X80901457Y-88293541D01*
X80887597Y-88288582D01*
X80874290Y-88282288D01*
X80861664Y-88274720D01*
X80849841Y-88265952D01*
X80838934Y-88256066D01*
X80829048Y-88245159D01*
X80820280Y-88233336D01*
X80812712Y-88220710D01*
X80806418Y-88207403D01*
X80801459Y-88193543D01*
X80797882Y-88179264D01*
X80795722Y-88164703D01*
X80795000Y-88150000D01*
X80795000Y-86500000D01*
X80795722Y-86485297D01*
X80797882Y-86470736D01*
X80801459Y-86456457D01*
X80806418Y-86442597D01*
X80812712Y-86429290D01*
X80820280Y-86416664D01*
X80829048Y-86404841D01*
X80838934Y-86393934D01*
X80849841Y-86384048D01*
X80861664Y-86375280D01*
X80874290Y-86367712D01*
X80887597Y-86361418D01*
X80901457Y-86356459D01*
X80915736Y-86352882D01*
X80930297Y-86350722D01*
X80945000Y-86350000D01*
X81245000Y-86350000D01*
X81259703Y-86350722D01*
G37*
G04 #@! TD.AperFunction*
D17*
X104350000Y-87400000D03*
X104350000Y-92000000D03*
X104350000Y-89700000D03*
D16*
X110650000Y-89700000D03*
G04 #@! TA.AperFunction,SMDPad,CuDef*
D14*
G36*
X117074505Y-120801204D02*
G01*
X117098773Y-120804804D01*
X117122572Y-120810765D01*
X117145671Y-120819030D01*
X117167850Y-120829520D01*
X117188893Y-120842132D01*
X117208599Y-120856747D01*
X117226777Y-120873223D01*
X117243253Y-120891401D01*
X117257868Y-120911107D01*
X117270480Y-120932150D01*
X117280970Y-120954329D01*
X117289235Y-120977428D01*
X117295196Y-121001227D01*
X117298796Y-121025495D01*
X117300000Y-121049999D01*
X117300000Y-121700001D01*
X117298796Y-121724505D01*
X117295196Y-121748773D01*
X117289235Y-121772572D01*
X117280970Y-121795671D01*
X117270480Y-121817850D01*
X117257868Y-121838893D01*
X117243253Y-121858599D01*
X117226777Y-121876777D01*
X117208599Y-121893253D01*
X117188893Y-121907868D01*
X117167850Y-121920480D01*
X117145671Y-121930970D01*
X117122572Y-121939235D01*
X117098773Y-121945196D01*
X117074505Y-121948796D01*
X117050001Y-121950000D01*
X116149999Y-121950000D01*
X116125495Y-121948796D01*
X116101227Y-121945196D01*
X116077428Y-121939235D01*
X116054329Y-121930970D01*
X116032150Y-121920480D01*
X116011107Y-121907868D01*
X115991401Y-121893253D01*
X115973223Y-121876777D01*
X115956747Y-121858599D01*
X115942132Y-121838893D01*
X115929520Y-121817850D01*
X115919030Y-121795671D01*
X115910765Y-121772572D01*
X115904804Y-121748773D01*
X115901204Y-121724505D01*
X115900000Y-121700001D01*
X115900000Y-121049999D01*
X115901204Y-121025495D01*
X115904804Y-121001227D01*
X115910765Y-120977428D01*
X115919030Y-120954329D01*
X115929520Y-120932150D01*
X115942132Y-120911107D01*
X115956747Y-120891401D01*
X115973223Y-120873223D01*
X115991401Y-120856747D01*
X116011107Y-120842132D01*
X116032150Y-120829520D01*
X116054329Y-120819030D01*
X116077428Y-120810765D01*
X116101227Y-120804804D01*
X116125495Y-120801204D01*
X116149999Y-120800000D01*
X117050001Y-120800000D01*
X117074505Y-120801204D01*
G37*
G04 #@! TD.AperFunction*
G04 #@! TA.AperFunction,SMDPad,CuDef*
G36*
X117074505Y-122851204D02*
G01*
X117098773Y-122854804D01*
X117122572Y-122860765D01*
X117145671Y-122869030D01*
X117167850Y-122879520D01*
X117188893Y-122892132D01*
X117208599Y-122906747D01*
X117226777Y-122923223D01*
X117243253Y-122941401D01*
X117257868Y-122961107D01*
X117270480Y-122982150D01*
X117280970Y-123004329D01*
X117289235Y-123027428D01*
X117295196Y-123051227D01*
X117298796Y-123075495D01*
X117300000Y-123099999D01*
X117300000Y-123750001D01*
X117298796Y-123774505D01*
X117295196Y-123798773D01*
X117289235Y-123822572D01*
X117280970Y-123845671D01*
X117270480Y-123867850D01*
X117257868Y-123888893D01*
X117243253Y-123908599D01*
X117226777Y-123926777D01*
X117208599Y-123943253D01*
X117188893Y-123957868D01*
X117167850Y-123970480D01*
X117145671Y-123980970D01*
X117122572Y-123989235D01*
X117098773Y-123995196D01*
X117074505Y-123998796D01*
X117050001Y-124000000D01*
X116149999Y-124000000D01*
X116125495Y-123998796D01*
X116101227Y-123995196D01*
X116077428Y-123989235D01*
X116054329Y-123980970D01*
X116032150Y-123970480D01*
X116011107Y-123957868D01*
X115991401Y-123943253D01*
X115973223Y-123926777D01*
X115956747Y-123908599D01*
X115942132Y-123888893D01*
X115929520Y-123867850D01*
X115919030Y-123845671D01*
X115910765Y-123822572D01*
X115904804Y-123798773D01*
X115901204Y-123774505D01*
X115900000Y-123750001D01*
X115900000Y-123099999D01*
X115901204Y-123075495D01*
X115904804Y-123051227D01*
X115910765Y-123027428D01*
X115919030Y-123004329D01*
X115929520Y-122982150D01*
X115942132Y-122961107D01*
X115956747Y-122941401D01*
X115973223Y-122923223D01*
X115991401Y-122906747D01*
X116011107Y-122892132D01*
X116032150Y-122879520D01*
X116054329Y-122869030D01*
X116077428Y-122860765D01*
X116101227Y-122854804D01*
X116125495Y-122851204D01*
X116149999Y-122850000D01*
X117050001Y-122850000D01*
X117074505Y-122851204D01*
G37*
G04 #@! TD.AperFunction*
G04 #@! TA.AperFunction,SMDPad,CuDef*
G36*
X114874505Y-122851204D02*
G01*
X114898773Y-122854804D01*
X114922572Y-122860765D01*
X114945671Y-122869030D01*
X114967850Y-122879520D01*
X114988893Y-122892132D01*
X115008599Y-122906747D01*
X115026777Y-122923223D01*
X115043253Y-122941401D01*
X115057868Y-122961107D01*
X115070480Y-122982150D01*
X115080970Y-123004329D01*
X115089235Y-123027428D01*
X115095196Y-123051227D01*
X115098796Y-123075495D01*
X115100000Y-123099999D01*
X115100000Y-123750001D01*
X115098796Y-123774505D01*
X115095196Y-123798773D01*
X115089235Y-123822572D01*
X115080970Y-123845671D01*
X115070480Y-123867850D01*
X115057868Y-123888893D01*
X115043253Y-123908599D01*
X115026777Y-123926777D01*
X115008599Y-123943253D01*
X114988893Y-123957868D01*
X114967850Y-123970480D01*
X114945671Y-123980970D01*
X114922572Y-123989235D01*
X114898773Y-123995196D01*
X114874505Y-123998796D01*
X114850001Y-124000000D01*
X113949999Y-124000000D01*
X113925495Y-123998796D01*
X113901227Y-123995196D01*
X113877428Y-123989235D01*
X113854329Y-123980970D01*
X113832150Y-123970480D01*
X113811107Y-123957868D01*
X113791401Y-123943253D01*
X113773223Y-123926777D01*
X113756747Y-123908599D01*
X113742132Y-123888893D01*
X113729520Y-123867850D01*
X113719030Y-123845671D01*
X113710765Y-123822572D01*
X113704804Y-123798773D01*
X113701204Y-123774505D01*
X113700000Y-123750001D01*
X113700000Y-123099999D01*
X113701204Y-123075495D01*
X113704804Y-123051227D01*
X113710765Y-123027428D01*
X113719030Y-123004329D01*
X113729520Y-122982150D01*
X113742132Y-122961107D01*
X113756747Y-122941401D01*
X113773223Y-122923223D01*
X113791401Y-122906747D01*
X113811107Y-122892132D01*
X113832150Y-122879520D01*
X113854329Y-122869030D01*
X113877428Y-122860765D01*
X113901227Y-122854804D01*
X113925495Y-122851204D01*
X113949999Y-122850000D01*
X114850001Y-122850000D01*
X114874505Y-122851204D01*
G37*
G04 #@! TD.AperFunction*
G04 #@! TA.AperFunction,SMDPad,CuDef*
G36*
X114874505Y-120801204D02*
G01*
X114898773Y-120804804D01*
X114922572Y-120810765D01*
X114945671Y-120819030D01*
X114967850Y-120829520D01*
X114988893Y-120842132D01*
X115008599Y-120856747D01*
X115026777Y-120873223D01*
X115043253Y-120891401D01*
X115057868Y-120911107D01*
X115070480Y-120932150D01*
X115080970Y-120954329D01*
X115089235Y-120977428D01*
X115095196Y-121001227D01*
X115098796Y-121025495D01*
X115100000Y-121049999D01*
X115100000Y-121700001D01*
X115098796Y-121724505D01*
X115095196Y-121748773D01*
X115089235Y-121772572D01*
X115080970Y-121795671D01*
X115070480Y-121817850D01*
X115057868Y-121838893D01*
X115043253Y-121858599D01*
X115026777Y-121876777D01*
X115008599Y-121893253D01*
X114988893Y-121907868D01*
X114967850Y-121920480D01*
X114945671Y-121930970D01*
X114922572Y-121939235D01*
X114898773Y-121945196D01*
X114874505Y-121948796D01*
X114850001Y-121950000D01*
X113949999Y-121950000D01*
X113925495Y-121948796D01*
X113901227Y-121945196D01*
X113877428Y-121939235D01*
X113854329Y-121930970D01*
X113832150Y-121920480D01*
X113811107Y-121907868D01*
X113791401Y-121893253D01*
X113773223Y-121876777D01*
X113756747Y-121858599D01*
X113742132Y-121838893D01*
X113729520Y-121817850D01*
X113719030Y-121795671D01*
X113710765Y-121772572D01*
X113704804Y-121748773D01*
X113701204Y-121724505D01*
X113700000Y-121700001D01*
X113700000Y-121049999D01*
X113701204Y-121025495D01*
X113704804Y-121001227D01*
X113710765Y-120977428D01*
X113719030Y-120954329D01*
X113729520Y-120932150D01*
X113742132Y-120911107D01*
X113756747Y-120891401D01*
X113773223Y-120873223D01*
X113791401Y-120856747D01*
X113811107Y-120842132D01*
X113832150Y-120829520D01*
X113854329Y-120819030D01*
X113877428Y-120810765D01*
X113901227Y-120804804D01*
X113925495Y-120801204D01*
X113949999Y-120800000D01*
X114850001Y-120800000D01*
X114874505Y-120801204D01*
G37*
G04 #@! TD.AperFunction*
G04 #@! TA.AperFunction,SMDPad,CuDef*
G36*
X112674505Y-120801204D02*
G01*
X112698773Y-120804804D01*
X112722572Y-120810765D01*
X112745671Y-120819030D01*
X112767850Y-120829520D01*
X112788893Y-120842132D01*
X112808599Y-120856747D01*
X112826777Y-120873223D01*
X112843253Y-120891401D01*
X112857868Y-120911107D01*
X112870480Y-120932150D01*
X112880970Y-120954329D01*
X112889235Y-120977428D01*
X112895196Y-121001227D01*
X112898796Y-121025495D01*
X112900000Y-121049999D01*
X112900000Y-121700001D01*
X112898796Y-121724505D01*
X112895196Y-121748773D01*
X112889235Y-121772572D01*
X112880970Y-121795671D01*
X112870480Y-121817850D01*
X112857868Y-121838893D01*
X112843253Y-121858599D01*
X112826777Y-121876777D01*
X112808599Y-121893253D01*
X112788893Y-121907868D01*
X112767850Y-121920480D01*
X112745671Y-121930970D01*
X112722572Y-121939235D01*
X112698773Y-121945196D01*
X112674505Y-121948796D01*
X112650001Y-121950000D01*
X111749999Y-121950000D01*
X111725495Y-121948796D01*
X111701227Y-121945196D01*
X111677428Y-121939235D01*
X111654329Y-121930970D01*
X111632150Y-121920480D01*
X111611107Y-121907868D01*
X111591401Y-121893253D01*
X111573223Y-121876777D01*
X111556747Y-121858599D01*
X111542132Y-121838893D01*
X111529520Y-121817850D01*
X111519030Y-121795671D01*
X111510765Y-121772572D01*
X111504804Y-121748773D01*
X111501204Y-121724505D01*
X111500000Y-121700001D01*
X111500000Y-121049999D01*
X111501204Y-121025495D01*
X111504804Y-121001227D01*
X111510765Y-120977428D01*
X111519030Y-120954329D01*
X111529520Y-120932150D01*
X111542132Y-120911107D01*
X111556747Y-120891401D01*
X111573223Y-120873223D01*
X111591401Y-120856747D01*
X111611107Y-120842132D01*
X111632150Y-120829520D01*
X111654329Y-120819030D01*
X111677428Y-120810765D01*
X111701227Y-120804804D01*
X111725495Y-120801204D01*
X111749999Y-120800000D01*
X112650001Y-120800000D01*
X112674505Y-120801204D01*
G37*
G04 #@! TD.AperFunction*
G04 #@! TA.AperFunction,SMDPad,CuDef*
G36*
X112674505Y-122851204D02*
G01*
X112698773Y-122854804D01*
X112722572Y-122860765D01*
X112745671Y-122869030D01*
X112767850Y-122879520D01*
X112788893Y-122892132D01*
X112808599Y-122906747D01*
X112826777Y-122923223D01*
X112843253Y-122941401D01*
X112857868Y-122961107D01*
X112870480Y-122982150D01*
X112880970Y-123004329D01*
X112889235Y-123027428D01*
X112895196Y-123051227D01*
X112898796Y-123075495D01*
X112900000Y-123099999D01*
X112900000Y-123750001D01*
X112898796Y-123774505D01*
X112895196Y-123798773D01*
X112889235Y-123822572D01*
X112880970Y-123845671D01*
X112870480Y-123867850D01*
X112857868Y-123888893D01*
X112843253Y-123908599D01*
X112826777Y-123926777D01*
X112808599Y-123943253D01*
X112788893Y-123957868D01*
X112767850Y-123970480D01*
X112745671Y-123980970D01*
X112722572Y-123989235D01*
X112698773Y-123995196D01*
X112674505Y-123998796D01*
X112650001Y-124000000D01*
X111749999Y-124000000D01*
X111725495Y-123998796D01*
X111701227Y-123995196D01*
X111677428Y-123989235D01*
X111654329Y-123980970D01*
X111632150Y-123970480D01*
X111611107Y-123957868D01*
X111591401Y-123943253D01*
X111573223Y-123926777D01*
X111556747Y-123908599D01*
X111542132Y-123888893D01*
X111529520Y-123867850D01*
X111519030Y-123845671D01*
X111510765Y-123822572D01*
X111504804Y-123798773D01*
X111501204Y-123774505D01*
X111500000Y-123750001D01*
X111500000Y-123099999D01*
X111501204Y-123075495D01*
X111504804Y-123051227D01*
X111510765Y-123027428D01*
X111519030Y-123004329D01*
X111529520Y-122982150D01*
X111542132Y-122961107D01*
X111556747Y-122941401D01*
X111573223Y-122923223D01*
X111591401Y-122906747D01*
X111611107Y-122892132D01*
X111632150Y-122879520D01*
X111654329Y-122869030D01*
X111677428Y-122860765D01*
X111701227Y-122854804D01*
X111725495Y-122851204D01*
X111749999Y-122850000D01*
X112650001Y-122850000D01*
X112674505Y-122851204D01*
G37*
G04 #@! TD.AperFunction*
G04 #@! TA.AperFunction,SMDPad,CuDef*
G36*
X110474505Y-122851204D02*
G01*
X110498773Y-122854804D01*
X110522572Y-122860765D01*
X110545671Y-122869030D01*
X110567850Y-122879520D01*
X110588893Y-122892132D01*
X110608599Y-122906747D01*
X110626777Y-122923223D01*
X110643253Y-122941401D01*
X110657868Y-122961107D01*
X110670480Y-122982150D01*
X110680970Y-123004329D01*
X110689235Y-123027428D01*
X110695196Y-123051227D01*
X110698796Y-123075495D01*
X110700000Y-123099999D01*
X110700000Y-123750001D01*
X110698796Y-123774505D01*
X110695196Y-123798773D01*
X110689235Y-123822572D01*
X110680970Y-123845671D01*
X110670480Y-123867850D01*
X110657868Y-123888893D01*
X110643253Y-123908599D01*
X110626777Y-123926777D01*
X110608599Y-123943253D01*
X110588893Y-123957868D01*
X110567850Y-123970480D01*
X110545671Y-123980970D01*
X110522572Y-123989235D01*
X110498773Y-123995196D01*
X110474505Y-123998796D01*
X110450001Y-124000000D01*
X109549999Y-124000000D01*
X109525495Y-123998796D01*
X109501227Y-123995196D01*
X109477428Y-123989235D01*
X109454329Y-123980970D01*
X109432150Y-123970480D01*
X109411107Y-123957868D01*
X109391401Y-123943253D01*
X109373223Y-123926777D01*
X109356747Y-123908599D01*
X109342132Y-123888893D01*
X109329520Y-123867850D01*
X109319030Y-123845671D01*
X109310765Y-123822572D01*
X109304804Y-123798773D01*
X109301204Y-123774505D01*
X109300000Y-123750001D01*
X109300000Y-123099999D01*
X109301204Y-123075495D01*
X109304804Y-123051227D01*
X109310765Y-123027428D01*
X109319030Y-123004329D01*
X109329520Y-122982150D01*
X109342132Y-122961107D01*
X109356747Y-122941401D01*
X109373223Y-122923223D01*
X109391401Y-122906747D01*
X109411107Y-122892132D01*
X109432150Y-122879520D01*
X109454329Y-122869030D01*
X109477428Y-122860765D01*
X109501227Y-122854804D01*
X109525495Y-122851204D01*
X109549999Y-122850000D01*
X110450001Y-122850000D01*
X110474505Y-122851204D01*
G37*
G04 #@! TD.AperFunction*
G04 #@! TA.AperFunction,SMDPad,CuDef*
G36*
X110474505Y-120801204D02*
G01*
X110498773Y-120804804D01*
X110522572Y-120810765D01*
X110545671Y-120819030D01*
X110567850Y-120829520D01*
X110588893Y-120842132D01*
X110608599Y-120856747D01*
X110626777Y-120873223D01*
X110643253Y-120891401D01*
X110657868Y-120911107D01*
X110670480Y-120932150D01*
X110680970Y-120954329D01*
X110689235Y-120977428D01*
X110695196Y-121001227D01*
X110698796Y-121025495D01*
X110700000Y-121049999D01*
X110700000Y-121700001D01*
X110698796Y-121724505D01*
X110695196Y-121748773D01*
X110689235Y-121772572D01*
X110680970Y-121795671D01*
X110670480Y-121817850D01*
X110657868Y-121838893D01*
X110643253Y-121858599D01*
X110626777Y-121876777D01*
X110608599Y-121893253D01*
X110588893Y-121907868D01*
X110567850Y-121920480D01*
X110545671Y-121930970D01*
X110522572Y-121939235D01*
X110498773Y-121945196D01*
X110474505Y-121948796D01*
X110450001Y-121950000D01*
X109549999Y-121950000D01*
X109525495Y-121948796D01*
X109501227Y-121945196D01*
X109477428Y-121939235D01*
X109454329Y-121930970D01*
X109432150Y-121920480D01*
X109411107Y-121907868D01*
X109391401Y-121893253D01*
X109373223Y-121876777D01*
X109356747Y-121858599D01*
X109342132Y-121838893D01*
X109329520Y-121817850D01*
X109319030Y-121795671D01*
X109310765Y-121772572D01*
X109304804Y-121748773D01*
X109301204Y-121724505D01*
X109300000Y-121700001D01*
X109300000Y-121049999D01*
X109301204Y-121025495D01*
X109304804Y-121001227D01*
X109310765Y-120977428D01*
X109319030Y-120954329D01*
X109329520Y-120932150D01*
X109342132Y-120911107D01*
X109356747Y-120891401D01*
X109373223Y-120873223D01*
X109391401Y-120856747D01*
X109411107Y-120842132D01*
X109432150Y-120829520D01*
X109454329Y-120819030D01*
X109477428Y-120810765D01*
X109501227Y-120804804D01*
X109525495Y-120801204D01*
X109549999Y-120800000D01*
X110450001Y-120800000D01*
X110474505Y-120801204D01*
G37*
G04 #@! TD.AperFunction*
G04 #@! TA.AperFunction,SMDPad,CuDef*
G36*
X106274505Y-120801204D02*
G01*
X106298773Y-120804804D01*
X106322572Y-120810765D01*
X106345671Y-120819030D01*
X106367850Y-120829520D01*
X106388893Y-120842132D01*
X106408599Y-120856747D01*
X106426777Y-120873223D01*
X106443253Y-120891401D01*
X106457868Y-120911107D01*
X106470480Y-120932150D01*
X106480970Y-120954329D01*
X106489235Y-120977428D01*
X106495196Y-121001227D01*
X106498796Y-121025495D01*
X106500000Y-121049999D01*
X106500000Y-121700001D01*
X106498796Y-121724505D01*
X106495196Y-121748773D01*
X106489235Y-121772572D01*
X106480970Y-121795671D01*
X106470480Y-121817850D01*
X106457868Y-121838893D01*
X106443253Y-121858599D01*
X106426777Y-121876777D01*
X106408599Y-121893253D01*
X106388893Y-121907868D01*
X106367850Y-121920480D01*
X106345671Y-121930970D01*
X106322572Y-121939235D01*
X106298773Y-121945196D01*
X106274505Y-121948796D01*
X106250001Y-121950000D01*
X105349999Y-121950000D01*
X105325495Y-121948796D01*
X105301227Y-121945196D01*
X105277428Y-121939235D01*
X105254329Y-121930970D01*
X105232150Y-121920480D01*
X105211107Y-121907868D01*
X105191401Y-121893253D01*
X105173223Y-121876777D01*
X105156747Y-121858599D01*
X105142132Y-121838893D01*
X105129520Y-121817850D01*
X105119030Y-121795671D01*
X105110765Y-121772572D01*
X105104804Y-121748773D01*
X105101204Y-121724505D01*
X105100000Y-121700001D01*
X105100000Y-121049999D01*
X105101204Y-121025495D01*
X105104804Y-121001227D01*
X105110765Y-120977428D01*
X105119030Y-120954329D01*
X105129520Y-120932150D01*
X105142132Y-120911107D01*
X105156747Y-120891401D01*
X105173223Y-120873223D01*
X105191401Y-120856747D01*
X105211107Y-120842132D01*
X105232150Y-120829520D01*
X105254329Y-120819030D01*
X105277428Y-120810765D01*
X105301227Y-120804804D01*
X105325495Y-120801204D01*
X105349999Y-120800000D01*
X106250001Y-120800000D01*
X106274505Y-120801204D01*
G37*
G04 #@! TD.AperFunction*
G04 #@! TA.AperFunction,SMDPad,CuDef*
G36*
X106274505Y-122851204D02*
G01*
X106298773Y-122854804D01*
X106322572Y-122860765D01*
X106345671Y-122869030D01*
X106367850Y-122879520D01*
X106388893Y-122892132D01*
X106408599Y-122906747D01*
X106426777Y-122923223D01*
X106443253Y-122941401D01*
X106457868Y-122961107D01*
X106470480Y-122982150D01*
X106480970Y-123004329D01*
X106489235Y-123027428D01*
X106495196Y-123051227D01*
X106498796Y-123075495D01*
X106500000Y-123099999D01*
X106500000Y-123750001D01*
X106498796Y-123774505D01*
X106495196Y-123798773D01*
X106489235Y-123822572D01*
X106480970Y-123845671D01*
X106470480Y-123867850D01*
X106457868Y-123888893D01*
X106443253Y-123908599D01*
X106426777Y-123926777D01*
X106408599Y-123943253D01*
X106388893Y-123957868D01*
X106367850Y-123970480D01*
X106345671Y-123980970D01*
X106322572Y-123989235D01*
X106298773Y-123995196D01*
X106274505Y-123998796D01*
X106250001Y-124000000D01*
X105349999Y-124000000D01*
X105325495Y-123998796D01*
X105301227Y-123995196D01*
X105277428Y-123989235D01*
X105254329Y-123980970D01*
X105232150Y-123970480D01*
X105211107Y-123957868D01*
X105191401Y-123943253D01*
X105173223Y-123926777D01*
X105156747Y-123908599D01*
X105142132Y-123888893D01*
X105129520Y-123867850D01*
X105119030Y-123845671D01*
X105110765Y-123822572D01*
X105104804Y-123798773D01*
X105101204Y-123774505D01*
X105100000Y-123750001D01*
X105100000Y-123099999D01*
X105101204Y-123075495D01*
X105104804Y-123051227D01*
X105110765Y-123027428D01*
X105119030Y-123004329D01*
X105129520Y-122982150D01*
X105142132Y-122961107D01*
X105156747Y-122941401D01*
X105173223Y-122923223D01*
X105191401Y-122906747D01*
X105211107Y-122892132D01*
X105232150Y-122879520D01*
X105254329Y-122869030D01*
X105277428Y-122860765D01*
X105301227Y-122854804D01*
X105325495Y-122851204D01*
X105349999Y-122850000D01*
X106250001Y-122850000D01*
X106274505Y-122851204D01*
G37*
G04 #@! TD.AperFunction*
G04 #@! TA.AperFunction,SMDPad,CuDef*
G36*
X104074505Y-122851204D02*
G01*
X104098773Y-122854804D01*
X104122572Y-122860765D01*
X104145671Y-122869030D01*
X104167850Y-122879520D01*
X104188893Y-122892132D01*
X104208599Y-122906747D01*
X104226777Y-122923223D01*
X104243253Y-122941401D01*
X104257868Y-122961107D01*
X104270480Y-122982150D01*
X104280970Y-123004329D01*
X104289235Y-123027428D01*
X104295196Y-123051227D01*
X104298796Y-123075495D01*
X104300000Y-123099999D01*
X104300000Y-123750001D01*
X104298796Y-123774505D01*
X104295196Y-123798773D01*
X104289235Y-123822572D01*
X104280970Y-123845671D01*
X104270480Y-123867850D01*
X104257868Y-123888893D01*
X104243253Y-123908599D01*
X104226777Y-123926777D01*
X104208599Y-123943253D01*
X104188893Y-123957868D01*
X104167850Y-123970480D01*
X104145671Y-123980970D01*
X104122572Y-123989235D01*
X104098773Y-123995196D01*
X104074505Y-123998796D01*
X104050001Y-124000000D01*
X103149999Y-124000000D01*
X103125495Y-123998796D01*
X103101227Y-123995196D01*
X103077428Y-123989235D01*
X103054329Y-123980970D01*
X103032150Y-123970480D01*
X103011107Y-123957868D01*
X102991401Y-123943253D01*
X102973223Y-123926777D01*
X102956747Y-123908599D01*
X102942132Y-123888893D01*
X102929520Y-123867850D01*
X102919030Y-123845671D01*
X102910765Y-123822572D01*
X102904804Y-123798773D01*
X102901204Y-123774505D01*
X102900000Y-123750001D01*
X102900000Y-123099999D01*
X102901204Y-123075495D01*
X102904804Y-123051227D01*
X102910765Y-123027428D01*
X102919030Y-123004329D01*
X102929520Y-122982150D01*
X102942132Y-122961107D01*
X102956747Y-122941401D01*
X102973223Y-122923223D01*
X102991401Y-122906747D01*
X103011107Y-122892132D01*
X103032150Y-122879520D01*
X103054329Y-122869030D01*
X103077428Y-122860765D01*
X103101227Y-122854804D01*
X103125495Y-122851204D01*
X103149999Y-122850000D01*
X104050001Y-122850000D01*
X104074505Y-122851204D01*
G37*
G04 #@! TD.AperFunction*
G04 #@! TA.AperFunction,SMDPad,CuDef*
G36*
X104074505Y-120801204D02*
G01*
X104098773Y-120804804D01*
X104122572Y-120810765D01*
X104145671Y-120819030D01*
X104167850Y-120829520D01*
X104188893Y-120842132D01*
X104208599Y-120856747D01*
X104226777Y-120873223D01*
X104243253Y-120891401D01*
X104257868Y-120911107D01*
X104270480Y-120932150D01*
X104280970Y-120954329D01*
X104289235Y-120977428D01*
X104295196Y-121001227D01*
X104298796Y-121025495D01*
X104300000Y-121049999D01*
X104300000Y-121700001D01*
X104298796Y-121724505D01*
X104295196Y-121748773D01*
X104289235Y-121772572D01*
X104280970Y-121795671D01*
X104270480Y-121817850D01*
X104257868Y-121838893D01*
X104243253Y-121858599D01*
X104226777Y-121876777D01*
X104208599Y-121893253D01*
X104188893Y-121907868D01*
X104167850Y-121920480D01*
X104145671Y-121930970D01*
X104122572Y-121939235D01*
X104098773Y-121945196D01*
X104074505Y-121948796D01*
X104050001Y-121950000D01*
X103149999Y-121950000D01*
X103125495Y-121948796D01*
X103101227Y-121945196D01*
X103077428Y-121939235D01*
X103054329Y-121930970D01*
X103032150Y-121920480D01*
X103011107Y-121907868D01*
X102991401Y-121893253D01*
X102973223Y-121876777D01*
X102956747Y-121858599D01*
X102942132Y-121838893D01*
X102929520Y-121817850D01*
X102919030Y-121795671D01*
X102910765Y-121772572D01*
X102904804Y-121748773D01*
X102901204Y-121724505D01*
X102900000Y-121700001D01*
X102900000Y-121049999D01*
X102901204Y-121025495D01*
X102904804Y-121001227D01*
X102910765Y-120977428D01*
X102919030Y-120954329D01*
X102929520Y-120932150D01*
X102942132Y-120911107D01*
X102956747Y-120891401D01*
X102973223Y-120873223D01*
X102991401Y-120856747D01*
X103011107Y-120842132D01*
X103032150Y-120829520D01*
X103054329Y-120819030D01*
X103077428Y-120810765D01*
X103101227Y-120804804D01*
X103125495Y-120801204D01*
X103149999Y-120800000D01*
X104050001Y-120800000D01*
X104074505Y-120801204D01*
G37*
G04 #@! TD.AperFunction*
G04 #@! TA.AperFunction,SMDPad,CuDef*
G36*
X101874505Y-120801204D02*
G01*
X101898773Y-120804804D01*
X101922572Y-120810765D01*
X101945671Y-120819030D01*
X101967850Y-120829520D01*
X101988893Y-120842132D01*
X102008599Y-120856747D01*
X102026777Y-120873223D01*
X102043253Y-120891401D01*
X102057868Y-120911107D01*
X102070480Y-120932150D01*
X102080970Y-120954329D01*
X102089235Y-120977428D01*
X102095196Y-121001227D01*
X102098796Y-121025495D01*
X102100000Y-121049999D01*
X102100000Y-121700001D01*
X102098796Y-121724505D01*
X102095196Y-121748773D01*
X102089235Y-121772572D01*
X102080970Y-121795671D01*
X102070480Y-121817850D01*
X102057868Y-121838893D01*
X102043253Y-121858599D01*
X102026777Y-121876777D01*
X102008599Y-121893253D01*
X101988893Y-121907868D01*
X101967850Y-121920480D01*
X101945671Y-121930970D01*
X101922572Y-121939235D01*
X101898773Y-121945196D01*
X101874505Y-121948796D01*
X101850001Y-121950000D01*
X100949999Y-121950000D01*
X100925495Y-121948796D01*
X100901227Y-121945196D01*
X100877428Y-121939235D01*
X100854329Y-121930970D01*
X100832150Y-121920480D01*
X100811107Y-121907868D01*
X100791401Y-121893253D01*
X100773223Y-121876777D01*
X100756747Y-121858599D01*
X100742132Y-121838893D01*
X100729520Y-121817850D01*
X100719030Y-121795671D01*
X100710765Y-121772572D01*
X100704804Y-121748773D01*
X100701204Y-121724505D01*
X100700000Y-121700001D01*
X100700000Y-121049999D01*
X100701204Y-121025495D01*
X100704804Y-121001227D01*
X100710765Y-120977428D01*
X100719030Y-120954329D01*
X100729520Y-120932150D01*
X100742132Y-120911107D01*
X100756747Y-120891401D01*
X100773223Y-120873223D01*
X100791401Y-120856747D01*
X100811107Y-120842132D01*
X100832150Y-120829520D01*
X100854329Y-120819030D01*
X100877428Y-120810765D01*
X100901227Y-120804804D01*
X100925495Y-120801204D01*
X100949999Y-120800000D01*
X101850001Y-120800000D01*
X101874505Y-120801204D01*
G37*
G04 #@! TD.AperFunction*
G04 #@! TA.AperFunction,SMDPad,CuDef*
G36*
X101874505Y-122851204D02*
G01*
X101898773Y-122854804D01*
X101922572Y-122860765D01*
X101945671Y-122869030D01*
X101967850Y-122879520D01*
X101988893Y-122892132D01*
X102008599Y-122906747D01*
X102026777Y-122923223D01*
X102043253Y-122941401D01*
X102057868Y-122961107D01*
X102070480Y-122982150D01*
X102080970Y-123004329D01*
X102089235Y-123027428D01*
X102095196Y-123051227D01*
X102098796Y-123075495D01*
X102100000Y-123099999D01*
X102100000Y-123750001D01*
X102098796Y-123774505D01*
X102095196Y-123798773D01*
X102089235Y-123822572D01*
X102080970Y-123845671D01*
X102070480Y-123867850D01*
X102057868Y-123888893D01*
X102043253Y-123908599D01*
X102026777Y-123926777D01*
X102008599Y-123943253D01*
X101988893Y-123957868D01*
X101967850Y-123970480D01*
X101945671Y-123980970D01*
X101922572Y-123989235D01*
X101898773Y-123995196D01*
X101874505Y-123998796D01*
X101850001Y-124000000D01*
X100949999Y-124000000D01*
X100925495Y-123998796D01*
X100901227Y-123995196D01*
X100877428Y-123989235D01*
X100854329Y-123980970D01*
X100832150Y-123970480D01*
X100811107Y-123957868D01*
X100791401Y-123943253D01*
X100773223Y-123926777D01*
X100756747Y-123908599D01*
X100742132Y-123888893D01*
X100729520Y-123867850D01*
X100719030Y-123845671D01*
X100710765Y-123822572D01*
X100704804Y-123798773D01*
X100701204Y-123774505D01*
X100700000Y-123750001D01*
X100700000Y-123099999D01*
X100701204Y-123075495D01*
X100704804Y-123051227D01*
X100710765Y-123027428D01*
X100719030Y-123004329D01*
X100729520Y-122982150D01*
X100742132Y-122961107D01*
X100756747Y-122941401D01*
X100773223Y-122923223D01*
X100791401Y-122906747D01*
X100811107Y-122892132D01*
X100832150Y-122879520D01*
X100854329Y-122869030D01*
X100877428Y-122860765D01*
X100901227Y-122854804D01*
X100925495Y-122851204D01*
X100949999Y-122850000D01*
X101850001Y-122850000D01*
X101874505Y-122851204D01*
G37*
G04 #@! TD.AperFunction*
G04 #@! TA.AperFunction,SMDPad,CuDef*
G36*
X99674505Y-122851204D02*
G01*
X99698773Y-122854804D01*
X99722572Y-122860765D01*
X99745671Y-122869030D01*
X99767850Y-122879520D01*
X99788893Y-122892132D01*
X99808599Y-122906747D01*
X99826777Y-122923223D01*
X99843253Y-122941401D01*
X99857868Y-122961107D01*
X99870480Y-122982150D01*
X99880970Y-123004329D01*
X99889235Y-123027428D01*
X99895196Y-123051227D01*
X99898796Y-123075495D01*
X99900000Y-123099999D01*
X99900000Y-123750001D01*
X99898796Y-123774505D01*
X99895196Y-123798773D01*
X99889235Y-123822572D01*
X99880970Y-123845671D01*
X99870480Y-123867850D01*
X99857868Y-123888893D01*
X99843253Y-123908599D01*
X99826777Y-123926777D01*
X99808599Y-123943253D01*
X99788893Y-123957868D01*
X99767850Y-123970480D01*
X99745671Y-123980970D01*
X99722572Y-123989235D01*
X99698773Y-123995196D01*
X99674505Y-123998796D01*
X99650001Y-124000000D01*
X98749999Y-124000000D01*
X98725495Y-123998796D01*
X98701227Y-123995196D01*
X98677428Y-123989235D01*
X98654329Y-123980970D01*
X98632150Y-123970480D01*
X98611107Y-123957868D01*
X98591401Y-123943253D01*
X98573223Y-123926777D01*
X98556747Y-123908599D01*
X98542132Y-123888893D01*
X98529520Y-123867850D01*
X98519030Y-123845671D01*
X98510765Y-123822572D01*
X98504804Y-123798773D01*
X98501204Y-123774505D01*
X98500000Y-123750001D01*
X98500000Y-123099999D01*
X98501204Y-123075495D01*
X98504804Y-123051227D01*
X98510765Y-123027428D01*
X98519030Y-123004329D01*
X98529520Y-122982150D01*
X98542132Y-122961107D01*
X98556747Y-122941401D01*
X98573223Y-122923223D01*
X98591401Y-122906747D01*
X98611107Y-122892132D01*
X98632150Y-122879520D01*
X98654329Y-122869030D01*
X98677428Y-122860765D01*
X98701227Y-122854804D01*
X98725495Y-122851204D01*
X98749999Y-122850000D01*
X99650001Y-122850000D01*
X99674505Y-122851204D01*
G37*
G04 #@! TD.AperFunction*
G04 #@! TA.AperFunction,SMDPad,CuDef*
G36*
X99674505Y-120801204D02*
G01*
X99698773Y-120804804D01*
X99722572Y-120810765D01*
X99745671Y-120819030D01*
X99767850Y-120829520D01*
X99788893Y-120842132D01*
X99808599Y-120856747D01*
X99826777Y-120873223D01*
X99843253Y-120891401D01*
X99857868Y-120911107D01*
X99870480Y-120932150D01*
X99880970Y-120954329D01*
X99889235Y-120977428D01*
X99895196Y-121001227D01*
X99898796Y-121025495D01*
X99900000Y-121049999D01*
X99900000Y-121700001D01*
X99898796Y-121724505D01*
X99895196Y-121748773D01*
X99889235Y-121772572D01*
X99880970Y-121795671D01*
X99870480Y-121817850D01*
X99857868Y-121838893D01*
X99843253Y-121858599D01*
X99826777Y-121876777D01*
X99808599Y-121893253D01*
X99788893Y-121907868D01*
X99767850Y-121920480D01*
X99745671Y-121930970D01*
X99722572Y-121939235D01*
X99698773Y-121945196D01*
X99674505Y-121948796D01*
X99650001Y-121950000D01*
X98749999Y-121950000D01*
X98725495Y-121948796D01*
X98701227Y-121945196D01*
X98677428Y-121939235D01*
X98654329Y-121930970D01*
X98632150Y-121920480D01*
X98611107Y-121907868D01*
X98591401Y-121893253D01*
X98573223Y-121876777D01*
X98556747Y-121858599D01*
X98542132Y-121838893D01*
X98529520Y-121817850D01*
X98519030Y-121795671D01*
X98510765Y-121772572D01*
X98504804Y-121748773D01*
X98501204Y-121724505D01*
X98500000Y-121700001D01*
X98500000Y-121049999D01*
X98501204Y-121025495D01*
X98504804Y-121001227D01*
X98510765Y-120977428D01*
X98519030Y-120954329D01*
X98529520Y-120932150D01*
X98542132Y-120911107D01*
X98556747Y-120891401D01*
X98573223Y-120873223D01*
X98591401Y-120856747D01*
X98611107Y-120842132D01*
X98632150Y-120829520D01*
X98654329Y-120819030D01*
X98677428Y-120810765D01*
X98701227Y-120804804D01*
X98725495Y-120801204D01*
X98749999Y-120800000D01*
X99650001Y-120800000D01*
X99674505Y-120801204D01*
G37*
G04 #@! TD.AperFunction*
D15*
X117100000Y-100050000D03*
X117100000Y-101950000D03*
X119100000Y-101000000D03*
X114900000Y-101950000D03*
X114900000Y-100050000D03*
X112900000Y-101000000D03*
X87633333Y-101000000D03*
X85633333Y-101950000D03*
X85633333Y-100050000D03*
G04 #@! TA.AperFunction,SMDPad,CuDef*
D14*
G36*
X119474505Y-97101204D02*
G01*
X119498773Y-97104804D01*
X119522572Y-97110765D01*
X119545671Y-97119030D01*
X119567850Y-97129520D01*
X119588893Y-97142132D01*
X119608599Y-97156747D01*
X119626777Y-97173223D01*
X119643253Y-97191401D01*
X119657868Y-97211107D01*
X119670480Y-97232150D01*
X119680970Y-97254329D01*
X119689235Y-97277428D01*
X119695196Y-97301227D01*
X119698796Y-97325495D01*
X119700000Y-97349999D01*
X119700000Y-98250001D01*
X119698796Y-98274505D01*
X119695196Y-98298773D01*
X119689235Y-98322572D01*
X119680970Y-98345671D01*
X119670480Y-98367850D01*
X119657868Y-98388893D01*
X119643253Y-98408599D01*
X119626777Y-98426777D01*
X119608599Y-98443253D01*
X119588893Y-98457868D01*
X119567850Y-98470480D01*
X119545671Y-98480970D01*
X119522572Y-98489235D01*
X119498773Y-98495196D01*
X119474505Y-98498796D01*
X119450001Y-98500000D01*
X118799999Y-98500000D01*
X118775495Y-98498796D01*
X118751227Y-98495196D01*
X118727428Y-98489235D01*
X118704329Y-98480970D01*
X118682150Y-98470480D01*
X118661107Y-98457868D01*
X118641401Y-98443253D01*
X118623223Y-98426777D01*
X118606747Y-98408599D01*
X118592132Y-98388893D01*
X118579520Y-98367850D01*
X118569030Y-98345671D01*
X118560765Y-98322572D01*
X118554804Y-98298773D01*
X118551204Y-98274505D01*
X118550000Y-98250001D01*
X118550000Y-97349999D01*
X118551204Y-97325495D01*
X118554804Y-97301227D01*
X118560765Y-97277428D01*
X118569030Y-97254329D01*
X118579520Y-97232150D01*
X118592132Y-97211107D01*
X118606747Y-97191401D01*
X118623223Y-97173223D01*
X118641401Y-97156747D01*
X118661107Y-97142132D01*
X118682150Y-97129520D01*
X118704329Y-97119030D01*
X118727428Y-97110765D01*
X118751227Y-97104804D01*
X118775495Y-97101204D01*
X118799999Y-97100000D01*
X119450001Y-97100000D01*
X119474505Y-97101204D01*
G37*
G04 #@! TD.AperFunction*
G04 #@! TA.AperFunction,SMDPad,CuDef*
G36*
X117424505Y-97101204D02*
G01*
X117448773Y-97104804D01*
X117472572Y-97110765D01*
X117495671Y-97119030D01*
X117517850Y-97129520D01*
X117538893Y-97142132D01*
X117558599Y-97156747D01*
X117576777Y-97173223D01*
X117593253Y-97191401D01*
X117607868Y-97211107D01*
X117620480Y-97232150D01*
X117630970Y-97254329D01*
X117639235Y-97277428D01*
X117645196Y-97301227D01*
X117648796Y-97325495D01*
X117650000Y-97349999D01*
X117650000Y-98250001D01*
X117648796Y-98274505D01*
X117645196Y-98298773D01*
X117639235Y-98322572D01*
X117630970Y-98345671D01*
X117620480Y-98367850D01*
X117607868Y-98388893D01*
X117593253Y-98408599D01*
X117576777Y-98426777D01*
X117558599Y-98443253D01*
X117538893Y-98457868D01*
X117517850Y-98470480D01*
X117495671Y-98480970D01*
X117472572Y-98489235D01*
X117448773Y-98495196D01*
X117424505Y-98498796D01*
X117400001Y-98500000D01*
X116749999Y-98500000D01*
X116725495Y-98498796D01*
X116701227Y-98495196D01*
X116677428Y-98489235D01*
X116654329Y-98480970D01*
X116632150Y-98470480D01*
X116611107Y-98457868D01*
X116591401Y-98443253D01*
X116573223Y-98426777D01*
X116556747Y-98408599D01*
X116542132Y-98388893D01*
X116529520Y-98367850D01*
X116519030Y-98345671D01*
X116510765Y-98322572D01*
X116504804Y-98298773D01*
X116501204Y-98274505D01*
X116500000Y-98250001D01*
X116500000Y-97349999D01*
X116501204Y-97325495D01*
X116504804Y-97301227D01*
X116510765Y-97277428D01*
X116519030Y-97254329D01*
X116529520Y-97232150D01*
X116542132Y-97211107D01*
X116556747Y-97191401D01*
X116573223Y-97173223D01*
X116591401Y-97156747D01*
X116611107Y-97142132D01*
X116632150Y-97129520D01*
X116654329Y-97119030D01*
X116677428Y-97110765D01*
X116701227Y-97104804D01*
X116725495Y-97101204D01*
X116749999Y-97100000D01*
X117400001Y-97100000D01*
X117424505Y-97101204D01*
G37*
G04 #@! TD.AperFunction*
G04 #@! TA.AperFunction,SMDPad,CuDef*
G36*
X119449505Y-103551204D02*
G01*
X119473773Y-103554804D01*
X119497572Y-103560765D01*
X119520671Y-103569030D01*
X119542850Y-103579520D01*
X119563893Y-103592132D01*
X119583599Y-103606747D01*
X119601777Y-103623223D01*
X119618253Y-103641401D01*
X119632868Y-103661107D01*
X119645480Y-103682150D01*
X119655970Y-103704329D01*
X119664235Y-103727428D01*
X119670196Y-103751227D01*
X119673796Y-103775495D01*
X119675000Y-103799999D01*
X119675000Y-104700001D01*
X119673796Y-104724505D01*
X119670196Y-104748773D01*
X119664235Y-104772572D01*
X119655970Y-104795671D01*
X119645480Y-104817850D01*
X119632868Y-104838893D01*
X119618253Y-104858599D01*
X119601777Y-104876777D01*
X119583599Y-104893253D01*
X119563893Y-104907868D01*
X119542850Y-104920480D01*
X119520671Y-104930970D01*
X119497572Y-104939235D01*
X119473773Y-104945196D01*
X119449505Y-104948796D01*
X119425001Y-104950000D01*
X118774999Y-104950000D01*
X118750495Y-104948796D01*
X118726227Y-104945196D01*
X118702428Y-104939235D01*
X118679329Y-104930970D01*
X118657150Y-104920480D01*
X118636107Y-104907868D01*
X118616401Y-104893253D01*
X118598223Y-104876777D01*
X118581747Y-104858599D01*
X118567132Y-104838893D01*
X118554520Y-104817850D01*
X118544030Y-104795671D01*
X118535765Y-104772572D01*
X118529804Y-104748773D01*
X118526204Y-104724505D01*
X118525000Y-104700001D01*
X118525000Y-103799999D01*
X118526204Y-103775495D01*
X118529804Y-103751227D01*
X118535765Y-103727428D01*
X118544030Y-103704329D01*
X118554520Y-103682150D01*
X118567132Y-103661107D01*
X118581747Y-103641401D01*
X118598223Y-103623223D01*
X118616401Y-103606747D01*
X118636107Y-103592132D01*
X118657150Y-103579520D01*
X118679329Y-103569030D01*
X118702428Y-103560765D01*
X118726227Y-103554804D01*
X118750495Y-103551204D01*
X118774999Y-103550000D01*
X119425001Y-103550000D01*
X119449505Y-103551204D01*
G37*
G04 #@! TD.AperFunction*
G04 #@! TA.AperFunction,SMDPad,CuDef*
G36*
X117399505Y-103551204D02*
G01*
X117423773Y-103554804D01*
X117447572Y-103560765D01*
X117470671Y-103569030D01*
X117492850Y-103579520D01*
X117513893Y-103592132D01*
X117533599Y-103606747D01*
X117551777Y-103623223D01*
X117568253Y-103641401D01*
X117582868Y-103661107D01*
X117595480Y-103682150D01*
X117605970Y-103704329D01*
X117614235Y-103727428D01*
X117620196Y-103751227D01*
X117623796Y-103775495D01*
X117625000Y-103799999D01*
X117625000Y-104700001D01*
X117623796Y-104724505D01*
X117620196Y-104748773D01*
X117614235Y-104772572D01*
X117605970Y-104795671D01*
X117595480Y-104817850D01*
X117582868Y-104838893D01*
X117568253Y-104858599D01*
X117551777Y-104876777D01*
X117533599Y-104893253D01*
X117513893Y-104907868D01*
X117492850Y-104920480D01*
X117470671Y-104930970D01*
X117447572Y-104939235D01*
X117423773Y-104945196D01*
X117399505Y-104948796D01*
X117375001Y-104950000D01*
X116724999Y-104950000D01*
X116700495Y-104948796D01*
X116676227Y-104945196D01*
X116652428Y-104939235D01*
X116629329Y-104930970D01*
X116607150Y-104920480D01*
X116586107Y-104907868D01*
X116566401Y-104893253D01*
X116548223Y-104876777D01*
X116531747Y-104858599D01*
X116517132Y-104838893D01*
X116504520Y-104817850D01*
X116494030Y-104795671D01*
X116485765Y-104772572D01*
X116479804Y-104748773D01*
X116476204Y-104724505D01*
X116475000Y-104700001D01*
X116475000Y-103799999D01*
X116476204Y-103775495D01*
X116479804Y-103751227D01*
X116485765Y-103727428D01*
X116494030Y-103704329D01*
X116504520Y-103682150D01*
X116517132Y-103661107D01*
X116531747Y-103641401D01*
X116548223Y-103623223D01*
X116566401Y-103606747D01*
X116586107Y-103592132D01*
X116607150Y-103579520D01*
X116629329Y-103569030D01*
X116652428Y-103560765D01*
X116676227Y-103554804D01*
X116700495Y-103551204D01*
X116724999Y-103550000D01*
X117375001Y-103550000D01*
X117399505Y-103551204D01*
G37*
G04 #@! TD.AperFunction*
G04 #@! TA.AperFunction,SMDPad,CuDef*
G36*
X113191171Y-97101204D02*
G01*
X113215439Y-97104804D01*
X113239238Y-97110765D01*
X113262337Y-97119030D01*
X113284516Y-97129520D01*
X113305559Y-97142132D01*
X113325265Y-97156747D01*
X113343443Y-97173223D01*
X113359919Y-97191401D01*
X113374534Y-97211107D01*
X113387146Y-97232150D01*
X113397636Y-97254329D01*
X113405901Y-97277428D01*
X113411862Y-97301227D01*
X113415462Y-97325495D01*
X113416666Y-97349999D01*
X113416666Y-98250001D01*
X113415462Y-98274505D01*
X113411862Y-98298773D01*
X113405901Y-98322572D01*
X113397636Y-98345671D01*
X113387146Y-98367850D01*
X113374534Y-98388893D01*
X113359919Y-98408599D01*
X113343443Y-98426777D01*
X113325265Y-98443253D01*
X113305559Y-98457868D01*
X113284516Y-98470480D01*
X113262337Y-98480970D01*
X113239238Y-98489235D01*
X113215439Y-98495196D01*
X113191171Y-98498796D01*
X113166667Y-98500000D01*
X112516665Y-98500000D01*
X112492161Y-98498796D01*
X112467893Y-98495196D01*
X112444094Y-98489235D01*
X112420995Y-98480970D01*
X112398816Y-98470480D01*
X112377773Y-98457868D01*
X112358067Y-98443253D01*
X112339889Y-98426777D01*
X112323413Y-98408599D01*
X112308798Y-98388893D01*
X112296186Y-98367850D01*
X112285696Y-98345671D01*
X112277431Y-98322572D01*
X112271470Y-98298773D01*
X112267870Y-98274505D01*
X112266666Y-98250001D01*
X112266666Y-97349999D01*
X112267870Y-97325495D01*
X112271470Y-97301227D01*
X112277431Y-97277428D01*
X112285696Y-97254329D01*
X112296186Y-97232150D01*
X112308798Y-97211107D01*
X112323413Y-97191401D01*
X112339889Y-97173223D01*
X112358067Y-97156747D01*
X112377773Y-97142132D01*
X112398816Y-97129520D01*
X112420995Y-97119030D01*
X112444094Y-97110765D01*
X112467893Y-97104804D01*
X112492161Y-97101204D01*
X112516665Y-97100000D01*
X113166667Y-97100000D01*
X113191171Y-97101204D01*
G37*
G04 #@! TD.AperFunction*
G04 #@! TA.AperFunction,SMDPad,CuDef*
G36*
X115241171Y-97101204D02*
G01*
X115265439Y-97104804D01*
X115289238Y-97110765D01*
X115312337Y-97119030D01*
X115334516Y-97129520D01*
X115355559Y-97142132D01*
X115375265Y-97156747D01*
X115393443Y-97173223D01*
X115409919Y-97191401D01*
X115424534Y-97211107D01*
X115437146Y-97232150D01*
X115447636Y-97254329D01*
X115455901Y-97277428D01*
X115461862Y-97301227D01*
X115465462Y-97325495D01*
X115466666Y-97349999D01*
X115466666Y-98250001D01*
X115465462Y-98274505D01*
X115461862Y-98298773D01*
X115455901Y-98322572D01*
X115447636Y-98345671D01*
X115437146Y-98367850D01*
X115424534Y-98388893D01*
X115409919Y-98408599D01*
X115393443Y-98426777D01*
X115375265Y-98443253D01*
X115355559Y-98457868D01*
X115334516Y-98470480D01*
X115312337Y-98480970D01*
X115289238Y-98489235D01*
X115265439Y-98495196D01*
X115241171Y-98498796D01*
X115216667Y-98500000D01*
X114566665Y-98500000D01*
X114542161Y-98498796D01*
X114517893Y-98495196D01*
X114494094Y-98489235D01*
X114470995Y-98480970D01*
X114448816Y-98470480D01*
X114427773Y-98457868D01*
X114408067Y-98443253D01*
X114389889Y-98426777D01*
X114373413Y-98408599D01*
X114358798Y-98388893D01*
X114346186Y-98367850D01*
X114335696Y-98345671D01*
X114327431Y-98322572D01*
X114321470Y-98298773D01*
X114317870Y-98274505D01*
X114316666Y-98250001D01*
X114316666Y-97349999D01*
X114317870Y-97325495D01*
X114321470Y-97301227D01*
X114327431Y-97277428D01*
X114335696Y-97254329D01*
X114346186Y-97232150D01*
X114358798Y-97211107D01*
X114373413Y-97191401D01*
X114389889Y-97173223D01*
X114408067Y-97156747D01*
X114427773Y-97142132D01*
X114448816Y-97129520D01*
X114470995Y-97119030D01*
X114494094Y-97110765D01*
X114517893Y-97104804D01*
X114542161Y-97101204D01*
X114566665Y-97100000D01*
X115216667Y-97100000D01*
X115241171Y-97101204D01*
G37*
G04 #@! TD.AperFunction*
G04 #@! TA.AperFunction,SMDPad,CuDef*
G36*
X115374505Y-103551204D02*
G01*
X115398773Y-103554804D01*
X115422572Y-103560765D01*
X115445671Y-103569030D01*
X115467850Y-103579520D01*
X115488893Y-103592132D01*
X115508599Y-103606747D01*
X115526777Y-103623223D01*
X115543253Y-103641401D01*
X115557868Y-103661107D01*
X115570480Y-103682150D01*
X115580970Y-103704329D01*
X115589235Y-103727428D01*
X115595196Y-103751227D01*
X115598796Y-103775495D01*
X115600000Y-103799999D01*
X115600000Y-104700001D01*
X115598796Y-104724505D01*
X115595196Y-104748773D01*
X115589235Y-104772572D01*
X115580970Y-104795671D01*
X115570480Y-104817850D01*
X115557868Y-104838893D01*
X115543253Y-104858599D01*
X115526777Y-104876777D01*
X115508599Y-104893253D01*
X115488893Y-104907868D01*
X115467850Y-104920480D01*
X115445671Y-104930970D01*
X115422572Y-104939235D01*
X115398773Y-104945196D01*
X115374505Y-104948796D01*
X115350001Y-104950000D01*
X114699999Y-104950000D01*
X114675495Y-104948796D01*
X114651227Y-104945196D01*
X114627428Y-104939235D01*
X114604329Y-104930970D01*
X114582150Y-104920480D01*
X114561107Y-104907868D01*
X114541401Y-104893253D01*
X114523223Y-104876777D01*
X114506747Y-104858599D01*
X114492132Y-104838893D01*
X114479520Y-104817850D01*
X114469030Y-104795671D01*
X114460765Y-104772572D01*
X114454804Y-104748773D01*
X114451204Y-104724505D01*
X114450000Y-104700001D01*
X114450000Y-103799999D01*
X114451204Y-103775495D01*
X114454804Y-103751227D01*
X114460765Y-103727428D01*
X114469030Y-103704329D01*
X114479520Y-103682150D01*
X114492132Y-103661107D01*
X114506747Y-103641401D01*
X114523223Y-103623223D01*
X114541401Y-103606747D01*
X114561107Y-103592132D01*
X114582150Y-103579520D01*
X114604329Y-103569030D01*
X114627428Y-103560765D01*
X114651227Y-103554804D01*
X114675495Y-103551204D01*
X114699999Y-103550000D01*
X115350001Y-103550000D01*
X115374505Y-103551204D01*
G37*
G04 #@! TD.AperFunction*
G04 #@! TA.AperFunction,SMDPad,CuDef*
G36*
X113324505Y-103551204D02*
G01*
X113348773Y-103554804D01*
X113372572Y-103560765D01*
X113395671Y-103569030D01*
X113417850Y-103579520D01*
X113438893Y-103592132D01*
X113458599Y-103606747D01*
X113476777Y-103623223D01*
X113493253Y-103641401D01*
X113507868Y-103661107D01*
X113520480Y-103682150D01*
X113530970Y-103704329D01*
X113539235Y-103727428D01*
X113545196Y-103751227D01*
X113548796Y-103775495D01*
X113550000Y-103799999D01*
X113550000Y-104700001D01*
X113548796Y-104724505D01*
X113545196Y-104748773D01*
X113539235Y-104772572D01*
X113530970Y-104795671D01*
X113520480Y-104817850D01*
X113507868Y-104838893D01*
X113493253Y-104858599D01*
X113476777Y-104876777D01*
X113458599Y-104893253D01*
X113438893Y-104907868D01*
X113417850Y-104920480D01*
X113395671Y-104930970D01*
X113372572Y-104939235D01*
X113348773Y-104945196D01*
X113324505Y-104948796D01*
X113300001Y-104950000D01*
X112649999Y-104950000D01*
X112625495Y-104948796D01*
X112601227Y-104945196D01*
X112577428Y-104939235D01*
X112554329Y-104930970D01*
X112532150Y-104920480D01*
X112511107Y-104907868D01*
X112491401Y-104893253D01*
X112473223Y-104876777D01*
X112456747Y-104858599D01*
X112442132Y-104838893D01*
X112429520Y-104817850D01*
X112419030Y-104795671D01*
X112410765Y-104772572D01*
X112404804Y-104748773D01*
X112401204Y-104724505D01*
X112400000Y-104700001D01*
X112400000Y-103799999D01*
X112401204Y-103775495D01*
X112404804Y-103751227D01*
X112410765Y-103727428D01*
X112419030Y-103704329D01*
X112429520Y-103682150D01*
X112442132Y-103661107D01*
X112456747Y-103641401D01*
X112473223Y-103623223D01*
X112491401Y-103606747D01*
X112511107Y-103592132D01*
X112532150Y-103579520D01*
X112554329Y-103569030D01*
X112577428Y-103560765D01*
X112601227Y-103554804D01*
X112625495Y-103551204D01*
X112649999Y-103550000D01*
X113300001Y-103550000D01*
X113324505Y-103551204D01*
G37*
G04 #@! TD.AperFunction*
G04 #@! TA.AperFunction,SMDPad,CuDef*
G36*
X85957838Y-97101204D02*
G01*
X85982106Y-97104804D01*
X86005905Y-97110765D01*
X86029004Y-97119030D01*
X86051183Y-97129520D01*
X86072226Y-97142132D01*
X86091932Y-97156747D01*
X86110110Y-97173223D01*
X86126586Y-97191401D01*
X86141201Y-97211107D01*
X86153813Y-97232150D01*
X86164303Y-97254329D01*
X86172568Y-97277428D01*
X86178529Y-97301227D01*
X86182129Y-97325495D01*
X86183333Y-97349999D01*
X86183333Y-98250001D01*
X86182129Y-98274505D01*
X86178529Y-98298773D01*
X86172568Y-98322572D01*
X86164303Y-98345671D01*
X86153813Y-98367850D01*
X86141201Y-98388893D01*
X86126586Y-98408599D01*
X86110110Y-98426777D01*
X86091932Y-98443253D01*
X86072226Y-98457868D01*
X86051183Y-98470480D01*
X86029004Y-98480970D01*
X86005905Y-98489235D01*
X85982106Y-98495196D01*
X85957838Y-98498796D01*
X85933334Y-98500000D01*
X85283332Y-98500000D01*
X85258828Y-98498796D01*
X85234560Y-98495196D01*
X85210761Y-98489235D01*
X85187662Y-98480970D01*
X85165483Y-98470480D01*
X85144440Y-98457868D01*
X85124734Y-98443253D01*
X85106556Y-98426777D01*
X85090080Y-98408599D01*
X85075465Y-98388893D01*
X85062853Y-98367850D01*
X85052363Y-98345671D01*
X85044098Y-98322572D01*
X85038137Y-98298773D01*
X85034537Y-98274505D01*
X85033333Y-98250001D01*
X85033333Y-97349999D01*
X85034537Y-97325495D01*
X85038137Y-97301227D01*
X85044098Y-97277428D01*
X85052363Y-97254329D01*
X85062853Y-97232150D01*
X85075465Y-97211107D01*
X85090080Y-97191401D01*
X85106556Y-97173223D01*
X85124734Y-97156747D01*
X85144440Y-97142132D01*
X85165483Y-97129520D01*
X85187662Y-97119030D01*
X85210761Y-97110765D01*
X85234560Y-97104804D01*
X85258828Y-97101204D01*
X85283332Y-97100000D01*
X85933334Y-97100000D01*
X85957838Y-97101204D01*
G37*
G04 #@! TD.AperFunction*
G04 #@! TA.AperFunction,SMDPad,CuDef*
G36*
X88007838Y-97101204D02*
G01*
X88032106Y-97104804D01*
X88055905Y-97110765D01*
X88079004Y-97119030D01*
X88101183Y-97129520D01*
X88122226Y-97142132D01*
X88141932Y-97156747D01*
X88160110Y-97173223D01*
X88176586Y-97191401D01*
X88191201Y-97211107D01*
X88203813Y-97232150D01*
X88214303Y-97254329D01*
X88222568Y-97277428D01*
X88228529Y-97301227D01*
X88232129Y-97325495D01*
X88233333Y-97349999D01*
X88233333Y-98250001D01*
X88232129Y-98274505D01*
X88228529Y-98298773D01*
X88222568Y-98322572D01*
X88214303Y-98345671D01*
X88203813Y-98367850D01*
X88191201Y-98388893D01*
X88176586Y-98408599D01*
X88160110Y-98426777D01*
X88141932Y-98443253D01*
X88122226Y-98457868D01*
X88101183Y-98470480D01*
X88079004Y-98480970D01*
X88055905Y-98489235D01*
X88032106Y-98495196D01*
X88007838Y-98498796D01*
X87983334Y-98500000D01*
X87333332Y-98500000D01*
X87308828Y-98498796D01*
X87284560Y-98495196D01*
X87260761Y-98489235D01*
X87237662Y-98480970D01*
X87215483Y-98470480D01*
X87194440Y-98457868D01*
X87174734Y-98443253D01*
X87156556Y-98426777D01*
X87140080Y-98408599D01*
X87125465Y-98388893D01*
X87112853Y-98367850D01*
X87102363Y-98345671D01*
X87094098Y-98322572D01*
X87088137Y-98298773D01*
X87084537Y-98274505D01*
X87083333Y-98250001D01*
X87083333Y-97349999D01*
X87084537Y-97325495D01*
X87088137Y-97301227D01*
X87094098Y-97277428D01*
X87102363Y-97254329D01*
X87112853Y-97232150D01*
X87125465Y-97211107D01*
X87140080Y-97191401D01*
X87156556Y-97173223D01*
X87174734Y-97156747D01*
X87194440Y-97142132D01*
X87215483Y-97129520D01*
X87237662Y-97119030D01*
X87260761Y-97110765D01*
X87284560Y-97104804D01*
X87308828Y-97101204D01*
X87333332Y-97100000D01*
X87983334Y-97100000D01*
X88007838Y-97101204D01*
G37*
G04 #@! TD.AperFunction*
G04 #@! TA.AperFunction,SMDPad,CuDef*
G36*
X85924505Y-103551204D02*
G01*
X85948773Y-103554804D01*
X85972572Y-103560765D01*
X85995671Y-103569030D01*
X86017850Y-103579520D01*
X86038893Y-103592132D01*
X86058599Y-103606747D01*
X86076777Y-103623223D01*
X86093253Y-103641401D01*
X86107868Y-103661107D01*
X86120480Y-103682150D01*
X86130970Y-103704329D01*
X86139235Y-103727428D01*
X86145196Y-103751227D01*
X86148796Y-103775495D01*
X86150000Y-103799999D01*
X86150000Y-104700001D01*
X86148796Y-104724505D01*
X86145196Y-104748773D01*
X86139235Y-104772572D01*
X86130970Y-104795671D01*
X86120480Y-104817850D01*
X86107868Y-104838893D01*
X86093253Y-104858599D01*
X86076777Y-104876777D01*
X86058599Y-104893253D01*
X86038893Y-104907868D01*
X86017850Y-104920480D01*
X85995671Y-104930970D01*
X85972572Y-104939235D01*
X85948773Y-104945196D01*
X85924505Y-104948796D01*
X85900001Y-104950000D01*
X85249999Y-104950000D01*
X85225495Y-104948796D01*
X85201227Y-104945196D01*
X85177428Y-104939235D01*
X85154329Y-104930970D01*
X85132150Y-104920480D01*
X85111107Y-104907868D01*
X85091401Y-104893253D01*
X85073223Y-104876777D01*
X85056747Y-104858599D01*
X85042132Y-104838893D01*
X85029520Y-104817850D01*
X85019030Y-104795671D01*
X85010765Y-104772572D01*
X85004804Y-104748773D01*
X85001204Y-104724505D01*
X85000000Y-104700001D01*
X85000000Y-103799999D01*
X85001204Y-103775495D01*
X85004804Y-103751227D01*
X85010765Y-103727428D01*
X85019030Y-103704329D01*
X85029520Y-103682150D01*
X85042132Y-103661107D01*
X85056747Y-103641401D01*
X85073223Y-103623223D01*
X85091401Y-103606747D01*
X85111107Y-103592132D01*
X85132150Y-103579520D01*
X85154329Y-103569030D01*
X85177428Y-103560765D01*
X85201227Y-103554804D01*
X85225495Y-103551204D01*
X85249999Y-103550000D01*
X85900001Y-103550000D01*
X85924505Y-103551204D01*
G37*
G04 #@! TD.AperFunction*
G04 #@! TA.AperFunction,SMDPad,CuDef*
G36*
X87974505Y-103551204D02*
G01*
X87998773Y-103554804D01*
X88022572Y-103560765D01*
X88045671Y-103569030D01*
X88067850Y-103579520D01*
X88088893Y-103592132D01*
X88108599Y-103606747D01*
X88126777Y-103623223D01*
X88143253Y-103641401D01*
X88157868Y-103661107D01*
X88170480Y-103682150D01*
X88180970Y-103704329D01*
X88189235Y-103727428D01*
X88195196Y-103751227D01*
X88198796Y-103775495D01*
X88200000Y-103799999D01*
X88200000Y-104700001D01*
X88198796Y-104724505D01*
X88195196Y-104748773D01*
X88189235Y-104772572D01*
X88180970Y-104795671D01*
X88170480Y-104817850D01*
X88157868Y-104838893D01*
X88143253Y-104858599D01*
X88126777Y-104876777D01*
X88108599Y-104893253D01*
X88088893Y-104907868D01*
X88067850Y-104920480D01*
X88045671Y-104930970D01*
X88022572Y-104939235D01*
X87998773Y-104945196D01*
X87974505Y-104948796D01*
X87950001Y-104950000D01*
X87299999Y-104950000D01*
X87275495Y-104948796D01*
X87251227Y-104945196D01*
X87227428Y-104939235D01*
X87204329Y-104930970D01*
X87182150Y-104920480D01*
X87161107Y-104907868D01*
X87141401Y-104893253D01*
X87123223Y-104876777D01*
X87106747Y-104858599D01*
X87092132Y-104838893D01*
X87079520Y-104817850D01*
X87069030Y-104795671D01*
X87060765Y-104772572D01*
X87054804Y-104748773D01*
X87051204Y-104724505D01*
X87050000Y-104700001D01*
X87050000Y-103799999D01*
X87051204Y-103775495D01*
X87054804Y-103751227D01*
X87060765Y-103727428D01*
X87069030Y-103704329D01*
X87079520Y-103682150D01*
X87092132Y-103661107D01*
X87106747Y-103641401D01*
X87123223Y-103623223D01*
X87141401Y-103606747D01*
X87161107Y-103592132D01*
X87182150Y-103579520D01*
X87204329Y-103569030D01*
X87227428Y-103560765D01*
X87251227Y-103554804D01*
X87275495Y-103551204D01*
X87299999Y-103550000D01*
X87950001Y-103550000D01*
X87974505Y-103551204D01*
G37*
G04 #@! TD.AperFunction*
G04 #@! TA.AperFunction,SMDPad,CuDef*
G36*
X81724505Y-97101204D02*
G01*
X81748773Y-97104804D01*
X81772572Y-97110765D01*
X81795671Y-97119030D01*
X81817850Y-97129520D01*
X81838893Y-97142132D01*
X81858599Y-97156747D01*
X81876777Y-97173223D01*
X81893253Y-97191401D01*
X81907868Y-97211107D01*
X81920480Y-97232150D01*
X81930970Y-97254329D01*
X81939235Y-97277428D01*
X81945196Y-97301227D01*
X81948796Y-97325495D01*
X81950000Y-97349999D01*
X81950000Y-98250001D01*
X81948796Y-98274505D01*
X81945196Y-98298773D01*
X81939235Y-98322572D01*
X81930970Y-98345671D01*
X81920480Y-98367850D01*
X81907868Y-98388893D01*
X81893253Y-98408599D01*
X81876777Y-98426777D01*
X81858599Y-98443253D01*
X81838893Y-98457868D01*
X81817850Y-98470480D01*
X81795671Y-98480970D01*
X81772572Y-98489235D01*
X81748773Y-98495196D01*
X81724505Y-98498796D01*
X81700001Y-98500000D01*
X81049999Y-98500000D01*
X81025495Y-98498796D01*
X81001227Y-98495196D01*
X80977428Y-98489235D01*
X80954329Y-98480970D01*
X80932150Y-98470480D01*
X80911107Y-98457868D01*
X80891401Y-98443253D01*
X80873223Y-98426777D01*
X80856747Y-98408599D01*
X80842132Y-98388893D01*
X80829520Y-98367850D01*
X80819030Y-98345671D01*
X80810765Y-98322572D01*
X80804804Y-98298773D01*
X80801204Y-98274505D01*
X80800000Y-98250001D01*
X80800000Y-97349999D01*
X80801204Y-97325495D01*
X80804804Y-97301227D01*
X80810765Y-97277428D01*
X80819030Y-97254329D01*
X80829520Y-97232150D01*
X80842132Y-97211107D01*
X80856747Y-97191401D01*
X80873223Y-97173223D01*
X80891401Y-97156747D01*
X80911107Y-97142132D01*
X80932150Y-97129520D01*
X80954329Y-97119030D01*
X80977428Y-97110765D01*
X81001227Y-97104804D01*
X81025495Y-97101204D01*
X81049999Y-97100000D01*
X81700001Y-97100000D01*
X81724505Y-97101204D01*
G37*
G04 #@! TD.AperFunction*
G04 #@! TA.AperFunction,SMDPad,CuDef*
G36*
X83774505Y-97101204D02*
G01*
X83798773Y-97104804D01*
X83822572Y-97110765D01*
X83845671Y-97119030D01*
X83867850Y-97129520D01*
X83888893Y-97142132D01*
X83908599Y-97156747D01*
X83926777Y-97173223D01*
X83943253Y-97191401D01*
X83957868Y-97211107D01*
X83970480Y-97232150D01*
X83980970Y-97254329D01*
X83989235Y-97277428D01*
X83995196Y-97301227D01*
X83998796Y-97325495D01*
X84000000Y-97349999D01*
X84000000Y-98250001D01*
X83998796Y-98274505D01*
X83995196Y-98298773D01*
X83989235Y-98322572D01*
X83980970Y-98345671D01*
X83970480Y-98367850D01*
X83957868Y-98388893D01*
X83943253Y-98408599D01*
X83926777Y-98426777D01*
X83908599Y-98443253D01*
X83888893Y-98457868D01*
X83867850Y-98470480D01*
X83845671Y-98480970D01*
X83822572Y-98489235D01*
X83798773Y-98495196D01*
X83774505Y-98498796D01*
X83750001Y-98500000D01*
X83099999Y-98500000D01*
X83075495Y-98498796D01*
X83051227Y-98495196D01*
X83027428Y-98489235D01*
X83004329Y-98480970D01*
X82982150Y-98470480D01*
X82961107Y-98457868D01*
X82941401Y-98443253D01*
X82923223Y-98426777D01*
X82906747Y-98408599D01*
X82892132Y-98388893D01*
X82879520Y-98367850D01*
X82869030Y-98345671D01*
X82860765Y-98322572D01*
X82854804Y-98298773D01*
X82851204Y-98274505D01*
X82850000Y-98250001D01*
X82850000Y-97349999D01*
X82851204Y-97325495D01*
X82854804Y-97301227D01*
X82860765Y-97277428D01*
X82869030Y-97254329D01*
X82879520Y-97232150D01*
X82892132Y-97211107D01*
X82906747Y-97191401D01*
X82923223Y-97173223D01*
X82941401Y-97156747D01*
X82961107Y-97142132D01*
X82982150Y-97129520D01*
X83004329Y-97119030D01*
X83027428Y-97110765D01*
X83051227Y-97104804D01*
X83075495Y-97101204D01*
X83099999Y-97100000D01*
X83750001Y-97100000D01*
X83774505Y-97101204D01*
G37*
G04 #@! TD.AperFunction*
G04 #@! TA.AperFunction,SMDPad,CuDef*
G36*
X81724505Y-103551204D02*
G01*
X81748773Y-103554804D01*
X81772572Y-103560765D01*
X81795671Y-103569030D01*
X81817850Y-103579520D01*
X81838893Y-103592132D01*
X81858599Y-103606747D01*
X81876777Y-103623223D01*
X81893253Y-103641401D01*
X81907868Y-103661107D01*
X81920480Y-103682150D01*
X81930970Y-103704329D01*
X81939235Y-103727428D01*
X81945196Y-103751227D01*
X81948796Y-103775495D01*
X81950000Y-103799999D01*
X81950000Y-104700001D01*
X81948796Y-104724505D01*
X81945196Y-104748773D01*
X81939235Y-104772572D01*
X81930970Y-104795671D01*
X81920480Y-104817850D01*
X81907868Y-104838893D01*
X81893253Y-104858599D01*
X81876777Y-104876777D01*
X81858599Y-104893253D01*
X81838893Y-104907868D01*
X81817850Y-104920480D01*
X81795671Y-104930970D01*
X81772572Y-104939235D01*
X81748773Y-104945196D01*
X81724505Y-104948796D01*
X81700001Y-104950000D01*
X81049999Y-104950000D01*
X81025495Y-104948796D01*
X81001227Y-104945196D01*
X80977428Y-104939235D01*
X80954329Y-104930970D01*
X80932150Y-104920480D01*
X80911107Y-104907868D01*
X80891401Y-104893253D01*
X80873223Y-104876777D01*
X80856747Y-104858599D01*
X80842132Y-104838893D01*
X80829520Y-104817850D01*
X80819030Y-104795671D01*
X80810765Y-104772572D01*
X80804804Y-104748773D01*
X80801204Y-104724505D01*
X80800000Y-104700001D01*
X80800000Y-103799999D01*
X80801204Y-103775495D01*
X80804804Y-103751227D01*
X80810765Y-103727428D01*
X80819030Y-103704329D01*
X80829520Y-103682150D01*
X80842132Y-103661107D01*
X80856747Y-103641401D01*
X80873223Y-103623223D01*
X80891401Y-103606747D01*
X80911107Y-103592132D01*
X80932150Y-103579520D01*
X80954329Y-103569030D01*
X80977428Y-103560765D01*
X81001227Y-103554804D01*
X81025495Y-103551204D01*
X81049999Y-103550000D01*
X81700001Y-103550000D01*
X81724505Y-103551204D01*
G37*
G04 #@! TD.AperFunction*
G04 #@! TA.AperFunction,SMDPad,CuDef*
G36*
X83774505Y-103551204D02*
G01*
X83798773Y-103554804D01*
X83822572Y-103560765D01*
X83845671Y-103569030D01*
X83867850Y-103579520D01*
X83888893Y-103592132D01*
X83908599Y-103606747D01*
X83926777Y-103623223D01*
X83943253Y-103641401D01*
X83957868Y-103661107D01*
X83970480Y-103682150D01*
X83980970Y-103704329D01*
X83989235Y-103727428D01*
X83995196Y-103751227D01*
X83998796Y-103775495D01*
X84000000Y-103799999D01*
X84000000Y-104700001D01*
X83998796Y-104724505D01*
X83995196Y-104748773D01*
X83989235Y-104772572D01*
X83980970Y-104795671D01*
X83970480Y-104817850D01*
X83957868Y-104838893D01*
X83943253Y-104858599D01*
X83926777Y-104876777D01*
X83908599Y-104893253D01*
X83888893Y-104907868D01*
X83867850Y-104920480D01*
X83845671Y-104930970D01*
X83822572Y-104939235D01*
X83798773Y-104945196D01*
X83774505Y-104948796D01*
X83750001Y-104950000D01*
X83099999Y-104950000D01*
X83075495Y-104948796D01*
X83051227Y-104945196D01*
X83027428Y-104939235D01*
X83004329Y-104930970D01*
X82982150Y-104920480D01*
X82961107Y-104907868D01*
X82941401Y-104893253D01*
X82923223Y-104876777D01*
X82906747Y-104858599D01*
X82892132Y-104838893D01*
X82879520Y-104817850D01*
X82869030Y-104795671D01*
X82860765Y-104772572D01*
X82854804Y-104748773D01*
X82851204Y-104724505D01*
X82850000Y-104700001D01*
X82850000Y-103799999D01*
X82851204Y-103775495D01*
X82854804Y-103751227D01*
X82860765Y-103727428D01*
X82869030Y-103704329D01*
X82879520Y-103682150D01*
X82892132Y-103661107D01*
X82906747Y-103641401D01*
X82923223Y-103623223D01*
X82941401Y-103606747D01*
X82961107Y-103592132D01*
X82982150Y-103579520D01*
X83004329Y-103569030D01*
X83027428Y-103560765D01*
X83051227Y-103554804D01*
X83075495Y-103551204D01*
X83099999Y-103550000D01*
X83750001Y-103550000D01*
X83774505Y-103551204D01*
G37*
G04 #@! TD.AperFunction*
G04 #@! TA.AperFunction,SMDPad,CuDef*
G36*
X117074505Y-116826204D02*
G01*
X117098773Y-116829804D01*
X117122572Y-116835765D01*
X117145671Y-116844030D01*
X117167850Y-116854520D01*
X117188893Y-116867132D01*
X117208599Y-116881747D01*
X117226777Y-116898223D01*
X117243253Y-116916401D01*
X117257868Y-116936107D01*
X117270480Y-116957150D01*
X117280970Y-116979329D01*
X117289235Y-117002428D01*
X117295196Y-117026227D01*
X117298796Y-117050495D01*
X117300000Y-117074999D01*
X117300000Y-117725001D01*
X117298796Y-117749505D01*
X117295196Y-117773773D01*
X117289235Y-117797572D01*
X117280970Y-117820671D01*
X117270480Y-117842850D01*
X117257868Y-117863893D01*
X117243253Y-117883599D01*
X117226777Y-117901777D01*
X117208599Y-117918253D01*
X117188893Y-117932868D01*
X117167850Y-117945480D01*
X117145671Y-117955970D01*
X117122572Y-117964235D01*
X117098773Y-117970196D01*
X117074505Y-117973796D01*
X117050001Y-117975000D01*
X116149999Y-117975000D01*
X116125495Y-117973796D01*
X116101227Y-117970196D01*
X116077428Y-117964235D01*
X116054329Y-117955970D01*
X116032150Y-117945480D01*
X116011107Y-117932868D01*
X115991401Y-117918253D01*
X115973223Y-117901777D01*
X115956747Y-117883599D01*
X115942132Y-117863893D01*
X115929520Y-117842850D01*
X115919030Y-117820671D01*
X115910765Y-117797572D01*
X115904804Y-117773773D01*
X115901204Y-117749505D01*
X115900000Y-117725001D01*
X115900000Y-117074999D01*
X115901204Y-117050495D01*
X115904804Y-117026227D01*
X115910765Y-117002428D01*
X115919030Y-116979329D01*
X115929520Y-116957150D01*
X115942132Y-116936107D01*
X115956747Y-116916401D01*
X115973223Y-116898223D01*
X115991401Y-116881747D01*
X116011107Y-116867132D01*
X116032150Y-116854520D01*
X116054329Y-116844030D01*
X116077428Y-116835765D01*
X116101227Y-116829804D01*
X116125495Y-116826204D01*
X116149999Y-116825000D01*
X117050001Y-116825000D01*
X117074505Y-116826204D01*
G37*
G04 #@! TD.AperFunction*
G04 #@! TA.AperFunction,SMDPad,CuDef*
G36*
X117074505Y-118876204D02*
G01*
X117098773Y-118879804D01*
X117122572Y-118885765D01*
X117145671Y-118894030D01*
X117167850Y-118904520D01*
X117188893Y-118917132D01*
X117208599Y-118931747D01*
X117226777Y-118948223D01*
X117243253Y-118966401D01*
X117257868Y-118986107D01*
X117270480Y-119007150D01*
X117280970Y-119029329D01*
X117289235Y-119052428D01*
X117295196Y-119076227D01*
X117298796Y-119100495D01*
X117300000Y-119124999D01*
X117300000Y-119775001D01*
X117298796Y-119799505D01*
X117295196Y-119823773D01*
X117289235Y-119847572D01*
X117280970Y-119870671D01*
X117270480Y-119892850D01*
X117257868Y-119913893D01*
X117243253Y-119933599D01*
X117226777Y-119951777D01*
X117208599Y-119968253D01*
X117188893Y-119982868D01*
X117167850Y-119995480D01*
X117145671Y-120005970D01*
X117122572Y-120014235D01*
X117098773Y-120020196D01*
X117074505Y-120023796D01*
X117050001Y-120025000D01*
X116149999Y-120025000D01*
X116125495Y-120023796D01*
X116101227Y-120020196D01*
X116077428Y-120014235D01*
X116054329Y-120005970D01*
X116032150Y-119995480D01*
X116011107Y-119982868D01*
X115991401Y-119968253D01*
X115973223Y-119951777D01*
X115956747Y-119933599D01*
X115942132Y-119913893D01*
X115929520Y-119892850D01*
X115919030Y-119870671D01*
X115910765Y-119847572D01*
X115904804Y-119823773D01*
X115901204Y-119799505D01*
X115900000Y-119775001D01*
X115900000Y-119124999D01*
X115901204Y-119100495D01*
X115904804Y-119076227D01*
X115910765Y-119052428D01*
X115919030Y-119029329D01*
X115929520Y-119007150D01*
X115942132Y-118986107D01*
X115956747Y-118966401D01*
X115973223Y-118948223D01*
X115991401Y-118931747D01*
X116011107Y-118917132D01*
X116032150Y-118904520D01*
X116054329Y-118894030D01*
X116077428Y-118885765D01*
X116101227Y-118879804D01*
X116125495Y-118876204D01*
X116149999Y-118875000D01*
X117050001Y-118875000D01*
X117074505Y-118876204D01*
G37*
G04 #@! TD.AperFunction*
G04 #@! TA.AperFunction,SMDPad,CuDef*
G36*
X114874505Y-116826204D02*
G01*
X114898773Y-116829804D01*
X114922572Y-116835765D01*
X114945671Y-116844030D01*
X114967850Y-116854520D01*
X114988893Y-116867132D01*
X115008599Y-116881747D01*
X115026777Y-116898223D01*
X115043253Y-116916401D01*
X115057868Y-116936107D01*
X115070480Y-116957150D01*
X115080970Y-116979329D01*
X115089235Y-117002428D01*
X115095196Y-117026227D01*
X115098796Y-117050495D01*
X115100000Y-117074999D01*
X115100000Y-117725001D01*
X115098796Y-117749505D01*
X115095196Y-117773773D01*
X115089235Y-117797572D01*
X115080970Y-117820671D01*
X115070480Y-117842850D01*
X115057868Y-117863893D01*
X115043253Y-117883599D01*
X115026777Y-117901777D01*
X115008599Y-117918253D01*
X114988893Y-117932868D01*
X114967850Y-117945480D01*
X114945671Y-117955970D01*
X114922572Y-117964235D01*
X114898773Y-117970196D01*
X114874505Y-117973796D01*
X114850001Y-117975000D01*
X113949999Y-117975000D01*
X113925495Y-117973796D01*
X113901227Y-117970196D01*
X113877428Y-117964235D01*
X113854329Y-117955970D01*
X113832150Y-117945480D01*
X113811107Y-117932868D01*
X113791401Y-117918253D01*
X113773223Y-117901777D01*
X113756747Y-117883599D01*
X113742132Y-117863893D01*
X113729520Y-117842850D01*
X113719030Y-117820671D01*
X113710765Y-117797572D01*
X113704804Y-117773773D01*
X113701204Y-117749505D01*
X113700000Y-117725001D01*
X113700000Y-117074999D01*
X113701204Y-117050495D01*
X113704804Y-117026227D01*
X113710765Y-117002428D01*
X113719030Y-116979329D01*
X113729520Y-116957150D01*
X113742132Y-116936107D01*
X113756747Y-116916401D01*
X113773223Y-116898223D01*
X113791401Y-116881747D01*
X113811107Y-116867132D01*
X113832150Y-116854520D01*
X113854329Y-116844030D01*
X113877428Y-116835765D01*
X113901227Y-116829804D01*
X113925495Y-116826204D01*
X113949999Y-116825000D01*
X114850001Y-116825000D01*
X114874505Y-116826204D01*
G37*
G04 #@! TD.AperFunction*
G04 #@! TA.AperFunction,SMDPad,CuDef*
G36*
X114874505Y-118876204D02*
G01*
X114898773Y-118879804D01*
X114922572Y-118885765D01*
X114945671Y-118894030D01*
X114967850Y-118904520D01*
X114988893Y-118917132D01*
X115008599Y-118931747D01*
X115026777Y-118948223D01*
X115043253Y-118966401D01*
X115057868Y-118986107D01*
X115070480Y-119007150D01*
X115080970Y-119029329D01*
X115089235Y-119052428D01*
X115095196Y-119076227D01*
X115098796Y-119100495D01*
X115100000Y-119124999D01*
X115100000Y-119775001D01*
X115098796Y-119799505D01*
X115095196Y-119823773D01*
X115089235Y-119847572D01*
X115080970Y-119870671D01*
X115070480Y-119892850D01*
X115057868Y-119913893D01*
X115043253Y-119933599D01*
X115026777Y-119951777D01*
X115008599Y-119968253D01*
X114988893Y-119982868D01*
X114967850Y-119995480D01*
X114945671Y-120005970D01*
X114922572Y-120014235D01*
X114898773Y-120020196D01*
X114874505Y-120023796D01*
X114850001Y-120025000D01*
X113949999Y-120025000D01*
X113925495Y-120023796D01*
X113901227Y-120020196D01*
X113877428Y-120014235D01*
X113854329Y-120005970D01*
X113832150Y-119995480D01*
X113811107Y-119982868D01*
X113791401Y-119968253D01*
X113773223Y-119951777D01*
X113756747Y-119933599D01*
X113742132Y-119913893D01*
X113729520Y-119892850D01*
X113719030Y-119870671D01*
X113710765Y-119847572D01*
X113704804Y-119823773D01*
X113701204Y-119799505D01*
X113700000Y-119775001D01*
X113700000Y-119124999D01*
X113701204Y-119100495D01*
X113704804Y-119076227D01*
X113710765Y-119052428D01*
X113719030Y-119029329D01*
X113729520Y-119007150D01*
X113742132Y-118986107D01*
X113756747Y-118966401D01*
X113773223Y-118948223D01*
X113791401Y-118931747D01*
X113811107Y-118917132D01*
X113832150Y-118904520D01*
X113854329Y-118894030D01*
X113877428Y-118885765D01*
X113901227Y-118879804D01*
X113925495Y-118876204D01*
X113949999Y-118875000D01*
X114850001Y-118875000D01*
X114874505Y-118876204D01*
G37*
G04 #@! TD.AperFunction*
G04 #@! TA.AperFunction,SMDPad,CuDef*
G36*
X112674505Y-116826204D02*
G01*
X112698773Y-116829804D01*
X112722572Y-116835765D01*
X112745671Y-116844030D01*
X112767850Y-116854520D01*
X112788893Y-116867132D01*
X112808599Y-116881747D01*
X112826777Y-116898223D01*
X112843253Y-116916401D01*
X112857868Y-116936107D01*
X112870480Y-116957150D01*
X112880970Y-116979329D01*
X112889235Y-117002428D01*
X112895196Y-117026227D01*
X112898796Y-117050495D01*
X112900000Y-117074999D01*
X112900000Y-117725001D01*
X112898796Y-117749505D01*
X112895196Y-117773773D01*
X112889235Y-117797572D01*
X112880970Y-117820671D01*
X112870480Y-117842850D01*
X112857868Y-117863893D01*
X112843253Y-117883599D01*
X112826777Y-117901777D01*
X112808599Y-117918253D01*
X112788893Y-117932868D01*
X112767850Y-117945480D01*
X112745671Y-117955970D01*
X112722572Y-117964235D01*
X112698773Y-117970196D01*
X112674505Y-117973796D01*
X112650001Y-117975000D01*
X111749999Y-117975000D01*
X111725495Y-117973796D01*
X111701227Y-117970196D01*
X111677428Y-117964235D01*
X111654329Y-117955970D01*
X111632150Y-117945480D01*
X111611107Y-117932868D01*
X111591401Y-117918253D01*
X111573223Y-117901777D01*
X111556747Y-117883599D01*
X111542132Y-117863893D01*
X111529520Y-117842850D01*
X111519030Y-117820671D01*
X111510765Y-117797572D01*
X111504804Y-117773773D01*
X111501204Y-117749505D01*
X111500000Y-117725001D01*
X111500000Y-117074999D01*
X111501204Y-117050495D01*
X111504804Y-117026227D01*
X111510765Y-117002428D01*
X111519030Y-116979329D01*
X111529520Y-116957150D01*
X111542132Y-116936107D01*
X111556747Y-116916401D01*
X111573223Y-116898223D01*
X111591401Y-116881747D01*
X111611107Y-116867132D01*
X111632150Y-116854520D01*
X111654329Y-116844030D01*
X111677428Y-116835765D01*
X111701227Y-116829804D01*
X111725495Y-116826204D01*
X111749999Y-116825000D01*
X112650001Y-116825000D01*
X112674505Y-116826204D01*
G37*
G04 #@! TD.AperFunction*
G04 #@! TA.AperFunction,SMDPad,CuDef*
G36*
X112674505Y-118876204D02*
G01*
X112698773Y-118879804D01*
X112722572Y-118885765D01*
X112745671Y-118894030D01*
X112767850Y-118904520D01*
X112788893Y-118917132D01*
X112808599Y-118931747D01*
X112826777Y-118948223D01*
X112843253Y-118966401D01*
X112857868Y-118986107D01*
X112870480Y-119007150D01*
X112880970Y-119029329D01*
X112889235Y-119052428D01*
X112895196Y-119076227D01*
X112898796Y-119100495D01*
X112900000Y-119124999D01*
X112900000Y-119775001D01*
X112898796Y-119799505D01*
X112895196Y-119823773D01*
X112889235Y-119847572D01*
X112880970Y-119870671D01*
X112870480Y-119892850D01*
X112857868Y-119913893D01*
X112843253Y-119933599D01*
X112826777Y-119951777D01*
X112808599Y-119968253D01*
X112788893Y-119982868D01*
X112767850Y-119995480D01*
X112745671Y-120005970D01*
X112722572Y-120014235D01*
X112698773Y-120020196D01*
X112674505Y-120023796D01*
X112650001Y-120025000D01*
X111749999Y-120025000D01*
X111725495Y-120023796D01*
X111701227Y-120020196D01*
X111677428Y-120014235D01*
X111654329Y-120005970D01*
X111632150Y-119995480D01*
X111611107Y-119982868D01*
X111591401Y-119968253D01*
X111573223Y-119951777D01*
X111556747Y-119933599D01*
X111542132Y-119913893D01*
X111529520Y-119892850D01*
X111519030Y-119870671D01*
X111510765Y-119847572D01*
X111504804Y-119823773D01*
X111501204Y-119799505D01*
X111500000Y-119775001D01*
X111500000Y-119124999D01*
X111501204Y-119100495D01*
X111504804Y-119076227D01*
X111510765Y-119052428D01*
X111519030Y-119029329D01*
X111529520Y-119007150D01*
X111542132Y-118986107D01*
X111556747Y-118966401D01*
X111573223Y-118948223D01*
X111591401Y-118931747D01*
X111611107Y-118917132D01*
X111632150Y-118904520D01*
X111654329Y-118894030D01*
X111677428Y-118885765D01*
X111701227Y-118879804D01*
X111725495Y-118876204D01*
X111749999Y-118875000D01*
X112650001Y-118875000D01*
X112674505Y-118876204D01*
G37*
G04 #@! TD.AperFunction*
G04 #@! TA.AperFunction,SMDPad,CuDef*
G36*
X110474505Y-118876204D02*
G01*
X110498773Y-118879804D01*
X110522572Y-118885765D01*
X110545671Y-118894030D01*
X110567850Y-118904520D01*
X110588893Y-118917132D01*
X110608599Y-118931747D01*
X110626777Y-118948223D01*
X110643253Y-118966401D01*
X110657868Y-118986107D01*
X110670480Y-119007150D01*
X110680970Y-119029329D01*
X110689235Y-119052428D01*
X110695196Y-119076227D01*
X110698796Y-119100495D01*
X110700000Y-119124999D01*
X110700000Y-119775001D01*
X110698796Y-119799505D01*
X110695196Y-119823773D01*
X110689235Y-119847572D01*
X110680970Y-119870671D01*
X110670480Y-119892850D01*
X110657868Y-119913893D01*
X110643253Y-119933599D01*
X110626777Y-119951777D01*
X110608599Y-119968253D01*
X110588893Y-119982868D01*
X110567850Y-119995480D01*
X110545671Y-120005970D01*
X110522572Y-120014235D01*
X110498773Y-120020196D01*
X110474505Y-120023796D01*
X110450001Y-120025000D01*
X109549999Y-120025000D01*
X109525495Y-120023796D01*
X109501227Y-120020196D01*
X109477428Y-120014235D01*
X109454329Y-120005970D01*
X109432150Y-119995480D01*
X109411107Y-119982868D01*
X109391401Y-119968253D01*
X109373223Y-119951777D01*
X109356747Y-119933599D01*
X109342132Y-119913893D01*
X109329520Y-119892850D01*
X109319030Y-119870671D01*
X109310765Y-119847572D01*
X109304804Y-119823773D01*
X109301204Y-119799505D01*
X109300000Y-119775001D01*
X109300000Y-119124999D01*
X109301204Y-119100495D01*
X109304804Y-119076227D01*
X109310765Y-119052428D01*
X109319030Y-119029329D01*
X109329520Y-119007150D01*
X109342132Y-118986107D01*
X109356747Y-118966401D01*
X109373223Y-118948223D01*
X109391401Y-118931747D01*
X109411107Y-118917132D01*
X109432150Y-118904520D01*
X109454329Y-118894030D01*
X109477428Y-118885765D01*
X109501227Y-118879804D01*
X109525495Y-118876204D01*
X109549999Y-118875000D01*
X110450001Y-118875000D01*
X110474505Y-118876204D01*
G37*
G04 #@! TD.AperFunction*
G04 #@! TA.AperFunction,SMDPad,CuDef*
G36*
X110474505Y-116826204D02*
G01*
X110498773Y-116829804D01*
X110522572Y-116835765D01*
X110545671Y-116844030D01*
X110567850Y-116854520D01*
X110588893Y-116867132D01*
X110608599Y-116881747D01*
X110626777Y-116898223D01*
X110643253Y-116916401D01*
X110657868Y-116936107D01*
X110670480Y-116957150D01*
X110680970Y-116979329D01*
X110689235Y-117002428D01*
X110695196Y-117026227D01*
X110698796Y-117050495D01*
X110700000Y-117074999D01*
X110700000Y-117725001D01*
X110698796Y-117749505D01*
X110695196Y-117773773D01*
X110689235Y-117797572D01*
X110680970Y-117820671D01*
X110670480Y-117842850D01*
X110657868Y-117863893D01*
X110643253Y-117883599D01*
X110626777Y-117901777D01*
X110608599Y-117918253D01*
X110588893Y-117932868D01*
X110567850Y-117945480D01*
X110545671Y-117955970D01*
X110522572Y-117964235D01*
X110498773Y-117970196D01*
X110474505Y-117973796D01*
X110450001Y-117975000D01*
X109549999Y-117975000D01*
X109525495Y-117973796D01*
X109501227Y-117970196D01*
X109477428Y-117964235D01*
X109454329Y-117955970D01*
X109432150Y-117945480D01*
X109411107Y-117932868D01*
X109391401Y-117918253D01*
X109373223Y-117901777D01*
X109356747Y-117883599D01*
X109342132Y-117863893D01*
X109329520Y-117842850D01*
X109319030Y-117820671D01*
X109310765Y-117797572D01*
X109304804Y-117773773D01*
X109301204Y-117749505D01*
X109300000Y-117725001D01*
X109300000Y-117074999D01*
X109301204Y-117050495D01*
X109304804Y-117026227D01*
X109310765Y-117002428D01*
X109319030Y-116979329D01*
X109329520Y-116957150D01*
X109342132Y-116936107D01*
X109356747Y-116916401D01*
X109373223Y-116898223D01*
X109391401Y-116881747D01*
X109411107Y-116867132D01*
X109432150Y-116854520D01*
X109454329Y-116844030D01*
X109477428Y-116835765D01*
X109501227Y-116829804D01*
X109525495Y-116826204D01*
X109549999Y-116825000D01*
X110450001Y-116825000D01*
X110474505Y-116826204D01*
G37*
G04 #@! TD.AperFunction*
G04 #@! TA.AperFunction,SMDPad,CuDef*
G36*
X106274505Y-116826204D02*
G01*
X106298773Y-116829804D01*
X106322572Y-116835765D01*
X106345671Y-116844030D01*
X106367850Y-116854520D01*
X106388893Y-116867132D01*
X106408599Y-116881747D01*
X106426777Y-116898223D01*
X106443253Y-116916401D01*
X106457868Y-116936107D01*
X106470480Y-116957150D01*
X106480970Y-116979329D01*
X106489235Y-117002428D01*
X106495196Y-117026227D01*
X106498796Y-117050495D01*
X106500000Y-117074999D01*
X106500000Y-117725001D01*
X106498796Y-117749505D01*
X106495196Y-117773773D01*
X106489235Y-117797572D01*
X106480970Y-117820671D01*
X106470480Y-117842850D01*
X106457868Y-117863893D01*
X106443253Y-117883599D01*
X106426777Y-117901777D01*
X106408599Y-117918253D01*
X106388893Y-117932868D01*
X106367850Y-117945480D01*
X106345671Y-117955970D01*
X106322572Y-117964235D01*
X106298773Y-117970196D01*
X106274505Y-117973796D01*
X106250001Y-117975000D01*
X105349999Y-117975000D01*
X105325495Y-117973796D01*
X105301227Y-117970196D01*
X105277428Y-117964235D01*
X105254329Y-117955970D01*
X105232150Y-117945480D01*
X105211107Y-117932868D01*
X105191401Y-117918253D01*
X105173223Y-117901777D01*
X105156747Y-117883599D01*
X105142132Y-117863893D01*
X105129520Y-117842850D01*
X105119030Y-117820671D01*
X105110765Y-117797572D01*
X105104804Y-117773773D01*
X105101204Y-117749505D01*
X105100000Y-117725001D01*
X105100000Y-117074999D01*
X105101204Y-117050495D01*
X105104804Y-117026227D01*
X105110765Y-117002428D01*
X105119030Y-116979329D01*
X105129520Y-116957150D01*
X105142132Y-116936107D01*
X105156747Y-116916401D01*
X105173223Y-116898223D01*
X105191401Y-116881747D01*
X105211107Y-116867132D01*
X105232150Y-116854520D01*
X105254329Y-116844030D01*
X105277428Y-116835765D01*
X105301227Y-116829804D01*
X105325495Y-116826204D01*
X105349999Y-116825000D01*
X106250001Y-116825000D01*
X106274505Y-116826204D01*
G37*
G04 #@! TD.AperFunction*
G04 #@! TA.AperFunction,SMDPad,CuDef*
G36*
X106274505Y-118876204D02*
G01*
X106298773Y-118879804D01*
X106322572Y-118885765D01*
X106345671Y-118894030D01*
X106367850Y-118904520D01*
X106388893Y-118917132D01*
X106408599Y-118931747D01*
X106426777Y-118948223D01*
X106443253Y-118966401D01*
X106457868Y-118986107D01*
X106470480Y-119007150D01*
X106480970Y-119029329D01*
X106489235Y-119052428D01*
X106495196Y-119076227D01*
X106498796Y-119100495D01*
X106500000Y-119124999D01*
X106500000Y-119775001D01*
X106498796Y-119799505D01*
X106495196Y-119823773D01*
X106489235Y-119847572D01*
X106480970Y-119870671D01*
X106470480Y-119892850D01*
X106457868Y-119913893D01*
X106443253Y-119933599D01*
X106426777Y-119951777D01*
X106408599Y-119968253D01*
X106388893Y-119982868D01*
X106367850Y-119995480D01*
X106345671Y-120005970D01*
X106322572Y-120014235D01*
X106298773Y-120020196D01*
X106274505Y-120023796D01*
X106250001Y-120025000D01*
X105349999Y-120025000D01*
X105325495Y-120023796D01*
X105301227Y-120020196D01*
X105277428Y-120014235D01*
X105254329Y-120005970D01*
X105232150Y-119995480D01*
X105211107Y-119982868D01*
X105191401Y-119968253D01*
X105173223Y-119951777D01*
X105156747Y-119933599D01*
X105142132Y-119913893D01*
X105129520Y-119892850D01*
X105119030Y-119870671D01*
X105110765Y-119847572D01*
X105104804Y-119823773D01*
X105101204Y-119799505D01*
X105100000Y-119775001D01*
X105100000Y-119124999D01*
X105101204Y-119100495D01*
X105104804Y-119076227D01*
X105110765Y-119052428D01*
X105119030Y-119029329D01*
X105129520Y-119007150D01*
X105142132Y-118986107D01*
X105156747Y-118966401D01*
X105173223Y-118948223D01*
X105191401Y-118931747D01*
X105211107Y-118917132D01*
X105232150Y-118904520D01*
X105254329Y-118894030D01*
X105277428Y-118885765D01*
X105301227Y-118879804D01*
X105325495Y-118876204D01*
X105349999Y-118875000D01*
X106250001Y-118875000D01*
X106274505Y-118876204D01*
G37*
G04 #@! TD.AperFunction*
G04 #@! TA.AperFunction,SMDPad,CuDef*
G36*
X104074505Y-118876204D02*
G01*
X104098773Y-118879804D01*
X104122572Y-118885765D01*
X104145671Y-118894030D01*
X104167850Y-118904520D01*
X104188893Y-118917132D01*
X104208599Y-118931747D01*
X104226777Y-118948223D01*
X104243253Y-118966401D01*
X104257868Y-118986107D01*
X104270480Y-119007150D01*
X104280970Y-119029329D01*
X104289235Y-119052428D01*
X104295196Y-119076227D01*
X104298796Y-119100495D01*
X104300000Y-119124999D01*
X104300000Y-119775001D01*
X104298796Y-119799505D01*
X104295196Y-119823773D01*
X104289235Y-119847572D01*
X104280970Y-119870671D01*
X104270480Y-119892850D01*
X104257868Y-119913893D01*
X104243253Y-119933599D01*
X104226777Y-119951777D01*
X104208599Y-119968253D01*
X104188893Y-119982868D01*
X104167850Y-119995480D01*
X104145671Y-120005970D01*
X104122572Y-120014235D01*
X104098773Y-120020196D01*
X104074505Y-120023796D01*
X104050001Y-120025000D01*
X103149999Y-120025000D01*
X103125495Y-120023796D01*
X103101227Y-120020196D01*
X103077428Y-120014235D01*
X103054329Y-120005970D01*
X103032150Y-119995480D01*
X103011107Y-119982868D01*
X102991401Y-119968253D01*
X102973223Y-119951777D01*
X102956747Y-119933599D01*
X102942132Y-119913893D01*
X102929520Y-119892850D01*
X102919030Y-119870671D01*
X102910765Y-119847572D01*
X102904804Y-119823773D01*
X102901204Y-119799505D01*
X102900000Y-119775001D01*
X102900000Y-119124999D01*
X102901204Y-119100495D01*
X102904804Y-119076227D01*
X102910765Y-119052428D01*
X102919030Y-119029329D01*
X102929520Y-119007150D01*
X102942132Y-118986107D01*
X102956747Y-118966401D01*
X102973223Y-118948223D01*
X102991401Y-118931747D01*
X103011107Y-118917132D01*
X103032150Y-118904520D01*
X103054329Y-118894030D01*
X103077428Y-118885765D01*
X103101227Y-118879804D01*
X103125495Y-118876204D01*
X103149999Y-118875000D01*
X104050001Y-118875000D01*
X104074505Y-118876204D01*
G37*
G04 #@! TD.AperFunction*
G04 #@! TA.AperFunction,SMDPad,CuDef*
G36*
X104074505Y-116826204D02*
G01*
X104098773Y-116829804D01*
X104122572Y-116835765D01*
X104145671Y-116844030D01*
X104167850Y-116854520D01*
X104188893Y-116867132D01*
X104208599Y-116881747D01*
X104226777Y-116898223D01*
X104243253Y-116916401D01*
X104257868Y-116936107D01*
X104270480Y-116957150D01*
X104280970Y-116979329D01*
X104289235Y-117002428D01*
X104295196Y-117026227D01*
X104298796Y-117050495D01*
X104300000Y-117074999D01*
X104300000Y-117725001D01*
X104298796Y-117749505D01*
X104295196Y-117773773D01*
X104289235Y-117797572D01*
X104280970Y-117820671D01*
X104270480Y-117842850D01*
X104257868Y-117863893D01*
X104243253Y-117883599D01*
X104226777Y-117901777D01*
X104208599Y-117918253D01*
X104188893Y-117932868D01*
X104167850Y-117945480D01*
X104145671Y-117955970D01*
X104122572Y-117964235D01*
X104098773Y-117970196D01*
X104074505Y-117973796D01*
X104050001Y-117975000D01*
X103149999Y-117975000D01*
X103125495Y-117973796D01*
X103101227Y-117970196D01*
X103077428Y-117964235D01*
X103054329Y-117955970D01*
X103032150Y-117945480D01*
X103011107Y-117932868D01*
X102991401Y-117918253D01*
X102973223Y-117901777D01*
X102956747Y-117883599D01*
X102942132Y-117863893D01*
X102929520Y-117842850D01*
X102919030Y-117820671D01*
X102910765Y-117797572D01*
X102904804Y-117773773D01*
X102901204Y-117749505D01*
X102900000Y-117725001D01*
X102900000Y-117074999D01*
X102901204Y-117050495D01*
X102904804Y-117026227D01*
X102910765Y-117002428D01*
X102919030Y-116979329D01*
X102929520Y-116957150D01*
X102942132Y-116936107D01*
X102956747Y-116916401D01*
X102973223Y-116898223D01*
X102991401Y-116881747D01*
X103011107Y-116867132D01*
X103032150Y-116854520D01*
X103054329Y-116844030D01*
X103077428Y-116835765D01*
X103101227Y-116829804D01*
X103125495Y-116826204D01*
X103149999Y-116825000D01*
X104050001Y-116825000D01*
X104074505Y-116826204D01*
G37*
G04 #@! TD.AperFunction*
G04 #@! TA.AperFunction,SMDPad,CuDef*
G36*
X101874505Y-116826204D02*
G01*
X101898773Y-116829804D01*
X101922572Y-116835765D01*
X101945671Y-116844030D01*
X101967850Y-116854520D01*
X101988893Y-116867132D01*
X102008599Y-116881747D01*
X102026777Y-116898223D01*
X102043253Y-116916401D01*
X102057868Y-116936107D01*
X102070480Y-116957150D01*
X102080970Y-116979329D01*
X102089235Y-117002428D01*
X102095196Y-117026227D01*
X102098796Y-117050495D01*
X102100000Y-117074999D01*
X102100000Y-117725001D01*
X102098796Y-117749505D01*
X102095196Y-117773773D01*
X102089235Y-117797572D01*
X102080970Y-117820671D01*
X102070480Y-117842850D01*
X102057868Y-117863893D01*
X102043253Y-117883599D01*
X102026777Y-117901777D01*
X102008599Y-117918253D01*
X101988893Y-117932868D01*
X101967850Y-117945480D01*
X101945671Y-117955970D01*
X101922572Y-117964235D01*
X101898773Y-117970196D01*
X101874505Y-117973796D01*
X101850001Y-117975000D01*
X100949999Y-117975000D01*
X100925495Y-117973796D01*
X100901227Y-117970196D01*
X100877428Y-117964235D01*
X100854329Y-117955970D01*
X100832150Y-117945480D01*
X100811107Y-117932868D01*
X100791401Y-117918253D01*
X100773223Y-117901777D01*
X100756747Y-117883599D01*
X100742132Y-117863893D01*
X100729520Y-117842850D01*
X100719030Y-117820671D01*
X100710765Y-117797572D01*
X100704804Y-117773773D01*
X100701204Y-117749505D01*
X100700000Y-117725001D01*
X100700000Y-117074999D01*
X100701204Y-117050495D01*
X100704804Y-117026227D01*
X100710765Y-117002428D01*
X100719030Y-116979329D01*
X100729520Y-116957150D01*
X100742132Y-116936107D01*
X100756747Y-116916401D01*
X100773223Y-116898223D01*
X100791401Y-116881747D01*
X100811107Y-116867132D01*
X100832150Y-116854520D01*
X100854329Y-116844030D01*
X100877428Y-116835765D01*
X100901227Y-116829804D01*
X100925495Y-116826204D01*
X100949999Y-116825000D01*
X101850001Y-116825000D01*
X101874505Y-116826204D01*
G37*
G04 #@! TD.AperFunction*
G04 #@! TA.AperFunction,SMDPad,CuDef*
G36*
X101874505Y-118876204D02*
G01*
X101898773Y-118879804D01*
X101922572Y-118885765D01*
X101945671Y-118894030D01*
X101967850Y-118904520D01*
X101988893Y-118917132D01*
X102008599Y-118931747D01*
X102026777Y-118948223D01*
X102043253Y-118966401D01*
X102057868Y-118986107D01*
X102070480Y-119007150D01*
X102080970Y-119029329D01*
X102089235Y-119052428D01*
X102095196Y-119076227D01*
X102098796Y-119100495D01*
X102100000Y-119124999D01*
X102100000Y-119775001D01*
X102098796Y-119799505D01*
X102095196Y-119823773D01*
X102089235Y-119847572D01*
X102080970Y-119870671D01*
X102070480Y-119892850D01*
X102057868Y-119913893D01*
X102043253Y-119933599D01*
X102026777Y-119951777D01*
X102008599Y-119968253D01*
X101988893Y-119982868D01*
X101967850Y-119995480D01*
X101945671Y-120005970D01*
X101922572Y-120014235D01*
X101898773Y-120020196D01*
X101874505Y-120023796D01*
X101850001Y-120025000D01*
X100949999Y-120025000D01*
X100925495Y-120023796D01*
X100901227Y-120020196D01*
X100877428Y-120014235D01*
X100854329Y-120005970D01*
X100832150Y-119995480D01*
X100811107Y-119982868D01*
X100791401Y-119968253D01*
X100773223Y-119951777D01*
X100756747Y-119933599D01*
X100742132Y-119913893D01*
X100729520Y-119892850D01*
X100719030Y-119870671D01*
X100710765Y-119847572D01*
X100704804Y-119823773D01*
X100701204Y-119799505D01*
X100700000Y-119775001D01*
X100700000Y-119124999D01*
X100701204Y-119100495D01*
X100704804Y-119076227D01*
X100710765Y-119052428D01*
X100719030Y-119029329D01*
X100729520Y-119007150D01*
X100742132Y-118986107D01*
X100756747Y-118966401D01*
X100773223Y-118948223D01*
X100791401Y-118931747D01*
X100811107Y-118917132D01*
X100832150Y-118904520D01*
X100854329Y-118894030D01*
X100877428Y-118885765D01*
X100901227Y-118879804D01*
X100925495Y-118876204D01*
X100949999Y-118875000D01*
X101850001Y-118875000D01*
X101874505Y-118876204D01*
G37*
G04 #@! TD.AperFunction*
G04 #@! TA.AperFunction,SMDPad,CuDef*
G36*
X99674505Y-118876204D02*
G01*
X99698773Y-118879804D01*
X99722572Y-118885765D01*
X99745671Y-118894030D01*
X99767850Y-118904520D01*
X99788893Y-118917132D01*
X99808599Y-118931747D01*
X99826777Y-118948223D01*
X99843253Y-118966401D01*
X99857868Y-118986107D01*
X99870480Y-119007150D01*
X99880970Y-119029329D01*
X99889235Y-119052428D01*
X99895196Y-119076227D01*
X99898796Y-119100495D01*
X99900000Y-119124999D01*
X99900000Y-119775001D01*
X99898796Y-119799505D01*
X99895196Y-119823773D01*
X99889235Y-119847572D01*
X99880970Y-119870671D01*
X99870480Y-119892850D01*
X99857868Y-119913893D01*
X99843253Y-119933599D01*
X99826777Y-119951777D01*
X99808599Y-119968253D01*
X99788893Y-119982868D01*
X99767850Y-119995480D01*
X99745671Y-120005970D01*
X99722572Y-120014235D01*
X99698773Y-120020196D01*
X99674505Y-120023796D01*
X99650001Y-120025000D01*
X98749999Y-120025000D01*
X98725495Y-120023796D01*
X98701227Y-120020196D01*
X98677428Y-120014235D01*
X98654329Y-120005970D01*
X98632150Y-119995480D01*
X98611107Y-119982868D01*
X98591401Y-119968253D01*
X98573223Y-119951777D01*
X98556747Y-119933599D01*
X98542132Y-119913893D01*
X98529520Y-119892850D01*
X98519030Y-119870671D01*
X98510765Y-119847572D01*
X98504804Y-119823773D01*
X98501204Y-119799505D01*
X98500000Y-119775001D01*
X98500000Y-119124999D01*
X98501204Y-119100495D01*
X98504804Y-119076227D01*
X98510765Y-119052428D01*
X98519030Y-119029329D01*
X98529520Y-119007150D01*
X98542132Y-118986107D01*
X98556747Y-118966401D01*
X98573223Y-118948223D01*
X98591401Y-118931747D01*
X98611107Y-118917132D01*
X98632150Y-118904520D01*
X98654329Y-118894030D01*
X98677428Y-118885765D01*
X98701227Y-118879804D01*
X98725495Y-118876204D01*
X98749999Y-118875000D01*
X99650001Y-118875000D01*
X99674505Y-118876204D01*
G37*
G04 #@! TD.AperFunction*
G04 #@! TA.AperFunction,SMDPad,CuDef*
G36*
X99674505Y-116826204D02*
G01*
X99698773Y-116829804D01*
X99722572Y-116835765D01*
X99745671Y-116844030D01*
X99767850Y-116854520D01*
X99788893Y-116867132D01*
X99808599Y-116881747D01*
X99826777Y-116898223D01*
X99843253Y-116916401D01*
X99857868Y-116936107D01*
X99870480Y-116957150D01*
X99880970Y-116979329D01*
X99889235Y-117002428D01*
X99895196Y-117026227D01*
X99898796Y-117050495D01*
X99900000Y-117074999D01*
X99900000Y-117725001D01*
X99898796Y-117749505D01*
X99895196Y-117773773D01*
X99889235Y-117797572D01*
X99880970Y-117820671D01*
X99870480Y-117842850D01*
X99857868Y-117863893D01*
X99843253Y-117883599D01*
X99826777Y-117901777D01*
X99808599Y-117918253D01*
X99788893Y-117932868D01*
X99767850Y-117945480D01*
X99745671Y-117955970D01*
X99722572Y-117964235D01*
X99698773Y-117970196D01*
X99674505Y-117973796D01*
X99650001Y-117975000D01*
X98749999Y-117975000D01*
X98725495Y-117973796D01*
X98701227Y-117970196D01*
X98677428Y-117964235D01*
X98654329Y-117955970D01*
X98632150Y-117945480D01*
X98611107Y-117932868D01*
X98591401Y-117918253D01*
X98573223Y-117901777D01*
X98556747Y-117883599D01*
X98542132Y-117863893D01*
X98529520Y-117842850D01*
X98519030Y-117820671D01*
X98510765Y-117797572D01*
X98504804Y-117773773D01*
X98501204Y-117749505D01*
X98500000Y-117725001D01*
X98500000Y-117074999D01*
X98501204Y-117050495D01*
X98504804Y-117026227D01*
X98510765Y-117002428D01*
X98519030Y-116979329D01*
X98529520Y-116957150D01*
X98542132Y-116936107D01*
X98556747Y-116916401D01*
X98573223Y-116898223D01*
X98591401Y-116881747D01*
X98611107Y-116867132D01*
X98632150Y-116854520D01*
X98654329Y-116844030D01*
X98677428Y-116835765D01*
X98701227Y-116829804D01*
X98725495Y-116826204D01*
X98749999Y-116825000D01*
X99650001Y-116825000D01*
X99674505Y-116826204D01*
G37*
G04 #@! TD.AperFunction*
D12*
X86400000Y-119900000D03*
D11*
X86400000Y-122440000D03*
X88940000Y-119900000D03*
X88940000Y-122440000D03*
X91480000Y-119900000D03*
X91480000Y-122440000D03*
X94020000Y-119900000D03*
X94020000Y-122440000D03*
D18*
X102250000Y-95500000D03*
X84500000Y-95500000D03*
X116000000Y-95500000D03*
D19*
X93600000Y-89700000D03*
X108300000Y-89700000D03*
D18*
X81250000Y-89750000D03*
X115989990Y-89710010D03*
X93025000Y-97500000D03*
X94500000Y-108000000D03*
X99400000Y-109600000D03*
X100600000Y-112400000D03*
X97000000Y-123400000D03*
X90975000Y-98275000D03*
X86512500Y-105987500D03*
X115000000Y-106000000D03*
X90975000Y-112400000D03*
X93400000Y-116800000D03*
D19*
X100350000Y-84300000D03*
D18*
X87600000Y-107000000D03*
X98200000Y-111400000D03*
X87625000Y-106000000D03*
X98200000Y-110600000D03*
D19*
X93800000Y-75400000D03*
D18*
X94200000Y-114800000D03*
X93400000Y-110400000D03*
D20*
X106750000Y-95400000D02*
X107100000Y-95400000D01*
X104350000Y-93000000D02*
X106750000Y-95400000D01*
X107100000Y-95400000D02*
X107775000Y-95400000D01*
X104350000Y-92000000D02*
X104350000Y-93000000D01*
X83635000Y-94635000D02*
X83635000Y-92275000D01*
X84500000Y-95500000D02*
X83635000Y-94635000D01*
X83425000Y-97800000D02*
X85608333Y-97800000D01*
X107675000Y-95500000D02*
X107775000Y-95400000D01*
X102250000Y-95500000D02*
X107675000Y-95500000D01*
X117885000Y-93615000D02*
X117885000Y-92225000D01*
X116000000Y-95500000D02*
X117885000Y-93615000D01*
X116000000Y-96725000D02*
X117075000Y-97800000D01*
X116000000Y-95500000D02*
X116000000Y-96725000D01*
X117075000Y-97800000D02*
X114891666Y-97800000D01*
X84500000Y-96725000D02*
X84500000Y-95500000D01*
X83425000Y-97800000D02*
X84500000Y-96725000D01*
D21*
X95292920Y-77271999D02*
X94810000Y-77754919D01*
X94810000Y-77754919D02*
X94810000Y-78957000D01*
X111624999Y-77271999D02*
X95292920Y-77271999D01*
X113310000Y-78957000D02*
X111624999Y-77271999D01*
D22*
X104400000Y-89750000D02*
X104350000Y-89700000D01*
X106750000Y-89750000D02*
X104400000Y-89750000D01*
X89700000Y-89750000D02*
X89650000Y-89700000D01*
X92000000Y-89750000D02*
X89700000Y-89750000D01*
D20*
X81250000Y-87480000D02*
X81095000Y-87325000D01*
X92000000Y-94375000D02*
X93025000Y-95400000D01*
X92000000Y-89750000D02*
X92000000Y-94375000D01*
X106750000Y-92325000D02*
X109825000Y-95400000D01*
X106750000Y-89750000D02*
X106750000Y-92325000D01*
D22*
X92000000Y-89750000D02*
X95950000Y-89750000D01*
X106750000Y-89750000D02*
X110650000Y-89750000D01*
D20*
X82365000Y-90865000D02*
X82365000Y-92275000D01*
X81250000Y-89750000D02*
X81250000Y-89750000D01*
X81250000Y-89750000D02*
X81250000Y-87480000D01*
X81250000Y-89750000D02*
X82365000Y-90865000D01*
X115989990Y-87919990D02*
X115715710Y-87645710D01*
X115715710Y-87645710D02*
X115345000Y-87275000D01*
X115989990Y-91599990D02*
X115989990Y-89710010D01*
X116615000Y-92225000D02*
X115989990Y-91599990D01*
X115989990Y-89710010D02*
X115989990Y-87919990D01*
X93025000Y-97500000D02*
X93025000Y-97500000D01*
X93025000Y-95400000D02*
X93025000Y-97475000D01*
X93025000Y-97500000D02*
X93025000Y-97475000D01*
X96125000Y-108000000D02*
X96175000Y-107950000D01*
X94500000Y-108000000D02*
X96125000Y-108000000D01*
X99400000Y-107975000D02*
X99425000Y-107950000D01*
X99400000Y-109600000D02*
X99400000Y-107975000D01*
X100600000Y-113525000D02*
X100725000Y-113650000D01*
X100600000Y-112400000D02*
X100600000Y-113525000D01*
X99175000Y-123400000D02*
X99200000Y-123425000D01*
X97000000Y-123400000D02*
X99175000Y-123400000D01*
X99200000Y-123425000D02*
X101400000Y-123425000D01*
X101400000Y-123425000D02*
X103600000Y-123425000D01*
X103600000Y-123425000D02*
X105800000Y-123425000D01*
X105800000Y-123425000D02*
X110000000Y-123425000D01*
X110000000Y-123425000D02*
X112200000Y-123425000D01*
X112200000Y-123425000D02*
X114400000Y-123425000D01*
X114400000Y-123425000D02*
X116600000Y-123425000D01*
X91480000Y-120536410D02*
X91480000Y-119900000D01*
X90304999Y-123004001D02*
X90304999Y-121711411D01*
X90915999Y-123615001D02*
X90304999Y-123004001D01*
X90304999Y-121711411D02*
X91480000Y-120536410D01*
X94584001Y-123615001D02*
X90915999Y-123615001D01*
X94799002Y-123400000D02*
X94584001Y-123615001D01*
X97000000Y-123400000D02*
X94799002Y-123400000D01*
X99425000Y-104973000D02*
X99334000Y-104882000D01*
X99425000Y-107950000D02*
X99425000Y-104973000D01*
X101375000Y-107150000D02*
X101375000Y-107950000D01*
X101834000Y-105832000D02*
X101375000Y-106291000D01*
X101375000Y-106291000D02*
X101375000Y-107150000D01*
X101834000Y-104882000D02*
X101834000Y-105832000D01*
X89650000Y-94075000D02*
X90975000Y-95400000D01*
X89650000Y-92000000D02*
X89650000Y-94075000D01*
X90975000Y-98300000D02*
X95550000Y-102875000D01*
X90975000Y-95400000D02*
X90975000Y-98275000D01*
X85575000Y-104250000D02*
X83425000Y-104250000D01*
X83425000Y-101975000D02*
X83400000Y-101950000D01*
X83425000Y-104250000D02*
X83425000Y-101975000D01*
X85583333Y-100050000D02*
X85633333Y-100050000D01*
X83683333Y-101950000D02*
X85583333Y-100050000D01*
X83400000Y-101950000D02*
X83683333Y-101950000D01*
X90975000Y-98275000D02*
X90975000Y-98300000D01*
X85575000Y-104250000D02*
X85575000Y-105050000D01*
X85575000Y-105050000D02*
X86512500Y-105987500D01*
X86512500Y-105987500D02*
X86512500Y-105987500D01*
X115000000Y-104275000D02*
X115025000Y-104250000D01*
X115000000Y-106000000D02*
X115000000Y-104275000D01*
X115025000Y-104250000D02*
X117050000Y-104250000D01*
X115025000Y-102075000D02*
X114900000Y-101950000D01*
X115025000Y-104250000D02*
X115025000Y-102075000D01*
X115150000Y-101950000D02*
X114900000Y-101950000D01*
X117050000Y-100050000D02*
X115150000Y-101950000D01*
X117100000Y-100050000D02*
X117050000Y-100050000D01*
X102025000Y-108750000D02*
X102025000Y-107950000D01*
X101949999Y-108825001D02*
X102025000Y-108750000D01*
X100075000Y-108750000D02*
X100150001Y-108825001D01*
X100075000Y-107950000D02*
X100075000Y-108750000D01*
X100150001Y-108825001D02*
X101949999Y-108825001D01*
X90975000Y-98275000D02*
X90975000Y-110400000D01*
X90975000Y-110400000D02*
X90975000Y-112400000D01*
X90975000Y-112400000D02*
X90975000Y-112400000D01*
X92844999Y-121075001D02*
X92329999Y-121590001D01*
X92844999Y-117355001D02*
X92844999Y-121075001D01*
X92329999Y-121590001D02*
X91480000Y-122440000D01*
X93400000Y-116800000D02*
X92844999Y-117355001D01*
X98841000Y-102875000D02*
X99334000Y-102382000D01*
X95550000Y-102875000D02*
X98841000Y-102875000D01*
X99334000Y-102382000D02*
X101834000Y-102382000D01*
X100075000Y-107150000D02*
X100075000Y-107950000D01*
X100359001Y-106865999D02*
X100075000Y-107150000D01*
X100359001Y-102457001D02*
X100359001Y-106865999D01*
X100284000Y-102382000D02*
X100359001Y-102457001D01*
X99334000Y-102382000D02*
X100284000Y-102382000D01*
D22*
X101250000Y-84300000D02*
X104350000Y-87400000D01*
X100350000Y-84300000D02*
X101250000Y-84300000D01*
X89650000Y-85761000D02*
X89650000Y-87400000D01*
X91111000Y-84300000D02*
X89650000Y-85761000D01*
X100350000Y-84300000D02*
X91111000Y-84300000D01*
D20*
X113598372Y-103626628D02*
X112975000Y-104250000D01*
X114124999Y-103100001D02*
X113598372Y-103626628D01*
X114124999Y-100775001D02*
X114124999Y-103100001D01*
X114850000Y-100050000D02*
X114124999Y-100775001D01*
X114900000Y-100050000D02*
X114850000Y-100050000D01*
X103400001Y-108825001D02*
X103325000Y-108750000D01*
X103325000Y-108750000D02*
X103325000Y-107950000D01*
X108399999Y-108825001D02*
X103400001Y-108825001D01*
X112975000Y-104250000D02*
X108399999Y-108825001D01*
X119100000Y-103900000D02*
X119100000Y-104250000D01*
X117150000Y-101950000D02*
X119100000Y-103900000D01*
X117100000Y-101950000D02*
X117150000Y-101950000D01*
X119100000Y-104250000D02*
X116119295Y-107230705D01*
X116119295Y-107230705D02*
X110630705Y-107230705D01*
X110630705Y-107230705D02*
X108586399Y-109275011D01*
X102675000Y-108750000D02*
X102675000Y-107950000D01*
X103200010Y-109275010D02*
X102675000Y-108750000D01*
X108586399Y-109275011D02*
X103200010Y-109275010D01*
X82624999Y-103000001D02*
X81998372Y-103626628D01*
X82624999Y-100775001D02*
X82624999Y-103000001D01*
X81998372Y-103626628D02*
X81375000Y-104250000D01*
X83350000Y-100050000D02*
X82624999Y-100775001D01*
X83400000Y-100050000D02*
X83350000Y-100050000D01*
X84125000Y-107000000D02*
X87200000Y-107000000D01*
X81375000Y-104250000D02*
X84125000Y-107000000D01*
X87200000Y-107000000D02*
X87600000Y-107000000D01*
X87600000Y-107000000D02*
X87600000Y-107000000D01*
X101375000Y-112850000D02*
X101375000Y-113650000D01*
X101375000Y-112101998D02*
X101375000Y-112850000D01*
X100673002Y-111400000D02*
X101375000Y-112101998D01*
X98200000Y-111400000D02*
X100673002Y-111400000D01*
X87625000Y-103241667D02*
X87625000Y-103450000D01*
X87625000Y-103450000D02*
X87625000Y-104250000D01*
X86333333Y-101950000D02*
X87625000Y-103241667D01*
X85633333Y-101950000D02*
X86333333Y-101950000D01*
X87625000Y-104250000D02*
X87625000Y-106000000D01*
X87625000Y-106000000D02*
X87625000Y-106000000D01*
X102025000Y-112850000D02*
X102025000Y-113650000D01*
X102025000Y-112115588D02*
X102025000Y-112850000D01*
X100509412Y-110600000D02*
X102025000Y-112115588D01*
X98200000Y-110600000D02*
X100509412Y-110600000D01*
X116600000Y-119450000D02*
X116600000Y-121375000D01*
X114400000Y-119450000D02*
X114400000Y-121375000D01*
X112200000Y-119450000D02*
X112200000Y-121375000D01*
X110000000Y-119450000D02*
X110000000Y-121375000D01*
X105800000Y-119450000D02*
X105800000Y-121375000D01*
X103600000Y-119450000D02*
X103600000Y-121375000D01*
X101400000Y-119450000D02*
X101400000Y-121375000D01*
X99200000Y-119450000D02*
X99200000Y-121375000D01*
X81095000Y-97520000D02*
X81375000Y-97800000D01*
X81095000Y-92275000D02*
X81095000Y-97520000D01*
X81375000Y-100975000D02*
X81400000Y-101000000D01*
X81375000Y-97800000D02*
X81375000Y-100975000D01*
X119155000Y-97770000D02*
X119125000Y-97800000D01*
X119155000Y-92225000D02*
X119155000Y-97770000D01*
X119125000Y-100975000D02*
X119100000Y-101000000D01*
X119125000Y-97800000D02*
X119125000Y-100975000D01*
X112841666Y-94728334D02*
X112841666Y-97800000D01*
X115345000Y-92225000D02*
X112841666Y-94728334D01*
X112841666Y-100941666D02*
X112900000Y-101000000D01*
X112841666Y-97800000D02*
X112841666Y-100941666D01*
X87658333Y-95028333D02*
X87658333Y-97800000D01*
X84905000Y-92275000D02*
X87658333Y-95028333D01*
X87658333Y-100975000D02*
X87633333Y-101000000D01*
X87658333Y-97800000D02*
X87658333Y-100975000D01*
X104625000Y-113650000D02*
X104625000Y-114225000D01*
X104625000Y-114450000D02*
X104775000Y-114600000D01*
X104625000Y-113650000D02*
X104625000Y-114450000D01*
X113800000Y-114600000D02*
X116600000Y-117400000D01*
X104775000Y-114600000D02*
X113800000Y-114600000D01*
X104575009Y-115050009D02*
X103975000Y-114450000D01*
X112725009Y-115050009D02*
X104575009Y-115050009D01*
X114400000Y-117400000D02*
X114400000Y-116725000D01*
X114400000Y-116725000D02*
X112725009Y-115050009D01*
X103975000Y-114450000D02*
X103975000Y-113650000D01*
X112200000Y-117400000D02*
X112200000Y-116500019D01*
X103325000Y-114450000D02*
X103325000Y-113650000D01*
X104375018Y-115500018D02*
X103325000Y-114450000D01*
X112200000Y-116500019D02*
X111199999Y-115500018D01*
X111199999Y-115500018D02*
X104375018Y-115500018D01*
X110000000Y-117400000D02*
X108550028Y-115950028D01*
X102675000Y-114450000D02*
X102675000Y-113650000D01*
X104175027Y-115950027D02*
X102675000Y-114450000D01*
X108550028Y-115950028D02*
X104175027Y-115950027D01*
X105475037Y-116400037D02*
X103988626Y-116400036D01*
X105800000Y-117400000D02*
X105800000Y-116725000D01*
X105800000Y-116725000D02*
X105475037Y-116400037D01*
X100075000Y-114450000D02*
X100075000Y-113650000D01*
X100150001Y-114525001D02*
X100075000Y-114450000D01*
X103988626Y-116400036D02*
X102113591Y-114525001D01*
X102113591Y-114525001D02*
X100150001Y-114525001D01*
X103200000Y-116325000D02*
X103200000Y-116247820D01*
X103600000Y-117400000D02*
X103600000Y-116725000D01*
X103600000Y-116725000D02*
X103200000Y-116325000D01*
X99549999Y-113774999D02*
X99425000Y-113650000D01*
X99549999Y-114561409D02*
X99549999Y-113774999D01*
X99963600Y-114975010D02*
X99549999Y-114561409D01*
X103200000Y-116247820D02*
X101927191Y-114975011D01*
X101927191Y-114975011D02*
X99963600Y-114975010D01*
X98899999Y-113774999D02*
X98775000Y-113650000D01*
X98899999Y-114547819D02*
X98899999Y-113774999D01*
X101400000Y-117400000D02*
X101400000Y-117047820D01*
X101400000Y-117047820D02*
X98899999Y-114547819D01*
X99200000Y-117400000D02*
X99200000Y-115484230D01*
X98125000Y-114450000D02*
X98125000Y-113650000D01*
X98209229Y-114534229D02*
X98125000Y-114450000D01*
X98249999Y-114534229D02*
X98209229Y-114534229D01*
X99200000Y-115484230D02*
X98249999Y-114534229D01*
X116615000Y-87275000D02*
X116244290Y-86904290D01*
X116244290Y-86904290D02*
X116244290Y-85600000D01*
X112333000Y-85600000D02*
X108230000Y-81497000D01*
X116244290Y-85600000D02*
X112333000Y-85600000D01*
X110770000Y-83400590D02*
X110770000Y-81497000D01*
X117514290Y-86904290D02*
X117514290Y-85600000D01*
X117885000Y-87275000D02*
X117514290Y-86904290D01*
X117064280Y-85149990D02*
X112519400Y-85149990D01*
X117514290Y-85600000D02*
X117064280Y-85149990D01*
X112519400Y-85149990D02*
X110770000Y-83400590D01*
D22*
X92270000Y-78957000D02*
X92270000Y-76930000D01*
X92270000Y-76930000D02*
X93800000Y-75400000D01*
X93800000Y-75400000D02*
X93800000Y-75400000D01*
D20*
X89730000Y-83400590D02*
X89730000Y-81497000D01*
X82735710Y-85750000D02*
X83185720Y-85299990D01*
X82735710Y-86954290D02*
X82735710Y-85750000D01*
X82365000Y-87325000D02*
X82735710Y-86954290D01*
X83185720Y-85299990D02*
X87830600Y-85299990D01*
X87830600Y-85299990D02*
X89730000Y-83400590D01*
X83635000Y-87325000D02*
X84005710Y-86954290D01*
X84005710Y-86954290D02*
X84005710Y-85750000D01*
X88017000Y-85750000D02*
X92270000Y-81497000D01*
X84005710Y-85750000D02*
X88017000Y-85750000D01*
X96800000Y-107975000D02*
X96825000Y-107950000D01*
X96800000Y-108660002D02*
X96800000Y-107975000D01*
X86400000Y-119900000D02*
X86400000Y-119060002D01*
X86400000Y-119060002D02*
X96800000Y-108660002D01*
X87249999Y-121590001D02*
X86400000Y-122440000D01*
X87575001Y-118535001D02*
X87575001Y-121264999D01*
X97475000Y-108635002D02*
X87575001Y-118535001D01*
X87575001Y-121264999D02*
X87249999Y-121590001D01*
X97475000Y-107950000D02*
X97475000Y-108635002D01*
X88940000Y-117833592D02*
X88940000Y-118697919D01*
X88940000Y-118697919D02*
X88940000Y-119900000D01*
X98125000Y-108648592D02*
X88940000Y-117833592D01*
X98125000Y-107950000D02*
X98125000Y-108648592D01*
X98775000Y-108635002D02*
X98775000Y-107950000D01*
X88940000Y-122440000D02*
X90304999Y-121075001D01*
X90304999Y-121075001D02*
X90304999Y-117105003D01*
X90304999Y-117105003D02*
X98775000Y-108635002D01*
X94750000Y-104925000D02*
X93400000Y-106275000D01*
X95550000Y-104925000D02*
X94750000Y-104925000D01*
X93400000Y-106275000D02*
X93400000Y-110400000D01*
X96175000Y-114450000D02*
X95825000Y-114800000D01*
X96175000Y-113650000D02*
X96175000Y-114450000D01*
X95825000Y-114800000D02*
X94200000Y-114800000D01*
X94200000Y-114800000D02*
X94200000Y-114800000D01*
X93400000Y-110400000D02*
X93400000Y-110400000D01*
X94869999Y-121590001D02*
X94020000Y-122440000D01*
X95600000Y-120860000D02*
X94869999Y-121590001D01*
X95600000Y-116200000D02*
X95600000Y-120860000D01*
X94200000Y-114800000D02*
X95600000Y-116200000D01*
M02*
