G04 #@! TF.GenerationSoftware,KiCad,Pcbnew,5.1.5-52549c5~86~ubuntu19.04.1*
G04 #@! TF.CreationDate,2020-05-15T20:04:21+10:00*
G04 #@! TF.ProjectId,sid-board-v2,7369642d-626f-4617-9264-2d76322e6b69,rev?*
G04 #@! TF.SameCoordinates,Original*
G04 #@! TF.FileFunction,Legend,Top*
G04 #@! TF.FilePolarity,Positive*
%FSLAX46Y46*%
G04 Gerber Fmt 4.6, Leading zero omitted, Abs format (unit mm)*
G04 Created by KiCad (PCBNEW 5.1.5-52549c5~86~ubuntu19.04.1) date 2020-05-15 20:04:21*
%MOMM*%
%LPD*%
G04 APERTURE LIST*
%ADD10C,0.250000*%
%ADD11C,0.125000*%
%ADD12C,0.150000*%
%ADD13C,0.120000*%
G04 APERTURE END LIST*
D10*
X109329119Y-113228380D02*
X108852928Y-113228380D01*
X108852928Y-112228380D01*
X109662452Y-112704571D02*
X109995785Y-112704571D01*
X110138642Y-113228380D02*
X109662452Y-113228380D01*
X109662452Y-112228380D01*
X110138642Y-112228380D01*
X110567214Y-113228380D02*
X110567214Y-112228380D01*
X111567214Y-112276000D02*
X111471976Y-112228380D01*
X111329119Y-112228380D01*
X111186261Y-112276000D01*
X111091023Y-112371238D01*
X111043404Y-112466476D01*
X110995785Y-112656952D01*
X110995785Y-112799809D01*
X111043404Y-112990285D01*
X111091023Y-113085523D01*
X111186261Y-113180761D01*
X111329119Y-113228380D01*
X111424357Y-113228380D01*
X111567214Y-113180761D01*
X111614833Y-113133142D01*
X111614833Y-112799809D01*
X111424357Y-112799809D01*
X112043404Y-113228380D02*
X112043404Y-112228380D01*
X112043404Y-112704571D02*
X112614833Y-112704571D01*
X112614833Y-113228380D02*
X112614833Y-112228380D01*
X114043404Y-112228380D02*
X114233880Y-112228380D01*
X114329119Y-112276000D01*
X114424357Y-112371238D01*
X114471976Y-112561714D01*
X114471976Y-112895047D01*
X114424357Y-113085523D01*
X114329119Y-113180761D01*
X114233880Y-113228380D01*
X114043404Y-113228380D01*
X113948166Y-113180761D01*
X113852928Y-113085523D01*
X113805309Y-112895047D01*
X113805309Y-112561714D01*
X113852928Y-112371238D01*
X113948166Y-112276000D01*
X114043404Y-112228380D01*
X115376738Y-113228380D02*
X114900547Y-113228380D01*
X114900547Y-112228380D01*
X115710071Y-113228380D02*
X115710071Y-112228380D01*
X116043404Y-112228380D02*
X116376738Y-113228380D01*
X116710071Y-112228380D01*
X117043404Y-112704571D02*
X117376738Y-112704571D01*
X117519595Y-113228380D02*
X117043404Y-113228380D01*
X117043404Y-112228380D01*
X117519595Y-112228380D01*
X118519595Y-113228380D02*
X118186261Y-112752190D01*
X117948166Y-113228380D02*
X117948166Y-112228380D01*
X118329119Y-112228380D01*
X118424357Y-112276000D01*
X118471976Y-112323619D01*
X118519595Y-112418857D01*
X118519595Y-112561714D01*
X118471976Y-112656952D01*
X118424357Y-112704571D01*
X118329119Y-112752190D01*
X117948166Y-112752190D01*
X119662452Y-112323619D02*
X119710071Y-112276000D01*
X119805309Y-112228380D01*
X120043404Y-112228380D01*
X120138642Y-112276000D01*
X120186261Y-112323619D01*
X120233880Y-112418857D01*
X120233880Y-112514095D01*
X120186261Y-112656952D01*
X119614833Y-113228380D01*
X120233880Y-113228380D01*
X120852928Y-112228380D02*
X120948166Y-112228380D01*
X121043404Y-112276000D01*
X121091023Y-112323619D01*
X121138642Y-112418857D01*
X121186261Y-112609333D01*
X121186261Y-112847428D01*
X121138642Y-113037904D01*
X121091023Y-113133142D01*
X121043404Y-113180761D01*
X120948166Y-113228380D01*
X120852928Y-113228380D01*
X120757690Y-113180761D01*
X120710071Y-113133142D01*
X120662452Y-113037904D01*
X120614833Y-112847428D01*
X120614833Y-112609333D01*
X120662452Y-112418857D01*
X120710071Y-112323619D01*
X120757690Y-112276000D01*
X120852928Y-112228380D01*
X121567214Y-112323619D02*
X121614833Y-112276000D01*
X121710071Y-112228380D01*
X121948166Y-112228380D01*
X122043404Y-112276000D01*
X122091023Y-112323619D01*
X122138642Y-112418857D01*
X122138642Y-112514095D01*
X122091023Y-112656952D01*
X121519595Y-113228380D01*
X122138642Y-113228380D01*
X122757690Y-112228380D02*
X122852928Y-112228380D01*
X122948166Y-112276000D01*
X122995785Y-112323619D01*
X123043404Y-112418857D01*
X123091023Y-112609333D01*
X123091023Y-112847428D01*
X123043404Y-113037904D01*
X122995785Y-113133142D01*
X122948166Y-113180761D01*
X122852928Y-113228380D01*
X122757690Y-113228380D01*
X122662452Y-113180761D01*
X122614833Y-113133142D01*
X122567214Y-113037904D01*
X122519595Y-112847428D01*
X122519595Y-112609333D01*
X122567214Y-112418857D01*
X122614833Y-112323619D01*
X122662452Y-112276000D01*
X122757690Y-112228380D01*
X115995785Y-109257761D02*
X116138642Y-109305380D01*
X116376738Y-109305380D01*
X116471976Y-109257761D01*
X116519595Y-109210142D01*
X116567214Y-109114904D01*
X116567214Y-109019666D01*
X116519595Y-108924428D01*
X116471976Y-108876809D01*
X116376738Y-108829190D01*
X116186261Y-108781571D01*
X116091023Y-108733952D01*
X116043404Y-108686333D01*
X115995785Y-108591095D01*
X115995785Y-108495857D01*
X116043404Y-108400619D01*
X116091023Y-108353000D01*
X116186261Y-108305380D01*
X116424357Y-108305380D01*
X116567214Y-108353000D01*
X116948166Y-109019666D02*
X117424357Y-109019666D01*
X116852928Y-109305380D02*
X117186261Y-108305380D01*
X117519595Y-109305380D01*
X117805309Y-109019666D02*
X118281500Y-109019666D01*
X117710071Y-109305380D02*
X118043404Y-108305380D01*
X118376738Y-109305380D01*
X119043404Y-108781571D02*
X119186261Y-108829190D01*
X119233880Y-108876809D01*
X119281500Y-108972047D01*
X119281500Y-109114904D01*
X119233880Y-109210142D01*
X119186261Y-109257761D01*
X119091023Y-109305380D01*
X118710071Y-109305380D01*
X118710071Y-108305380D01*
X119043404Y-108305380D01*
X119138642Y-108353000D01*
X119186261Y-108400619D01*
X119233880Y-108495857D01*
X119233880Y-108591095D01*
X119186261Y-108686333D01*
X119138642Y-108733952D01*
X119043404Y-108781571D01*
X118710071Y-108781571D01*
X120471976Y-109305380D02*
X120471976Y-108305380D01*
X120471976Y-108781571D02*
X121043404Y-108781571D01*
X121043404Y-109305380D02*
X121043404Y-108305380D01*
X121519595Y-109305380D02*
X121519595Y-108305380D01*
X121900547Y-108305380D01*
X121995785Y-108353000D01*
X122043404Y-108400619D01*
X122091023Y-108495857D01*
X122091023Y-108638714D01*
X122043404Y-108733952D01*
X121995785Y-108781571D01*
X121900547Y-108829190D01*
X121519595Y-108829190D01*
X122519595Y-109305380D02*
X122519595Y-108305380D01*
X122757690Y-108305380D01*
X122900547Y-108353000D01*
X122995785Y-108448238D01*
X123043404Y-108543476D01*
X123091023Y-108733952D01*
X123091023Y-108876809D01*
X123043404Y-109067285D01*
X122995785Y-109162523D01*
X122900547Y-109257761D01*
X122757690Y-109305380D01*
X122519595Y-109305380D01*
X113233880Y-111055380D02*
X113233880Y-110055380D01*
X113710071Y-111055380D02*
X113710071Y-110055380D01*
X114281500Y-111055380D01*
X114281500Y-110055380D01*
X114614833Y-110055380D02*
X115186261Y-110055380D01*
X114900547Y-111055380D02*
X114900547Y-110055380D01*
X115519595Y-110531571D02*
X115852928Y-110531571D01*
X115995785Y-111055380D02*
X115519595Y-111055380D01*
X115519595Y-110055380D01*
X115995785Y-110055380D01*
X116995785Y-111055380D02*
X116662452Y-110579190D01*
X116424357Y-111055380D02*
X116424357Y-110055380D01*
X116805309Y-110055380D01*
X116900547Y-110103000D01*
X116948166Y-110150619D01*
X116995785Y-110245857D01*
X116995785Y-110388714D01*
X116948166Y-110483952D01*
X116900547Y-110531571D01*
X116805309Y-110579190D01*
X116424357Y-110579190D01*
X117757690Y-110531571D02*
X117424357Y-110531571D01*
X117424357Y-111055380D02*
X117424357Y-110055380D01*
X117900547Y-110055380D01*
X118233880Y-110769666D02*
X118710071Y-110769666D01*
X118138642Y-111055380D02*
X118471976Y-110055380D01*
X118805309Y-111055380D01*
X119710071Y-110960142D02*
X119662452Y-111007761D01*
X119519595Y-111055380D01*
X119424357Y-111055380D01*
X119281500Y-111007761D01*
X119186261Y-110912523D01*
X119138642Y-110817285D01*
X119091023Y-110626809D01*
X119091023Y-110483952D01*
X119138642Y-110293476D01*
X119186261Y-110198238D01*
X119281500Y-110103000D01*
X119424357Y-110055380D01*
X119519595Y-110055380D01*
X119662452Y-110103000D01*
X119710071Y-110150619D01*
X120138642Y-110531571D02*
X120471976Y-110531571D01*
X120614833Y-111055380D02*
X120138642Y-111055380D01*
X120138642Y-110055380D01*
X120614833Y-110055380D01*
X121710071Y-110388714D02*
X121948166Y-111055380D01*
X122186261Y-110388714D01*
X122519595Y-110150619D02*
X122567214Y-110103000D01*
X122662452Y-110055380D01*
X122900547Y-110055380D01*
X122995785Y-110103000D01*
X123043404Y-110150619D01*
X123091023Y-110245857D01*
X123091023Y-110341095D01*
X123043404Y-110483952D01*
X122471976Y-111055380D01*
X123091023Y-111055380D01*
D11*
X76657142Y-115573809D02*
X76680952Y-115550000D01*
X76728571Y-115526190D01*
X76847619Y-115526190D01*
X76895238Y-115550000D01*
X76919047Y-115573809D01*
X76942857Y-115621428D01*
X76942857Y-115669047D01*
X76919047Y-115740476D01*
X76633333Y-116026190D01*
X76942857Y-116026190D01*
X76942857Y-110626190D02*
X76657142Y-110626190D01*
X76800000Y-110626190D02*
X76800000Y-110126190D01*
X76752380Y-110197619D01*
X76704761Y-110245238D01*
X76657142Y-110269047D01*
D12*
X77150000Y-110100000D02*
X77800000Y-110100000D01*
X89150000Y-116600000D02*
X91150000Y-118600000D01*
X77150000Y-116600000D02*
X89150000Y-116600000D01*
X87459523Y-111052380D02*
X86983333Y-111052380D01*
X86935714Y-111528571D01*
X86983333Y-111480952D01*
X87078571Y-111433333D01*
X87316666Y-111433333D01*
X87411904Y-111480952D01*
X87459523Y-111528571D01*
X87507142Y-111623809D01*
X87507142Y-111861904D01*
X87459523Y-111957142D01*
X87411904Y-112004761D01*
X87316666Y-112052380D01*
X87078571Y-112052380D01*
X86983333Y-112004761D01*
X86935714Y-111957142D01*
X87792857Y-111052380D02*
X88126190Y-112052380D01*
X88459523Y-111052380D01*
X86626190Y-115052380D02*
X86626190Y-114052380D01*
X87673809Y-115052380D02*
X87340476Y-114576190D01*
X87102380Y-115052380D02*
X87102380Y-114052380D01*
X87483333Y-114052380D01*
X87578571Y-114100000D01*
X87626190Y-114147619D01*
X87673809Y-114242857D01*
X87673809Y-114385714D01*
X87626190Y-114480952D01*
X87578571Y-114528571D01*
X87483333Y-114576190D01*
X87102380Y-114576190D01*
X88769047Y-115147619D02*
X88673809Y-115100000D01*
X88578571Y-115004761D01*
X88435714Y-114861904D01*
X88340476Y-114814285D01*
X88245238Y-114814285D01*
X88292857Y-115052380D02*
X88197619Y-115004761D01*
X88102380Y-114909523D01*
X88054761Y-114719047D01*
X88054761Y-114385714D01*
X88102380Y-114195238D01*
X88197619Y-114100000D01*
X88292857Y-114052380D01*
X88483333Y-114052380D01*
X88578571Y-114100000D01*
X88673809Y-114195238D01*
X88721428Y-114385714D01*
X88721428Y-114719047D01*
X88673809Y-114909523D01*
X88578571Y-115004761D01*
X88483333Y-115052380D01*
X88292857Y-115052380D01*
X83888095Y-114052380D02*
X84507142Y-114052380D01*
X84173809Y-114433333D01*
X84316666Y-114433333D01*
X84411904Y-114480952D01*
X84459523Y-114528571D01*
X84507142Y-114623809D01*
X84507142Y-114861904D01*
X84459523Y-114957142D01*
X84411904Y-115004761D01*
X84316666Y-115052380D01*
X84030952Y-115052380D01*
X83935714Y-115004761D01*
X83888095Y-114957142D01*
X84792857Y-114052380D02*
X85126190Y-115052380D01*
X85459523Y-114052380D01*
X81483333Y-114957142D02*
X81435714Y-115004761D01*
X81292857Y-115052380D01*
X81197619Y-115052380D01*
X81054761Y-115004761D01*
X80959523Y-114909523D01*
X80911904Y-114814285D01*
X80864285Y-114623809D01*
X80864285Y-114480952D01*
X80911904Y-114290476D01*
X80959523Y-114195238D01*
X81054761Y-114100000D01*
X81197619Y-114052380D01*
X81292857Y-114052380D01*
X81435714Y-114100000D01*
X81483333Y-114147619D01*
X81864285Y-115004761D02*
X82007142Y-115052380D01*
X82245238Y-115052380D01*
X82340476Y-115004761D01*
X82388095Y-114957142D01*
X82435714Y-114861904D01*
X82435714Y-114766666D01*
X82388095Y-114671428D01*
X82340476Y-114623809D01*
X82245238Y-114576190D01*
X82054761Y-114528571D01*
X81959523Y-114480952D01*
X81911904Y-114433333D01*
X81864285Y-114338095D01*
X81864285Y-114242857D01*
X81911904Y-114147619D01*
X81959523Y-114100000D01*
X82054761Y-114052380D01*
X82292857Y-114052380D01*
X82435714Y-114100000D01*
X77840476Y-115004761D02*
X77983333Y-115052380D01*
X78221428Y-115052380D01*
X78316666Y-115004761D01*
X78364285Y-114957142D01*
X78411904Y-114861904D01*
X78411904Y-114766666D01*
X78364285Y-114671428D01*
X78316666Y-114623809D01*
X78221428Y-114576190D01*
X78030952Y-114528571D01*
X77935714Y-114480952D01*
X77888095Y-114433333D01*
X77840476Y-114338095D01*
X77840476Y-114242857D01*
X77888095Y-114147619D01*
X77935714Y-114100000D01*
X78030952Y-114052380D01*
X78269047Y-114052380D01*
X78411904Y-114100000D01*
X79030952Y-114052380D02*
X79221428Y-114052380D01*
X79316666Y-114100000D01*
X79411904Y-114195238D01*
X79459523Y-114385714D01*
X79459523Y-114719047D01*
X79411904Y-114909523D01*
X79316666Y-115004761D01*
X79221428Y-115052380D01*
X79030952Y-115052380D01*
X78935714Y-115004761D01*
X78840476Y-114909523D01*
X78792857Y-114719047D01*
X78792857Y-114385714D01*
X78840476Y-114195238D01*
X78935714Y-114100000D01*
X79030952Y-114052380D01*
X83888095Y-111100000D02*
X83792857Y-111052380D01*
X83650000Y-111052380D01*
X83507142Y-111100000D01*
X83411904Y-111195238D01*
X83364285Y-111290476D01*
X83316666Y-111480952D01*
X83316666Y-111623809D01*
X83364285Y-111814285D01*
X83411904Y-111909523D01*
X83507142Y-112004761D01*
X83650000Y-112052380D01*
X83745238Y-112052380D01*
X83888095Y-112004761D01*
X83935714Y-111957142D01*
X83935714Y-111623809D01*
X83745238Y-111623809D01*
X84364285Y-112052380D02*
X84364285Y-111052380D01*
X84935714Y-112052380D01*
X84935714Y-111052380D01*
X85411904Y-112052380D02*
X85411904Y-111052380D01*
X85650000Y-111052380D01*
X85792857Y-111100000D01*
X85888095Y-111195238D01*
X85935714Y-111290476D01*
X85983333Y-111480952D01*
X85983333Y-111623809D01*
X85935714Y-111814285D01*
X85888095Y-111909523D01*
X85792857Y-112004761D01*
X85650000Y-112052380D01*
X85411904Y-112052380D01*
X81126190Y-112004761D02*
X81269047Y-112052380D01*
X81507142Y-112052380D01*
X81602380Y-112004761D01*
X81650000Y-111957142D01*
X81697619Y-111861904D01*
X81697619Y-111766666D01*
X81650000Y-111671428D01*
X81602380Y-111623809D01*
X81507142Y-111576190D01*
X81316666Y-111528571D01*
X81221428Y-111480952D01*
X81173809Y-111433333D01*
X81126190Y-111338095D01*
X81126190Y-111242857D01*
X81173809Y-111147619D01*
X81221428Y-111100000D01*
X81316666Y-111052380D01*
X81554761Y-111052380D01*
X81697619Y-111100000D01*
X82126190Y-112052380D02*
X82126190Y-111052380D01*
X78054761Y-111957142D02*
X78007142Y-112004761D01*
X77864285Y-112052380D01*
X77769047Y-112052380D01*
X77626190Y-112004761D01*
X77530952Y-111909523D01*
X77483333Y-111814285D01*
X77435714Y-111623809D01*
X77435714Y-111480952D01*
X77483333Y-111290476D01*
X77530952Y-111195238D01*
X77626190Y-111100000D01*
X77769047Y-111052380D01*
X77864285Y-111052380D01*
X78007142Y-111100000D01*
X78054761Y-111147619D01*
X78959523Y-112052380D02*
X78483333Y-112052380D01*
X78483333Y-111052380D01*
X79292857Y-112052380D02*
X79292857Y-111052380D01*
X79864285Y-112052380D02*
X79435714Y-111480952D01*
X79864285Y-111052380D02*
X79292857Y-111623809D01*
X89150000Y-110100000D02*
X89150000Y-116100000D01*
X86150000Y-116100000D02*
X86150000Y-110100000D01*
X83150000Y-110100000D02*
X83150000Y-116100000D01*
X80150000Y-116100000D02*
X80150000Y-110100000D01*
X77150000Y-113100000D02*
X89150000Y-113100000D01*
X89150000Y-116100000D02*
X77150000Y-116100000D01*
X77150000Y-110100000D02*
X89150000Y-110100000D01*
X77150000Y-116100000D02*
X77150000Y-110100000D01*
D13*
X99314000Y-101346000D02*
G75*
G03X99314000Y-101346000I-127000J0D01*
G01*
X98933000Y-101117400D02*
X102158800Y-101117400D01*
X98933000Y-106133900D02*
X98933000Y-101117400D01*
X102146100Y-106133900D02*
X98933000Y-106133900D01*
X102146100Y-101117400D02*
X102146100Y-106133900D01*
X99128000Y-82830500D02*
X99128000Y-82513000D01*
X98680000Y-82830500D02*
X99128000Y-82830500D01*
X99128000Y-76036000D02*
X99128000Y-82513000D01*
X98680000Y-76036000D02*
X99128000Y-76036000D01*
X98680000Y-77627000D02*
X98680000Y-76036000D01*
X98680000Y-77627000D02*
X98680000Y-78957000D01*
X97350000Y-77627000D02*
X98680000Y-77627000D01*
X98680000Y-80227000D02*
X98680000Y-82827000D01*
X96080000Y-80227000D02*
X98680000Y-80227000D01*
X96080000Y-77627000D02*
X96080000Y-80227000D01*
X98680000Y-82827000D02*
X83320000Y-82827000D01*
X96080000Y-77627000D02*
X83320000Y-77627000D01*
X83320000Y-77627000D02*
X83320000Y-82827000D01*
X117628000Y-82830500D02*
X117628000Y-82513000D01*
X117180000Y-82830500D02*
X117628000Y-82830500D01*
X117628000Y-76036000D02*
X117628000Y-82513000D01*
X117180000Y-76036000D02*
X117628000Y-76036000D01*
X117180000Y-77627000D02*
X117180000Y-76036000D01*
X117180000Y-77627000D02*
X117180000Y-78957000D01*
X115850000Y-77627000D02*
X117180000Y-77627000D01*
X117180000Y-80227000D02*
X117180000Y-82827000D01*
X114580000Y-80227000D02*
X117180000Y-80227000D01*
X114580000Y-77627000D02*
X114580000Y-80227000D01*
X117180000Y-82827000D02*
X101820000Y-82827000D01*
X114580000Y-77627000D02*
X101820000Y-77627000D01*
X101820000Y-77627000D02*
X101820000Y-82827000D01*
D12*
X105375000Y-108475000D02*
X105150000Y-108475000D01*
X105375000Y-113125000D02*
X105050000Y-113125000D01*
X95425000Y-113125000D02*
X95750000Y-113125000D01*
X95425000Y-108475000D02*
X95750000Y-108475000D01*
X105375000Y-108475000D02*
X105375000Y-113125000D01*
X95425000Y-108475000D02*
X95425000Y-113125000D01*
X105150000Y-108475000D02*
X105150000Y-107400000D01*
D13*
X108538748Y-94690000D02*
X109061252Y-94690000D01*
X108538748Y-96110000D02*
X109061252Y-96110000D01*
X91738748Y-96110000D02*
X92261252Y-96110000D01*
X91738748Y-94690000D02*
X92261252Y-94690000D01*
X81640000Y-99420000D02*
X81640000Y-100350000D01*
X81640000Y-102580000D02*
X81640000Y-101650000D01*
X81640000Y-102580000D02*
X83800000Y-102580000D01*
X81640000Y-99420000D02*
X83100000Y-99420000D01*
X96260000Y-104161252D02*
X96260000Y-103638748D01*
X94840000Y-104161252D02*
X94840000Y-103638748D01*
X94710000Y-93110000D02*
X94710000Y-91850000D01*
X94710000Y-86290000D02*
X94710000Y-87550000D01*
X90950000Y-93110000D02*
X94710000Y-93110000D01*
X88700000Y-86290000D02*
X94710000Y-86290000D01*
X119810000Y-89750000D02*
X119810000Y-87800000D01*
X119810000Y-89750000D02*
X119810000Y-91700000D01*
X114690000Y-89750000D02*
X114690000Y-87800000D01*
X114690000Y-89750000D02*
X114690000Y-93200000D01*
X85560000Y-89800000D02*
X85560000Y-87850000D01*
X85560000Y-89800000D02*
X85560000Y-91750000D01*
X80440000Y-89800000D02*
X80440000Y-87850000D01*
X80440000Y-89800000D02*
X80440000Y-93250000D01*
X103400000Y-86290000D02*
X109410000Y-86290000D01*
X105650000Y-93110000D02*
X109410000Y-93110000D01*
X109410000Y-86290000D02*
X109410000Y-87550000D01*
X109410000Y-93110000D02*
X109410000Y-91850000D01*
X117560000Y-124260000D02*
X117560000Y-121400000D01*
X115640000Y-124260000D02*
X117560000Y-124260000D01*
X115640000Y-121400000D02*
X115640000Y-124260000D01*
X113440000Y-121400000D02*
X113440000Y-124260000D01*
X113440000Y-124260000D02*
X115360000Y-124260000D01*
X115360000Y-124260000D02*
X115360000Y-121400000D01*
X113160000Y-124260000D02*
X113160000Y-121400000D01*
X111240000Y-124260000D02*
X113160000Y-124260000D01*
X111240000Y-121400000D02*
X111240000Y-124260000D01*
X109040000Y-121400000D02*
X109040000Y-124260000D01*
X109040000Y-124260000D02*
X110960000Y-124260000D01*
X110960000Y-124260000D02*
X110960000Y-121400000D01*
X106760000Y-124260000D02*
X106760000Y-121400000D01*
X104840000Y-124260000D02*
X106760000Y-124260000D01*
X104840000Y-121400000D02*
X104840000Y-124260000D01*
X102640000Y-121400000D02*
X102640000Y-124260000D01*
X102640000Y-124260000D02*
X104560000Y-124260000D01*
X104560000Y-124260000D02*
X104560000Y-121400000D01*
X102360000Y-124260000D02*
X102360000Y-121400000D01*
X100440000Y-124260000D02*
X102360000Y-124260000D01*
X100440000Y-121400000D02*
X100440000Y-124260000D01*
X98240000Y-121400000D02*
X98240000Y-124260000D01*
X98240000Y-124260000D02*
X100160000Y-124260000D01*
X100160000Y-124260000D02*
X100160000Y-121400000D01*
X118860000Y-102580000D02*
X118860000Y-101650000D01*
X118860000Y-99420000D02*
X118860000Y-100350000D01*
X118860000Y-99420000D02*
X116700000Y-99420000D01*
X118860000Y-102580000D02*
X117400000Y-102580000D01*
X113140000Y-99420000D02*
X113140000Y-100350000D01*
X113140000Y-102580000D02*
X113140000Y-101650000D01*
X113140000Y-102580000D02*
X115300000Y-102580000D01*
X113140000Y-99420000D02*
X114600000Y-99420000D01*
X87393333Y-102580000D02*
X85933333Y-102580000D01*
X87393333Y-99420000D02*
X85233333Y-99420000D01*
X87393333Y-99420000D02*
X87393333Y-100350000D01*
X87393333Y-102580000D02*
X87393333Y-101650000D01*
X117838748Y-98510000D02*
X118361252Y-98510000D01*
X117838748Y-97090000D02*
X118361252Y-97090000D01*
X117813748Y-104960000D02*
X118336252Y-104960000D01*
X117813748Y-103540000D02*
X118336252Y-103540000D01*
X114127918Y-97090000D02*
X113605414Y-97090000D01*
X114127918Y-98510000D02*
X113605414Y-98510000D01*
X114261252Y-104960000D02*
X113738748Y-104960000D01*
X114261252Y-103540000D02*
X113738748Y-103540000D01*
X86372081Y-97090000D02*
X86894585Y-97090000D01*
X86372081Y-98510000D02*
X86894585Y-98510000D01*
X86338748Y-103540000D02*
X86861252Y-103540000D01*
X86338748Y-104960000D02*
X86861252Y-104960000D01*
X82661252Y-97090000D02*
X82138748Y-97090000D01*
X82661252Y-98510000D02*
X82138748Y-98510000D01*
X82661252Y-103540000D02*
X82138748Y-103540000D01*
X82661252Y-104960000D02*
X82138748Y-104960000D01*
X117310000Y-118163748D02*
X117310000Y-118686252D01*
X115890000Y-118163748D02*
X115890000Y-118686252D01*
X115110000Y-118163748D02*
X115110000Y-118686252D01*
X113690000Y-118163748D02*
X113690000Y-118686252D01*
X112910000Y-118163748D02*
X112910000Y-118686252D01*
X111490000Y-118163748D02*
X111490000Y-118686252D01*
X109290000Y-118163748D02*
X109290000Y-118686252D01*
X110710000Y-118163748D02*
X110710000Y-118686252D01*
X106510000Y-118163748D02*
X106510000Y-118686252D01*
X105090000Y-118163748D02*
X105090000Y-118686252D01*
X102890000Y-118163748D02*
X102890000Y-118686252D01*
X104310000Y-118163748D02*
X104310000Y-118686252D01*
X102110000Y-118163748D02*
X102110000Y-118686252D01*
X100690000Y-118163748D02*
X100690000Y-118686252D01*
X98490000Y-118163748D02*
X98490000Y-118686252D01*
X99910000Y-118163748D02*
X99910000Y-118686252D01*
X85070000Y-123770000D02*
X85070000Y-121170000D01*
X85070000Y-123770000D02*
X95350000Y-123770000D01*
X95350000Y-123770000D02*
X95350000Y-118570000D01*
X87670000Y-118570000D02*
X95350000Y-118570000D01*
X87670000Y-121170000D02*
X87670000Y-118570000D01*
X85070000Y-121170000D02*
X87670000Y-121170000D01*
X85070000Y-118570000D02*
X86400000Y-118570000D01*
X85070000Y-119900000D02*
X85070000Y-118570000D01*
D11*
X99250666Y-106882380D02*
X99322095Y-106906190D01*
X99441142Y-106906190D01*
X99488761Y-106882380D01*
X99512571Y-106858571D01*
X99536380Y-106810952D01*
X99536380Y-106763333D01*
X99512571Y-106715714D01*
X99488761Y-106691904D01*
X99441142Y-106668095D01*
X99345904Y-106644285D01*
X99298285Y-106620476D01*
X99274476Y-106596666D01*
X99250666Y-106549047D01*
X99250666Y-106501428D01*
X99274476Y-106453809D01*
X99298285Y-106430000D01*
X99345904Y-106406190D01*
X99464952Y-106406190D01*
X99536380Y-106430000D01*
X99988761Y-106406190D02*
X99750666Y-106406190D01*
X99726857Y-106644285D01*
X99750666Y-106620476D01*
X99798285Y-106596666D01*
X99917333Y-106596666D01*
X99964952Y-106620476D01*
X99988761Y-106644285D01*
X100012571Y-106691904D01*
X100012571Y-106810952D01*
X99988761Y-106858571D01*
X99964952Y-106882380D01*
X99917333Y-106906190D01*
X99798285Y-106906190D01*
X99750666Y-106882380D01*
X99726857Y-106858571D01*
X100179238Y-106406190D02*
X100488761Y-106406190D01*
X100322095Y-106596666D01*
X100393523Y-106596666D01*
X100441142Y-106620476D01*
X100464952Y-106644285D01*
X100488761Y-106691904D01*
X100488761Y-106810952D01*
X100464952Y-106858571D01*
X100441142Y-106882380D01*
X100393523Y-106906190D01*
X100250666Y-106906190D01*
X100203047Y-106882380D01*
X100179238Y-106858571D01*
X100655428Y-106406190D02*
X100964952Y-106406190D01*
X100798285Y-106596666D01*
X100869714Y-106596666D01*
X100917333Y-106620476D01*
X100941142Y-106644285D01*
X100964952Y-106691904D01*
X100964952Y-106810952D01*
X100941142Y-106858571D01*
X100917333Y-106882380D01*
X100869714Y-106906190D01*
X100726857Y-106906190D01*
X100679238Y-106882380D01*
X100655428Y-106858571D01*
X101274476Y-106406190D02*
X101322095Y-106406190D01*
X101369714Y-106430000D01*
X101393523Y-106453809D01*
X101417333Y-106501428D01*
X101441142Y-106596666D01*
X101441142Y-106715714D01*
X101417333Y-106810952D01*
X101393523Y-106858571D01*
X101369714Y-106882380D01*
X101322095Y-106906190D01*
X101274476Y-106906190D01*
X101226857Y-106882380D01*
X101203047Y-106858571D01*
X101179238Y-106810952D01*
X101155428Y-106715714D01*
X101155428Y-106596666D01*
X101179238Y-106501428D01*
X101203047Y-106453809D01*
X101226857Y-106430000D01*
X101274476Y-106406190D01*
X101893523Y-106406190D02*
X101655428Y-106406190D01*
X101631619Y-106644285D01*
X101655428Y-106620476D01*
X101703047Y-106596666D01*
X101822095Y-106596666D01*
X101869714Y-106620476D01*
X101893523Y-106644285D01*
X101917333Y-106691904D01*
X101917333Y-106810952D01*
X101893523Y-106858571D01*
X101869714Y-106882380D01*
X101822095Y-106906190D01*
X101703047Y-106906190D01*
X101655428Y-106882380D01*
X101631619Y-106858571D01*
D10*
X87523809Y-85240761D02*
X87666666Y-85288380D01*
X87904761Y-85288380D01*
X88000000Y-85240761D01*
X88047619Y-85193142D01*
X88095238Y-85097904D01*
X88095238Y-85002666D01*
X88047619Y-84907428D01*
X88000000Y-84859809D01*
X87904761Y-84812190D01*
X87714285Y-84764571D01*
X87619047Y-84716952D01*
X87571428Y-84669333D01*
X87523809Y-84574095D01*
X87523809Y-84478857D01*
X87571428Y-84383619D01*
X87619047Y-84336000D01*
X87714285Y-84288380D01*
X87952380Y-84288380D01*
X88095238Y-84336000D01*
X88523809Y-85288380D02*
X88523809Y-84288380D01*
X89000000Y-85288380D02*
X89000000Y-84288380D01*
X89238095Y-84288380D01*
X89380952Y-84336000D01*
X89476190Y-84431238D01*
X89523809Y-84526476D01*
X89571428Y-84716952D01*
X89571428Y-84859809D01*
X89523809Y-85050285D01*
X89476190Y-85145523D01*
X89380952Y-85240761D01*
X89238095Y-85288380D01*
X89000000Y-85288380D01*
X89761904Y-85383619D02*
X90523809Y-85383619D01*
X91333333Y-85193142D02*
X91285714Y-85240761D01*
X91142857Y-85288380D01*
X91047619Y-85288380D01*
X90904761Y-85240761D01*
X90809523Y-85145523D01*
X90761904Y-85050285D01*
X90714285Y-84859809D01*
X90714285Y-84716952D01*
X90761904Y-84526476D01*
X90809523Y-84431238D01*
X90904761Y-84336000D01*
X91047619Y-84288380D01*
X91142857Y-84288380D01*
X91285714Y-84336000D01*
X91333333Y-84383619D01*
X91952380Y-84288380D02*
X92142857Y-84288380D01*
X92238095Y-84336000D01*
X92333333Y-84431238D01*
X92380952Y-84621714D01*
X92380952Y-84955047D01*
X92333333Y-85145523D01*
X92238095Y-85240761D01*
X92142857Y-85288380D01*
X91952380Y-85288380D01*
X91857142Y-85240761D01*
X91761904Y-85145523D01*
X91714285Y-84955047D01*
X91714285Y-84621714D01*
X91761904Y-84431238D01*
X91857142Y-84336000D01*
X91952380Y-84288380D01*
X92809523Y-85288380D02*
X92809523Y-84288380D01*
X93380952Y-85288380D01*
X93380952Y-84288380D01*
X93857142Y-85288380D02*
X93857142Y-84288380D01*
X94428571Y-85288380D01*
X94428571Y-84288380D01*
D11*
X91555714Y-83453571D02*
X91531904Y-83477380D01*
X91460476Y-83501190D01*
X91412857Y-83501190D01*
X91341428Y-83477380D01*
X91293809Y-83429761D01*
X91270000Y-83382142D01*
X91246190Y-83286904D01*
X91246190Y-83215476D01*
X91270000Y-83120238D01*
X91293809Y-83072619D01*
X91341428Y-83025000D01*
X91412857Y-83001190D01*
X91460476Y-83001190D01*
X91531904Y-83025000D01*
X91555714Y-83048809D01*
X91746190Y-83358333D02*
X91984285Y-83358333D01*
X91698571Y-83501190D02*
X91865238Y-83001190D01*
X92031904Y-83501190D01*
X92198571Y-83501190D02*
X92198571Y-83001190D01*
X92484285Y-83501190D01*
X92484285Y-83001190D01*
X92603333Y-83548809D02*
X92984285Y-83548809D01*
X93341428Y-83501190D02*
X93103333Y-83501190D01*
X93103333Y-83001190D01*
X88956190Y-83453571D02*
X88932380Y-83477380D01*
X88860952Y-83501190D01*
X88813333Y-83501190D01*
X88741904Y-83477380D01*
X88694285Y-83429761D01*
X88670476Y-83382142D01*
X88646666Y-83286904D01*
X88646666Y-83215476D01*
X88670476Y-83120238D01*
X88694285Y-83072619D01*
X88741904Y-83025000D01*
X88813333Y-83001190D01*
X88860952Y-83001190D01*
X88932380Y-83025000D01*
X88956190Y-83048809D01*
X89146666Y-83358333D02*
X89384761Y-83358333D01*
X89099047Y-83501190D02*
X89265714Y-83001190D01*
X89432380Y-83501190D01*
X89599047Y-83501190D02*
X89599047Y-83001190D01*
X89884761Y-83501190D01*
X89884761Y-83001190D01*
X90003809Y-83548809D02*
X90384761Y-83548809D01*
X90503809Y-83501190D02*
X90503809Y-83001190D01*
X90503809Y-83239285D02*
X90789523Y-83239285D01*
X90789523Y-83501190D02*
X90789523Y-83001190D01*
X84150000Y-77143285D02*
X84221428Y-77167095D01*
X84245238Y-77190904D01*
X84269047Y-77238523D01*
X84269047Y-77309952D01*
X84245238Y-77357571D01*
X84221428Y-77381380D01*
X84173809Y-77405190D01*
X83983333Y-77405190D01*
X83983333Y-76905190D01*
X84150000Y-76905190D01*
X84197619Y-76929000D01*
X84221428Y-76952809D01*
X84245238Y-77000428D01*
X84245238Y-77048047D01*
X84221428Y-77095666D01*
X84197619Y-77119476D01*
X84150000Y-77143285D01*
X83983333Y-77143285D01*
X84769047Y-77357571D02*
X84745238Y-77381380D01*
X84673809Y-77405190D01*
X84626190Y-77405190D01*
X84554761Y-77381380D01*
X84507142Y-77333761D01*
X84483333Y-77286142D01*
X84459523Y-77190904D01*
X84459523Y-77119476D01*
X84483333Y-77024238D01*
X84507142Y-76976619D01*
X84554761Y-76929000D01*
X84626190Y-76905190D01*
X84673809Y-76905190D01*
X84745238Y-76929000D01*
X84769047Y-76952809D01*
X84983333Y-77405190D02*
X84983333Y-76905190D01*
X85150000Y-77262333D01*
X85316666Y-76905190D01*
X85316666Y-77405190D01*
X86880476Y-77405190D02*
X86594761Y-77405190D01*
X86737619Y-77405190D02*
X86737619Y-76905190D01*
X86690000Y-76976619D01*
X86642380Y-77024238D01*
X86594761Y-77048047D01*
X87070952Y-76952809D02*
X87094761Y-76929000D01*
X87142380Y-76905190D01*
X87261428Y-76905190D01*
X87309047Y-76929000D01*
X87332857Y-76952809D01*
X87356666Y-77000428D01*
X87356666Y-77048047D01*
X87332857Y-77119476D01*
X87047142Y-77405190D01*
X87356666Y-77405190D01*
X87499523Y-76905190D02*
X87666190Y-77405190D01*
X87832857Y-76905190D01*
X91365238Y-76905190D02*
X91484285Y-77405190D01*
X91579523Y-77048047D01*
X91674761Y-77405190D01*
X91793809Y-76905190D01*
X91960476Y-77262333D02*
X92198571Y-77262333D01*
X91912857Y-77405190D02*
X92079523Y-76905190D01*
X92246190Y-77405190D01*
X92412857Y-77405190D02*
X92412857Y-76905190D01*
X92698571Y-77405190D02*
X92484285Y-77119476D01*
X92698571Y-76905190D02*
X92412857Y-77190904D01*
X92912857Y-77143285D02*
X93079523Y-77143285D01*
X93150952Y-77405190D02*
X92912857Y-77405190D01*
X92912857Y-76905190D01*
X93150952Y-76905190D01*
X94429047Y-76929000D02*
X94381428Y-76905190D01*
X94310000Y-76905190D01*
X94238571Y-76929000D01*
X94190952Y-76976619D01*
X94167142Y-77024238D01*
X94143333Y-77119476D01*
X94143333Y-77190904D01*
X94167142Y-77286142D01*
X94190952Y-77333761D01*
X94238571Y-77381380D01*
X94310000Y-77405190D01*
X94357619Y-77405190D01*
X94429047Y-77381380D01*
X94452857Y-77357571D01*
X94452857Y-77190904D01*
X94357619Y-77190904D01*
X94667142Y-77405190D02*
X94667142Y-76905190D01*
X94952857Y-77405190D01*
X94952857Y-76905190D01*
X95190952Y-77405190D02*
X95190952Y-76905190D01*
X95310000Y-76905190D01*
X95381428Y-76929000D01*
X95429047Y-76976619D01*
X95452857Y-77024238D01*
X95476666Y-77119476D01*
X95476666Y-77190904D01*
X95452857Y-77286142D01*
X95429047Y-77333761D01*
X95381428Y-77381380D01*
X95310000Y-77405190D01*
X95190952Y-77405190D01*
D10*
X105976190Y-85288380D02*
X105976190Y-84288380D01*
X107023809Y-85193142D02*
X106976190Y-85240761D01*
X106833333Y-85288380D01*
X106738095Y-85288380D01*
X106595238Y-85240761D01*
X106500000Y-85145523D01*
X106452380Y-85050285D01*
X106404761Y-84859809D01*
X106404761Y-84716952D01*
X106452380Y-84526476D01*
X106500000Y-84431238D01*
X106595238Y-84336000D01*
X106738095Y-84288380D01*
X106833333Y-84288380D01*
X106976190Y-84336000D01*
X107023809Y-84383619D01*
X107452380Y-85288380D02*
X107452380Y-84288380D01*
X107785714Y-85002666D01*
X108119047Y-84288380D01*
X108119047Y-85288380D01*
X108357142Y-85383619D02*
X109119047Y-85383619D01*
X109928571Y-85193142D02*
X109880952Y-85240761D01*
X109738095Y-85288380D01*
X109642857Y-85288380D01*
X109500000Y-85240761D01*
X109404761Y-85145523D01*
X109357142Y-85050285D01*
X109309523Y-84859809D01*
X109309523Y-84716952D01*
X109357142Y-84526476D01*
X109404761Y-84431238D01*
X109500000Y-84336000D01*
X109642857Y-84288380D01*
X109738095Y-84288380D01*
X109880952Y-84336000D01*
X109928571Y-84383619D01*
X110547619Y-84288380D02*
X110738095Y-84288380D01*
X110833333Y-84336000D01*
X110928571Y-84431238D01*
X110976190Y-84621714D01*
X110976190Y-84955047D01*
X110928571Y-85145523D01*
X110833333Y-85240761D01*
X110738095Y-85288380D01*
X110547619Y-85288380D01*
X110452380Y-85240761D01*
X110357142Y-85145523D01*
X110309523Y-84955047D01*
X110309523Y-84621714D01*
X110357142Y-84431238D01*
X110452380Y-84336000D01*
X110547619Y-84288380D01*
X111404761Y-85288380D02*
X111404761Y-84288380D01*
X111976190Y-85288380D01*
X111976190Y-84288380D01*
X112452380Y-85288380D02*
X112452380Y-84288380D01*
X113023809Y-85288380D01*
X113023809Y-84288380D01*
D11*
X110055714Y-83453571D02*
X110031904Y-83477380D01*
X109960476Y-83501190D01*
X109912857Y-83501190D01*
X109841428Y-83477380D01*
X109793809Y-83429761D01*
X109770000Y-83382142D01*
X109746190Y-83286904D01*
X109746190Y-83215476D01*
X109770000Y-83120238D01*
X109793809Y-83072619D01*
X109841428Y-83025000D01*
X109912857Y-83001190D01*
X109960476Y-83001190D01*
X110031904Y-83025000D01*
X110055714Y-83048809D01*
X110246190Y-83358333D02*
X110484285Y-83358333D01*
X110198571Y-83501190D02*
X110365238Y-83001190D01*
X110531904Y-83501190D01*
X110698571Y-83501190D02*
X110698571Y-83001190D01*
X110984285Y-83501190D01*
X110984285Y-83001190D01*
X111103333Y-83548809D02*
X111484285Y-83548809D01*
X111841428Y-83501190D02*
X111603333Y-83501190D01*
X111603333Y-83001190D01*
X107456190Y-83453571D02*
X107432380Y-83477380D01*
X107360952Y-83501190D01*
X107313333Y-83501190D01*
X107241904Y-83477380D01*
X107194285Y-83429761D01*
X107170476Y-83382142D01*
X107146666Y-83286904D01*
X107146666Y-83215476D01*
X107170476Y-83120238D01*
X107194285Y-83072619D01*
X107241904Y-83025000D01*
X107313333Y-83001190D01*
X107360952Y-83001190D01*
X107432380Y-83025000D01*
X107456190Y-83048809D01*
X107646666Y-83358333D02*
X107884761Y-83358333D01*
X107599047Y-83501190D02*
X107765714Y-83001190D01*
X107932380Y-83501190D01*
X108099047Y-83501190D02*
X108099047Y-83001190D01*
X108384761Y-83501190D01*
X108384761Y-83001190D01*
X108503809Y-83548809D02*
X108884761Y-83548809D01*
X109003809Y-83501190D02*
X109003809Y-83001190D01*
X109003809Y-83239285D02*
X109289523Y-83239285D01*
X109289523Y-83501190D02*
X109289523Y-83001190D01*
X102650000Y-77143285D02*
X102721428Y-77167095D01*
X102745238Y-77190904D01*
X102769047Y-77238523D01*
X102769047Y-77309952D01*
X102745238Y-77357571D01*
X102721428Y-77381380D01*
X102673809Y-77405190D01*
X102483333Y-77405190D01*
X102483333Y-76905190D01*
X102650000Y-76905190D01*
X102697619Y-76929000D01*
X102721428Y-76952809D01*
X102745238Y-77000428D01*
X102745238Y-77048047D01*
X102721428Y-77095666D01*
X102697619Y-77119476D01*
X102650000Y-77143285D01*
X102483333Y-77143285D01*
X103269047Y-77357571D02*
X103245238Y-77381380D01*
X103173809Y-77405190D01*
X103126190Y-77405190D01*
X103054761Y-77381380D01*
X103007142Y-77333761D01*
X102983333Y-77286142D01*
X102959523Y-77190904D01*
X102959523Y-77119476D01*
X102983333Y-77024238D01*
X103007142Y-76976619D01*
X103054761Y-76929000D01*
X103126190Y-76905190D01*
X103173809Y-76905190D01*
X103245238Y-76929000D01*
X103269047Y-76952809D01*
X103483333Y-77405190D02*
X103483333Y-76905190D01*
X103650000Y-77262333D01*
X103816666Y-76905190D01*
X103816666Y-77405190D01*
X105380476Y-77405190D02*
X105094761Y-77405190D01*
X105237619Y-77405190D02*
X105237619Y-76905190D01*
X105190000Y-76976619D01*
X105142380Y-77024238D01*
X105094761Y-77048047D01*
X105570952Y-76952809D02*
X105594761Y-76929000D01*
X105642380Y-76905190D01*
X105761428Y-76905190D01*
X105809047Y-76929000D01*
X105832857Y-76952809D01*
X105856666Y-77000428D01*
X105856666Y-77048047D01*
X105832857Y-77119476D01*
X105547142Y-77405190D01*
X105856666Y-77405190D01*
X105999523Y-76905190D02*
X106166190Y-77405190D01*
X106332857Y-76905190D01*
X109865238Y-76905190D02*
X109984285Y-77405190D01*
X110079523Y-77048047D01*
X110174761Y-77405190D01*
X110293809Y-76905190D01*
X110460476Y-77262333D02*
X110698571Y-77262333D01*
X110412857Y-77405190D02*
X110579523Y-76905190D01*
X110746190Y-77405190D01*
X110912857Y-77405190D02*
X110912857Y-76905190D01*
X111198571Y-77405190D02*
X110984285Y-77119476D01*
X111198571Y-76905190D02*
X110912857Y-77190904D01*
X111412857Y-77143285D02*
X111579523Y-77143285D01*
X111650952Y-77405190D02*
X111412857Y-77405190D01*
X111412857Y-76905190D01*
X111650952Y-76905190D01*
X112929047Y-76929000D02*
X112881428Y-76905190D01*
X112810000Y-76905190D01*
X112738571Y-76929000D01*
X112690952Y-76976619D01*
X112667142Y-77024238D01*
X112643333Y-77119476D01*
X112643333Y-77190904D01*
X112667142Y-77286142D01*
X112690952Y-77333761D01*
X112738571Y-77381380D01*
X112810000Y-77405190D01*
X112857619Y-77405190D01*
X112929047Y-77381380D01*
X112952857Y-77357571D01*
X112952857Y-77190904D01*
X112857619Y-77190904D01*
X113167142Y-77405190D02*
X113167142Y-76905190D01*
X113452857Y-77405190D01*
X113452857Y-76905190D01*
X113690952Y-77405190D02*
X113690952Y-76905190D01*
X113810000Y-76905190D01*
X113881428Y-76929000D01*
X113929047Y-76976619D01*
X113952857Y-77024238D01*
X113976666Y-77119476D01*
X113976666Y-77190904D01*
X113952857Y-77286142D01*
X113929047Y-77333761D01*
X113881428Y-77381380D01*
X113810000Y-77405190D01*
X113690952Y-77405190D01*
X97861761Y-115137380D02*
X97933190Y-115161190D01*
X98052238Y-115161190D01*
X98099857Y-115137380D01*
X98123666Y-115113571D01*
X98147476Y-115065952D01*
X98147476Y-115018333D01*
X98123666Y-114970714D01*
X98099857Y-114946904D01*
X98052238Y-114923095D01*
X97957000Y-114899285D01*
X97909380Y-114875476D01*
X97885571Y-114851666D01*
X97861761Y-114804047D01*
X97861761Y-114756428D01*
X97885571Y-114708809D01*
X97909380Y-114685000D01*
X97957000Y-114661190D01*
X98076047Y-114661190D01*
X98147476Y-114685000D01*
X98647476Y-115113571D02*
X98623666Y-115137380D01*
X98552238Y-115161190D01*
X98504619Y-115161190D01*
X98433190Y-115137380D01*
X98385571Y-115089761D01*
X98361761Y-115042142D01*
X98337952Y-114946904D01*
X98337952Y-114875476D01*
X98361761Y-114780238D01*
X98385571Y-114732619D01*
X98433190Y-114685000D01*
X98504619Y-114661190D01*
X98552238Y-114661190D01*
X98623666Y-114685000D01*
X98647476Y-114708809D01*
X99123666Y-115161190D02*
X98837952Y-115161190D01*
X98980809Y-115161190D02*
X98980809Y-114661190D01*
X98933190Y-114732619D01*
X98885571Y-114780238D01*
X98837952Y-114804047D01*
X99552238Y-114661190D02*
X99457000Y-114661190D01*
X99409380Y-114685000D01*
X99385571Y-114708809D01*
X99337952Y-114780238D01*
X99314142Y-114875476D01*
X99314142Y-115065952D01*
X99337952Y-115113571D01*
X99361761Y-115137380D01*
X99409380Y-115161190D01*
X99504619Y-115161190D01*
X99552238Y-115137380D01*
X99576047Y-115113571D01*
X99599857Y-115065952D01*
X99599857Y-114946904D01*
X99576047Y-114899285D01*
X99552238Y-114875476D01*
X99504619Y-114851666D01*
X99409380Y-114851666D01*
X99361761Y-114875476D01*
X99337952Y-114899285D01*
X99314142Y-114946904D01*
X99814142Y-115161190D02*
X99814142Y-114661190D01*
X100028428Y-115137380D02*
X100099857Y-115161190D01*
X100218904Y-115161190D01*
X100266523Y-115137380D01*
X100290333Y-115113571D01*
X100314142Y-115065952D01*
X100314142Y-115018333D01*
X100290333Y-114970714D01*
X100266523Y-114946904D01*
X100218904Y-114923095D01*
X100123666Y-114899285D01*
X100076047Y-114875476D01*
X100052238Y-114851666D01*
X100028428Y-114804047D01*
X100028428Y-114756428D01*
X100052238Y-114708809D01*
X100076047Y-114685000D01*
X100123666Y-114661190D01*
X100242714Y-114661190D01*
X100314142Y-114685000D01*
X100480809Y-114661190D02*
X100814142Y-114661190D01*
X100599857Y-115161190D01*
X101242714Y-114661190D02*
X101004619Y-114661190D01*
X100980809Y-114899285D01*
X101004619Y-114875476D01*
X101052238Y-114851666D01*
X101171285Y-114851666D01*
X101218904Y-114875476D01*
X101242714Y-114899285D01*
X101266523Y-114946904D01*
X101266523Y-115065952D01*
X101242714Y-115113571D01*
X101218904Y-115137380D01*
X101171285Y-115161190D01*
X101052238Y-115161190D01*
X101004619Y-115137380D01*
X100980809Y-115113571D01*
X101457000Y-114708809D02*
X101480809Y-114685000D01*
X101528428Y-114661190D01*
X101647476Y-114661190D01*
X101695095Y-114685000D01*
X101718904Y-114708809D01*
X101742714Y-114756428D01*
X101742714Y-114804047D01*
X101718904Y-114875476D01*
X101433190Y-115161190D01*
X101742714Y-115161190D01*
X101957000Y-115161190D02*
X101957000Y-114661190D01*
X102195095Y-115161190D02*
X102195095Y-114661190D01*
X102385571Y-114661190D01*
X102433190Y-114685000D01*
X102457000Y-114708809D01*
X102480809Y-114756428D01*
X102480809Y-114827857D01*
X102457000Y-114875476D01*
X102433190Y-114899285D01*
X102385571Y-114923095D01*
X102195095Y-114923095D01*
X102647476Y-114661190D02*
X102766523Y-115161190D01*
X102861761Y-114804047D01*
X102957000Y-115161190D01*
X103076047Y-114661190D01*
X108065190Y-97000190D02*
X107779476Y-97000190D01*
X107922333Y-97000190D02*
X107922333Y-96500190D01*
X107874714Y-96571619D01*
X107827095Y-96619238D01*
X107779476Y-96643047D01*
X108374714Y-96500190D02*
X108422333Y-96500190D01*
X108469952Y-96524000D01*
X108493761Y-96547809D01*
X108517571Y-96595428D01*
X108541380Y-96690666D01*
X108541380Y-96809714D01*
X108517571Y-96904952D01*
X108493761Y-96952571D01*
X108469952Y-96976380D01*
X108422333Y-97000190D01*
X108374714Y-97000190D01*
X108327095Y-96976380D01*
X108303285Y-96952571D01*
X108279476Y-96904952D01*
X108255666Y-96809714D01*
X108255666Y-96690666D01*
X108279476Y-96595428D01*
X108303285Y-96547809D01*
X108327095Y-96524000D01*
X108374714Y-96500190D01*
X108850904Y-96500190D02*
X108898523Y-96500190D01*
X108946142Y-96524000D01*
X108969952Y-96547809D01*
X108993761Y-96595428D01*
X109017571Y-96690666D01*
X109017571Y-96809714D01*
X108993761Y-96904952D01*
X108969952Y-96952571D01*
X108946142Y-96976380D01*
X108898523Y-97000190D01*
X108850904Y-97000190D01*
X108803285Y-96976380D01*
X108779476Y-96952571D01*
X108755666Y-96904952D01*
X108731857Y-96809714D01*
X108731857Y-96690666D01*
X108755666Y-96595428D01*
X108779476Y-96547809D01*
X108803285Y-96524000D01*
X108850904Y-96500190D01*
X109231857Y-96666857D02*
X109231857Y-97000190D01*
X109231857Y-96714476D02*
X109255666Y-96690666D01*
X109303285Y-96666857D01*
X109374714Y-96666857D01*
X109422333Y-96690666D01*
X109446142Y-96738285D01*
X109446142Y-97000190D01*
X109850904Y-96738285D02*
X109684238Y-96738285D01*
X109684238Y-97000190D02*
X109684238Y-96500190D01*
X109922333Y-96500190D01*
X91226190Y-97000190D02*
X90940476Y-97000190D01*
X91083333Y-97000190D02*
X91083333Y-96500190D01*
X91035714Y-96571619D01*
X90988095Y-96619238D01*
X90940476Y-96643047D01*
X91535714Y-96500190D02*
X91583333Y-96500190D01*
X91630952Y-96524000D01*
X91654761Y-96547809D01*
X91678571Y-96595428D01*
X91702380Y-96690666D01*
X91702380Y-96809714D01*
X91678571Y-96904952D01*
X91654761Y-96952571D01*
X91630952Y-96976380D01*
X91583333Y-97000190D01*
X91535714Y-97000190D01*
X91488095Y-96976380D01*
X91464285Y-96952571D01*
X91440476Y-96904952D01*
X91416666Y-96809714D01*
X91416666Y-96690666D01*
X91440476Y-96595428D01*
X91464285Y-96547809D01*
X91488095Y-96524000D01*
X91535714Y-96500190D01*
X92011904Y-96500190D02*
X92059523Y-96500190D01*
X92107142Y-96524000D01*
X92130952Y-96547809D01*
X92154761Y-96595428D01*
X92178571Y-96690666D01*
X92178571Y-96809714D01*
X92154761Y-96904952D01*
X92130952Y-96952571D01*
X92107142Y-96976380D01*
X92059523Y-97000190D01*
X92011904Y-97000190D01*
X91964285Y-96976380D01*
X91940476Y-96952571D01*
X91916666Y-96904952D01*
X91892857Y-96809714D01*
X91892857Y-96690666D01*
X91916666Y-96595428D01*
X91940476Y-96547809D01*
X91964285Y-96524000D01*
X92011904Y-96500190D01*
X92392857Y-96666857D02*
X92392857Y-97000190D01*
X92392857Y-96714476D02*
X92416666Y-96690666D01*
X92464285Y-96666857D01*
X92535714Y-96666857D01*
X92583333Y-96690666D01*
X92607142Y-96738285D01*
X92607142Y-97000190D01*
X93011904Y-96738285D02*
X92845238Y-96738285D01*
X92845238Y-97000190D02*
X92845238Y-96500190D01*
X93083333Y-96500190D01*
X80228285Y-102246761D02*
X80252095Y-102175333D01*
X80275904Y-102151523D01*
X80323523Y-102127714D01*
X80394952Y-102127714D01*
X80442571Y-102151523D01*
X80466380Y-102175333D01*
X80490190Y-102222952D01*
X80490190Y-102413428D01*
X79990190Y-102413428D01*
X79990190Y-102246761D01*
X80014000Y-102199142D01*
X80037809Y-102175333D01*
X80085428Y-102151523D01*
X80133047Y-102151523D01*
X80180666Y-102175333D01*
X80204476Y-102199142D01*
X80228285Y-102246761D01*
X80228285Y-102413428D01*
X80466380Y-101937238D02*
X80490190Y-101865809D01*
X80490190Y-101746761D01*
X80466380Y-101699142D01*
X80442571Y-101675333D01*
X80394952Y-101651523D01*
X80347333Y-101651523D01*
X80299714Y-101675333D01*
X80275904Y-101699142D01*
X80252095Y-101746761D01*
X80228285Y-101842000D01*
X80204476Y-101889619D01*
X80180666Y-101913428D01*
X80133047Y-101937238D01*
X80085428Y-101937238D01*
X80037809Y-101913428D01*
X80014000Y-101889619D01*
X79990190Y-101842000D01*
X79990190Y-101722952D01*
X80014000Y-101651523D01*
X80466380Y-101461047D02*
X80490190Y-101389619D01*
X80490190Y-101270571D01*
X80466380Y-101222952D01*
X80442571Y-101199142D01*
X80394952Y-101175333D01*
X80347333Y-101175333D01*
X80299714Y-101199142D01*
X80275904Y-101222952D01*
X80252095Y-101270571D01*
X80228285Y-101365809D01*
X80204476Y-101413428D01*
X80180666Y-101437238D01*
X80133047Y-101461047D01*
X80085428Y-101461047D01*
X80037809Y-101437238D01*
X80014000Y-101413428D01*
X79990190Y-101365809D01*
X79990190Y-101246761D01*
X80014000Y-101175333D01*
X80490190Y-100699142D02*
X80490190Y-100984857D01*
X80490190Y-100842000D02*
X79990190Y-100842000D01*
X80061619Y-100889619D01*
X80109238Y-100937238D01*
X80133047Y-100984857D01*
X79990190Y-100532476D02*
X79990190Y-100222952D01*
X80180666Y-100389619D01*
X80180666Y-100318190D01*
X80204476Y-100270571D01*
X80228285Y-100246761D01*
X80275904Y-100222952D01*
X80394952Y-100222952D01*
X80442571Y-100246761D01*
X80466380Y-100270571D01*
X80490190Y-100318190D01*
X80490190Y-100461047D01*
X80466380Y-100508666D01*
X80442571Y-100532476D01*
X80204476Y-99937238D02*
X80180666Y-99984857D01*
X80156857Y-100008666D01*
X80109238Y-100032476D01*
X80085428Y-100032476D01*
X80037809Y-100008666D01*
X80014000Y-99984857D01*
X79990190Y-99937238D01*
X79990190Y-99842000D01*
X80014000Y-99794380D01*
X80037809Y-99770571D01*
X80085428Y-99746761D01*
X80109238Y-99746761D01*
X80156857Y-99770571D01*
X80180666Y-99794380D01*
X80204476Y-99842000D01*
X80204476Y-99937238D01*
X80228285Y-99984857D01*
X80252095Y-100008666D01*
X80299714Y-100032476D01*
X80394952Y-100032476D01*
X80442571Y-100008666D01*
X80466380Y-99984857D01*
X80490190Y-99937238D01*
X80490190Y-99842000D01*
X80466380Y-99794380D01*
X80442571Y-99770571D01*
X80394952Y-99746761D01*
X80299714Y-99746761D01*
X80252095Y-99770571D01*
X80228285Y-99794380D01*
X80204476Y-99842000D01*
X95523857Y-106398190D02*
X95238142Y-106398190D01*
X95381000Y-106398190D02*
X95381000Y-105898190D01*
X95333380Y-105969619D01*
X95285761Y-106017238D01*
X95238142Y-106041047D01*
X95738142Y-106398190D02*
X95738142Y-105898190D01*
X96023857Y-106398190D02*
X95809571Y-106112476D01*
X96023857Y-105898190D02*
X95738142Y-106183904D01*
X89614761Y-94206190D02*
X89614761Y-93706190D01*
X89781428Y-94063333D01*
X89948095Y-93706190D01*
X89948095Y-94206190D01*
X90471904Y-94158571D02*
X90448095Y-94182380D01*
X90376666Y-94206190D01*
X90329047Y-94206190D01*
X90257619Y-94182380D01*
X90210000Y-94134761D01*
X90186190Y-94087142D01*
X90162380Y-93991904D01*
X90162380Y-93920476D01*
X90186190Y-93825238D01*
X90210000Y-93777619D01*
X90257619Y-93730000D01*
X90329047Y-93706190D01*
X90376666Y-93706190D01*
X90448095Y-93730000D01*
X90471904Y-93753809D01*
X90686190Y-94206190D02*
X90686190Y-93706190D01*
X90876666Y-93706190D01*
X90924285Y-93730000D01*
X90948095Y-93753809D01*
X90971904Y-93801428D01*
X90971904Y-93872857D01*
X90948095Y-93920476D01*
X90924285Y-93944285D01*
X90876666Y-93968095D01*
X90686190Y-93968095D01*
X91448095Y-94206190D02*
X91162380Y-94206190D01*
X91305238Y-94206190D02*
X91305238Y-93706190D01*
X91257619Y-93777619D01*
X91210000Y-93825238D01*
X91162380Y-93849047D01*
X91614761Y-93706190D02*
X91948095Y-93706190D01*
X91733809Y-94206190D01*
X92233809Y-93706190D02*
X92281428Y-93706190D01*
X92329047Y-93730000D01*
X92352857Y-93753809D01*
X92376666Y-93801428D01*
X92400476Y-93896666D01*
X92400476Y-94015714D01*
X92376666Y-94110952D01*
X92352857Y-94158571D01*
X92329047Y-94182380D01*
X92281428Y-94206190D01*
X92233809Y-94206190D01*
X92186190Y-94182380D01*
X92162380Y-94158571D01*
X92138571Y-94110952D01*
X92114761Y-94015714D01*
X92114761Y-93896666D01*
X92138571Y-93801428D01*
X92162380Y-93753809D01*
X92186190Y-93730000D01*
X92233809Y-93706190D01*
X92567142Y-93706190D02*
X92876666Y-93706190D01*
X92710000Y-93896666D01*
X92781428Y-93896666D01*
X92829047Y-93920476D01*
X92852857Y-93944285D01*
X92876666Y-93991904D01*
X92876666Y-94110952D01*
X92852857Y-94158571D01*
X92829047Y-94182380D01*
X92781428Y-94206190D01*
X92638571Y-94206190D01*
X92590952Y-94182380D01*
X92567142Y-94158571D01*
X93067142Y-94063333D02*
X93305238Y-94063333D01*
X93019523Y-94206190D02*
X93186190Y-93706190D01*
X93352857Y-94206190D01*
X93519523Y-94015714D02*
X93900476Y-94015714D01*
X94090952Y-93706190D02*
X94400476Y-93706190D01*
X94233809Y-93896666D01*
X94305238Y-93896666D01*
X94352857Y-93920476D01*
X94376666Y-93944285D01*
X94400476Y-93991904D01*
X94400476Y-94110952D01*
X94376666Y-94158571D01*
X94352857Y-94182380D01*
X94305238Y-94206190D01*
X94162380Y-94206190D01*
X94114761Y-94182380D01*
X94090952Y-94158571D01*
X94567142Y-93706190D02*
X94876666Y-93706190D01*
X94710000Y-93896666D01*
X94781428Y-93896666D01*
X94829047Y-93920476D01*
X94852857Y-93944285D01*
X94876666Y-93991904D01*
X94876666Y-94110952D01*
X94852857Y-94158571D01*
X94829047Y-94182380D01*
X94781428Y-94206190D01*
X94638571Y-94206190D01*
X94590952Y-94182380D01*
X94567142Y-94158571D01*
X95186190Y-93706190D02*
X95233809Y-93706190D01*
X95281428Y-93730000D01*
X95305238Y-93753809D01*
X95329047Y-93801428D01*
X95352857Y-93896666D01*
X95352857Y-94015714D01*
X95329047Y-94110952D01*
X95305238Y-94158571D01*
X95281428Y-94182380D01*
X95233809Y-94206190D01*
X95186190Y-94206190D01*
X95138571Y-94182380D01*
X95114761Y-94158571D01*
X95090952Y-94110952D01*
X95067142Y-94015714D01*
X95067142Y-93896666D01*
X95090952Y-93801428D01*
X95114761Y-93753809D01*
X95138571Y-93730000D01*
X95186190Y-93706190D01*
X95543333Y-93753809D02*
X95567142Y-93730000D01*
X95614761Y-93706190D01*
X95733809Y-93706190D01*
X95781428Y-93730000D01*
X95805238Y-93753809D01*
X95829047Y-93801428D01*
X95829047Y-93849047D01*
X95805238Y-93920476D01*
X95519523Y-94206190D01*
X95829047Y-94206190D01*
X115185285Y-94206190D02*
X115185285Y-93706190D01*
X115375761Y-93706190D01*
X115423380Y-93730000D01*
X115447190Y-93753809D01*
X115471000Y-93801428D01*
X115471000Y-93872857D01*
X115447190Y-93920476D01*
X115423380Y-93944285D01*
X115375761Y-93968095D01*
X115185285Y-93968095D01*
X115971000Y-94158571D02*
X115947190Y-94182380D01*
X115875761Y-94206190D01*
X115828142Y-94206190D01*
X115756714Y-94182380D01*
X115709095Y-94134761D01*
X115685285Y-94087142D01*
X115661476Y-93991904D01*
X115661476Y-93920476D01*
X115685285Y-93825238D01*
X115709095Y-93777619D01*
X115756714Y-93730000D01*
X115828142Y-93706190D01*
X115875761Y-93706190D01*
X115947190Y-93730000D01*
X115971000Y-93753809D01*
X116161476Y-94063333D02*
X116399571Y-94063333D01*
X116113857Y-94206190D02*
X116280523Y-93706190D01*
X116447190Y-94206190D01*
X116685285Y-93920476D02*
X116637666Y-93896666D01*
X116613857Y-93872857D01*
X116590047Y-93825238D01*
X116590047Y-93801428D01*
X116613857Y-93753809D01*
X116637666Y-93730000D01*
X116685285Y-93706190D01*
X116780523Y-93706190D01*
X116828142Y-93730000D01*
X116851952Y-93753809D01*
X116875761Y-93801428D01*
X116875761Y-93825238D01*
X116851952Y-93872857D01*
X116828142Y-93896666D01*
X116780523Y-93920476D01*
X116685285Y-93920476D01*
X116637666Y-93944285D01*
X116613857Y-93968095D01*
X116590047Y-94015714D01*
X116590047Y-94110952D01*
X116613857Y-94158571D01*
X116637666Y-94182380D01*
X116685285Y-94206190D01*
X116780523Y-94206190D01*
X116828142Y-94182380D01*
X116851952Y-94158571D01*
X116875761Y-94110952D01*
X116875761Y-94015714D01*
X116851952Y-93968095D01*
X116828142Y-93944285D01*
X116780523Y-93920476D01*
X117066238Y-93753809D02*
X117090047Y-93730000D01*
X117137666Y-93706190D01*
X117256714Y-93706190D01*
X117304333Y-93730000D01*
X117328142Y-93753809D01*
X117351952Y-93801428D01*
X117351952Y-93849047D01*
X117328142Y-93920476D01*
X117042428Y-94206190D01*
X117351952Y-94206190D01*
X117851952Y-94158571D02*
X117828142Y-94182380D01*
X117756714Y-94206190D01*
X117709095Y-94206190D01*
X117637666Y-94182380D01*
X117590047Y-94134761D01*
X117566238Y-94087142D01*
X117542428Y-93991904D01*
X117542428Y-93920476D01*
X117566238Y-93825238D01*
X117590047Y-93777619D01*
X117637666Y-93730000D01*
X117709095Y-93706190D01*
X117756714Y-93706190D01*
X117828142Y-93730000D01*
X117851952Y-93753809D01*
X118042428Y-93753809D02*
X118066238Y-93730000D01*
X118113857Y-93706190D01*
X118232904Y-93706190D01*
X118280523Y-93730000D01*
X118304333Y-93753809D01*
X118328142Y-93801428D01*
X118328142Y-93849047D01*
X118304333Y-93920476D01*
X118018619Y-94206190D01*
X118328142Y-94206190D01*
X118780523Y-93706190D02*
X118542428Y-93706190D01*
X118518619Y-93944285D01*
X118542428Y-93920476D01*
X118590047Y-93896666D01*
X118709095Y-93896666D01*
X118756714Y-93920476D01*
X118780523Y-93944285D01*
X118804333Y-93991904D01*
X118804333Y-94110952D01*
X118780523Y-94158571D01*
X118756714Y-94182380D01*
X118709095Y-94206190D01*
X118590047Y-94206190D01*
X118542428Y-94182380D01*
X118518619Y-94158571D01*
X119113857Y-93706190D02*
X119161476Y-93706190D01*
X119209095Y-93730000D01*
X119232904Y-93753809D01*
X119256714Y-93801428D01*
X119280523Y-93896666D01*
X119280523Y-94015714D01*
X119256714Y-94110952D01*
X119232904Y-94158571D01*
X119209095Y-94182380D01*
X119161476Y-94206190D01*
X119113857Y-94206190D01*
X119066238Y-94182380D01*
X119042428Y-94158571D01*
X119018619Y-94110952D01*
X118994809Y-94015714D01*
X118994809Y-93896666D01*
X119018619Y-93801428D01*
X119042428Y-93753809D01*
X119066238Y-93730000D01*
X119113857Y-93706190D01*
X81022285Y-94206190D02*
X81022285Y-93706190D01*
X81212761Y-93706190D01*
X81260380Y-93730000D01*
X81284190Y-93753809D01*
X81308000Y-93801428D01*
X81308000Y-93872857D01*
X81284190Y-93920476D01*
X81260380Y-93944285D01*
X81212761Y-93968095D01*
X81022285Y-93968095D01*
X81808000Y-94158571D02*
X81784190Y-94182380D01*
X81712761Y-94206190D01*
X81665142Y-94206190D01*
X81593714Y-94182380D01*
X81546095Y-94134761D01*
X81522285Y-94087142D01*
X81498476Y-93991904D01*
X81498476Y-93920476D01*
X81522285Y-93825238D01*
X81546095Y-93777619D01*
X81593714Y-93730000D01*
X81665142Y-93706190D01*
X81712761Y-93706190D01*
X81784190Y-93730000D01*
X81808000Y-93753809D01*
X81998476Y-94063333D02*
X82236571Y-94063333D01*
X81950857Y-94206190D02*
X82117523Y-93706190D01*
X82284190Y-94206190D01*
X82522285Y-93920476D02*
X82474666Y-93896666D01*
X82450857Y-93872857D01*
X82427047Y-93825238D01*
X82427047Y-93801428D01*
X82450857Y-93753809D01*
X82474666Y-93730000D01*
X82522285Y-93706190D01*
X82617523Y-93706190D01*
X82665142Y-93730000D01*
X82688952Y-93753809D01*
X82712761Y-93801428D01*
X82712761Y-93825238D01*
X82688952Y-93872857D01*
X82665142Y-93896666D01*
X82617523Y-93920476D01*
X82522285Y-93920476D01*
X82474666Y-93944285D01*
X82450857Y-93968095D01*
X82427047Y-94015714D01*
X82427047Y-94110952D01*
X82450857Y-94158571D01*
X82474666Y-94182380D01*
X82522285Y-94206190D01*
X82617523Y-94206190D01*
X82665142Y-94182380D01*
X82688952Y-94158571D01*
X82712761Y-94110952D01*
X82712761Y-94015714D01*
X82688952Y-93968095D01*
X82665142Y-93944285D01*
X82617523Y-93920476D01*
X82903238Y-93753809D02*
X82927047Y-93730000D01*
X82974666Y-93706190D01*
X83093714Y-93706190D01*
X83141333Y-93730000D01*
X83165142Y-93753809D01*
X83188952Y-93801428D01*
X83188952Y-93849047D01*
X83165142Y-93920476D01*
X82879428Y-94206190D01*
X83188952Y-94206190D01*
X83688952Y-94158571D02*
X83665142Y-94182380D01*
X83593714Y-94206190D01*
X83546095Y-94206190D01*
X83474666Y-94182380D01*
X83427047Y-94134761D01*
X83403238Y-94087142D01*
X83379428Y-93991904D01*
X83379428Y-93920476D01*
X83403238Y-93825238D01*
X83427047Y-93777619D01*
X83474666Y-93730000D01*
X83546095Y-93706190D01*
X83593714Y-93706190D01*
X83665142Y-93730000D01*
X83688952Y-93753809D01*
X83879428Y-93753809D02*
X83903238Y-93730000D01*
X83950857Y-93706190D01*
X84069904Y-93706190D01*
X84117523Y-93730000D01*
X84141333Y-93753809D01*
X84165142Y-93801428D01*
X84165142Y-93849047D01*
X84141333Y-93920476D01*
X83855619Y-94206190D01*
X84165142Y-94206190D01*
X84617523Y-93706190D02*
X84379428Y-93706190D01*
X84355619Y-93944285D01*
X84379428Y-93920476D01*
X84427047Y-93896666D01*
X84546095Y-93896666D01*
X84593714Y-93920476D01*
X84617523Y-93944285D01*
X84641333Y-93991904D01*
X84641333Y-94110952D01*
X84617523Y-94158571D01*
X84593714Y-94182380D01*
X84546095Y-94206190D01*
X84427047Y-94206190D01*
X84379428Y-94182380D01*
X84355619Y-94158571D01*
X84950857Y-93706190D02*
X84998476Y-93706190D01*
X85046095Y-93730000D01*
X85069904Y-93753809D01*
X85093714Y-93801428D01*
X85117523Y-93896666D01*
X85117523Y-94015714D01*
X85093714Y-94110952D01*
X85069904Y-94158571D01*
X85046095Y-94182380D01*
X84998476Y-94206190D01*
X84950857Y-94206190D01*
X84903238Y-94182380D01*
X84879428Y-94158571D01*
X84855619Y-94110952D01*
X84831809Y-94015714D01*
X84831809Y-93896666D01*
X84855619Y-93801428D01*
X84879428Y-93753809D01*
X84903238Y-93730000D01*
X84950857Y-93706190D01*
X104346761Y-94206190D02*
X104346761Y-93706190D01*
X104513428Y-94063333D01*
X104680095Y-93706190D01*
X104680095Y-94206190D01*
X105203904Y-94158571D02*
X105180095Y-94182380D01*
X105108666Y-94206190D01*
X105061047Y-94206190D01*
X104989619Y-94182380D01*
X104942000Y-94134761D01*
X104918190Y-94087142D01*
X104894380Y-93991904D01*
X104894380Y-93920476D01*
X104918190Y-93825238D01*
X104942000Y-93777619D01*
X104989619Y-93730000D01*
X105061047Y-93706190D01*
X105108666Y-93706190D01*
X105180095Y-93730000D01*
X105203904Y-93753809D01*
X105418190Y-94206190D02*
X105418190Y-93706190D01*
X105608666Y-93706190D01*
X105656285Y-93730000D01*
X105680095Y-93753809D01*
X105703904Y-93801428D01*
X105703904Y-93872857D01*
X105680095Y-93920476D01*
X105656285Y-93944285D01*
X105608666Y-93968095D01*
X105418190Y-93968095D01*
X106180095Y-94206190D02*
X105894380Y-94206190D01*
X106037238Y-94206190D02*
X106037238Y-93706190D01*
X105989619Y-93777619D01*
X105942000Y-93825238D01*
X105894380Y-93849047D01*
X106346761Y-93706190D02*
X106680095Y-93706190D01*
X106465809Y-94206190D01*
X106965809Y-93706190D02*
X107013428Y-93706190D01*
X107061047Y-93730000D01*
X107084857Y-93753809D01*
X107108666Y-93801428D01*
X107132476Y-93896666D01*
X107132476Y-94015714D01*
X107108666Y-94110952D01*
X107084857Y-94158571D01*
X107061047Y-94182380D01*
X107013428Y-94206190D01*
X106965809Y-94206190D01*
X106918190Y-94182380D01*
X106894380Y-94158571D01*
X106870571Y-94110952D01*
X106846761Y-94015714D01*
X106846761Y-93896666D01*
X106870571Y-93801428D01*
X106894380Y-93753809D01*
X106918190Y-93730000D01*
X106965809Y-93706190D01*
X107299142Y-93706190D02*
X107608666Y-93706190D01*
X107442000Y-93896666D01*
X107513428Y-93896666D01*
X107561047Y-93920476D01*
X107584857Y-93944285D01*
X107608666Y-93991904D01*
X107608666Y-94110952D01*
X107584857Y-94158571D01*
X107561047Y-94182380D01*
X107513428Y-94206190D01*
X107370571Y-94206190D01*
X107322952Y-94182380D01*
X107299142Y-94158571D01*
X107799142Y-94063333D02*
X108037238Y-94063333D01*
X107751523Y-94206190D02*
X107918190Y-93706190D01*
X108084857Y-94206190D01*
X108251523Y-94015714D02*
X108632476Y-94015714D01*
X109108666Y-93706190D02*
X108870571Y-93706190D01*
X108846761Y-93944285D01*
X108870571Y-93920476D01*
X108918190Y-93896666D01*
X109037238Y-93896666D01*
X109084857Y-93920476D01*
X109108666Y-93944285D01*
X109132476Y-93991904D01*
X109132476Y-94110952D01*
X109108666Y-94158571D01*
X109084857Y-94182380D01*
X109037238Y-94206190D01*
X108918190Y-94206190D01*
X108870571Y-94182380D01*
X108846761Y-94158571D01*
X109442000Y-93706190D02*
X109489619Y-93706190D01*
X109537238Y-93730000D01*
X109561047Y-93753809D01*
X109584857Y-93801428D01*
X109608666Y-93896666D01*
X109608666Y-94015714D01*
X109584857Y-94110952D01*
X109561047Y-94158571D01*
X109537238Y-94182380D01*
X109489619Y-94206190D01*
X109442000Y-94206190D01*
X109394380Y-94182380D01*
X109370571Y-94158571D01*
X109346761Y-94110952D01*
X109322952Y-94015714D01*
X109322952Y-93896666D01*
X109346761Y-93801428D01*
X109370571Y-93753809D01*
X109394380Y-93730000D01*
X109442000Y-93706190D01*
X109918190Y-93706190D02*
X109965809Y-93706190D01*
X110013428Y-93730000D01*
X110037238Y-93753809D01*
X110061047Y-93801428D01*
X110084857Y-93896666D01*
X110084857Y-94015714D01*
X110061047Y-94110952D01*
X110037238Y-94158571D01*
X110013428Y-94182380D01*
X109965809Y-94206190D01*
X109918190Y-94206190D01*
X109870571Y-94182380D01*
X109846761Y-94158571D01*
X109822952Y-94110952D01*
X109799142Y-94015714D01*
X109799142Y-93896666D01*
X109822952Y-93801428D01*
X109846761Y-93753809D01*
X109870571Y-93730000D01*
X109918190Y-93706190D01*
X110275333Y-93753809D02*
X110299142Y-93730000D01*
X110346761Y-93706190D01*
X110465809Y-93706190D01*
X110513428Y-93730000D01*
X110537238Y-93753809D01*
X110561047Y-93801428D01*
X110561047Y-93849047D01*
X110537238Y-93920476D01*
X110251523Y-94206190D01*
X110561047Y-94206190D01*
X116026476Y-122626190D02*
X115788380Y-122626190D01*
X115788380Y-122126190D01*
X116193142Y-122364285D02*
X116359809Y-122364285D01*
X116431238Y-122626190D02*
X116193142Y-122626190D01*
X116193142Y-122126190D01*
X116431238Y-122126190D01*
X116645523Y-122626190D02*
X116645523Y-122126190D01*
X116764571Y-122126190D01*
X116836000Y-122150000D01*
X116883619Y-122197619D01*
X116907428Y-122245238D01*
X116931238Y-122340476D01*
X116931238Y-122411904D01*
X116907428Y-122507142D01*
X116883619Y-122554761D01*
X116836000Y-122602380D01*
X116764571Y-122626190D01*
X116645523Y-122626190D01*
X117097904Y-122126190D02*
X117431238Y-122126190D01*
X117216952Y-122626190D01*
X113867476Y-122654190D02*
X113629380Y-122654190D01*
X113629380Y-122154190D01*
X114034142Y-122392285D02*
X114200809Y-122392285D01*
X114272238Y-122654190D02*
X114034142Y-122654190D01*
X114034142Y-122154190D01*
X114272238Y-122154190D01*
X114486523Y-122654190D02*
X114486523Y-122154190D01*
X114605571Y-122154190D01*
X114677000Y-122178000D01*
X114724619Y-122225619D01*
X114748428Y-122273238D01*
X114772238Y-122368476D01*
X114772238Y-122439904D01*
X114748428Y-122535142D01*
X114724619Y-122582761D01*
X114677000Y-122630380D01*
X114605571Y-122654190D01*
X114486523Y-122654190D01*
X115200809Y-122154190D02*
X115105571Y-122154190D01*
X115057952Y-122178000D01*
X115034142Y-122201809D01*
X114986523Y-122273238D01*
X114962714Y-122368476D01*
X114962714Y-122558952D01*
X114986523Y-122606571D01*
X115010333Y-122630380D01*
X115057952Y-122654190D01*
X115153190Y-122654190D01*
X115200809Y-122630380D01*
X115224619Y-122606571D01*
X115248428Y-122558952D01*
X115248428Y-122439904D01*
X115224619Y-122392285D01*
X115200809Y-122368476D01*
X115153190Y-122344666D01*
X115057952Y-122344666D01*
X115010333Y-122368476D01*
X114986523Y-122392285D01*
X114962714Y-122439904D01*
X111581476Y-122654190D02*
X111343380Y-122654190D01*
X111343380Y-122154190D01*
X111748142Y-122392285D02*
X111914809Y-122392285D01*
X111986238Y-122654190D02*
X111748142Y-122654190D01*
X111748142Y-122154190D01*
X111986238Y-122154190D01*
X112200523Y-122654190D02*
X112200523Y-122154190D01*
X112319571Y-122154190D01*
X112391000Y-122178000D01*
X112438619Y-122225619D01*
X112462428Y-122273238D01*
X112486238Y-122368476D01*
X112486238Y-122439904D01*
X112462428Y-122535142D01*
X112438619Y-122582761D01*
X112391000Y-122630380D01*
X112319571Y-122654190D01*
X112200523Y-122654190D01*
X112938619Y-122154190D02*
X112700523Y-122154190D01*
X112676714Y-122392285D01*
X112700523Y-122368476D01*
X112748142Y-122344666D01*
X112867190Y-122344666D01*
X112914809Y-122368476D01*
X112938619Y-122392285D01*
X112962428Y-122439904D01*
X112962428Y-122558952D01*
X112938619Y-122606571D01*
X112914809Y-122630380D01*
X112867190Y-122654190D01*
X112748142Y-122654190D01*
X112700523Y-122630380D01*
X112676714Y-122606571D01*
X109422476Y-122626190D02*
X109184380Y-122626190D01*
X109184380Y-122126190D01*
X109589142Y-122364285D02*
X109755809Y-122364285D01*
X109827238Y-122626190D02*
X109589142Y-122626190D01*
X109589142Y-122126190D01*
X109827238Y-122126190D01*
X110041523Y-122626190D02*
X110041523Y-122126190D01*
X110160571Y-122126190D01*
X110232000Y-122150000D01*
X110279619Y-122197619D01*
X110303428Y-122245238D01*
X110327238Y-122340476D01*
X110327238Y-122411904D01*
X110303428Y-122507142D01*
X110279619Y-122554761D01*
X110232000Y-122602380D01*
X110160571Y-122626190D01*
X110041523Y-122626190D01*
X110755809Y-122292857D02*
X110755809Y-122626190D01*
X110636761Y-122102380D02*
X110517714Y-122459523D01*
X110827238Y-122459523D01*
X105231476Y-122626190D02*
X104993380Y-122626190D01*
X104993380Y-122126190D01*
X105398142Y-122364285D02*
X105564809Y-122364285D01*
X105636238Y-122626190D02*
X105398142Y-122626190D01*
X105398142Y-122126190D01*
X105636238Y-122126190D01*
X105850523Y-122626190D02*
X105850523Y-122126190D01*
X105969571Y-122126190D01*
X106041000Y-122150000D01*
X106088619Y-122197619D01*
X106112428Y-122245238D01*
X106136238Y-122340476D01*
X106136238Y-122411904D01*
X106112428Y-122507142D01*
X106088619Y-122554761D01*
X106041000Y-122602380D01*
X105969571Y-122626190D01*
X105850523Y-122626190D01*
X106302904Y-122126190D02*
X106612428Y-122126190D01*
X106445761Y-122316666D01*
X106517190Y-122316666D01*
X106564809Y-122340476D01*
X106588619Y-122364285D01*
X106612428Y-122411904D01*
X106612428Y-122530952D01*
X106588619Y-122578571D01*
X106564809Y-122602380D01*
X106517190Y-122626190D01*
X106374333Y-122626190D01*
X106326714Y-122602380D01*
X106302904Y-122578571D01*
X103072476Y-122654190D02*
X102834380Y-122654190D01*
X102834380Y-122154190D01*
X103239142Y-122392285D02*
X103405809Y-122392285D01*
X103477238Y-122654190D02*
X103239142Y-122654190D01*
X103239142Y-122154190D01*
X103477238Y-122154190D01*
X103691523Y-122654190D02*
X103691523Y-122154190D01*
X103810571Y-122154190D01*
X103882000Y-122178000D01*
X103929619Y-122225619D01*
X103953428Y-122273238D01*
X103977238Y-122368476D01*
X103977238Y-122439904D01*
X103953428Y-122535142D01*
X103929619Y-122582761D01*
X103882000Y-122630380D01*
X103810571Y-122654190D01*
X103691523Y-122654190D01*
X104167714Y-122201809D02*
X104191523Y-122178000D01*
X104239142Y-122154190D01*
X104358190Y-122154190D01*
X104405809Y-122178000D01*
X104429619Y-122201809D01*
X104453428Y-122249428D01*
X104453428Y-122297047D01*
X104429619Y-122368476D01*
X104143904Y-122654190D01*
X104453428Y-122654190D01*
X100913476Y-122626190D02*
X100675380Y-122626190D01*
X100675380Y-122126190D01*
X101080142Y-122364285D02*
X101246809Y-122364285D01*
X101318238Y-122626190D02*
X101080142Y-122626190D01*
X101080142Y-122126190D01*
X101318238Y-122126190D01*
X101532523Y-122626190D02*
X101532523Y-122126190D01*
X101651571Y-122126190D01*
X101723000Y-122150000D01*
X101770619Y-122197619D01*
X101794428Y-122245238D01*
X101818238Y-122340476D01*
X101818238Y-122411904D01*
X101794428Y-122507142D01*
X101770619Y-122554761D01*
X101723000Y-122602380D01*
X101651571Y-122626190D01*
X101532523Y-122626190D01*
X102294428Y-122626190D02*
X102008714Y-122626190D01*
X102151571Y-122626190D02*
X102151571Y-122126190D01*
X102103952Y-122197619D01*
X102056333Y-122245238D01*
X102008714Y-122269047D01*
X98627476Y-122654190D02*
X98389380Y-122654190D01*
X98389380Y-122154190D01*
X98794142Y-122392285D02*
X98960809Y-122392285D01*
X99032238Y-122654190D02*
X98794142Y-122654190D01*
X98794142Y-122154190D01*
X99032238Y-122154190D01*
X99246523Y-122654190D02*
X99246523Y-122154190D01*
X99365571Y-122154190D01*
X99437000Y-122178000D01*
X99484619Y-122225619D01*
X99508428Y-122273238D01*
X99532238Y-122368476D01*
X99532238Y-122439904D01*
X99508428Y-122535142D01*
X99484619Y-122582761D01*
X99437000Y-122630380D01*
X99365571Y-122654190D01*
X99246523Y-122654190D01*
X99841761Y-122154190D02*
X99889380Y-122154190D01*
X99937000Y-122178000D01*
X99960809Y-122201809D01*
X99984619Y-122249428D01*
X100008428Y-122344666D01*
X100008428Y-122463714D01*
X99984619Y-122558952D01*
X99960809Y-122606571D01*
X99937000Y-122630380D01*
X99889380Y-122654190D01*
X99841761Y-122654190D01*
X99794142Y-122630380D01*
X99770333Y-122606571D01*
X99746523Y-122558952D01*
X99722714Y-122463714D01*
X99722714Y-122344666D01*
X99746523Y-122249428D01*
X99770333Y-122201809D01*
X99794142Y-122178000D01*
X99841761Y-122154190D01*
X120233285Y-102119761D02*
X120257095Y-102048333D01*
X120280904Y-102024523D01*
X120328523Y-102000714D01*
X120399952Y-102000714D01*
X120447571Y-102024523D01*
X120471380Y-102048333D01*
X120495190Y-102095952D01*
X120495190Y-102286428D01*
X119995190Y-102286428D01*
X119995190Y-102119761D01*
X120019000Y-102072142D01*
X120042809Y-102048333D01*
X120090428Y-102024523D01*
X120138047Y-102024523D01*
X120185666Y-102048333D01*
X120209476Y-102072142D01*
X120233285Y-102119761D01*
X120233285Y-102286428D01*
X120471380Y-101810238D02*
X120495190Y-101738809D01*
X120495190Y-101619761D01*
X120471380Y-101572142D01*
X120447571Y-101548333D01*
X120399952Y-101524523D01*
X120352333Y-101524523D01*
X120304714Y-101548333D01*
X120280904Y-101572142D01*
X120257095Y-101619761D01*
X120233285Y-101715000D01*
X120209476Y-101762619D01*
X120185666Y-101786428D01*
X120138047Y-101810238D01*
X120090428Y-101810238D01*
X120042809Y-101786428D01*
X120019000Y-101762619D01*
X119995190Y-101715000D01*
X119995190Y-101595952D01*
X120019000Y-101524523D01*
X120471380Y-101334047D02*
X120495190Y-101262619D01*
X120495190Y-101143571D01*
X120471380Y-101095952D01*
X120447571Y-101072142D01*
X120399952Y-101048333D01*
X120352333Y-101048333D01*
X120304714Y-101072142D01*
X120280904Y-101095952D01*
X120257095Y-101143571D01*
X120233285Y-101238809D01*
X120209476Y-101286428D01*
X120185666Y-101310238D01*
X120138047Y-101334047D01*
X120090428Y-101334047D01*
X120042809Y-101310238D01*
X120019000Y-101286428D01*
X119995190Y-101238809D01*
X119995190Y-101119761D01*
X120019000Y-101048333D01*
X120495190Y-100572142D02*
X120495190Y-100857857D01*
X120495190Y-100715000D02*
X119995190Y-100715000D01*
X120066619Y-100762619D01*
X120114238Y-100810238D01*
X120138047Y-100857857D01*
X119995190Y-100405476D02*
X119995190Y-100095952D01*
X120185666Y-100262619D01*
X120185666Y-100191190D01*
X120209476Y-100143571D01*
X120233285Y-100119761D01*
X120280904Y-100095952D01*
X120399952Y-100095952D01*
X120447571Y-100119761D01*
X120471380Y-100143571D01*
X120495190Y-100191190D01*
X120495190Y-100334047D01*
X120471380Y-100381666D01*
X120447571Y-100405476D01*
X120209476Y-99810238D02*
X120185666Y-99857857D01*
X120161857Y-99881666D01*
X120114238Y-99905476D01*
X120090428Y-99905476D01*
X120042809Y-99881666D01*
X120019000Y-99857857D01*
X119995190Y-99810238D01*
X119995190Y-99715000D01*
X120019000Y-99667380D01*
X120042809Y-99643571D01*
X120090428Y-99619761D01*
X120114238Y-99619761D01*
X120161857Y-99643571D01*
X120185666Y-99667380D01*
X120209476Y-99715000D01*
X120209476Y-99810238D01*
X120233285Y-99857857D01*
X120257095Y-99881666D01*
X120304714Y-99905476D01*
X120399952Y-99905476D01*
X120447571Y-99881666D01*
X120471380Y-99857857D01*
X120495190Y-99810238D01*
X120495190Y-99715000D01*
X120471380Y-99667380D01*
X120447571Y-99643571D01*
X120399952Y-99619761D01*
X120304714Y-99619761D01*
X120257095Y-99643571D01*
X120233285Y-99667380D01*
X120209476Y-99715000D01*
X111724285Y-102119761D02*
X111748095Y-102048333D01*
X111771904Y-102024523D01*
X111819523Y-102000714D01*
X111890952Y-102000714D01*
X111938571Y-102024523D01*
X111962380Y-102048333D01*
X111986190Y-102095952D01*
X111986190Y-102286428D01*
X111486190Y-102286428D01*
X111486190Y-102119761D01*
X111510000Y-102072142D01*
X111533809Y-102048333D01*
X111581428Y-102024523D01*
X111629047Y-102024523D01*
X111676666Y-102048333D01*
X111700476Y-102072142D01*
X111724285Y-102119761D01*
X111724285Y-102286428D01*
X111962380Y-101810238D02*
X111986190Y-101738809D01*
X111986190Y-101619761D01*
X111962380Y-101572142D01*
X111938571Y-101548333D01*
X111890952Y-101524523D01*
X111843333Y-101524523D01*
X111795714Y-101548333D01*
X111771904Y-101572142D01*
X111748095Y-101619761D01*
X111724285Y-101715000D01*
X111700476Y-101762619D01*
X111676666Y-101786428D01*
X111629047Y-101810238D01*
X111581428Y-101810238D01*
X111533809Y-101786428D01*
X111510000Y-101762619D01*
X111486190Y-101715000D01*
X111486190Y-101595952D01*
X111510000Y-101524523D01*
X111962380Y-101334047D02*
X111986190Y-101262619D01*
X111986190Y-101143571D01*
X111962380Y-101095952D01*
X111938571Y-101072142D01*
X111890952Y-101048333D01*
X111843333Y-101048333D01*
X111795714Y-101072142D01*
X111771904Y-101095952D01*
X111748095Y-101143571D01*
X111724285Y-101238809D01*
X111700476Y-101286428D01*
X111676666Y-101310238D01*
X111629047Y-101334047D01*
X111581428Y-101334047D01*
X111533809Y-101310238D01*
X111510000Y-101286428D01*
X111486190Y-101238809D01*
X111486190Y-101119761D01*
X111510000Y-101048333D01*
X111986190Y-100572142D02*
X111986190Y-100857857D01*
X111986190Y-100715000D02*
X111486190Y-100715000D01*
X111557619Y-100762619D01*
X111605238Y-100810238D01*
X111629047Y-100857857D01*
X111486190Y-100405476D02*
X111486190Y-100095952D01*
X111676666Y-100262619D01*
X111676666Y-100191190D01*
X111700476Y-100143571D01*
X111724285Y-100119761D01*
X111771904Y-100095952D01*
X111890952Y-100095952D01*
X111938571Y-100119761D01*
X111962380Y-100143571D01*
X111986190Y-100191190D01*
X111986190Y-100334047D01*
X111962380Y-100381666D01*
X111938571Y-100405476D01*
X111700476Y-99810238D02*
X111676666Y-99857857D01*
X111652857Y-99881666D01*
X111605238Y-99905476D01*
X111581428Y-99905476D01*
X111533809Y-99881666D01*
X111510000Y-99857857D01*
X111486190Y-99810238D01*
X111486190Y-99715000D01*
X111510000Y-99667380D01*
X111533809Y-99643571D01*
X111581428Y-99619761D01*
X111605238Y-99619761D01*
X111652857Y-99643571D01*
X111676666Y-99667380D01*
X111700476Y-99715000D01*
X111700476Y-99810238D01*
X111724285Y-99857857D01*
X111748095Y-99881666D01*
X111795714Y-99905476D01*
X111890952Y-99905476D01*
X111938571Y-99881666D01*
X111962380Y-99857857D01*
X111986190Y-99810238D01*
X111986190Y-99715000D01*
X111962380Y-99667380D01*
X111938571Y-99643571D01*
X111890952Y-99619761D01*
X111795714Y-99619761D01*
X111748095Y-99643571D01*
X111724285Y-99667380D01*
X111700476Y-99715000D01*
X88737285Y-102246761D02*
X88761095Y-102175333D01*
X88784904Y-102151523D01*
X88832523Y-102127714D01*
X88903952Y-102127714D01*
X88951571Y-102151523D01*
X88975380Y-102175333D01*
X88999190Y-102222952D01*
X88999190Y-102413428D01*
X88499190Y-102413428D01*
X88499190Y-102246761D01*
X88523000Y-102199142D01*
X88546809Y-102175333D01*
X88594428Y-102151523D01*
X88642047Y-102151523D01*
X88689666Y-102175333D01*
X88713476Y-102199142D01*
X88737285Y-102246761D01*
X88737285Y-102413428D01*
X88975380Y-101937238D02*
X88999190Y-101865809D01*
X88999190Y-101746761D01*
X88975380Y-101699142D01*
X88951571Y-101675333D01*
X88903952Y-101651523D01*
X88856333Y-101651523D01*
X88808714Y-101675333D01*
X88784904Y-101699142D01*
X88761095Y-101746761D01*
X88737285Y-101842000D01*
X88713476Y-101889619D01*
X88689666Y-101913428D01*
X88642047Y-101937238D01*
X88594428Y-101937238D01*
X88546809Y-101913428D01*
X88523000Y-101889619D01*
X88499190Y-101842000D01*
X88499190Y-101722952D01*
X88523000Y-101651523D01*
X88975380Y-101461047D02*
X88999190Y-101389619D01*
X88999190Y-101270571D01*
X88975380Y-101222952D01*
X88951571Y-101199142D01*
X88903952Y-101175333D01*
X88856333Y-101175333D01*
X88808714Y-101199142D01*
X88784904Y-101222952D01*
X88761095Y-101270571D01*
X88737285Y-101365809D01*
X88713476Y-101413428D01*
X88689666Y-101437238D01*
X88642047Y-101461047D01*
X88594428Y-101461047D01*
X88546809Y-101437238D01*
X88523000Y-101413428D01*
X88499190Y-101365809D01*
X88499190Y-101246761D01*
X88523000Y-101175333D01*
X88999190Y-100699142D02*
X88999190Y-100984857D01*
X88999190Y-100842000D02*
X88499190Y-100842000D01*
X88570619Y-100889619D01*
X88618238Y-100937238D01*
X88642047Y-100984857D01*
X88499190Y-100532476D02*
X88499190Y-100222952D01*
X88689666Y-100389619D01*
X88689666Y-100318190D01*
X88713476Y-100270571D01*
X88737285Y-100246761D01*
X88784904Y-100222952D01*
X88903952Y-100222952D01*
X88951571Y-100246761D01*
X88975380Y-100270571D01*
X88999190Y-100318190D01*
X88999190Y-100461047D01*
X88975380Y-100508666D01*
X88951571Y-100532476D01*
X88713476Y-99937238D02*
X88689666Y-99984857D01*
X88665857Y-100008666D01*
X88618238Y-100032476D01*
X88594428Y-100032476D01*
X88546809Y-100008666D01*
X88523000Y-99984857D01*
X88499190Y-99937238D01*
X88499190Y-99842000D01*
X88523000Y-99794380D01*
X88546809Y-99770571D01*
X88594428Y-99746761D01*
X88618238Y-99746761D01*
X88665857Y-99770571D01*
X88689666Y-99794380D01*
X88713476Y-99842000D01*
X88713476Y-99937238D01*
X88737285Y-99984857D01*
X88761095Y-100008666D01*
X88808714Y-100032476D01*
X88903952Y-100032476D01*
X88951571Y-100008666D01*
X88975380Y-99984857D01*
X88999190Y-99937238D01*
X88999190Y-99842000D01*
X88975380Y-99794380D01*
X88951571Y-99770571D01*
X88903952Y-99746761D01*
X88808714Y-99746761D01*
X88761095Y-99770571D01*
X88737285Y-99794380D01*
X88713476Y-99842000D01*
X117802380Y-96619190D02*
X117516666Y-96619190D01*
X117659523Y-96619190D02*
X117659523Y-96119190D01*
X117611904Y-96190619D01*
X117564285Y-96238238D01*
X117516666Y-96262047D01*
X118111904Y-96119190D02*
X118159523Y-96119190D01*
X118207142Y-96143000D01*
X118230952Y-96166809D01*
X118254761Y-96214428D01*
X118278571Y-96309666D01*
X118278571Y-96428714D01*
X118254761Y-96523952D01*
X118230952Y-96571571D01*
X118207142Y-96595380D01*
X118159523Y-96619190D01*
X118111904Y-96619190D01*
X118064285Y-96595380D01*
X118040476Y-96571571D01*
X118016666Y-96523952D01*
X117992857Y-96428714D01*
X117992857Y-96309666D01*
X118016666Y-96214428D01*
X118040476Y-96166809D01*
X118064285Y-96143000D01*
X118111904Y-96119190D01*
X118492857Y-96619190D02*
X118492857Y-96119190D01*
X118540476Y-96428714D02*
X118683333Y-96619190D01*
X118683333Y-96285857D02*
X118492857Y-96476333D01*
X117812380Y-105890190D02*
X117526666Y-105890190D01*
X117669523Y-105890190D02*
X117669523Y-105390190D01*
X117621904Y-105461619D01*
X117574285Y-105509238D01*
X117526666Y-105533047D01*
X118121904Y-105390190D02*
X118169523Y-105390190D01*
X118217142Y-105414000D01*
X118240952Y-105437809D01*
X118264761Y-105485428D01*
X118288571Y-105580666D01*
X118288571Y-105699714D01*
X118264761Y-105794952D01*
X118240952Y-105842571D01*
X118217142Y-105866380D01*
X118169523Y-105890190D01*
X118121904Y-105890190D01*
X118074285Y-105866380D01*
X118050476Y-105842571D01*
X118026666Y-105794952D01*
X118002857Y-105699714D01*
X118002857Y-105580666D01*
X118026666Y-105485428D01*
X118050476Y-105437809D01*
X118074285Y-105414000D01*
X118121904Y-105390190D01*
X118502857Y-105890190D02*
X118502857Y-105390190D01*
X118550476Y-105699714D02*
X118693333Y-105890190D01*
X118693333Y-105556857D02*
X118502857Y-105747333D01*
X113569046Y-96619190D02*
X113283332Y-96619190D01*
X113426189Y-96619190D02*
X113426189Y-96119190D01*
X113378570Y-96190619D01*
X113330951Y-96238238D01*
X113283332Y-96262047D01*
X113878570Y-96119190D02*
X113926189Y-96119190D01*
X113973808Y-96143000D01*
X113997618Y-96166809D01*
X114021427Y-96214428D01*
X114045237Y-96309666D01*
X114045237Y-96428714D01*
X114021427Y-96523952D01*
X113997618Y-96571571D01*
X113973808Y-96595380D01*
X113926189Y-96619190D01*
X113878570Y-96619190D01*
X113830951Y-96595380D01*
X113807142Y-96571571D01*
X113783332Y-96523952D01*
X113759523Y-96428714D01*
X113759523Y-96309666D01*
X113783332Y-96214428D01*
X113807142Y-96166809D01*
X113830951Y-96143000D01*
X113878570Y-96119190D01*
X114259523Y-96619190D02*
X114259523Y-96119190D01*
X114307142Y-96428714D02*
X114449999Y-96619190D01*
X114449999Y-96285857D02*
X114259523Y-96476333D01*
X113702380Y-105890190D02*
X113416666Y-105890190D01*
X113559523Y-105890190D02*
X113559523Y-105390190D01*
X113511904Y-105461619D01*
X113464285Y-105509238D01*
X113416666Y-105533047D01*
X114011904Y-105390190D02*
X114059523Y-105390190D01*
X114107142Y-105414000D01*
X114130952Y-105437809D01*
X114154761Y-105485428D01*
X114178571Y-105580666D01*
X114178571Y-105699714D01*
X114154761Y-105794952D01*
X114130952Y-105842571D01*
X114107142Y-105866380D01*
X114059523Y-105890190D01*
X114011904Y-105890190D01*
X113964285Y-105866380D01*
X113940476Y-105842571D01*
X113916666Y-105794952D01*
X113892857Y-105699714D01*
X113892857Y-105580666D01*
X113916666Y-105485428D01*
X113940476Y-105437809D01*
X113964285Y-105414000D01*
X114011904Y-105390190D01*
X114392857Y-105890190D02*
X114392857Y-105390190D01*
X114440476Y-105699714D02*
X114583333Y-105890190D01*
X114583333Y-105556857D02*
X114392857Y-105747333D01*
X86335713Y-96619190D02*
X86049999Y-96619190D01*
X86192856Y-96619190D02*
X86192856Y-96119190D01*
X86145237Y-96190619D01*
X86097618Y-96238238D01*
X86049999Y-96262047D01*
X86645237Y-96119190D02*
X86692856Y-96119190D01*
X86740475Y-96143000D01*
X86764285Y-96166809D01*
X86788094Y-96214428D01*
X86811904Y-96309666D01*
X86811904Y-96428714D01*
X86788094Y-96523952D01*
X86764285Y-96571571D01*
X86740475Y-96595380D01*
X86692856Y-96619190D01*
X86645237Y-96619190D01*
X86597618Y-96595380D01*
X86573809Y-96571571D01*
X86549999Y-96523952D01*
X86526190Y-96428714D01*
X86526190Y-96309666D01*
X86549999Y-96214428D01*
X86573809Y-96166809D01*
X86597618Y-96143000D01*
X86645237Y-96119190D01*
X87026190Y-96619190D02*
X87026190Y-96119190D01*
X87073809Y-96428714D02*
X87216666Y-96619190D01*
X87216666Y-96285857D02*
X87026190Y-96476333D01*
X86302380Y-105890190D02*
X86016666Y-105890190D01*
X86159523Y-105890190D02*
X86159523Y-105390190D01*
X86111904Y-105461619D01*
X86064285Y-105509238D01*
X86016666Y-105533047D01*
X86611904Y-105390190D02*
X86659523Y-105390190D01*
X86707142Y-105414000D01*
X86730952Y-105437809D01*
X86754761Y-105485428D01*
X86778571Y-105580666D01*
X86778571Y-105699714D01*
X86754761Y-105794952D01*
X86730952Y-105842571D01*
X86707142Y-105866380D01*
X86659523Y-105890190D01*
X86611904Y-105890190D01*
X86564285Y-105866380D01*
X86540476Y-105842571D01*
X86516666Y-105794952D01*
X86492857Y-105699714D01*
X86492857Y-105580666D01*
X86516666Y-105485428D01*
X86540476Y-105437809D01*
X86564285Y-105414000D01*
X86611904Y-105390190D01*
X86992857Y-105890190D02*
X86992857Y-105390190D01*
X87040476Y-105699714D02*
X87183333Y-105890190D01*
X87183333Y-105556857D02*
X86992857Y-105747333D01*
X82125380Y-96619190D02*
X81839666Y-96619190D01*
X81982523Y-96619190D02*
X81982523Y-96119190D01*
X81934904Y-96190619D01*
X81887285Y-96238238D01*
X81839666Y-96262047D01*
X82434904Y-96119190D02*
X82482523Y-96119190D01*
X82530142Y-96143000D01*
X82553952Y-96166809D01*
X82577761Y-96214428D01*
X82601571Y-96309666D01*
X82601571Y-96428714D01*
X82577761Y-96523952D01*
X82553952Y-96571571D01*
X82530142Y-96595380D01*
X82482523Y-96619190D01*
X82434904Y-96619190D01*
X82387285Y-96595380D01*
X82363476Y-96571571D01*
X82339666Y-96523952D01*
X82315857Y-96428714D01*
X82315857Y-96309666D01*
X82339666Y-96214428D01*
X82363476Y-96166809D01*
X82387285Y-96143000D01*
X82434904Y-96119190D01*
X82815857Y-96619190D02*
X82815857Y-96119190D01*
X82863476Y-96428714D02*
X83006333Y-96619190D01*
X83006333Y-96285857D02*
X82815857Y-96476333D01*
X82102380Y-105890190D02*
X81816666Y-105890190D01*
X81959523Y-105890190D02*
X81959523Y-105390190D01*
X81911904Y-105461619D01*
X81864285Y-105509238D01*
X81816666Y-105533047D01*
X82411904Y-105390190D02*
X82459523Y-105390190D01*
X82507142Y-105414000D01*
X82530952Y-105437809D01*
X82554761Y-105485428D01*
X82578571Y-105580666D01*
X82578571Y-105699714D01*
X82554761Y-105794952D01*
X82530952Y-105842571D01*
X82507142Y-105866380D01*
X82459523Y-105890190D01*
X82411904Y-105890190D01*
X82364285Y-105866380D01*
X82340476Y-105842571D01*
X82316666Y-105794952D01*
X82292857Y-105699714D01*
X82292857Y-105580666D01*
X82316666Y-105485428D01*
X82340476Y-105437809D01*
X82364285Y-105414000D01*
X82411904Y-105390190D01*
X82792857Y-105890190D02*
X82792857Y-105390190D01*
X82840476Y-105699714D02*
X82983333Y-105890190D01*
X82983333Y-105556857D02*
X82792857Y-105747333D01*
X116478857Y-118717190D02*
X116193142Y-118717190D01*
X116336000Y-118717190D02*
X116336000Y-118217190D01*
X116288380Y-118288619D01*
X116240761Y-118336238D01*
X116193142Y-118360047D01*
X116693142Y-118717190D02*
X116693142Y-118217190D01*
X116978857Y-118717190D02*
X116764571Y-118431476D01*
X116978857Y-118217190D02*
X116693142Y-118502904D01*
X114319857Y-118717190D02*
X114034142Y-118717190D01*
X114177000Y-118717190D02*
X114177000Y-118217190D01*
X114129380Y-118288619D01*
X114081761Y-118336238D01*
X114034142Y-118360047D01*
X114534142Y-118717190D02*
X114534142Y-118217190D01*
X114819857Y-118717190D02*
X114605571Y-118431476D01*
X114819857Y-118217190D02*
X114534142Y-118502904D01*
X112033857Y-118717190D02*
X111748142Y-118717190D01*
X111891000Y-118717190D02*
X111891000Y-118217190D01*
X111843380Y-118288619D01*
X111795761Y-118336238D01*
X111748142Y-118360047D01*
X112248142Y-118717190D02*
X112248142Y-118217190D01*
X112533857Y-118717190D02*
X112319571Y-118431476D01*
X112533857Y-118217190D02*
X112248142Y-118502904D01*
X109874857Y-118717190D02*
X109589142Y-118717190D01*
X109732000Y-118717190D02*
X109732000Y-118217190D01*
X109684380Y-118288619D01*
X109636761Y-118336238D01*
X109589142Y-118360047D01*
X110089142Y-118717190D02*
X110089142Y-118217190D01*
X110374857Y-118717190D02*
X110160571Y-118431476D01*
X110374857Y-118217190D02*
X110089142Y-118502904D01*
X105683857Y-118717190D02*
X105398142Y-118717190D01*
X105541000Y-118717190D02*
X105541000Y-118217190D01*
X105493380Y-118288619D01*
X105445761Y-118336238D01*
X105398142Y-118360047D01*
X105898142Y-118717190D02*
X105898142Y-118217190D01*
X106183857Y-118717190D02*
X105969571Y-118431476D01*
X106183857Y-118217190D02*
X105898142Y-118502904D01*
X103524857Y-118717190D02*
X103239142Y-118717190D01*
X103382000Y-118717190D02*
X103382000Y-118217190D01*
X103334380Y-118288619D01*
X103286761Y-118336238D01*
X103239142Y-118360047D01*
X103739142Y-118717190D02*
X103739142Y-118217190D01*
X104024857Y-118717190D02*
X103810571Y-118431476D01*
X104024857Y-118217190D02*
X103739142Y-118502904D01*
X101238857Y-118717190D02*
X100953142Y-118717190D01*
X101096000Y-118717190D02*
X101096000Y-118217190D01*
X101048380Y-118288619D01*
X101000761Y-118336238D01*
X100953142Y-118360047D01*
X101453142Y-118717190D02*
X101453142Y-118217190D01*
X101738857Y-118717190D02*
X101524571Y-118431476D01*
X101738857Y-118217190D02*
X101453142Y-118502904D01*
X99079857Y-118717190D02*
X98794142Y-118717190D01*
X98937000Y-118717190D02*
X98937000Y-118217190D01*
X98889380Y-118288619D01*
X98841761Y-118336238D01*
X98794142Y-118360047D01*
X99294142Y-118717190D02*
X99294142Y-118217190D01*
X99579857Y-118717190D02*
X99365571Y-118431476D01*
X99579857Y-118217190D02*
X99294142Y-118502904D01*
M02*
