G04 #@! TF.GenerationSoftware,KiCad,Pcbnew,5.1.5-52549c5~86~ubuntu19.04.1*
G04 #@! TF.CreationDate,2020-05-15T20:04:21+10:00*
G04 #@! TF.ProjectId,sid-board-v2,7369642d-626f-4617-9264-2d76322e6b69,rev?*
G04 #@! TF.SameCoordinates,Original*
G04 #@! TF.FileFunction,Legend,Bot*
G04 #@! TF.FilePolarity,Positive*
%FSLAX46Y46*%
G04 Gerber Fmt 4.6, Leading zero omitted, Abs format (unit mm)*
G04 Created by KiCad (PCBNEW 5.1.5-52549c5~86~ubuntu19.04.1) date 2020-05-15 20:04:21*
%MOMM*%
%LPD*%
G04 APERTURE LIST*
%ADD10C,0.250000*%
%ADD11C,0.300000*%
%ADD12C,0.010000*%
G04 APERTURE END LIST*
D10*
X76287380Y-81740952D02*
X77001666Y-81740952D01*
X77144523Y-81693333D01*
X77239761Y-81598095D01*
X77287380Y-81455238D01*
X77287380Y-81360000D01*
X77287380Y-82693333D02*
X77287380Y-82217142D01*
X76287380Y-82217142D01*
X77192142Y-83598095D02*
X77239761Y-83550476D01*
X77287380Y-83407619D01*
X77287380Y-83312380D01*
X77239761Y-83169523D01*
X77144523Y-83074285D01*
X77049285Y-83026666D01*
X76858809Y-82979047D01*
X76715952Y-82979047D01*
X76525476Y-83026666D01*
X76430238Y-83074285D01*
X76335000Y-83169523D01*
X76287380Y-83312380D01*
X76287380Y-83407619D01*
X76335000Y-83550476D01*
X76382619Y-83598095D01*
X76287380Y-84312380D02*
X77001666Y-84312380D01*
X77144523Y-84264761D01*
X77239761Y-84169523D01*
X77287380Y-84026666D01*
X77287380Y-83931428D01*
X77287380Y-85264761D02*
X77287380Y-84788571D01*
X76287380Y-84788571D01*
X77192142Y-86169523D02*
X77239761Y-86121904D01*
X77287380Y-85979047D01*
X77287380Y-85883809D01*
X77239761Y-85740952D01*
X77144523Y-85645714D01*
X77049285Y-85598095D01*
X76858809Y-85550476D01*
X76715952Y-85550476D01*
X76525476Y-85598095D01*
X76430238Y-85645714D01*
X76335000Y-85740952D01*
X76287380Y-85883809D01*
X76287380Y-85979047D01*
X76335000Y-86121904D01*
X76382619Y-86169523D01*
X76287380Y-86883809D02*
X77001666Y-86883809D01*
X77144523Y-86836190D01*
X77239761Y-86740952D01*
X77287380Y-86598095D01*
X77287380Y-86502857D01*
X77287380Y-87836190D02*
X77287380Y-87360000D01*
X76287380Y-87360000D01*
X77192142Y-88740952D02*
X77239761Y-88693333D01*
X77287380Y-88550476D01*
X77287380Y-88455238D01*
X77239761Y-88312380D01*
X77144523Y-88217142D01*
X77049285Y-88169523D01*
X76858809Y-88121904D01*
X76715952Y-88121904D01*
X76525476Y-88169523D01*
X76430238Y-88217142D01*
X76335000Y-88312380D01*
X76287380Y-88455238D01*
X76287380Y-88550476D01*
X76335000Y-88693333D01*
X76382619Y-88740952D01*
X76287380Y-89455238D02*
X77001666Y-89455238D01*
X77144523Y-89407619D01*
X77239761Y-89312380D01*
X77287380Y-89169523D01*
X77287380Y-89074285D01*
X77287380Y-90407619D02*
X77287380Y-89931428D01*
X76287380Y-89931428D01*
X77192142Y-91312380D02*
X77239761Y-91264761D01*
X77287380Y-91121904D01*
X77287380Y-91026666D01*
X77239761Y-90883809D01*
X77144523Y-90788571D01*
X77049285Y-90740952D01*
X76858809Y-90693333D01*
X76715952Y-90693333D01*
X76525476Y-90740952D01*
X76430238Y-90788571D01*
X76335000Y-90883809D01*
X76287380Y-91026666D01*
X76287380Y-91121904D01*
X76335000Y-91264761D01*
X76382619Y-91312380D01*
D11*
X118709166Y-96501666D02*
X116959166Y-96501666D01*
X116959166Y-96918333D01*
X117042500Y-97168333D01*
X117209166Y-97335000D01*
X117375833Y-97418333D01*
X117709166Y-97501666D01*
X117959166Y-97501666D01*
X118292500Y-97418333D01*
X118459166Y-97335000D01*
X118625833Y-97168333D01*
X118709166Y-96918333D01*
X118709166Y-96501666D01*
X117792500Y-98251666D02*
X117792500Y-98835000D01*
X118709166Y-99085000D02*
X118709166Y-98251666D01*
X116959166Y-98251666D01*
X116959166Y-99085000D01*
X118625833Y-99751666D02*
X118709166Y-100001666D01*
X118709166Y-100418333D01*
X118625833Y-100585000D01*
X118542500Y-100668333D01*
X118375833Y-100751666D01*
X118209166Y-100751666D01*
X118042500Y-100668333D01*
X117959166Y-100585000D01*
X117875833Y-100418333D01*
X117792500Y-100085000D01*
X117709166Y-99918333D01*
X117625833Y-99835000D01*
X117459166Y-99751666D01*
X117292500Y-99751666D01*
X117125833Y-99835000D01*
X117042500Y-99918333D01*
X116959166Y-100085000D01*
X116959166Y-100501666D01*
X117042500Y-100751666D01*
X118709166Y-101501666D02*
X116959166Y-101501666D01*
X117042500Y-103251666D02*
X116959166Y-103085000D01*
X116959166Y-102835000D01*
X117042500Y-102585000D01*
X117209166Y-102418333D01*
X117375833Y-102335000D01*
X117709166Y-102251666D01*
X117959166Y-102251666D01*
X118292500Y-102335000D01*
X118459166Y-102418333D01*
X118625833Y-102585000D01*
X118709166Y-102835000D01*
X118709166Y-103001666D01*
X118625833Y-103251666D01*
X118542500Y-103335000D01*
X117959166Y-103335000D01*
X117959166Y-103001666D01*
X118709166Y-104085000D02*
X116959166Y-104085000D01*
X118709166Y-105085000D01*
X116959166Y-105085000D01*
X117792500Y-105918333D02*
X117792500Y-106501666D01*
X118709166Y-106751666D02*
X118709166Y-105918333D01*
X116959166Y-105918333D01*
X116959166Y-106751666D01*
X118709166Y-107501666D02*
X116959166Y-107501666D01*
X116959166Y-107918333D01*
X117042500Y-108168333D01*
X117209166Y-108335000D01*
X117375833Y-108418333D01*
X117709166Y-108501666D01*
X117959166Y-108501666D01*
X118292500Y-108418333D01*
X118459166Y-108335000D01*
X118625833Y-108168333D01*
X118709166Y-107918333D01*
X118709166Y-107501666D01*
X118709166Y-110585000D02*
X116959166Y-110585000D01*
X118709166Y-111418333D02*
X116959166Y-111418333D01*
X118709166Y-112418333D01*
X116959166Y-112418333D01*
X121134166Y-99835000D02*
X121134166Y-100668333D01*
X121634166Y-99668333D02*
X119884166Y-100251666D01*
X121634166Y-100835000D01*
X119884166Y-101418333D02*
X121300833Y-101418333D01*
X121467500Y-101501666D01*
X121550833Y-101585000D01*
X121634166Y-101751666D01*
X121634166Y-102085000D01*
X121550833Y-102251666D01*
X121467500Y-102335000D01*
X121300833Y-102418333D01*
X119884166Y-102418333D01*
X121550833Y-103168333D02*
X121634166Y-103418333D01*
X121634166Y-103835000D01*
X121550833Y-104001666D01*
X121467500Y-104085000D01*
X121300833Y-104168333D01*
X121134166Y-104168333D01*
X120967500Y-104085000D01*
X120884166Y-104001666D01*
X120800833Y-103835000D01*
X120717500Y-103501666D01*
X120634166Y-103335000D01*
X120550833Y-103251666D01*
X120384166Y-103168333D01*
X120217500Y-103168333D01*
X120050833Y-103251666D01*
X119967500Y-103335000D01*
X119884166Y-103501666D01*
X119884166Y-103918333D01*
X119967500Y-104168333D01*
X119884166Y-104668333D02*
X119884166Y-105668333D01*
X121634166Y-105168333D02*
X119884166Y-105168333D01*
X121634166Y-107251666D02*
X120800833Y-106668333D01*
X121634166Y-106251666D02*
X119884166Y-106251666D01*
X119884166Y-106918333D01*
X119967500Y-107085000D01*
X120050833Y-107168333D01*
X120217500Y-107251666D01*
X120467500Y-107251666D01*
X120634166Y-107168333D01*
X120717500Y-107085000D01*
X120800833Y-106918333D01*
X120800833Y-106251666D01*
X121134166Y-107918333D02*
X121134166Y-108751666D01*
X121634166Y-107751666D02*
X119884166Y-108335000D01*
X121634166Y-108918333D01*
X121634166Y-110335000D02*
X121634166Y-109501666D01*
X119884166Y-109501666D01*
X121634166Y-110918333D02*
X119884166Y-110918333D01*
X121134166Y-111668333D02*
X121134166Y-112501666D01*
X121634166Y-111501666D02*
X119884166Y-112085000D01*
X121634166Y-112668333D01*
D12*
G36*
X114880305Y-118622080D02*
G01*
X114881418Y-118625322D01*
X114891030Y-118640196D01*
X114908636Y-118640187D01*
X114942515Y-118623828D01*
X114965911Y-118610370D01*
X115014062Y-118585165D01*
X115053676Y-118569613D01*
X115066722Y-118567200D01*
X115097819Y-118561201D01*
X115099833Y-118545829D01*
X115074823Y-118525016D01*
X115034885Y-118506378D01*
X114977340Y-118488733D01*
X114940184Y-118488920D01*
X114928944Y-118493990D01*
X114898504Y-118528441D01*
X114880180Y-118576970D01*
X114880305Y-118622080D01*
G37*
X114880305Y-118622080D02*
X114881418Y-118625322D01*
X114891030Y-118640196D01*
X114908636Y-118640187D01*
X114942515Y-118623828D01*
X114965911Y-118610370D01*
X115014062Y-118585165D01*
X115053676Y-118569613D01*
X115066722Y-118567200D01*
X115097819Y-118561201D01*
X115099833Y-118545829D01*
X115074823Y-118525016D01*
X115034885Y-118506378D01*
X114977340Y-118488733D01*
X114940184Y-118488920D01*
X114928944Y-118493990D01*
X114898504Y-118528441D01*
X114880180Y-118576970D01*
X114880305Y-118622080D01*
G36*
X102004469Y-110927701D02*
G01*
X102041772Y-110930128D01*
X102054576Y-110930267D01*
X102108109Y-110920820D01*
X102151524Y-110896791D01*
X102174417Y-110864645D01*
X102175734Y-110854969D01*
X102186014Y-110835222D01*
X102211971Y-110800894D01*
X102226534Y-110783746D01*
X102266698Y-110713570D01*
X102277664Y-110631573D01*
X102258727Y-110544238D01*
X102253816Y-110532333D01*
X102223679Y-110477890D01*
X102185148Y-110427420D01*
X102145731Y-110389271D01*
X102112936Y-110371790D01*
X102109119Y-110371466D01*
X102064942Y-110386157D01*
X102036872Y-110426181D01*
X102028338Y-110485473D01*
X102030701Y-110510321D01*
X102044464Y-110607378D01*
X102051442Y-110679095D01*
X102051486Y-110733343D01*
X102044447Y-110777991D01*
X102030179Y-110820911D01*
X102024605Y-110834304D01*
X102004844Y-110881558D01*
X101992098Y-110914402D01*
X101989467Y-110923204D01*
X102004469Y-110927701D01*
G37*
X102004469Y-110927701D02*
X102041772Y-110930128D01*
X102054576Y-110930267D01*
X102108109Y-110920820D01*
X102151524Y-110896791D01*
X102174417Y-110864645D01*
X102175734Y-110854969D01*
X102186014Y-110835222D01*
X102211971Y-110800894D01*
X102226534Y-110783746D01*
X102266698Y-110713570D01*
X102277664Y-110631573D01*
X102258727Y-110544238D01*
X102253816Y-110532333D01*
X102223679Y-110477890D01*
X102185148Y-110427420D01*
X102145731Y-110389271D01*
X102112936Y-110371790D01*
X102109119Y-110371466D01*
X102064942Y-110386157D01*
X102036872Y-110426181D01*
X102028338Y-110485473D01*
X102030701Y-110510321D01*
X102044464Y-110607378D01*
X102051442Y-110679095D01*
X102051486Y-110733343D01*
X102044447Y-110777991D01*
X102030179Y-110820911D01*
X102024605Y-110834304D01*
X102004844Y-110881558D01*
X101992098Y-110914402D01*
X101989467Y-110923204D01*
X102004469Y-110927701D01*
G36*
X103406444Y-113701146D02*
G01*
X103459558Y-113666634D01*
X103509389Y-113640222D01*
X103534779Y-113630646D01*
X103570323Y-113618481D01*
X103578076Y-113600365D01*
X103562206Y-113565594D01*
X103560966Y-113563400D01*
X103531126Y-113524305D01*
X103492074Y-113507247D01*
X103452591Y-113504392D01*
X103402822Y-113514027D01*
X103368258Y-113546137D01*
X103345984Y-113604666D01*
X103336356Y-113661697D01*
X103324531Y-113759995D01*
X103406444Y-113701146D01*
G37*
X103406444Y-113701146D02*
X103459558Y-113666634D01*
X103509389Y-113640222D01*
X103534779Y-113630646D01*
X103570323Y-113618481D01*
X103578076Y-113600365D01*
X103562206Y-113565594D01*
X103560966Y-113563400D01*
X103531126Y-113524305D01*
X103492074Y-113507247D01*
X103452591Y-113504392D01*
X103402822Y-113514027D01*
X103368258Y-113546137D01*
X103345984Y-113604666D01*
X103336356Y-113661697D01*
X103324531Y-113759995D01*
X103406444Y-113701146D01*
G36*
X102029053Y-111524999D02*
G01*
X102063217Y-111620862D01*
X102118281Y-111736461D01*
X102183177Y-111852496D01*
X102252297Y-111975178D01*
X102304244Y-112083793D01*
X102342543Y-112188927D01*
X102370719Y-112301164D01*
X102392296Y-112431089D01*
X102402195Y-112510159D01*
X102417108Y-112617929D01*
X102434815Y-112700842D01*
X102457457Y-112767901D01*
X102470176Y-112796019D01*
X102494943Y-112848753D01*
X102505900Y-112884158D01*
X102504467Y-112915154D01*
X102492065Y-112954659D01*
X102488650Y-112964017D01*
X102470210Y-113015087D01*
X102455898Y-113056068D01*
X102452490Y-113066367D01*
X102458391Y-113096862D01*
X102486961Y-113141051D01*
X102503704Y-113160769D01*
X102563145Y-113241861D01*
X102590146Y-113317132D01*
X102584602Y-113385706D01*
X102546413Y-113446710D01*
X102538180Y-113454855D01*
X102505779Y-113498994D01*
X102488237Y-113544941D01*
X102486885Y-113597631D01*
X102497943Y-113653983D01*
X102517710Y-113702952D01*
X102542488Y-113733488D01*
X102552898Y-113738053D01*
X102598083Y-113732505D01*
X102658753Y-113705278D01*
X102729070Y-113661007D01*
X102803196Y-113604325D01*
X102875294Y-113539868D01*
X102939528Y-113472269D01*
X102990060Y-113406162D01*
X103007168Y-113377397D01*
X103041404Y-113325014D01*
X103084108Y-113287491D01*
X103142468Y-113261003D01*
X103223671Y-113241728D01*
X103278429Y-113233130D01*
X103400874Y-113211361D01*
X103497130Y-113182171D01*
X103574687Y-113141731D01*
X103641034Y-113086210D01*
X103698988Y-113018015D01*
X103754897Y-112958407D01*
X103811203Y-112930170D01*
X103871228Y-112933281D01*
X103938297Y-112967722D01*
X103997471Y-113016169D01*
X104081247Y-113104189D01*
X104175299Y-113223328D01*
X104279764Y-113373793D01*
X104394784Y-113555791D01*
X104520497Y-113769528D01*
X104595012Y-113902067D01*
X104640546Y-113983240D01*
X104682713Y-114056616D01*
X104717712Y-114115707D01*
X104741742Y-114154026D01*
X104747216Y-114161805D01*
X104777417Y-114201411D01*
X107036809Y-114115541D01*
X107314735Y-114104957D01*
X107585948Y-114094585D01*
X107848241Y-114084513D01*
X108099404Y-114074827D01*
X108337232Y-114065614D01*
X108559515Y-114056960D01*
X108764046Y-114048951D01*
X108948618Y-114041675D01*
X109111022Y-114035217D01*
X109249051Y-114029665D01*
X109360497Y-114025105D01*
X109443153Y-114021623D01*
X109494810Y-114019305D01*
X109503633Y-114018866D01*
X109711067Y-114008060D01*
X109707750Y-113658730D01*
X109706507Y-113545002D01*
X109705011Y-113435212D01*
X109703382Y-113336678D01*
X109701744Y-113256719D01*
X109700218Y-113202653D01*
X109700091Y-113199333D01*
X109699250Y-113166407D01*
X109698046Y-113102208D01*
X109696516Y-113009328D01*
X109694696Y-112890356D01*
X109692623Y-112747885D01*
X109690333Y-112584506D01*
X109687862Y-112402809D01*
X109685246Y-112205387D01*
X109682521Y-111994830D01*
X109679725Y-111773729D01*
X109676893Y-111544677D01*
X109676733Y-111531536D01*
X109673920Y-111304942D01*
X109671137Y-111088154D01*
X109668421Y-110883545D01*
X109665807Y-110693485D01*
X109663330Y-110520349D01*
X109661026Y-110366508D01*
X109658931Y-110234335D01*
X109657081Y-110126203D01*
X109655511Y-110044483D01*
X109654256Y-109991549D01*
X109653353Y-109969772D01*
X109653256Y-109969345D01*
X109635771Y-109967818D01*
X109586593Y-109965136D01*
X109507872Y-109961380D01*
X109401759Y-109956633D01*
X109270404Y-109950976D01*
X109115959Y-109944493D01*
X108940573Y-109937266D01*
X108746397Y-109929376D01*
X108535582Y-109920905D01*
X108310278Y-109911937D01*
X108072636Y-109902554D01*
X107824807Y-109892837D01*
X107568942Y-109882869D01*
X107307190Y-109872733D01*
X107041702Y-109862509D01*
X106774630Y-109852282D01*
X106508123Y-109842132D01*
X106244333Y-109832143D01*
X105985409Y-109822396D01*
X105733503Y-109812973D01*
X105490765Y-109803958D01*
X105259346Y-109795432D01*
X105041396Y-109787477D01*
X104839065Y-109780177D01*
X104654506Y-109773612D01*
X104489867Y-109767865D01*
X104347300Y-109763019D01*
X104228956Y-109759155D01*
X104136984Y-109756357D01*
X104073536Y-109754706D01*
X104040763Y-109754284D01*
X104036577Y-109754526D01*
X104023605Y-109777493D01*
X104021467Y-109794449D01*
X104008136Y-109836042D01*
X103974102Y-109882975D01*
X103928301Y-109924202D01*
X103904705Y-109938750D01*
X103866478Y-109952094D01*
X103806000Y-109966313D01*
X103734711Y-109978822D01*
X103715701Y-109981490D01*
X103569156Y-110006592D01*
X103449038Y-110040826D01*
X103348510Y-110086960D01*
X103260736Y-110147761D01*
X103223472Y-110180744D01*
X103182636Y-110214574D01*
X103140811Y-110235112D01*
X103084707Y-110247851D01*
X103049329Y-110252744D01*
X102989676Y-110262604D01*
X102938684Y-110278487D01*
X102889187Y-110304536D01*
X102834021Y-110344893D01*
X102766022Y-110403704D01*
X102727819Y-110438687D01*
X102680947Y-110484164D01*
X102645394Y-110526186D01*
X102619598Y-110570391D01*
X102602000Y-110622416D01*
X102591040Y-110687899D01*
X102585158Y-110772476D01*
X102582794Y-110881786D01*
X102582411Y-110964133D01*
X102581421Y-111097706D01*
X102578325Y-111201693D01*
X102572265Y-111280349D01*
X102562381Y-111337931D01*
X102547816Y-111378696D01*
X102527710Y-111406900D01*
X102501205Y-111426801D01*
X102487664Y-111433847D01*
X102456532Y-111447165D01*
X102428752Y-111452319D01*
X102394583Y-111448690D01*
X102344284Y-111435659D01*
X102298168Y-111421805D01*
X102197812Y-111393116D01*
X102124454Y-111377231D01*
X102073882Y-111373807D01*
X102041883Y-111382500D01*
X102025898Y-111399609D01*
X102016407Y-111450654D01*
X102029053Y-111524999D01*
G37*
X102029053Y-111524999D02*
X102063217Y-111620862D01*
X102118281Y-111736461D01*
X102183177Y-111852496D01*
X102252297Y-111975178D01*
X102304244Y-112083793D01*
X102342543Y-112188927D01*
X102370719Y-112301164D01*
X102392296Y-112431089D01*
X102402195Y-112510159D01*
X102417108Y-112617929D01*
X102434815Y-112700842D01*
X102457457Y-112767901D01*
X102470176Y-112796019D01*
X102494943Y-112848753D01*
X102505900Y-112884158D01*
X102504467Y-112915154D01*
X102492065Y-112954659D01*
X102488650Y-112964017D01*
X102470210Y-113015087D01*
X102455898Y-113056068D01*
X102452490Y-113066367D01*
X102458391Y-113096862D01*
X102486961Y-113141051D01*
X102503704Y-113160769D01*
X102563145Y-113241861D01*
X102590146Y-113317132D01*
X102584602Y-113385706D01*
X102546413Y-113446710D01*
X102538180Y-113454855D01*
X102505779Y-113498994D01*
X102488237Y-113544941D01*
X102486885Y-113597631D01*
X102497943Y-113653983D01*
X102517710Y-113702952D01*
X102542488Y-113733488D01*
X102552898Y-113738053D01*
X102598083Y-113732505D01*
X102658753Y-113705278D01*
X102729070Y-113661007D01*
X102803196Y-113604325D01*
X102875294Y-113539868D01*
X102939528Y-113472269D01*
X102990060Y-113406162D01*
X103007168Y-113377397D01*
X103041404Y-113325014D01*
X103084108Y-113287491D01*
X103142468Y-113261003D01*
X103223671Y-113241728D01*
X103278429Y-113233130D01*
X103400874Y-113211361D01*
X103497130Y-113182171D01*
X103574687Y-113141731D01*
X103641034Y-113086210D01*
X103698988Y-113018015D01*
X103754897Y-112958407D01*
X103811203Y-112930170D01*
X103871228Y-112933281D01*
X103938297Y-112967722D01*
X103997471Y-113016169D01*
X104081247Y-113104189D01*
X104175299Y-113223328D01*
X104279764Y-113373793D01*
X104394784Y-113555791D01*
X104520497Y-113769528D01*
X104595012Y-113902067D01*
X104640546Y-113983240D01*
X104682713Y-114056616D01*
X104717712Y-114115707D01*
X104741742Y-114154026D01*
X104747216Y-114161805D01*
X104777417Y-114201411D01*
X107036809Y-114115541D01*
X107314735Y-114104957D01*
X107585948Y-114094585D01*
X107848241Y-114084513D01*
X108099404Y-114074827D01*
X108337232Y-114065614D01*
X108559515Y-114056960D01*
X108764046Y-114048951D01*
X108948618Y-114041675D01*
X109111022Y-114035217D01*
X109249051Y-114029665D01*
X109360497Y-114025105D01*
X109443153Y-114021623D01*
X109494810Y-114019305D01*
X109503633Y-114018866D01*
X109711067Y-114008060D01*
X109707750Y-113658730D01*
X109706507Y-113545002D01*
X109705011Y-113435212D01*
X109703382Y-113336678D01*
X109701744Y-113256719D01*
X109700218Y-113202653D01*
X109700091Y-113199333D01*
X109699250Y-113166407D01*
X109698046Y-113102208D01*
X109696516Y-113009328D01*
X109694696Y-112890356D01*
X109692623Y-112747885D01*
X109690333Y-112584506D01*
X109687862Y-112402809D01*
X109685246Y-112205387D01*
X109682521Y-111994830D01*
X109679725Y-111773729D01*
X109676893Y-111544677D01*
X109676733Y-111531536D01*
X109673920Y-111304942D01*
X109671137Y-111088154D01*
X109668421Y-110883545D01*
X109665807Y-110693485D01*
X109663330Y-110520349D01*
X109661026Y-110366508D01*
X109658931Y-110234335D01*
X109657081Y-110126203D01*
X109655511Y-110044483D01*
X109654256Y-109991549D01*
X109653353Y-109969772D01*
X109653256Y-109969345D01*
X109635771Y-109967818D01*
X109586593Y-109965136D01*
X109507872Y-109961380D01*
X109401759Y-109956633D01*
X109270404Y-109950976D01*
X109115959Y-109944493D01*
X108940573Y-109937266D01*
X108746397Y-109929376D01*
X108535582Y-109920905D01*
X108310278Y-109911937D01*
X108072636Y-109902554D01*
X107824807Y-109892837D01*
X107568942Y-109882869D01*
X107307190Y-109872733D01*
X107041702Y-109862509D01*
X106774630Y-109852282D01*
X106508123Y-109842132D01*
X106244333Y-109832143D01*
X105985409Y-109822396D01*
X105733503Y-109812973D01*
X105490765Y-109803958D01*
X105259346Y-109795432D01*
X105041396Y-109787477D01*
X104839065Y-109780177D01*
X104654506Y-109773612D01*
X104489867Y-109767865D01*
X104347300Y-109763019D01*
X104228956Y-109759155D01*
X104136984Y-109756357D01*
X104073536Y-109754706D01*
X104040763Y-109754284D01*
X104036577Y-109754526D01*
X104023605Y-109777493D01*
X104021467Y-109794449D01*
X104008136Y-109836042D01*
X103974102Y-109882975D01*
X103928301Y-109924202D01*
X103904705Y-109938750D01*
X103866478Y-109952094D01*
X103806000Y-109966313D01*
X103734711Y-109978822D01*
X103715701Y-109981490D01*
X103569156Y-110006592D01*
X103449038Y-110040826D01*
X103348510Y-110086960D01*
X103260736Y-110147761D01*
X103223472Y-110180744D01*
X103182636Y-110214574D01*
X103140811Y-110235112D01*
X103084707Y-110247851D01*
X103049329Y-110252744D01*
X102989676Y-110262604D01*
X102938684Y-110278487D01*
X102889187Y-110304536D01*
X102834021Y-110344893D01*
X102766022Y-110403704D01*
X102727819Y-110438687D01*
X102680947Y-110484164D01*
X102645394Y-110526186D01*
X102619598Y-110570391D01*
X102602000Y-110622416D01*
X102591040Y-110687899D01*
X102585158Y-110772476D01*
X102582794Y-110881786D01*
X102582411Y-110964133D01*
X102581421Y-111097706D01*
X102578325Y-111201693D01*
X102572265Y-111280349D01*
X102562381Y-111337931D01*
X102547816Y-111378696D01*
X102527710Y-111406900D01*
X102501205Y-111426801D01*
X102487664Y-111433847D01*
X102456532Y-111447165D01*
X102428752Y-111452319D01*
X102394583Y-111448690D01*
X102344284Y-111435659D01*
X102298168Y-111421805D01*
X102197812Y-111393116D01*
X102124454Y-111377231D01*
X102073882Y-111373807D01*
X102041883Y-111382500D01*
X102025898Y-111399609D01*
X102016407Y-111450654D01*
X102029053Y-111524999D01*
G36*
X101949416Y-116771441D02*
G01*
X101977580Y-116795293D01*
X102027763Y-116812354D01*
X102103424Y-116824133D01*
X102208026Y-116832139D01*
X102260400Y-116834696D01*
X102472067Y-116843892D01*
X102527327Y-116902403D01*
X102561893Y-116936407D01*
X102590662Y-116952214D01*
X102627786Y-116954496D01*
X102671260Y-116949940D01*
X102728245Y-116945478D01*
X102767922Y-116951899D01*
X102806012Y-116972598D01*
X102819200Y-116981897D01*
X102873112Y-117019246D01*
X102919416Y-117045131D01*
X102967032Y-117062184D01*
X103024877Y-117073041D01*
X103101871Y-117080334D01*
X103166334Y-117084407D01*
X103302628Y-117094024D01*
X103437903Y-117106738D01*
X103565623Y-117121699D01*
X103679252Y-117138056D01*
X103772254Y-117154960D01*
X103838094Y-117171561D01*
X103839219Y-117171926D01*
X103918782Y-117210443D01*
X103967714Y-117262784D01*
X103985397Y-117327080D01*
X103971211Y-117401465D01*
X103936800Y-117466533D01*
X103899985Y-117530810D01*
X103886717Y-117583991D01*
X103898334Y-117633856D01*
X103936173Y-117688188D01*
X103983367Y-117737328D01*
X104040432Y-117791106D01*
X104090635Y-117832143D01*
X104139868Y-117862166D01*
X104194024Y-117882897D01*
X104258996Y-117896063D01*
X104340677Y-117903387D01*
X104444961Y-117906595D01*
X104564446Y-117907391D01*
X104735201Y-117909483D01*
X104877441Y-117915876D01*
X104996375Y-117927745D01*
X105097212Y-117946270D01*
X105185159Y-117972627D01*
X105265426Y-118007993D01*
X105343219Y-118053547D01*
X105406783Y-118097829D01*
X105507643Y-118163603D01*
X105591711Y-118200050D01*
X105659073Y-118207203D01*
X105671628Y-118204857D01*
X105707032Y-118188481D01*
X105754192Y-118157484D01*
X105782946Y-118135055D01*
X105832391Y-118099022D01*
X105873352Y-118085819D01*
X105913645Y-118096701D01*
X105961086Y-118132920D01*
X105998456Y-118169614D01*
X106070445Y-118243542D01*
X106144730Y-118210683D01*
X106211960Y-118188599D01*
X106271387Y-118188788D01*
X106330113Y-118213372D01*
X106395244Y-118264473D01*
X106426829Y-118294968D01*
X106472382Y-118347011D01*
X106530013Y-118422593D01*
X106595360Y-118515644D01*
X106664059Y-118620093D01*
X106689295Y-118660158D01*
X106752968Y-118760142D01*
X106821205Y-118863353D01*
X106888040Y-118961019D01*
X106947504Y-119044371D01*
X106980711Y-119088434D01*
X107037518Y-119165079D01*
X107093068Y-119246641D01*
X107139766Y-119321645D01*
X107162957Y-119363775D01*
X107192829Y-119419437D01*
X107218600Y-119460920D01*
X107235585Y-119480843D01*
X107237714Y-119481600D01*
X107259629Y-119471566D01*
X107294345Y-119446741D01*
X107302879Y-119439743D01*
X107378712Y-119390719D01*
X107450096Y-119375254D01*
X107517420Y-119393387D01*
X107581075Y-119445157D01*
X107601522Y-119469865D01*
X107636058Y-119509569D01*
X107667670Y-119537060D01*
X107675721Y-119541601D01*
X107702346Y-119546789D01*
X107755898Y-119552763D01*
X107829468Y-119558899D01*
X107916146Y-119564571D01*
X107950000Y-119566419D01*
X108075525Y-119574538D01*
X108170817Y-119585023D01*
X108239490Y-119599033D01*
X108285156Y-119617726D01*
X108311428Y-119642260D01*
X108321919Y-119673795D01*
X108322534Y-119685885D01*
X108313467Y-119731250D01*
X108282192Y-119775209D01*
X108261637Y-119795278D01*
X108223501Y-119835305D01*
X108209686Y-119866092D01*
X108212134Y-119886952D01*
X108235369Y-119926995D01*
X108279552Y-119978045D01*
X108337028Y-120032977D01*
X108400140Y-120084668D01*
X108461233Y-120125992D01*
X108480223Y-120136435D01*
X108526973Y-120158985D01*
X108563802Y-120170805D01*
X108602946Y-120173383D01*
X108656638Y-120168203D01*
X108696212Y-120162671D01*
X108810440Y-120153768D01*
X108906039Y-120165248D01*
X108989107Y-120200017D01*
X109065740Y-120260981D01*
X109142036Y-120351046D01*
X109168131Y-120387581D01*
X109213988Y-120450208D01*
X109260197Y-120507200D01*
X109298559Y-120548602D01*
X109307016Y-120556245D01*
X109372714Y-120603397D01*
X109446538Y-120643824D01*
X109517545Y-120672358D01*
X109574791Y-120683833D01*
X109577306Y-120683867D01*
X109667961Y-120694535D01*
X109751278Y-120728906D01*
X109834696Y-120790530D01*
X109869333Y-120823182D01*
X109919400Y-120871260D01*
X109963675Y-120910875D01*
X109994217Y-120934997D01*
X109998721Y-120937753D01*
X110044312Y-120952184D01*
X110121953Y-120964377D01*
X110229894Y-120974216D01*
X110366383Y-120981585D01*
X110529671Y-120986366D01*
X110718008Y-120988445D01*
X110762565Y-120988528D01*
X110890710Y-120988121D01*
X111016947Y-120986905D01*
X111134390Y-120985007D01*
X111236151Y-120982555D01*
X111315342Y-120979674D01*
X111350999Y-120977664D01*
X111421980Y-120972105D01*
X111469919Y-120963764D01*
X111497101Y-120947417D01*
X111505808Y-120917839D01*
X111498321Y-120869805D01*
X111476925Y-120798090D01*
X111456559Y-120736058D01*
X111428035Y-120634516D01*
X111418209Y-120555215D01*
X111427298Y-120492012D01*
X111455520Y-120438768D01*
X111467593Y-120423996D01*
X111501232Y-120381272D01*
X111528004Y-120341975D01*
X111571451Y-120300640D01*
X111647870Y-120263103D01*
X111657857Y-120259372D01*
X111713400Y-120237137D01*
X111756321Y-120216325D01*
X111775299Y-120203236D01*
X111798274Y-120152127D01*
X111798588Y-120091892D01*
X111785578Y-120055005D01*
X111760780Y-120023642D01*
X111717069Y-119980410D01*
X111662845Y-119933464D01*
X111648927Y-119922335D01*
X111570926Y-119853268D01*
X111521001Y-119788424D01*
X111495137Y-119721199D01*
X111489067Y-119659269D01*
X111481007Y-119604567D01*
X111461023Y-119544798D01*
X111454884Y-119531779D01*
X111420527Y-119436808D01*
X111406246Y-119333765D01*
X111411626Y-119253659D01*
X111433096Y-119199281D01*
X111480011Y-119139951D01*
X111505404Y-119114804D01*
X111564296Y-119050355D01*
X111598167Y-118989478D01*
X111606120Y-118963998D01*
X111619352Y-118900388D01*
X111621958Y-118845983D01*
X111612368Y-118790690D01*
X111589015Y-118724415D01*
X111557865Y-118653420D01*
X111534201Y-118600670D01*
X111516365Y-118555902D01*
X111502983Y-118512340D01*
X111492680Y-118463208D01*
X111484084Y-118401729D01*
X111475818Y-118321127D01*
X111466509Y-118214625D01*
X111464825Y-118194666D01*
X111455326Y-118075926D01*
X111444309Y-117928085D01*
X111432080Y-117755862D01*
X111418943Y-117563972D01*
X111405204Y-117357135D01*
X111391168Y-117140066D01*
X111377140Y-116917484D01*
X111363427Y-116694106D01*
X111350332Y-116474648D01*
X111338162Y-116263829D01*
X111327851Y-116078000D01*
X111320624Y-115947539D01*
X111313536Y-115824812D01*
X111306899Y-115714824D01*
X111301022Y-115622579D01*
X111296219Y-115553080D01*
X111292800Y-115511332D01*
X111292280Y-115506500D01*
X111291017Y-115488027D01*
X111290088Y-115472579D01*
X111286702Y-115460055D01*
X111278069Y-115450358D01*
X111261396Y-115443387D01*
X111233893Y-115439045D01*
X111192769Y-115437233D01*
X111135232Y-115437850D01*
X111058492Y-115440800D01*
X110959756Y-115445981D01*
X110836235Y-115453297D01*
X110685136Y-115462647D01*
X110503668Y-115473933D01*
X110456134Y-115476866D01*
X110306722Y-115486040D01*
X110167633Y-115494530D01*
X110042547Y-115502115D01*
X109935145Y-115508575D01*
X109849107Y-115513688D01*
X109788115Y-115517235D01*
X109755848Y-115518992D01*
X109751888Y-115519145D01*
X109746593Y-115505847D01*
X109741756Y-115465189D01*
X109737330Y-115396079D01*
X109733271Y-115297425D01*
X109729533Y-115168134D01*
X109726070Y-115007112D01*
X109722980Y-114822837D01*
X109720612Y-114672837D01*
X109718193Y-114533769D01*
X109715803Y-114409190D01*
X109713519Y-114302657D01*
X109711422Y-114217726D01*
X109709587Y-114157953D01*
X109708095Y-114126896D01*
X109707559Y-114123238D01*
X109690366Y-114123456D01*
X109641649Y-114124911D01*
X109563725Y-114127515D01*
X109458909Y-114131179D01*
X109329518Y-114135815D01*
X109177867Y-114141333D01*
X109006273Y-114147645D01*
X108817051Y-114154663D01*
X108612518Y-114162299D01*
X108394990Y-114170462D01*
X108166782Y-114179066D01*
X107930211Y-114188020D01*
X107687592Y-114197237D01*
X107441241Y-114206628D01*
X107193476Y-114216105D01*
X106946611Y-114225578D01*
X106702962Y-114234959D01*
X106464846Y-114244160D01*
X106234579Y-114253091D01*
X106014476Y-114261665D01*
X105806854Y-114269793D01*
X105614029Y-114277385D01*
X105438316Y-114284354D01*
X105282031Y-114290611D01*
X105147492Y-114296067D01*
X105037013Y-114300633D01*
X104952910Y-114304222D01*
X104897500Y-114306744D01*
X104873099Y-114308111D01*
X104872120Y-114308249D01*
X104876987Y-114323622D01*
X104894342Y-114359075D01*
X104909034Y-114386325D01*
X104939810Y-114447135D01*
X104971824Y-114518502D01*
X104986198Y-114554000D01*
X105005552Y-114596884D01*
X105032108Y-114639423D01*
X105070359Y-114687189D01*
X105124795Y-114745756D01*
X105199910Y-114820698D01*
X105205774Y-114826424D01*
X105306837Y-114929294D01*
X105382124Y-115017419D01*
X105433615Y-115095458D01*
X105463290Y-115168069D01*
X105473130Y-115239912D01*
X105465114Y-115315646D01*
X105444911Y-115389061D01*
X105382816Y-115525434D01*
X105290896Y-115650150D01*
X105168576Y-115763683D01*
X105015280Y-115866509D01*
X104830434Y-115959099D01*
X104681867Y-116018112D01*
X104536101Y-116064622D01*
X104380978Y-116103022D01*
X104222934Y-116132545D01*
X104068409Y-116152422D01*
X103923840Y-116161885D01*
X103795667Y-116160166D01*
X103690328Y-116146498D01*
X103663040Y-116139635D01*
X103577088Y-116118291D01*
X103514098Y-116112786D01*
X103466744Y-116123807D01*
X103427700Y-116152040D01*
X103417692Y-116162636D01*
X103350074Y-116213866D01*
X103264575Y-116237812D01*
X103181986Y-116236065D01*
X103128318Y-116233823D01*
X103076674Y-116245696D01*
X103020314Y-116270601D01*
X102951031Y-116299256D01*
X102881902Y-116312589D01*
X102819631Y-116315066D01*
X102753668Y-116317862D01*
X102697016Y-116328645D01*
X102635551Y-116351013D01*
X102581848Y-116375609D01*
X102451096Y-116426447D01*
X102334437Y-116449729D01*
X102225408Y-116472121D01*
X102126049Y-116511663D01*
X102042349Y-116564546D01*
X101980298Y-116626958D01*
X101945884Y-116695089D01*
X101945302Y-116697334D01*
X101939810Y-116739291D01*
X101949416Y-116771441D01*
G37*
X101949416Y-116771441D02*
X101977580Y-116795293D01*
X102027763Y-116812354D01*
X102103424Y-116824133D01*
X102208026Y-116832139D01*
X102260400Y-116834696D01*
X102472067Y-116843892D01*
X102527327Y-116902403D01*
X102561893Y-116936407D01*
X102590662Y-116952214D01*
X102627786Y-116954496D01*
X102671260Y-116949940D01*
X102728245Y-116945478D01*
X102767922Y-116951899D01*
X102806012Y-116972598D01*
X102819200Y-116981897D01*
X102873112Y-117019246D01*
X102919416Y-117045131D01*
X102967032Y-117062184D01*
X103024877Y-117073041D01*
X103101871Y-117080334D01*
X103166334Y-117084407D01*
X103302628Y-117094024D01*
X103437903Y-117106738D01*
X103565623Y-117121699D01*
X103679252Y-117138056D01*
X103772254Y-117154960D01*
X103838094Y-117171561D01*
X103839219Y-117171926D01*
X103918782Y-117210443D01*
X103967714Y-117262784D01*
X103985397Y-117327080D01*
X103971211Y-117401465D01*
X103936800Y-117466533D01*
X103899985Y-117530810D01*
X103886717Y-117583991D01*
X103898334Y-117633856D01*
X103936173Y-117688188D01*
X103983367Y-117737328D01*
X104040432Y-117791106D01*
X104090635Y-117832143D01*
X104139868Y-117862166D01*
X104194024Y-117882897D01*
X104258996Y-117896063D01*
X104340677Y-117903387D01*
X104444961Y-117906595D01*
X104564446Y-117907391D01*
X104735201Y-117909483D01*
X104877441Y-117915876D01*
X104996375Y-117927745D01*
X105097212Y-117946270D01*
X105185159Y-117972627D01*
X105265426Y-118007993D01*
X105343219Y-118053547D01*
X105406783Y-118097829D01*
X105507643Y-118163603D01*
X105591711Y-118200050D01*
X105659073Y-118207203D01*
X105671628Y-118204857D01*
X105707032Y-118188481D01*
X105754192Y-118157484D01*
X105782946Y-118135055D01*
X105832391Y-118099022D01*
X105873352Y-118085819D01*
X105913645Y-118096701D01*
X105961086Y-118132920D01*
X105998456Y-118169614D01*
X106070445Y-118243542D01*
X106144730Y-118210683D01*
X106211960Y-118188599D01*
X106271387Y-118188788D01*
X106330113Y-118213372D01*
X106395244Y-118264473D01*
X106426829Y-118294968D01*
X106472382Y-118347011D01*
X106530013Y-118422593D01*
X106595360Y-118515644D01*
X106664059Y-118620093D01*
X106689295Y-118660158D01*
X106752968Y-118760142D01*
X106821205Y-118863353D01*
X106888040Y-118961019D01*
X106947504Y-119044371D01*
X106980711Y-119088434D01*
X107037518Y-119165079D01*
X107093068Y-119246641D01*
X107139766Y-119321645D01*
X107162957Y-119363775D01*
X107192829Y-119419437D01*
X107218600Y-119460920D01*
X107235585Y-119480843D01*
X107237714Y-119481600D01*
X107259629Y-119471566D01*
X107294345Y-119446741D01*
X107302879Y-119439743D01*
X107378712Y-119390719D01*
X107450096Y-119375254D01*
X107517420Y-119393387D01*
X107581075Y-119445157D01*
X107601522Y-119469865D01*
X107636058Y-119509569D01*
X107667670Y-119537060D01*
X107675721Y-119541601D01*
X107702346Y-119546789D01*
X107755898Y-119552763D01*
X107829468Y-119558899D01*
X107916146Y-119564571D01*
X107950000Y-119566419D01*
X108075525Y-119574538D01*
X108170817Y-119585023D01*
X108239490Y-119599033D01*
X108285156Y-119617726D01*
X108311428Y-119642260D01*
X108321919Y-119673795D01*
X108322534Y-119685885D01*
X108313467Y-119731250D01*
X108282192Y-119775209D01*
X108261637Y-119795278D01*
X108223501Y-119835305D01*
X108209686Y-119866092D01*
X108212134Y-119886952D01*
X108235369Y-119926995D01*
X108279552Y-119978045D01*
X108337028Y-120032977D01*
X108400140Y-120084668D01*
X108461233Y-120125992D01*
X108480223Y-120136435D01*
X108526973Y-120158985D01*
X108563802Y-120170805D01*
X108602946Y-120173383D01*
X108656638Y-120168203D01*
X108696212Y-120162671D01*
X108810440Y-120153768D01*
X108906039Y-120165248D01*
X108989107Y-120200017D01*
X109065740Y-120260981D01*
X109142036Y-120351046D01*
X109168131Y-120387581D01*
X109213988Y-120450208D01*
X109260197Y-120507200D01*
X109298559Y-120548602D01*
X109307016Y-120556245D01*
X109372714Y-120603397D01*
X109446538Y-120643824D01*
X109517545Y-120672358D01*
X109574791Y-120683833D01*
X109577306Y-120683867D01*
X109667961Y-120694535D01*
X109751278Y-120728906D01*
X109834696Y-120790530D01*
X109869333Y-120823182D01*
X109919400Y-120871260D01*
X109963675Y-120910875D01*
X109994217Y-120934997D01*
X109998721Y-120937753D01*
X110044312Y-120952184D01*
X110121953Y-120964377D01*
X110229894Y-120974216D01*
X110366383Y-120981585D01*
X110529671Y-120986366D01*
X110718008Y-120988445D01*
X110762565Y-120988528D01*
X110890710Y-120988121D01*
X111016947Y-120986905D01*
X111134390Y-120985007D01*
X111236151Y-120982555D01*
X111315342Y-120979674D01*
X111350999Y-120977664D01*
X111421980Y-120972105D01*
X111469919Y-120963764D01*
X111497101Y-120947417D01*
X111505808Y-120917839D01*
X111498321Y-120869805D01*
X111476925Y-120798090D01*
X111456559Y-120736058D01*
X111428035Y-120634516D01*
X111418209Y-120555215D01*
X111427298Y-120492012D01*
X111455520Y-120438768D01*
X111467593Y-120423996D01*
X111501232Y-120381272D01*
X111528004Y-120341975D01*
X111571451Y-120300640D01*
X111647870Y-120263103D01*
X111657857Y-120259372D01*
X111713400Y-120237137D01*
X111756321Y-120216325D01*
X111775299Y-120203236D01*
X111798274Y-120152127D01*
X111798588Y-120091892D01*
X111785578Y-120055005D01*
X111760780Y-120023642D01*
X111717069Y-119980410D01*
X111662845Y-119933464D01*
X111648927Y-119922335D01*
X111570926Y-119853268D01*
X111521001Y-119788424D01*
X111495137Y-119721199D01*
X111489067Y-119659269D01*
X111481007Y-119604567D01*
X111461023Y-119544798D01*
X111454884Y-119531779D01*
X111420527Y-119436808D01*
X111406246Y-119333765D01*
X111411626Y-119253659D01*
X111433096Y-119199281D01*
X111480011Y-119139951D01*
X111505404Y-119114804D01*
X111564296Y-119050355D01*
X111598167Y-118989478D01*
X111606120Y-118963998D01*
X111619352Y-118900388D01*
X111621958Y-118845983D01*
X111612368Y-118790690D01*
X111589015Y-118724415D01*
X111557865Y-118653420D01*
X111534201Y-118600670D01*
X111516365Y-118555902D01*
X111502983Y-118512340D01*
X111492680Y-118463208D01*
X111484084Y-118401729D01*
X111475818Y-118321127D01*
X111466509Y-118214625D01*
X111464825Y-118194666D01*
X111455326Y-118075926D01*
X111444309Y-117928085D01*
X111432080Y-117755862D01*
X111418943Y-117563972D01*
X111405204Y-117357135D01*
X111391168Y-117140066D01*
X111377140Y-116917484D01*
X111363427Y-116694106D01*
X111350332Y-116474648D01*
X111338162Y-116263829D01*
X111327851Y-116078000D01*
X111320624Y-115947539D01*
X111313536Y-115824812D01*
X111306899Y-115714824D01*
X111301022Y-115622579D01*
X111296219Y-115553080D01*
X111292800Y-115511332D01*
X111292280Y-115506500D01*
X111291017Y-115488027D01*
X111290088Y-115472579D01*
X111286702Y-115460055D01*
X111278069Y-115450358D01*
X111261396Y-115443387D01*
X111233893Y-115439045D01*
X111192769Y-115437233D01*
X111135232Y-115437850D01*
X111058492Y-115440800D01*
X110959756Y-115445981D01*
X110836235Y-115453297D01*
X110685136Y-115462647D01*
X110503668Y-115473933D01*
X110456134Y-115476866D01*
X110306722Y-115486040D01*
X110167633Y-115494530D01*
X110042547Y-115502115D01*
X109935145Y-115508575D01*
X109849107Y-115513688D01*
X109788115Y-115517235D01*
X109755848Y-115518992D01*
X109751888Y-115519145D01*
X109746593Y-115505847D01*
X109741756Y-115465189D01*
X109737330Y-115396079D01*
X109733271Y-115297425D01*
X109729533Y-115168134D01*
X109726070Y-115007112D01*
X109722980Y-114822837D01*
X109720612Y-114672837D01*
X109718193Y-114533769D01*
X109715803Y-114409190D01*
X109713519Y-114302657D01*
X109711422Y-114217726D01*
X109709587Y-114157953D01*
X109708095Y-114126896D01*
X109707559Y-114123238D01*
X109690366Y-114123456D01*
X109641649Y-114124911D01*
X109563725Y-114127515D01*
X109458909Y-114131179D01*
X109329518Y-114135815D01*
X109177867Y-114141333D01*
X109006273Y-114147645D01*
X108817051Y-114154663D01*
X108612518Y-114162299D01*
X108394990Y-114170462D01*
X108166782Y-114179066D01*
X107930211Y-114188020D01*
X107687592Y-114197237D01*
X107441241Y-114206628D01*
X107193476Y-114216105D01*
X106946611Y-114225578D01*
X106702962Y-114234959D01*
X106464846Y-114244160D01*
X106234579Y-114253091D01*
X106014476Y-114261665D01*
X105806854Y-114269793D01*
X105614029Y-114277385D01*
X105438316Y-114284354D01*
X105282031Y-114290611D01*
X105147492Y-114296067D01*
X105037013Y-114300633D01*
X104952910Y-114304222D01*
X104897500Y-114306744D01*
X104873099Y-114308111D01*
X104872120Y-114308249D01*
X104876987Y-114323622D01*
X104894342Y-114359075D01*
X104909034Y-114386325D01*
X104939810Y-114447135D01*
X104971824Y-114518502D01*
X104986198Y-114554000D01*
X105005552Y-114596884D01*
X105032108Y-114639423D01*
X105070359Y-114687189D01*
X105124795Y-114745756D01*
X105199910Y-114820698D01*
X105205774Y-114826424D01*
X105306837Y-114929294D01*
X105382124Y-115017419D01*
X105433615Y-115095458D01*
X105463290Y-115168069D01*
X105473130Y-115239912D01*
X105465114Y-115315646D01*
X105444911Y-115389061D01*
X105382816Y-115525434D01*
X105290896Y-115650150D01*
X105168576Y-115763683D01*
X105015280Y-115866509D01*
X104830434Y-115959099D01*
X104681867Y-116018112D01*
X104536101Y-116064622D01*
X104380978Y-116103022D01*
X104222934Y-116132545D01*
X104068409Y-116152422D01*
X103923840Y-116161885D01*
X103795667Y-116160166D01*
X103690328Y-116146498D01*
X103663040Y-116139635D01*
X103577088Y-116118291D01*
X103514098Y-116112786D01*
X103466744Y-116123807D01*
X103427700Y-116152040D01*
X103417692Y-116162636D01*
X103350074Y-116213866D01*
X103264575Y-116237812D01*
X103181986Y-116236065D01*
X103128318Y-116233823D01*
X103076674Y-116245696D01*
X103020314Y-116270601D01*
X102951031Y-116299256D01*
X102881902Y-116312589D01*
X102819631Y-116315066D01*
X102753668Y-116317862D01*
X102697016Y-116328645D01*
X102635551Y-116351013D01*
X102581848Y-116375609D01*
X102451096Y-116426447D01*
X102334437Y-116449729D01*
X102225408Y-116472121D01*
X102126049Y-116511663D01*
X102042349Y-116564546D01*
X101980298Y-116626958D01*
X101945884Y-116695089D01*
X101945302Y-116697334D01*
X101939810Y-116739291D01*
X101949416Y-116771441D01*
G36*
X103479423Y-108700753D02*
G01*
X103515288Y-108787198D01*
X103573478Y-108888826D01*
X103654491Y-109008961D01*
X103726724Y-109108102D01*
X103805946Y-109215349D01*
X103867292Y-109300709D01*
X103913773Y-109368950D01*
X103948403Y-109424842D01*
X103974194Y-109473153D01*
X103994158Y-109518653D01*
X104005700Y-109549727D01*
X104027659Y-109602661D01*
X104049507Y-109629772D01*
X104075081Y-109638411D01*
X104104135Y-109640152D01*
X104164663Y-109643046D01*
X104254925Y-109647028D01*
X104373181Y-109652031D01*
X104517690Y-109657991D01*
X104686714Y-109664841D01*
X104878512Y-109672516D01*
X105091345Y-109680950D01*
X105323472Y-109690078D01*
X105573154Y-109699834D01*
X105838652Y-109710152D01*
X106118224Y-109720967D01*
X106410131Y-109732213D01*
X106712634Y-109743825D01*
X107023993Y-109755736D01*
X107342468Y-109767881D01*
X107666318Y-109780195D01*
X107993805Y-109792612D01*
X108323187Y-109805066D01*
X108652727Y-109817491D01*
X108980682Y-109829823D01*
X109305315Y-109841994D01*
X109624884Y-109853941D01*
X109937651Y-109865596D01*
X110241875Y-109876894D01*
X110535816Y-109887771D01*
X110817735Y-109898159D01*
X111085892Y-109907994D01*
X111338546Y-109917209D01*
X111573958Y-109925740D01*
X111790389Y-109933520D01*
X111986098Y-109940484D01*
X112159346Y-109946566D01*
X112308392Y-109951701D01*
X112431497Y-109955822D01*
X112526921Y-109958865D01*
X112592925Y-109960764D01*
X112627767Y-109961452D01*
X112633014Y-109961297D01*
X112642842Y-109939568D01*
X112655143Y-109897327D01*
X112659855Y-109877485D01*
X112675219Y-109832855D01*
X112704158Y-109768869D01*
X112742211Y-109694835D01*
X112776080Y-109634866D01*
X112831727Y-109539810D01*
X112872495Y-109465570D01*
X112900730Y-109403802D01*
X112918778Y-109346163D01*
X112928982Y-109284308D01*
X112933689Y-109209894D01*
X112935243Y-109114576D01*
X112935513Y-109067600D01*
X112936370Y-108966322D01*
X112938330Y-108891982D01*
X112942288Y-108837655D01*
X112949141Y-108796411D01*
X112959785Y-108761326D01*
X112975114Y-108725470D01*
X112981491Y-108712000D01*
X113016113Y-108651004D01*
X113063856Y-108580876D01*
X113113997Y-108517267D01*
X113170313Y-108449841D01*
X113209800Y-108394257D01*
X113238545Y-108339004D01*
X113262640Y-108272574D01*
X113285608Y-108192878D01*
X113305699Y-108123971D01*
X113325822Y-108062725D01*
X113342141Y-108020676D01*
X113344391Y-108016013D01*
X113387363Y-107957720D01*
X113450295Y-107901998D01*
X113520247Y-107859465D01*
X113549248Y-107847881D01*
X113647384Y-107809904D01*
X113732478Y-107765080D01*
X113799553Y-107716987D01*
X113843630Y-107669201D01*
X113859730Y-107625301D01*
X113859734Y-107624742D01*
X113864823Y-107597539D01*
X113878805Y-107544975D01*
X113899748Y-107473779D01*
X113925722Y-107390680D01*
X113935934Y-107359142D01*
X113963228Y-107273568D01*
X113986195Y-107197640D01*
X114002906Y-107138033D01*
X114011436Y-107101422D01*
X114012134Y-107095122D01*
X114004186Y-107065518D01*
X113983313Y-107017133D01*
X113953971Y-106960255D01*
X113952867Y-106958276D01*
X113915877Y-106883294D01*
X113898148Y-106818428D01*
X113899424Y-106753232D01*
X113919446Y-106677262D01*
X113944327Y-106612445D01*
X113981298Y-106518661D01*
X114007109Y-106440334D01*
X114025794Y-106362657D01*
X114041387Y-106270819D01*
X114045864Y-106239733D01*
X114057815Y-106159147D01*
X114069513Y-106104579D01*
X114085194Y-106068483D01*
X114109093Y-106043308D01*
X114145444Y-106021507D01*
X114177051Y-106005910D01*
X114233872Y-105976493D01*
X114269304Y-105949269D01*
X114291877Y-105913737D01*
X114310126Y-105859394D01*
X114317245Y-105833333D01*
X114333652Y-105789066D01*
X114361474Y-105744784D01*
X114406097Y-105693178D01*
X114460736Y-105638600D01*
X114546179Y-105547026D01*
X114614093Y-105451190D01*
X114668209Y-105343696D01*
X114712257Y-105217150D01*
X114749577Y-105065993D01*
X114763136Y-104978661D01*
X114770511Y-104880244D01*
X114771551Y-104782046D01*
X114766107Y-104695371D01*
X114755298Y-104635723D01*
X114729805Y-104588076D01*
X114686386Y-104541598D01*
X114676992Y-104534123D01*
X114627834Y-104494403D01*
X114571397Y-104444903D01*
X114541900Y-104417395D01*
X114469334Y-104347656D01*
X114469334Y-104219388D01*
X114468205Y-104152172D01*
X114463411Y-104110102D01*
X114452836Y-104084495D01*
X114434369Y-104066665D01*
X114431699Y-104064760D01*
X114378209Y-104044136D01*
X114309029Y-104039407D01*
X114238164Y-104050186D01*
X114186561Y-104071558D01*
X114137972Y-104117236D01*
X114114080Y-104172580D01*
X114098277Y-104217226D01*
X114074338Y-104241881D01*
X114030153Y-104258330D01*
X114024319Y-104259933D01*
X113959944Y-104269220D01*
X113869255Y-104270997D01*
X113758785Y-104266006D01*
X113635067Y-104254985D01*
X113504634Y-104238676D01*
X113374019Y-104217817D01*
X113249754Y-104193150D01*
X113138372Y-104165414D01*
X113106200Y-104155913D01*
X112989345Y-104115159D01*
X112897144Y-104071562D01*
X112820434Y-104020424D01*
X112786556Y-103991936D01*
X112720610Y-103941749D01*
X112638197Y-103896169D01*
X112535095Y-103853472D01*
X112407083Y-103811931D01*
X112249939Y-103769823D01*
X112232393Y-103765498D01*
X112138750Y-103742061D01*
X112055114Y-103720168D01*
X111987723Y-103701527D01*
X111942816Y-103687847D01*
X111928329Y-103682262D01*
X111905792Y-103665429D01*
X111863757Y-103629782D01*
X111807315Y-103579794D01*
X111741560Y-103519937D01*
X111706250Y-103487210D01*
X111602809Y-103392611D01*
X111518911Y-103320486D01*
X111451116Y-103268434D01*
X111395986Y-103234052D01*
X111350085Y-103214936D01*
X111309973Y-103208685D01*
X111307689Y-103208666D01*
X111240650Y-103197455D01*
X111166027Y-103162571D01*
X111080674Y-103102141D01*
X110981855Y-103014684D01*
X110910804Y-102947354D01*
X110858759Y-102901745D01*
X110819831Y-102876618D01*
X110788128Y-102870735D01*
X110757762Y-102882856D01*
X110722844Y-102911741D01*
X110682080Y-102951618D01*
X110594455Y-103025854D01*
X110509592Y-103070089D01*
X110420876Y-103086865D01*
X110342480Y-103082195D01*
X110251501Y-103059465D01*
X110162343Y-103016845D01*
X110070342Y-102951275D01*
X109970831Y-102859697D01*
X109916684Y-102803072D01*
X109827220Y-102710217D01*
X109751031Y-102642831D01*
X109681567Y-102598925D01*
X109612280Y-102576510D01*
X109536620Y-102573595D01*
X109448037Y-102588193D01*
X109339984Y-102618313D01*
X109324453Y-102623174D01*
X109244071Y-102647246D01*
X109171008Y-102666784D01*
X109113816Y-102679643D01*
X109082992Y-102683733D01*
X109046726Y-102675812D01*
X108990584Y-102654564D01*
X108923922Y-102623762D01*
X108887876Y-102605043D01*
X108742340Y-102526354D01*
X108545137Y-102564364D01*
X108457601Y-102581408D01*
X108373194Y-102598143D01*
X108302661Y-102612422D01*
X108263267Y-102620673D01*
X108178600Y-102638972D01*
X108302792Y-102660462D01*
X108383248Y-102676968D01*
X108435152Y-102695113D01*
X108463791Y-102717924D01*
X108474450Y-102748428D01*
X108474933Y-102759055D01*
X108468935Y-102787099D01*
X108448194Y-102817254D01*
X108408589Y-102853568D01*
X108346000Y-102900083D01*
X108297134Y-102933608D01*
X108226752Y-102984269D01*
X108167741Y-103035637D01*
X108113268Y-103095133D01*
X108056504Y-103170178D01*
X107994021Y-103262962D01*
X107931388Y-103352081D01*
X107874009Y-103419957D01*
X107824869Y-103463488D01*
X107786951Y-103479571D01*
X107785608Y-103479600D01*
X107758229Y-103493505D01*
X107721479Y-103530300D01*
X107681175Y-103582606D01*
X107643137Y-103643046D01*
X107618703Y-103691267D01*
X107596763Y-103743695D01*
X107566872Y-103819431D01*
X107532353Y-103909845D01*
X107496528Y-104006308D01*
X107481777Y-104046867D01*
X107418815Y-104211924D01*
X107350420Y-104374770D01*
X107279111Y-104530371D01*
X107207406Y-104673695D01*
X107137825Y-104799707D01*
X107072887Y-104903373D01*
X107015112Y-104979661D01*
X107014730Y-104980096D01*
X106990619Y-105011728D01*
X106973232Y-105047670D01*
X106959767Y-105096559D01*
X106947421Y-105167030D01*
X106942048Y-105204052D01*
X106928055Y-105287981D01*
X106910576Y-105370328D01*
X106892527Y-105438000D01*
X106884989Y-105460191D01*
X106818197Y-105602042D01*
X106727834Y-105744035D01*
X106621906Y-105874065D01*
X106588038Y-105909181D01*
X106481177Y-106004990D01*
X106377198Y-106074813D01*
X106266724Y-106124235D01*
X106187153Y-106148025D01*
X106090950Y-106176898D01*
X106022614Y-106210482D01*
X105976152Y-106254283D01*
X105945574Y-106313810D01*
X105926177Y-106387916D01*
X105914248Y-106423852D01*
X105892533Y-106445641D01*
X105856611Y-106453488D01*
X105802062Y-106447600D01*
X105724463Y-106428182D01*
X105637552Y-106401345D01*
X105555457Y-106375083D01*
X105497934Y-106358305D01*
X105457349Y-106350018D01*
X105426069Y-106349228D01*
X105396461Y-106354944D01*
X105362639Y-106365591D01*
X105299156Y-106391212D01*
X105227895Y-106427243D01*
X105154058Y-106470086D01*
X105082849Y-106516144D01*
X105019471Y-106561819D01*
X104969127Y-106603515D01*
X104937021Y-106637633D01*
X104928357Y-106660577D01*
X104930598Y-106664281D01*
X104950359Y-106675641D01*
X104995206Y-106697616D01*
X105059140Y-106727377D01*
X105136164Y-106762093D01*
X105164467Y-106774611D01*
X105281576Y-106828273D01*
X105367989Y-106872852D01*
X105425343Y-106909341D01*
X105455274Y-106938736D01*
X105460800Y-106954826D01*
X105449549Y-106972657D01*
X105419416Y-107007888D01*
X105375833Y-107054344D01*
X105351674Y-107078874D01*
X105284115Y-107141472D01*
X105232865Y-107178102D01*
X105203357Y-107188000D01*
X105172852Y-107178872D01*
X105122987Y-107154344D01*
X105061964Y-107118699D01*
X105025058Y-107094866D01*
X104965503Y-107055429D01*
X104917211Y-107024267D01*
X104886540Y-107005438D01*
X104879096Y-107001733D01*
X104862575Y-107017365D01*
X104847851Y-107059057D01*
X104836514Y-107119003D01*
X104830150Y-107189396D01*
X104829614Y-107244932D01*
X104825042Y-107351269D01*
X104803774Y-107429151D01*
X104764884Y-107480094D01*
X104707447Y-107505612D01*
X104668054Y-107509357D01*
X104611474Y-107502889D01*
X104557555Y-107479471D01*
X104496050Y-107434318D01*
X104482311Y-107422583D01*
X104430007Y-107385764D01*
X104391433Y-107378664D01*
X104366159Y-107401755D01*
X104353752Y-107455509D01*
X104353782Y-107540396D01*
X104355266Y-107561442D01*
X104357632Y-107625359D01*
X104349465Y-107670611D01*
X104325754Y-107701913D01*
X104281492Y-107723982D01*
X104211668Y-107741534D01*
X104152467Y-107752366D01*
X104046798Y-107774395D01*
X103970814Y-107800175D01*
X103920369Y-107831978D01*
X103891313Y-107872073D01*
X103882624Y-107900032D01*
X103872495Y-107950682D01*
X103859589Y-108016076D01*
X103852057Y-108054583D01*
X103827820Y-108136829D01*
X103786322Y-108212144D01*
X103723076Y-108286751D01*
X103633593Y-108366876D01*
X103617513Y-108379848D01*
X103549235Y-108440272D01*
X103500789Y-108499249D01*
X103472672Y-108560104D01*
X103465384Y-108626163D01*
X103479423Y-108700753D01*
G37*
X103479423Y-108700753D02*
X103515288Y-108787198D01*
X103573478Y-108888826D01*
X103654491Y-109008961D01*
X103726724Y-109108102D01*
X103805946Y-109215349D01*
X103867292Y-109300709D01*
X103913773Y-109368950D01*
X103948403Y-109424842D01*
X103974194Y-109473153D01*
X103994158Y-109518653D01*
X104005700Y-109549727D01*
X104027659Y-109602661D01*
X104049507Y-109629772D01*
X104075081Y-109638411D01*
X104104135Y-109640152D01*
X104164663Y-109643046D01*
X104254925Y-109647028D01*
X104373181Y-109652031D01*
X104517690Y-109657991D01*
X104686714Y-109664841D01*
X104878512Y-109672516D01*
X105091345Y-109680950D01*
X105323472Y-109690078D01*
X105573154Y-109699834D01*
X105838652Y-109710152D01*
X106118224Y-109720967D01*
X106410131Y-109732213D01*
X106712634Y-109743825D01*
X107023993Y-109755736D01*
X107342468Y-109767881D01*
X107666318Y-109780195D01*
X107993805Y-109792612D01*
X108323187Y-109805066D01*
X108652727Y-109817491D01*
X108980682Y-109829823D01*
X109305315Y-109841994D01*
X109624884Y-109853941D01*
X109937651Y-109865596D01*
X110241875Y-109876894D01*
X110535816Y-109887771D01*
X110817735Y-109898159D01*
X111085892Y-109907994D01*
X111338546Y-109917209D01*
X111573958Y-109925740D01*
X111790389Y-109933520D01*
X111986098Y-109940484D01*
X112159346Y-109946566D01*
X112308392Y-109951701D01*
X112431497Y-109955822D01*
X112526921Y-109958865D01*
X112592925Y-109960764D01*
X112627767Y-109961452D01*
X112633014Y-109961297D01*
X112642842Y-109939568D01*
X112655143Y-109897327D01*
X112659855Y-109877485D01*
X112675219Y-109832855D01*
X112704158Y-109768869D01*
X112742211Y-109694835D01*
X112776080Y-109634866D01*
X112831727Y-109539810D01*
X112872495Y-109465570D01*
X112900730Y-109403802D01*
X112918778Y-109346163D01*
X112928982Y-109284308D01*
X112933689Y-109209894D01*
X112935243Y-109114576D01*
X112935513Y-109067600D01*
X112936370Y-108966322D01*
X112938330Y-108891982D01*
X112942288Y-108837655D01*
X112949141Y-108796411D01*
X112959785Y-108761326D01*
X112975114Y-108725470D01*
X112981491Y-108712000D01*
X113016113Y-108651004D01*
X113063856Y-108580876D01*
X113113997Y-108517267D01*
X113170313Y-108449841D01*
X113209800Y-108394257D01*
X113238545Y-108339004D01*
X113262640Y-108272574D01*
X113285608Y-108192878D01*
X113305699Y-108123971D01*
X113325822Y-108062725D01*
X113342141Y-108020676D01*
X113344391Y-108016013D01*
X113387363Y-107957720D01*
X113450295Y-107901998D01*
X113520247Y-107859465D01*
X113549248Y-107847881D01*
X113647384Y-107809904D01*
X113732478Y-107765080D01*
X113799553Y-107716987D01*
X113843630Y-107669201D01*
X113859730Y-107625301D01*
X113859734Y-107624742D01*
X113864823Y-107597539D01*
X113878805Y-107544975D01*
X113899748Y-107473779D01*
X113925722Y-107390680D01*
X113935934Y-107359142D01*
X113963228Y-107273568D01*
X113986195Y-107197640D01*
X114002906Y-107138033D01*
X114011436Y-107101422D01*
X114012134Y-107095122D01*
X114004186Y-107065518D01*
X113983313Y-107017133D01*
X113953971Y-106960255D01*
X113952867Y-106958276D01*
X113915877Y-106883294D01*
X113898148Y-106818428D01*
X113899424Y-106753232D01*
X113919446Y-106677262D01*
X113944327Y-106612445D01*
X113981298Y-106518661D01*
X114007109Y-106440334D01*
X114025794Y-106362657D01*
X114041387Y-106270819D01*
X114045864Y-106239733D01*
X114057815Y-106159147D01*
X114069513Y-106104579D01*
X114085194Y-106068483D01*
X114109093Y-106043308D01*
X114145444Y-106021507D01*
X114177051Y-106005910D01*
X114233872Y-105976493D01*
X114269304Y-105949269D01*
X114291877Y-105913737D01*
X114310126Y-105859394D01*
X114317245Y-105833333D01*
X114333652Y-105789066D01*
X114361474Y-105744784D01*
X114406097Y-105693178D01*
X114460736Y-105638600D01*
X114546179Y-105547026D01*
X114614093Y-105451190D01*
X114668209Y-105343696D01*
X114712257Y-105217150D01*
X114749577Y-105065993D01*
X114763136Y-104978661D01*
X114770511Y-104880244D01*
X114771551Y-104782046D01*
X114766107Y-104695371D01*
X114755298Y-104635723D01*
X114729805Y-104588076D01*
X114686386Y-104541598D01*
X114676992Y-104534123D01*
X114627834Y-104494403D01*
X114571397Y-104444903D01*
X114541900Y-104417395D01*
X114469334Y-104347656D01*
X114469334Y-104219388D01*
X114468205Y-104152172D01*
X114463411Y-104110102D01*
X114452836Y-104084495D01*
X114434369Y-104066665D01*
X114431699Y-104064760D01*
X114378209Y-104044136D01*
X114309029Y-104039407D01*
X114238164Y-104050186D01*
X114186561Y-104071558D01*
X114137972Y-104117236D01*
X114114080Y-104172580D01*
X114098277Y-104217226D01*
X114074338Y-104241881D01*
X114030153Y-104258330D01*
X114024319Y-104259933D01*
X113959944Y-104269220D01*
X113869255Y-104270997D01*
X113758785Y-104266006D01*
X113635067Y-104254985D01*
X113504634Y-104238676D01*
X113374019Y-104217817D01*
X113249754Y-104193150D01*
X113138372Y-104165414D01*
X113106200Y-104155913D01*
X112989345Y-104115159D01*
X112897144Y-104071562D01*
X112820434Y-104020424D01*
X112786556Y-103991936D01*
X112720610Y-103941749D01*
X112638197Y-103896169D01*
X112535095Y-103853472D01*
X112407083Y-103811931D01*
X112249939Y-103769823D01*
X112232393Y-103765498D01*
X112138750Y-103742061D01*
X112055114Y-103720168D01*
X111987723Y-103701527D01*
X111942816Y-103687847D01*
X111928329Y-103682262D01*
X111905792Y-103665429D01*
X111863757Y-103629782D01*
X111807315Y-103579794D01*
X111741560Y-103519937D01*
X111706250Y-103487210D01*
X111602809Y-103392611D01*
X111518911Y-103320486D01*
X111451116Y-103268434D01*
X111395986Y-103234052D01*
X111350085Y-103214936D01*
X111309973Y-103208685D01*
X111307689Y-103208666D01*
X111240650Y-103197455D01*
X111166027Y-103162571D01*
X111080674Y-103102141D01*
X110981855Y-103014684D01*
X110910804Y-102947354D01*
X110858759Y-102901745D01*
X110819831Y-102876618D01*
X110788128Y-102870735D01*
X110757762Y-102882856D01*
X110722844Y-102911741D01*
X110682080Y-102951618D01*
X110594455Y-103025854D01*
X110509592Y-103070089D01*
X110420876Y-103086865D01*
X110342480Y-103082195D01*
X110251501Y-103059465D01*
X110162343Y-103016845D01*
X110070342Y-102951275D01*
X109970831Y-102859697D01*
X109916684Y-102803072D01*
X109827220Y-102710217D01*
X109751031Y-102642831D01*
X109681567Y-102598925D01*
X109612280Y-102576510D01*
X109536620Y-102573595D01*
X109448037Y-102588193D01*
X109339984Y-102618313D01*
X109324453Y-102623174D01*
X109244071Y-102647246D01*
X109171008Y-102666784D01*
X109113816Y-102679643D01*
X109082992Y-102683733D01*
X109046726Y-102675812D01*
X108990584Y-102654564D01*
X108923922Y-102623762D01*
X108887876Y-102605043D01*
X108742340Y-102526354D01*
X108545137Y-102564364D01*
X108457601Y-102581408D01*
X108373194Y-102598143D01*
X108302661Y-102612422D01*
X108263267Y-102620673D01*
X108178600Y-102638972D01*
X108302792Y-102660462D01*
X108383248Y-102676968D01*
X108435152Y-102695113D01*
X108463791Y-102717924D01*
X108474450Y-102748428D01*
X108474933Y-102759055D01*
X108468935Y-102787099D01*
X108448194Y-102817254D01*
X108408589Y-102853568D01*
X108346000Y-102900083D01*
X108297134Y-102933608D01*
X108226752Y-102984269D01*
X108167741Y-103035637D01*
X108113268Y-103095133D01*
X108056504Y-103170178D01*
X107994021Y-103262962D01*
X107931388Y-103352081D01*
X107874009Y-103419957D01*
X107824869Y-103463488D01*
X107786951Y-103479571D01*
X107785608Y-103479600D01*
X107758229Y-103493505D01*
X107721479Y-103530300D01*
X107681175Y-103582606D01*
X107643137Y-103643046D01*
X107618703Y-103691267D01*
X107596763Y-103743695D01*
X107566872Y-103819431D01*
X107532353Y-103909845D01*
X107496528Y-104006308D01*
X107481777Y-104046867D01*
X107418815Y-104211924D01*
X107350420Y-104374770D01*
X107279111Y-104530371D01*
X107207406Y-104673695D01*
X107137825Y-104799707D01*
X107072887Y-104903373D01*
X107015112Y-104979661D01*
X107014730Y-104980096D01*
X106990619Y-105011728D01*
X106973232Y-105047670D01*
X106959767Y-105096559D01*
X106947421Y-105167030D01*
X106942048Y-105204052D01*
X106928055Y-105287981D01*
X106910576Y-105370328D01*
X106892527Y-105438000D01*
X106884989Y-105460191D01*
X106818197Y-105602042D01*
X106727834Y-105744035D01*
X106621906Y-105874065D01*
X106588038Y-105909181D01*
X106481177Y-106004990D01*
X106377198Y-106074813D01*
X106266724Y-106124235D01*
X106187153Y-106148025D01*
X106090950Y-106176898D01*
X106022614Y-106210482D01*
X105976152Y-106254283D01*
X105945574Y-106313810D01*
X105926177Y-106387916D01*
X105914248Y-106423852D01*
X105892533Y-106445641D01*
X105856611Y-106453488D01*
X105802062Y-106447600D01*
X105724463Y-106428182D01*
X105637552Y-106401345D01*
X105555457Y-106375083D01*
X105497934Y-106358305D01*
X105457349Y-106350018D01*
X105426069Y-106349228D01*
X105396461Y-106354944D01*
X105362639Y-106365591D01*
X105299156Y-106391212D01*
X105227895Y-106427243D01*
X105154058Y-106470086D01*
X105082849Y-106516144D01*
X105019471Y-106561819D01*
X104969127Y-106603515D01*
X104937021Y-106637633D01*
X104928357Y-106660577D01*
X104930598Y-106664281D01*
X104950359Y-106675641D01*
X104995206Y-106697616D01*
X105059140Y-106727377D01*
X105136164Y-106762093D01*
X105164467Y-106774611D01*
X105281576Y-106828273D01*
X105367989Y-106872852D01*
X105425343Y-106909341D01*
X105455274Y-106938736D01*
X105460800Y-106954826D01*
X105449549Y-106972657D01*
X105419416Y-107007888D01*
X105375833Y-107054344D01*
X105351674Y-107078874D01*
X105284115Y-107141472D01*
X105232865Y-107178102D01*
X105203357Y-107188000D01*
X105172852Y-107178872D01*
X105122987Y-107154344D01*
X105061964Y-107118699D01*
X105025058Y-107094866D01*
X104965503Y-107055429D01*
X104917211Y-107024267D01*
X104886540Y-107005438D01*
X104879096Y-107001733D01*
X104862575Y-107017365D01*
X104847851Y-107059057D01*
X104836514Y-107119003D01*
X104830150Y-107189396D01*
X104829614Y-107244932D01*
X104825042Y-107351269D01*
X104803774Y-107429151D01*
X104764884Y-107480094D01*
X104707447Y-107505612D01*
X104668054Y-107509357D01*
X104611474Y-107502889D01*
X104557555Y-107479471D01*
X104496050Y-107434318D01*
X104482311Y-107422583D01*
X104430007Y-107385764D01*
X104391433Y-107378664D01*
X104366159Y-107401755D01*
X104353752Y-107455509D01*
X104353782Y-107540396D01*
X104355266Y-107561442D01*
X104357632Y-107625359D01*
X104349465Y-107670611D01*
X104325754Y-107701913D01*
X104281492Y-107723982D01*
X104211668Y-107741534D01*
X104152467Y-107752366D01*
X104046798Y-107774395D01*
X103970814Y-107800175D01*
X103920369Y-107831978D01*
X103891313Y-107872073D01*
X103882624Y-107900032D01*
X103872495Y-107950682D01*
X103859589Y-108016076D01*
X103852057Y-108054583D01*
X103827820Y-108136829D01*
X103786322Y-108212144D01*
X103723076Y-108286751D01*
X103633593Y-108366876D01*
X103617513Y-108379848D01*
X103549235Y-108440272D01*
X103500789Y-108499249D01*
X103472672Y-108560104D01*
X103465384Y-108626163D01*
X103479423Y-108700753D01*
G36*
X114671082Y-113597397D02*
G01*
X114691578Y-113668531D01*
X114713999Y-113706242D01*
X114738813Y-113710944D01*
X114766488Y-113683050D01*
X114767142Y-113682059D01*
X114784501Y-113637070D01*
X114796584Y-113570039D01*
X114802623Y-113492490D01*
X114801847Y-113415945D01*
X114793486Y-113351929D01*
X114790060Y-113339033D01*
X114772678Y-113296928D01*
X114752980Y-113286649D01*
X114725618Y-113306291D01*
X114718763Y-113313633D01*
X114685878Y-113370816D01*
X114666529Y-113448226D01*
X114662666Y-113534266D01*
X114671082Y-113597397D01*
G37*
X114671082Y-113597397D02*
X114691578Y-113668531D01*
X114713999Y-113706242D01*
X114738813Y-113710944D01*
X114766488Y-113683050D01*
X114767142Y-113682059D01*
X114784501Y-113637070D01*
X114796584Y-113570039D01*
X114802623Y-113492490D01*
X114801847Y-113415945D01*
X114793486Y-113351929D01*
X114790060Y-113339033D01*
X114772678Y-113296928D01*
X114752980Y-113286649D01*
X114725618Y-113306291D01*
X114718763Y-113313633D01*
X114685878Y-113370816D01*
X114666529Y-113448226D01*
X114662666Y-113534266D01*
X114671082Y-113597397D01*
G36*
X109768747Y-110035971D02*
G01*
X109769492Y-110112188D01*
X109770606Y-110213874D01*
X109772056Y-110338230D01*
X109773810Y-110482460D01*
X109775834Y-110643764D01*
X109778095Y-110819345D01*
X109780561Y-111006404D01*
X109781696Y-111091133D01*
X109788286Y-111578975D01*
X109794486Y-112033674D01*
X109800307Y-112455952D01*
X109805761Y-112846529D01*
X109810859Y-113206129D01*
X109815614Y-113535472D01*
X109820036Y-113835280D01*
X109824137Y-114106273D01*
X109827928Y-114349175D01*
X109831422Y-114564706D01*
X109834630Y-114753587D01*
X109837564Y-114916541D01*
X109840234Y-115054289D01*
X109842653Y-115167551D01*
X109844832Y-115257051D01*
X109846783Y-115323509D01*
X109848518Y-115367646D01*
X109850047Y-115390185D01*
X109850758Y-115393602D01*
X109868078Y-115393391D01*
X109917124Y-115391311D01*
X109995813Y-115387482D01*
X110102063Y-115382023D01*
X110233791Y-115375053D01*
X110388915Y-115366692D01*
X110565352Y-115357059D01*
X110761020Y-115346273D01*
X110973836Y-115334454D01*
X111201718Y-115321720D01*
X111442584Y-115308192D01*
X111694350Y-115293988D01*
X111954935Y-115279228D01*
X112222255Y-115264031D01*
X112494229Y-115248516D01*
X112768773Y-115232803D01*
X113043806Y-115217011D01*
X113317244Y-115201259D01*
X113587006Y-115185667D01*
X113851009Y-115170353D01*
X114107170Y-115155438D01*
X114353407Y-115141041D01*
X114587637Y-115127280D01*
X114807778Y-115114275D01*
X115011747Y-115102146D01*
X115197463Y-115091011D01*
X115362841Y-115080991D01*
X115505800Y-115072203D01*
X115624258Y-115064769D01*
X115716132Y-115058806D01*
X115779339Y-115054435D01*
X115802833Y-115052609D01*
X115872728Y-115044148D01*
X115912604Y-115030790D01*
X115923252Y-115008859D01*
X115905457Y-114974678D01*
X115860009Y-114924574D01*
X115835457Y-114900406D01*
X115755122Y-114834757D01*
X115655262Y-114771149D01*
X115547462Y-114715748D01*
X115443306Y-114674721D01*
X115380342Y-114658154D01*
X115320478Y-114648167D01*
X115241619Y-114636986D01*
X115158480Y-114626660D01*
X115138200Y-114624393D01*
X114979930Y-114597405D01*
X114849780Y-114553659D01*
X114746114Y-114492570D01*
X114728217Y-114478051D01*
X114662188Y-114406576D01*
X114623700Y-114325781D01*
X114610435Y-114229216D01*
X114613785Y-114159372D01*
X114625463Y-114043092D01*
X114484897Y-114115464D01*
X114384234Y-114161337D01*
X114299541Y-114184413D01*
X114222167Y-114185151D01*
X114143460Y-114164010D01*
X114083539Y-114136745D01*
X114001561Y-114083218D01*
X113951929Y-114025038D01*
X113933918Y-113964849D01*
X113946801Y-113905295D01*
X113989853Y-113849020D01*
X114062349Y-113798669D01*
X114163562Y-113756885D01*
X114189934Y-113749014D01*
X114280137Y-113721763D01*
X114341690Y-113697584D01*
X114379289Y-113673650D01*
X114397632Y-113647138D01*
X114401600Y-113621736D01*
X114393747Y-113576709D01*
X114371578Y-113561894D01*
X114337174Y-113578299D01*
X114328169Y-113586199D01*
X114263740Y-113630497D01*
X114176657Y-113667683D01*
X114078017Y-113693426D01*
X114037534Y-113699583D01*
X113965103Y-113711019D01*
X113907512Y-113729050D01*
X113854003Y-113758981D01*
X113793817Y-113806118D01*
X113758554Y-113837171D01*
X113710577Y-113878962D01*
X113673924Y-113903751D01*
X113636065Y-113916605D01*
X113584469Y-113922591D01*
X113541346Y-113925014D01*
X113426045Y-113923948D01*
X113339849Y-113907748D01*
X113283279Y-113876559D01*
X113262705Y-113848456D01*
X113253176Y-113819626D01*
X113259578Y-113795964D01*
X113286435Y-113766443D01*
X113302267Y-113752002D01*
X113346503Y-113714235D01*
X113405087Y-113666642D01*
X113464280Y-113620343D01*
X113511931Y-113581543D01*
X113561372Y-113535873D01*
X113616161Y-113479475D01*
X113679855Y-113408490D01*
X113756011Y-113319062D01*
X113848185Y-113207330D01*
X113871869Y-113178264D01*
X113935298Y-113105504D01*
X113990492Y-113057338D01*
X114046185Y-113029048D01*
X114111111Y-113015920D01*
X114177653Y-113013161D01*
X114225625Y-113009988D01*
X114251551Y-112996944D01*
X114266134Y-112970733D01*
X114272377Y-112914511D01*
X114247542Y-112865205D01*
X114193921Y-112823950D01*
X114113805Y-112791882D01*
X114009487Y-112770137D01*
X113883258Y-112759850D01*
X113839202Y-112759165D01*
X113707425Y-112742891D01*
X113586793Y-112694813D01*
X113478939Y-112615630D01*
X113459443Y-112596531D01*
X113409449Y-112540210D01*
X113371595Y-112483016D01*
X113340913Y-112415236D01*
X113312432Y-112327157D01*
X113301622Y-112288090D01*
X113282998Y-112239145D01*
X113262076Y-112223945D01*
X113238205Y-112242411D01*
X113218252Y-112277717D01*
X113175993Y-112346400D01*
X113130117Y-112381570D01*
X113080881Y-112383155D01*
X113028545Y-112351080D01*
X113013267Y-112335947D01*
X112963407Y-112268453D01*
X112911974Y-112173456D01*
X112861307Y-112057093D01*
X112813747Y-111925501D01*
X112771635Y-111784816D01*
X112737309Y-111641176D01*
X112725998Y-111582673D01*
X112707871Y-111486468D01*
X112690675Y-111413650D01*
X112670420Y-111354095D01*
X112643115Y-111297684D01*
X112604770Y-111234293D01*
X112564791Y-111173731D01*
X112509139Y-111081831D01*
X112475437Y-110999965D01*
X112463205Y-110920127D01*
X112471959Y-110834314D01*
X112501219Y-110734522D01*
X112533436Y-110652560D01*
X112558924Y-110575739D01*
X112580518Y-110474520D01*
X112599137Y-110344478D01*
X112601340Y-110325628D01*
X112610245Y-110241706D01*
X112616492Y-110170433D01*
X112619613Y-110118254D01*
X112619144Y-110091614D01*
X112618404Y-110089693D01*
X112600997Y-110088048D01*
X112552801Y-110085208D01*
X112476834Y-110081298D01*
X112376115Y-110076446D01*
X112253661Y-110070775D01*
X112112493Y-110064411D01*
X111955627Y-110057481D01*
X111786083Y-110050109D01*
X111606879Y-110042422D01*
X111421033Y-110034544D01*
X111231565Y-110026602D01*
X111041492Y-110018720D01*
X110853833Y-110011025D01*
X110671607Y-110003642D01*
X110497832Y-109996697D01*
X110335526Y-109990314D01*
X110187708Y-109984621D01*
X110057397Y-109979742D01*
X109947610Y-109975802D01*
X109861367Y-109972928D01*
X109801687Y-109971245D01*
X109771586Y-109970879D01*
X109768497Y-109971138D01*
X109768404Y-109988022D01*
X109768747Y-110035971D01*
G37*
X109768747Y-110035971D02*
X109769492Y-110112188D01*
X109770606Y-110213874D01*
X109772056Y-110338230D01*
X109773810Y-110482460D01*
X109775834Y-110643764D01*
X109778095Y-110819345D01*
X109780561Y-111006404D01*
X109781696Y-111091133D01*
X109788286Y-111578975D01*
X109794486Y-112033674D01*
X109800307Y-112455952D01*
X109805761Y-112846529D01*
X109810859Y-113206129D01*
X109815614Y-113535472D01*
X109820036Y-113835280D01*
X109824137Y-114106273D01*
X109827928Y-114349175D01*
X109831422Y-114564706D01*
X109834630Y-114753587D01*
X109837564Y-114916541D01*
X109840234Y-115054289D01*
X109842653Y-115167551D01*
X109844832Y-115257051D01*
X109846783Y-115323509D01*
X109848518Y-115367646D01*
X109850047Y-115390185D01*
X109850758Y-115393602D01*
X109868078Y-115393391D01*
X109917124Y-115391311D01*
X109995813Y-115387482D01*
X110102063Y-115382023D01*
X110233791Y-115375053D01*
X110388915Y-115366692D01*
X110565352Y-115357059D01*
X110761020Y-115346273D01*
X110973836Y-115334454D01*
X111201718Y-115321720D01*
X111442584Y-115308192D01*
X111694350Y-115293988D01*
X111954935Y-115279228D01*
X112222255Y-115264031D01*
X112494229Y-115248516D01*
X112768773Y-115232803D01*
X113043806Y-115217011D01*
X113317244Y-115201259D01*
X113587006Y-115185667D01*
X113851009Y-115170353D01*
X114107170Y-115155438D01*
X114353407Y-115141041D01*
X114587637Y-115127280D01*
X114807778Y-115114275D01*
X115011747Y-115102146D01*
X115197463Y-115091011D01*
X115362841Y-115080991D01*
X115505800Y-115072203D01*
X115624258Y-115064769D01*
X115716132Y-115058806D01*
X115779339Y-115054435D01*
X115802833Y-115052609D01*
X115872728Y-115044148D01*
X115912604Y-115030790D01*
X115923252Y-115008859D01*
X115905457Y-114974678D01*
X115860009Y-114924574D01*
X115835457Y-114900406D01*
X115755122Y-114834757D01*
X115655262Y-114771149D01*
X115547462Y-114715748D01*
X115443306Y-114674721D01*
X115380342Y-114658154D01*
X115320478Y-114648167D01*
X115241619Y-114636986D01*
X115158480Y-114626660D01*
X115138200Y-114624393D01*
X114979930Y-114597405D01*
X114849780Y-114553659D01*
X114746114Y-114492570D01*
X114728217Y-114478051D01*
X114662188Y-114406576D01*
X114623700Y-114325781D01*
X114610435Y-114229216D01*
X114613785Y-114159372D01*
X114625463Y-114043092D01*
X114484897Y-114115464D01*
X114384234Y-114161337D01*
X114299541Y-114184413D01*
X114222167Y-114185151D01*
X114143460Y-114164010D01*
X114083539Y-114136745D01*
X114001561Y-114083218D01*
X113951929Y-114025038D01*
X113933918Y-113964849D01*
X113946801Y-113905295D01*
X113989853Y-113849020D01*
X114062349Y-113798669D01*
X114163562Y-113756885D01*
X114189934Y-113749014D01*
X114280137Y-113721763D01*
X114341690Y-113697584D01*
X114379289Y-113673650D01*
X114397632Y-113647138D01*
X114401600Y-113621736D01*
X114393747Y-113576709D01*
X114371578Y-113561894D01*
X114337174Y-113578299D01*
X114328169Y-113586199D01*
X114263740Y-113630497D01*
X114176657Y-113667683D01*
X114078017Y-113693426D01*
X114037534Y-113699583D01*
X113965103Y-113711019D01*
X113907512Y-113729050D01*
X113854003Y-113758981D01*
X113793817Y-113806118D01*
X113758554Y-113837171D01*
X113710577Y-113878962D01*
X113673924Y-113903751D01*
X113636065Y-113916605D01*
X113584469Y-113922591D01*
X113541346Y-113925014D01*
X113426045Y-113923948D01*
X113339849Y-113907748D01*
X113283279Y-113876559D01*
X113262705Y-113848456D01*
X113253176Y-113819626D01*
X113259578Y-113795964D01*
X113286435Y-113766443D01*
X113302267Y-113752002D01*
X113346503Y-113714235D01*
X113405087Y-113666642D01*
X113464280Y-113620343D01*
X113511931Y-113581543D01*
X113561372Y-113535873D01*
X113616161Y-113479475D01*
X113679855Y-113408490D01*
X113756011Y-113319062D01*
X113848185Y-113207330D01*
X113871869Y-113178264D01*
X113935298Y-113105504D01*
X113990492Y-113057338D01*
X114046185Y-113029048D01*
X114111111Y-113015920D01*
X114177653Y-113013161D01*
X114225625Y-113009988D01*
X114251551Y-112996944D01*
X114266134Y-112970733D01*
X114272377Y-112914511D01*
X114247542Y-112865205D01*
X114193921Y-112823950D01*
X114113805Y-112791882D01*
X114009487Y-112770137D01*
X113883258Y-112759850D01*
X113839202Y-112759165D01*
X113707425Y-112742891D01*
X113586793Y-112694813D01*
X113478939Y-112615630D01*
X113459443Y-112596531D01*
X113409449Y-112540210D01*
X113371595Y-112483016D01*
X113340913Y-112415236D01*
X113312432Y-112327157D01*
X113301622Y-112288090D01*
X113282998Y-112239145D01*
X113262076Y-112223945D01*
X113238205Y-112242411D01*
X113218252Y-112277717D01*
X113175993Y-112346400D01*
X113130117Y-112381570D01*
X113080881Y-112383155D01*
X113028545Y-112351080D01*
X113013267Y-112335947D01*
X112963407Y-112268453D01*
X112911974Y-112173456D01*
X112861307Y-112057093D01*
X112813747Y-111925501D01*
X112771635Y-111784816D01*
X112737309Y-111641176D01*
X112725998Y-111582673D01*
X112707871Y-111486468D01*
X112690675Y-111413650D01*
X112670420Y-111354095D01*
X112643115Y-111297684D01*
X112604770Y-111234293D01*
X112564791Y-111173731D01*
X112509139Y-111081831D01*
X112475437Y-110999965D01*
X112463205Y-110920127D01*
X112471959Y-110834314D01*
X112501219Y-110734522D01*
X112533436Y-110652560D01*
X112558924Y-110575739D01*
X112580518Y-110474520D01*
X112599137Y-110344478D01*
X112601340Y-110325628D01*
X112610245Y-110241706D01*
X112616492Y-110170433D01*
X112619613Y-110118254D01*
X112619144Y-110091614D01*
X112618404Y-110089693D01*
X112600997Y-110088048D01*
X112552801Y-110085208D01*
X112476834Y-110081298D01*
X112376115Y-110076446D01*
X112253661Y-110070775D01*
X112112493Y-110064411D01*
X111955627Y-110057481D01*
X111786083Y-110050109D01*
X111606879Y-110042422D01*
X111421033Y-110034544D01*
X111231565Y-110026602D01*
X111041492Y-110018720D01*
X110853833Y-110011025D01*
X110671607Y-110003642D01*
X110497832Y-109996697D01*
X110335526Y-109990314D01*
X110187708Y-109984621D01*
X110057397Y-109979742D01*
X109947610Y-109975802D01*
X109861367Y-109972928D01*
X109801687Y-109971245D01*
X109771586Y-109970879D01*
X109768497Y-109971138D01*
X109768404Y-109988022D01*
X109768747Y-110035971D01*
G36*
X111405843Y-115495536D02*
G01*
X111408743Y-115573190D01*
X111413416Y-115676024D01*
X111419692Y-115801171D01*
X111427400Y-115945761D01*
X111436372Y-116106923D01*
X111446437Y-116281789D01*
X111457426Y-116467490D01*
X111469169Y-116661155D01*
X111481496Y-116859916D01*
X111494239Y-117060903D01*
X111507226Y-117261246D01*
X111520288Y-117458076D01*
X111533256Y-117648524D01*
X111545960Y-117829720D01*
X111557688Y-117991466D01*
X111593346Y-118474066D01*
X111654911Y-118601066D01*
X111706951Y-118733996D01*
X111727779Y-118855553D01*
X111717162Y-118968049D01*
X111674865Y-119073796D01*
X111600655Y-119175106D01*
X111596482Y-119179684D01*
X111550340Y-119230863D01*
X111523259Y-119266205D01*
X111511129Y-119294567D01*
X111509834Y-119324807D01*
X111513991Y-119357331D01*
X111528992Y-119419042D01*
X111551950Y-119477138D01*
X111557952Y-119488216D01*
X111577727Y-119536004D01*
X111594248Y-119600780D01*
X111601478Y-119647797D01*
X111607713Y-119699352D01*
X111617227Y-119735283D01*
X111635810Y-119764816D01*
X111669252Y-119797178D01*
X111722863Y-119841207D01*
X111797916Y-119904206D01*
X111849186Y-119955138D01*
X111881003Y-120000817D01*
X111897701Y-120048055D01*
X111903611Y-120103664D01*
X111903934Y-120125923D01*
X111901681Y-120186443D01*
X111892190Y-120226075D01*
X111871363Y-120257652D01*
X111857005Y-120272848D01*
X111814526Y-120305040D01*
X111755227Y-120337851D01*
X111713071Y-120355985D01*
X111647572Y-120385775D01*
X111614196Y-120414064D01*
X111610279Y-120423719D01*
X111594342Y-120457197D01*
X111564056Y-120493724D01*
X111563713Y-120494052D01*
X111539092Y-120521225D01*
X111527072Y-120549143D01*
X111527699Y-120585588D01*
X111541019Y-120638339D01*
X111564983Y-120709267D01*
X111586185Y-120777952D01*
X111601376Y-120843749D01*
X111607243Y-120892067D01*
X111607600Y-120956334D01*
X111671100Y-120945564D01*
X111750868Y-120929383D01*
X111856659Y-120903975D01*
X111982457Y-120871095D01*
X112122250Y-120832497D01*
X112270021Y-120789936D01*
X112419758Y-120745166D01*
X112565445Y-120699942D01*
X112701068Y-120656018D01*
X112820612Y-120615149D01*
X112888609Y-120590390D01*
X113102174Y-120499995D01*
X113295620Y-120395703D01*
X113476600Y-120272454D01*
X113652769Y-120125188D01*
X113783534Y-119998796D01*
X113879831Y-119902643D01*
X113971757Y-119815452D01*
X114062458Y-119735215D01*
X114155083Y-119659924D01*
X114252778Y-119587568D01*
X114358692Y-119516141D01*
X114475971Y-119443632D01*
X114607764Y-119368033D01*
X114757217Y-119287335D01*
X114927479Y-119199528D01*
X115121696Y-119102605D01*
X115343017Y-118994557D01*
X115400667Y-118966673D01*
X115523458Y-118907193D01*
X115636549Y-118852073D01*
X115736312Y-118803106D01*
X115819118Y-118762089D01*
X115881338Y-118730815D01*
X115919345Y-118711080D01*
X115929747Y-118704960D01*
X115926509Y-118686496D01*
X115907479Y-118646928D01*
X115876142Y-118593000D01*
X115853813Y-118557973D01*
X115781711Y-118457493D01*
X115704207Y-118365373D01*
X115627010Y-118287541D01*
X115555827Y-118229923D01*
X115514500Y-118205653D01*
X115461333Y-118186169D01*
X115392814Y-118168000D01*
X115346819Y-118158998D01*
X115279328Y-118146986D01*
X115228221Y-118132566D01*
X115191223Y-118111232D01*
X115166057Y-118078477D01*
X115150449Y-118029795D01*
X115142120Y-117960678D01*
X115138796Y-117866621D01*
X115138200Y-117745933D01*
X115137975Y-117640284D01*
X115136857Y-117562776D01*
X115134183Y-117507687D01*
X115129289Y-117469293D01*
X115121512Y-117441869D01*
X115110187Y-117419693D01*
X115098346Y-117402189D01*
X115069998Y-117348895D01*
X115065441Y-117293824D01*
X115066561Y-117283656D01*
X115067896Y-117240174D01*
X115054539Y-117205241D01*
X115020763Y-117164407D01*
X115018227Y-117161733D01*
X114988837Y-117128305D01*
X114984142Y-117119959D01*
X114984142Y-118382673D01*
X115071002Y-118401321D01*
X115160541Y-118447428D01*
X115167833Y-118452410D01*
X115206062Y-118496678D01*
X115216133Y-118550189D01*
X115197943Y-118603211D01*
X115169783Y-118633704D01*
X115130975Y-118658150D01*
X115098683Y-118668853D01*
X115097817Y-118668872D01*
X115068905Y-118677851D01*
X115024547Y-118700774D01*
X114994267Y-118719600D01*
X114933573Y-118755243D01*
X114888445Y-118767537D01*
X114850255Y-118756832D01*
X114813747Y-118726886D01*
X114789477Y-118698892D01*
X114777550Y-118669862D01*
X114775058Y-118627995D01*
X114777680Y-118580436D01*
X114784388Y-118519005D01*
X114796923Y-118478749D01*
X114820441Y-118446983D01*
X114839163Y-118429216D01*
X114905136Y-118391849D01*
X114984142Y-118382673D01*
X114984142Y-117119959D01*
X114971608Y-117097676D01*
X114962963Y-117058756D01*
X114959327Y-117000455D01*
X114958666Y-116977028D01*
X114957818Y-116911090D01*
X114962168Y-116869193D01*
X114975920Y-116841527D01*
X115003280Y-116818279D01*
X115035539Y-116797666D01*
X115045208Y-116786674D01*
X115043227Y-116768521D01*
X115027046Y-116738172D01*
X114994111Y-116690590D01*
X114954037Y-116636800D01*
X114890619Y-116556979D01*
X114815762Y-116468839D01*
X114742453Y-116387519D01*
X114718751Y-116362631D01*
X114592241Y-116232395D01*
X114501154Y-116240903D01*
X114405395Y-116236921D01*
X114328615Y-116205836D01*
X114272209Y-116148300D01*
X114260904Y-116128800D01*
X114242226Y-116073985D01*
X114238581Y-116006189D01*
X114249925Y-115918233D01*
X114259323Y-115872777D01*
X114262779Y-115848988D01*
X114255486Y-115833779D01*
X114230728Y-115822869D01*
X114181796Y-115811977D01*
X114156356Y-115807121D01*
X114074788Y-115786225D01*
X114011743Y-115755165D01*
X113963911Y-115709344D01*
X113927984Y-115644165D01*
X113900652Y-115555031D01*
X113878605Y-115437344D01*
X113875569Y-115417079D01*
X113865173Y-115350216D01*
X113855946Y-115310110D01*
X113844639Y-115289940D01*
X113827998Y-115282889D01*
X113811219Y-115282105D01*
X113780166Y-115283086D01*
X113720017Y-115285916D01*
X113634058Y-115290396D01*
X113525572Y-115296330D01*
X113397845Y-115303518D01*
X113254160Y-115311762D01*
X113097804Y-115320864D01*
X112932061Y-115330626D01*
X112760215Y-115340850D01*
X112585551Y-115351337D01*
X112411354Y-115361889D01*
X112240909Y-115372308D01*
X112077500Y-115382395D01*
X111924412Y-115391953D01*
X111784930Y-115400783D01*
X111662338Y-115408687D01*
X111559922Y-115415467D01*
X111480966Y-115420924D01*
X111428755Y-115424861D01*
X111406573Y-115427078D01*
X111406037Y-115427252D01*
X111404884Y-115445934D01*
X111405843Y-115495536D01*
G37*
X111405843Y-115495536D02*
X111408743Y-115573190D01*
X111413416Y-115676024D01*
X111419692Y-115801171D01*
X111427400Y-115945761D01*
X111436372Y-116106923D01*
X111446437Y-116281789D01*
X111457426Y-116467490D01*
X111469169Y-116661155D01*
X111481496Y-116859916D01*
X111494239Y-117060903D01*
X111507226Y-117261246D01*
X111520288Y-117458076D01*
X111533256Y-117648524D01*
X111545960Y-117829720D01*
X111557688Y-117991466D01*
X111593346Y-118474066D01*
X111654911Y-118601066D01*
X111706951Y-118733996D01*
X111727779Y-118855553D01*
X111717162Y-118968049D01*
X111674865Y-119073796D01*
X111600655Y-119175106D01*
X111596482Y-119179684D01*
X111550340Y-119230863D01*
X111523259Y-119266205D01*
X111511129Y-119294567D01*
X111509834Y-119324807D01*
X111513991Y-119357331D01*
X111528992Y-119419042D01*
X111551950Y-119477138D01*
X111557952Y-119488216D01*
X111577727Y-119536004D01*
X111594248Y-119600780D01*
X111601478Y-119647797D01*
X111607713Y-119699352D01*
X111617227Y-119735283D01*
X111635810Y-119764816D01*
X111669252Y-119797178D01*
X111722863Y-119841207D01*
X111797916Y-119904206D01*
X111849186Y-119955138D01*
X111881003Y-120000817D01*
X111897701Y-120048055D01*
X111903611Y-120103664D01*
X111903934Y-120125923D01*
X111901681Y-120186443D01*
X111892190Y-120226075D01*
X111871363Y-120257652D01*
X111857005Y-120272848D01*
X111814526Y-120305040D01*
X111755227Y-120337851D01*
X111713071Y-120355985D01*
X111647572Y-120385775D01*
X111614196Y-120414064D01*
X111610279Y-120423719D01*
X111594342Y-120457197D01*
X111564056Y-120493724D01*
X111563713Y-120494052D01*
X111539092Y-120521225D01*
X111527072Y-120549143D01*
X111527699Y-120585588D01*
X111541019Y-120638339D01*
X111564983Y-120709267D01*
X111586185Y-120777952D01*
X111601376Y-120843749D01*
X111607243Y-120892067D01*
X111607600Y-120956334D01*
X111671100Y-120945564D01*
X111750868Y-120929383D01*
X111856659Y-120903975D01*
X111982457Y-120871095D01*
X112122250Y-120832497D01*
X112270021Y-120789936D01*
X112419758Y-120745166D01*
X112565445Y-120699942D01*
X112701068Y-120656018D01*
X112820612Y-120615149D01*
X112888609Y-120590390D01*
X113102174Y-120499995D01*
X113295620Y-120395703D01*
X113476600Y-120272454D01*
X113652769Y-120125188D01*
X113783534Y-119998796D01*
X113879831Y-119902643D01*
X113971757Y-119815452D01*
X114062458Y-119735215D01*
X114155083Y-119659924D01*
X114252778Y-119587568D01*
X114358692Y-119516141D01*
X114475971Y-119443632D01*
X114607764Y-119368033D01*
X114757217Y-119287335D01*
X114927479Y-119199528D01*
X115121696Y-119102605D01*
X115343017Y-118994557D01*
X115400667Y-118966673D01*
X115523458Y-118907193D01*
X115636549Y-118852073D01*
X115736312Y-118803106D01*
X115819118Y-118762089D01*
X115881338Y-118730815D01*
X115919345Y-118711080D01*
X115929747Y-118704960D01*
X115926509Y-118686496D01*
X115907479Y-118646928D01*
X115876142Y-118593000D01*
X115853813Y-118557973D01*
X115781711Y-118457493D01*
X115704207Y-118365373D01*
X115627010Y-118287541D01*
X115555827Y-118229923D01*
X115514500Y-118205653D01*
X115461333Y-118186169D01*
X115392814Y-118168000D01*
X115346819Y-118158998D01*
X115279328Y-118146986D01*
X115228221Y-118132566D01*
X115191223Y-118111232D01*
X115166057Y-118078477D01*
X115150449Y-118029795D01*
X115142120Y-117960678D01*
X115138796Y-117866621D01*
X115138200Y-117745933D01*
X115137975Y-117640284D01*
X115136857Y-117562776D01*
X115134183Y-117507687D01*
X115129289Y-117469293D01*
X115121512Y-117441869D01*
X115110187Y-117419693D01*
X115098346Y-117402189D01*
X115069998Y-117348895D01*
X115065441Y-117293824D01*
X115066561Y-117283656D01*
X115067896Y-117240174D01*
X115054539Y-117205241D01*
X115020763Y-117164407D01*
X115018227Y-117161733D01*
X114988837Y-117128305D01*
X114984142Y-117119959D01*
X114984142Y-118382673D01*
X115071002Y-118401321D01*
X115160541Y-118447428D01*
X115167833Y-118452410D01*
X115206062Y-118496678D01*
X115216133Y-118550189D01*
X115197943Y-118603211D01*
X115169783Y-118633704D01*
X115130975Y-118658150D01*
X115098683Y-118668853D01*
X115097817Y-118668872D01*
X115068905Y-118677851D01*
X115024547Y-118700774D01*
X114994267Y-118719600D01*
X114933573Y-118755243D01*
X114888445Y-118767537D01*
X114850255Y-118756832D01*
X114813747Y-118726886D01*
X114789477Y-118698892D01*
X114777550Y-118669862D01*
X114775058Y-118627995D01*
X114777680Y-118580436D01*
X114784388Y-118519005D01*
X114796923Y-118478749D01*
X114820441Y-118446983D01*
X114839163Y-118429216D01*
X114905136Y-118391849D01*
X114984142Y-118382673D01*
X114984142Y-117119959D01*
X114971608Y-117097676D01*
X114962963Y-117058756D01*
X114959327Y-117000455D01*
X114958666Y-116977028D01*
X114957818Y-116911090D01*
X114962168Y-116869193D01*
X114975920Y-116841527D01*
X115003280Y-116818279D01*
X115035539Y-116797666D01*
X115045208Y-116786674D01*
X115043227Y-116768521D01*
X115027046Y-116738172D01*
X114994111Y-116690590D01*
X114954037Y-116636800D01*
X114890619Y-116556979D01*
X114815762Y-116468839D01*
X114742453Y-116387519D01*
X114718751Y-116362631D01*
X114592241Y-116232395D01*
X114501154Y-116240903D01*
X114405395Y-116236921D01*
X114328615Y-116205836D01*
X114272209Y-116148300D01*
X114260904Y-116128800D01*
X114242226Y-116073985D01*
X114238581Y-116006189D01*
X114249925Y-115918233D01*
X114259323Y-115872777D01*
X114262779Y-115848988D01*
X114255486Y-115833779D01*
X114230728Y-115822869D01*
X114181796Y-115811977D01*
X114156356Y-115807121D01*
X114074788Y-115786225D01*
X114011743Y-115755165D01*
X113963911Y-115709344D01*
X113927984Y-115644165D01*
X113900652Y-115555031D01*
X113878605Y-115437344D01*
X113875569Y-115417079D01*
X113865173Y-115350216D01*
X113855946Y-115310110D01*
X113844639Y-115289940D01*
X113827998Y-115282889D01*
X113811219Y-115282105D01*
X113780166Y-115283086D01*
X113720017Y-115285916D01*
X113634058Y-115290396D01*
X113525572Y-115296330D01*
X113397845Y-115303518D01*
X113254160Y-115311762D01*
X113097804Y-115320864D01*
X112932061Y-115330626D01*
X112760215Y-115340850D01*
X112585551Y-115351337D01*
X112411354Y-115361889D01*
X112240909Y-115372308D01*
X112077500Y-115382395D01*
X111924412Y-115391953D01*
X111784930Y-115400783D01*
X111662338Y-115408687D01*
X111559922Y-115415467D01*
X111480966Y-115420924D01*
X111428755Y-115424861D01*
X111406573Y-115427078D01*
X111406037Y-115427252D01*
X111404884Y-115445934D01*
X111405843Y-115495536D01*
G36*
X113971276Y-115333620D02*
G01*
X113981176Y-115392465D01*
X113994035Y-115458370D01*
X114008153Y-115522724D01*
X114021828Y-115576916D01*
X114033363Y-115612335D01*
X114035231Y-115616347D01*
X114050090Y-115641539D01*
X114068623Y-115660475D01*
X114097267Y-115676184D01*
X114142457Y-115691695D01*
X114210629Y-115710035D01*
X114261138Y-115722644D01*
X114329887Y-115746867D01*
X114368513Y-115780057D01*
X114380345Y-115825915D01*
X114377733Y-115852142D01*
X114367317Y-115911303D01*
X114357420Y-115967887D01*
X114353326Y-116043035D01*
X114372113Y-116094643D01*
X114414590Y-116124861D01*
X114416992Y-116125725D01*
X114453623Y-116135749D01*
X114473394Y-116136014D01*
X114473550Y-116135872D01*
X114493396Y-116130812D01*
X114534273Y-116126841D01*
X114549562Y-116126076D01*
X114594302Y-116130119D01*
X114640428Y-116147736D01*
X114691753Y-116181835D01*
X114752088Y-116235323D01*
X114825244Y-116311106D01*
X114896100Y-116390353D01*
X114989111Y-116500681D01*
X115064092Y-116598014D01*
X115119312Y-116679803D01*
X115153040Y-116743497D01*
X115163600Y-116784336D01*
X115150139Y-116826736D01*
X115115020Y-116871762D01*
X115112800Y-116873866D01*
X115074702Y-116926252D01*
X115059178Y-116984960D01*
X115066697Y-117040284D01*
X115097722Y-117082518D01*
X115102621Y-117085968D01*
X115147868Y-117133802D01*
X115174773Y-117199531D01*
X115178850Y-117257601D01*
X115183926Y-117301144D01*
X115201996Y-117356345D01*
X115213825Y-117381866D01*
X115230760Y-117417477D01*
X115241742Y-117451666D01*
X115247767Y-117492532D01*
X115249824Y-117548177D01*
X115248909Y-117626699D01*
X115248065Y-117661266D01*
X115245097Y-117778053D01*
X115243250Y-117865497D01*
X115242731Y-117928111D01*
X115243750Y-117970408D01*
X115246514Y-117996899D01*
X115251232Y-118012098D01*
X115258111Y-118020517D01*
X115264866Y-118025127D01*
X115295078Y-118035834D01*
X115344847Y-118046332D01*
X115374457Y-118050700D01*
X115501406Y-118082973D01*
X115624457Y-118147796D01*
X115744026Y-118245496D01*
X115860528Y-118376399D01*
X115951000Y-118504014D01*
X115989776Y-118560566D01*
X116023203Y-118603517D01*
X116046348Y-118626790D01*
X116052600Y-118629126D01*
X116078060Y-118611606D01*
X116095194Y-118575321D01*
X116104666Y-118516483D01*
X116107140Y-118431304D01*
X116104200Y-118334600D01*
X116105018Y-118144673D01*
X116127314Y-117978534D01*
X116172123Y-117832967D01*
X116240482Y-117704757D01*
X116333429Y-117590690D01*
X116349125Y-117575020D01*
X116444417Y-117466973D01*
X116506168Y-117360689D01*
X116534597Y-117255269D01*
X116529925Y-117149811D01*
X116492373Y-117043415D01*
X116483340Y-117026266D01*
X116442652Y-116961544D01*
X116394189Y-116897090D01*
X116366145Y-116865400D01*
X116315960Y-116803012D01*
X116268872Y-116725615D01*
X116229942Y-116643657D01*
X116204230Y-116567585D01*
X116196547Y-116515264D01*
X116206203Y-116459265D01*
X116232857Y-116386798D01*
X116254389Y-116341998D01*
X116284811Y-116279797D01*
X116309385Y-116222584D01*
X116322883Y-116182552D01*
X116323007Y-116181995D01*
X116324071Y-116133967D01*
X116309582Y-116066564D01*
X116278774Y-115977577D01*
X116230878Y-115864798D01*
X116165127Y-115726015D01*
X116163086Y-115721863D01*
X116125392Y-115642539D01*
X116093986Y-115571234D01*
X116071718Y-115514814D01*
X116061437Y-115480145D01*
X116061067Y-115476115D01*
X116068702Y-115439782D01*
X116088287Y-115388081D01*
X116104914Y-115353145D01*
X116129855Y-115300088D01*
X116138176Y-115264982D01*
X116131997Y-115237567D01*
X116129718Y-115233049D01*
X116103508Y-115205128D01*
X116081172Y-115197467D01*
X116044006Y-115188126D01*
X116018268Y-115174367D01*
X116007199Y-115169702D01*
X115987606Y-115166323D01*
X115957007Y-115164316D01*
X115912918Y-115163768D01*
X115852857Y-115164764D01*
X115774340Y-115167390D01*
X115674885Y-115171731D01*
X115552009Y-115177875D01*
X115403228Y-115185906D01*
X115226061Y-115195910D01*
X115018022Y-115207974D01*
X114977333Y-115210357D01*
X114796152Y-115221015D01*
X114625341Y-115231124D01*
X114467843Y-115240507D01*
X114326598Y-115248985D01*
X114204550Y-115256381D01*
X114104640Y-115262515D01*
X114029810Y-115267210D01*
X113983001Y-115270287D01*
X113967154Y-115271556D01*
X113966035Y-115290447D01*
X113971276Y-115333620D01*
G37*
X113971276Y-115333620D02*
X113981176Y-115392465D01*
X113994035Y-115458370D01*
X114008153Y-115522724D01*
X114021828Y-115576916D01*
X114033363Y-115612335D01*
X114035231Y-115616347D01*
X114050090Y-115641539D01*
X114068623Y-115660475D01*
X114097267Y-115676184D01*
X114142457Y-115691695D01*
X114210629Y-115710035D01*
X114261138Y-115722644D01*
X114329887Y-115746867D01*
X114368513Y-115780057D01*
X114380345Y-115825915D01*
X114377733Y-115852142D01*
X114367317Y-115911303D01*
X114357420Y-115967887D01*
X114353326Y-116043035D01*
X114372113Y-116094643D01*
X114414590Y-116124861D01*
X114416992Y-116125725D01*
X114453623Y-116135749D01*
X114473394Y-116136014D01*
X114473550Y-116135872D01*
X114493396Y-116130812D01*
X114534273Y-116126841D01*
X114549562Y-116126076D01*
X114594302Y-116130119D01*
X114640428Y-116147736D01*
X114691753Y-116181835D01*
X114752088Y-116235323D01*
X114825244Y-116311106D01*
X114896100Y-116390353D01*
X114989111Y-116500681D01*
X115064092Y-116598014D01*
X115119312Y-116679803D01*
X115153040Y-116743497D01*
X115163600Y-116784336D01*
X115150139Y-116826736D01*
X115115020Y-116871762D01*
X115112800Y-116873866D01*
X115074702Y-116926252D01*
X115059178Y-116984960D01*
X115066697Y-117040284D01*
X115097722Y-117082518D01*
X115102621Y-117085968D01*
X115147868Y-117133802D01*
X115174773Y-117199531D01*
X115178850Y-117257601D01*
X115183926Y-117301144D01*
X115201996Y-117356345D01*
X115213825Y-117381866D01*
X115230760Y-117417477D01*
X115241742Y-117451666D01*
X115247767Y-117492532D01*
X115249824Y-117548177D01*
X115248909Y-117626699D01*
X115248065Y-117661266D01*
X115245097Y-117778053D01*
X115243250Y-117865497D01*
X115242731Y-117928111D01*
X115243750Y-117970408D01*
X115246514Y-117996899D01*
X115251232Y-118012098D01*
X115258111Y-118020517D01*
X115264866Y-118025127D01*
X115295078Y-118035834D01*
X115344847Y-118046332D01*
X115374457Y-118050700D01*
X115501406Y-118082973D01*
X115624457Y-118147796D01*
X115744026Y-118245496D01*
X115860528Y-118376399D01*
X115951000Y-118504014D01*
X115989776Y-118560566D01*
X116023203Y-118603517D01*
X116046348Y-118626790D01*
X116052600Y-118629126D01*
X116078060Y-118611606D01*
X116095194Y-118575321D01*
X116104666Y-118516483D01*
X116107140Y-118431304D01*
X116104200Y-118334600D01*
X116105018Y-118144673D01*
X116127314Y-117978534D01*
X116172123Y-117832967D01*
X116240482Y-117704757D01*
X116333429Y-117590690D01*
X116349125Y-117575020D01*
X116444417Y-117466973D01*
X116506168Y-117360689D01*
X116534597Y-117255269D01*
X116529925Y-117149811D01*
X116492373Y-117043415D01*
X116483340Y-117026266D01*
X116442652Y-116961544D01*
X116394189Y-116897090D01*
X116366145Y-116865400D01*
X116315960Y-116803012D01*
X116268872Y-116725615D01*
X116229942Y-116643657D01*
X116204230Y-116567585D01*
X116196547Y-116515264D01*
X116206203Y-116459265D01*
X116232857Y-116386798D01*
X116254389Y-116341998D01*
X116284811Y-116279797D01*
X116309385Y-116222584D01*
X116322883Y-116182552D01*
X116323007Y-116181995D01*
X116324071Y-116133967D01*
X116309582Y-116066564D01*
X116278774Y-115977577D01*
X116230878Y-115864798D01*
X116165127Y-115726015D01*
X116163086Y-115721863D01*
X116125392Y-115642539D01*
X116093986Y-115571234D01*
X116071718Y-115514814D01*
X116061437Y-115480145D01*
X116061067Y-115476115D01*
X116068702Y-115439782D01*
X116088287Y-115388081D01*
X116104914Y-115353145D01*
X116129855Y-115300088D01*
X116138176Y-115264982D01*
X116131997Y-115237567D01*
X116129718Y-115233049D01*
X116103508Y-115205128D01*
X116081172Y-115197467D01*
X116044006Y-115188126D01*
X116018268Y-115174367D01*
X116007199Y-115169702D01*
X115987606Y-115166323D01*
X115957007Y-115164316D01*
X115912918Y-115163768D01*
X115852857Y-115164764D01*
X115774340Y-115167390D01*
X115674885Y-115171731D01*
X115552009Y-115177875D01*
X115403228Y-115185906D01*
X115226061Y-115195910D01*
X115018022Y-115207974D01*
X114977333Y-115210357D01*
X114796152Y-115221015D01*
X114625341Y-115231124D01*
X114467843Y-115240507D01*
X114326598Y-115248985D01*
X114204550Y-115256381D01*
X114104640Y-115262515D01*
X114029810Y-115267210D01*
X113983001Y-115270287D01*
X113967154Y-115271556D01*
X113966035Y-115290447D01*
X113971276Y-115333620D01*
G36*
X117602954Y-116685254D02*
G01*
X117645785Y-116782928D01*
X117681170Y-116850430D01*
X117715943Y-116916277D01*
X117742667Y-116966384D01*
X117742998Y-116967000D01*
X117758985Y-117000944D01*
X117769550Y-117037328D01*
X117775751Y-117084042D01*
X117778645Y-117148975D01*
X117779290Y-117237933D01*
X117777819Y-117343508D01*
X117774017Y-117464981D01*
X117768529Y-117584513D01*
X117764314Y-117653395D01*
X117758541Y-117742638D01*
X117756110Y-117804446D01*
X117757415Y-117845123D01*
X117762852Y-117870973D01*
X117772817Y-117888299D01*
X117779517Y-117895631D01*
X117802957Y-117915223D01*
X117822306Y-117912176D01*
X117845446Y-117892919D01*
X117892797Y-117856438D01*
X117944982Y-117832525D01*
X118012080Y-117817752D01*
X118090379Y-117809673D01*
X118174576Y-117798680D01*
X118262754Y-117779727D01*
X118326287Y-117760295D01*
X118388662Y-117739518D01*
X118444996Y-117725129D01*
X118478821Y-117720533D01*
X118520355Y-117712607D01*
X118575093Y-117692381D01*
X118606365Y-117677292D01*
X118672117Y-117649295D01*
X118743822Y-117628814D01*
X118771317Y-117624135D01*
X118827760Y-117613238D01*
X118872207Y-117597137D01*
X118898614Y-117579248D01*
X118900934Y-117562988D01*
X118891050Y-117556486D01*
X118846341Y-117525559D01*
X118814024Y-117480773D01*
X118804267Y-117443417D01*
X118819627Y-117390373D01*
X118862125Y-117334720D01*
X118926391Y-117283341D01*
X118931955Y-117279841D01*
X118997232Y-117223290D01*
X119031909Y-117152888D01*
X119036185Y-117067996D01*
X119019846Y-116995322D01*
X118998681Y-116952351D01*
X118962307Y-116898724D01*
X118928242Y-116857146D01*
X118879544Y-116808404D01*
X118829209Y-116771967D01*
X118771089Y-116745909D01*
X118699031Y-116728306D01*
X118606888Y-116717234D01*
X118488507Y-116710769D01*
X118457133Y-116709737D01*
X118347511Y-116705450D01*
X118264434Y-116699034D01*
X118200587Y-116688857D01*
X118148653Y-116673288D01*
X118101314Y-116650694D01*
X118051255Y-116619443D01*
X118050733Y-116619093D01*
X117932114Y-116547376D01*
X117827913Y-116499920D01*
X117739872Y-116476021D01*
X117669730Y-116474977D01*
X117619227Y-116496081D01*
X117590104Y-116538632D01*
X117584099Y-116601924D01*
X117602954Y-116685254D01*
G37*
X117602954Y-116685254D02*
X117645785Y-116782928D01*
X117681170Y-116850430D01*
X117715943Y-116916277D01*
X117742667Y-116966384D01*
X117742998Y-116967000D01*
X117758985Y-117000944D01*
X117769550Y-117037328D01*
X117775751Y-117084042D01*
X117778645Y-117148975D01*
X117779290Y-117237933D01*
X117777819Y-117343508D01*
X117774017Y-117464981D01*
X117768529Y-117584513D01*
X117764314Y-117653395D01*
X117758541Y-117742638D01*
X117756110Y-117804446D01*
X117757415Y-117845123D01*
X117762852Y-117870973D01*
X117772817Y-117888299D01*
X117779517Y-117895631D01*
X117802957Y-117915223D01*
X117822306Y-117912176D01*
X117845446Y-117892919D01*
X117892797Y-117856438D01*
X117944982Y-117832525D01*
X118012080Y-117817752D01*
X118090379Y-117809673D01*
X118174576Y-117798680D01*
X118262754Y-117779727D01*
X118326287Y-117760295D01*
X118388662Y-117739518D01*
X118444996Y-117725129D01*
X118478821Y-117720533D01*
X118520355Y-117712607D01*
X118575093Y-117692381D01*
X118606365Y-117677292D01*
X118672117Y-117649295D01*
X118743822Y-117628814D01*
X118771317Y-117624135D01*
X118827760Y-117613238D01*
X118872207Y-117597137D01*
X118898614Y-117579248D01*
X118900934Y-117562988D01*
X118891050Y-117556486D01*
X118846341Y-117525559D01*
X118814024Y-117480773D01*
X118804267Y-117443417D01*
X118819627Y-117390373D01*
X118862125Y-117334720D01*
X118926391Y-117283341D01*
X118931955Y-117279841D01*
X118997232Y-117223290D01*
X119031909Y-117152888D01*
X119036185Y-117067996D01*
X119019846Y-116995322D01*
X118998681Y-116952351D01*
X118962307Y-116898724D01*
X118928242Y-116857146D01*
X118879544Y-116808404D01*
X118829209Y-116771967D01*
X118771089Y-116745909D01*
X118699031Y-116728306D01*
X118606888Y-116717234D01*
X118488507Y-116710769D01*
X118457133Y-116709737D01*
X118347511Y-116705450D01*
X118264434Y-116699034D01*
X118200587Y-116688857D01*
X118148653Y-116673288D01*
X118101314Y-116650694D01*
X118051255Y-116619443D01*
X118050733Y-116619093D01*
X117932114Y-116547376D01*
X117827913Y-116499920D01*
X117739872Y-116476021D01*
X117669730Y-116474977D01*
X117619227Y-116496081D01*
X117590104Y-116538632D01*
X117584099Y-116601924D01*
X117602954Y-116685254D01*
M02*
