M48
; DRILL file {KiCad 5.1.5-52549c5~86~ubuntu19.04.1} date Fri 15 May 2020 20:04:23 AEST
; FORMAT={-:-/ absolute / inch / decimal}
; #@! TF.CreationDate,2020-05-15T20:04:23+10:00
; #@! TF.GenerationSoftware,Kicad,Pcbnew,5.1.5-52549c5~86~ubuntu19.04.1
FMAT,2
INCH
T1C0.0157
T2C0.0350
T3C0.0394
%
G90
G05
T1
X3.1988Y-3.5335
X3.3268Y-3.7598
X3.406Y-4.1727
X3.4488Y-4.2126
X3.4498Y-4.1732
X3.5817Y-3.8691
X3.5817Y-4.4252
X3.6624Y-3.8386
X3.6772Y-4.3465
X3.6772Y-4.5984
X3.7087Y-4.5197
X3.7205Y-4.252
X3.8189Y-4.8583
X3.8661Y-4.3543
X3.8661Y-4.3858
X3.9134Y-4.315
X3.9606Y-4.4252
X4.0256Y-3.7598
X4.5276Y-4.1732
X4.5665Y-3.5319
X4.5669Y-3.7598
T2
X3.685Y-3.5315
X3.6929Y-2.9685
X3.9508Y-3.3189
X4.2638Y-3.5315
T3
X3.3327Y-3.1085
X3.3327Y-3.2085
X3.4327Y-3.1085
X3.4327Y-3.2085
X3.5327Y-3.1085
X3.5327Y-3.2085
X3.6327Y-3.1085
X3.6327Y-3.2085
X3.7327Y-3.1085
X3.7327Y-3.2085
X3.8327Y-3.1085
X3.8327Y-3.2085
X4.061Y-3.1085
X4.061Y-3.2085
X4.161Y-3.1085
X4.161Y-3.2085
X4.261Y-3.1085
X4.261Y-3.2085
X4.361Y-3.1085
X4.361Y-3.2085
X4.461Y-3.1085
X4.461Y-3.2085
X4.561Y-3.1085
X4.561Y-3.2085
X3.4016Y-4.7205
X3.4016Y-4.8205
X3.5016Y-4.7205
X3.5016Y-4.8205
X3.6016Y-4.7205
X3.6016Y-4.8205
X3.7016Y-4.7205
X3.7016Y-4.8205
T0
M30
