G04 #@! TF.GenerationSoftware,KiCad,Pcbnew,5.1.4-e60b266~84~ubuntu19.04.1*
G04 #@! TF.CreationDate,2020-02-26T10:38:06+11:00*
G04 #@! TF.ProjectId,93ng-blue-aux-esp32-only,39336e67-2d62-46c7-9565-2d6175782d65,rev?*
G04 #@! TF.SameCoordinates,Original*
G04 #@! TF.FileFunction,Legend,Top*
G04 #@! TF.FilePolarity,Positive*
%FSLAX46Y46*%
G04 Gerber Fmt 4.6, Leading zero omitted, Abs format (unit mm)*
G04 Created by KiCad (PCBNEW 5.1.4-e60b266~84~ubuntu19.04.1) date 2020-02-26 10:38:06*
%MOMM*%
%LPD*%
G04 APERTURE LIST*
%ADD10C,0.120000*%
%ADD11C,0.100000*%
G04 APERTURE END LIST*
D10*
X178302064Y-101640000D02*
X175497936Y-101640000D01*
X178302064Y-104360000D02*
X175497936Y-104360000D01*
X191640000Y-106040000D02*
X191640000Y-108900000D01*
X193560000Y-106040000D02*
X191640000Y-106040000D01*
X193560000Y-108900000D02*
X193560000Y-106040000D01*
X198250000Y-110880000D02*
X199750000Y-110880000D01*
X199750000Y-110880000D02*
X199750000Y-118140000D01*
X190250000Y-110880000D02*
X190250000Y-118140000D01*
X190250000Y-110880000D02*
X191750000Y-110880000D01*
X183161252Y-100710000D02*
X182638748Y-100710000D01*
X183161252Y-99290000D02*
X182638748Y-99290000D01*
X208090000Y-103311252D02*
X208090000Y-102788748D01*
X209510000Y-103311252D02*
X209510000Y-102788748D01*
X213840000Y-106638748D02*
X213840000Y-107161252D01*
X215260000Y-106638748D02*
X215260000Y-107161252D01*
X199100000Y-108860000D02*
X201960000Y-108860000D01*
X201960000Y-108860000D02*
X201960000Y-106940000D01*
X201960000Y-106940000D02*
X199100000Y-106940000D01*
X212880000Y-106290000D02*
X211950000Y-106290000D01*
X209720000Y-106290000D02*
X210650000Y-106290000D01*
X209720000Y-106290000D02*
X209720000Y-108450000D01*
X212880000Y-106290000D02*
X212880000Y-107750000D01*
X177910000Y-121800000D02*
X178410000Y-121800000D01*
X177910000Y-121060000D02*
X177910000Y-121800000D01*
X184572000Y-117192000D02*
X184177000Y-117588000D01*
X187218000Y-114546000D02*
X186838000Y-114926000D01*
X184823000Y-117474000D02*
X184443000Y-117854000D01*
X187484000Y-114812000D02*
X187089000Y-115208000D01*
X179202000Y-117481000D02*
X179096000Y-117588000D01*
X182138000Y-114546000D02*
X182031000Y-114653000D01*
X179468000Y-117747000D02*
X179362000Y-117854000D01*
X182404000Y-114812000D02*
X182297000Y-114919000D01*
X188430000Y-110240000D02*
X188430000Y-121560000D01*
X178150000Y-110240000D02*
X178150000Y-121560000D01*
X178150000Y-121560000D02*
X188430000Y-121560000D01*
X178150000Y-110240000D02*
X188430000Y-110240000D01*
X178150000Y-112300000D02*
X188430000Y-112300000D01*
X178150000Y-118500000D02*
X188430000Y-118500000D01*
X178150000Y-121000000D02*
X188430000Y-121000000D01*
X188010000Y-116200000D02*
G75*
G03X188010000Y-116200000I-2180000J0D01*
G01*
X182930000Y-116200000D02*
G75*
G03X182930000Y-116200000I-2180000J0D01*
G01*
X206180000Y-116200000D02*
G75*
G03X206180000Y-116200000I-2180000J0D01*
G01*
X211260000Y-116200000D02*
G75*
G03X211260000Y-116200000I-2180000J0D01*
G01*
X201400000Y-121000000D02*
X211680000Y-121000000D01*
X201400000Y-118500000D02*
X211680000Y-118500000D01*
X201400000Y-112300000D02*
X211680000Y-112300000D01*
X201400000Y-110240000D02*
X211680000Y-110240000D01*
X201400000Y-121560000D02*
X211680000Y-121560000D01*
X201400000Y-110240000D02*
X201400000Y-121560000D01*
X211680000Y-110240000D02*
X211680000Y-121560000D01*
X205654000Y-114812000D02*
X205547000Y-114919000D01*
X202718000Y-117747000D02*
X202612000Y-117854000D01*
X205388000Y-114546000D02*
X205281000Y-114653000D01*
X202452000Y-117481000D02*
X202346000Y-117588000D01*
X210734000Y-114812000D02*
X210339000Y-115208000D01*
X208073000Y-117474000D02*
X207693000Y-117854000D01*
X210468000Y-114546000D02*
X210088000Y-114926000D01*
X207822000Y-117192000D02*
X207427000Y-117588000D01*
X201160000Y-121060000D02*
X201160000Y-121800000D01*
X201160000Y-121800000D02*
X201660000Y-121800000D01*
X212410000Y-102788748D02*
X212410000Y-103311252D01*
X210990000Y-102788748D02*
X210990000Y-103311252D01*
X212410000Y-99411252D02*
X212410000Y-98888748D01*
X210990000Y-99411252D02*
X210990000Y-98888748D01*
X209510000Y-98888748D02*
X209510000Y-99411252D01*
X208090000Y-98888748D02*
X208090000Y-99411252D01*
X205061252Y-108610000D02*
X204538748Y-108610000D01*
X205061252Y-107190000D02*
X204538748Y-107190000D01*
X215260000Y-102788748D02*
X215260000Y-103311252D01*
X213840000Y-102788748D02*
X213840000Y-103311252D01*
X185880000Y-97000000D02*
X185880000Y-97780000D01*
X185880000Y-97780000D02*
X186880000Y-97780000D01*
X204120000Y-97000000D02*
X204120000Y-97780000D01*
X204120000Y-97780000D02*
X203120000Y-97780000D01*
X185880000Y-72035000D02*
X204120000Y-72035000D01*
X204120000Y-72035000D02*
X204120000Y-78455000D01*
X185880000Y-72035000D02*
X185880000Y-78455000D01*
X185880000Y-78455000D02*
X185500000Y-78455000D01*
X198365000Y-102800000D02*
X198365000Y-104750000D01*
X198365000Y-102800000D02*
X198365000Y-100850000D01*
X207235000Y-102800000D02*
X207235000Y-104750000D01*
X207235000Y-102800000D02*
X207235000Y-99350000D01*
X191585000Y-99640000D02*
X192310000Y-99640000D01*
X192310000Y-99640000D02*
X192310000Y-100365000D01*
X187815000Y-104860000D02*
X187090000Y-104860000D01*
X187090000Y-104860000D02*
X187090000Y-104135000D01*
X191585000Y-104860000D02*
X192310000Y-104860000D01*
X192310000Y-104860000D02*
X192310000Y-104135000D01*
X187815000Y-99640000D02*
X187090000Y-99640000D01*
X178690000Y-87761252D02*
X178690000Y-87238748D01*
X180110000Y-87761252D02*
X180110000Y-87238748D01*
X175240000Y-82250000D02*
X175240000Y-85110000D01*
X175240000Y-85110000D02*
X177160000Y-85110000D01*
X177160000Y-85110000D02*
X177160000Y-82250000D01*
X182040000Y-87238748D02*
X182040000Y-87761252D01*
X183460000Y-87238748D02*
X183460000Y-87761252D01*
X180210000Y-82988748D02*
X180210000Y-83511252D01*
X178790000Y-82988748D02*
X178790000Y-83511252D01*
X213840000Y-98888748D02*
X213840000Y-99411252D01*
X215260000Y-98888748D02*
X215260000Y-99411252D01*
X208188748Y-93690000D02*
X208711252Y-93690000D01*
X208188748Y-95110000D02*
X208711252Y-95110000D01*
X208188748Y-93210000D02*
X208711252Y-93210000D01*
X208188748Y-91790000D02*
X208711252Y-91790000D01*
X213588748Y-91310000D02*
X214111252Y-91310000D01*
X213588748Y-89890000D02*
X214111252Y-89890000D01*
X188761252Y-107210000D02*
X188238748Y-107210000D01*
X188761252Y-105790000D02*
X188238748Y-105790000D01*
X195161252Y-100810000D02*
X194638748Y-100810000D01*
X195161252Y-99390000D02*
X194638748Y-99390000D01*
X181810000Y-108330000D02*
X181810000Y-105670000D01*
X176670000Y-108330000D02*
X181810000Y-108330000D01*
X176670000Y-105670000D02*
X181810000Y-105670000D01*
X176670000Y-108330000D02*
X176670000Y-105670000D01*
X175400000Y-108330000D02*
X174070000Y-108330000D01*
X174070000Y-108330000D02*
X174070000Y-107000000D01*
X180560000Y-94690000D02*
X179300000Y-94690000D01*
X173740000Y-94690000D02*
X175000000Y-94690000D01*
X180560000Y-98450000D02*
X180560000Y-94690000D01*
X173740000Y-100700000D02*
X173740000Y-94690000D01*
X183460000Y-82988748D02*
X183460000Y-83511252D01*
X182040000Y-82988748D02*
X182040000Y-83511252D01*
X194710000Y-103038748D02*
X194710000Y-103561252D01*
X193290000Y-103038748D02*
X193290000Y-103561252D01*
X195490000Y-106138748D02*
X195490000Y-106661252D01*
X196910000Y-106138748D02*
X196910000Y-106661252D01*
X210060000Y-91380000D02*
X208600000Y-91380000D01*
X210060000Y-88220000D02*
X206900000Y-88220000D01*
X210060000Y-88220000D02*
X210060000Y-89150000D01*
X210060000Y-91380000D02*
X210060000Y-90450000D01*
X212240000Y-91720000D02*
X212240000Y-92650000D01*
X212240000Y-94880000D02*
X212240000Y-93950000D01*
X212240000Y-94880000D02*
X215400000Y-94880000D01*
X212240000Y-91720000D02*
X213700000Y-91720000D01*
X206590000Y-81870000D02*
X206590000Y-84530000D01*
X211730000Y-81870000D02*
X206590000Y-81870000D01*
X211730000Y-84530000D02*
X206590000Y-84530000D01*
X211730000Y-81870000D02*
X211730000Y-84530000D01*
X213000000Y-81870000D02*
X214330000Y-81870000D01*
X214330000Y-81870000D02*
X214330000Y-83200000D01*
X185510000Y-102738748D02*
X185510000Y-103261252D01*
X184090000Y-102738748D02*
X184090000Y-103261252D01*
X181290000Y-102738748D02*
X181290000Y-103261252D01*
X182710000Y-102738748D02*
X182710000Y-103261252D01*
D11*
X176364285Y-103226190D02*
X176078571Y-103226190D01*
X176221428Y-103226190D02*
X176221428Y-102726190D01*
X176173809Y-102797619D01*
X176126190Y-102845238D01*
X176078571Y-102869047D01*
X176673809Y-102726190D02*
X176721428Y-102726190D01*
X176769047Y-102750000D01*
X176792857Y-102773809D01*
X176816666Y-102821428D01*
X176840476Y-102916666D01*
X176840476Y-103035714D01*
X176816666Y-103130952D01*
X176792857Y-103178571D01*
X176769047Y-103202380D01*
X176721428Y-103226190D01*
X176673809Y-103226190D01*
X176626190Y-103202380D01*
X176602380Y-103178571D01*
X176578571Y-103130952D01*
X176554761Y-103035714D01*
X176554761Y-102916666D01*
X176578571Y-102821428D01*
X176602380Y-102773809D01*
X176626190Y-102750000D01*
X176673809Y-102726190D01*
X177269047Y-102892857D02*
X177269047Y-103226190D01*
X177054761Y-102892857D02*
X177054761Y-103154761D01*
X177078571Y-103202380D01*
X177126190Y-103226190D01*
X177197619Y-103226190D01*
X177245238Y-103202380D01*
X177269047Y-103178571D01*
X177673809Y-102964285D02*
X177507142Y-102964285D01*
X177507142Y-103226190D02*
X177507142Y-102726190D01*
X177745238Y-102726190D01*
X194226190Y-108971428D02*
X194226190Y-109257142D01*
X194226190Y-109114285D02*
X193726190Y-109114285D01*
X193797619Y-109161904D01*
X193845238Y-109209523D01*
X193869047Y-109257142D01*
X194226190Y-108757142D02*
X193726190Y-108757142D01*
X194226190Y-108471428D01*
X193726190Y-108471428D01*
X193726190Y-107995238D02*
X193726190Y-108233333D01*
X193964285Y-108257142D01*
X193940476Y-108233333D01*
X193916666Y-108185714D01*
X193916666Y-108066666D01*
X193940476Y-108019047D01*
X193964285Y-107995238D01*
X194011904Y-107971428D01*
X194130952Y-107971428D01*
X194178571Y-107995238D01*
X194202380Y-108019047D01*
X194226190Y-108066666D01*
X194226190Y-108185714D01*
X194202380Y-108233333D01*
X194178571Y-108257142D01*
X193940476Y-107685714D02*
X193916666Y-107733333D01*
X193892857Y-107757142D01*
X193845238Y-107780952D01*
X193821428Y-107780952D01*
X193773809Y-107757142D01*
X193750000Y-107733333D01*
X193726190Y-107685714D01*
X193726190Y-107590476D01*
X193750000Y-107542857D01*
X193773809Y-107519047D01*
X193821428Y-107495238D01*
X193845238Y-107495238D01*
X193892857Y-107519047D01*
X193916666Y-107542857D01*
X193940476Y-107590476D01*
X193940476Y-107685714D01*
X193964285Y-107733333D01*
X193988095Y-107757142D01*
X194035714Y-107780952D01*
X194130952Y-107780952D01*
X194178571Y-107757142D01*
X194202380Y-107733333D01*
X194226190Y-107685714D01*
X194226190Y-107590476D01*
X194202380Y-107542857D01*
X194178571Y-107519047D01*
X194130952Y-107495238D01*
X194035714Y-107495238D01*
X193988095Y-107519047D01*
X193964285Y-107542857D01*
X193940476Y-107590476D01*
X194226190Y-107019047D02*
X194226190Y-107304761D01*
X194226190Y-107161904D02*
X193726190Y-107161904D01*
X193797619Y-107209523D01*
X193845238Y-107257142D01*
X193869047Y-107304761D01*
X194226190Y-106780952D02*
X194226190Y-106685714D01*
X194202380Y-106638095D01*
X194178571Y-106614285D01*
X194107142Y-106566666D01*
X194011904Y-106542857D01*
X193821428Y-106542857D01*
X193773809Y-106566666D01*
X193750000Y-106590476D01*
X193726190Y-106638095D01*
X193726190Y-106733333D01*
X193750000Y-106780952D01*
X193773809Y-106804761D01*
X193821428Y-106828571D01*
X193940476Y-106828571D01*
X193988095Y-106804761D01*
X194011904Y-106780952D01*
X194035714Y-106733333D01*
X194035714Y-106638095D01*
X194011904Y-106590476D01*
X193988095Y-106566666D01*
X193940476Y-106542857D01*
X190154761Y-120526190D02*
X190154761Y-120930952D01*
X190178571Y-120978571D01*
X190202380Y-121002380D01*
X190250000Y-121026190D01*
X190345238Y-121026190D01*
X190392857Y-121002380D01*
X190416666Y-120978571D01*
X190440476Y-120930952D01*
X190440476Y-120526190D01*
X190654761Y-121002380D02*
X190726190Y-121026190D01*
X190845238Y-121026190D01*
X190892857Y-121002380D01*
X190916666Y-120978571D01*
X190940476Y-120930952D01*
X190940476Y-120883333D01*
X190916666Y-120835714D01*
X190892857Y-120811904D01*
X190845238Y-120788095D01*
X190750000Y-120764285D01*
X190702380Y-120740476D01*
X190678571Y-120716666D01*
X190654761Y-120669047D01*
X190654761Y-120621428D01*
X190678571Y-120573809D01*
X190702380Y-120550000D01*
X190750000Y-120526190D01*
X190869047Y-120526190D01*
X190940476Y-120550000D01*
X191321428Y-120764285D02*
X191392857Y-120788095D01*
X191416666Y-120811904D01*
X191440476Y-120859523D01*
X191440476Y-120930952D01*
X191416666Y-120978571D01*
X191392857Y-121002380D01*
X191345238Y-121026190D01*
X191154761Y-121026190D01*
X191154761Y-120526190D01*
X191321428Y-120526190D01*
X191369047Y-120550000D01*
X191392857Y-120573809D01*
X191416666Y-120621428D01*
X191416666Y-120669047D01*
X191392857Y-120716666D01*
X191369047Y-120740476D01*
X191321428Y-120764285D01*
X191154761Y-120764285D01*
X191535714Y-121073809D02*
X191916666Y-121073809D01*
X192321428Y-120978571D02*
X192297619Y-121002380D01*
X192226190Y-121026190D01*
X192178571Y-121026190D01*
X192107142Y-121002380D01*
X192059523Y-120954761D01*
X192035714Y-120907142D01*
X192011904Y-120811904D01*
X192011904Y-120740476D01*
X192035714Y-120645238D01*
X192059523Y-120597619D01*
X192107142Y-120550000D01*
X192178571Y-120526190D01*
X192226190Y-120526190D01*
X192297619Y-120550000D01*
X192321428Y-120573809D01*
X192416666Y-121073809D02*
X192797619Y-121073809D01*
X193202380Y-121026190D02*
X193035714Y-120788095D01*
X192916666Y-121026190D02*
X192916666Y-120526190D01*
X193107142Y-120526190D01*
X193154761Y-120550000D01*
X193178571Y-120573809D01*
X193202380Y-120621428D01*
X193202380Y-120692857D01*
X193178571Y-120740476D01*
X193154761Y-120764285D01*
X193107142Y-120788095D01*
X192916666Y-120788095D01*
X193607142Y-121002380D02*
X193559523Y-121026190D01*
X193464285Y-121026190D01*
X193416666Y-121002380D01*
X193392857Y-120954761D01*
X193392857Y-120764285D01*
X193416666Y-120716666D01*
X193464285Y-120692857D01*
X193559523Y-120692857D01*
X193607142Y-120716666D01*
X193630952Y-120764285D01*
X193630952Y-120811904D01*
X193392857Y-120859523D01*
X194059523Y-121002380D02*
X194011904Y-121026190D01*
X193916666Y-121026190D01*
X193869047Y-121002380D01*
X193845238Y-120978571D01*
X193821428Y-120930952D01*
X193821428Y-120788095D01*
X193845238Y-120740476D01*
X193869047Y-120716666D01*
X193916666Y-120692857D01*
X194011904Y-120692857D01*
X194059523Y-120716666D01*
X194464285Y-121002380D02*
X194416666Y-121026190D01*
X194321428Y-121026190D01*
X194273809Y-121002380D01*
X194250000Y-120954761D01*
X194250000Y-120764285D01*
X194273809Y-120716666D01*
X194321428Y-120692857D01*
X194416666Y-120692857D01*
X194464285Y-120716666D01*
X194488095Y-120764285D01*
X194488095Y-120811904D01*
X194250000Y-120859523D01*
X194702380Y-120692857D02*
X194702380Y-121192857D01*
X194702380Y-120716666D02*
X194750000Y-120692857D01*
X194845238Y-120692857D01*
X194892857Y-120716666D01*
X194916666Y-120740476D01*
X194940476Y-120788095D01*
X194940476Y-120930952D01*
X194916666Y-120978571D01*
X194892857Y-121002380D01*
X194845238Y-121026190D01*
X194750000Y-121026190D01*
X194702380Y-121002380D01*
X195083333Y-120692857D02*
X195273809Y-120692857D01*
X195154761Y-120526190D02*
X195154761Y-120954761D01*
X195178571Y-121002380D01*
X195226190Y-121026190D01*
X195273809Y-121026190D01*
X195654761Y-121026190D02*
X195654761Y-120764285D01*
X195630952Y-120716666D01*
X195583333Y-120692857D01*
X195488095Y-120692857D01*
X195440476Y-120716666D01*
X195654761Y-121002380D02*
X195607142Y-121026190D01*
X195488095Y-121026190D01*
X195440476Y-121002380D01*
X195416666Y-120954761D01*
X195416666Y-120907142D01*
X195440476Y-120859523D01*
X195488095Y-120835714D01*
X195607142Y-120835714D01*
X195654761Y-120811904D01*
X196107142Y-121002380D02*
X196059523Y-121026190D01*
X195964285Y-121026190D01*
X195916666Y-121002380D01*
X195892857Y-120978571D01*
X195869047Y-120930952D01*
X195869047Y-120788095D01*
X195892857Y-120740476D01*
X195916666Y-120716666D01*
X195964285Y-120692857D01*
X196059523Y-120692857D01*
X196107142Y-120716666D01*
X196392857Y-121026190D02*
X196345238Y-121002380D01*
X196321428Y-120954761D01*
X196321428Y-120526190D01*
X196773809Y-121002380D02*
X196726190Y-121026190D01*
X196630952Y-121026190D01*
X196583333Y-121002380D01*
X196559523Y-120954761D01*
X196559523Y-120764285D01*
X196583333Y-120716666D01*
X196630952Y-120692857D01*
X196726190Y-120692857D01*
X196773809Y-120716666D01*
X196797619Y-120764285D01*
X196797619Y-120811904D01*
X196559523Y-120859523D01*
X196892857Y-121073809D02*
X197273809Y-121073809D01*
X197392857Y-120526190D02*
X197392857Y-120930952D01*
X197416666Y-120978571D01*
X197440476Y-121002380D01*
X197488095Y-121026190D01*
X197583333Y-121026190D01*
X197630952Y-121002380D01*
X197654761Y-120978571D01*
X197678571Y-120930952D01*
X197678571Y-120526190D01*
X197892857Y-121002380D02*
X197964285Y-121026190D01*
X198083333Y-121026190D01*
X198130952Y-121002380D01*
X198154761Y-120978571D01*
X198178571Y-120930952D01*
X198178571Y-120883333D01*
X198154761Y-120835714D01*
X198130952Y-120811904D01*
X198083333Y-120788095D01*
X197988095Y-120764285D01*
X197940476Y-120740476D01*
X197916666Y-120716666D01*
X197892857Y-120669047D01*
X197892857Y-120621428D01*
X197916666Y-120573809D01*
X197940476Y-120550000D01*
X197988095Y-120526190D01*
X198107142Y-120526190D01*
X198178571Y-120550000D01*
X198559523Y-120764285D02*
X198630952Y-120788095D01*
X198654761Y-120811904D01*
X198678571Y-120859523D01*
X198678571Y-120930952D01*
X198654761Y-120978571D01*
X198630952Y-121002380D01*
X198583333Y-121026190D01*
X198392857Y-121026190D01*
X198392857Y-120526190D01*
X198559523Y-120526190D01*
X198607142Y-120550000D01*
X198630952Y-120573809D01*
X198654761Y-120621428D01*
X198654761Y-120669047D01*
X198630952Y-120716666D01*
X198607142Y-120740476D01*
X198559523Y-120764285D01*
X198392857Y-120764285D01*
X198869047Y-120573809D02*
X198892857Y-120550000D01*
X198940476Y-120526190D01*
X199059523Y-120526190D01*
X199107142Y-120550000D01*
X199130952Y-120573809D01*
X199154761Y-120621428D01*
X199154761Y-120669047D01*
X199130952Y-120740476D01*
X198845238Y-121026190D01*
X199154761Y-121026190D01*
X199369047Y-120978571D02*
X199392857Y-121002380D01*
X199369047Y-121026190D01*
X199345238Y-121002380D01*
X199369047Y-120978571D01*
X199369047Y-121026190D01*
X199702380Y-120526190D02*
X199750000Y-120526190D01*
X199797619Y-120550000D01*
X199821428Y-120573809D01*
X199845238Y-120621428D01*
X199869047Y-120716666D01*
X199869047Y-120835714D01*
X199845238Y-120930952D01*
X199821428Y-120978571D01*
X199797619Y-121002380D01*
X199750000Y-121026190D01*
X199702380Y-121026190D01*
X199654761Y-121002380D01*
X199630952Y-120978571D01*
X199607142Y-120930952D01*
X199583333Y-120835714D01*
X199583333Y-120716666D01*
X199607142Y-120621428D01*
X199630952Y-120573809D01*
X199654761Y-120550000D01*
X199702380Y-120526190D01*
X185376190Y-100535714D02*
X185376190Y-100821428D01*
X185376190Y-100678571D02*
X184876190Y-100678571D01*
X184947619Y-100726190D01*
X184995238Y-100773809D01*
X185019047Y-100821428D01*
X184876190Y-100226190D02*
X184876190Y-100178571D01*
X184900000Y-100130952D01*
X184923809Y-100107142D01*
X184971428Y-100083333D01*
X185066666Y-100059523D01*
X185185714Y-100059523D01*
X185280952Y-100083333D01*
X185328571Y-100107142D01*
X185352380Y-100130952D01*
X185376190Y-100178571D01*
X185376190Y-100226190D01*
X185352380Y-100273809D01*
X185328571Y-100297619D01*
X185280952Y-100321428D01*
X185185714Y-100345238D01*
X185066666Y-100345238D01*
X184971428Y-100321428D01*
X184923809Y-100297619D01*
X184900000Y-100273809D01*
X184876190Y-100226190D01*
X185042857Y-99630952D02*
X185376190Y-99630952D01*
X185042857Y-99845238D02*
X185304761Y-99845238D01*
X185352380Y-99821428D01*
X185376190Y-99773809D01*
X185376190Y-99702380D01*
X185352380Y-99654761D01*
X185328571Y-99630952D01*
X185114285Y-99226190D02*
X185114285Y-99392857D01*
X185376190Y-99392857D02*
X184876190Y-99392857D01*
X184876190Y-99154761D01*
X209876190Y-103871428D02*
X209876190Y-103823809D01*
X209900000Y-103776190D01*
X209923809Y-103752380D01*
X209971428Y-103728571D01*
X210066666Y-103704761D01*
X210185714Y-103704761D01*
X210280952Y-103728571D01*
X210328571Y-103752380D01*
X210352380Y-103776190D01*
X210376190Y-103823809D01*
X210376190Y-103871428D01*
X210352380Y-103919047D01*
X210328571Y-103942857D01*
X210280952Y-103966666D01*
X210185714Y-103990476D01*
X210066666Y-103990476D01*
X209971428Y-103966666D01*
X209923809Y-103942857D01*
X209900000Y-103919047D01*
X209876190Y-103871428D01*
X210328571Y-103490476D02*
X210352380Y-103466666D01*
X210376190Y-103490476D01*
X210352380Y-103514285D01*
X210328571Y-103490476D01*
X210376190Y-103490476D01*
X210376190Y-102990476D02*
X210376190Y-103276190D01*
X210376190Y-103133333D02*
X209876190Y-103133333D01*
X209947619Y-103180952D01*
X209995238Y-103228571D01*
X210019047Y-103276190D01*
X210042857Y-102561904D02*
X210376190Y-102561904D01*
X210042857Y-102776190D02*
X210304761Y-102776190D01*
X210352380Y-102752380D01*
X210376190Y-102704761D01*
X210376190Y-102633333D01*
X210352380Y-102585714D01*
X210328571Y-102561904D01*
X210114285Y-102157142D02*
X210114285Y-102323809D01*
X210376190Y-102323809D02*
X209876190Y-102323809D01*
X209876190Y-102085714D01*
X215692857Y-107433333D02*
X216026190Y-107433333D01*
X215502380Y-107552380D02*
X215859523Y-107671428D01*
X215859523Y-107361904D01*
X215526190Y-107219047D02*
X215526190Y-106885714D01*
X216026190Y-107100000D01*
X215692857Y-106695238D02*
X216192857Y-106695238D01*
X215716666Y-106695238D02*
X215692857Y-106647619D01*
X215692857Y-106552380D01*
X215716666Y-106504761D01*
X215740476Y-106480952D01*
X215788095Y-106457142D01*
X215930952Y-106457142D01*
X215978571Y-106480952D01*
X216002380Y-106504761D01*
X216026190Y-106552380D01*
X216026190Y-106647619D01*
X216002380Y-106695238D01*
X215764285Y-106076190D02*
X215764285Y-106242857D01*
X216026190Y-106242857D02*
X215526190Y-106242857D01*
X215526190Y-106004761D01*
X202626190Y-108030952D02*
X202126190Y-108030952D01*
X202126190Y-107911904D01*
X202150000Y-107840476D01*
X202197619Y-107792857D01*
X202245238Y-107769047D01*
X202340476Y-107745238D01*
X202411904Y-107745238D01*
X202507142Y-107769047D01*
X202554761Y-107792857D01*
X202602380Y-107840476D01*
X202626190Y-107911904D01*
X202626190Y-108030952D01*
X208788095Y-109476190D02*
X208788095Y-108976190D01*
X208954761Y-109333333D01*
X209121428Y-108976190D01*
X209121428Y-109476190D01*
X209359523Y-109476190D02*
X209359523Y-108976190D01*
X209526190Y-109333333D01*
X209692857Y-108976190D01*
X209692857Y-109476190D01*
X210097619Y-109214285D02*
X210169047Y-109238095D01*
X210192857Y-109261904D01*
X210216666Y-109309523D01*
X210216666Y-109380952D01*
X210192857Y-109428571D01*
X210169047Y-109452380D01*
X210121428Y-109476190D01*
X209930952Y-109476190D01*
X209930952Y-108976190D01*
X210097619Y-108976190D01*
X210145238Y-109000000D01*
X210169047Y-109023809D01*
X210192857Y-109071428D01*
X210192857Y-109119047D01*
X210169047Y-109166666D01*
X210145238Y-109190476D01*
X210097619Y-109214285D01*
X209930952Y-109214285D01*
X210383333Y-108976190D02*
X210716666Y-108976190D01*
X210383333Y-109476190D01*
X210716666Y-109476190D01*
X211169047Y-109476190D02*
X210883333Y-109476190D01*
X211026190Y-109476190D02*
X211026190Y-108976190D01*
X210978571Y-109047619D01*
X210930952Y-109095238D01*
X210883333Y-109119047D01*
X211621428Y-108976190D02*
X211383333Y-108976190D01*
X211359523Y-109214285D01*
X211383333Y-109190476D01*
X211430952Y-109166666D01*
X211550000Y-109166666D01*
X211597619Y-109190476D01*
X211621428Y-109214285D01*
X211645238Y-109261904D01*
X211645238Y-109380952D01*
X211621428Y-109428571D01*
X211597619Y-109452380D01*
X211550000Y-109476190D01*
X211430952Y-109476190D01*
X211383333Y-109452380D01*
X211359523Y-109428571D01*
X211788095Y-108976190D02*
X211954761Y-109476190D01*
X212121428Y-108976190D01*
X212288095Y-109476190D02*
X212288095Y-108976190D01*
X212407142Y-108976190D01*
X212478571Y-109000000D01*
X212526190Y-109047619D01*
X212550000Y-109095238D01*
X212573809Y-109190476D01*
X212573809Y-109261904D01*
X212550000Y-109357142D01*
X212526190Y-109404761D01*
X212478571Y-109452380D01*
X212407142Y-109476190D01*
X212288095Y-109476190D01*
X213026190Y-109476190D02*
X212788095Y-109476190D01*
X212788095Y-108976190D01*
X213121428Y-108976190D02*
X213407142Y-108976190D01*
X213264285Y-109476190D02*
X213264285Y-108976190D01*
X213835714Y-109476190D02*
X213550000Y-109476190D01*
X213692857Y-109476190D02*
X213692857Y-108976190D01*
X213645238Y-109047619D01*
X213597619Y-109095238D01*
X213550000Y-109119047D01*
X181716666Y-120226190D02*
X181430952Y-120226190D01*
X181573809Y-120226190D02*
X181573809Y-119726190D01*
X181526190Y-119797619D01*
X181478571Y-119845238D01*
X181430952Y-119869047D01*
X181907142Y-119773809D02*
X181930952Y-119750000D01*
X181978571Y-119726190D01*
X182097619Y-119726190D01*
X182145238Y-119750000D01*
X182169047Y-119773809D01*
X182192857Y-119821428D01*
X182192857Y-119869047D01*
X182169047Y-119940476D01*
X181883333Y-120226190D01*
X182192857Y-120226190D01*
X182335714Y-119726190D02*
X182502380Y-120226190D01*
X182669047Y-119726190D01*
X183216666Y-120226190D02*
X183216666Y-119726190D01*
X183454761Y-120226190D02*
X183454761Y-119726190D01*
X183740476Y-120226190D01*
X183740476Y-119726190D01*
X183978571Y-120226190D02*
X183978571Y-119726190D01*
X184169047Y-119726190D01*
X184216666Y-119750000D01*
X184240476Y-119773809D01*
X184264285Y-119821428D01*
X184264285Y-119892857D01*
X184240476Y-119940476D01*
X184216666Y-119964285D01*
X184169047Y-119988095D01*
X183978571Y-119988095D01*
X184478571Y-119726190D02*
X184478571Y-120130952D01*
X184502380Y-120178571D01*
X184526190Y-120202380D01*
X184573809Y-120226190D01*
X184669047Y-120226190D01*
X184716666Y-120202380D01*
X184740476Y-120178571D01*
X184764285Y-120130952D01*
X184764285Y-119726190D01*
X184930952Y-119726190D02*
X185216666Y-119726190D01*
X185073809Y-120226190D02*
X185073809Y-119726190D01*
X205440476Y-120226190D02*
X205440476Y-119726190D01*
X205678571Y-120035714D02*
X206059523Y-120035714D01*
X206464285Y-119964285D02*
X206535714Y-119988095D01*
X206559523Y-120011904D01*
X206583333Y-120059523D01*
X206583333Y-120130952D01*
X206559523Y-120178571D01*
X206535714Y-120202380D01*
X206488095Y-120226190D01*
X206297619Y-120226190D01*
X206297619Y-119726190D01*
X206464285Y-119726190D01*
X206511904Y-119750000D01*
X206535714Y-119773809D01*
X206559523Y-119821428D01*
X206559523Y-119869047D01*
X206535714Y-119916666D01*
X206511904Y-119940476D01*
X206464285Y-119964285D01*
X206297619Y-119964285D01*
X206797619Y-119726190D02*
X206797619Y-120130952D01*
X206821428Y-120178571D01*
X206845238Y-120202380D01*
X206892857Y-120226190D01*
X206988095Y-120226190D01*
X207035714Y-120202380D01*
X207059523Y-120178571D01*
X207083333Y-120130952D01*
X207083333Y-119726190D01*
X207297619Y-120202380D02*
X207369047Y-120226190D01*
X207488095Y-120226190D01*
X207535714Y-120202380D01*
X207559523Y-120178571D01*
X207583333Y-120130952D01*
X207583333Y-120083333D01*
X207559523Y-120035714D01*
X207535714Y-120011904D01*
X207488095Y-119988095D01*
X207392857Y-119964285D01*
X207345238Y-119940476D01*
X207321428Y-119916666D01*
X207297619Y-119869047D01*
X207297619Y-119821428D01*
X207321428Y-119773809D01*
X207345238Y-119750000D01*
X207392857Y-119726190D01*
X207511904Y-119726190D01*
X207583333Y-119750000D01*
X212942857Y-103680952D02*
X213276190Y-103680952D01*
X212752380Y-103800000D02*
X213109523Y-103919047D01*
X213109523Y-103609523D01*
X212776190Y-103466666D02*
X212776190Y-103133333D01*
X213276190Y-103347619D01*
X212942857Y-102728571D02*
X213276190Y-102728571D01*
X212942857Y-102942857D02*
X213204761Y-102942857D01*
X213252380Y-102919047D01*
X213276190Y-102871428D01*
X213276190Y-102800000D01*
X213252380Y-102752380D01*
X213228571Y-102728571D01*
X213276190Y-102490476D02*
X212776190Y-102490476D01*
X213014285Y-102490476D02*
X213014285Y-102204761D01*
X213276190Y-102204761D02*
X212776190Y-102204761D01*
X213276190Y-99397619D02*
X213276190Y-99683333D01*
X213276190Y-99540476D02*
X212776190Y-99540476D01*
X212847619Y-99588095D01*
X212895238Y-99635714D01*
X212919047Y-99683333D01*
X212776190Y-99088095D02*
X212776190Y-99040476D01*
X212800000Y-98992857D01*
X212823809Y-98969047D01*
X212871428Y-98945238D01*
X212966666Y-98921428D01*
X213085714Y-98921428D01*
X213180952Y-98945238D01*
X213228571Y-98969047D01*
X213252380Y-98992857D01*
X213276190Y-99040476D01*
X213276190Y-99088095D01*
X213252380Y-99135714D01*
X213228571Y-99159523D01*
X213180952Y-99183333D01*
X213085714Y-99207142D01*
X212966666Y-99207142D01*
X212871428Y-99183333D01*
X212823809Y-99159523D01*
X212800000Y-99135714D01*
X212776190Y-99088095D01*
X213276190Y-98707142D02*
X212776190Y-98707142D01*
X213085714Y-98659523D02*
X213276190Y-98516666D01*
X212942857Y-98516666D02*
X213133333Y-98707142D01*
X209923809Y-99852380D02*
X209900000Y-99828571D01*
X209876190Y-99780952D01*
X209876190Y-99661904D01*
X209900000Y-99614285D01*
X209923809Y-99590476D01*
X209971428Y-99566666D01*
X210019047Y-99566666D01*
X210090476Y-99590476D01*
X210376190Y-99876190D01*
X210376190Y-99566666D01*
X210328571Y-99352380D02*
X210352380Y-99328571D01*
X210376190Y-99352380D01*
X210352380Y-99376190D01*
X210328571Y-99352380D01*
X210376190Y-99352380D01*
X209876190Y-99161904D02*
X209876190Y-98828571D01*
X210376190Y-99042857D01*
X210376190Y-98638095D02*
X209876190Y-98638095D01*
X210185714Y-98590476D02*
X210376190Y-98447619D01*
X210042857Y-98447619D02*
X210233333Y-98638095D01*
X206826190Y-108602380D02*
X206826190Y-108697619D01*
X206850000Y-108745238D01*
X206873809Y-108769047D01*
X206945238Y-108816666D01*
X207040476Y-108840476D01*
X207230952Y-108840476D01*
X207278571Y-108816666D01*
X207302380Y-108792857D01*
X207326190Y-108745238D01*
X207326190Y-108650000D01*
X207302380Y-108602380D01*
X207278571Y-108578571D01*
X207230952Y-108554761D01*
X207111904Y-108554761D01*
X207064285Y-108578571D01*
X207040476Y-108602380D01*
X207016666Y-108650000D01*
X207016666Y-108745238D01*
X207040476Y-108792857D01*
X207064285Y-108816666D01*
X207111904Y-108840476D01*
X207278571Y-108340476D02*
X207302380Y-108316666D01*
X207326190Y-108340476D01*
X207302380Y-108364285D01*
X207278571Y-108340476D01*
X207326190Y-108340476D01*
X206992857Y-107888095D02*
X207326190Y-107888095D01*
X206802380Y-108007142D02*
X207159523Y-108126190D01*
X207159523Y-107816666D01*
X207326190Y-107602380D02*
X207326190Y-107507142D01*
X207302380Y-107459523D01*
X207278571Y-107435714D01*
X207207142Y-107388095D01*
X207111904Y-107364285D01*
X206921428Y-107364285D01*
X206873809Y-107388095D01*
X206850000Y-107411904D01*
X206826190Y-107459523D01*
X206826190Y-107554761D01*
X206850000Y-107602380D01*
X206873809Y-107626190D01*
X206921428Y-107650000D01*
X207040476Y-107650000D01*
X207088095Y-107626190D01*
X207111904Y-107602380D01*
X207135714Y-107554761D01*
X207135714Y-107459523D01*
X207111904Y-107411904D01*
X207088095Y-107388095D01*
X207040476Y-107364285D01*
X207326190Y-107150000D02*
X206826190Y-107150000D01*
X207135714Y-107102380D02*
X207326190Y-106959523D01*
X206992857Y-106959523D02*
X207183333Y-107150000D01*
X216176190Y-103109523D02*
X216176190Y-103395238D01*
X216176190Y-103252380D02*
X215676190Y-103252380D01*
X215747619Y-103300000D01*
X215795238Y-103347619D01*
X215819047Y-103395238D01*
X216176190Y-102895238D02*
X215676190Y-102895238D01*
X215985714Y-102847619D02*
X216176190Y-102704761D01*
X215842857Y-102704761D02*
X216033333Y-102895238D01*
X184764285Y-97761904D02*
X184764285Y-97595238D01*
X185026190Y-97523809D02*
X185026190Y-97761904D01*
X184526190Y-97761904D01*
X184526190Y-97523809D01*
X185002380Y-97333333D02*
X185026190Y-97261904D01*
X185026190Y-97142857D01*
X185002380Y-97095238D01*
X184978571Y-97071428D01*
X184930952Y-97047619D01*
X184883333Y-97047619D01*
X184835714Y-97071428D01*
X184811904Y-97095238D01*
X184788095Y-97142857D01*
X184764285Y-97238095D01*
X184740476Y-97285714D01*
X184716666Y-97309523D01*
X184669047Y-97333333D01*
X184621428Y-97333333D01*
X184573809Y-97309523D01*
X184550000Y-97285714D01*
X184526190Y-97238095D01*
X184526190Y-97119047D01*
X184550000Y-97047619D01*
X185026190Y-96833333D02*
X184526190Y-96833333D01*
X184526190Y-96642857D01*
X184550000Y-96595238D01*
X184573809Y-96571428D01*
X184621428Y-96547619D01*
X184692857Y-96547619D01*
X184740476Y-96571428D01*
X184764285Y-96595238D01*
X184788095Y-96642857D01*
X184788095Y-96833333D01*
X184526190Y-96380952D02*
X184526190Y-96071428D01*
X184716666Y-96238095D01*
X184716666Y-96166666D01*
X184740476Y-96119047D01*
X184764285Y-96095238D01*
X184811904Y-96071428D01*
X184930952Y-96071428D01*
X184978571Y-96095238D01*
X185002380Y-96119047D01*
X185026190Y-96166666D01*
X185026190Y-96309523D01*
X185002380Y-96357142D01*
X184978571Y-96380952D01*
X184573809Y-95880952D02*
X184550000Y-95857142D01*
X184526190Y-95809523D01*
X184526190Y-95690476D01*
X184550000Y-95642857D01*
X184573809Y-95619047D01*
X184621428Y-95595238D01*
X184669047Y-95595238D01*
X184740476Y-95619047D01*
X185026190Y-95904761D01*
X185026190Y-95595238D01*
X184835714Y-95380952D02*
X184835714Y-95000000D01*
X184526190Y-94809523D02*
X185026190Y-94690476D01*
X184669047Y-94595238D01*
X185026190Y-94500000D01*
X184526190Y-94380952D01*
X185026190Y-93904761D02*
X184788095Y-94071428D01*
X185026190Y-94190476D02*
X184526190Y-94190476D01*
X184526190Y-94000000D01*
X184550000Y-93952380D01*
X184573809Y-93928571D01*
X184621428Y-93904761D01*
X184692857Y-93904761D01*
X184740476Y-93928571D01*
X184764285Y-93952380D01*
X184788095Y-94000000D01*
X184788095Y-94190476D01*
X184526190Y-93595238D02*
X184526190Y-93500000D01*
X184550000Y-93452380D01*
X184597619Y-93404761D01*
X184692857Y-93380952D01*
X184859523Y-93380952D01*
X184954761Y-93404761D01*
X185002380Y-93452380D01*
X185026190Y-93500000D01*
X185026190Y-93595238D01*
X185002380Y-93642857D01*
X184954761Y-93690476D01*
X184859523Y-93714285D01*
X184692857Y-93714285D01*
X184597619Y-93690476D01*
X184550000Y-93642857D01*
X184526190Y-93595238D01*
X184526190Y-93071428D02*
X184526190Y-92976190D01*
X184550000Y-92928571D01*
X184597619Y-92880952D01*
X184692857Y-92857142D01*
X184859523Y-92857142D01*
X184954761Y-92880952D01*
X185002380Y-92928571D01*
X185026190Y-92976190D01*
X185026190Y-93071428D01*
X185002380Y-93119047D01*
X184954761Y-93166666D01*
X184859523Y-93190476D01*
X184692857Y-93190476D01*
X184597619Y-93166666D01*
X184550000Y-93119047D01*
X184526190Y-93071428D01*
X185026190Y-92642857D02*
X184526190Y-92642857D01*
X184883333Y-92476190D01*
X184526190Y-92309523D01*
X185026190Y-92309523D01*
X184835714Y-92071428D02*
X184835714Y-91690476D01*
X184526190Y-91500000D02*
X184526190Y-91190476D01*
X184716666Y-91357142D01*
X184716666Y-91285714D01*
X184740476Y-91238095D01*
X184764285Y-91214285D01*
X184811904Y-91190476D01*
X184930952Y-91190476D01*
X184978571Y-91214285D01*
X185002380Y-91238095D01*
X185026190Y-91285714D01*
X185026190Y-91428571D01*
X185002380Y-91476190D01*
X184978571Y-91500000D01*
X184573809Y-91000000D02*
X184550000Y-90976190D01*
X184526190Y-90928571D01*
X184526190Y-90809523D01*
X184550000Y-90761904D01*
X184573809Y-90738095D01*
X184621428Y-90714285D01*
X184669047Y-90714285D01*
X184740476Y-90738095D01*
X185026190Y-91023809D01*
X185026190Y-90714285D01*
X185026190Y-90500000D02*
X184526190Y-90500000D01*
X184526190Y-90380952D01*
X184550000Y-90309523D01*
X184597619Y-90261904D01*
X184645238Y-90238095D01*
X184740476Y-90214285D01*
X184811904Y-90214285D01*
X184907142Y-90238095D01*
X184954761Y-90261904D01*
X185002380Y-90309523D01*
X185026190Y-90380952D01*
X185026190Y-90500000D01*
X198592857Y-99026190D02*
X198592857Y-98526190D01*
X198759523Y-98883333D01*
X198926190Y-98526190D01*
X198926190Y-99026190D01*
X199450000Y-98978571D02*
X199426190Y-99002380D01*
X199354761Y-99026190D01*
X199307142Y-99026190D01*
X199235714Y-99002380D01*
X199188095Y-98954761D01*
X199164285Y-98907142D01*
X199140476Y-98811904D01*
X199140476Y-98740476D01*
X199164285Y-98645238D01*
X199188095Y-98597619D01*
X199235714Y-98550000D01*
X199307142Y-98526190D01*
X199354761Y-98526190D01*
X199426190Y-98550000D01*
X199450000Y-98573809D01*
X199616666Y-98526190D02*
X199926190Y-98526190D01*
X199759523Y-98716666D01*
X199830952Y-98716666D01*
X199878571Y-98740476D01*
X199902380Y-98764285D01*
X199926190Y-98811904D01*
X199926190Y-98930952D01*
X199902380Y-98978571D01*
X199878571Y-99002380D01*
X199830952Y-99026190D01*
X199688095Y-99026190D01*
X199640476Y-99002380D01*
X199616666Y-98978571D01*
X200092857Y-98526190D02*
X200402380Y-98526190D01*
X200235714Y-98716666D01*
X200307142Y-98716666D01*
X200354761Y-98740476D01*
X200378571Y-98764285D01*
X200402380Y-98811904D01*
X200402380Y-98930952D01*
X200378571Y-98978571D01*
X200354761Y-99002380D01*
X200307142Y-99026190D01*
X200164285Y-99026190D01*
X200116666Y-99002380D01*
X200092857Y-98978571D01*
X200688095Y-98740476D02*
X200640476Y-98716666D01*
X200616666Y-98692857D01*
X200592857Y-98645238D01*
X200592857Y-98621428D01*
X200616666Y-98573809D01*
X200640476Y-98550000D01*
X200688095Y-98526190D01*
X200783333Y-98526190D01*
X200830952Y-98550000D01*
X200854761Y-98573809D01*
X200878571Y-98621428D01*
X200878571Y-98645238D01*
X200854761Y-98692857D01*
X200830952Y-98716666D01*
X200783333Y-98740476D01*
X200688095Y-98740476D01*
X200640476Y-98764285D01*
X200616666Y-98788095D01*
X200592857Y-98835714D01*
X200592857Y-98930952D01*
X200616666Y-98978571D01*
X200640476Y-99002380D01*
X200688095Y-99026190D01*
X200783333Y-99026190D01*
X200830952Y-99002380D01*
X200854761Y-98978571D01*
X200878571Y-98930952D01*
X200878571Y-98835714D01*
X200854761Y-98788095D01*
X200830952Y-98764285D01*
X200783333Y-98740476D01*
X201116666Y-99026190D02*
X201211904Y-99026190D01*
X201259523Y-99002380D01*
X201283333Y-98978571D01*
X201330952Y-98907142D01*
X201354761Y-98811904D01*
X201354761Y-98621428D01*
X201330952Y-98573809D01*
X201307142Y-98550000D01*
X201259523Y-98526190D01*
X201164285Y-98526190D01*
X201116666Y-98550000D01*
X201092857Y-98573809D01*
X201069047Y-98621428D01*
X201069047Y-98740476D01*
X201092857Y-98788095D01*
X201116666Y-98811904D01*
X201164285Y-98835714D01*
X201259523Y-98835714D01*
X201307142Y-98811904D01*
X201330952Y-98788095D01*
X201354761Y-98740476D01*
X201521428Y-98526190D02*
X201854761Y-98526190D01*
X201640476Y-99026190D01*
X187452380Y-98978571D02*
X187428571Y-99002380D01*
X187357142Y-99026190D01*
X187309523Y-99026190D01*
X187238095Y-99002380D01*
X187190476Y-98954761D01*
X187166666Y-98907142D01*
X187142857Y-98811904D01*
X187142857Y-98740476D01*
X187166666Y-98645238D01*
X187190476Y-98597619D01*
X187238095Y-98550000D01*
X187309523Y-98526190D01*
X187357142Y-98526190D01*
X187428571Y-98550000D01*
X187452380Y-98573809D01*
X187666666Y-99026190D02*
X187666666Y-98526190D01*
X187857142Y-98526190D01*
X187904761Y-98550000D01*
X187928571Y-98573809D01*
X187952380Y-98621428D01*
X187952380Y-98692857D01*
X187928571Y-98740476D01*
X187904761Y-98764285D01*
X187857142Y-98788095D01*
X187666666Y-98788095D01*
X188142857Y-98573809D02*
X188166666Y-98550000D01*
X188214285Y-98526190D01*
X188333333Y-98526190D01*
X188380952Y-98550000D01*
X188404761Y-98573809D01*
X188428571Y-98621428D01*
X188428571Y-98669047D01*
X188404761Y-98740476D01*
X188119047Y-99026190D01*
X188428571Y-99026190D01*
X188904761Y-99026190D02*
X188619047Y-99026190D01*
X188761904Y-99026190D02*
X188761904Y-98526190D01*
X188714285Y-98597619D01*
X188666666Y-98645238D01*
X188619047Y-98669047D01*
X189214285Y-98526190D02*
X189261904Y-98526190D01*
X189309523Y-98550000D01*
X189333333Y-98573809D01*
X189357142Y-98621428D01*
X189380952Y-98716666D01*
X189380952Y-98835714D01*
X189357142Y-98930952D01*
X189333333Y-98978571D01*
X189309523Y-99002380D01*
X189261904Y-99026190D01*
X189214285Y-99026190D01*
X189166666Y-99002380D01*
X189142857Y-98978571D01*
X189119047Y-98930952D01*
X189095238Y-98835714D01*
X189095238Y-98716666D01*
X189119047Y-98621428D01*
X189142857Y-98573809D01*
X189166666Y-98550000D01*
X189214285Y-98526190D01*
X189571428Y-98573809D02*
X189595238Y-98550000D01*
X189642857Y-98526190D01*
X189761904Y-98526190D01*
X189809523Y-98550000D01*
X189833333Y-98573809D01*
X189857142Y-98621428D01*
X189857142Y-98669047D01*
X189833333Y-98740476D01*
X189547619Y-99026190D01*
X189857142Y-99026190D01*
X181426190Y-87797619D02*
X181426190Y-88083333D01*
X181426190Y-87940476D02*
X180926190Y-87940476D01*
X180997619Y-87988095D01*
X181045238Y-88035714D01*
X181069047Y-88083333D01*
X181092857Y-87583333D02*
X181426190Y-87583333D01*
X181140476Y-87583333D02*
X181116666Y-87559523D01*
X181092857Y-87511904D01*
X181092857Y-87440476D01*
X181116666Y-87392857D01*
X181164285Y-87369047D01*
X181426190Y-87369047D01*
X181164285Y-86964285D02*
X181164285Y-87130952D01*
X181426190Y-87130952D02*
X180926190Y-87130952D01*
X180926190Y-86892857D01*
X174826190Y-84735714D02*
X174326190Y-84735714D01*
X174326190Y-84545238D01*
X174350000Y-84497619D01*
X174373809Y-84473809D01*
X174421428Y-84450000D01*
X174492857Y-84450000D01*
X174540476Y-84473809D01*
X174564285Y-84497619D01*
X174588095Y-84545238D01*
X174588095Y-84735714D01*
X174326190Y-84283333D02*
X174826190Y-84164285D01*
X174469047Y-84069047D01*
X174826190Y-83973809D01*
X174326190Y-83854761D01*
X174826190Y-83378571D02*
X174588095Y-83545238D01*
X174826190Y-83664285D02*
X174326190Y-83664285D01*
X174326190Y-83473809D01*
X174350000Y-83426190D01*
X174373809Y-83402380D01*
X174421428Y-83378571D01*
X174492857Y-83378571D01*
X174540476Y-83402380D01*
X174564285Y-83426190D01*
X174588095Y-83473809D01*
X174588095Y-83664285D01*
X174873809Y-83283333D02*
X174873809Y-82902380D01*
X174826190Y-82545238D02*
X174826190Y-82783333D01*
X174326190Y-82783333D01*
X174564285Y-82378571D02*
X174564285Y-82211904D01*
X174826190Y-82140476D02*
X174826190Y-82378571D01*
X174326190Y-82378571D01*
X174326190Y-82140476D01*
X174826190Y-81926190D02*
X174326190Y-81926190D01*
X174326190Y-81807142D01*
X174350000Y-81735714D01*
X174397619Y-81688095D01*
X174445238Y-81664285D01*
X174540476Y-81640476D01*
X174611904Y-81640476D01*
X174707142Y-81664285D01*
X174754761Y-81688095D01*
X174802380Y-81735714D01*
X174826190Y-81807142D01*
X174826190Y-81926190D01*
X178126190Y-87845238D02*
X178126190Y-88130952D01*
X178126190Y-87988095D02*
X177626190Y-87988095D01*
X177697619Y-88035714D01*
X177745238Y-88083333D01*
X177769047Y-88130952D01*
X177673809Y-87654761D02*
X177650000Y-87630952D01*
X177626190Y-87583333D01*
X177626190Y-87464285D01*
X177650000Y-87416666D01*
X177673809Y-87392857D01*
X177721428Y-87369047D01*
X177769047Y-87369047D01*
X177840476Y-87392857D01*
X178126190Y-87678571D01*
X178126190Y-87369047D01*
X178126190Y-87154761D02*
X177626190Y-87154761D01*
X178126190Y-86869047D02*
X177840476Y-87083333D01*
X177626190Y-86869047D02*
X177911904Y-87154761D01*
X177673809Y-83595238D02*
X177650000Y-83571428D01*
X177626190Y-83523809D01*
X177626190Y-83404761D01*
X177650000Y-83357142D01*
X177673809Y-83333333D01*
X177721428Y-83309523D01*
X177769047Y-83309523D01*
X177840476Y-83333333D01*
X178126190Y-83619047D01*
X178126190Y-83309523D01*
X178126190Y-83095238D02*
X177626190Y-83095238D01*
X177935714Y-83047619D02*
X178126190Y-82904761D01*
X177792857Y-82904761D02*
X177983333Y-83095238D01*
X215676190Y-99233333D02*
X215676190Y-99471428D01*
X215914285Y-99495238D01*
X215890476Y-99471428D01*
X215866666Y-99423809D01*
X215866666Y-99304761D01*
X215890476Y-99257142D01*
X215914285Y-99233333D01*
X215961904Y-99209523D01*
X216080952Y-99209523D01*
X216128571Y-99233333D01*
X216152380Y-99257142D01*
X216176190Y-99304761D01*
X216176190Y-99423809D01*
X216152380Y-99471428D01*
X216128571Y-99495238D01*
X216176190Y-98995238D02*
X215676190Y-98995238D01*
X215985714Y-98947619D02*
X216176190Y-98804761D01*
X215842857Y-98804761D02*
X216033333Y-98995238D01*
X205926190Y-94483333D02*
X205926190Y-94721428D01*
X206164285Y-94745238D01*
X206140476Y-94721428D01*
X206116666Y-94673809D01*
X206116666Y-94554761D01*
X206140476Y-94507142D01*
X206164285Y-94483333D01*
X206211904Y-94459523D01*
X206330952Y-94459523D01*
X206378571Y-94483333D01*
X206402380Y-94507142D01*
X206426190Y-94554761D01*
X206426190Y-94673809D01*
X206402380Y-94721428D01*
X206378571Y-94745238D01*
X206426190Y-94245238D02*
X205926190Y-94245238D01*
X206235714Y-94197619D02*
X206426190Y-94054761D01*
X206092857Y-94054761D02*
X206283333Y-94245238D01*
X206426190Y-92845238D02*
X206426190Y-93130952D01*
X206426190Y-92988095D02*
X205926190Y-92988095D01*
X205997619Y-93035714D01*
X206045238Y-93083333D01*
X206069047Y-93130952D01*
X205973809Y-92654761D02*
X205950000Y-92630952D01*
X205926190Y-92583333D01*
X205926190Y-92464285D01*
X205950000Y-92416666D01*
X205973809Y-92392857D01*
X206021428Y-92369047D01*
X206069047Y-92369047D01*
X206140476Y-92392857D01*
X206426190Y-92678571D01*
X206426190Y-92369047D01*
X206426190Y-92154761D02*
X205926190Y-92154761D01*
X206426190Y-91869047D02*
X206140476Y-92083333D01*
X205926190Y-91869047D02*
X206211904Y-92154761D01*
X216326190Y-90945238D02*
X216326190Y-91230952D01*
X216326190Y-91088095D02*
X215826190Y-91088095D01*
X215897619Y-91135714D01*
X215945238Y-91183333D01*
X215969047Y-91230952D01*
X215873809Y-90754761D02*
X215850000Y-90730952D01*
X215826190Y-90683333D01*
X215826190Y-90564285D01*
X215850000Y-90516666D01*
X215873809Y-90492857D01*
X215921428Y-90469047D01*
X215969047Y-90469047D01*
X216040476Y-90492857D01*
X216326190Y-90778571D01*
X216326190Y-90469047D01*
X216326190Y-90254761D02*
X215826190Y-90254761D01*
X216326190Y-89969047D02*
X216040476Y-90183333D01*
X215826190Y-89969047D02*
X216111904Y-90254761D01*
X190926190Y-106607142D02*
X190926190Y-106892857D01*
X190926190Y-106750000D02*
X190426190Y-106750000D01*
X190497619Y-106797619D01*
X190545238Y-106845238D01*
X190569047Y-106892857D01*
X190926190Y-106392857D02*
X190426190Y-106392857D01*
X190926190Y-106107142D02*
X190640476Y-106321428D01*
X190426190Y-106107142D02*
X190711904Y-106392857D01*
X196992857Y-100480952D02*
X197326190Y-100480952D01*
X196802380Y-100600000D02*
X197159523Y-100719047D01*
X197159523Y-100409523D01*
X196826190Y-100266666D02*
X196826190Y-99933333D01*
X197326190Y-100147619D01*
X196826190Y-99647619D02*
X196826190Y-99600000D01*
X196850000Y-99552380D01*
X196873809Y-99528571D01*
X196921428Y-99504761D01*
X197016666Y-99480952D01*
X197135714Y-99480952D01*
X197230952Y-99504761D01*
X197278571Y-99528571D01*
X197302380Y-99552380D01*
X197326190Y-99600000D01*
X197326190Y-99647619D01*
X197302380Y-99695238D01*
X197278571Y-99719047D01*
X197230952Y-99742857D01*
X197135714Y-99766666D01*
X197016666Y-99766666D01*
X196921428Y-99742857D01*
X196873809Y-99719047D01*
X196850000Y-99695238D01*
X196826190Y-99647619D01*
X175238095Y-109526190D02*
X175238095Y-109026190D01*
X175428571Y-109026190D01*
X175476190Y-109050000D01*
X175500000Y-109073809D01*
X175523809Y-109121428D01*
X175523809Y-109192857D01*
X175500000Y-109240476D01*
X175476190Y-109264285D01*
X175428571Y-109288095D01*
X175238095Y-109288095D01*
X175690476Y-109026190D02*
X175809523Y-109526190D01*
X175904761Y-109169047D01*
X176000000Y-109526190D01*
X176119047Y-109026190D01*
X176595238Y-109526190D02*
X176428571Y-109288095D01*
X176309523Y-109526190D02*
X176309523Y-109026190D01*
X176500000Y-109026190D01*
X176547619Y-109050000D01*
X176571428Y-109073809D01*
X176595238Y-109121428D01*
X176595238Y-109192857D01*
X176571428Y-109240476D01*
X176547619Y-109264285D01*
X176500000Y-109288095D01*
X176309523Y-109288095D01*
X177190476Y-109526190D02*
X177190476Y-109026190D01*
X177428571Y-109526190D02*
X177428571Y-109026190D01*
X177714285Y-109526190D01*
X177714285Y-109026190D01*
X178309523Y-109502380D02*
X178380952Y-109526190D01*
X178500000Y-109526190D01*
X178547619Y-109502380D01*
X178571428Y-109478571D01*
X178595238Y-109430952D01*
X178595238Y-109383333D01*
X178571428Y-109335714D01*
X178547619Y-109311904D01*
X178500000Y-109288095D01*
X178404761Y-109264285D01*
X178357142Y-109240476D01*
X178333333Y-109216666D01*
X178309523Y-109169047D01*
X178309523Y-109121428D01*
X178333333Y-109073809D01*
X178357142Y-109050000D01*
X178404761Y-109026190D01*
X178523809Y-109026190D01*
X178595238Y-109050000D01*
X178809523Y-109264285D02*
X178976190Y-109264285D01*
X179047619Y-109526190D02*
X178809523Y-109526190D01*
X178809523Y-109026190D01*
X179047619Y-109026190D01*
X179500000Y-109526190D02*
X179261904Y-109526190D01*
X179261904Y-109026190D01*
X179666666Y-109264285D02*
X179833333Y-109264285D01*
X179904761Y-109526190D02*
X179666666Y-109526190D01*
X179666666Y-109026190D01*
X179904761Y-109026190D01*
X180404761Y-109478571D02*
X180380952Y-109502380D01*
X180309523Y-109526190D01*
X180261904Y-109526190D01*
X180190476Y-109502380D01*
X180142857Y-109454761D01*
X180119047Y-109407142D01*
X180095238Y-109311904D01*
X180095238Y-109240476D01*
X180119047Y-109145238D01*
X180142857Y-109097619D01*
X180190476Y-109050000D01*
X180261904Y-109026190D01*
X180309523Y-109026190D01*
X180380952Y-109050000D01*
X180404761Y-109073809D01*
X180547619Y-109026190D02*
X180833333Y-109026190D01*
X180690476Y-109526190D02*
X180690476Y-109026190D01*
X173004761Y-96926190D02*
X173004761Y-96426190D01*
X173290476Y-96926190D01*
X173290476Y-96426190D01*
X173814285Y-96878571D02*
X173790476Y-96902380D01*
X173719047Y-96926190D01*
X173671428Y-96926190D01*
X173600000Y-96902380D01*
X173552380Y-96854761D01*
X173528571Y-96807142D01*
X173504761Y-96711904D01*
X173504761Y-96640476D01*
X173528571Y-96545238D01*
X173552380Y-96497619D01*
X173600000Y-96450000D01*
X173671428Y-96426190D01*
X173719047Y-96426190D01*
X173790476Y-96450000D01*
X173814285Y-96473809D01*
X174028571Y-96926190D02*
X174028571Y-96426190D01*
X174219047Y-96426190D01*
X174266666Y-96450000D01*
X174290476Y-96473809D01*
X174314285Y-96521428D01*
X174314285Y-96592857D01*
X174290476Y-96640476D01*
X174266666Y-96664285D01*
X174219047Y-96688095D01*
X174028571Y-96688095D01*
X174790476Y-96926190D02*
X174504761Y-96926190D01*
X174647619Y-96926190D02*
X174647619Y-96426190D01*
X174600000Y-96497619D01*
X174552380Y-96545238D01*
X174504761Y-96569047D01*
X175266666Y-96926190D02*
X174980952Y-96926190D01*
X175123809Y-96926190D02*
X175123809Y-96426190D01*
X175076190Y-96497619D01*
X175028571Y-96545238D01*
X174980952Y-96569047D01*
X175742857Y-96926190D02*
X175457142Y-96926190D01*
X175600000Y-96926190D02*
X175600000Y-96426190D01*
X175552380Y-96497619D01*
X175504761Y-96545238D01*
X175457142Y-96569047D01*
X175909523Y-96426190D02*
X176242857Y-96426190D01*
X176028571Y-96926190D01*
X176433333Y-96735714D02*
X176814285Y-96735714D01*
X177004761Y-96426190D02*
X177314285Y-96426190D01*
X177147619Y-96616666D01*
X177219047Y-96616666D01*
X177266666Y-96640476D01*
X177290476Y-96664285D01*
X177314285Y-96711904D01*
X177314285Y-96830952D01*
X177290476Y-96878571D01*
X177266666Y-96902380D01*
X177219047Y-96926190D01*
X177076190Y-96926190D01*
X177028571Y-96902380D01*
X177004761Y-96878571D01*
X177528571Y-96878571D02*
X177552380Y-96902380D01*
X177528571Y-96926190D01*
X177504761Y-96902380D01*
X177528571Y-96878571D01*
X177528571Y-96926190D01*
X177719047Y-96426190D02*
X178028571Y-96426190D01*
X177861904Y-96616666D01*
X177933333Y-96616666D01*
X177980952Y-96640476D01*
X178004761Y-96664285D01*
X178028571Y-96711904D01*
X178028571Y-96830952D01*
X178004761Y-96878571D01*
X177980952Y-96902380D01*
X177933333Y-96926190D01*
X177790476Y-96926190D01*
X177742857Y-96902380D01*
X177719047Y-96878571D01*
X178123809Y-96973809D02*
X178504761Y-96973809D01*
X178600000Y-96902380D02*
X178671428Y-96926190D01*
X178790476Y-96926190D01*
X178838095Y-96902380D01*
X178861904Y-96878571D01*
X178885714Y-96830952D01*
X178885714Y-96783333D01*
X178861904Y-96735714D01*
X178838095Y-96711904D01*
X178790476Y-96688095D01*
X178695238Y-96664285D01*
X178647619Y-96640476D01*
X178623809Y-96616666D01*
X178600000Y-96569047D01*
X178600000Y-96521428D01*
X178623809Y-96473809D01*
X178647619Y-96450000D01*
X178695238Y-96426190D01*
X178814285Y-96426190D01*
X178885714Y-96450000D01*
X179195238Y-96426190D02*
X179290476Y-96426190D01*
X179338095Y-96450000D01*
X179385714Y-96497619D01*
X179409523Y-96592857D01*
X179409523Y-96759523D01*
X179385714Y-96854761D01*
X179338095Y-96902380D01*
X179290476Y-96926190D01*
X179195238Y-96926190D01*
X179147619Y-96902380D01*
X179100000Y-96854761D01*
X179076190Y-96759523D01*
X179076190Y-96592857D01*
X179100000Y-96497619D01*
X179147619Y-96450000D01*
X179195238Y-96426190D01*
X179552380Y-96426190D02*
X179838095Y-96426190D01*
X179695238Y-96926190D02*
X179695238Y-96426190D01*
X179980952Y-96473809D02*
X180004761Y-96450000D01*
X180052380Y-96426190D01*
X180171428Y-96426190D01*
X180219047Y-96450000D01*
X180242857Y-96473809D01*
X180266666Y-96521428D01*
X180266666Y-96569047D01*
X180242857Y-96640476D01*
X179957142Y-96926190D01*
X180266666Y-96926190D01*
X180457142Y-96473809D02*
X180480952Y-96450000D01*
X180528571Y-96426190D01*
X180647619Y-96426190D01*
X180695238Y-96450000D01*
X180719047Y-96473809D01*
X180742857Y-96521428D01*
X180742857Y-96569047D01*
X180719047Y-96640476D01*
X180433333Y-96926190D01*
X180742857Y-96926190D01*
X180909523Y-96426190D02*
X181219047Y-96426190D01*
X181052380Y-96616666D01*
X181123809Y-96616666D01*
X181171428Y-96640476D01*
X181195238Y-96664285D01*
X181219047Y-96711904D01*
X181219047Y-96830952D01*
X181195238Y-96878571D01*
X181171428Y-96902380D01*
X181123809Y-96926190D01*
X180980952Y-96926190D01*
X180933333Y-96902380D01*
X180909523Y-96878571D01*
X181476190Y-83785714D02*
X181476190Y-84071428D01*
X181476190Y-83928571D02*
X180976190Y-83928571D01*
X181047619Y-83976190D01*
X181095238Y-84023809D01*
X181119047Y-84071428D01*
X180976190Y-83476190D02*
X180976190Y-83428571D01*
X181000000Y-83380952D01*
X181023809Y-83357142D01*
X181071428Y-83333333D01*
X181166666Y-83309523D01*
X181285714Y-83309523D01*
X181380952Y-83333333D01*
X181428571Y-83357142D01*
X181452380Y-83380952D01*
X181476190Y-83428571D01*
X181476190Y-83476190D01*
X181452380Y-83523809D01*
X181428571Y-83547619D01*
X181380952Y-83571428D01*
X181285714Y-83595238D01*
X181166666Y-83595238D01*
X181071428Y-83571428D01*
X181023809Y-83547619D01*
X181000000Y-83523809D01*
X180976190Y-83476190D01*
X181142857Y-82880952D02*
X181476190Y-82880952D01*
X181142857Y-83095238D02*
X181404761Y-83095238D01*
X181452380Y-83071428D01*
X181476190Y-83023809D01*
X181476190Y-82952380D01*
X181452380Y-82904761D01*
X181428571Y-82880952D01*
X181214285Y-82476190D02*
X181214285Y-82642857D01*
X181476190Y-82642857D02*
X180976190Y-82642857D01*
X180976190Y-82404761D01*
X195576190Y-103835714D02*
X195576190Y-104121428D01*
X195576190Y-103978571D02*
X195076190Y-103978571D01*
X195147619Y-104026190D01*
X195195238Y-104073809D01*
X195219047Y-104121428D01*
X195076190Y-103526190D02*
X195076190Y-103478571D01*
X195100000Y-103430952D01*
X195123809Y-103407142D01*
X195171428Y-103383333D01*
X195266666Y-103359523D01*
X195385714Y-103359523D01*
X195480952Y-103383333D01*
X195528571Y-103407142D01*
X195552380Y-103430952D01*
X195576190Y-103478571D01*
X195576190Y-103526190D01*
X195552380Y-103573809D01*
X195528571Y-103597619D01*
X195480952Y-103621428D01*
X195385714Y-103645238D01*
X195266666Y-103645238D01*
X195171428Y-103621428D01*
X195123809Y-103597619D01*
X195100000Y-103573809D01*
X195076190Y-103526190D01*
X195242857Y-102930952D02*
X195576190Y-102930952D01*
X195242857Y-103145238D02*
X195504761Y-103145238D01*
X195552380Y-103121428D01*
X195576190Y-103073809D01*
X195576190Y-103002380D01*
X195552380Y-102954761D01*
X195528571Y-102930952D01*
X195314285Y-102526190D02*
X195314285Y-102692857D01*
X195576190Y-102692857D02*
X195076190Y-102692857D01*
X195076190Y-102454761D01*
X197776190Y-106935714D02*
X197776190Y-107221428D01*
X197776190Y-107078571D02*
X197276190Y-107078571D01*
X197347619Y-107126190D01*
X197395238Y-107173809D01*
X197419047Y-107221428D01*
X197276190Y-106626190D02*
X197276190Y-106578571D01*
X197300000Y-106530952D01*
X197323809Y-106507142D01*
X197371428Y-106483333D01*
X197466666Y-106459523D01*
X197585714Y-106459523D01*
X197680952Y-106483333D01*
X197728571Y-106507142D01*
X197752380Y-106530952D01*
X197776190Y-106578571D01*
X197776190Y-106626190D01*
X197752380Y-106673809D01*
X197728571Y-106697619D01*
X197680952Y-106721428D01*
X197585714Y-106745238D01*
X197466666Y-106745238D01*
X197371428Y-106721428D01*
X197323809Y-106697619D01*
X197300000Y-106673809D01*
X197276190Y-106626190D01*
X197442857Y-106030952D02*
X197776190Y-106030952D01*
X197442857Y-106245238D02*
X197704761Y-106245238D01*
X197752380Y-106221428D01*
X197776190Y-106173809D01*
X197776190Y-106102380D01*
X197752380Y-106054761D01*
X197728571Y-106030952D01*
X197514285Y-105626190D02*
X197514285Y-105792857D01*
X197776190Y-105792857D02*
X197276190Y-105792857D01*
X197276190Y-105554761D01*
X206402380Y-90895238D02*
X206426190Y-90823809D01*
X206426190Y-90704761D01*
X206402380Y-90657142D01*
X206378571Y-90633333D01*
X206330952Y-90609523D01*
X206283333Y-90609523D01*
X206235714Y-90633333D01*
X206211904Y-90657142D01*
X206188095Y-90704761D01*
X206164285Y-90800000D01*
X206140476Y-90847619D01*
X206116666Y-90871428D01*
X206069047Y-90895238D01*
X206021428Y-90895238D01*
X205973809Y-90871428D01*
X205950000Y-90847619D01*
X205926190Y-90800000D01*
X205926190Y-90680952D01*
X205950000Y-90609523D01*
X206140476Y-90323809D02*
X206116666Y-90371428D01*
X206092857Y-90395238D01*
X206045238Y-90419047D01*
X206021428Y-90419047D01*
X205973809Y-90395238D01*
X205950000Y-90371428D01*
X205926190Y-90323809D01*
X205926190Y-90228571D01*
X205950000Y-90180952D01*
X205973809Y-90157142D01*
X206021428Y-90133333D01*
X206045238Y-90133333D01*
X206092857Y-90157142D01*
X206116666Y-90180952D01*
X206140476Y-90228571D01*
X206140476Y-90323809D01*
X206164285Y-90371428D01*
X206188095Y-90395238D01*
X206235714Y-90419047D01*
X206330952Y-90419047D01*
X206378571Y-90395238D01*
X206402380Y-90371428D01*
X206426190Y-90323809D01*
X206426190Y-90228571D01*
X206402380Y-90180952D01*
X206378571Y-90157142D01*
X206330952Y-90133333D01*
X206235714Y-90133333D01*
X206188095Y-90157142D01*
X206164285Y-90180952D01*
X206140476Y-90228571D01*
X205926190Y-89823809D02*
X205926190Y-89776190D01*
X205950000Y-89728571D01*
X205973809Y-89704761D01*
X206021428Y-89680952D01*
X206116666Y-89657142D01*
X206235714Y-89657142D01*
X206330952Y-89680952D01*
X206378571Y-89704761D01*
X206402380Y-89728571D01*
X206426190Y-89776190D01*
X206426190Y-89823809D01*
X206402380Y-89871428D01*
X206378571Y-89895238D01*
X206330952Y-89919047D01*
X206235714Y-89942857D01*
X206116666Y-89942857D01*
X206021428Y-89919047D01*
X205973809Y-89895238D01*
X205950000Y-89871428D01*
X205926190Y-89823809D01*
X205926190Y-89204761D02*
X205926190Y-89442857D01*
X206164285Y-89466666D01*
X206140476Y-89442857D01*
X206116666Y-89395238D01*
X206116666Y-89276190D01*
X206140476Y-89228571D01*
X206164285Y-89204761D01*
X206211904Y-89180952D01*
X206330952Y-89180952D01*
X206378571Y-89204761D01*
X206402380Y-89228571D01*
X206426190Y-89276190D01*
X206426190Y-89395238D01*
X206402380Y-89442857D01*
X206378571Y-89466666D01*
X205926190Y-88871428D02*
X205926190Y-88823809D01*
X205950000Y-88776190D01*
X205973809Y-88752380D01*
X206021428Y-88728571D01*
X206116666Y-88704761D01*
X206235714Y-88704761D01*
X206330952Y-88728571D01*
X206378571Y-88752380D01*
X206402380Y-88776190D01*
X206426190Y-88823809D01*
X206426190Y-88871428D01*
X206402380Y-88919047D01*
X206378571Y-88942857D01*
X206330952Y-88966666D01*
X206235714Y-88990476D01*
X206116666Y-88990476D01*
X206021428Y-88966666D01*
X205973809Y-88942857D01*
X205950000Y-88919047D01*
X205926190Y-88871428D01*
X216302380Y-94395238D02*
X216326190Y-94323809D01*
X216326190Y-94204761D01*
X216302380Y-94157142D01*
X216278571Y-94133333D01*
X216230952Y-94109523D01*
X216183333Y-94109523D01*
X216135714Y-94133333D01*
X216111904Y-94157142D01*
X216088095Y-94204761D01*
X216064285Y-94300000D01*
X216040476Y-94347619D01*
X216016666Y-94371428D01*
X215969047Y-94395238D01*
X215921428Y-94395238D01*
X215873809Y-94371428D01*
X215850000Y-94347619D01*
X215826190Y-94300000D01*
X215826190Y-94180952D01*
X215850000Y-94109523D01*
X216040476Y-93823809D02*
X216016666Y-93871428D01*
X215992857Y-93895238D01*
X215945238Y-93919047D01*
X215921428Y-93919047D01*
X215873809Y-93895238D01*
X215850000Y-93871428D01*
X215826190Y-93823809D01*
X215826190Y-93728571D01*
X215850000Y-93680952D01*
X215873809Y-93657142D01*
X215921428Y-93633333D01*
X215945238Y-93633333D01*
X215992857Y-93657142D01*
X216016666Y-93680952D01*
X216040476Y-93728571D01*
X216040476Y-93823809D01*
X216064285Y-93871428D01*
X216088095Y-93895238D01*
X216135714Y-93919047D01*
X216230952Y-93919047D01*
X216278571Y-93895238D01*
X216302380Y-93871428D01*
X216326190Y-93823809D01*
X216326190Y-93728571D01*
X216302380Y-93680952D01*
X216278571Y-93657142D01*
X216230952Y-93633333D01*
X216135714Y-93633333D01*
X216088095Y-93657142D01*
X216064285Y-93680952D01*
X216040476Y-93728571D01*
X215826190Y-93323809D02*
X215826190Y-93276190D01*
X215850000Y-93228571D01*
X215873809Y-93204761D01*
X215921428Y-93180952D01*
X216016666Y-93157142D01*
X216135714Y-93157142D01*
X216230952Y-93180952D01*
X216278571Y-93204761D01*
X216302380Y-93228571D01*
X216326190Y-93276190D01*
X216326190Y-93323809D01*
X216302380Y-93371428D01*
X216278571Y-93395238D01*
X216230952Y-93419047D01*
X216135714Y-93442857D01*
X216016666Y-93442857D01*
X215921428Y-93419047D01*
X215873809Y-93395238D01*
X215850000Y-93371428D01*
X215826190Y-93323809D01*
X215826190Y-92704761D02*
X215826190Y-92942857D01*
X216064285Y-92966666D01*
X216040476Y-92942857D01*
X216016666Y-92895238D01*
X216016666Y-92776190D01*
X216040476Y-92728571D01*
X216064285Y-92704761D01*
X216111904Y-92680952D01*
X216230952Y-92680952D01*
X216278571Y-92704761D01*
X216302380Y-92728571D01*
X216326190Y-92776190D01*
X216326190Y-92895238D01*
X216302380Y-92942857D01*
X216278571Y-92966666D01*
X215826190Y-92371428D02*
X215826190Y-92323809D01*
X215850000Y-92276190D01*
X215873809Y-92252380D01*
X215921428Y-92228571D01*
X216016666Y-92204761D01*
X216135714Y-92204761D01*
X216230952Y-92228571D01*
X216278571Y-92252380D01*
X216302380Y-92276190D01*
X216326190Y-92323809D01*
X216326190Y-92371428D01*
X216302380Y-92419047D01*
X216278571Y-92442857D01*
X216230952Y-92466666D01*
X216135714Y-92490476D01*
X216016666Y-92490476D01*
X215921428Y-92466666D01*
X215873809Y-92442857D01*
X215850000Y-92419047D01*
X215826190Y-92371428D01*
X210321428Y-85464285D02*
X210488095Y-85464285D01*
X210559523Y-85726190D02*
X210321428Y-85726190D01*
X210321428Y-85226190D01*
X210559523Y-85226190D01*
X210750000Y-85702380D02*
X210821428Y-85726190D01*
X210940476Y-85726190D01*
X210988095Y-85702380D01*
X211011904Y-85678571D01*
X211035714Y-85630952D01*
X211035714Y-85583333D01*
X211011904Y-85535714D01*
X210988095Y-85511904D01*
X210940476Y-85488095D01*
X210845238Y-85464285D01*
X210797619Y-85440476D01*
X210773809Y-85416666D01*
X210750000Y-85369047D01*
X210750000Y-85321428D01*
X210773809Y-85273809D01*
X210797619Y-85250000D01*
X210845238Y-85226190D01*
X210964285Y-85226190D01*
X211035714Y-85250000D01*
X211250000Y-85726190D02*
X211250000Y-85226190D01*
X211440476Y-85226190D01*
X211488095Y-85250000D01*
X211511904Y-85273809D01*
X211535714Y-85321428D01*
X211535714Y-85392857D01*
X211511904Y-85440476D01*
X211488095Y-85464285D01*
X211440476Y-85488095D01*
X211250000Y-85488095D01*
X211702380Y-85226190D02*
X212011904Y-85226190D01*
X211845238Y-85416666D01*
X211916666Y-85416666D01*
X211964285Y-85440476D01*
X211988095Y-85464285D01*
X212011904Y-85511904D01*
X212011904Y-85630952D01*
X211988095Y-85678571D01*
X211964285Y-85702380D01*
X211916666Y-85726190D01*
X211773809Y-85726190D01*
X211726190Y-85702380D01*
X211702380Y-85678571D01*
X212202380Y-85273809D02*
X212226190Y-85250000D01*
X212273809Y-85226190D01*
X212392857Y-85226190D01*
X212440476Y-85250000D01*
X212464285Y-85273809D01*
X212488095Y-85321428D01*
X212488095Y-85369047D01*
X212464285Y-85440476D01*
X212178571Y-85726190D01*
X212488095Y-85726190D01*
X213083333Y-85226190D02*
X213083333Y-85630952D01*
X213107142Y-85678571D01*
X213130952Y-85702380D01*
X213178571Y-85726190D01*
X213273809Y-85726190D01*
X213321428Y-85702380D01*
X213345238Y-85678571D01*
X213369047Y-85630952D01*
X213369047Y-85226190D01*
X213583333Y-85583333D02*
X213821428Y-85583333D01*
X213535714Y-85726190D02*
X213702380Y-85226190D01*
X213869047Y-85726190D01*
X214321428Y-85726190D02*
X214154761Y-85488095D01*
X214035714Y-85726190D02*
X214035714Y-85226190D01*
X214226190Y-85226190D01*
X214273809Y-85250000D01*
X214297619Y-85273809D01*
X214321428Y-85321428D01*
X214321428Y-85392857D01*
X214297619Y-85440476D01*
X214273809Y-85464285D01*
X214226190Y-85488095D01*
X214035714Y-85488095D01*
X214464285Y-85226190D02*
X214750000Y-85226190D01*
X214607142Y-85726190D02*
X214607142Y-85226190D01*
X185926190Y-103440476D02*
X185926190Y-103678571D01*
X186164285Y-103702380D01*
X186140476Y-103678571D01*
X186116666Y-103630952D01*
X186116666Y-103511904D01*
X186140476Y-103464285D01*
X186164285Y-103440476D01*
X186211904Y-103416666D01*
X186330952Y-103416666D01*
X186378571Y-103440476D01*
X186402380Y-103464285D01*
X186426190Y-103511904D01*
X186426190Y-103630952D01*
X186402380Y-103678571D01*
X186378571Y-103702380D01*
X186378571Y-103202380D02*
X186402380Y-103178571D01*
X186426190Y-103202380D01*
X186402380Y-103226190D01*
X186378571Y-103202380D01*
X186426190Y-103202380D01*
X186426190Y-102702380D02*
X186426190Y-102988095D01*
X186426190Y-102845238D02*
X185926190Y-102845238D01*
X185997619Y-102892857D01*
X186045238Y-102940476D01*
X186069047Y-102988095D01*
X186426190Y-102488095D02*
X185926190Y-102488095D01*
X186235714Y-102440476D02*
X186426190Y-102297619D01*
X186092857Y-102297619D02*
X186283333Y-102488095D01*
X183126190Y-103440476D02*
X183126190Y-103678571D01*
X183364285Y-103702380D01*
X183340476Y-103678571D01*
X183316666Y-103630952D01*
X183316666Y-103511904D01*
X183340476Y-103464285D01*
X183364285Y-103440476D01*
X183411904Y-103416666D01*
X183530952Y-103416666D01*
X183578571Y-103440476D01*
X183602380Y-103464285D01*
X183626190Y-103511904D01*
X183626190Y-103630952D01*
X183602380Y-103678571D01*
X183578571Y-103702380D01*
X183578571Y-103202380D02*
X183602380Y-103178571D01*
X183626190Y-103202380D01*
X183602380Y-103226190D01*
X183578571Y-103202380D01*
X183626190Y-103202380D01*
X183626190Y-102702380D02*
X183626190Y-102988095D01*
X183626190Y-102845238D02*
X183126190Y-102845238D01*
X183197619Y-102892857D01*
X183245238Y-102940476D01*
X183269047Y-102988095D01*
X183626190Y-102488095D02*
X183126190Y-102488095D01*
X183435714Y-102440476D02*
X183626190Y-102297619D01*
X183292857Y-102297619D02*
X183483333Y-102488095D01*
M02*
