M48
; DRILL file {KiCad 5.1.4-e60b266~84~ubuntu19.04.1} date Wed 26 Feb 2020 10:38:04 AEDT
; FORMAT={-:-/ absolute / inch / decimal}
; #@! TF.CreationDate,2020-02-26T10:38:04+11:00
; #@! TF.GenerationSoftware,Kicad,Pcbnew,5.1.4-e60b266~84~ubuntu19.04.1
FMAT,2
INCH
T1C0.0118
T2C0.0157
T3C0.0197
T4C0.0394
T5C0.0512
T6C0.0256
%
G90
G05
T1
X7.6483Y-4.4811
X7.6693Y-4.3189
X7.6772Y-4.4843
X7.6936Y-4.3108
T2
X7.3137Y-4.1354
X7.4384Y-3.8889
X7.5052Y-4.228
X7.5462Y-4.3487
X7.5874Y-3.9081
X7.76Y-3.9409
X7.7712Y-3.9892
X7.7832Y-3.8882
X7.9484Y-3.8772
X8.0668Y-3.8228
X8.0755Y-3.5241
X8.0783Y-3.8864
X8.0898Y-3.7199
X8.1428Y-3.8167
X8.1714Y-3.8986
X8.2717Y-3.1944
X8.2816Y-3.5751
T4
X6.9055Y-4.2126
X7.0055Y-4.2126
X7.1055Y-4.2126
X8.1858Y-3.2756
X8.2858Y-3.2756
X8.3858Y-3.2756
T5
X7.1161Y-4.5748
X7.3161Y-4.5748
X8.0315Y-4.5748
X8.2315Y-4.5748
T6
X7.5354Y-4.4051
T3
G00X7.5004Y-4.6768
M15
G01X7.5004Y-4.7004
M16
G05
G00X7.5146Y-4.4425
M15
G01X7.5146Y-4.4661
M16
G05
G00X7.8398Y-4.4425
M15
G01X7.8398Y-4.4661
M16
G05
G00X7.8539Y-4.6768
M15
G01X7.8539Y-4.7004
M16
G05
T6
G00X7.813Y-4.4051
M15
G01X7.8248Y-4.4051
M16
G05
T0
M30
