G04 #@! TF.GenerationSoftware,KiCad,Pcbnew,5.1.4-e60b266~84~ubuntu19.04.1*
G04 #@! TF.CreationDate,2020-02-27T18:00:07+11:00*
G04 #@! TF.ProjectId,esp32_saab_devboard,65737033-325f-4736-9161-625f64657662,rev?*
G04 #@! TF.SameCoordinates,Original*
G04 #@! TF.FileFunction,Legend,Top*
G04 #@! TF.FilePolarity,Positive*
%FSLAX46Y46*%
G04 Gerber Fmt 4.6, Leading zero omitted, Abs format (unit mm)*
G04 Created by KiCad (PCBNEW 5.1.4-e60b266~84~ubuntu19.04.1) date 2020-02-27 18:00:07*
%MOMM*%
%LPD*%
G04 APERTURE LIST*
%ADD10C,0.500000*%
%ADD11C,0.125000*%
%ADD12C,0.150000*%
%ADD13C,0.120000*%
%ADD14C,0.100000*%
G04 APERTURE END LIST*
D10*
X208958761Y-97306428D02*
X208958761Y-98258809D01*
X206958761Y-98258809D01*
X207911142Y-96639761D02*
X207911142Y-95973095D01*
X208958761Y-95687380D02*
X208958761Y-96639761D01*
X206958761Y-96639761D01*
X206958761Y-95687380D01*
X208958761Y-94830238D02*
X206958761Y-94830238D01*
X207054000Y-92830238D02*
X206958761Y-93020714D01*
X206958761Y-93306428D01*
X207054000Y-93592142D01*
X207244476Y-93782619D01*
X207434952Y-93877857D01*
X207815904Y-93973095D01*
X208101619Y-93973095D01*
X208482571Y-93877857D01*
X208673047Y-93782619D01*
X208863523Y-93592142D01*
X208958761Y-93306428D01*
X208958761Y-93115952D01*
X208863523Y-92830238D01*
X208768285Y-92735000D01*
X208101619Y-92735000D01*
X208101619Y-93115952D01*
X208958761Y-91877857D02*
X206958761Y-91877857D01*
X207911142Y-91877857D02*
X207911142Y-90735000D01*
X208958761Y-90735000D02*
X206958761Y-90735000D01*
X206958761Y-87877857D02*
X206958761Y-87496904D01*
X207054000Y-87306428D01*
X207244476Y-87115952D01*
X207625428Y-87020714D01*
X208292095Y-87020714D01*
X208673047Y-87115952D01*
X208863523Y-87306428D01*
X208958761Y-87496904D01*
X208958761Y-87877857D01*
X208863523Y-88068333D01*
X208673047Y-88258809D01*
X208292095Y-88354047D01*
X207625428Y-88354047D01*
X207244476Y-88258809D01*
X207054000Y-88068333D01*
X206958761Y-87877857D01*
X208958761Y-85211190D02*
X208958761Y-86163571D01*
X206958761Y-86163571D01*
X208958761Y-84544523D02*
X206958761Y-84544523D01*
X206958761Y-83877857D02*
X208958761Y-83211190D01*
X206958761Y-82544523D01*
X207911142Y-81877857D02*
X207911142Y-81211190D01*
X208958761Y-80925476D02*
X208958761Y-81877857D01*
X206958761Y-81877857D01*
X206958761Y-80925476D01*
X208958761Y-78925476D02*
X208006380Y-79592142D01*
X208958761Y-80068333D02*
X206958761Y-80068333D01*
X206958761Y-79306428D01*
X207054000Y-79115952D01*
X207149238Y-79020714D01*
X207339714Y-78925476D01*
X207625428Y-78925476D01*
X207815904Y-79020714D01*
X207911142Y-79115952D01*
X208006380Y-79306428D01*
X208006380Y-80068333D01*
X210458761Y-97877857D02*
X210458761Y-97687380D01*
X210554000Y-97496904D01*
X210649238Y-97401666D01*
X210839714Y-97306428D01*
X211220666Y-97211190D01*
X211696857Y-97211190D01*
X212077809Y-97306428D01*
X212268285Y-97401666D01*
X212363523Y-97496904D01*
X212458761Y-97687380D01*
X212458761Y-97877857D01*
X212363523Y-98068333D01*
X212268285Y-98163571D01*
X212077809Y-98258809D01*
X211696857Y-98354047D01*
X211220666Y-98354047D01*
X210839714Y-98258809D01*
X210649238Y-98163571D01*
X210554000Y-98068333D01*
X210458761Y-97877857D01*
X210649238Y-96449285D02*
X210554000Y-96354047D01*
X210458761Y-96163571D01*
X210458761Y-95687380D01*
X210554000Y-95496904D01*
X210649238Y-95401666D01*
X210839714Y-95306428D01*
X211030190Y-95306428D01*
X211315904Y-95401666D01*
X212458761Y-96544523D01*
X212458761Y-95306428D01*
X210363523Y-93020714D02*
X212934952Y-94735000D01*
X210649238Y-92449285D02*
X210554000Y-92354047D01*
X210458761Y-92163571D01*
X210458761Y-91687380D01*
X210554000Y-91496904D01*
X210649238Y-91401666D01*
X210839714Y-91306428D01*
X211030190Y-91306428D01*
X211315904Y-91401666D01*
X212458761Y-92544523D01*
X212458761Y-91306428D01*
X210458761Y-90068333D02*
X210458761Y-89877857D01*
X210554000Y-89687380D01*
X210649238Y-89592142D01*
X210839714Y-89496904D01*
X211220666Y-89401666D01*
X211696857Y-89401666D01*
X212077809Y-89496904D01*
X212268285Y-89592142D01*
X212363523Y-89687380D01*
X212458761Y-89877857D01*
X212458761Y-90068333D01*
X212363523Y-90258809D01*
X212268285Y-90354047D01*
X212077809Y-90449285D01*
X211696857Y-90544523D01*
X211220666Y-90544523D01*
X210839714Y-90449285D01*
X210649238Y-90354047D01*
X210554000Y-90258809D01*
X210458761Y-90068333D01*
X210649238Y-88639761D02*
X210554000Y-88544523D01*
X210458761Y-88354047D01*
X210458761Y-87877857D01*
X210554000Y-87687380D01*
X210649238Y-87592142D01*
X210839714Y-87496904D01*
X211030190Y-87496904D01*
X211315904Y-87592142D01*
X212458761Y-88735000D01*
X212458761Y-87496904D01*
X210458761Y-86258809D02*
X210458761Y-86068333D01*
X210554000Y-85877857D01*
X210649238Y-85782619D01*
X210839714Y-85687380D01*
X211220666Y-85592142D01*
X211696857Y-85592142D01*
X212077809Y-85687380D01*
X212268285Y-85782619D01*
X212363523Y-85877857D01*
X212458761Y-86068333D01*
X212458761Y-86258809D01*
X212363523Y-86449285D01*
X212268285Y-86544523D01*
X212077809Y-86639761D01*
X211696857Y-86735000D01*
X211220666Y-86735000D01*
X210839714Y-86639761D01*
X210649238Y-86544523D01*
X210554000Y-86449285D01*
X210458761Y-86258809D01*
D11*
X208506190Y-113559988D02*
X208268095Y-113726654D01*
X208506190Y-113845702D02*
X208006190Y-113845702D01*
X208006190Y-113655226D01*
X208030000Y-113607607D01*
X208053809Y-113583797D01*
X208101428Y-113559988D01*
X208172857Y-113559988D01*
X208220476Y-113583797D01*
X208244285Y-113607607D01*
X208268095Y-113655226D01*
X208268095Y-113845702D01*
X208006190Y-113393321D02*
X208506190Y-113059988D01*
X208006190Y-113059988D02*
X208506190Y-113393321D01*
X205466190Y-113917130D02*
X205466190Y-113631416D01*
X205966190Y-113774273D02*
X205466190Y-113774273D01*
X205466190Y-113512369D02*
X205966190Y-113179035D01*
X205466190Y-113179035D02*
X205966190Y-113512369D01*
X202950000Y-113583797D02*
X202926190Y-113631416D01*
X202926190Y-113702845D01*
X202950000Y-113774273D01*
X202997619Y-113821892D01*
X203045238Y-113845702D01*
X203140476Y-113869511D01*
X203211904Y-113869511D01*
X203307142Y-113845702D01*
X203354761Y-113821892D01*
X203402380Y-113774273D01*
X203426190Y-113702845D01*
X203426190Y-113655226D01*
X203402380Y-113583797D01*
X203378571Y-113559988D01*
X203211904Y-113559988D01*
X203211904Y-113655226D01*
X203426190Y-113345702D02*
X202926190Y-113345702D01*
X203426190Y-113059988D01*
X202926190Y-113059988D01*
X203426190Y-112821892D02*
X202926190Y-112821892D01*
X202926190Y-112702845D01*
X202950000Y-112631416D01*
X202997619Y-112583797D01*
X203045238Y-112559988D01*
X203140476Y-112536178D01*
X203211904Y-112536178D01*
X203307142Y-112559988D01*
X203354761Y-112583797D01*
X203402380Y-112631416D01*
X203426190Y-112702845D01*
X203426190Y-112821892D01*
D12*
X176911000Y-120586500D02*
G75*
G03X176911000Y-120586500I-635000J0D01*
G01*
X175895047Y-120594428D02*
X176656952Y-120594428D01*
D13*
X179318064Y-100116000D02*
X176513936Y-100116000D01*
X179318064Y-102836000D02*
X176513936Y-102836000D01*
X197657000Y-109672000D02*
X200517000Y-109672000D01*
X197657000Y-107752000D02*
X197657000Y-109672000D01*
X200517000Y-107752000D02*
X197657000Y-107752000D01*
X198250000Y-110880000D02*
X199750000Y-110880000D01*
X199750000Y-110880000D02*
X199750000Y-118140000D01*
X190250000Y-110880000D02*
X190250000Y-118140000D01*
X190250000Y-110880000D02*
X191750000Y-110880000D01*
X183844000Y-97274748D02*
X183844000Y-97797252D01*
X182424000Y-97274748D02*
X182424000Y-97797252D01*
X185880000Y-97000000D02*
X185880000Y-97780000D01*
X185880000Y-97780000D02*
X186880000Y-97780000D01*
X204120000Y-97000000D02*
X204120000Y-97780000D01*
X204120000Y-97780000D02*
X203120000Y-97780000D01*
X185880000Y-72035000D02*
X204120000Y-72035000D01*
X204120000Y-72035000D02*
X204120000Y-78455000D01*
X185880000Y-72035000D02*
X185880000Y-78455000D01*
X185880000Y-78455000D02*
X185500000Y-78455000D01*
X196885000Y-100895000D02*
X197610000Y-100895000D01*
X197610000Y-100895000D02*
X197610000Y-101620000D01*
X193115000Y-106115000D02*
X192390000Y-106115000D01*
X192390000Y-106115000D02*
X192390000Y-105390000D01*
X196885000Y-106115000D02*
X197610000Y-106115000D01*
X197610000Y-106115000D02*
X197610000Y-105390000D01*
X193115000Y-100895000D02*
X192390000Y-100895000D01*
X177420000Y-88015252D02*
X177420000Y-87492748D01*
X178840000Y-88015252D02*
X178840000Y-87492748D01*
X173970000Y-82504000D02*
X173970000Y-85364000D01*
X173970000Y-85364000D02*
X175890000Y-85364000D01*
X175890000Y-85364000D02*
X175890000Y-82504000D01*
X180770000Y-87492748D02*
X180770000Y-88015252D01*
X182190000Y-87492748D02*
X182190000Y-88015252D01*
X178940000Y-83242748D02*
X178940000Y-83765252D01*
X177520000Y-83242748D02*
X177520000Y-83765252D01*
X204164000Y-102496252D02*
X204164000Y-101973748D01*
X202744000Y-102496252D02*
X202744000Y-101973748D01*
X210657000Y-108422252D02*
X210657000Y-107899748D01*
X212077000Y-108422252D02*
X212077000Y-107899748D01*
X208863000Y-108338252D02*
X208863000Y-107815748D01*
X207443000Y-108338252D02*
X207443000Y-107815748D01*
X207261000Y-102514252D02*
X207261000Y-101991748D01*
X205841000Y-102514252D02*
X205841000Y-101991748D01*
X190321000Y-101973748D02*
X190321000Y-102496252D01*
X188901000Y-101973748D02*
X188901000Y-102496252D01*
X201116000Y-100703748D02*
X201116000Y-101226252D01*
X199696000Y-100703748D02*
X199696000Y-101226252D01*
X181210000Y-93166000D02*
X179950000Y-93166000D01*
X174390000Y-93166000D02*
X175650000Y-93166000D01*
X181210000Y-96926000D02*
X181210000Y-93166000D01*
X174390000Y-99176000D02*
X174390000Y-93166000D01*
X182190000Y-83242748D02*
X182190000Y-83765252D01*
X180770000Y-83242748D02*
X180770000Y-83765252D01*
X199696000Y-105417252D02*
X199696000Y-104894748D01*
X201116000Y-105417252D02*
X201116000Y-104894748D01*
X188901000Y-107180748D02*
X188901000Y-107703252D01*
X190321000Y-107180748D02*
X190321000Y-107703252D01*
X205796000Y-106428000D02*
X205796000Y-107888000D01*
X202636000Y-106428000D02*
X202636000Y-109588000D01*
X202636000Y-106428000D02*
X203566000Y-106428000D01*
X205796000Y-106428000D02*
X204866000Y-106428000D01*
X208986000Y-103863000D02*
X209916000Y-103863000D01*
X212146000Y-103863000D02*
X211216000Y-103863000D01*
X212146000Y-103863000D02*
X212146000Y-100703000D01*
X208986000Y-103863000D02*
X208986000Y-102403000D01*
X201870000Y-114240000D02*
X201870000Y-116900000D01*
X207010000Y-114240000D02*
X201870000Y-114240000D01*
X207010000Y-116900000D02*
X201870000Y-116900000D01*
X207010000Y-114240000D02*
X207010000Y-116900000D01*
X208280000Y-114240000D02*
X209610000Y-114240000D01*
X209610000Y-114240000D02*
X209610000Y-115570000D01*
X187273000Y-101973748D02*
X187273000Y-102496252D01*
X185853000Y-101973748D02*
X185853000Y-102496252D01*
X183059000Y-101973748D02*
X183059000Y-102496252D01*
X184479000Y-101973748D02*
X184479000Y-102496252D01*
X219516000Y-84268000D02*
X214316000Y-84268000D01*
X219516000Y-107188000D02*
X219516000Y-84268000D01*
X214316000Y-109788000D02*
X214316000Y-84268000D01*
X219516000Y-107188000D02*
X216916000Y-107188000D01*
X216916000Y-107188000D02*
X216916000Y-109788000D01*
X216916000Y-109788000D02*
X214316000Y-109788000D01*
X219516000Y-108458000D02*
X219516000Y-109788000D01*
X219516000Y-109788000D02*
X218186000Y-109788000D01*
X187512000Y-108264000D02*
X187512000Y-105604000D01*
X182372000Y-108264000D02*
X187512000Y-108264000D01*
X182372000Y-105604000D02*
X187512000Y-105604000D01*
X182372000Y-108264000D02*
X182372000Y-105604000D01*
X181102000Y-108264000D02*
X179772000Y-108264000D01*
X179772000Y-108264000D02*
X179772000Y-106934000D01*
X181658318Y-117734756D02*
G75*
G02X180975000Y-117880000I-683318J1534756D01*
G01*
X182510426Y-115516958D02*
G75*
G02X182510000Y-116884000I-1535426J-683042D01*
G01*
X180291958Y-114664574D02*
G75*
G02X181659000Y-114665000I683042J-1535426D01*
G01*
X179439574Y-116883042D02*
G75*
G02X179440000Y-115516000I1535426J683042D01*
G01*
X181003805Y-117880253D02*
G75*
G02X180291000Y-117735000I-28805J1680253D01*
G01*
X187735000Y-116200000D02*
G75*
G03X187735000Y-116200000I-1680000J0D01*
G01*
X178375000Y-120300000D02*
X188655000Y-120300000D01*
X178375000Y-118800000D02*
X188655000Y-118800000D01*
X178375000Y-113899000D02*
X188655000Y-113899000D01*
X178375000Y-110939000D02*
X188655000Y-110939000D01*
X178375000Y-120860000D02*
X188655000Y-120860000D01*
X178375000Y-110939000D02*
X178375000Y-120860000D01*
X188655000Y-110939000D02*
X188655000Y-120860000D01*
X187330000Y-115131000D02*
X187283000Y-115177000D01*
X185021000Y-117439000D02*
X184986000Y-117474000D01*
X187125000Y-114925000D02*
X187090000Y-114961000D01*
X184828000Y-117223000D02*
X184781000Y-117269000D01*
X178135000Y-120360000D02*
X178135000Y-121100000D01*
X178135000Y-121100000D02*
X178635000Y-121100000D01*
D14*
X177380285Y-101702190D02*
X177094571Y-101702190D01*
X177237428Y-101702190D02*
X177237428Y-101202190D01*
X177189809Y-101273619D01*
X177142190Y-101321238D01*
X177094571Y-101345047D01*
X177689809Y-101202190D02*
X177737428Y-101202190D01*
X177785047Y-101226000D01*
X177808857Y-101249809D01*
X177832666Y-101297428D01*
X177856476Y-101392666D01*
X177856476Y-101511714D01*
X177832666Y-101606952D01*
X177808857Y-101654571D01*
X177785047Y-101678380D01*
X177737428Y-101702190D01*
X177689809Y-101702190D01*
X177642190Y-101678380D01*
X177618380Y-101654571D01*
X177594571Y-101606952D01*
X177570761Y-101511714D01*
X177570761Y-101392666D01*
X177594571Y-101297428D01*
X177618380Y-101249809D01*
X177642190Y-101226000D01*
X177689809Y-101202190D01*
X178285047Y-101368857D02*
X178285047Y-101702190D01*
X178070761Y-101368857D02*
X178070761Y-101630761D01*
X178094571Y-101678380D01*
X178142190Y-101702190D01*
X178213619Y-101702190D01*
X178261238Y-101678380D01*
X178285047Y-101654571D01*
X178689809Y-101440285D02*
X178523142Y-101440285D01*
X178523142Y-101702190D02*
X178523142Y-101202190D01*
X178761238Y-101202190D01*
X202029190Y-109783428D02*
X202029190Y-110069142D01*
X202029190Y-109926285D02*
X201529190Y-109926285D01*
X201600619Y-109973904D01*
X201648238Y-110021523D01*
X201672047Y-110069142D01*
X202029190Y-109569142D02*
X201529190Y-109569142D01*
X202029190Y-109283428D01*
X201529190Y-109283428D01*
X201529190Y-108807238D02*
X201529190Y-109045333D01*
X201767285Y-109069142D01*
X201743476Y-109045333D01*
X201719666Y-108997714D01*
X201719666Y-108878666D01*
X201743476Y-108831047D01*
X201767285Y-108807238D01*
X201814904Y-108783428D01*
X201933952Y-108783428D01*
X201981571Y-108807238D01*
X202005380Y-108831047D01*
X202029190Y-108878666D01*
X202029190Y-108997714D01*
X202005380Y-109045333D01*
X201981571Y-109069142D01*
X201743476Y-108497714D02*
X201719666Y-108545333D01*
X201695857Y-108569142D01*
X201648238Y-108592952D01*
X201624428Y-108592952D01*
X201576809Y-108569142D01*
X201553000Y-108545333D01*
X201529190Y-108497714D01*
X201529190Y-108402476D01*
X201553000Y-108354857D01*
X201576809Y-108331047D01*
X201624428Y-108307238D01*
X201648238Y-108307238D01*
X201695857Y-108331047D01*
X201719666Y-108354857D01*
X201743476Y-108402476D01*
X201743476Y-108497714D01*
X201767285Y-108545333D01*
X201791095Y-108569142D01*
X201838714Y-108592952D01*
X201933952Y-108592952D01*
X201981571Y-108569142D01*
X202005380Y-108545333D01*
X202029190Y-108497714D01*
X202029190Y-108402476D01*
X202005380Y-108354857D01*
X201981571Y-108331047D01*
X201933952Y-108307238D01*
X201838714Y-108307238D01*
X201791095Y-108331047D01*
X201767285Y-108354857D01*
X201743476Y-108402476D01*
X202029190Y-107831047D02*
X202029190Y-108116761D01*
X202029190Y-107973904D02*
X201529190Y-107973904D01*
X201600619Y-108021523D01*
X201648238Y-108069142D01*
X201672047Y-108116761D01*
X202029190Y-107592952D02*
X202029190Y-107497714D01*
X202005380Y-107450095D01*
X201981571Y-107426285D01*
X201910142Y-107378666D01*
X201814904Y-107354857D01*
X201624428Y-107354857D01*
X201576809Y-107378666D01*
X201553000Y-107402476D01*
X201529190Y-107450095D01*
X201529190Y-107545333D01*
X201553000Y-107592952D01*
X201576809Y-107616761D01*
X201624428Y-107640571D01*
X201743476Y-107640571D01*
X201791095Y-107616761D01*
X201814904Y-107592952D01*
X201838714Y-107545333D01*
X201838714Y-107450095D01*
X201814904Y-107402476D01*
X201791095Y-107378666D01*
X201743476Y-107354857D01*
X190154761Y-120526190D02*
X190154761Y-120930952D01*
X190178571Y-120978571D01*
X190202380Y-121002380D01*
X190250000Y-121026190D01*
X190345238Y-121026190D01*
X190392857Y-121002380D01*
X190416666Y-120978571D01*
X190440476Y-120930952D01*
X190440476Y-120526190D01*
X190654761Y-121002380D02*
X190726190Y-121026190D01*
X190845238Y-121026190D01*
X190892857Y-121002380D01*
X190916666Y-120978571D01*
X190940476Y-120930952D01*
X190940476Y-120883333D01*
X190916666Y-120835714D01*
X190892857Y-120811904D01*
X190845238Y-120788095D01*
X190750000Y-120764285D01*
X190702380Y-120740476D01*
X190678571Y-120716666D01*
X190654761Y-120669047D01*
X190654761Y-120621428D01*
X190678571Y-120573809D01*
X190702380Y-120550000D01*
X190750000Y-120526190D01*
X190869047Y-120526190D01*
X190940476Y-120550000D01*
X191321428Y-120764285D02*
X191392857Y-120788095D01*
X191416666Y-120811904D01*
X191440476Y-120859523D01*
X191440476Y-120930952D01*
X191416666Y-120978571D01*
X191392857Y-121002380D01*
X191345238Y-121026190D01*
X191154761Y-121026190D01*
X191154761Y-120526190D01*
X191321428Y-120526190D01*
X191369047Y-120550000D01*
X191392857Y-120573809D01*
X191416666Y-120621428D01*
X191416666Y-120669047D01*
X191392857Y-120716666D01*
X191369047Y-120740476D01*
X191321428Y-120764285D01*
X191154761Y-120764285D01*
X191535714Y-121073809D02*
X191916666Y-121073809D01*
X192321428Y-120978571D02*
X192297619Y-121002380D01*
X192226190Y-121026190D01*
X192178571Y-121026190D01*
X192107142Y-121002380D01*
X192059523Y-120954761D01*
X192035714Y-120907142D01*
X192011904Y-120811904D01*
X192011904Y-120740476D01*
X192035714Y-120645238D01*
X192059523Y-120597619D01*
X192107142Y-120550000D01*
X192178571Y-120526190D01*
X192226190Y-120526190D01*
X192297619Y-120550000D01*
X192321428Y-120573809D01*
X192416666Y-121073809D02*
X192797619Y-121073809D01*
X193202380Y-121026190D02*
X193035714Y-120788095D01*
X192916666Y-121026190D02*
X192916666Y-120526190D01*
X193107142Y-120526190D01*
X193154761Y-120550000D01*
X193178571Y-120573809D01*
X193202380Y-120621428D01*
X193202380Y-120692857D01*
X193178571Y-120740476D01*
X193154761Y-120764285D01*
X193107142Y-120788095D01*
X192916666Y-120788095D01*
X193607142Y-121002380D02*
X193559523Y-121026190D01*
X193464285Y-121026190D01*
X193416666Y-121002380D01*
X193392857Y-120954761D01*
X193392857Y-120764285D01*
X193416666Y-120716666D01*
X193464285Y-120692857D01*
X193559523Y-120692857D01*
X193607142Y-120716666D01*
X193630952Y-120764285D01*
X193630952Y-120811904D01*
X193392857Y-120859523D01*
X194059523Y-121002380D02*
X194011904Y-121026190D01*
X193916666Y-121026190D01*
X193869047Y-121002380D01*
X193845238Y-120978571D01*
X193821428Y-120930952D01*
X193821428Y-120788095D01*
X193845238Y-120740476D01*
X193869047Y-120716666D01*
X193916666Y-120692857D01*
X194011904Y-120692857D01*
X194059523Y-120716666D01*
X194464285Y-121002380D02*
X194416666Y-121026190D01*
X194321428Y-121026190D01*
X194273809Y-121002380D01*
X194250000Y-120954761D01*
X194250000Y-120764285D01*
X194273809Y-120716666D01*
X194321428Y-120692857D01*
X194416666Y-120692857D01*
X194464285Y-120716666D01*
X194488095Y-120764285D01*
X194488095Y-120811904D01*
X194250000Y-120859523D01*
X194702380Y-120692857D02*
X194702380Y-121192857D01*
X194702380Y-120716666D02*
X194750000Y-120692857D01*
X194845238Y-120692857D01*
X194892857Y-120716666D01*
X194916666Y-120740476D01*
X194940476Y-120788095D01*
X194940476Y-120930952D01*
X194916666Y-120978571D01*
X194892857Y-121002380D01*
X194845238Y-121026190D01*
X194750000Y-121026190D01*
X194702380Y-121002380D01*
X195083333Y-120692857D02*
X195273809Y-120692857D01*
X195154761Y-120526190D02*
X195154761Y-120954761D01*
X195178571Y-121002380D01*
X195226190Y-121026190D01*
X195273809Y-121026190D01*
X195654761Y-121026190D02*
X195654761Y-120764285D01*
X195630952Y-120716666D01*
X195583333Y-120692857D01*
X195488095Y-120692857D01*
X195440476Y-120716666D01*
X195654761Y-121002380D02*
X195607142Y-121026190D01*
X195488095Y-121026190D01*
X195440476Y-121002380D01*
X195416666Y-120954761D01*
X195416666Y-120907142D01*
X195440476Y-120859523D01*
X195488095Y-120835714D01*
X195607142Y-120835714D01*
X195654761Y-120811904D01*
X196107142Y-121002380D02*
X196059523Y-121026190D01*
X195964285Y-121026190D01*
X195916666Y-121002380D01*
X195892857Y-120978571D01*
X195869047Y-120930952D01*
X195869047Y-120788095D01*
X195892857Y-120740476D01*
X195916666Y-120716666D01*
X195964285Y-120692857D01*
X196059523Y-120692857D01*
X196107142Y-120716666D01*
X196392857Y-121026190D02*
X196345238Y-121002380D01*
X196321428Y-120954761D01*
X196321428Y-120526190D01*
X196773809Y-121002380D02*
X196726190Y-121026190D01*
X196630952Y-121026190D01*
X196583333Y-121002380D01*
X196559523Y-120954761D01*
X196559523Y-120764285D01*
X196583333Y-120716666D01*
X196630952Y-120692857D01*
X196726190Y-120692857D01*
X196773809Y-120716666D01*
X196797619Y-120764285D01*
X196797619Y-120811904D01*
X196559523Y-120859523D01*
X196892857Y-121073809D02*
X197273809Y-121073809D01*
X197392857Y-120526190D02*
X197392857Y-120930952D01*
X197416666Y-120978571D01*
X197440476Y-121002380D01*
X197488095Y-121026190D01*
X197583333Y-121026190D01*
X197630952Y-121002380D01*
X197654761Y-120978571D01*
X197678571Y-120930952D01*
X197678571Y-120526190D01*
X197892857Y-121002380D02*
X197964285Y-121026190D01*
X198083333Y-121026190D01*
X198130952Y-121002380D01*
X198154761Y-120978571D01*
X198178571Y-120930952D01*
X198178571Y-120883333D01*
X198154761Y-120835714D01*
X198130952Y-120811904D01*
X198083333Y-120788095D01*
X197988095Y-120764285D01*
X197940476Y-120740476D01*
X197916666Y-120716666D01*
X197892857Y-120669047D01*
X197892857Y-120621428D01*
X197916666Y-120573809D01*
X197940476Y-120550000D01*
X197988095Y-120526190D01*
X198107142Y-120526190D01*
X198178571Y-120550000D01*
X198559523Y-120764285D02*
X198630952Y-120788095D01*
X198654761Y-120811904D01*
X198678571Y-120859523D01*
X198678571Y-120930952D01*
X198654761Y-120978571D01*
X198630952Y-121002380D01*
X198583333Y-121026190D01*
X198392857Y-121026190D01*
X198392857Y-120526190D01*
X198559523Y-120526190D01*
X198607142Y-120550000D01*
X198630952Y-120573809D01*
X198654761Y-120621428D01*
X198654761Y-120669047D01*
X198630952Y-120716666D01*
X198607142Y-120740476D01*
X198559523Y-120764285D01*
X198392857Y-120764285D01*
X198869047Y-120573809D02*
X198892857Y-120550000D01*
X198940476Y-120526190D01*
X199059523Y-120526190D01*
X199107142Y-120550000D01*
X199130952Y-120573809D01*
X199154761Y-120621428D01*
X199154761Y-120669047D01*
X199130952Y-120740476D01*
X198845238Y-121026190D01*
X199154761Y-121026190D01*
X199369047Y-120978571D02*
X199392857Y-121002380D01*
X199369047Y-121026190D01*
X199345238Y-121002380D01*
X199369047Y-120978571D01*
X199369047Y-121026190D01*
X199702380Y-120526190D02*
X199750000Y-120526190D01*
X199797619Y-120550000D01*
X199821428Y-120573809D01*
X199845238Y-120621428D01*
X199869047Y-120716666D01*
X199869047Y-120835714D01*
X199845238Y-120930952D01*
X199821428Y-120978571D01*
X199797619Y-121002380D01*
X199750000Y-121026190D01*
X199702380Y-121026190D01*
X199654761Y-121002380D01*
X199630952Y-120978571D01*
X199607142Y-120930952D01*
X199583333Y-120835714D01*
X199583333Y-120716666D01*
X199607142Y-120621428D01*
X199630952Y-120573809D01*
X199654761Y-120550000D01*
X199702380Y-120526190D01*
X184757190Y-98071714D02*
X184757190Y-98357428D01*
X184757190Y-98214571D02*
X184257190Y-98214571D01*
X184328619Y-98262190D01*
X184376238Y-98309809D01*
X184400047Y-98357428D01*
X184257190Y-97762190D02*
X184257190Y-97714571D01*
X184281000Y-97666952D01*
X184304809Y-97643142D01*
X184352428Y-97619333D01*
X184447666Y-97595523D01*
X184566714Y-97595523D01*
X184661952Y-97619333D01*
X184709571Y-97643142D01*
X184733380Y-97666952D01*
X184757190Y-97714571D01*
X184757190Y-97762190D01*
X184733380Y-97809809D01*
X184709571Y-97833619D01*
X184661952Y-97857428D01*
X184566714Y-97881238D01*
X184447666Y-97881238D01*
X184352428Y-97857428D01*
X184304809Y-97833619D01*
X184281000Y-97809809D01*
X184257190Y-97762190D01*
X184423857Y-97166952D02*
X184757190Y-97166952D01*
X184423857Y-97381238D02*
X184685761Y-97381238D01*
X184733380Y-97357428D01*
X184757190Y-97309809D01*
X184757190Y-97238380D01*
X184733380Y-97190761D01*
X184709571Y-97166952D01*
X184495285Y-96762190D02*
X184495285Y-96928857D01*
X184757190Y-96928857D02*
X184257190Y-96928857D01*
X184257190Y-96690761D01*
X205196285Y-97614904D02*
X205196285Y-97448238D01*
X205458190Y-97376809D02*
X205458190Y-97614904D01*
X204958190Y-97614904D01*
X204958190Y-97376809D01*
X205434380Y-97186333D02*
X205458190Y-97114904D01*
X205458190Y-96995857D01*
X205434380Y-96948238D01*
X205410571Y-96924428D01*
X205362952Y-96900619D01*
X205315333Y-96900619D01*
X205267714Y-96924428D01*
X205243904Y-96948238D01*
X205220095Y-96995857D01*
X205196285Y-97091095D01*
X205172476Y-97138714D01*
X205148666Y-97162523D01*
X205101047Y-97186333D01*
X205053428Y-97186333D01*
X205005809Y-97162523D01*
X204982000Y-97138714D01*
X204958190Y-97091095D01*
X204958190Y-96972047D01*
X204982000Y-96900619D01*
X205458190Y-96686333D02*
X204958190Y-96686333D01*
X204958190Y-96495857D01*
X204982000Y-96448238D01*
X205005809Y-96424428D01*
X205053428Y-96400619D01*
X205124857Y-96400619D01*
X205172476Y-96424428D01*
X205196285Y-96448238D01*
X205220095Y-96495857D01*
X205220095Y-96686333D01*
X204958190Y-96233952D02*
X204958190Y-95924428D01*
X205148666Y-96091095D01*
X205148666Y-96019666D01*
X205172476Y-95972047D01*
X205196285Y-95948238D01*
X205243904Y-95924428D01*
X205362952Y-95924428D01*
X205410571Y-95948238D01*
X205434380Y-95972047D01*
X205458190Y-96019666D01*
X205458190Y-96162523D01*
X205434380Y-96210142D01*
X205410571Y-96233952D01*
X205005809Y-95733952D02*
X204982000Y-95710142D01*
X204958190Y-95662523D01*
X204958190Y-95543476D01*
X204982000Y-95495857D01*
X205005809Y-95472047D01*
X205053428Y-95448238D01*
X205101047Y-95448238D01*
X205172476Y-95472047D01*
X205458190Y-95757761D01*
X205458190Y-95448238D01*
X205267714Y-95233952D02*
X205267714Y-94853000D01*
X204958190Y-94662523D02*
X205458190Y-94543476D01*
X205101047Y-94448238D01*
X205458190Y-94353000D01*
X204958190Y-94233952D01*
X205458190Y-93757761D02*
X205220095Y-93924428D01*
X205458190Y-94043476D02*
X204958190Y-94043476D01*
X204958190Y-93853000D01*
X204982000Y-93805380D01*
X205005809Y-93781571D01*
X205053428Y-93757761D01*
X205124857Y-93757761D01*
X205172476Y-93781571D01*
X205196285Y-93805380D01*
X205220095Y-93853000D01*
X205220095Y-94043476D01*
X204958190Y-93448238D02*
X204958190Y-93353000D01*
X204982000Y-93305380D01*
X205029619Y-93257761D01*
X205124857Y-93233952D01*
X205291523Y-93233952D01*
X205386761Y-93257761D01*
X205434380Y-93305380D01*
X205458190Y-93353000D01*
X205458190Y-93448238D01*
X205434380Y-93495857D01*
X205386761Y-93543476D01*
X205291523Y-93567285D01*
X205124857Y-93567285D01*
X205029619Y-93543476D01*
X204982000Y-93495857D01*
X204958190Y-93448238D01*
X204958190Y-92924428D02*
X204958190Y-92829190D01*
X204982000Y-92781571D01*
X205029619Y-92733952D01*
X205124857Y-92710142D01*
X205291523Y-92710142D01*
X205386761Y-92733952D01*
X205434380Y-92781571D01*
X205458190Y-92829190D01*
X205458190Y-92924428D01*
X205434380Y-92972047D01*
X205386761Y-93019666D01*
X205291523Y-93043476D01*
X205124857Y-93043476D01*
X205029619Y-93019666D01*
X204982000Y-92972047D01*
X204958190Y-92924428D01*
X205458190Y-92495857D02*
X204958190Y-92495857D01*
X205315333Y-92329190D01*
X204958190Y-92162523D01*
X205458190Y-92162523D01*
X205267714Y-91924428D02*
X205267714Y-91543476D01*
X204958190Y-91353000D02*
X204958190Y-91043476D01*
X205148666Y-91210142D01*
X205148666Y-91138714D01*
X205172476Y-91091095D01*
X205196285Y-91067285D01*
X205243904Y-91043476D01*
X205362952Y-91043476D01*
X205410571Y-91067285D01*
X205434380Y-91091095D01*
X205458190Y-91138714D01*
X205458190Y-91281571D01*
X205434380Y-91329190D01*
X205410571Y-91353000D01*
X205005809Y-90853000D02*
X204982000Y-90829190D01*
X204958190Y-90781571D01*
X204958190Y-90662523D01*
X204982000Y-90614904D01*
X205005809Y-90591095D01*
X205053428Y-90567285D01*
X205101047Y-90567285D01*
X205172476Y-90591095D01*
X205458190Y-90876809D01*
X205458190Y-90567285D01*
X205458190Y-90353000D02*
X204958190Y-90353000D01*
X204958190Y-90233952D01*
X204982000Y-90162523D01*
X205029619Y-90114904D01*
X205077238Y-90091095D01*
X205172476Y-90067285D01*
X205243904Y-90067285D01*
X205339142Y-90091095D01*
X205386761Y-90114904D01*
X205434380Y-90162523D01*
X205458190Y-90233952D01*
X205458190Y-90353000D01*
X198806571Y-105830523D02*
X198830380Y-105854333D01*
X198854190Y-105925761D01*
X198854190Y-105973380D01*
X198830380Y-106044809D01*
X198782761Y-106092428D01*
X198735142Y-106116238D01*
X198639904Y-106140047D01*
X198568476Y-106140047D01*
X198473238Y-106116238D01*
X198425619Y-106092428D01*
X198378000Y-106044809D01*
X198354190Y-105973380D01*
X198354190Y-105925761D01*
X198378000Y-105854333D01*
X198401809Y-105830523D01*
X198854190Y-105616238D02*
X198354190Y-105616238D01*
X198354190Y-105425761D01*
X198378000Y-105378142D01*
X198401809Y-105354333D01*
X198449428Y-105330523D01*
X198520857Y-105330523D01*
X198568476Y-105354333D01*
X198592285Y-105378142D01*
X198616095Y-105425761D01*
X198616095Y-105616238D01*
X198401809Y-105140047D02*
X198378000Y-105116238D01*
X198354190Y-105068619D01*
X198354190Y-104949571D01*
X198378000Y-104901952D01*
X198401809Y-104878142D01*
X198449428Y-104854333D01*
X198497047Y-104854333D01*
X198568476Y-104878142D01*
X198854190Y-105163857D01*
X198854190Y-104854333D01*
X198854190Y-104378142D02*
X198854190Y-104663857D01*
X198854190Y-104521000D02*
X198354190Y-104521000D01*
X198425619Y-104568619D01*
X198473238Y-104616238D01*
X198497047Y-104663857D01*
X198354190Y-104068619D02*
X198354190Y-104021000D01*
X198378000Y-103973380D01*
X198401809Y-103949571D01*
X198449428Y-103925761D01*
X198544666Y-103901952D01*
X198663714Y-103901952D01*
X198758952Y-103925761D01*
X198806571Y-103949571D01*
X198830380Y-103973380D01*
X198854190Y-104021000D01*
X198854190Y-104068619D01*
X198830380Y-104116238D01*
X198806571Y-104140047D01*
X198758952Y-104163857D01*
X198663714Y-104187666D01*
X198544666Y-104187666D01*
X198449428Y-104163857D01*
X198401809Y-104140047D01*
X198378000Y-104116238D01*
X198354190Y-104068619D01*
X198401809Y-103711476D02*
X198378000Y-103687666D01*
X198354190Y-103640047D01*
X198354190Y-103521000D01*
X198378000Y-103473380D01*
X198401809Y-103449571D01*
X198449428Y-103425761D01*
X198497047Y-103425761D01*
X198568476Y-103449571D01*
X198854190Y-103735285D01*
X198854190Y-103425761D01*
X198854190Y-103211476D02*
X198354190Y-103211476D01*
X198854190Y-102925761D01*
X198354190Y-102925761D01*
X180156190Y-88051619D02*
X180156190Y-88337333D01*
X180156190Y-88194476D02*
X179656190Y-88194476D01*
X179727619Y-88242095D01*
X179775238Y-88289714D01*
X179799047Y-88337333D01*
X179822857Y-87837333D02*
X180156190Y-87837333D01*
X179870476Y-87837333D02*
X179846666Y-87813523D01*
X179822857Y-87765904D01*
X179822857Y-87694476D01*
X179846666Y-87646857D01*
X179894285Y-87623047D01*
X180156190Y-87623047D01*
X179894285Y-87218285D02*
X179894285Y-87384952D01*
X180156190Y-87384952D02*
X179656190Y-87384952D01*
X179656190Y-87146857D01*
X173556190Y-84989714D02*
X173056190Y-84989714D01*
X173056190Y-84799238D01*
X173080000Y-84751619D01*
X173103809Y-84727809D01*
X173151428Y-84704000D01*
X173222857Y-84704000D01*
X173270476Y-84727809D01*
X173294285Y-84751619D01*
X173318095Y-84799238D01*
X173318095Y-84989714D01*
X173056190Y-84537333D02*
X173556190Y-84418285D01*
X173199047Y-84323047D01*
X173556190Y-84227809D01*
X173056190Y-84108761D01*
X173556190Y-83632571D02*
X173318095Y-83799238D01*
X173556190Y-83918285D02*
X173056190Y-83918285D01*
X173056190Y-83727809D01*
X173080000Y-83680190D01*
X173103809Y-83656380D01*
X173151428Y-83632571D01*
X173222857Y-83632571D01*
X173270476Y-83656380D01*
X173294285Y-83680190D01*
X173318095Y-83727809D01*
X173318095Y-83918285D01*
X173603809Y-83537333D02*
X173603809Y-83156380D01*
X173556190Y-82799238D02*
X173556190Y-83037333D01*
X173056190Y-83037333D01*
X173294285Y-82632571D02*
X173294285Y-82465904D01*
X173556190Y-82394476D02*
X173556190Y-82632571D01*
X173056190Y-82632571D01*
X173056190Y-82394476D01*
X173556190Y-82180190D02*
X173056190Y-82180190D01*
X173056190Y-82061142D01*
X173080000Y-81989714D01*
X173127619Y-81942095D01*
X173175238Y-81918285D01*
X173270476Y-81894476D01*
X173341904Y-81894476D01*
X173437142Y-81918285D01*
X173484761Y-81942095D01*
X173532380Y-81989714D01*
X173556190Y-82061142D01*
X173556190Y-82180190D01*
X176856190Y-88099238D02*
X176856190Y-88384952D01*
X176856190Y-88242095D02*
X176356190Y-88242095D01*
X176427619Y-88289714D01*
X176475238Y-88337333D01*
X176499047Y-88384952D01*
X176403809Y-87908761D02*
X176380000Y-87884952D01*
X176356190Y-87837333D01*
X176356190Y-87718285D01*
X176380000Y-87670666D01*
X176403809Y-87646857D01*
X176451428Y-87623047D01*
X176499047Y-87623047D01*
X176570476Y-87646857D01*
X176856190Y-87932571D01*
X176856190Y-87623047D01*
X176856190Y-87408761D02*
X176356190Y-87408761D01*
X176856190Y-87123047D02*
X176570476Y-87337333D01*
X176356190Y-87123047D02*
X176641904Y-87408761D01*
X176403809Y-83849238D02*
X176380000Y-83825428D01*
X176356190Y-83777809D01*
X176356190Y-83658761D01*
X176380000Y-83611142D01*
X176403809Y-83587333D01*
X176451428Y-83563523D01*
X176499047Y-83563523D01*
X176570476Y-83587333D01*
X176856190Y-83873047D01*
X176856190Y-83563523D01*
X176856190Y-83349238D02*
X176356190Y-83349238D01*
X176665714Y-83301619D02*
X176856190Y-83158761D01*
X176522857Y-83158761D02*
X176713333Y-83349238D01*
X204577190Y-102318333D02*
X204577190Y-102556428D01*
X204815285Y-102580238D01*
X204791476Y-102556428D01*
X204767666Y-102508809D01*
X204767666Y-102389761D01*
X204791476Y-102342142D01*
X204815285Y-102318333D01*
X204862904Y-102294523D01*
X204981952Y-102294523D01*
X205029571Y-102318333D01*
X205053380Y-102342142D01*
X205077190Y-102389761D01*
X205077190Y-102508809D01*
X205053380Y-102556428D01*
X205029571Y-102580238D01*
X205077190Y-102080238D02*
X204577190Y-102080238D01*
X204886714Y-102032619D02*
X205077190Y-101889761D01*
X204743857Y-101889761D02*
X204934333Y-102080238D01*
X212451190Y-108287333D02*
X212451190Y-108525428D01*
X212689285Y-108549238D01*
X212665476Y-108525428D01*
X212641666Y-108477809D01*
X212641666Y-108358761D01*
X212665476Y-108311142D01*
X212689285Y-108287333D01*
X212736904Y-108263523D01*
X212855952Y-108263523D01*
X212903571Y-108287333D01*
X212927380Y-108311142D01*
X212951190Y-108358761D01*
X212951190Y-108477809D01*
X212927380Y-108525428D01*
X212903571Y-108549238D01*
X212951190Y-108049238D02*
X212451190Y-108049238D01*
X212760714Y-108001619D02*
X212951190Y-107858761D01*
X212617857Y-107858761D02*
X212808333Y-108049238D01*
X209776190Y-108422238D02*
X209776190Y-108707952D01*
X209776190Y-108565095D02*
X209276190Y-108565095D01*
X209347619Y-108612714D01*
X209395238Y-108660333D01*
X209419047Y-108707952D01*
X209323809Y-108231761D02*
X209300000Y-108207952D01*
X209276190Y-108160333D01*
X209276190Y-108041285D01*
X209300000Y-107993666D01*
X209323809Y-107969857D01*
X209371428Y-107946047D01*
X209419047Y-107946047D01*
X209490476Y-107969857D01*
X209776190Y-108255571D01*
X209776190Y-107946047D01*
X209776190Y-107731761D02*
X209276190Y-107731761D01*
X209776190Y-107446047D02*
X209490476Y-107660333D01*
X209276190Y-107446047D02*
X209561904Y-107731761D01*
X208125190Y-102580238D02*
X208125190Y-102865952D01*
X208125190Y-102723095D02*
X207625190Y-102723095D01*
X207696619Y-102770714D01*
X207744238Y-102818333D01*
X207768047Y-102865952D01*
X207672809Y-102389761D02*
X207649000Y-102365952D01*
X207625190Y-102318333D01*
X207625190Y-102199285D01*
X207649000Y-102151666D01*
X207672809Y-102127857D01*
X207720428Y-102104047D01*
X207768047Y-102104047D01*
X207839476Y-102127857D01*
X208125190Y-102413571D01*
X208125190Y-102104047D01*
X208125190Y-101889761D02*
X207625190Y-101889761D01*
X208125190Y-101604047D02*
X207839476Y-101818333D01*
X207625190Y-101604047D02*
X207910904Y-101889761D01*
X191234190Y-102342142D02*
X191234190Y-102627857D01*
X191234190Y-102485000D02*
X190734190Y-102485000D01*
X190805619Y-102532619D01*
X190853238Y-102580238D01*
X190877047Y-102627857D01*
X191234190Y-102127857D02*
X190734190Y-102127857D01*
X191234190Y-101842142D02*
X190948476Y-102056428D01*
X190734190Y-101842142D02*
X191019904Y-102127857D01*
X201695857Y-101345952D02*
X202029190Y-101345952D01*
X201505380Y-101465000D02*
X201862523Y-101584047D01*
X201862523Y-101274523D01*
X201529190Y-101131666D02*
X201529190Y-100798333D01*
X202029190Y-101012619D01*
X201529190Y-100512619D02*
X201529190Y-100465000D01*
X201553000Y-100417380D01*
X201576809Y-100393571D01*
X201624428Y-100369761D01*
X201719666Y-100345952D01*
X201838714Y-100345952D01*
X201933952Y-100369761D01*
X201981571Y-100393571D01*
X202005380Y-100417380D01*
X202029190Y-100465000D01*
X202029190Y-100512619D01*
X202005380Y-100560238D01*
X201981571Y-100584047D01*
X201933952Y-100607857D01*
X201838714Y-100631666D01*
X201719666Y-100631666D01*
X201624428Y-100607857D01*
X201576809Y-100584047D01*
X201553000Y-100560238D01*
X201529190Y-100512619D01*
X182026190Y-99200000D02*
X181526190Y-99200000D01*
X182026190Y-98914285D01*
X181526190Y-98914285D01*
X181978571Y-98390476D02*
X182002380Y-98414285D01*
X182026190Y-98485714D01*
X182026190Y-98533333D01*
X182002380Y-98604761D01*
X181954761Y-98652380D01*
X181907142Y-98676190D01*
X181811904Y-98700000D01*
X181740476Y-98700000D01*
X181645238Y-98676190D01*
X181597619Y-98652380D01*
X181550000Y-98604761D01*
X181526190Y-98533333D01*
X181526190Y-98485714D01*
X181550000Y-98414285D01*
X181573809Y-98390476D01*
X182026190Y-98176190D02*
X181526190Y-98176190D01*
X181526190Y-97985714D01*
X181550000Y-97938095D01*
X181573809Y-97914285D01*
X181621428Y-97890476D01*
X181692857Y-97890476D01*
X181740476Y-97914285D01*
X181764285Y-97938095D01*
X181788095Y-97985714D01*
X181788095Y-98176190D01*
X182026190Y-97414285D02*
X182026190Y-97700000D01*
X182026190Y-97557142D02*
X181526190Y-97557142D01*
X181597619Y-97604761D01*
X181645238Y-97652380D01*
X181669047Y-97700000D01*
X182026190Y-96938095D02*
X182026190Y-97223809D01*
X182026190Y-97080952D02*
X181526190Y-97080952D01*
X181597619Y-97128571D01*
X181645238Y-97176190D01*
X181669047Y-97223809D01*
X182026190Y-96461904D02*
X182026190Y-96747619D01*
X182026190Y-96604761D02*
X181526190Y-96604761D01*
X181597619Y-96652380D01*
X181645238Y-96700000D01*
X181669047Y-96747619D01*
X181526190Y-96295238D02*
X181526190Y-95961904D01*
X182026190Y-96176190D01*
X181835714Y-95771428D02*
X181835714Y-95390476D01*
X181526190Y-95200000D02*
X181526190Y-94890476D01*
X181716666Y-95057142D01*
X181716666Y-94985714D01*
X181740476Y-94938095D01*
X181764285Y-94914285D01*
X181811904Y-94890476D01*
X181930952Y-94890476D01*
X181978571Y-94914285D01*
X182002380Y-94938095D01*
X182026190Y-94985714D01*
X182026190Y-95128571D01*
X182002380Y-95176190D01*
X181978571Y-95200000D01*
X181978571Y-94676190D02*
X182002380Y-94652380D01*
X182026190Y-94676190D01*
X182002380Y-94700000D01*
X181978571Y-94676190D01*
X182026190Y-94676190D01*
X181526190Y-94485714D02*
X181526190Y-94176190D01*
X181716666Y-94342857D01*
X181716666Y-94271428D01*
X181740476Y-94223809D01*
X181764285Y-94200000D01*
X181811904Y-94176190D01*
X181930952Y-94176190D01*
X181978571Y-94200000D01*
X182002380Y-94223809D01*
X182026190Y-94271428D01*
X182026190Y-94414285D01*
X182002380Y-94461904D01*
X181978571Y-94485714D01*
X180206190Y-84039714D02*
X180206190Y-84325428D01*
X180206190Y-84182571D02*
X179706190Y-84182571D01*
X179777619Y-84230190D01*
X179825238Y-84277809D01*
X179849047Y-84325428D01*
X179706190Y-83730190D02*
X179706190Y-83682571D01*
X179730000Y-83634952D01*
X179753809Y-83611142D01*
X179801428Y-83587333D01*
X179896666Y-83563523D01*
X180015714Y-83563523D01*
X180110952Y-83587333D01*
X180158571Y-83611142D01*
X180182380Y-83634952D01*
X180206190Y-83682571D01*
X180206190Y-83730190D01*
X180182380Y-83777809D01*
X180158571Y-83801619D01*
X180110952Y-83825428D01*
X180015714Y-83849238D01*
X179896666Y-83849238D01*
X179801428Y-83825428D01*
X179753809Y-83801619D01*
X179730000Y-83777809D01*
X179706190Y-83730190D01*
X179872857Y-83134952D02*
X180206190Y-83134952D01*
X179872857Y-83349238D02*
X180134761Y-83349238D01*
X180182380Y-83325428D01*
X180206190Y-83277809D01*
X180206190Y-83206380D01*
X180182380Y-83158761D01*
X180158571Y-83134952D01*
X179944285Y-82730190D02*
X179944285Y-82896857D01*
X180206190Y-82896857D02*
X179706190Y-82896857D01*
X179706190Y-82658761D01*
X202003790Y-105691714D02*
X202003790Y-105977428D01*
X202003790Y-105834571D02*
X201503790Y-105834571D01*
X201575219Y-105882190D01*
X201622838Y-105929809D01*
X201646647Y-105977428D01*
X201503790Y-105382190D02*
X201503790Y-105334571D01*
X201527600Y-105286952D01*
X201551409Y-105263142D01*
X201599028Y-105239333D01*
X201694266Y-105215523D01*
X201813314Y-105215523D01*
X201908552Y-105239333D01*
X201956171Y-105263142D01*
X201979980Y-105286952D01*
X202003790Y-105334571D01*
X202003790Y-105382190D01*
X201979980Y-105429809D01*
X201956171Y-105453619D01*
X201908552Y-105477428D01*
X201813314Y-105501238D01*
X201694266Y-105501238D01*
X201599028Y-105477428D01*
X201551409Y-105453619D01*
X201527600Y-105429809D01*
X201503790Y-105382190D01*
X201670457Y-104786952D02*
X202003790Y-104786952D01*
X201670457Y-105001238D02*
X201932361Y-105001238D01*
X201979980Y-104977428D01*
X202003790Y-104929809D01*
X202003790Y-104858380D01*
X201979980Y-104810761D01*
X201956171Y-104786952D01*
X201741885Y-104382190D02*
X201741885Y-104548857D01*
X202003790Y-104548857D02*
X201503790Y-104548857D01*
X201503790Y-104310761D01*
X191187190Y-107977714D02*
X191187190Y-108263428D01*
X191187190Y-108120571D02*
X190687190Y-108120571D01*
X190758619Y-108168190D01*
X190806238Y-108215809D01*
X190830047Y-108263428D01*
X190687190Y-107668190D02*
X190687190Y-107620571D01*
X190711000Y-107572952D01*
X190734809Y-107549142D01*
X190782428Y-107525333D01*
X190877666Y-107501523D01*
X190996714Y-107501523D01*
X191091952Y-107525333D01*
X191139571Y-107549142D01*
X191163380Y-107572952D01*
X191187190Y-107620571D01*
X191187190Y-107668190D01*
X191163380Y-107715809D01*
X191139571Y-107739619D01*
X191091952Y-107763428D01*
X190996714Y-107787238D01*
X190877666Y-107787238D01*
X190782428Y-107763428D01*
X190734809Y-107739619D01*
X190711000Y-107715809D01*
X190687190Y-107668190D01*
X190853857Y-107072952D02*
X191187190Y-107072952D01*
X190853857Y-107287238D02*
X191115761Y-107287238D01*
X191163380Y-107263428D01*
X191187190Y-107215809D01*
X191187190Y-107144380D01*
X191163380Y-107096761D01*
X191139571Y-107072952D01*
X190925285Y-106668190D02*
X190925285Y-106834857D01*
X191187190Y-106834857D02*
X190687190Y-106834857D01*
X190687190Y-106596761D01*
X206577380Y-108283238D02*
X206601190Y-108211809D01*
X206601190Y-108092761D01*
X206577380Y-108045142D01*
X206553571Y-108021333D01*
X206505952Y-107997523D01*
X206458333Y-107997523D01*
X206410714Y-108021333D01*
X206386904Y-108045142D01*
X206363095Y-108092761D01*
X206339285Y-108188000D01*
X206315476Y-108235619D01*
X206291666Y-108259428D01*
X206244047Y-108283238D01*
X206196428Y-108283238D01*
X206148809Y-108259428D01*
X206125000Y-108235619D01*
X206101190Y-108188000D01*
X206101190Y-108068952D01*
X206125000Y-107997523D01*
X206315476Y-107711809D02*
X206291666Y-107759428D01*
X206267857Y-107783238D01*
X206220238Y-107807047D01*
X206196428Y-107807047D01*
X206148809Y-107783238D01*
X206125000Y-107759428D01*
X206101190Y-107711809D01*
X206101190Y-107616571D01*
X206125000Y-107568952D01*
X206148809Y-107545142D01*
X206196428Y-107521333D01*
X206220238Y-107521333D01*
X206267857Y-107545142D01*
X206291666Y-107568952D01*
X206315476Y-107616571D01*
X206315476Y-107711809D01*
X206339285Y-107759428D01*
X206363095Y-107783238D01*
X206410714Y-107807047D01*
X206505952Y-107807047D01*
X206553571Y-107783238D01*
X206577380Y-107759428D01*
X206601190Y-107711809D01*
X206601190Y-107616571D01*
X206577380Y-107568952D01*
X206553571Y-107545142D01*
X206505952Y-107521333D01*
X206410714Y-107521333D01*
X206363095Y-107545142D01*
X206339285Y-107568952D01*
X206315476Y-107616571D01*
X206101190Y-107211809D02*
X206101190Y-107164190D01*
X206125000Y-107116571D01*
X206148809Y-107092761D01*
X206196428Y-107068952D01*
X206291666Y-107045142D01*
X206410714Y-107045142D01*
X206505952Y-107068952D01*
X206553571Y-107092761D01*
X206577380Y-107116571D01*
X206601190Y-107164190D01*
X206601190Y-107211809D01*
X206577380Y-107259428D01*
X206553571Y-107283238D01*
X206505952Y-107307047D01*
X206410714Y-107330857D01*
X206291666Y-107330857D01*
X206196428Y-107307047D01*
X206148809Y-107283238D01*
X206125000Y-107259428D01*
X206101190Y-107211809D01*
X206101190Y-106592761D02*
X206101190Y-106830857D01*
X206339285Y-106854666D01*
X206315476Y-106830857D01*
X206291666Y-106783238D01*
X206291666Y-106664190D01*
X206315476Y-106616571D01*
X206339285Y-106592761D01*
X206386904Y-106568952D01*
X206505952Y-106568952D01*
X206553571Y-106592761D01*
X206577380Y-106616571D01*
X206601190Y-106664190D01*
X206601190Y-106783238D01*
X206577380Y-106830857D01*
X206553571Y-106854666D01*
X206101190Y-106259428D02*
X206101190Y-106211809D01*
X206125000Y-106164190D01*
X206148809Y-106140380D01*
X206196428Y-106116571D01*
X206291666Y-106092761D01*
X206410714Y-106092761D01*
X206505952Y-106116571D01*
X206553571Y-106140380D01*
X206577380Y-106164190D01*
X206601190Y-106211809D01*
X206601190Y-106259428D01*
X206577380Y-106307047D01*
X206553571Y-106330857D01*
X206505952Y-106354666D01*
X206410714Y-106378476D01*
X206291666Y-106378476D01*
X206196428Y-106354666D01*
X206148809Y-106330857D01*
X206125000Y-106307047D01*
X206101190Y-106259428D01*
X212927380Y-104219238D02*
X212951190Y-104147809D01*
X212951190Y-104028761D01*
X212927380Y-103981142D01*
X212903571Y-103957333D01*
X212855952Y-103933523D01*
X212808333Y-103933523D01*
X212760714Y-103957333D01*
X212736904Y-103981142D01*
X212713095Y-104028761D01*
X212689285Y-104124000D01*
X212665476Y-104171619D01*
X212641666Y-104195428D01*
X212594047Y-104219238D01*
X212546428Y-104219238D01*
X212498809Y-104195428D01*
X212475000Y-104171619D01*
X212451190Y-104124000D01*
X212451190Y-104004952D01*
X212475000Y-103933523D01*
X212665476Y-103647809D02*
X212641666Y-103695428D01*
X212617857Y-103719238D01*
X212570238Y-103743047D01*
X212546428Y-103743047D01*
X212498809Y-103719238D01*
X212475000Y-103695428D01*
X212451190Y-103647809D01*
X212451190Y-103552571D01*
X212475000Y-103504952D01*
X212498809Y-103481142D01*
X212546428Y-103457333D01*
X212570238Y-103457333D01*
X212617857Y-103481142D01*
X212641666Y-103504952D01*
X212665476Y-103552571D01*
X212665476Y-103647809D01*
X212689285Y-103695428D01*
X212713095Y-103719238D01*
X212760714Y-103743047D01*
X212855952Y-103743047D01*
X212903571Y-103719238D01*
X212927380Y-103695428D01*
X212951190Y-103647809D01*
X212951190Y-103552571D01*
X212927380Y-103504952D01*
X212903571Y-103481142D01*
X212855952Y-103457333D01*
X212760714Y-103457333D01*
X212713095Y-103481142D01*
X212689285Y-103504952D01*
X212665476Y-103552571D01*
X212451190Y-103147809D02*
X212451190Y-103100190D01*
X212475000Y-103052571D01*
X212498809Y-103028761D01*
X212546428Y-103004952D01*
X212641666Y-102981142D01*
X212760714Y-102981142D01*
X212855952Y-103004952D01*
X212903571Y-103028761D01*
X212927380Y-103052571D01*
X212951190Y-103100190D01*
X212951190Y-103147809D01*
X212927380Y-103195428D01*
X212903571Y-103219238D01*
X212855952Y-103243047D01*
X212760714Y-103266857D01*
X212641666Y-103266857D01*
X212546428Y-103243047D01*
X212498809Y-103219238D01*
X212475000Y-103195428D01*
X212451190Y-103147809D01*
X212451190Y-102528761D02*
X212451190Y-102766857D01*
X212689285Y-102790666D01*
X212665476Y-102766857D01*
X212641666Y-102719238D01*
X212641666Y-102600190D01*
X212665476Y-102552571D01*
X212689285Y-102528761D01*
X212736904Y-102504952D01*
X212855952Y-102504952D01*
X212903571Y-102528761D01*
X212927380Y-102552571D01*
X212951190Y-102600190D01*
X212951190Y-102719238D01*
X212927380Y-102766857D01*
X212903571Y-102790666D01*
X212451190Y-102195428D02*
X212451190Y-102147809D01*
X212475000Y-102100190D01*
X212498809Y-102076380D01*
X212546428Y-102052571D01*
X212641666Y-102028761D01*
X212760714Y-102028761D01*
X212855952Y-102052571D01*
X212903571Y-102076380D01*
X212927380Y-102100190D01*
X212951190Y-102147809D01*
X212951190Y-102195428D01*
X212927380Y-102243047D01*
X212903571Y-102266857D01*
X212855952Y-102290666D01*
X212760714Y-102314476D01*
X212641666Y-102314476D01*
X212546428Y-102290666D01*
X212498809Y-102266857D01*
X212475000Y-102243047D01*
X212451190Y-102195428D01*
X205601428Y-117834285D02*
X205768095Y-117834285D01*
X205839523Y-118096190D02*
X205601428Y-118096190D01*
X205601428Y-117596190D01*
X205839523Y-117596190D01*
X206030000Y-118072380D02*
X206101428Y-118096190D01*
X206220476Y-118096190D01*
X206268095Y-118072380D01*
X206291904Y-118048571D01*
X206315714Y-118000952D01*
X206315714Y-117953333D01*
X206291904Y-117905714D01*
X206268095Y-117881904D01*
X206220476Y-117858095D01*
X206125238Y-117834285D01*
X206077619Y-117810476D01*
X206053809Y-117786666D01*
X206030000Y-117739047D01*
X206030000Y-117691428D01*
X206053809Y-117643809D01*
X206077619Y-117620000D01*
X206125238Y-117596190D01*
X206244285Y-117596190D01*
X206315714Y-117620000D01*
X206530000Y-118096190D02*
X206530000Y-117596190D01*
X206720476Y-117596190D01*
X206768095Y-117620000D01*
X206791904Y-117643809D01*
X206815714Y-117691428D01*
X206815714Y-117762857D01*
X206791904Y-117810476D01*
X206768095Y-117834285D01*
X206720476Y-117858095D01*
X206530000Y-117858095D01*
X206982380Y-117596190D02*
X207291904Y-117596190D01*
X207125238Y-117786666D01*
X207196666Y-117786666D01*
X207244285Y-117810476D01*
X207268095Y-117834285D01*
X207291904Y-117881904D01*
X207291904Y-118000952D01*
X207268095Y-118048571D01*
X207244285Y-118072380D01*
X207196666Y-118096190D01*
X207053809Y-118096190D01*
X207006190Y-118072380D01*
X206982380Y-118048571D01*
X207482380Y-117643809D02*
X207506190Y-117620000D01*
X207553809Y-117596190D01*
X207672857Y-117596190D01*
X207720476Y-117620000D01*
X207744285Y-117643809D01*
X207768095Y-117691428D01*
X207768095Y-117739047D01*
X207744285Y-117810476D01*
X207458571Y-118096190D01*
X207768095Y-118096190D01*
X208363333Y-117596190D02*
X208363333Y-118000952D01*
X208387142Y-118048571D01*
X208410952Y-118072380D01*
X208458571Y-118096190D01*
X208553809Y-118096190D01*
X208601428Y-118072380D01*
X208625238Y-118048571D01*
X208649047Y-118000952D01*
X208649047Y-117596190D01*
X208863333Y-117953333D02*
X209101428Y-117953333D01*
X208815714Y-118096190D02*
X208982380Y-117596190D01*
X209149047Y-118096190D01*
X209601428Y-118096190D02*
X209434761Y-117858095D01*
X209315714Y-118096190D02*
X209315714Y-117596190D01*
X209506190Y-117596190D01*
X209553809Y-117620000D01*
X209577619Y-117643809D01*
X209601428Y-117691428D01*
X209601428Y-117762857D01*
X209577619Y-117810476D01*
X209553809Y-117834285D01*
X209506190Y-117858095D01*
X209315714Y-117858095D01*
X209744285Y-117596190D02*
X210030000Y-117596190D01*
X209887142Y-118096190D02*
X209887142Y-117596190D01*
X187689190Y-102675476D02*
X187689190Y-102913571D01*
X187927285Y-102937380D01*
X187903476Y-102913571D01*
X187879666Y-102865952D01*
X187879666Y-102746904D01*
X187903476Y-102699285D01*
X187927285Y-102675476D01*
X187974904Y-102651666D01*
X188093952Y-102651666D01*
X188141571Y-102675476D01*
X188165380Y-102699285D01*
X188189190Y-102746904D01*
X188189190Y-102865952D01*
X188165380Y-102913571D01*
X188141571Y-102937380D01*
X188141571Y-102437380D02*
X188165380Y-102413571D01*
X188189190Y-102437380D01*
X188165380Y-102461190D01*
X188141571Y-102437380D01*
X188189190Y-102437380D01*
X188189190Y-101937380D02*
X188189190Y-102223095D01*
X188189190Y-102080238D02*
X187689190Y-102080238D01*
X187760619Y-102127857D01*
X187808238Y-102175476D01*
X187832047Y-102223095D01*
X188189190Y-101723095D02*
X187689190Y-101723095D01*
X187998714Y-101675476D02*
X188189190Y-101532619D01*
X187855857Y-101532619D02*
X188046333Y-101723095D01*
X184895190Y-102675476D02*
X184895190Y-102913571D01*
X185133285Y-102937380D01*
X185109476Y-102913571D01*
X185085666Y-102865952D01*
X185085666Y-102746904D01*
X185109476Y-102699285D01*
X185133285Y-102675476D01*
X185180904Y-102651666D01*
X185299952Y-102651666D01*
X185347571Y-102675476D01*
X185371380Y-102699285D01*
X185395190Y-102746904D01*
X185395190Y-102865952D01*
X185371380Y-102913571D01*
X185347571Y-102937380D01*
X185347571Y-102437380D02*
X185371380Y-102413571D01*
X185395190Y-102437380D01*
X185371380Y-102461190D01*
X185347571Y-102437380D01*
X185395190Y-102437380D01*
X185395190Y-101937380D02*
X185395190Y-102223095D01*
X185395190Y-102080238D02*
X184895190Y-102080238D01*
X184966619Y-102127857D01*
X185014238Y-102175476D01*
X185038047Y-102223095D01*
X185395190Y-101723095D02*
X184895190Y-101723095D01*
X185204714Y-101675476D02*
X185395190Y-101532619D01*
X185061857Y-101532619D02*
X185252333Y-101723095D01*
D12*
X216582666Y-110240380D02*
X216582666Y-110954666D01*
X216535047Y-111097523D01*
X216439809Y-111192761D01*
X216296952Y-111240380D01*
X216201714Y-111240380D01*
X217487428Y-110573714D02*
X217487428Y-111240380D01*
X217249333Y-110192761D02*
X217011238Y-110907047D01*
X217630285Y-110907047D01*
X179176761Y-108267333D02*
X179224380Y-108124476D01*
X179224380Y-107886380D01*
X179176761Y-107791142D01*
X179129142Y-107743523D01*
X179033904Y-107695904D01*
X178938666Y-107695904D01*
X178843428Y-107743523D01*
X178795809Y-107791142D01*
X178748190Y-107886380D01*
X178700571Y-108076857D01*
X178652952Y-108172095D01*
X178605333Y-108219714D01*
X178510095Y-108267333D01*
X178414857Y-108267333D01*
X178319619Y-108219714D01*
X178272000Y-108172095D01*
X178224380Y-108076857D01*
X178224380Y-107838761D01*
X178272000Y-107695904D01*
X178224380Y-107362571D02*
X179224380Y-107124476D01*
X178510095Y-106934000D01*
X179224380Y-106743523D01*
X178224380Y-106505428D01*
X179224380Y-105600666D02*
X179224380Y-106172095D01*
X179224380Y-105886380D02*
X178224380Y-105886380D01*
X178367238Y-105981619D01*
X178462476Y-106076857D01*
X178510095Y-106172095D01*
X183181666Y-109392380D02*
X183181666Y-110106666D01*
X183134047Y-110249523D01*
X183038809Y-110344761D01*
X182895952Y-110392380D01*
X182800714Y-110392380D01*
X184181666Y-110392380D02*
X183610238Y-110392380D01*
X183895952Y-110392380D02*
X183895952Y-109392380D01*
X183800714Y-109535238D01*
X183705476Y-109630476D01*
X183610238Y-109678095D01*
M02*
