G04 #@! TF.GenerationSoftware,KiCad,Pcbnew,5.1.4-e60b266~84~ubuntu19.04.1*
G04 #@! TF.CreationDate,2020-02-27T18:00:07+11:00*
G04 #@! TF.ProjectId,esp32_saab_devboard,65737033-325f-4736-9161-625f64657662,rev?*
G04 #@! TF.SameCoordinates,Original*
G04 #@! TF.FileFunction,Paste,Top*
G04 #@! TF.FilePolarity,Positive*
%FSLAX46Y46*%
G04 Gerber Fmt 4.6, Leading zero omitted, Abs format (unit mm)*
G04 Created by KiCad (PCBNEW 5.1.4-e60b266~84~ubuntu19.04.1) date 2020-02-27 18:00:07*
%MOMM*%
%LPD*%
G04 APERTURE LIST*
%ADD10C,0.100000*%
%ADD11C,1.525000*%
%ADD12C,1.150000*%
%ADD13R,0.300000X0.700000*%
%ADD14R,5.000000X5.000000*%
%ADD15R,2.000000X0.900000*%
%ADD16R,0.900000X2.000000*%
%ADD17C,0.900000*%
%ADD18C,0.250000*%
%ADD19R,3.800000X2.000000*%
%ADD20R,1.500000X2.000000*%
%ADD21R,0.800000X1.900000*%
G04 APERTURE END LIST*
D10*
G36*
X176115505Y-100152204D02*
G01*
X176139773Y-100155804D01*
X176163572Y-100161765D01*
X176186671Y-100170030D01*
X176208850Y-100180520D01*
X176229893Y-100193132D01*
X176249599Y-100207747D01*
X176267777Y-100224223D01*
X176284253Y-100242401D01*
X176298868Y-100262107D01*
X176311480Y-100283150D01*
X176321970Y-100305329D01*
X176330235Y-100328428D01*
X176336196Y-100352227D01*
X176339796Y-100376495D01*
X176341000Y-100400999D01*
X176341000Y-102551001D01*
X176339796Y-102575505D01*
X176336196Y-102599773D01*
X176330235Y-102623572D01*
X176321970Y-102646671D01*
X176311480Y-102668850D01*
X176298868Y-102689893D01*
X176284253Y-102709599D01*
X176267777Y-102727777D01*
X176249599Y-102744253D01*
X176229893Y-102758868D01*
X176208850Y-102771480D01*
X176186671Y-102781970D01*
X176163572Y-102790235D01*
X176139773Y-102796196D01*
X176115505Y-102799796D01*
X176091001Y-102801000D01*
X175065999Y-102801000D01*
X175041495Y-102799796D01*
X175017227Y-102796196D01*
X174993428Y-102790235D01*
X174970329Y-102781970D01*
X174948150Y-102771480D01*
X174927107Y-102758868D01*
X174907401Y-102744253D01*
X174889223Y-102727777D01*
X174872747Y-102709599D01*
X174858132Y-102689893D01*
X174845520Y-102668850D01*
X174835030Y-102646671D01*
X174826765Y-102623572D01*
X174820804Y-102599773D01*
X174817204Y-102575505D01*
X174816000Y-102551001D01*
X174816000Y-100400999D01*
X174817204Y-100376495D01*
X174820804Y-100352227D01*
X174826765Y-100328428D01*
X174835030Y-100305329D01*
X174845520Y-100283150D01*
X174858132Y-100262107D01*
X174872747Y-100242401D01*
X174889223Y-100224223D01*
X174907401Y-100207747D01*
X174927107Y-100193132D01*
X174948150Y-100180520D01*
X174970329Y-100170030D01*
X174993428Y-100161765D01*
X175017227Y-100155804D01*
X175041495Y-100152204D01*
X175065999Y-100151000D01*
X176091001Y-100151000D01*
X176115505Y-100152204D01*
X176115505Y-100152204D01*
G37*
D11*
X175578500Y-101476000D03*
D10*
G36*
X180790505Y-100152204D02*
G01*
X180814773Y-100155804D01*
X180838572Y-100161765D01*
X180861671Y-100170030D01*
X180883850Y-100180520D01*
X180904893Y-100193132D01*
X180924599Y-100207747D01*
X180942777Y-100224223D01*
X180959253Y-100242401D01*
X180973868Y-100262107D01*
X180986480Y-100283150D01*
X180996970Y-100305329D01*
X181005235Y-100328428D01*
X181011196Y-100352227D01*
X181014796Y-100376495D01*
X181016000Y-100400999D01*
X181016000Y-102551001D01*
X181014796Y-102575505D01*
X181011196Y-102599773D01*
X181005235Y-102623572D01*
X180996970Y-102646671D01*
X180986480Y-102668850D01*
X180973868Y-102689893D01*
X180959253Y-102709599D01*
X180942777Y-102727777D01*
X180924599Y-102744253D01*
X180904893Y-102758868D01*
X180883850Y-102771480D01*
X180861671Y-102781970D01*
X180838572Y-102790235D01*
X180814773Y-102796196D01*
X180790505Y-102799796D01*
X180766001Y-102801000D01*
X179740999Y-102801000D01*
X179716495Y-102799796D01*
X179692227Y-102796196D01*
X179668428Y-102790235D01*
X179645329Y-102781970D01*
X179623150Y-102771480D01*
X179602107Y-102758868D01*
X179582401Y-102744253D01*
X179564223Y-102727777D01*
X179547747Y-102709599D01*
X179533132Y-102689893D01*
X179520520Y-102668850D01*
X179510030Y-102646671D01*
X179501765Y-102623572D01*
X179495804Y-102599773D01*
X179492204Y-102575505D01*
X179491000Y-102551001D01*
X179491000Y-100400999D01*
X179492204Y-100376495D01*
X179495804Y-100352227D01*
X179501765Y-100328428D01*
X179510030Y-100305329D01*
X179520520Y-100283150D01*
X179533132Y-100262107D01*
X179547747Y-100242401D01*
X179564223Y-100224223D01*
X179582401Y-100207747D01*
X179602107Y-100193132D01*
X179623150Y-100180520D01*
X179645329Y-100170030D01*
X179668428Y-100161765D01*
X179692227Y-100155804D01*
X179716495Y-100152204D01*
X179740999Y-100151000D01*
X180766001Y-100151000D01*
X180790505Y-100152204D01*
X180790505Y-100152204D01*
G37*
D11*
X180253500Y-101476000D03*
D10*
G36*
X200891505Y-108013204D02*
G01*
X200915773Y-108016804D01*
X200939572Y-108022765D01*
X200962671Y-108031030D01*
X200984850Y-108041520D01*
X201005893Y-108054132D01*
X201025599Y-108068747D01*
X201043777Y-108085223D01*
X201060253Y-108103401D01*
X201074868Y-108123107D01*
X201087480Y-108144150D01*
X201097970Y-108166329D01*
X201106235Y-108189428D01*
X201112196Y-108213227D01*
X201115796Y-108237495D01*
X201117000Y-108261999D01*
X201117000Y-109162001D01*
X201115796Y-109186505D01*
X201112196Y-109210773D01*
X201106235Y-109234572D01*
X201097970Y-109257671D01*
X201087480Y-109279850D01*
X201074868Y-109300893D01*
X201060253Y-109320599D01*
X201043777Y-109338777D01*
X201025599Y-109355253D01*
X201005893Y-109369868D01*
X200984850Y-109382480D01*
X200962671Y-109392970D01*
X200939572Y-109401235D01*
X200915773Y-109407196D01*
X200891505Y-109410796D01*
X200867001Y-109412000D01*
X200216999Y-109412000D01*
X200192495Y-109410796D01*
X200168227Y-109407196D01*
X200144428Y-109401235D01*
X200121329Y-109392970D01*
X200099150Y-109382480D01*
X200078107Y-109369868D01*
X200058401Y-109355253D01*
X200040223Y-109338777D01*
X200023747Y-109320599D01*
X200009132Y-109300893D01*
X199996520Y-109279850D01*
X199986030Y-109257671D01*
X199977765Y-109234572D01*
X199971804Y-109210773D01*
X199968204Y-109186505D01*
X199967000Y-109162001D01*
X199967000Y-108261999D01*
X199968204Y-108237495D01*
X199971804Y-108213227D01*
X199977765Y-108189428D01*
X199986030Y-108166329D01*
X199996520Y-108144150D01*
X200009132Y-108123107D01*
X200023747Y-108103401D01*
X200040223Y-108085223D01*
X200058401Y-108068747D01*
X200078107Y-108054132D01*
X200099150Y-108041520D01*
X200121329Y-108031030D01*
X200144428Y-108022765D01*
X200168227Y-108016804D01*
X200192495Y-108013204D01*
X200216999Y-108012000D01*
X200867001Y-108012000D01*
X200891505Y-108013204D01*
X200891505Y-108013204D01*
G37*
D12*
X200542000Y-108712000D03*
D10*
G36*
X198841505Y-108013204D02*
G01*
X198865773Y-108016804D01*
X198889572Y-108022765D01*
X198912671Y-108031030D01*
X198934850Y-108041520D01*
X198955893Y-108054132D01*
X198975599Y-108068747D01*
X198993777Y-108085223D01*
X199010253Y-108103401D01*
X199024868Y-108123107D01*
X199037480Y-108144150D01*
X199047970Y-108166329D01*
X199056235Y-108189428D01*
X199062196Y-108213227D01*
X199065796Y-108237495D01*
X199067000Y-108261999D01*
X199067000Y-109162001D01*
X199065796Y-109186505D01*
X199062196Y-109210773D01*
X199056235Y-109234572D01*
X199047970Y-109257671D01*
X199037480Y-109279850D01*
X199024868Y-109300893D01*
X199010253Y-109320599D01*
X198993777Y-109338777D01*
X198975599Y-109355253D01*
X198955893Y-109369868D01*
X198934850Y-109382480D01*
X198912671Y-109392970D01*
X198889572Y-109401235D01*
X198865773Y-109407196D01*
X198841505Y-109410796D01*
X198817001Y-109412000D01*
X198166999Y-109412000D01*
X198142495Y-109410796D01*
X198118227Y-109407196D01*
X198094428Y-109401235D01*
X198071329Y-109392970D01*
X198049150Y-109382480D01*
X198028107Y-109369868D01*
X198008401Y-109355253D01*
X197990223Y-109338777D01*
X197973747Y-109320599D01*
X197959132Y-109300893D01*
X197946520Y-109279850D01*
X197936030Y-109257671D01*
X197927765Y-109234572D01*
X197921804Y-109210773D01*
X197918204Y-109186505D01*
X197917000Y-109162001D01*
X197917000Y-108261999D01*
X197918204Y-108237495D01*
X197921804Y-108213227D01*
X197927765Y-108189428D01*
X197936030Y-108166329D01*
X197946520Y-108144150D01*
X197959132Y-108123107D01*
X197973747Y-108103401D01*
X197990223Y-108085223D01*
X198008401Y-108068747D01*
X198028107Y-108054132D01*
X198049150Y-108041520D01*
X198071329Y-108031030D01*
X198094428Y-108022765D01*
X198118227Y-108016804D01*
X198142495Y-108013204D01*
X198166999Y-108012000D01*
X198817001Y-108012000D01*
X198841505Y-108013204D01*
X198841505Y-108013204D01*
G37*
D12*
X198492000Y-108712000D03*
D13*
X192250000Y-111230000D03*
X192750000Y-111230000D03*
X193250000Y-111230000D03*
X193750000Y-111230000D03*
X194250000Y-111230000D03*
X194750000Y-111230000D03*
X195250000Y-111230000D03*
X197750000Y-111230000D03*
X196750000Y-111230000D03*
X196250000Y-111230000D03*
X195750000Y-111230000D03*
X197250000Y-111230000D03*
X197500000Y-112930000D03*
X197000000Y-112930000D03*
X196500000Y-112930000D03*
X196000000Y-112930000D03*
X195500000Y-112930000D03*
X195000000Y-112930000D03*
X194500000Y-112930000D03*
X194000000Y-112930000D03*
X193500000Y-112930000D03*
X193000000Y-112930000D03*
X192500000Y-112930000D03*
X192000000Y-112930000D03*
D10*
G36*
X183608505Y-95937204D02*
G01*
X183632773Y-95940804D01*
X183656572Y-95946765D01*
X183679671Y-95955030D01*
X183701850Y-95965520D01*
X183722893Y-95978132D01*
X183742599Y-95992747D01*
X183760777Y-96009223D01*
X183777253Y-96027401D01*
X183791868Y-96047107D01*
X183804480Y-96068150D01*
X183814970Y-96090329D01*
X183823235Y-96113428D01*
X183829196Y-96137227D01*
X183832796Y-96161495D01*
X183834000Y-96185999D01*
X183834000Y-96836001D01*
X183832796Y-96860505D01*
X183829196Y-96884773D01*
X183823235Y-96908572D01*
X183814970Y-96931671D01*
X183804480Y-96953850D01*
X183791868Y-96974893D01*
X183777253Y-96994599D01*
X183760777Y-97012777D01*
X183742599Y-97029253D01*
X183722893Y-97043868D01*
X183701850Y-97056480D01*
X183679671Y-97066970D01*
X183656572Y-97075235D01*
X183632773Y-97081196D01*
X183608505Y-97084796D01*
X183584001Y-97086000D01*
X182683999Y-97086000D01*
X182659495Y-97084796D01*
X182635227Y-97081196D01*
X182611428Y-97075235D01*
X182588329Y-97066970D01*
X182566150Y-97056480D01*
X182545107Y-97043868D01*
X182525401Y-97029253D01*
X182507223Y-97012777D01*
X182490747Y-96994599D01*
X182476132Y-96974893D01*
X182463520Y-96953850D01*
X182453030Y-96931671D01*
X182444765Y-96908572D01*
X182438804Y-96884773D01*
X182435204Y-96860505D01*
X182434000Y-96836001D01*
X182434000Y-96185999D01*
X182435204Y-96161495D01*
X182438804Y-96137227D01*
X182444765Y-96113428D01*
X182453030Y-96090329D01*
X182463520Y-96068150D01*
X182476132Y-96047107D01*
X182490747Y-96027401D01*
X182507223Y-96009223D01*
X182525401Y-95992747D01*
X182545107Y-95978132D01*
X182566150Y-95965520D01*
X182588329Y-95955030D01*
X182611428Y-95946765D01*
X182635227Y-95940804D01*
X182659495Y-95937204D01*
X182683999Y-95936000D01*
X183584001Y-95936000D01*
X183608505Y-95937204D01*
X183608505Y-95937204D01*
G37*
D12*
X183134000Y-96511000D03*
D10*
G36*
X183608505Y-97987204D02*
G01*
X183632773Y-97990804D01*
X183656572Y-97996765D01*
X183679671Y-98005030D01*
X183701850Y-98015520D01*
X183722893Y-98028132D01*
X183742599Y-98042747D01*
X183760777Y-98059223D01*
X183777253Y-98077401D01*
X183791868Y-98097107D01*
X183804480Y-98118150D01*
X183814970Y-98140329D01*
X183823235Y-98163428D01*
X183829196Y-98187227D01*
X183832796Y-98211495D01*
X183834000Y-98235999D01*
X183834000Y-98886001D01*
X183832796Y-98910505D01*
X183829196Y-98934773D01*
X183823235Y-98958572D01*
X183814970Y-98981671D01*
X183804480Y-99003850D01*
X183791868Y-99024893D01*
X183777253Y-99044599D01*
X183760777Y-99062777D01*
X183742599Y-99079253D01*
X183722893Y-99093868D01*
X183701850Y-99106480D01*
X183679671Y-99116970D01*
X183656572Y-99125235D01*
X183632773Y-99131196D01*
X183608505Y-99134796D01*
X183584001Y-99136000D01*
X182683999Y-99136000D01*
X182659495Y-99134796D01*
X182635227Y-99131196D01*
X182611428Y-99125235D01*
X182588329Y-99116970D01*
X182566150Y-99106480D01*
X182545107Y-99093868D01*
X182525401Y-99079253D01*
X182507223Y-99062777D01*
X182490747Y-99044599D01*
X182476132Y-99024893D01*
X182463520Y-99003850D01*
X182453030Y-98981671D01*
X182444765Y-98958572D01*
X182438804Y-98934773D01*
X182435204Y-98910505D01*
X182434000Y-98886001D01*
X182434000Y-98235999D01*
X182435204Y-98211495D01*
X182438804Y-98187227D01*
X182444765Y-98163428D01*
X182453030Y-98140329D01*
X182463520Y-98118150D01*
X182476132Y-98097107D01*
X182490747Y-98077401D01*
X182507223Y-98059223D01*
X182525401Y-98042747D01*
X182545107Y-98028132D01*
X182566150Y-98015520D01*
X182588329Y-98005030D01*
X182611428Y-97996765D01*
X182635227Y-97990804D01*
X182659495Y-97987204D01*
X182683999Y-97986000D01*
X183584001Y-97986000D01*
X183608505Y-97987204D01*
X183608505Y-97987204D01*
G37*
D12*
X183134000Y-98561000D03*
D14*
X194000000Y-87145000D03*
D15*
X186500000Y-79645000D03*
X186500000Y-80915000D03*
X186500000Y-82185000D03*
X186500000Y-83455000D03*
X186500000Y-84725000D03*
X186500000Y-85995000D03*
X186500000Y-87265000D03*
X186500000Y-88535000D03*
X186500000Y-89805000D03*
X186500000Y-91075000D03*
X186500000Y-92345000D03*
X186500000Y-93615000D03*
X186500000Y-94885000D03*
X186500000Y-96155000D03*
D16*
X189285000Y-97155000D03*
X190555000Y-97155000D03*
X191825000Y-97155000D03*
X193095000Y-97155000D03*
X194365000Y-97155000D03*
X195635000Y-97155000D03*
X196905000Y-97155000D03*
X198175000Y-97155000D03*
X199445000Y-97155000D03*
X200715000Y-97155000D03*
D15*
X203500000Y-96155000D03*
X203500000Y-94885000D03*
X203500000Y-93615000D03*
X203500000Y-92345000D03*
X203500000Y-91075000D03*
X203500000Y-89805000D03*
X203500000Y-88535000D03*
X203500000Y-87265000D03*
X203500000Y-85995000D03*
X203500000Y-84725000D03*
X203500000Y-83455000D03*
X203500000Y-82185000D03*
X203500000Y-80915000D03*
X203500000Y-79645000D03*
D10*
G36*
X194127054Y-101936083D02*
G01*
X194148895Y-101939323D01*
X194170314Y-101944688D01*
X194191104Y-101952127D01*
X194211064Y-101961568D01*
X194230003Y-101972919D01*
X194247738Y-101986073D01*
X194264099Y-102000901D01*
X194278927Y-102017262D01*
X194292081Y-102034997D01*
X194303432Y-102053936D01*
X194312873Y-102073896D01*
X194320312Y-102094686D01*
X194325677Y-102116105D01*
X194328917Y-102137946D01*
X194330000Y-102160000D01*
X194330000Y-102610000D01*
X194328917Y-102632054D01*
X194325677Y-102653895D01*
X194320312Y-102675314D01*
X194312873Y-102696104D01*
X194303432Y-102716064D01*
X194292081Y-102735003D01*
X194278927Y-102752738D01*
X194264099Y-102769099D01*
X194247738Y-102783927D01*
X194230003Y-102797081D01*
X194211064Y-102808432D01*
X194191104Y-102817873D01*
X194170314Y-102825312D01*
X194148895Y-102830677D01*
X194127054Y-102833917D01*
X194105000Y-102835000D01*
X193655000Y-102835000D01*
X193632946Y-102833917D01*
X193611105Y-102830677D01*
X193589686Y-102825312D01*
X193568896Y-102817873D01*
X193548936Y-102808432D01*
X193529997Y-102797081D01*
X193512262Y-102783927D01*
X193495901Y-102769099D01*
X193481073Y-102752738D01*
X193467919Y-102735003D01*
X193456568Y-102716064D01*
X193447127Y-102696104D01*
X193439688Y-102675314D01*
X193434323Y-102653895D01*
X193431083Y-102632054D01*
X193430000Y-102610000D01*
X193430000Y-102160000D01*
X193431083Y-102137946D01*
X193434323Y-102116105D01*
X193439688Y-102094686D01*
X193447127Y-102073896D01*
X193456568Y-102053936D01*
X193467919Y-102034997D01*
X193481073Y-102017262D01*
X193495901Y-102000901D01*
X193512262Y-101986073D01*
X193529997Y-101972919D01*
X193548936Y-101961568D01*
X193568896Y-101952127D01*
X193589686Y-101944688D01*
X193611105Y-101939323D01*
X193632946Y-101936083D01*
X193655000Y-101935000D01*
X194105000Y-101935000D01*
X194127054Y-101936083D01*
X194127054Y-101936083D01*
G37*
D17*
X193880000Y-102385000D03*
D10*
G36*
X194127054Y-103056083D02*
G01*
X194148895Y-103059323D01*
X194170314Y-103064688D01*
X194191104Y-103072127D01*
X194211064Y-103081568D01*
X194230003Y-103092919D01*
X194247738Y-103106073D01*
X194264099Y-103120901D01*
X194278927Y-103137262D01*
X194292081Y-103154997D01*
X194303432Y-103173936D01*
X194312873Y-103193896D01*
X194320312Y-103214686D01*
X194325677Y-103236105D01*
X194328917Y-103257946D01*
X194330000Y-103280000D01*
X194330000Y-103730000D01*
X194328917Y-103752054D01*
X194325677Y-103773895D01*
X194320312Y-103795314D01*
X194312873Y-103816104D01*
X194303432Y-103836064D01*
X194292081Y-103855003D01*
X194278927Y-103872738D01*
X194264099Y-103889099D01*
X194247738Y-103903927D01*
X194230003Y-103917081D01*
X194211064Y-103928432D01*
X194191104Y-103937873D01*
X194170314Y-103945312D01*
X194148895Y-103950677D01*
X194127054Y-103953917D01*
X194105000Y-103955000D01*
X193655000Y-103955000D01*
X193632946Y-103953917D01*
X193611105Y-103950677D01*
X193589686Y-103945312D01*
X193568896Y-103937873D01*
X193548936Y-103928432D01*
X193529997Y-103917081D01*
X193512262Y-103903927D01*
X193495901Y-103889099D01*
X193481073Y-103872738D01*
X193467919Y-103855003D01*
X193456568Y-103836064D01*
X193447127Y-103816104D01*
X193439688Y-103795314D01*
X193434323Y-103773895D01*
X193431083Y-103752054D01*
X193430000Y-103730000D01*
X193430000Y-103280000D01*
X193431083Y-103257946D01*
X193434323Y-103236105D01*
X193439688Y-103214686D01*
X193447127Y-103193896D01*
X193456568Y-103173936D01*
X193467919Y-103154997D01*
X193481073Y-103137262D01*
X193495901Y-103120901D01*
X193512262Y-103106073D01*
X193529997Y-103092919D01*
X193548936Y-103081568D01*
X193568896Y-103072127D01*
X193589686Y-103064688D01*
X193611105Y-103059323D01*
X193632946Y-103056083D01*
X193655000Y-103055000D01*
X194105000Y-103055000D01*
X194127054Y-103056083D01*
X194127054Y-103056083D01*
G37*
D17*
X193880000Y-103505000D03*
D10*
G36*
X194127054Y-104176083D02*
G01*
X194148895Y-104179323D01*
X194170314Y-104184688D01*
X194191104Y-104192127D01*
X194211064Y-104201568D01*
X194230003Y-104212919D01*
X194247738Y-104226073D01*
X194264099Y-104240901D01*
X194278927Y-104257262D01*
X194292081Y-104274997D01*
X194303432Y-104293936D01*
X194312873Y-104313896D01*
X194320312Y-104334686D01*
X194325677Y-104356105D01*
X194328917Y-104377946D01*
X194330000Y-104400000D01*
X194330000Y-104850000D01*
X194328917Y-104872054D01*
X194325677Y-104893895D01*
X194320312Y-104915314D01*
X194312873Y-104936104D01*
X194303432Y-104956064D01*
X194292081Y-104975003D01*
X194278927Y-104992738D01*
X194264099Y-105009099D01*
X194247738Y-105023927D01*
X194230003Y-105037081D01*
X194211064Y-105048432D01*
X194191104Y-105057873D01*
X194170314Y-105065312D01*
X194148895Y-105070677D01*
X194127054Y-105073917D01*
X194105000Y-105075000D01*
X193655000Y-105075000D01*
X193632946Y-105073917D01*
X193611105Y-105070677D01*
X193589686Y-105065312D01*
X193568896Y-105057873D01*
X193548936Y-105048432D01*
X193529997Y-105037081D01*
X193512262Y-105023927D01*
X193495901Y-105009099D01*
X193481073Y-104992738D01*
X193467919Y-104975003D01*
X193456568Y-104956064D01*
X193447127Y-104936104D01*
X193439688Y-104915314D01*
X193434323Y-104893895D01*
X193431083Y-104872054D01*
X193430000Y-104850000D01*
X193430000Y-104400000D01*
X193431083Y-104377946D01*
X193434323Y-104356105D01*
X193439688Y-104334686D01*
X193447127Y-104313896D01*
X193456568Y-104293936D01*
X193467919Y-104274997D01*
X193481073Y-104257262D01*
X193495901Y-104240901D01*
X193512262Y-104226073D01*
X193529997Y-104212919D01*
X193548936Y-104201568D01*
X193568896Y-104192127D01*
X193589686Y-104184688D01*
X193611105Y-104179323D01*
X193632946Y-104176083D01*
X193655000Y-104175000D01*
X194105000Y-104175000D01*
X194127054Y-104176083D01*
X194127054Y-104176083D01*
G37*
D17*
X193880000Y-104625000D03*
D10*
G36*
X195247054Y-101936083D02*
G01*
X195268895Y-101939323D01*
X195290314Y-101944688D01*
X195311104Y-101952127D01*
X195331064Y-101961568D01*
X195350003Y-101972919D01*
X195367738Y-101986073D01*
X195384099Y-102000901D01*
X195398927Y-102017262D01*
X195412081Y-102034997D01*
X195423432Y-102053936D01*
X195432873Y-102073896D01*
X195440312Y-102094686D01*
X195445677Y-102116105D01*
X195448917Y-102137946D01*
X195450000Y-102160000D01*
X195450000Y-102610000D01*
X195448917Y-102632054D01*
X195445677Y-102653895D01*
X195440312Y-102675314D01*
X195432873Y-102696104D01*
X195423432Y-102716064D01*
X195412081Y-102735003D01*
X195398927Y-102752738D01*
X195384099Y-102769099D01*
X195367738Y-102783927D01*
X195350003Y-102797081D01*
X195331064Y-102808432D01*
X195311104Y-102817873D01*
X195290314Y-102825312D01*
X195268895Y-102830677D01*
X195247054Y-102833917D01*
X195225000Y-102835000D01*
X194775000Y-102835000D01*
X194752946Y-102833917D01*
X194731105Y-102830677D01*
X194709686Y-102825312D01*
X194688896Y-102817873D01*
X194668936Y-102808432D01*
X194649997Y-102797081D01*
X194632262Y-102783927D01*
X194615901Y-102769099D01*
X194601073Y-102752738D01*
X194587919Y-102735003D01*
X194576568Y-102716064D01*
X194567127Y-102696104D01*
X194559688Y-102675314D01*
X194554323Y-102653895D01*
X194551083Y-102632054D01*
X194550000Y-102610000D01*
X194550000Y-102160000D01*
X194551083Y-102137946D01*
X194554323Y-102116105D01*
X194559688Y-102094686D01*
X194567127Y-102073896D01*
X194576568Y-102053936D01*
X194587919Y-102034997D01*
X194601073Y-102017262D01*
X194615901Y-102000901D01*
X194632262Y-101986073D01*
X194649997Y-101972919D01*
X194668936Y-101961568D01*
X194688896Y-101952127D01*
X194709686Y-101944688D01*
X194731105Y-101939323D01*
X194752946Y-101936083D01*
X194775000Y-101935000D01*
X195225000Y-101935000D01*
X195247054Y-101936083D01*
X195247054Y-101936083D01*
G37*
D17*
X195000000Y-102385000D03*
D10*
G36*
X195247054Y-103056083D02*
G01*
X195268895Y-103059323D01*
X195290314Y-103064688D01*
X195311104Y-103072127D01*
X195331064Y-103081568D01*
X195350003Y-103092919D01*
X195367738Y-103106073D01*
X195384099Y-103120901D01*
X195398927Y-103137262D01*
X195412081Y-103154997D01*
X195423432Y-103173936D01*
X195432873Y-103193896D01*
X195440312Y-103214686D01*
X195445677Y-103236105D01*
X195448917Y-103257946D01*
X195450000Y-103280000D01*
X195450000Y-103730000D01*
X195448917Y-103752054D01*
X195445677Y-103773895D01*
X195440312Y-103795314D01*
X195432873Y-103816104D01*
X195423432Y-103836064D01*
X195412081Y-103855003D01*
X195398927Y-103872738D01*
X195384099Y-103889099D01*
X195367738Y-103903927D01*
X195350003Y-103917081D01*
X195331064Y-103928432D01*
X195311104Y-103937873D01*
X195290314Y-103945312D01*
X195268895Y-103950677D01*
X195247054Y-103953917D01*
X195225000Y-103955000D01*
X194775000Y-103955000D01*
X194752946Y-103953917D01*
X194731105Y-103950677D01*
X194709686Y-103945312D01*
X194688896Y-103937873D01*
X194668936Y-103928432D01*
X194649997Y-103917081D01*
X194632262Y-103903927D01*
X194615901Y-103889099D01*
X194601073Y-103872738D01*
X194587919Y-103855003D01*
X194576568Y-103836064D01*
X194567127Y-103816104D01*
X194559688Y-103795314D01*
X194554323Y-103773895D01*
X194551083Y-103752054D01*
X194550000Y-103730000D01*
X194550000Y-103280000D01*
X194551083Y-103257946D01*
X194554323Y-103236105D01*
X194559688Y-103214686D01*
X194567127Y-103193896D01*
X194576568Y-103173936D01*
X194587919Y-103154997D01*
X194601073Y-103137262D01*
X194615901Y-103120901D01*
X194632262Y-103106073D01*
X194649997Y-103092919D01*
X194668936Y-103081568D01*
X194688896Y-103072127D01*
X194709686Y-103064688D01*
X194731105Y-103059323D01*
X194752946Y-103056083D01*
X194775000Y-103055000D01*
X195225000Y-103055000D01*
X195247054Y-103056083D01*
X195247054Y-103056083D01*
G37*
D17*
X195000000Y-103505000D03*
D10*
G36*
X195247054Y-104176083D02*
G01*
X195268895Y-104179323D01*
X195290314Y-104184688D01*
X195311104Y-104192127D01*
X195331064Y-104201568D01*
X195350003Y-104212919D01*
X195367738Y-104226073D01*
X195384099Y-104240901D01*
X195398927Y-104257262D01*
X195412081Y-104274997D01*
X195423432Y-104293936D01*
X195432873Y-104313896D01*
X195440312Y-104334686D01*
X195445677Y-104356105D01*
X195448917Y-104377946D01*
X195450000Y-104400000D01*
X195450000Y-104850000D01*
X195448917Y-104872054D01*
X195445677Y-104893895D01*
X195440312Y-104915314D01*
X195432873Y-104936104D01*
X195423432Y-104956064D01*
X195412081Y-104975003D01*
X195398927Y-104992738D01*
X195384099Y-105009099D01*
X195367738Y-105023927D01*
X195350003Y-105037081D01*
X195331064Y-105048432D01*
X195311104Y-105057873D01*
X195290314Y-105065312D01*
X195268895Y-105070677D01*
X195247054Y-105073917D01*
X195225000Y-105075000D01*
X194775000Y-105075000D01*
X194752946Y-105073917D01*
X194731105Y-105070677D01*
X194709686Y-105065312D01*
X194688896Y-105057873D01*
X194668936Y-105048432D01*
X194649997Y-105037081D01*
X194632262Y-105023927D01*
X194615901Y-105009099D01*
X194601073Y-104992738D01*
X194587919Y-104975003D01*
X194576568Y-104956064D01*
X194567127Y-104936104D01*
X194559688Y-104915314D01*
X194554323Y-104893895D01*
X194551083Y-104872054D01*
X194550000Y-104850000D01*
X194550000Y-104400000D01*
X194551083Y-104377946D01*
X194554323Y-104356105D01*
X194559688Y-104334686D01*
X194567127Y-104313896D01*
X194576568Y-104293936D01*
X194587919Y-104274997D01*
X194601073Y-104257262D01*
X194615901Y-104240901D01*
X194632262Y-104226073D01*
X194649997Y-104212919D01*
X194668936Y-104201568D01*
X194688896Y-104192127D01*
X194709686Y-104184688D01*
X194731105Y-104179323D01*
X194752946Y-104176083D01*
X194775000Y-104175000D01*
X195225000Y-104175000D01*
X195247054Y-104176083D01*
X195247054Y-104176083D01*
G37*
D17*
X195000000Y-104625000D03*
D10*
G36*
X196367054Y-101936083D02*
G01*
X196388895Y-101939323D01*
X196410314Y-101944688D01*
X196431104Y-101952127D01*
X196451064Y-101961568D01*
X196470003Y-101972919D01*
X196487738Y-101986073D01*
X196504099Y-102000901D01*
X196518927Y-102017262D01*
X196532081Y-102034997D01*
X196543432Y-102053936D01*
X196552873Y-102073896D01*
X196560312Y-102094686D01*
X196565677Y-102116105D01*
X196568917Y-102137946D01*
X196570000Y-102160000D01*
X196570000Y-102610000D01*
X196568917Y-102632054D01*
X196565677Y-102653895D01*
X196560312Y-102675314D01*
X196552873Y-102696104D01*
X196543432Y-102716064D01*
X196532081Y-102735003D01*
X196518927Y-102752738D01*
X196504099Y-102769099D01*
X196487738Y-102783927D01*
X196470003Y-102797081D01*
X196451064Y-102808432D01*
X196431104Y-102817873D01*
X196410314Y-102825312D01*
X196388895Y-102830677D01*
X196367054Y-102833917D01*
X196345000Y-102835000D01*
X195895000Y-102835000D01*
X195872946Y-102833917D01*
X195851105Y-102830677D01*
X195829686Y-102825312D01*
X195808896Y-102817873D01*
X195788936Y-102808432D01*
X195769997Y-102797081D01*
X195752262Y-102783927D01*
X195735901Y-102769099D01*
X195721073Y-102752738D01*
X195707919Y-102735003D01*
X195696568Y-102716064D01*
X195687127Y-102696104D01*
X195679688Y-102675314D01*
X195674323Y-102653895D01*
X195671083Y-102632054D01*
X195670000Y-102610000D01*
X195670000Y-102160000D01*
X195671083Y-102137946D01*
X195674323Y-102116105D01*
X195679688Y-102094686D01*
X195687127Y-102073896D01*
X195696568Y-102053936D01*
X195707919Y-102034997D01*
X195721073Y-102017262D01*
X195735901Y-102000901D01*
X195752262Y-101986073D01*
X195769997Y-101972919D01*
X195788936Y-101961568D01*
X195808896Y-101952127D01*
X195829686Y-101944688D01*
X195851105Y-101939323D01*
X195872946Y-101936083D01*
X195895000Y-101935000D01*
X196345000Y-101935000D01*
X196367054Y-101936083D01*
X196367054Y-101936083D01*
G37*
D17*
X196120000Y-102385000D03*
D10*
G36*
X196367054Y-103056083D02*
G01*
X196388895Y-103059323D01*
X196410314Y-103064688D01*
X196431104Y-103072127D01*
X196451064Y-103081568D01*
X196470003Y-103092919D01*
X196487738Y-103106073D01*
X196504099Y-103120901D01*
X196518927Y-103137262D01*
X196532081Y-103154997D01*
X196543432Y-103173936D01*
X196552873Y-103193896D01*
X196560312Y-103214686D01*
X196565677Y-103236105D01*
X196568917Y-103257946D01*
X196570000Y-103280000D01*
X196570000Y-103730000D01*
X196568917Y-103752054D01*
X196565677Y-103773895D01*
X196560312Y-103795314D01*
X196552873Y-103816104D01*
X196543432Y-103836064D01*
X196532081Y-103855003D01*
X196518927Y-103872738D01*
X196504099Y-103889099D01*
X196487738Y-103903927D01*
X196470003Y-103917081D01*
X196451064Y-103928432D01*
X196431104Y-103937873D01*
X196410314Y-103945312D01*
X196388895Y-103950677D01*
X196367054Y-103953917D01*
X196345000Y-103955000D01*
X195895000Y-103955000D01*
X195872946Y-103953917D01*
X195851105Y-103950677D01*
X195829686Y-103945312D01*
X195808896Y-103937873D01*
X195788936Y-103928432D01*
X195769997Y-103917081D01*
X195752262Y-103903927D01*
X195735901Y-103889099D01*
X195721073Y-103872738D01*
X195707919Y-103855003D01*
X195696568Y-103836064D01*
X195687127Y-103816104D01*
X195679688Y-103795314D01*
X195674323Y-103773895D01*
X195671083Y-103752054D01*
X195670000Y-103730000D01*
X195670000Y-103280000D01*
X195671083Y-103257946D01*
X195674323Y-103236105D01*
X195679688Y-103214686D01*
X195687127Y-103193896D01*
X195696568Y-103173936D01*
X195707919Y-103154997D01*
X195721073Y-103137262D01*
X195735901Y-103120901D01*
X195752262Y-103106073D01*
X195769997Y-103092919D01*
X195788936Y-103081568D01*
X195808896Y-103072127D01*
X195829686Y-103064688D01*
X195851105Y-103059323D01*
X195872946Y-103056083D01*
X195895000Y-103055000D01*
X196345000Y-103055000D01*
X196367054Y-103056083D01*
X196367054Y-103056083D01*
G37*
D17*
X196120000Y-103505000D03*
D10*
G36*
X196367054Y-104176083D02*
G01*
X196388895Y-104179323D01*
X196410314Y-104184688D01*
X196431104Y-104192127D01*
X196451064Y-104201568D01*
X196470003Y-104212919D01*
X196487738Y-104226073D01*
X196504099Y-104240901D01*
X196518927Y-104257262D01*
X196532081Y-104274997D01*
X196543432Y-104293936D01*
X196552873Y-104313896D01*
X196560312Y-104334686D01*
X196565677Y-104356105D01*
X196568917Y-104377946D01*
X196570000Y-104400000D01*
X196570000Y-104850000D01*
X196568917Y-104872054D01*
X196565677Y-104893895D01*
X196560312Y-104915314D01*
X196552873Y-104936104D01*
X196543432Y-104956064D01*
X196532081Y-104975003D01*
X196518927Y-104992738D01*
X196504099Y-105009099D01*
X196487738Y-105023927D01*
X196470003Y-105037081D01*
X196451064Y-105048432D01*
X196431104Y-105057873D01*
X196410314Y-105065312D01*
X196388895Y-105070677D01*
X196367054Y-105073917D01*
X196345000Y-105075000D01*
X195895000Y-105075000D01*
X195872946Y-105073917D01*
X195851105Y-105070677D01*
X195829686Y-105065312D01*
X195808896Y-105057873D01*
X195788936Y-105048432D01*
X195769997Y-105037081D01*
X195752262Y-105023927D01*
X195735901Y-105009099D01*
X195721073Y-104992738D01*
X195707919Y-104975003D01*
X195696568Y-104956064D01*
X195687127Y-104936104D01*
X195679688Y-104915314D01*
X195674323Y-104893895D01*
X195671083Y-104872054D01*
X195670000Y-104850000D01*
X195670000Y-104400000D01*
X195671083Y-104377946D01*
X195674323Y-104356105D01*
X195679688Y-104334686D01*
X195687127Y-104313896D01*
X195696568Y-104293936D01*
X195707919Y-104274997D01*
X195721073Y-104257262D01*
X195735901Y-104240901D01*
X195752262Y-104226073D01*
X195769997Y-104212919D01*
X195788936Y-104201568D01*
X195808896Y-104192127D01*
X195829686Y-104184688D01*
X195851105Y-104179323D01*
X195872946Y-104176083D01*
X195895000Y-104175000D01*
X196345000Y-104175000D01*
X196367054Y-104176083D01*
X196367054Y-104176083D01*
G37*
D17*
X196120000Y-104625000D03*
D10*
G36*
X192893626Y-101880301D02*
G01*
X192899693Y-101881201D01*
X192905643Y-101882691D01*
X192911418Y-101884758D01*
X192916962Y-101887380D01*
X192922223Y-101890533D01*
X192927150Y-101894187D01*
X192931694Y-101898306D01*
X192935813Y-101902850D01*
X192939467Y-101907777D01*
X192942620Y-101913038D01*
X192945242Y-101918582D01*
X192947309Y-101924357D01*
X192948799Y-101930307D01*
X192949699Y-101936374D01*
X192950000Y-101942500D01*
X192950000Y-102067500D01*
X192949699Y-102073626D01*
X192948799Y-102079693D01*
X192947309Y-102085643D01*
X192945242Y-102091418D01*
X192942620Y-102096962D01*
X192939467Y-102102223D01*
X192935813Y-102107150D01*
X192931694Y-102111694D01*
X192927150Y-102115813D01*
X192922223Y-102119467D01*
X192916962Y-102122620D01*
X192911418Y-102125242D01*
X192905643Y-102127309D01*
X192899693Y-102128799D01*
X192893626Y-102129699D01*
X192887500Y-102130000D01*
X192212500Y-102130000D01*
X192206374Y-102129699D01*
X192200307Y-102128799D01*
X192194357Y-102127309D01*
X192188582Y-102125242D01*
X192183038Y-102122620D01*
X192177777Y-102119467D01*
X192172850Y-102115813D01*
X192168306Y-102111694D01*
X192164187Y-102107150D01*
X192160533Y-102102223D01*
X192157380Y-102096962D01*
X192154758Y-102091418D01*
X192152691Y-102085643D01*
X192151201Y-102079693D01*
X192150301Y-102073626D01*
X192150000Y-102067500D01*
X192150000Y-101942500D01*
X192150301Y-101936374D01*
X192151201Y-101930307D01*
X192152691Y-101924357D01*
X192154758Y-101918582D01*
X192157380Y-101913038D01*
X192160533Y-101907777D01*
X192164187Y-101902850D01*
X192168306Y-101898306D01*
X192172850Y-101894187D01*
X192177777Y-101890533D01*
X192183038Y-101887380D01*
X192188582Y-101884758D01*
X192194357Y-101882691D01*
X192200307Y-101881201D01*
X192206374Y-101880301D01*
X192212500Y-101880000D01*
X192887500Y-101880000D01*
X192893626Y-101880301D01*
X192893626Y-101880301D01*
G37*
D18*
X192550000Y-102005000D03*
D10*
G36*
X192893626Y-102380301D02*
G01*
X192899693Y-102381201D01*
X192905643Y-102382691D01*
X192911418Y-102384758D01*
X192916962Y-102387380D01*
X192922223Y-102390533D01*
X192927150Y-102394187D01*
X192931694Y-102398306D01*
X192935813Y-102402850D01*
X192939467Y-102407777D01*
X192942620Y-102413038D01*
X192945242Y-102418582D01*
X192947309Y-102424357D01*
X192948799Y-102430307D01*
X192949699Y-102436374D01*
X192950000Y-102442500D01*
X192950000Y-102567500D01*
X192949699Y-102573626D01*
X192948799Y-102579693D01*
X192947309Y-102585643D01*
X192945242Y-102591418D01*
X192942620Y-102596962D01*
X192939467Y-102602223D01*
X192935813Y-102607150D01*
X192931694Y-102611694D01*
X192927150Y-102615813D01*
X192922223Y-102619467D01*
X192916962Y-102622620D01*
X192911418Y-102625242D01*
X192905643Y-102627309D01*
X192899693Y-102628799D01*
X192893626Y-102629699D01*
X192887500Y-102630000D01*
X192212500Y-102630000D01*
X192206374Y-102629699D01*
X192200307Y-102628799D01*
X192194357Y-102627309D01*
X192188582Y-102625242D01*
X192183038Y-102622620D01*
X192177777Y-102619467D01*
X192172850Y-102615813D01*
X192168306Y-102611694D01*
X192164187Y-102607150D01*
X192160533Y-102602223D01*
X192157380Y-102596962D01*
X192154758Y-102591418D01*
X192152691Y-102585643D01*
X192151201Y-102579693D01*
X192150301Y-102573626D01*
X192150000Y-102567500D01*
X192150000Y-102442500D01*
X192150301Y-102436374D01*
X192151201Y-102430307D01*
X192152691Y-102424357D01*
X192154758Y-102418582D01*
X192157380Y-102413038D01*
X192160533Y-102407777D01*
X192164187Y-102402850D01*
X192168306Y-102398306D01*
X192172850Y-102394187D01*
X192177777Y-102390533D01*
X192183038Y-102387380D01*
X192188582Y-102384758D01*
X192194357Y-102382691D01*
X192200307Y-102381201D01*
X192206374Y-102380301D01*
X192212500Y-102380000D01*
X192887500Y-102380000D01*
X192893626Y-102380301D01*
X192893626Y-102380301D01*
G37*
D18*
X192550000Y-102505000D03*
D10*
G36*
X192893626Y-102880301D02*
G01*
X192899693Y-102881201D01*
X192905643Y-102882691D01*
X192911418Y-102884758D01*
X192916962Y-102887380D01*
X192922223Y-102890533D01*
X192927150Y-102894187D01*
X192931694Y-102898306D01*
X192935813Y-102902850D01*
X192939467Y-102907777D01*
X192942620Y-102913038D01*
X192945242Y-102918582D01*
X192947309Y-102924357D01*
X192948799Y-102930307D01*
X192949699Y-102936374D01*
X192950000Y-102942500D01*
X192950000Y-103067500D01*
X192949699Y-103073626D01*
X192948799Y-103079693D01*
X192947309Y-103085643D01*
X192945242Y-103091418D01*
X192942620Y-103096962D01*
X192939467Y-103102223D01*
X192935813Y-103107150D01*
X192931694Y-103111694D01*
X192927150Y-103115813D01*
X192922223Y-103119467D01*
X192916962Y-103122620D01*
X192911418Y-103125242D01*
X192905643Y-103127309D01*
X192899693Y-103128799D01*
X192893626Y-103129699D01*
X192887500Y-103130000D01*
X192212500Y-103130000D01*
X192206374Y-103129699D01*
X192200307Y-103128799D01*
X192194357Y-103127309D01*
X192188582Y-103125242D01*
X192183038Y-103122620D01*
X192177777Y-103119467D01*
X192172850Y-103115813D01*
X192168306Y-103111694D01*
X192164187Y-103107150D01*
X192160533Y-103102223D01*
X192157380Y-103096962D01*
X192154758Y-103091418D01*
X192152691Y-103085643D01*
X192151201Y-103079693D01*
X192150301Y-103073626D01*
X192150000Y-103067500D01*
X192150000Y-102942500D01*
X192150301Y-102936374D01*
X192151201Y-102930307D01*
X192152691Y-102924357D01*
X192154758Y-102918582D01*
X192157380Y-102913038D01*
X192160533Y-102907777D01*
X192164187Y-102902850D01*
X192168306Y-102898306D01*
X192172850Y-102894187D01*
X192177777Y-102890533D01*
X192183038Y-102887380D01*
X192188582Y-102884758D01*
X192194357Y-102882691D01*
X192200307Y-102881201D01*
X192206374Y-102880301D01*
X192212500Y-102880000D01*
X192887500Y-102880000D01*
X192893626Y-102880301D01*
X192893626Y-102880301D01*
G37*
D18*
X192550000Y-103005000D03*
D10*
G36*
X192893626Y-103380301D02*
G01*
X192899693Y-103381201D01*
X192905643Y-103382691D01*
X192911418Y-103384758D01*
X192916962Y-103387380D01*
X192922223Y-103390533D01*
X192927150Y-103394187D01*
X192931694Y-103398306D01*
X192935813Y-103402850D01*
X192939467Y-103407777D01*
X192942620Y-103413038D01*
X192945242Y-103418582D01*
X192947309Y-103424357D01*
X192948799Y-103430307D01*
X192949699Y-103436374D01*
X192950000Y-103442500D01*
X192950000Y-103567500D01*
X192949699Y-103573626D01*
X192948799Y-103579693D01*
X192947309Y-103585643D01*
X192945242Y-103591418D01*
X192942620Y-103596962D01*
X192939467Y-103602223D01*
X192935813Y-103607150D01*
X192931694Y-103611694D01*
X192927150Y-103615813D01*
X192922223Y-103619467D01*
X192916962Y-103622620D01*
X192911418Y-103625242D01*
X192905643Y-103627309D01*
X192899693Y-103628799D01*
X192893626Y-103629699D01*
X192887500Y-103630000D01*
X192212500Y-103630000D01*
X192206374Y-103629699D01*
X192200307Y-103628799D01*
X192194357Y-103627309D01*
X192188582Y-103625242D01*
X192183038Y-103622620D01*
X192177777Y-103619467D01*
X192172850Y-103615813D01*
X192168306Y-103611694D01*
X192164187Y-103607150D01*
X192160533Y-103602223D01*
X192157380Y-103596962D01*
X192154758Y-103591418D01*
X192152691Y-103585643D01*
X192151201Y-103579693D01*
X192150301Y-103573626D01*
X192150000Y-103567500D01*
X192150000Y-103442500D01*
X192150301Y-103436374D01*
X192151201Y-103430307D01*
X192152691Y-103424357D01*
X192154758Y-103418582D01*
X192157380Y-103413038D01*
X192160533Y-103407777D01*
X192164187Y-103402850D01*
X192168306Y-103398306D01*
X192172850Y-103394187D01*
X192177777Y-103390533D01*
X192183038Y-103387380D01*
X192188582Y-103384758D01*
X192194357Y-103382691D01*
X192200307Y-103381201D01*
X192206374Y-103380301D01*
X192212500Y-103380000D01*
X192887500Y-103380000D01*
X192893626Y-103380301D01*
X192893626Y-103380301D01*
G37*
D18*
X192550000Y-103505000D03*
D10*
G36*
X192893626Y-103880301D02*
G01*
X192899693Y-103881201D01*
X192905643Y-103882691D01*
X192911418Y-103884758D01*
X192916962Y-103887380D01*
X192922223Y-103890533D01*
X192927150Y-103894187D01*
X192931694Y-103898306D01*
X192935813Y-103902850D01*
X192939467Y-103907777D01*
X192942620Y-103913038D01*
X192945242Y-103918582D01*
X192947309Y-103924357D01*
X192948799Y-103930307D01*
X192949699Y-103936374D01*
X192950000Y-103942500D01*
X192950000Y-104067500D01*
X192949699Y-104073626D01*
X192948799Y-104079693D01*
X192947309Y-104085643D01*
X192945242Y-104091418D01*
X192942620Y-104096962D01*
X192939467Y-104102223D01*
X192935813Y-104107150D01*
X192931694Y-104111694D01*
X192927150Y-104115813D01*
X192922223Y-104119467D01*
X192916962Y-104122620D01*
X192911418Y-104125242D01*
X192905643Y-104127309D01*
X192899693Y-104128799D01*
X192893626Y-104129699D01*
X192887500Y-104130000D01*
X192212500Y-104130000D01*
X192206374Y-104129699D01*
X192200307Y-104128799D01*
X192194357Y-104127309D01*
X192188582Y-104125242D01*
X192183038Y-104122620D01*
X192177777Y-104119467D01*
X192172850Y-104115813D01*
X192168306Y-104111694D01*
X192164187Y-104107150D01*
X192160533Y-104102223D01*
X192157380Y-104096962D01*
X192154758Y-104091418D01*
X192152691Y-104085643D01*
X192151201Y-104079693D01*
X192150301Y-104073626D01*
X192150000Y-104067500D01*
X192150000Y-103942500D01*
X192150301Y-103936374D01*
X192151201Y-103930307D01*
X192152691Y-103924357D01*
X192154758Y-103918582D01*
X192157380Y-103913038D01*
X192160533Y-103907777D01*
X192164187Y-103902850D01*
X192168306Y-103898306D01*
X192172850Y-103894187D01*
X192177777Y-103890533D01*
X192183038Y-103887380D01*
X192188582Y-103884758D01*
X192194357Y-103882691D01*
X192200307Y-103881201D01*
X192206374Y-103880301D01*
X192212500Y-103880000D01*
X192887500Y-103880000D01*
X192893626Y-103880301D01*
X192893626Y-103880301D01*
G37*
D18*
X192550000Y-104005000D03*
D10*
G36*
X192893626Y-104380301D02*
G01*
X192899693Y-104381201D01*
X192905643Y-104382691D01*
X192911418Y-104384758D01*
X192916962Y-104387380D01*
X192922223Y-104390533D01*
X192927150Y-104394187D01*
X192931694Y-104398306D01*
X192935813Y-104402850D01*
X192939467Y-104407777D01*
X192942620Y-104413038D01*
X192945242Y-104418582D01*
X192947309Y-104424357D01*
X192948799Y-104430307D01*
X192949699Y-104436374D01*
X192950000Y-104442500D01*
X192950000Y-104567500D01*
X192949699Y-104573626D01*
X192948799Y-104579693D01*
X192947309Y-104585643D01*
X192945242Y-104591418D01*
X192942620Y-104596962D01*
X192939467Y-104602223D01*
X192935813Y-104607150D01*
X192931694Y-104611694D01*
X192927150Y-104615813D01*
X192922223Y-104619467D01*
X192916962Y-104622620D01*
X192911418Y-104625242D01*
X192905643Y-104627309D01*
X192899693Y-104628799D01*
X192893626Y-104629699D01*
X192887500Y-104630000D01*
X192212500Y-104630000D01*
X192206374Y-104629699D01*
X192200307Y-104628799D01*
X192194357Y-104627309D01*
X192188582Y-104625242D01*
X192183038Y-104622620D01*
X192177777Y-104619467D01*
X192172850Y-104615813D01*
X192168306Y-104611694D01*
X192164187Y-104607150D01*
X192160533Y-104602223D01*
X192157380Y-104596962D01*
X192154758Y-104591418D01*
X192152691Y-104585643D01*
X192151201Y-104579693D01*
X192150301Y-104573626D01*
X192150000Y-104567500D01*
X192150000Y-104442500D01*
X192150301Y-104436374D01*
X192151201Y-104430307D01*
X192152691Y-104424357D01*
X192154758Y-104418582D01*
X192157380Y-104413038D01*
X192160533Y-104407777D01*
X192164187Y-104402850D01*
X192168306Y-104398306D01*
X192172850Y-104394187D01*
X192177777Y-104390533D01*
X192183038Y-104387380D01*
X192188582Y-104384758D01*
X192194357Y-104382691D01*
X192200307Y-104381201D01*
X192206374Y-104380301D01*
X192212500Y-104380000D01*
X192887500Y-104380000D01*
X192893626Y-104380301D01*
X192893626Y-104380301D01*
G37*
D18*
X192550000Y-104505000D03*
D10*
G36*
X192893626Y-104880301D02*
G01*
X192899693Y-104881201D01*
X192905643Y-104882691D01*
X192911418Y-104884758D01*
X192916962Y-104887380D01*
X192922223Y-104890533D01*
X192927150Y-104894187D01*
X192931694Y-104898306D01*
X192935813Y-104902850D01*
X192939467Y-104907777D01*
X192942620Y-104913038D01*
X192945242Y-104918582D01*
X192947309Y-104924357D01*
X192948799Y-104930307D01*
X192949699Y-104936374D01*
X192950000Y-104942500D01*
X192950000Y-105067500D01*
X192949699Y-105073626D01*
X192948799Y-105079693D01*
X192947309Y-105085643D01*
X192945242Y-105091418D01*
X192942620Y-105096962D01*
X192939467Y-105102223D01*
X192935813Y-105107150D01*
X192931694Y-105111694D01*
X192927150Y-105115813D01*
X192922223Y-105119467D01*
X192916962Y-105122620D01*
X192911418Y-105125242D01*
X192905643Y-105127309D01*
X192899693Y-105128799D01*
X192893626Y-105129699D01*
X192887500Y-105130000D01*
X192212500Y-105130000D01*
X192206374Y-105129699D01*
X192200307Y-105128799D01*
X192194357Y-105127309D01*
X192188582Y-105125242D01*
X192183038Y-105122620D01*
X192177777Y-105119467D01*
X192172850Y-105115813D01*
X192168306Y-105111694D01*
X192164187Y-105107150D01*
X192160533Y-105102223D01*
X192157380Y-105096962D01*
X192154758Y-105091418D01*
X192152691Y-105085643D01*
X192151201Y-105079693D01*
X192150301Y-105073626D01*
X192150000Y-105067500D01*
X192150000Y-104942500D01*
X192150301Y-104936374D01*
X192151201Y-104930307D01*
X192152691Y-104924357D01*
X192154758Y-104918582D01*
X192157380Y-104913038D01*
X192160533Y-104907777D01*
X192164187Y-104902850D01*
X192168306Y-104898306D01*
X192172850Y-104894187D01*
X192177777Y-104890533D01*
X192183038Y-104887380D01*
X192188582Y-104884758D01*
X192194357Y-104882691D01*
X192200307Y-104881201D01*
X192206374Y-104880301D01*
X192212500Y-104880000D01*
X192887500Y-104880000D01*
X192893626Y-104880301D01*
X192893626Y-104880301D01*
G37*
D18*
X192550000Y-105005000D03*
D10*
G36*
X193568626Y-105555301D02*
G01*
X193574693Y-105556201D01*
X193580643Y-105557691D01*
X193586418Y-105559758D01*
X193591962Y-105562380D01*
X193597223Y-105565533D01*
X193602150Y-105569187D01*
X193606694Y-105573306D01*
X193610813Y-105577850D01*
X193614467Y-105582777D01*
X193617620Y-105588038D01*
X193620242Y-105593582D01*
X193622309Y-105599357D01*
X193623799Y-105605307D01*
X193624699Y-105611374D01*
X193625000Y-105617500D01*
X193625000Y-106292500D01*
X193624699Y-106298626D01*
X193623799Y-106304693D01*
X193622309Y-106310643D01*
X193620242Y-106316418D01*
X193617620Y-106321962D01*
X193614467Y-106327223D01*
X193610813Y-106332150D01*
X193606694Y-106336694D01*
X193602150Y-106340813D01*
X193597223Y-106344467D01*
X193591962Y-106347620D01*
X193586418Y-106350242D01*
X193580643Y-106352309D01*
X193574693Y-106353799D01*
X193568626Y-106354699D01*
X193562500Y-106355000D01*
X193437500Y-106355000D01*
X193431374Y-106354699D01*
X193425307Y-106353799D01*
X193419357Y-106352309D01*
X193413582Y-106350242D01*
X193408038Y-106347620D01*
X193402777Y-106344467D01*
X193397850Y-106340813D01*
X193393306Y-106336694D01*
X193389187Y-106332150D01*
X193385533Y-106327223D01*
X193382380Y-106321962D01*
X193379758Y-106316418D01*
X193377691Y-106310643D01*
X193376201Y-106304693D01*
X193375301Y-106298626D01*
X193375000Y-106292500D01*
X193375000Y-105617500D01*
X193375301Y-105611374D01*
X193376201Y-105605307D01*
X193377691Y-105599357D01*
X193379758Y-105593582D01*
X193382380Y-105588038D01*
X193385533Y-105582777D01*
X193389187Y-105577850D01*
X193393306Y-105573306D01*
X193397850Y-105569187D01*
X193402777Y-105565533D01*
X193408038Y-105562380D01*
X193413582Y-105559758D01*
X193419357Y-105557691D01*
X193425307Y-105556201D01*
X193431374Y-105555301D01*
X193437500Y-105555000D01*
X193562500Y-105555000D01*
X193568626Y-105555301D01*
X193568626Y-105555301D01*
G37*
D18*
X193500000Y-105955000D03*
D10*
G36*
X194068626Y-105555301D02*
G01*
X194074693Y-105556201D01*
X194080643Y-105557691D01*
X194086418Y-105559758D01*
X194091962Y-105562380D01*
X194097223Y-105565533D01*
X194102150Y-105569187D01*
X194106694Y-105573306D01*
X194110813Y-105577850D01*
X194114467Y-105582777D01*
X194117620Y-105588038D01*
X194120242Y-105593582D01*
X194122309Y-105599357D01*
X194123799Y-105605307D01*
X194124699Y-105611374D01*
X194125000Y-105617500D01*
X194125000Y-106292500D01*
X194124699Y-106298626D01*
X194123799Y-106304693D01*
X194122309Y-106310643D01*
X194120242Y-106316418D01*
X194117620Y-106321962D01*
X194114467Y-106327223D01*
X194110813Y-106332150D01*
X194106694Y-106336694D01*
X194102150Y-106340813D01*
X194097223Y-106344467D01*
X194091962Y-106347620D01*
X194086418Y-106350242D01*
X194080643Y-106352309D01*
X194074693Y-106353799D01*
X194068626Y-106354699D01*
X194062500Y-106355000D01*
X193937500Y-106355000D01*
X193931374Y-106354699D01*
X193925307Y-106353799D01*
X193919357Y-106352309D01*
X193913582Y-106350242D01*
X193908038Y-106347620D01*
X193902777Y-106344467D01*
X193897850Y-106340813D01*
X193893306Y-106336694D01*
X193889187Y-106332150D01*
X193885533Y-106327223D01*
X193882380Y-106321962D01*
X193879758Y-106316418D01*
X193877691Y-106310643D01*
X193876201Y-106304693D01*
X193875301Y-106298626D01*
X193875000Y-106292500D01*
X193875000Y-105617500D01*
X193875301Y-105611374D01*
X193876201Y-105605307D01*
X193877691Y-105599357D01*
X193879758Y-105593582D01*
X193882380Y-105588038D01*
X193885533Y-105582777D01*
X193889187Y-105577850D01*
X193893306Y-105573306D01*
X193897850Y-105569187D01*
X193902777Y-105565533D01*
X193908038Y-105562380D01*
X193913582Y-105559758D01*
X193919357Y-105557691D01*
X193925307Y-105556201D01*
X193931374Y-105555301D01*
X193937500Y-105555000D01*
X194062500Y-105555000D01*
X194068626Y-105555301D01*
X194068626Y-105555301D01*
G37*
D18*
X194000000Y-105955000D03*
D10*
G36*
X194568626Y-105555301D02*
G01*
X194574693Y-105556201D01*
X194580643Y-105557691D01*
X194586418Y-105559758D01*
X194591962Y-105562380D01*
X194597223Y-105565533D01*
X194602150Y-105569187D01*
X194606694Y-105573306D01*
X194610813Y-105577850D01*
X194614467Y-105582777D01*
X194617620Y-105588038D01*
X194620242Y-105593582D01*
X194622309Y-105599357D01*
X194623799Y-105605307D01*
X194624699Y-105611374D01*
X194625000Y-105617500D01*
X194625000Y-106292500D01*
X194624699Y-106298626D01*
X194623799Y-106304693D01*
X194622309Y-106310643D01*
X194620242Y-106316418D01*
X194617620Y-106321962D01*
X194614467Y-106327223D01*
X194610813Y-106332150D01*
X194606694Y-106336694D01*
X194602150Y-106340813D01*
X194597223Y-106344467D01*
X194591962Y-106347620D01*
X194586418Y-106350242D01*
X194580643Y-106352309D01*
X194574693Y-106353799D01*
X194568626Y-106354699D01*
X194562500Y-106355000D01*
X194437500Y-106355000D01*
X194431374Y-106354699D01*
X194425307Y-106353799D01*
X194419357Y-106352309D01*
X194413582Y-106350242D01*
X194408038Y-106347620D01*
X194402777Y-106344467D01*
X194397850Y-106340813D01*
X194393306Y-106336694D01*
X194389187Y-106332150D01*
X194385533Y-106327223D01*
X194382380Y-106321962D01*
X194379758Y-106316418D01*
X194377691Y-106310643D01*
X194376201Y-106304693D01*
X194375301Y-106298626D01*
X194375000Y-106292500D01*
X194375000Y-105617500D01*
X194375301Y-105611374D01*
X194376201Y-105605307D01*
X194377691Y-105599357D01*
X194379758Y-105593582D01*
X194382380Y-105588038D01*
X194385533Y-105582777D01*
X194389187Y-105577850D01*
X194393306Y-105573306D01*
X194397850Y-105569187D01*
X194402777Y-105565533D01*
X194408038Y-105562380D01*
X194413582Y-105559758D01*
X194419357Y-105557691D01*
X194425307Y-105556201D01*
X194431374Y-105555301D01*
X194437500Y-105555000D01*
X194562500Y-105555000D01*
X194568626Y-105555301D01*
X194568626Y-105555301D01*
G37*
D18*
X194500000Y-105955000D03*
D10*
G36*
X195068626Y-105555301D02*
G01*
X195074693Y-105556201D01*
X195080643Y-105557691D01*
X195086418Y-105559758D01*
X195091962Y-105562380D01*
X195097223Y-105565533D01*
X195102150Y-105569187D01*
X195106694Y-105573306D01*
X195110813Y-105577850D01*
X195114467Y-105582777D01*
X195117620Y-105588038D01*
X195120242Y-105593582D01*
X195122309Y-105599357D01*
X195123799Y-105605307D01*
X195124699Y-105611374D01*
X195125000Y-105617500D01*
X195125000Y-106292500D01*
X195124699Y-106298626D01*
X195123799Y-106304693D01*
X195122309Y-106310643D01*
X195120242Y-106316418D01*
X195117620Y-106321962D01*
X195114467Y-106327223D01*
X195110813Y-106332150D01*
X195106694Y-106336694D01*
X195102150Y-106340813D01*
X195097223Y-106344467D01*
X195091962Y-106347620D01*
X195086418Y-106350242D01*
X195080643Y-106352309D01*
X195074693Y-106353799D01*
X195068626Y-106354699D01*
X195062500Y-106355000D01*
X194937500Y-106355000D01*
X194931374Y-106354699D01*
X194925307Y-106353799D01*
X194919357Y-106352309D01*
X194913582Y-106350242D01*
X194908038Y-106347620D01*
X194902777Y-106344467D01*
X194897850Y-106340813D01*
X194893306Y-106336694D01*
X194889187Y-106332150D01*
X194885533Y-106327223D01*
X194882380Y-106321962D01*
X194879758Y-106316418D01*
X194877691Y-106310643D01*
X194876201Y-106304693D01*
X194875301Y-106298626D01*
X194875000Y-106292500D01*
X194875000Y-105617500D01*
X194875301Y-105611374D01*
X194876201Y-105605307D01*
X194877691Y-105599357D01*
X194879758Y-105593582D01*
X194882380Y-105588038D01*
X194885533Y-105582777D01*
X194889187Y-105577850D01*
X194893306Y-105573306D01*
X194897850Y-105569187D01*
X194902777Y-105565533D01*
X194908038Y-105562380D01*
X194913582Y-105559758D01*
X194919357Y-105557691D01*
X194925307Y-105556201D01*
X194931374Y-105555301D01*
X194937500Y-105555000D01*
X195062500Y-105555000D01*
X195068626Y-105555301D01*
X195068626Y-105555301D01*
G37*
D18*
X195000000Y-105955000D03*
D10*
G36*
X195568626Y-105555301D02*
G01*
X195574693Y-105556201D01*
X195580643Y-105557691D01*
X195586418Y-105559758D01*
X195591962Y-105562380D01*
X195597223Y-105565533D01*
X195602150Y-105569187D01*
X195606694Y-105573306D01*
X195610813Y-105577850D01*
X195614467Y-105582777D01*
X195617620Y-105588038D01*
X195620242Y-105593582D01*
X195622309Y-105599357D01*
X195623799Y-105605307D01*
X195624699Y-105611374D01*
X195625000Y-105617500D01*
X195625000Y-106292500D01*
X195624699Y-106298626D01*
X195623799Y-106304693D01*
X195622309Y-106310643D01*
X195620242Y-106316418D01*
X195617620Y-106321962D01*
X195614467Y-106327223D01*
X195610813Y-106332150D01*
X195606694Y-106336694D01*
X195602150Y-106340813D01*
X195597223Y-106344467D01*
X195591962Y-106347620D01*
X195586418Y-106350242D01*
X195580643Y-106352309D01*
X195574693Y-106353799D01*
X195568626Y-106354699D01*
X195562500Y-106355000D01*
X195437500Y-106355000D01*
X195431374Y-106354699D01*
X195425307Y-106353799D01*
X195419357Y-106352309D01*
X195413582Y-106350242D01*
X195408038Y-106347620D01*
X195402777Y-106344467D01*
X195397850Y-106340813D01*
X195393306Y-106336694D01*
X195389187Y-106332150D01*
X195385533Y-106327223D01*
X195382380Y-106321962D01*
X195379758Y-106316418D01*
X195377691Y-106310643D01*
X195376201Y-106304693D01*
X195375301Y-106298626D01*
X195375000Y-106292500D01*
X195375000Y-105617500D01*
X195375301Y-105611374D01*
X195376201Y-105605307D01*
X195377691Y-105599357D01*
X195379758Y-105593582D01*
X195382380Y-105588038D01*
X195385533Y-105582777D01*
X195389187Y-105577850D01*
X195393306Y-105573306D01*
X195397850Y-105569187D01*
X195402777Y-105565533D01*
X195408038Y-105562380D01*
X195413582Y-105559758D01*
X195419357Y-105557691D01*
X195425307Y-105556201D01*
X195431374Y-105555301D01*
X195437500Y-105555000D01*
X195562500Y-105555000D01*
X195568626Y-105555301D01*
X195568626Y-105555301D01*
G37*
D18*
X195500000Y-105955000D03*
D10*
G36*
X196068626Y-105555301D02*
G01*
X196074693Y-105556201D01*
X196080643Y-105557691D01*
X196086418Y-105559758D01*
X196091962Y-105562380D01*
X196097223Y-105565533D01*
X196102150Y-105569187D01*
X196106694Y-105573306D01*
X196110813Y-105577850D01*
X196114467Y-105582777D01*
X196117620Y-105588038D01*
X196120242Y-105593582D01*
X196122309Y-105599357D01*
X196123799Y-105605307D01*
X196124699Y-105611374D01*
X196125000Y-105617500D01*
X196125000Y-106292500D01*
X196124699Y-106298626D01*
X196123799Y-106304693D01*
X196122309Y-106310643D01*
X196120242Y-106316418D01*
X196117620Y-106321962D01*
X196114467Y-106327223D01*
X196110813Y-106332150D01*
X196106694Y-106336694D01*
X196102150Y-106340813D01*
X196097223Y-106344467D01*
X196091962Y-106347620D01*
X196086418Y-106350242D01*
X196080643Y-106352309D01*
X196074693Y-106353799D01*
X196068626Y-106354699D01*
X196062500Y-106355000D01*
X195937500Y-106355000D01*
X195931374Y-106354699D01*
X195925307Y-106353799D01*
X195919357Y-106352309D01*
X195913582Y-106350242D01*
X195908038Y-106347620D01*
X195902777Y-106344467D01*
X195897850Y-106340813D01*
X195893306Y-106336694D01*
X195889187Y-106332150D01*
X195885533Y-106327223D01*
X195882380Y-106321962D01*
X195879758Y-106316418D01*
X195877691Y-106310643D01*
X195876201Y-106304693D01*
X195875301Y-106298626D01*
X195875000Y-106292500D01*
X195875000Y-105617500D01*
X195875301Y-105611374D01*
X195876201Y-105605307D01*
X195877691Y-105599357D01*
X195879758Y-105593582D01*
X195882380Y-105588038D01*
X195885533Y-105582777D01*
X195889187Y-105577850D01*
X195893306Y-105573306D01*
X195897850Y-105569187D01*
X195902777Y-105565533D01*
X195908038Y-105562380D01*
X195913582Y-105559758D01*
X195919357Y-105557691D01*
X195925307Y-105556201D01*
X195931374Y-105555301D01*
X195937500Y-105555000D01*
X196062500Y-105555000D01*
X196068626Y-105555301D01*
X196068626Y-105555301D01*
G37*
D18*
X196000000Y-105955000D03*
D10*
G36*
X196568626Y-105555301D02*
G01*
X196574693Y-105556201D01*
X196580643Y-105557691D01*
X196586418Y-105559758D01*
X196591962Y-105562380D01*
X196597223Y-105565533D01*
X196602150Y-105569187D01*
X196606694Y-105573306D01*
X196610813Y-105577850D01*
X196614467Y-105582777D01*
X196617620Y-105588038D01*
X196620242Y-105593582D01*
X196622309Y-105599357D01*
X196623799Y-105605307D01*
X196624699Y-105611374D01*
X196625000Y-105617500D01*
X196625000Y-106292500D01*
X196624699Y-106298626D01*
X196623799Y-106304693D01*
X196622309Y-106310643D01*
X196620242Y-106316418D01*
X196617620Y-106321962D01*
X196614467Y-106327223D01*
X196610813Y-106332150D01*
X196606694Y-106336694D01*
X196602150Y-106340813D01*
X196597223Y-106344467D01*
X196591962Y-106347620D01*
X196586418Y-106350242D01*
X196580643Y-106352309D01*
X196574693Y-106353799D01*
X196568626Y-106354699D01*
X196562500Y-106355000D01*
X196437500Y-106355000D01*
X196431374Y-106354699D01*
X196425307Y-106353799D01*
X196419357Y-106352309D01*
X196413582Y-106350242D01*
X196408038Y-106347620D01*
X196402777Y-106344467D01*
X196397850Y-106340813D01*
X196393306Y-106336694D01*
X196389187Y-106332150D01*
X196385533Y-106327223D01*
X196382380Y-106321962D01*
X196379758Y-106316418D01*
X196377691Y-106310643D01*
X196376201Y-106304693D01*
X196375301Y-106298626D01*
X196375000Y-106292500D01*
X196375000Y-105617500D01*
X196375301Y-105611374D01*
X196376201Y-105605307D01*
X196377691Y-105599357D01*
X196379758Y-105593582D01*
X196382380Y-105588038D01*
X196385533Y-105582777D01*
X196389187Y-105577850D01*
X196393306Y-105573306D01*
X196397850Y-105569187D01*
X196402777Y-105565533D01*
X196408038Y-105562380D01*
X196413582Y-105559758D01*
X196419357Y-105557691D01*
X196425307Y-105556201D01*
X196431374Y-105555301D01*
X196437500Y-105555000D01*
X196562500Y-105555000D01*
X196568626Y-105555301D01*
X196568626Y-105555301D01*
G37*
D18*
X196500000Y-105955000D03*
D10*
G36*
X197793626Y-104880301D02*
G01*
X197799693Y-104881201D01*
X197805643Y-104882691D01*
X197811418Y-104884758D01*
X197816962Y-104887380D01*
X197822223Y-104890533D01*
X197827150Y-104894187D01*
X197831694Y-104898306D01*
X197835813Y-104902850D01*
X197839467Y-104907777D01*
X197842620Y-104913038D01*
X197845242Y-104918582D01*
X197847309Y-104924357D01*
X197848799Y-104930307D01*
X197849699Y-104936374D01*
X197850000Y-104942500D01*
X197850000Y-105067500D01*
X197849699Y-105073626D01*
X197848799Y-105079693D01*
X197847309Y-105085643D01*
X197845242Y-105091418D01*
X197842620Y-105096962D01*
X197839467Y-105102223D01*
X197835813Y-105107150D01*
X197831694Y-105111694D01*
X197827150Y-105115813D01*
X197822223Y-105119467D01*
X197816962Y-105122620D01*
X197811418Y-105125242D01*
X197805643Y-105127309D01*
X197799693Y-105128799D01*
X197793626Y-105129699D01*
X197787500Y-105130000D01*
X197112500Y-105130000D01*
X197106374Y-105129699D01*
X197100307Y-105128799D01*
X197094357Y-105127309D01*
X197088582Y-105125242D01*
X197083038Y-105122620D01*
X197077777Y-105119467D01*
X197072850Y-105115813D01*
X197068306Y-105111694D01*
X197064187Y-105107150D01*
X197060533Y-105102223D01*
X197057380Y-105096962D01*
X197054758Y-105091418D01*
X197052691Y-105085643D01*
X197051201Y-105079693D01*
X197050301Y-105073626D01*
X197050000Y-105067500D01*
X197050000Y-104942500D01*
X197050301Y-104936374D01*
X197051201Y-104930307D01*
X197052691Y-104924357D01*
X197054758Y-104918582D01*
X197057380Y-104913038D01*
X197060533Y-104907777D01*
X197064187Y-104902850D01*
X197068306Y-104898306D01*
X197072850Y-104894187D01*
X197077777Y-104890533D01*
X197083038Y-104887380D01*
X197088582Y-104884758D01*
X197094357Y-104882691D01*
X197100307Y-104881201D01*
X197106374Y-104880301D01*
X197112500Y-104880000D01*
X197787500Y-104880000D01*
X197793626Y-104880301D01*
X197793626Y-104880301D01*
G37*
D18*
X197450000Y-105005000D03*
D10*
G36*
X197793626Y-104380301D02*
G01*
X197799693Y-104381201D01*
X197805643Y-104382691D01*
X197811418Y-104384758D01*
X197816962Y-104387380D01*
X197822223Y-104390533D01*
X197827150Y-104394187D01*
X197831694Y-104398306D01*
X197835813Y-104402850D01*
X197839467Y-104407777D01*
X197842620Y-104413038D01*
X197845242Y-104418582D01*
X197847309Y-104424357D01*
X197848799Y-104430307D01*
X197849699Y-104436374D01*
X197850000Y-104442500D01*
X197850000Y-104567500D01*
X197849699Y-104573626D01*
X197848799Y-104579693D01*
X197847309Y-104585643D01*
X197845242Y-104591418D01*
X197842620Y-104596962D01*
X197839467Y-104602223D01*
X197835813Y-104607150D01*
X197831694Y-104611694D01*
X197827150Y-104615813D01*
X197822223Y-104619467D01*
X197816962Y-104622620D01*
X197811418Y-104625242D01*
X197805643Y-104627309D01*
X197799693Y-104628799D01*
X197793626Y-104629699D01*
X197787500Y-104630000D01*
X197112500Y-104630000D01*
X197106374Y-104629699D01*
X197100307Y-104628799D01*
X197094357Y-104627309D01*
X197088582Y-104625242D01*
X197083038Y-104622620D01*
X197077777Y-104619467D01*
X197072850Y-104615813D01*
X197068306Y-104611694D01*
X197064187Y-104607150D01*
X197060533Y-104602223D01*
X197057380Y-104596962D01*
X197054758Y-104591418D01*
X197052691Y-104585643D01*
X197051201Y-104579693D01*
X197050301Y-104573626D01*
X197050000Y-104567500D01*
X197050000Y-104442500D01*
X197050301Y-104436374D01*
X197051201Y-104430307D01*
X197052691Y-104424357D01*
X197054758Y-104418582D01*
X197057380Y-104413038D01*
X197060533Y-104407777D01*
X197064187Y-104402850D01*
X197068306Y-104398306D01*
X197072850Y-104394187D01*
X197077777Y-104390533D01*
X197083038Y-104387380D01*
X197088582Y-104384758D01*
X197094357Y-104382691D01*
X197100307Y-104381201D01*
X197106374Y-104380301D01*
X197112500Y-104380000D01*
X197787500Y-104380000D01*
X197793626Y-104380301D01*
X197793626Y-104380301D01*
G37*
D18*
X197450000Y-104505000D03*
D10*
G36*
X197793626Y-103880301D02*
G01*
X197799693Y-103881201D01*
X197805643Y-103882691D01*
X197811418Y-103884758D01*
X197816962Y-103887380D01*
X197822223Y-103890533D01*
X197827150Y-103894187D01*
X197831694Y-103898306D01*
X197835813Y-103902850D01*
X197839467Y-103907777D01*
X197842620Y-103913038D01*
X197845242Y-103918582D01*
X197847309Y-103924357D01*
X197848799Y-103930307D01*
X197849699Y-103936374D01*
X197850000Y-103942500D01*
X197850000Y-104067500D01*
X197849699Y-104073626D01*
X197848799Y-104079693D01*
X197847309Y-104085643D01*
X197845242Y-104091418D01*
X197842620Y-104096962D01*
X197839467Y-104102223D01*
X197835813Y-104107150D01*
X197831694Y-104111694D01*
X197827150Y-104115813D01*
X197822223Y-104119467D01*
X197816962Y-104122620D01*
X197811418Y-104125242D01*
X197805643Y-104127309D01*
X197799693Y-104128799D01*
X197793626Y-104129699D01*
X197787500Y-104130000D01*
X197112500Y-104130000D01*
X197106374Y-104129699D01*
X197100307Y-104128799D01*
X197094357Y-104127309D01*
X197088582Y-104125242D01*
X197083038Y-104122620D01*
X197077777Y-104119467D01*
X197072850Y-104115813D01*
X197068306Y-104111694D01*
X197064187Y-104107150D01*
X197060533Y-104102223D01*
X197057380Y-104096962D01*
X197054758Y-104091418D01*
X197052691Y-104085643D01*
X197051201Y-104079693D01*
X197050301Y-104073626D01*
X197050000Y-104067500D01*
X197050000Y-103942500D01*
X197050301Y-103936374D01*
X197051201Y-103930307D01*
X197052691Y-103924357D01*
X197054758Y-103918582D01*
X197057380Y-103913038D01*
X197060533Y-103907777D01*
X197064187Y-103902850D01*
X197068306Y-103898306D01*
X197072850Y-103894187D01*
X197077777Y-103890533D01*
X197083038Y-103887380D01*
X197088582Y-103884758D01*
X197094357Y-103882691D01*
X197100307Y-103881201D01*
X197106374Y-103880301D01*
X197112500Y-103880000D01*
X197787500Y-103880000D01*
X197793626Y-103880301D01*
X197793626Y-103880301D01*
G37*
D18*
X197450000Y-104005000D03*
D10*
G36*
X197793626Y-103380301D02*
G01*
X197799693Y-103381201D01*
X197805643Y-103382691D01*
X197811418Y-103384758D01*
X197816962Y-103387380D01*
X197822223Y-103390533D01*
X197827150Y-103394187D01*
X197831694Y-103398306D01*
X197835813Y-103402850D01*
X197839467Y-103407777D01*
X197842620Y-103413038D01*
X197845242Y-103418582D01*
X197847309Y-103424357D01*
X197848799Y-103430307D01*
X197849699Y-103436374D01*
X197850000Y-103442500D01*
X197850000Y-103567500D01*
X197849699Y-103573626D01*
X197848799Y-103579693D01*
X197847309Y-103585643D01*
X197845242Y-103591418D01*
X197842620Y-103596962D01*
X197839467Y-103602223D01*
X197835813Y-103607150D01*
X197831694Y-103611694D01*
X197827150Y-103615813D01*
X197822223Y-103619467D01*
X197816962Y-103622620D01*
X197811418Y-103625242D01*
X197805643Y-103627309D01*
X197799693Y-103628799D01*
X197793626Y-103629699D01*
X197787500Y-103630000D01*
X197112500Y-103630000D01*
X197106374Y-103629699D01*
X197100307Y-103628799D01*
X197094357Y-103627309D01*
X197088582Y-103625242D01*
X197083038Y-103622620D01*
X197077777Y-103619467D01*
X197072850Y-103615813D01*
X197068306Y-103611694D01*
X197064187Y-103607150D01*
X197060533Y-103602223D01*
X197057380Y-103596962D01*
X197054758Y-103591418D01*
X197052691Y-103585643D01*
X197051201Y-103579693D01*
X197050301Y-103573626D01*
X197050000Y-103567500D01*
X197050000Y-103442500D01*
X197050301Y-103436374D01*
X197051201Y-103430307D01*
X197052691Y-103424357D01*
X197054758Y-103418582D01*
X197057380Y-103413038D01*
X197060533Y-103407777D01*
X197064187Y-103402850D01*
X197068306Y-103398306D01*
X197072850Y-103394187D01*
X197077777Y-103390533D01*
X197083038Y-103387380D01*
X197088582Y-103384758D01*
X197094357Y-103382691D01*
X197100307Y-103381201D01*
X197106374Y-103380301D01*
X197112500Y-103380000D01*
X197787500Y-103380000D01*
X197793626Y-103380301D01*
X197793626Y-103380301D01*
G37*
D18*
X197450000Y-103505000D03*
D10*
G36*
X197793626Y-102880301D02*
G01*
X197799693Y-102881201D01*
X197805643Y-102882691D01*
X197811418Y-102884758D01*
X197816962Y-102887380D01*
X197822223Y-102890533D01*
X197827150Y-102894187D01*
X197831694Y-102898306D01*
X197835813Y-102902850D01*
X197839467Y-102907777D01*
X197842620Y-102913038D01*
X197845242Y-102918582D01*
X197847309Y-102924357D01*
X197848799Y-102930307D01*
X197849699Y-102936374D01*
X197850000Y-102942500D01*
X197850000Y-103067500D01*
X197849699Y-103073626D01*
X197848799Y-103079693D01*
X197847309Y-103085643D01*
X197845242Y-103091418D01*
X197842620Y-103096962D01*
X197839467Y-103102223D01*
X197835813Y-103107150D01*
X197831694Y-103111694D01*
X197827150Y-103115813D01*
X197822223Y-103119467D01*
X197816962Y-103122620D01*
X197811418Y-103125242D01*
X197805643Y-103127309D01*
X197799693Y-103128799D01*
X197793626Y-103129699D01*
X197787500Y-103130000D01*
X197112500Y-103130000D01*
X197106374Y-103129699D01*
X197100307Y-103128799D01*
X197094357Y-103127309D01*
X197088582Y-103125242D01*
X197083038Y-103122620D01*
X197077777Y-103119467D01*
X197072850Y-103115813D01*
X197068306Y-103111694D01*
X197064187Y-103107150D01*
X197060533Y-103102223D01*
X197057380Y-103096962D01*
X197054758Y-103091418D01*
X197052691Y-103085643D01*
X197051201Y-103079693D01*
X197050301Y-103073626D01*
X197050000Y-103067500D01*
X197050000Y-102942500D01*
X197050301Y-102936374D01*
X197051201Y-102930307D01*
X197052691Y-102924357D01*
X197054758Y-102918582D01*
X197057380Y-102913038D01*
X197060533Y-102907777D01*
X197064187Y-102902850D01*
X197068306Y-102898306D01*
X197072850Y-102894187D01*
X197077777Y-102890533D01*
X197083038Y-102887380D01*
X197088582Y-102884758D01*
X197094357Y-102882691D01*
X197100307Y-102881201D01*
X197106374Y-102880301D01*
X197112500Y-102880000D01*
X197787500Y-102880000D01*
X197793626Y-102880301D01*
X197793626Y-102880301D01*
G37*
D18*
X197450000Y-103005000D03*
D10*
G36*
X197793626Y-102380301D02*
G01*
X197799693Y-102381201D01*
X197805643Y-102382691D01*
X197811418Y-102384758D01*
X197816962Y-102387380D01*
X197822223Y-102390533D01*
X197827150Y-102394187D01*
X197831694Y-102398306D01*
X197835813Y-102402850D01*
X197839467Y-102407777D01*
X197842620Y-102413038D01*
X197845242Y-102418582D01*
X197847309Y-102424357D01*
X197848799Y-102430307D01*
X197849699Y-102436374D01*
X197850000Y-102442500D01*
X197850000Y-102567500D01*
X197849699Y-102573626D01*
X197848799Y-102579693D01*
X197847309Y-102585643D01*
X197845242Y-102591418D01*
X197842620Y-102596962D01*
X197839467Y-102602223D01*
X197835813Y-102607150D01*
X197831694Y-102611694D01*
X197827150Y-102615813D01*
X197822223Y-102619467D01*
X197816962Y-102622620D01*
X197811418Y-102625242D01*
X197805643Y-102627309D01*
X197799693Y-102628799D01*
X197793626Y-102629699D01*
X197787500Y-102630000D01*
X197112500Y-102630000D01*
X197106374Y-102629699D01*
X197100307Y-102628799D01*
X197094357Y-102627309D01*
X197088582Y-102625242D01*
X197083038Y-102622620D01*
X197077777Y-102619467D01*
X197072850Y-102615813D01*
X197068306Y-102611694D01*
X197064187Y-102607150D01*
X197060533Y-102602223D01*
X197057380Y-102596962D01*
X197054758Y-102591418D01*
X197052691Y-102585643D01*
X197051201Y-102579693D01*
X197050301Y-102573626D01*
X197050000Y-102567500D01*
X197050000Y-102442500D01*
X197050301Y-102436374D01*
X197051201Y-102430307D01*
X197052691Y-102424357D01*
X197054758Y-102418582D01*
X197057380Y-102413038D01*
X197060533Y-102407777D01*
X197064187Y-102402850D01*
X197068306Y-102398306D01*
X197072850Y-102394187D01*
X197077777Y-102390533D01*
X197083038Y-102387380D01*
X197088582Y-102384758D01*
X197094357Y-102382691D01*
X197100307Y-102381201D01*
X197106374Y-102380301D01*
X197112500Y-102380000D01*
X197787500Y-102380000D01*
X197793626Y-102380301D01*
X197793626Y-102380301D01*
G37*
D18*
X197450000Y-102505000D03*
D10*
G36*
X197793626Y-101880301D02*
G01*
X197799693Y-101881201D01*
X197805643Y-101882691D01*
X197811418Y-101884758D01*
X197816962Y-101887380D01*
X197822223Y-101890533D01*
X197827150Y-101894187D01*
X197831694Y-101898306D01*
X197835813Y-101902850D01*
X197839467Y-101907777D01*
X197842620Y-101913038D01*
X197845242Y-101918582D01*
X197847309Y-101924357D01*
X197848799Y-101930307D01*
X197849699Y-101936374D01*
X197850000Y-101942500D01*
X197850000Y-102067500D01*
X197849699Y-102073626D01*
X197848799Y-102079693D01*
X197847309Y-102085643D01*
X197845242Y-102091418D01*
X197842620Y-102096962D01*
X197839467Y-102102223D01*
X197835813Y-102107150D01*
X197831694Y-102111694D01*
X197827150Y-102115813D01*
X197822223Y-102119467D01*
X197816962Y-102122620D01*
X197811418Y-102125242D01*
X197805643Y-102127309D01*
X197799693Y-102128799D01*
X197793626Y-102129699D01*
X197787500Y-102130000D01*
X197112500Y-102130000D01*
X197106374Y-102129699D01*
X197100307Y-102128799D01*
X197094357Y-102127309D01*
X197088582Y-102125242D01*
X197083038Y-102122620D01*
X197077777Y-102119467D01*
X197072850Y-102115813D01*
X197068306Y-102111694D01*
X197064187Y-102107150D01*
X197060533Y-102102223D01*
X197057380Y-102096962D01*
X197054758Y-102091418D01*
X197052691Y-102085643D01*
X197051201Y-102079693D01*
X197050301Y-102073626D01*
X197050000Y-102067500D01*
X197050000Y-101942500D01*
X197050301Y-101936374D01*
X197051201Y-101930307D01*
X197052691Y-101924357D01*
X197054758Y-101918582D01*
X197057380Y-101913038D01*
X197060533Y-101907777D01*
X197064187Y-101902850D01*
X197068306Y-101898306D01*
X197072850Y-101894187D01*
X197077777Y-101890533D01*
X197083038Y-101887380D01*
X197088582Y-101884758D01*
X197094357Y-101882691D01*
X197100307Y-101881201D01*
X197106374Y-101880301D01*
X197112500Y-101880000D01*
X197787500Y-101880000D01*
X197793626Y-101880301D01*
X197793626Y-101880301D01*
G37*
D18*
X197450000Y-102005000D03*
D10*
G36*
X196568626Y-100655301D02*
G01*
X196574693Y-100656201D01*
X196580643Y-100657691D01*
X196586418Y-100659758D01*
X196591962Y-100662380D01*
X196597223Y-100665533D01*
X196602150Y-100669187D01*
X196606694Y-100673306D01*
X196610813Y-100677850D01*
X196614467Y-100682777D01*
X196617620Y-100688038D01*
X196620242Y-100693582D01*
X196622309Y-100699357D01*
X196623799Y-100705307D01*
X196624699Y-100711374D01*
X196625000Y-100717500D01*
X196625000Y-101392500D01*
X196624699Y-101398626D01*
X196623799Y-101404693D01*
X196622309Y-101410643D01*
X196620242Y-101416418D01*
X196617620Y-101421962D01*
X196614467Y-101427223D01*
X196610813Y-101432150D01*
X196606694Y-101436694D01*
X196602150Y-101440813D01*
X196597223Y-101444467D01*
X196591962Y-101447620D01*
X196586418Y-101450242D01*
X196580643Y-101452309D01*
X196574693Y-101453799D01*
X196568626Y-101454699D01*
X196562500Y-101455000D01*
X196437500Y-101455000D01*
X196431374Y-101454699D01*
X196425307Y-101453799D01*
X196419357Y-101452309D01*
X196413582Y-101450242D01*
X196408038Y-101447620D01*
X196402777Y-101444467D01*
X196397850Y-101440813D01*
X196393306Y-101436694D01*
X196389187Y-101432150D01*
X196385533Y-101427223D01*
X196382380Y-101421962D01*
X196379758Y-101416418D01*
X196377691Y-101410643D01*
X196376201Y-101404693D01*
X196375301Y-101398626D01*
X196375000Y-101392500D01*
X196375000Y-100717500D01*
X196375301Y-100711374D01*
X196376201Y-100705307D01*
X196377691Y-100699357D01*
X196379758Y-100693582D01*
X196382380Y-100688038D01*
X196385533Y-100682777D01*
X196389187Y-100677850D01*
X196393306Y-100673306D01*
X196397850Y-100669187D01*
X196402777Y-100665533D01*
X196408038Y-100662380D01*
X196413582Y-100659758D01*
X196419357Y-100657691D01*
X196425307Y-100656201D01*
X196431374Y-100655301D01*
X196437500Y-100655000D01*
X196562500Y-100655000D01*
X196568626Y-100655301D01*
X196568626Y-100655301D01*
G37*
D18*
X196500000Y-101055000D03*
D10*
G36*
X196068626Y-100655301D02*
G01*
X196074693Y-100656201D01*
X196080643Y-100657691D01*
X196086418Y-100659758D01*
X196091962Y-100662380D01*
X196097223Y-100665533D01*
X196102150Y-100669187D01*
X196106694Y-100673306D01*
X196110813Y-100677850D01*
X196114467Y-100682777D01*
X196117620Y-100688038D01*
X196120242Y-100693582D01*
X196122309Y-100699357D01*
X196123799Y-100705307D01*
X196124699Y-100711374D01*
X196125000Y-100717500D01*
X196125000Y-101392500D01*
X196124699Y-101398626D01*
X196123799Y-101404693D01*
X196122309Y-101410643D01*
X196120242Y-101416418D01*
X196117620Y-101421962D01*
X196114467Y-101427223D01*
X196110813Y-101432150D01*
X196106694Y-101436694D01*
X196102150Y-101440813D01*
X196097223Y-101444467D01*
X196091962Y-101447620D01*
X196086418Y-101450242D01*
X196080643Y-101452309D01*
X196074693Y-101453799D01*
X196068626Y-101454699D01*
X196062500Y-101455000D01*
X195937500Y-101455000D01*
X195931374Y-101454699D01*
X195925307Y-101453799D01*
X195919357Y-101452309D01*
X195913582Y-101450242D01*
X195908038Y-101447620D01*
X195902777Y-101444467D01*
X195897850Y-101440813D01*
X195893306Y-101436694D01*
X195889187Y-101432150D01*
X195885533Y-101427223D01*
X195882380Y-101421962D01*
X195879758Y-101416418D01*
X195877691Y-101410643D01*
X195876201Y-101404693D01*
X195875301Y-101398626D01*
X195875000Y-101392500D01*
X195875000Y-100717500D01*
X195875301Y-100711374D01*
X195876201Y-100705307D01*
X195877691Y-100699357D01*
X195879758Y-100693582D01*
X195882380Y-100688038D01*
X195885533Y-100682777D01*
X195889187Y-100677850D01*
X195893306Y-100673306D01*
X195897850Y-100669187D01*
X195902777Y-100665533D01*
X195908038Y-100662380D01*
X195913582Y-100659758D01*
X195919357Y-100657691D01*
X195925307Y-100656201D01*
X195931374Y-100655301D01*
X195937500Y-100655000D01*
X196062500Y-100655000D01*
X196068626Y-100655301D01*
X196068626Y-100655301D01*
G37*
D18*
X196000000Y-101055000D03*
D10*
G36*
X195568626Y-100655301D02*
G01*
X195574693Y-100656201D01*
X195580643Y-100657691D01*
X195586418Y-100659758D01*
X195591962Y-100662380D01*
X195597223Y-100665533D01*
X195602150Y-100669187D01*
X195606694Y-100673306D01*
X195610813Y-100677850D01*
X195614467Y-100682777D01*
X195617620Y-100688038D01*
X195620242Y-100693582D01*
X195622309Y-100699357D01*
X195623799Y-100705307D01*
X195624699Y-100711374D01*
X195625000Y-100717500D01*
X195625000Y-101392500D01*
X195624699Y-101398626D01*
X195623799Y-101404693D01*
X195622309Y-101410643D01*
X195620242Y-101416418D01*
X195617620Y-101421962D01*
X195614467Y-101427223D01*
X195610813Y-101432150D01*
X195606694Y-101436694D01*
X195602150Y-101440813D01*
X195597223Y-101444467D01*
X195591962Y-101447620D01*
X195586418Y-101450242D01*
X195580643Y-101452309D01*
X195574693Y-101453799D01*
X195568626Y-101454699D01*
X195562500Y-101455000D01*
X195437500Y-101455000D01*
X195431374Y-101454699D01*
X195425307Y-101453799D01*
X195419357Y-101452309D01*
X195413582Y-101450242D01*
X195408038Y-101447620D01*
X195402777Y-101444467D01*
X195397850Y-101440813D01*
X195393306Y-101436694D01*
X195389187Y-101432150D01*
X195385533Y-101427223D01*
X195382380Y-101421962D01*
X195379758Y-101416418D01*
X195377691Y-101410643D01*
X195376201Y-101404693D01*
X195375301Y-101398626D01*
X195375000Y-101392500D01*
X195375000Y-100717500D01*
X195375301Y-100711374D01*
X195376201Y-100705307D01*
X195377691Y-100699357D01*
X195379758Y-100693582D01*
X195382380Y-100688038D01*
X195385533Y-100682777D01*
X195389187Y-100677850D01*
X195393306Y-100673306D01*
X195397850Y-100669187D01*
X195402777Y-100665533D01*
X195408038Y-100662380D01*
X195413582Y-100659758D01*
X195419357Y-100657691D01*
X195425307Y-100656201D01*
X195431374Y-100655301D01*
X195437500Y-100655000D01*
X195562500Y-100655000D01*
X195568626Y-100655301D01*
X195568626Y-100655301D01*
G37*
D18*
X195500000Y-101055000D03*
D10*
G36*
X195068626Y-100655301D02*
G01*
X195074693Y-100656201D01*
X195080643Y-100657691D01*
X195086418Y-100659758D01*
X195091962Y-100662380D01*
X195097223Y-100665533D01*
X195102150Y-100669187D01*
X195106694Y-100673306D01*
X195110813Y-100677850D01*
X195114467Y-100682777D01*
X195117620Y-100688038D01*
X195120242Y-100693582D01*
X195122309Y-100699357D01*
X195123799Y-100705307D01*
X195124699Y-100711374D01*
X195125000Y-100717500D01*
X195125000Y-101392500D01*
X195124699Y-101398626D01*
X195123799Y-101404693D01*
X195122309Y-101410643D01*
X195120242Y-101416418D01*
X195117620Y-101421962D01*
X195114467Y-101427223D01*
X195110813Y-101432150D01*
X195106694Y-101436694D01*
X195102150Y-101440813D01*
X195097223Y-101444467D01*
X195091962Y-101447620D01*
X195086418Y-101450242D01*
X195080643Y-101452309D01*
X195074693Y-101453799D01*
X195068626Y-101454699D01*
X195062500Y-101455000D01*
X194937500Y-101455000D01*
X194931374Y-101454699D01*
X194925307Y-101453799D01*
X194919357Y-101452309D01*
X194913582Y-101450242D01*
X194908038Y-101447620D01*
X194902777Y-101444467D01*
X194897850Y-101440813D01*
X194893306Y-101436694D01*
X194889187Y-101432150D01*
X194885533Y-101427223D01*
X194882380Y-101421962D01*
X194879758Y-101416418D01*
X194877691Y-101410643D01*
X194876201Y-101404693D01*
X194875301Y-101398626D01*
X194875000Y-101392500D01*
X194875000Y-100717500D01*
X194875301Y-100711374D01*
X194876201Y-100705307D01*
X194877691Y-100699357D01*
X194879758Y-100693582D01*
X194882380Y-100688038D01*
X194885533Y-100682777D01*
X194889187Y-100677850D01*
X194893306Y-100673306D01*
X194897850Y-100669187D01*
X194902777Y-100665533D01*
X194908038Y-100662380D01*
X194913582Y-100659758D01*
X194919357Y-100657691D01*
X194925307Y-100656201D01*
X194931374Y-100655301D01*
X194937500Y-100655000D01*
X195062500Y-100655000D01*
X195068626Y-100655301D01*
X195068626Y-100655301D01*
G37*
D18*
X195000000Y-101055000D03*
D10*
G36*
X194568626Y-100655301D02*
G01*
X194574693Y-100656201D01*
X194580643Y-100657691D01*
X194586418Y-100659758D01*
X194591962Y-100662380D01*
X194597223Y-100665533D01*
X194602150Y-100669187D01*
X194606694Y-100673306D01*
X194610813Y-100677850D01*
X194614467Y-100682777D01*
X194617620Y-100688038D01*
X194620242Y-100693582D01*
X194622309Y-100699357D01*
X194623799Y-100705307D01*
X194624699Y-100711374D01*
X194625000Y-100717500D01*
X194625000Y-101392500D01*
X194624699Y-101398626D01*
X194623799Y-101404693D01*
X194622309Y-101410643D01*
X194620242Y-101416418D01*
X194617620Y-101421962D01*
X194614467Y-101427223D01*
X194610813Y-101432150D01*
X194606694Y-101436694D01*
X194602150Y-101440813D01*
X194597223Y-101444467D01*
X194591962Y-101447620D01*
X194586418Y-101450242D01*
X194580643Y-101452309D01*
X194574693Y-101453799D01*
X194568626Y-101454699D01*
X194562500Y-101455000D01*
X194437500Y-101455000D01*
X194431374Y-101454699D01*
X194425307Y-101453799D01*
X194419357Y-101452309D01*
X194413582Y-101450242D01*
X194408038Y-101447620D01*
X194402777Y-101444467D01*
X194397850Y-101440813D01*
X194393306Y-101436694D01*
X194389187Y-101432150D01*
X194385533Y-101427223D01*
X194382380Y-101421962D01*
X194379758Y-101416418D01*
X194377691Y-101410643D01*
X194376201Y-101404693D01*
X194375301Y-101398626D01*
X194375000Y-101392500D01*
X194375000Y-100717500D01*
X194375301Y-100711374D01*
X194376201Y-100705307D01*
X194377691Y-100699357D01*
X194379758Y-100693582D01*
X194382380Y-100688038D01*
X194385533Y-100682777D01*
X194389187Y-100677850D01*
X194393306Y-100673306D01*
X194397850Y-100669187D01*
X194402777Y-100665533D01*
X194408038Y-100662380D01*
X194413582Y-100659758D01*
X194419357Y-100657691D01*
X194425307Y-100656201D01*
X194431374Y-100655301D01*
X194437500Y-100655000D01*
X194562500Y-100655000D01*
X194568626Y-100655301D01*
X194568626Y-100655301D01*
G37*
D18*
X194500000Y-101055000D03*
D10*
G36*
X194068626Y-100655301D02*
G01*
X194074693Y-100656201D01*
X194080643Y-100657691D01*
X194086418Y-100659758D01*
X194091962Y-100662380D01*
X194097223Y-100665533D01*
X194102150Y-100669187D01*
X194106694Y-100673306D01*
X194110813Y-100677850D01*
X194114467Y-100682777D01*
X194117620Y-100688038D01*
X194120242Y-100693582D01*
X194122309Y-100699357D01*
X194123799Y-100705307D01*
X194124699Y-100711374D01*
X194125000Y-100717500D01*
X194125000Y-101392500D01*
X194124699Y-101398626D01*
X194123799Y-101404693D01*
X194122309Y-101410643D01*
X194120242Y-101416418D01*
X194117620Y-101421962D01*
X194114467Y-101427223D01*
X194110813Y-101432150D01*
X194106694Y-101436694D01*
X194102150Y-101440813D01*
X194097223Y-101444467D01*
X194091962Y-101447620D01*
X194086418Y-101450242D01*
X194080643Y-101452309D01*
X194074693Y-101453799D01*
X194068626Y-101454699D01*
X194062500Y-101455000D01*
X193937500Y-101455000D01*
X193931374Y-101454699D01*
X193925307Y-101453799D01*
X193919357Y-101452309D01*
X193913582Y-101450242D01*
X193908038Y-101447620D01*
X193902777Y-101444467D01*
X193897850Y-101440813D01*
X193893306Y-101436694D01*
X193889187Y-101432150D01*
X193885533Y-101427223D01*
X193882380Y-101421962D01*
X193879758Y-101416418D01*
X193877691Y-101410643D01*
X193876201Y-101404693D01*
X193875301Y-101398626D01*
X193875000Y-101392500D01*
X193875000Y-100717500D01*
X193875301Y-100711374D01*
X193876201Y-100705307D01*
X193877691Y-100699357D01*
X193879758Y-100693582D01*
X193882380Y-100688038D01*
X193885533Y-100682777D01*
X193889187Y-100677850D01*
X193893306Y-100673306D01*
X193897850Y-100669187D01*
X193902777Y-100665533D01*
X193908038Y-100662380D01*
X193913582Y-100659758D01*
X193919357Y-100657691D01*
X193925307Y-100656201D01*
X193931374Y-100655301D01*
X193937500Y-100655000D01*
X194062500Y-100655000D01*
X194068626Y-100655301D01*
X194068626Y-100655301D01*
G37*
D18*
X194000000Y-101055000D03*
D10*
G36*
X193568626Y-100655301D02*
G01*
X193574693Y-100656201D01*
X193580643Y-100657691D01*
X193586418Y-100659758D01*
X193591962Y-100662380D01*
X193597223Y-100665533D01*
X193602150Y-100669187D01*
X193606694Y-100673306D01*
X193610813Y-100677850D01*
X193614467Y-100682777D01*
X193617620Y-100688038D01*
X193620242Y-100693582D01*
X193622309Y-100699357D01*
X193623799Y-100705307D01*
X193624699Y-100711374D01*
X193625000Y-100717500D01*
X193625000Y-101392500D01*
X193624699Y-101398626D01*
X193623799Y-101404693D01*
X193622309Y-101410643D01*
X193620242Y-101416418D01*
X193617620Y-101421962D01*
X193614467Y-101427223D01*
X193610813Y-101432150D01*
X193606694Y-101436694D01*
X193602150Y-101440813D01*
X193597223Y-101444467D01*
X193591962Y-101447620D01*
X193586418Y-101450242D01*
X193580643Y-101452309D01*
X193574693Y-101453799D01*
X193568626Y-101454699D01*
X193562500Y-101455000D01*
X193437500Y-101455000D01*
X193431374Y-101454699D01*
X193425307Y-101453799D01*
X193419357Y-101452309D01*
X193413582Y-101450242D01*
X193408038Y-101447620D01*
X193402777Y-101444467D01*
X193397850Y-101440813D01*
X193393306Y-101436694D01*
X193389187Y-101432150D01*
X193385533Y-101427223D01*
X193382380Y-101421962D01*
X193379758Y-101416418D01*
X193377691Y-101410643D01*
X193376201Y-101404693D01*
X193375301Y-101398626D01*
X193375000Y-101392500D01*
X193375000Y-100717500D01*
X193375301Y-100711374D01*
X193376201Y-100705307D01*
X193377691Y-100699357D01*
X193379758Y-100693582D01*
X193382380Y-100688038D01*
X193385533Y-100682777D01*
X193389187Y-100677850D01*
X193393306Y-100673306D01*
X193397850Y-100669187D01*
X193402777Y-100665533D01*
X193408038Y-100662380D01*
X193413582Y-100659758D01*
X193419357Y-100657691D01*
X193425307Y-100656201D01*
X193431374Y-100655301D01*
X193437500Y-100655000D01*
X193562500Y-100655000D01*
X193568626Y-100655301D01*
X193568626Y-100655301D01*
G37*
D18*
X193500000Y-101055000D03*
D10*
G36*
X178604505Y-88205204D02*
G01*
X178628773Y-88208804D01*
X178652572Y-88214765D01*
X178675671Y-88223030D01*
X178697850Y-88233520D01*
X178718893Y-88246132D01*
X178738599Y-88260747D01*
X178756777Y-88277223D01*
X178773253Y-88295401D01*
X178787868Y-88315107D01*
X178800480Y-88336150D01*
X178810970Y-88358329D01*
X178819235Y-88381428D01*
X178825196Y-88405227D01*
X178828796Y-88429495D01*
X178830000Y-88453999D01*
X178830000Y-89104001D01*
X178828796Y-89128505D01*
X178825196Y-89152773D01*
X178819235Y-89176572D01*
X178810970Y-89199671D01*
X178800480Y-89221850D01*
X178787868Y-89242893D01*
X178773253Y-89262599D01*
X178756777Y-89280777D01*
X178738599Y-89297253D01*
X178718893Y-89311868D01*
X178697850Y-89324480D01*
X178675671Y-89334970D01*
X178652572Y-89343235D01*
X178628773Y-89349196D01*
X178604505Y-89352796D01*
X178580001Y-89354000D01*
X177679999Y-89354000D01*
X177655495Y-89352796D01*
X177631227Y-89349196D01*
X177607428Y-89343235D01*
X177584329Y-89334970D01*
X177562150Y-89324480D01*
X177541107Y-89311868D01*
X177521401Y-89297253D01*
X177503223Y-89280777D01*
X177486747Y-89262599D01*
X177472132Y-89242893D01*
X177459520Y-89221850D01*
X177449030Y-89199671D01*
X177440765Y-89176572D01*
X177434804Y-89152773D01*
X177431204Y-89128505D01*
X177430000Y-89104001D01*
X177430000Y-88453999D01*
X177431204Y-88429495D01*
X177434804Y-88405227D01*
X177440765Y-88381428D01*
X177449030Y-88358329D01*
X177459520Y-88336150D01*
X177472132Y-88315107D01*
X177486747Y-88295401D01*
X177503223Y-88277223D01*
X177521401Y-88260747D01*
X177541107Y-88246132D01*
X177562150Y-88233520D01*
X177584329Y-88223030D01*
X177607428Y-88214765D01*
X177631227Y-88208804D01*
X177655495Y-88205204D01*
X177679999Y-88204000D01*
X178580001Y-88204000D01*
X178604505Y-88205204D01*
X178604505Y-88205204D01*
G37*
D12*
X178130000Y-88779000D03*
D10*
G36*
X178604505Y-86155204D02*
G01*
X178628773Y-86158804D01*
X178652572Y-86164765D01*
X178675671Y-86173030D01*
X178697850Y-86183520D01*
X178718893Y-86196132D01*
X178738599Y-86210747D01*
X178756777Y-86227223D01*
X178773253Y-86245401D01*
X178787868Y-86265107D01*
X178800480Y-86286150D01*
X178810970Y-86308329D01*
X178819235Y-86331428D01*
X178825196Y-86355227D01*
X178828796Y-86379495D01*
X178830000Y-86403999D01*
X178830000Y-87054001D01*
X178828796Y-87078505D01*
X178825196Y-87102773D01*
X178819235Y-87126572D01*
X178810970Y-87149671D01*
X178800480Y-87171850D01*
X178787868Y-87192893D01*
X178773253Y-87212599D01*
X178756777Y-87230777D01*
X178738599Y-87247253D01*
X178718893Y-87261868D01*
X178697850Y-87274480D01*
X178675671Y-87284970D01*
X178652572Y-87293235D01*
X178628773Y-87299196D01*
X178604505Y-87302796D01*
X178580001Y-87304000D01*
X177679999Y-87304000D01*
X177655495Y-87302796D01*
X177631227Y-87299196D01*
X177607428Y-87293235D01*
X177584329Y-87284970D01*
X177562150Y-87274480D01*
X177541107Y-87261868D01*
X177521401Y-87247253D01*
X177503223Y-87230777D01*
X177486747Y-87212599D01*
X177472132Y-87192893D01*
X177459520Y-87171850D01*
X177449030Y-87149671D01*
X177440765Y-87126572D01*
X177434804Y-87102773D01*
X177431204Y-87078505D01*
X177430000Y-87054001D01*
X177430000Y-86403999D01*
X177431204Y-86379495D01*
X177434804Y-86355227D01*
X177440765Y-86331428D01*
X177449030Y-86308329D01*
X177459520Y-86286150D01*
X177472132Y-86265107D01*
X177486747Y-86245401D01*
X177503223Y-86227223D01*
X177521401Y-86210747D01*
X177541107Y-86196132D01*
X177562150Y-86183520D01*
X177584329Y-86173030D01*
X177607428Y-86164765D01*
X177631227Y-86158804D01*
X177655495Y-86155204D01*
X177679999Y-86154000D01*
X178580001Y-86154000D01*
X178604505Y-86155204D01*
X178604505Y-86155204D01*
G37*
D12*
X178130000Y-86729000D03*
D10*
G36*
X175404505Y-83955204D02*
G01*
X175428773Y-83958804D01*
X175452572Y-83964765D01*
X175475671Y-83973030D01*
X175497850Y-83983520D01*
X175518893Y-83996132D01*
X175538599Y-84010747D01*
X175556777Y-84027223D01*
X175573253Y-84045401D01*
X175587868Y-84065107D01*
X175600480Y-84086150D01*
X175610970Y-84108329D01*
X175619235Y-84131428D01*
X175625196Y-84155227D01*
X175628796Y-84179495D01*
X175630000Y-84203999D01*
X175630000Y-84854001D01*
X175628796Y-84878505D01*
X175625196Y-84902773D01*
X175619235Y-84926572D01*
X175610970Y-84949671D01*
X175600480Y-84971850D01*
X175587868Y-84992893D01*
X175573253Y-85012599D01*
X175556777Y-85030777D01*
X175538599Y-85047253D01*
X175518893Y-85061868D01*
X175497850Y-85074480D01*
X175475671Y-85084970D01*
X175452572Y-85093235D01*
X175428773Y-85099196D01*
X175404505Y-85102796D01*
X175380001Y-85104000D01*
X174479999Y-85104000D01*
X174455495Y-85102796D01*
X174431227Y-85099196D01*
X174407428Y-85093235D01*
X174384329Y-85084970D01*
X174362150Y-85074480D01*
X174341107Y-85061868D01*
X174321401Y-85047253D01*
X174303223Y-85030777D01*
X174286747Y-85012599D01*
X174272132Y-84992893D01*
X174259520Y-84971850D01*
X174249030Y-84949671D01*
X174240765Y-84926572D01*
X174234804Y-84902773D01*
X174231204Y-84878505D01*
X174230000Y-84854001D01*
X174230000Y-84203999D01*
X174231204Y-84179495D01*
X174234804Y-84155227D01*
X174240765Y-84131428D01*
X174249030Y-84108329D01*
X174259520Y-84086150D01*
X174272132Y-84065107D01*
X174286747Y-84045401D01*
X174303223Y-84027223D01*
X174321401Y-84010747D01*
X174341107Y-83996132D01*
X174362150Y-83983520D01*
X174384329Y-83973030D01*
X174407428Y-83964765D01*
X174431227Y-83958804D01*
X174455495Y-83955204D01*
X174479999Y-83954000D01*
X175380001Y-83954000D01*
X175404505Y-83955204D01*
X175404505Y-83955204D01*
G37*
D12*
X174930000Y-84529000D03*
D10*
G36*
X175404505Y-81905204D02*
G01*
X175428773Y-81908804D01*
X175452572Y-81914765D01*
X175475671Y-81923030D01*
X175497850Y-81933520D01*
X175518893Y-81946132D01*
X175538599Y-81960747D01*
X175556777Y-81977223D01*
X175573253Y-81995401D01*
X175587868Y-82015107D01*
X175600480Y-82036150D01*
X175610970Y-82058329D01*
X175619235Y-82081428D01*
X175625196Y-82105227D01*
X175628796Y-82129495D01*
X175630000Y-82153999D01*
X175630000Y-82804001D01*
X175628796Y-82828505D01*
X175625196Y-82852773D01*
X175619235Y-82876572D01*
X175610970Y-82899671D01*
X175600480Y-82921850D01*
X175587868Y-82942893D01*
X175573253Y-82962599D01*
X175556777Y-82980777D01*
X175538599Y-82997253D01*
X175518893Y-83011868D01*
X175497850Y-83024480D01*
X175475671Y-83034970D01*
X175452572Y-83043235D01*
X175428773Y-83049196D01*
X175404505Y-83052796D01*
X175380001Y-83054000D01*
X174479999Y-83054000D01*
X174455495Y-83052796D01*
X174431227Y-83049196D01*
X174407428Y-83043235D01*
X174384329Y-83034970D01*
X174362150Y-83024480D01*
X174341107Y-83011868D01*
X174321401Y-82997253D01*
X174303223Y-82980777D01*
X174286747Y-82962599D01*
X174272132Y-82942893D01*
X174259520Y-82921850D01*
X174249030Y-82899671D01*
X174240765Y-82876572D01*
X174234804Y-82852773D01*
X174231204Y-82828505D01*
X174230000Y-82804001D01*
X174230000Y-82153999D01*
X174231204Y-82129495D01*
X174234804Y-82105227D01*
X174240765Y-82081428D01*
X174249030Y-82058329D01*
X174259520Y-82036150D01*
X174272132Y-82015107D01*
X174286747Y-81995401D01*
X174303223Y-81977223D01*
X174321401Y-81960747D01*
X174341107Y-81946132D01*
X174362150Y-81933520D01*
X174384329Y-81923030D01*
X174407428Y-81914765D01*
X174431227Y-81908804D01*
X174455495Y-81905204D01*
X174479999Y-81904000D01*
X175380001Y-81904000D01*
X175404505Y-81905204D01*
X175404505Y-81905204D01*
G37*
D12*
X174930000Y-82479000D03*
D10*
G36*
X181954505Y-88205204D02*
G01*
X181978773Y-88208804D01*
X182002572Y-88214765D01*
X182025671Y-88223030D01*
X182047850Y-88233520D01*
X182068893Y-88246132D01*
X182088599Y-88260747D01*
X182106777Y-88277223D01*
X182123253Y-88295401D01*
X182137868Y-88315107D01*
X182150480Y-88336150D01*
X182160970Y-88358329D01*
X182169235Y-88381428D01*
X182175196Y-88405227D01*
X182178796Y-88429495D01*
X182180000Y-88453999D01*
X182180000Y-89104001D01*
X182178796Y-89128505D01*
X182175196Y-89152773D01*
X182169235Y-89176572D01*
X182160970Y-89199671D01*
X182150480Y-89221850D01*
X182137868Y-89242893D01*
X182123253Y-89262599D01*
X182106777Y-89280777D01*
X182088599Y-89297253D01*
X182068893Y-89311868D01*
X182047850Y-89324480D01*
X182025671Y-89334970D01*
X182002572Y-89343235D01*
X181978773Y-89349196D01*
X181954505Y-89352796D01*
X181930001Y-89354000D01*
X181029999Y-89354000D01*
X181005495Y-89352796D01*
X180981227Y-89349196D01*
X180957428Y-89343235D01*
X180934329Y-89334970D01*
X180912150Y-89324480D01*
X180891107Y-89311868D01*
X180871401Y-89297253D01*
X180853223Y-89280777D01*
X180836747Y-89262599D01*
X180822132Y-89242893D01*
X180809520Y-89221850D01*
X180799030Y-89199671D01*
X180790765Y-89176572D01*
X180784804Y-89152773D01*
X180781204Y-89128505D01*
X180780000Y-89104001D01*
X180780000Y-88453999D01*
X180781204Y-88429495D01*
X180784804Y-88405227D01*
X180790765Y-88381428D01*
X180799030Y-88358329D01*
X180809520Y-88336150D01*
X180822132Y-88315107D01*
X180836747Y-88295401D01*
X180853223Y-88277223D01*
X180871401Y-88260747D01*
X180891107Y-88246132D01*
X180912150Y-88233520D01*
X180934329Y-88223030D01*
X180957428Y-88214765D01*
X180981227Y-88208804D01*
X181005495Y-88205204D01*
X181029999Y-88204000D01*
X181930001Y-88204000D01*
X181954505Y-88205204D01*
X181954505Y-88205204D01*
G37*
D12*
X181480000Y-88779000D03*
D10*
G36*
X181954505Y-86155204D02*
G01*
X181978773Y-86158804D01*
X182002572Y-86164765D01*
X182025671Y-86173030D01*
X182047850Y-86183520D01*
X182068893Y-86196132D01*
X182088599Y-86210747D01*
X182106777Y-86227223D01*
X182123253Y-86245401D01*
X182137868Y-86265107D01*
X182150480Y-86286150D01*
X182160970Y-86308329D01*
X182169235Y-86331428D01*
X182175196Y-86355227D01*
X182178796Y-86379495D01*
X182180000Y-86403999D01*
X182180000Y-87054001D01*
X182178796Y-87078505D01*
X182175196Y-87102773D01*
X182169235Y-87126572D01*
X182160970Y-87149671D01*
X182150480Y-87171850D01*
X182137868Y-87192893D01*
X182123253Y-87212599D01*
X182106777Y-87230777D01*
X182088599Y-87247253D01*
X182068893Y-87261868D01*
X182047850Y-87274480D01*
X182025671Y-87284970D01*
X182002572Y-87293235D01*
X181978773Y-87299196D01*
X181954505Y-87302796D01*
X181930001Y-87304000D01*
X181029999Y-87304000D01*
X181005495Y-87302796D01*
X180981227Y-87299196D01*
X180957428Y-87293235D01*
X180934329Y-87284970D01*
X180912150Y-87274480D01*
X180891107Y-87261868D01*
X180871401Y-87247253D01*
X180853223Y-87230777D01*
X180836747Y-87212599D01*
X180822132Y-87192893D01*
X180809520Y-87171850D01*
X180799030Y-87149671D01*
X180790765Y-87126572D01*
X180784804Y-87102773D01*
X180781204Y-87078505D01*
X180780000Y-87054001D01*
X180780000Y-86403999D01*
X180781204Y-86379495D01*
X180784804Y-86355227D01*
X180790765Y-86331428D01*
X180799030Y-86308329D01*
X180809520Y-86286150D01*
X180822132Y-86265107D01*
X180836747Y-86245401D01*
X180853223Y-86227223D01*
X180871401Y-86210747D01*
X180891107Y-86196132D01*
X180912150Y-86183520D01*
X180934329Y-86173030D01*
X180957428Y-86164765D01*
X180981227Y-86158804D01*
X181005495Y-86155204D01*
X181029999Y-86154000D01*
X181930001Y-86154000D01*
X181954505Y-86155204D01*
X181954505Y-86155204D01*
G37*
D12*
X181480000Y-86729000D03*
D10*
G36*
X178704505Y-81905204D02*
G01*
X178728773Y-81908804D01*
X178752572Y-81914765D01*
X178775671Y-81923030D01*
X178797850Y-81933520D01*
X178818893Y-81946132D01*
X178838599Y-81960747D01*
X178856777Y-81977223D01*
X178873253Y-81995401D01*
X178887868Y-82015107D01*
X178900480Y-82036150D01*
X178910970Y-82058329D01*
X178919235Y-82081428D01*
X178925196Y-82105227D01*
X178928796Y-82129495D01*
X178930000Y-82153999D01*
X178930000Y-82804001D01*
X178928796Y-82828505D01*
X178925196Y-82852773D01*
X178919235Y-82876572D01*
X178910970Y-82899671D01*
X178900480Y-82921850D01*
X178887868Y-82942893D01*
X178873253Y-82962599D01*
X178856777Y-82980777D01*
X178838599Y-82997253D01*
X178818893Y-83011868D01*
X178797850Y-83024480D01*
X178775671Y-83034970D01*
X178752572Y-83043235D01*
X178728773Y-83049196D01*
X178704505Y-83052796D01*
X178680001Y-83054000D01*
X177779999Y-83054000D01*
X177755495Y-83052796D01*
X177731227Y-83049196D01*
X177707428Y-83043235D01*
X177684329Y-83034970D01*
X177662150Y-83024480D01*
X177641107Y-83011868D01*
X177621401Y-82997253D01*
X177603223Y-82980777D01*
X177586747Y-82962599D01*
X177572132Y-82942893D01*
X177559520Y-82921850D01*
X177549030Y-82899671D01*
X177540765Y-82876572D01*
X177534804Y-82852773D01*
X177531204Y-82828505D01*
X177530000Y-82804001D01*
X177530000Y-82153999D01*
X177531204Y-82129495D01*
X177534804Y-82105227D01*
X177540765Y-82081428D01*
X177549030Y-82058329D01*
X177559520Y-82036150D01*
X177572132Y-82015107D01*
X177586747Y-81995401D01*
X177603223Y-81977223D01*
X177621401Y-81960747D01*
X177641107Y-81946132D01*
X177662150Y-81933520D01*
X177684329Y-81923030D01*
X177707428Y-81914765D01*
X177731227Y-81908804D01*
X177755495Y-81905204D01*
X177779999Y-81904000D01*
X178680001Y-81904000D01*
X178704505Y-81905204D01*
X178704505Y-81905204D01*
G37*
D12*
X178230000Y-82479000D03*
D10*
G36*
X178704505Y-83955204D02*
G01*
X178728773Y-83958804D01*
X178752572Y-83964765D01*
X178775671Y-83973030D01*
X178797850Y-83983520D01*
X178818893Y-83996132D01*
X178838599Y-84010747D01*
X178856777Y-84027223D01*
X178873253Y-84045401D01*
X178887868Y-84065107D01*
X178900480Y-84086150D01*
X178910970Y-84108329D01*
X178919235Y-84131428D01*
X178925196Y-84155227D01*
X178928796Y-84179495D01*
X178930000Y-84203999D01*
X178930000Y-84854001D01*
X178928796Y-84878505D01*
X178925196Y-84902773D01*
X178919235Y-84926572D01*
X178910970Y-84949671D01*
X178900480Y-84971850D01*
X178887868Y-84992893D01*
X178873253Y-85012599D01*
X178856777Y-85030777D01*
X178838599Y-85047253D01*
X178818893Y-85061868D01*
X178797850Y-85074480D01*
X178775671Y-85084970D01*
X178752572Y-85093235D01*
X178728773Y-85099196D01*
X178704505Y-85102796D01*
X178680001Y-85104000D01*
X177779999Y-85104000D01*
X177755495Y-85102796D01*
X177731227Y-85099196D01*
X177707428Y-85093235D01*
X177684329Y-85084970D01*
X177662150Y-85074480D01*
X177641107Y-85061868D01*
X177621401Y-85047253D01*
X177603223Y-85030777D01*
X177586747Y-85012599D01*
X177572132Y-84992893D01*
X177559520Y-84971850D01*
X177549030Y-84949671D01*
X177540765Y-84926572D01*
X177534804Y-84902773D01*
X177531204Y-84878505D01*
X177530000Y-84854001D01*
X177530000Y-84203999D01*
X177531204Y-84179495D01*
X177534804Y-84155227D01*
X177540765Y-84131428D01*
X177549030Y-84108329D01*
X177559520Y-84086150D01*
X177572132Y-84065107D01*
X177586747Y-84045401D01*
X177603223Y-84027223D01*
X177621401Y-84010747D01*
X177641107Y-83996132D01*
X177662150Y-83983520D01*
X177684329Y-83973030D01*
X177707428Y-83964765D01*
X177731227Y-83958804D01*
X177755495Y-83955204D01*
X177779999Y-83954000D01*
X178680001Y-83954000D01*
X178704505Y-83955204D01*
X178704505Y-83955204D01*
G37*
D12*
X178230000Y-84529000D03*
D10*
G36*
X203928505Y-100636204D02*
G01*
X203952773Y-100639804D01*
X203976572Y-100645765D01*
X203999671Y-100654030D01*
X204021850Y-100664520D01*
X204042893Y-100677132D01*
X204062599Y-100691747D01*
X204080777Y-100708223D01*
X204097253Y-100726401D01*
X204111868Y-100746107D01*
X204124480Y-100767150D01*
X204134970Y-100789329D01*
X204143235Y-100812428D01*
X204149196Y-100836227D01*
X204152796Y-100860495D01*
X204154000Y-100884999D01*
X204154000Y-101535001D01*
X204152796Y-101559505D01*
X204149196Y-101583773D01*
X204143235Y-101607572D01*
X204134970Y-101630671D01*
X204124480Y-101652850D01*
X204111868Y-101673893D01*
X204097253Y-101693599D01*
X204080777Y-101711777D01*
X204062599Y-101728253D01*
X204042893Y-101742868D01*
X204021850Y-101755480D01*
X203999671Y-101765970D01*
X203976572Y-101774235D01*
X203952773Y-101780196D01*
X203928505Y-101783796D01*
X203904001Y-101785000D01*
X203003999Y-101785000D01*
X202979495Y-101783796D01*
X202955227Y-101780196D01*
X202931428Y-101774235D01*
X202908329Y-101765970D01*
X202886150Y-101755480D01*
X202865107Y-101742868D01*
X202845401Y-101728253D01*
X202827223Y-101711777D01*
X202810747Y-101693599D01*
X202796132Y-101673893D01*
X202783520Y-101652850D01*
X202773030Y-101630671D01*
X202764765Y-101607572D01*
X202758804Y-101583773D01*
X202755204Y-101559505D01*
X202754000Y-101535001D01*
X202754000Y-100884999D01*
X202755204Y-100860495D01*
X202758804Y-100836227D01*
X202764765Y-100812428D01*
X202773030Y-100789329D01*
X202783520Y-100767150D01*
X202796132Y-100746107D01*
X202810747Y-100726401D01*
X202827223Y-100708223D01*
X202845401Y-100691747D01*
X202865107Y-100677132D01*
X202886150Y-100664520D01*
X202908329Y-100654030D01*
X202931428Y-100645765D01*
X202955227Y-100639804D01*
X202979495Y-100636204D01*
X203003999Y-100635000D01*
X203904001Y-100635000D01*
X203928505Y-100636204D01*
X203928505Y-100636204D01*
G37*
D12*
X203454000Y-101210000D03*
D10*
G36*
X203928505Y-102686204D02*
G01*
X203952773Y-102689804D01*
X203976572Y-102695765D01*
X203999671Y-102704030D01*
X204021850Y-102714520D01*
X204042893Y-102727132D01*
X204062599Y-102741747D01*
X204080777Y-102758223D01*
X204097253Y-102776401D01*
X204111868Y-102796107D01*
X204124480Y-102817150D01*
X204134970Y-102839329D01*
X204143235Y-102862428D01*
X204149196Y-102886227D01*
X204152796Y-102910495D01*
X204154000Y-102934999D01*
X204154000Y-103585001D01*
X204152796Y-103609505D01*
X204149196Y-103633773D01*
X204143235Y-103657572D01*
X204134970Y-103680671D01*
X204124480Y-103702850D01*
X204111868Y-103723893D01*
X204097253Y-103743599D01*
X204080777Y-103761777D01*
X204062599Y-103778253D01*
X204042893Y-103792868D01*
X204021850Y-103805480D01*
X203999671Y-103815970D01*
X203976572Y-103824235D01*
X203952773Y-103830196D01*
X203928505Y-103833796D01*
X203904001Y-103835000D01*
X203003999Y-103835000D01*
X202979495Y-103833796D01*
X202955227Y-103830196D01*
X202931428Y-103824235D01*
X202908329Y-103815970D01*
X202886150Y-103805480D01*
X202865107Y-103792868D01*
X202845401Y-103778253D01*
X202827223Y-103761777D01*
X202810747Y-103743599D01*
X202796132Y-103723893D01*
X202783520Y-103702850D01*
X202773030Y-103680671D01*
X202764765Y-103657572D01*
X202758804Y-103633773D01*
X202755204Y-103609505D01*
X202754000Y-103585001D01*
X202754000Y-102934999D01*
X202755204Y-102910495D01*
X202758804Y-102886227D01*
X202764765Y-102862428D01*
X202773030Y-102839329D01*
X202783520Y-102817150D01*
X202796132Y-102796107D01*
X202810747Y-102776401D01*
X202827223Y-102758223D01*
X202845401Y-102741747D01*
X202865107Y-102727132D01*
X202886150Y-102714520D01*
X202908329Y-102704030D01*
X202931428Y-102695765D01*
X202955227Y-102689804D01*
X202979495Y-102686204D01*
X203003999Y-102685000D01*
X203904001Y-102685000D01*
X203928505Y-102686204D01*
X203928505Y-102686204D01*
G37*
D12*
X203454000Y-103260000D03*
D10*
G36*
X211841505Y-108612204D02*
G01*
X211865773Y-108615804D01*
X211889572Y-108621765D01*
X211912671Y-108630030D01*
X211934850Y-108640520D01*
X211955893Y-108653132D01*
X211975599Y-108667747D01*
X211993777Y-108684223D01*
X212010253Y-108702401D01*
X212024868Y-108722107D01*
X212037480Y-108743150D01*
X212047970Y-108765329D01*
X212056235Y-108788428D01*
X212062196Y-108812227D01*
X212065796Y-108836495D01*
X212067000Y-108860999D01*
X212067000Y-109511001D01*
X212065796Y-109535505D01*
X212062196Y-109559773D01*
X212056235Y-109583572D01*
X212047970Y-109606671D01*
X212037480Y-109628850D01*
X212024868Y-109649893D01*
X212010253Y-109669599D01*
X211993777Y-109687777D01*
X211975599Y-109704253D01*
X211955893Y-109718868D01*
X211934850Y-109731480D01*
X211912671Y-109741970D01*
X211889572Y-109750235D01*
X211865773Y-109756196D01*
X211841505Y-109759796D01*
X211817001Y-109761000D01*
X210916999Y-109761000D01*
X210892495Y-109759796D01*
X210868227Y-109756196D01*
X210844428Y-109750235D01*
X210821329Y-109741970D01*
X210799150Y-109731480D01*
X210778107Y-109718868D01*
X210758401Y-109704253D01*
X210740223Y-109687777D01*
X210723747Y-109669599D01*
X210709132Y-109649893D01*
X210696520Y-109628850D01*
X210686030Y-109606671D01*
X210677765Y-109583572D01*
X210671804Y-109559773D01*
X210668204Y-109535505D01*
X210667000Y-109511001D01*
X210667000Y-108860999D01*
X210668204Y-108836495D01*
X210671804Y-108812227D01*
X210677765Y-108788428D01*
X210686030Y-108765329D01*
X210696520Y-108743150D01*
X210709132Y-108722107D01*
X210723747Y-108702401D01*
X210740223Y-108684223D01*
X210758401Y-108667747D01*
X210778107Y-108653132D01*
X210799150Y-108640520D01*
X210821329Y-108630030D01*
X210844428Y-108621765D01*
X210868227Y-108615804D01*
X210892495Y-108612204D01*
X210916999Y-108611000D01*
X211817001Y-108611000D01*
X211841505Y-108612204D01*
X211841505Y-108612204D01*
G37*
D12*
X211367000Y-109186000D03*
D10*
G36*
X211841505Y-106562204D02*
G01*
X211865773Y-106565804D01*
X211889572Y-106571765D01*
X211912671Y-106580030D01*
X211934850Y-106590520D01*
X211955893Y-106603132D01*
X211975599Y-106617747D01*
X211993777Y-106634223D01*
X212010253Y-106652401D01*
X212024868Y-106672107D01*
X212037480Y-106693150D01*
X212047970Y-106715329D01*
X212056235Y-106738428D01*
X212062196Y-106762227D01*
X212065796Y-106786495D01*
X212067000Y-106810999D01*
X212067000Y-107461001D01*
X212065796Y-107485505D01*
X212062196Y-107509773D01*
X212056235Y-107533572D01*
X212047970Y-107556671D01*
X212037480Y-107578850D01*
X212024868Y-107599893D01*
X212010253Y-107619599D01*
X211993777Y-107637777D01*
X211975599Y-107654253D01*
X211955893Y-107668868D01*
X211934850Y-107681480D01*
X211912671Y-107691970D01*
X211889572Y-107700235D01*
X211865773Y-107706196D01*
X211841505Y-107709796D01*
X211817001Y-107711000D01*
X210916999Y-107711000D01*
X210892495Y-107709796D01*
X210868227Y-107706196D01*
X210844428Y-107700235D01*
X210821329Y-107691970D01*
X210799150Y-107681480D01*
X210778107Y-107668868D01*
X210758401Y-107654253D01*
X210740223Y-107637777D01*
X210723747Y-107619599D01*
X210709132Y-107599893D01*
X210696520Y-107578850D01*
X210686030Y-107556671D01*
X210677765Y-107533572D01*
X210671804Y-107509773D01*
X210668204Y-107485505D01*
X210667000Y-107461001D01*
X210667000Y-106810999D01*
X210668204Y-106786495D01*
X210671804Y-106762227D01*
X210677765Y-106738428D01*
X210686030Y-106715329D01*
X210696520Y-106693150D01*
X210709132Y-106672107D01*
X210723747Y-106652401D01*
X210740223Y-106634223D01*
X210758401Y-106617747D01*
X210778107Y-106603132D01*
X210799150Y-106590520D01*
X210821329Y-106580030D01*
X210844428Y-106571765D01*
X210868227Y-106565804D01*
X210892495Y-106562204D01*
X210916999Y-106561000D01*
X211817001Y-106561000D01*
X211841505Y-106562204D01*
X211841505Y-106562204D01*
G37*
D12*
X211367000Y-107136000D03*
D10*
G36*
X208627505Y-106478204D02*
G01*
X208651773Y-106481804D01*
X208675572Y-106487765D01*
X208698671Y-106496030D01*
X208720850Y-106506520D01*
X208741893Y-106519132D01*
X208761599Y-106533747D01*
X208779777Y-106550223D01*
X208796253Y-106568401D01*
X208810868Y-106588107D01*
X208823480Y-106609150D01*
X208833970Y-106631329D01*
X208842235Y-106654428D01*
X208848196Y-106678227D01*
X208851796Y-106702495D01*
X208853000Y-106726999D01*
X208853000Y-107377001D01*
X208851796Y-107401505D01*
X208848196Y-107425773D01*
X208842235Y-107449572D01*
X208833970Y-107472671D01*
X208823480Y-107494850D01*
X208810868Y-107515893D01*
X208796253Y-107535599D01*
X208779777Y-107553777D01*
X208761599Y-107570253D01*
X208741893Y-107584868D01*
X208720850Y-107597480D01*
X208698671Y-107607970D01*
X208675572Y-107616235D01*
X208651773Y-107622196D01*
X208627505Y-107625796D01*
X208603001Y-107627000D01*
X207702999Y-107627000D01*
X207678495Y-107625796D01*
X207654227Y-107622196D01*
X207630428Y-107616235D01*
X207607329Y-107607970D01*
X207585150Y-107597480D01*
X207564107Y-107584868D01*
X207544401Y-107570253D01*
X207526223Y-107553777D01*
X207509747Y-107535599D01*
X207495132Y-107515893D01*
X207482520Y-107494850D01*
X207472030Y-107472671D01*
X207463765Y-107449572D01*
X207457804Y-107425773D01*
X207454204Y-107401505D01*
X207453000Y-107377001D01*
X207453000Y-106726999D01*
X207454204Y-106702495D01*
X207457804Y-106678227D01*
X207463765Y-106654428D01*
X207472030Y-106631329D01*
X207482520Y-106609150D01*
X207495132Y-106588107D01*
X207509747Y-106568401D01*
X207526223Y-106550223D01*
X207544401Y-106533747D01*
X207564107Y-106519132D01*
X207585150Y-106506520D01*
X207607329Y-106496030D01*
X207630428Y-106487765D01*
X207654227Y-106481804D01*
X207678495Y-106478204D01*
X207702999Y-106477000D01*
X208603001Y-106477000D01*
X208627505Y-106478204D01*
X208627505Y-106478204D01*
G37*
D12*
X208153000Y-107052000D03*
D10*
G36*
X208627505Y-108528204D02*
G01*
X208651773Y-108531804D01*
X208675572Y-108537765D01*
X208698671Y-108546030D01*
X208720850Y-108556520D01*
X208741893Y-108569132D01*
X208761599Y-108583747D01*
X208779777Y-108600223D01*
X208796253Y-108618401D01*
X208810868Y-108638107D01*
X208823480Y-108659150D01*
X208833970Y-108681329D01*
X208842235Y-108704428D01*
X208848196Y-108728227D01*
X208851796Y-108752495D01*
X208853000Y-108776999D01*
X208853000Y-109427001D01*
X208851796Y-109451505D01*
X208848196Y-109475773D01*
X208842235Y-109499572D01*
X208833970Y-109522671D01*
X208823480Y-109544850D01*
X208810868Y-109565893D01*
X208796253Y-109585599D01*
X208779777Y-109603777D01*
X208761599Y-109620253D01*
X208741893Y-109634868D01*
X208720850Y-109647480D01*
X208698671Y-109657970D01*
X208675572Y-109666235D01*
X208651773Y-109672196D01*
X208627505Y-109675796D01*
X208603001Y-109677000D01*
X207702999Y-109677000D01*
X207678495Y-109675796D01*
X207654227Y-109672196D01*
X207630428Y-109666235D01*
X207607329Y-109657970D01*
X207585150Y-109647480D01*
X207564107Y-109634868D01*
X207544401Y-109620253D01*
X207526223Y-109603777D01*
X207509747Y-109585599D01*
X207495132Y-109565893D01*
X207482520Y-109544850D01*
X207472030Y-109522671D01*
X207463765Y-109499572D01*
X207457804Y-109475773D01*
X207454204Y-109451505D01*
X207453000Y-109427001D01*
X207453000Y-108776999D01*
X207454204Y-108752495D01*
X207457804Y-108728227D01*
X207463765Y-108704428D01*
X207472030Y-108681329D01*
X207482520Y-108659150D01*
X207495132Y-108638107D01*
X207509747Y-108618401D01*
X207526223Y-108600223D01*
X207544401Y-108583747D01*
X207564107Y-108569132D01*
X207585150Y-108556520D01*
X207607329Y-108546030D01*
X207630428Y-108537765D01*
X207654227Y-108531804D01*
X207678495Y-108528204D01*
X207702999Y-108527000D01*
X208603001Y-108527000D01*
X208627505Y-108528204D01*
X208627505Y-108528204D01*
G37*
D12*
X208153000Y-109102000D03*
D10*
G36*
X207025505Y-100654204D02*
G01*
X207049773Y-100657804D01*
X207073572Y-100663765D01*
X207096671Y-100672030D01*
X207118850Y-100682520D01*
X207139893Y-100695132D01*
X207159599Y-100709747D01*
X207177777Y-100726223D01*
X207194253Y-100744401D01*
X207208868Y-100764107D01*
X207221480Y-100785150D01*
X207231970Y-100807329D01*
X207240235Y-100830428D01*
X207246196Y-100854227D01*
X207249796Y-100878495D01*
X207251000Y-100902999D01*
X207251000Y-101553001D01*
X207249796Y-101577505D01*
X207246196Y-101601773D01*
X207240235Y-101625572D01*
X207231970Y-101648671D01*
X207221480Y-101670850D01*
X207208868Y-101691893D01*
X207194253Y-101711599D01*
X207177777Y-101729777D01*
X207159599Y-101746253D01*
X207139893Y-101760868D01*
X207118850Y-101773480D01*
X207096671Y-101783970D01*
X207073572Y-101792235D01*
X207049773Y-101798196D01*
X207025505Y-101801796D01*
X207001001Y-101803000D01*
X206100999Y-101803000D01*
X206076495Y-101801796D01*
X206052227Y-101798196D01*
X206028428Y-101792235D01*
X206005329Y-101783970D01*
X205983150Y-101773480D01*
X205962107Y-101760868D01*
X205942401Y-101746253D01*
X205924223Y-101729777D01*
X205907747Y-101711599D01*
X205893132Y-101691893D01*
X205880520Y-101670850D01*
X205870030Y-101648671D01*
X205861765Y-101625572D01*
X205855804Y-101601773D01*
X205852204Y-101577505D01*
X205851000Y-101553001D01*
X205851000Y-100902999D01*
X205852204Y-100878495D01*
X205855804Y-100854227D01*
X205861765Y-100830428D01*
X205870030Y-100807329D01*
X205880520Y-100785150D01*
X205893132Y-100764107D01*
X205907747Y-100744401D01*
X205924223Y-100726223D01*
X205942401Y-100709747D01*
X205962107Y-100695132D01*
X205983150Y-100682520D01*
X206005329Y-100672030D01*
X206028428Y-100663765D01*
X206052227Y-100657804D01*
X206076495Y-100654204D01*
X206100999Y-100653000D01*
X207001001Y-100653000D01*
X207025505Y-100654204D01*
X207025505Y-100654204D01*
G37*
D12*
X206551000Y-101228000D03*
D10*
G36*
X207025505Y-102704204D02*
G01*
X207049773Y-102707804D01*
X207073572Y-102713765D01*
X207096671Y-102722030D01*
X207118850Y-102732520D01*
X207139893Y-102745132D01*
X207159599Y-102759747D01*
X207177777Y-102776223D01*
X207194253Y-102794401D01*
X207208868Y-102814107D01*
X207221480Y-102835150D01*
X207231970Y-102857329D01*
X207240235Y-102880428D01*
X207246196Y-102904227D01*
X207249796Y-102928495D01*
X207251000Y-102952999D01*
X207251000Y-103603001D01*
X207249796Y-103627505D01*
X207246196Y-103651773D01*
X207240235Y-103675572D01*
X207231970Y-103698671D01*
X207221480Y-103720850D01*
X207208868Y-103741893D01*
X207194253Y-103761599D01*
X207177777Y-103779777D01*
X207159599Y-103796253D01*
X207139893Y-103810868D01*
X207118850Y-103823480D01*
X207096671Y-103833970D01*
X207073572Y-103842235D01*
X207049773Y-103848196D01*
X207025505Y-103851796D01*
X207001001Y-103853000D01*
X206100999Y-103853000D01*
X206076495Y-103851796D01*
X206052227Y-103848196D01*
X206028428Y-103842235D01*
X206005329Y-103833970D01*
X205983150Y-103823480D01*
X205962107Y-103810868D01*
X205942401Y-103796253D01*
X205924223Y-103779777D01*
X205907747Y-103761599D01*
X205893132Y-103741893D01*
X205880520Y-103720850D01*
X205870030Y-103698671D01*
X205861765Y-103675572D01*
X205855804Y-103651773D01*
X205852204Y-103627505D01*
X205851000Y-103603001D01*
X205851000Y-102952999D01*
X205852204Y-102928495D01*
X205855804Y-102904227D01*
X205861765Y-102880428D01*
X205870030Y-102857329D01*
X205880520Y-102835150D01*
X205893132Y-102814107D01*
X205907747Y-102794401D01*
X205924223Y-102776223D01*
X205942401Y-102759747D01*
X205962107Y-102745132D01*
X205983150Y-102732520D01*
X206005329Y-102722030D01*
X206028428Y-102713765D01*
X206052227Y-102707804D01*
X206076495Y-102704204D01*
X206100999Y-102703000D01*
X207001001Y-102703000D01*
X207025505Y-102704204D01*
X207025505Y-102704204D01*
G37*
D12*
X206551000Y-103278000D03*
D10*
G36*
X190085505Y-100636204D02*
G01*
X190109773Y-100639804D01*
X190133572Y-100645765D01*
X190156671Y-100654030D01*
X190178850Y-100664520D01*
X190199893Y-100677132D01*
X190219599Y-100691747D01*
X190237777Y-100708223D01*
X190254253Y-100726401D01*
X190268868Y-100746107D01*
X190281480Y-100767150D01*
X190291970Y-100789329D01*
X190300235Y-100812428D01*
X190306196Y-100836227D01*
X190309796Y-100860495D01*
X190311000Y-100884999D01*
X190311000Y-101535001D01*
X190309796Y-101559505D01*
X190306196Y-101583773D01*
X190300235Y-101607572D01*
X190291970Y-101630671D01*
X190281480Y-101652850D01*
X190268868Y-101673893D01*
X190254253Y-101693599D01*
X190237777Y-101711777D01*
X190219599Y-101728253D01*
X190199893Y-101742868D01*
X190178850Y-101755480D01*
X190156671Y-101765970D01*
X190133572Y-101774235D01*
X190109773Y-101780196D01*
X190085505Y-101783796D01*
X190061001Y-101785000D01*
X189160999Y-101785000D01*
X189136495Y-101783796D01*
X189112227Y-101780196D01*
X189088428Y-101774235D01*
X189065329Y-101765970D01*
X189043150Y-101755480D01*
X189022107Y-101742868D01*
X189002401Y-101728253D01*
X188984223Y-101711777D01*
X188967747Y-101693599D01*
X188953132Y-101673893D01*
X188940520Y-101652850D01*
X188930030Y-101630671D01*
X188921765Y-101607572D01*
X188915804Y-101583773D01*
X188912204Y-101559505D01*
X188911000Y-101535001D01*
X188911000Y-100884999D01*
X188912204Y-100860495D01*
X188915804Y-100836227D01*
X188921765Y-100812428D01*
X188930030Y-100789329D01*
X188940520Y-100767150D01*
X188953132Y-100746107D01*
X188967747Y-100726401D01*
X188984223Y-100708223D01*
X189002401Y-100691747D01*
X189022107Y-100677132D01*
X189043150Y-100664520D01*
X189065329Y-100654030D01*
X189088428Y-100645765D01*
X189112227Y-100639804D01*
X189136495Y-100636204D01*
X189160999Y-100635000D01*
X190061001Y-100635000D01*
X190085505Y-100636204D01*
X190085505Y-100636204D01*
G37*
D12*
X189611000Y-101210000D03*
D10*
G36*
X190085505Y-102686204D02*
G01*
X190109773Y-102689804D01*
X190133572Y-102695765D01*
X190156671Y-102704030D01*
X190178850Y-102714520D01*
X190199893Y-102727132D01*
X190219599Y-102741747D01*
X190237777Y-102758223D01*
X190254253Y-102776401D01*
X190268868Y-102796107D01*
X190281480Y-102817150D01*
X190291970Y-102839329D01*
X190300235Y-102862428D01*
X190306196Y-102886227D01*
X190309796Y-102910495D01*
X190311000Y-102934999D01*
X190311000Y-103585001D01*
X190309796Y-103609505D01*
X190306196Y-103633773D01*
X190300235Y-103657572D01*
X190291970Y-103680671D01*
X190281480Y-103702850D01*
X190268868Y-103723893D01*
X190254253Y-103743599D01*
X190237777Y-103761777D01*
X190219599Y-103778253D01*
X190199893Y-103792868D01*
X190178850Y-103805480D01*
X190156671Y-103815970D01*
X190133572Y-103824235D01*
X190109773Y-103830196D01*
X190085505Y-103833796D01*
X190061001Y-103835000D01*
X189160999Y-103835000D01*
X189136495Y-103833796D01*
X189112227Y-103830196D01*
X189088428Y-103824235D01*
X189065329Y-103815970D01*
X189043150Y-103805480D01*
X189022107Y-103792868D01*
X189002401Y-103778253D01*
X188984223Y-103761777D01*
X188967747Y-103743599D01*
X188953132Y-103723893D01*
X188940520Y-103702850D01*
X188930030Y-103680671D01*
X188921765Y-103657572D01*
X188915804Y-103633773D01*
X188912204Y-103609505D01*
X188911000Y-103585001D01*
X188911000Y-102934999D01*
X188912204Y-102910495D01*
X188915804Y-102886227D01*
X188921765Y-102862428D01*
X188930030Y-102839329D01*
X188940520Y-102817150D01*
X188953132Y-102796107D01*
X188967747Y-102776401D01*
X188984223Y-102758223D01*
X189002401Y-102741747D01*
X189022107Y-102727132D01*
X189043150Y-102714520D01*
X189065329Y-102704030D01*
X189088428Y-102695765D01*
X189112227Y-102689804D01*
X189136495Y-102686204D01*
X189160999Y-102685000D01*
X190061001Y-102685000D01*
X190085505Y-102686204D01*
X190085505Y-102686204D01*
G37*
D12*
X189611000Y-103260000D03*
D10*
G36*
X200880505Y-99366204D02*
G01*
X200904773Y-99369804D01*
X200928572Y-99375765D01*
X200951671Y-99384030D01*
X200973850Y-99394520D01*
X200994893Y-99407132D01*
X201014599Y-99421747D01*
X201032777Y-99438223D01*
X201049253Y-99456401D01*
X201063868Y-99476107D01*
X201076480Y-99497150D01*
X201086970Y-99519329D01*
X201095235Y-99542428D01*
X201101196Y-99566227D01*
X201104796Y-99590495D01*
X201106000Y-99614999D01*
X201106000Y-100265001D01*
X201104796Y-100289505D01*
X201101196Y-100313773D01*
X201095235Y-100337572D01*
X201086970Y-100360671D01*
X201076480Y-100382850D01*
X201063868Y-100403893D01*
X201049253Y-100423599D01*
X201032777Y-100441777D01*
X201014599Y-100458253D01*
X200994893Y-100472868D01*
X200973850Y-100485480D01*
X200951671Y-100495970D01*
X200928572Y-100504235D01*
X200904773Y-100510196D01*
X200880505Y-100513796D01*
X200856001Y-100515000D01*
X199955999Y-100515000D01*
X199931495Y-100513796D01*
X199907227Y-100510196D01*
X199883428Y-100504235D01*
X199860329Y-100495970D01*
X199838150Y-100485480D01*
X199817107Y-100472868D01*
X199797401Y-100458253D01*
X199779223Y-100441777D01*
X199762747Y-100423599D01*
X199748132Y-100403893D01*
X199735520Y-100382850D01*
X199725030Y-100360671D01*
X199716765Y-100337572D01*
X199710804Y-100313773D01*
X199707204Y-100289505D01*
X199706000Y-100265001D01*
X199706000Y-99614999D01*
X199707204Y-99590495D01*
X199710804Y-99566227D01*
X199716765Y-99542428D01*
X199725030Y-99519329D01*
X199735520Y-99497150D01*
X199748132Y-99476107D01*
X199762747Y-99456401D01*
X199779223Y-99438223D01*
X199797401Y-99421747D01*
X199817107Y-99407132D01*
X199838150Y-99394520D01*
X199860329Y-99384030D01*
X199883428Y-99375765D01*
X199907227Y-99369804D01*
X199931495Y-99366204D01*
X199955999Y-99365000D01*
X200856001Y-99365000D01*
X200880505Y-99366204D01*
X200880505Y-99366204D01*
G37*
D12*
X200406000Y-99940000D03*
D10*
G36*
X200880505Y-101416204D02*
G01*
X200904773Y-101419804D01*
X200928572Y-101425765D01*
X200951671Y-101434030D01*
X200973850Y-101444520D01*
X200994893Y-101457132D01*
X201014599Y-101471747D01*
X201032777Y-101488223D01*
X201049253Y-101506401D01*
X201063868Y-101526107D01*
X201076480Y-101547150D01*
X201086970Y-101569329D01*
X201095235Y-101592428D01*
X201101196Y-101616227D01*
X201104796Y-101640495D01*
X201106000Y-101664999D01*
X201106000Y-102315001D01*
X201104796Y-102339505D01*
X201101196Y-102363773D01*
X201095235Y-102387572D01*
X201086970Y-102410671D01*
X201076480Y-102432850D01*
X201063868Y-102453893D01*
X201049253Y-102473599D01*
X201032777Y-102491777D01*
X201014599Y-102508253D01*
X200994893Y-102522868D01*
X200973850Y-102535480D01*
X200951671Y-102545970D01*
X200928572Y-102554235D01*
X200904773Y-102560196D01*
X200880505Y-102563796D01*
X200856001Y-102565000D01*
X199955999Y-102565000D01*
X199931495Y-102563796D01*
X199907227Y-102560196D01*
X199883428Y-102554235D01*
X199860329Y-102545970D01*
X199838150Y-102535480D01*
X199817107Y-102522868D01*
X199797401Y-102508253D01*
X199779223Y-102491777D01*
X199762747Y-102473599D01*
X199748132Y-102453893D01*
X199735520Y-102432850D01*
X199725030Y-102410671D01*
X199716765Y-102387572D01*
X199710804Y-102363773D01*
X199707204Y-102339505D01*
X199706000Y-102315001D01*
X199706000Y-101664999D01*
X199707204Y-101640495D01*
X199710804Y-101616227D01*
X199716765Y-101592428D01*
X199725030Y-101569329D01*
X199735520Y-101547150D01*
X199748132Y-101526107D01*
X199762747Y-101506401D01*
X199779223Y-101488223D01*
X199797401Y-101471747D01*
X199817107Y-101457132D01*
X199838150Y-101444520D01*
X199860329Y-101434030D01*
X199883428Y-101425765D01*
X199907227Y-101419804D01*
X199931495Y-101416204D01*
X199955999Y-101415000D01*
X200856001Y-101415000D01*
X200880505Y-101416204D01*
X200880505Y-101416204D01*
G37*
D12*
X200406000Y-101990000D03*
D19*
X177800000Y-91926000D03*
D20*
X177800000Y-98226000D03*
X180100000Y-98226000D03*
X175500000Y-98226000D03*
D10*
G36*
X181954505Y-81905204D02*
G01*
X181978773Y-81908804D01*
X182002572Y-81914765D01*
X182025671Y-81923030D01*
X182047850Y-81933520D01*
X182068893Y-81946132D01*
X182088599Y-81960747D01*
X182106777Y-81977223D01*
X182123253Y-81995401D01*
X182137868Y-82015107D01*
X182150480Y-82036150D01*
X182160970Y-82058329D01*
X182169235Y-82081428D01*
X182175196Y-82105227D01*
X182178796Y-82129495D01*
X182180000Y-82153999D01*
X182180000Y-82804001D01*
X182178796Y-82828505D01*
X182175196Y-82852773D01*
X182169235Y-82876572D01*
X182160970Y-82899671D01*
X182150480Y-82921850D01*
X182137868Y-82942893D01*
X182123253Y-82962599D01*
X182106777Y-82980777D01*
X182088599Y-82997253D01*
X182068893Y-83011868D01*
X182047850Y-83024480D01*
X182025671Y-83034970D01*
X182002572Y-83043235D01*
X181978773Y-83049196D01*
X181954505Y-83052796D01*
X181930001Y-83054000D01*
X181029999Y-83054000D01*
X181005495Y-83052796D01*
X180981227Y-83049196D01*
X180957428Y-83043235D01*
X180934329Y-83034970D01*
X180912150Y-83024480D01*
X180891107Y-83011868D01*
X180871401Y-82997253D01*
X180853223Y-82980777D01*
X180836747Y-82962599D01*
X180822132Y-82942893D01*
X180809520Y-82921850D01*
X180799030Y-82899671D01*
X180790765Y-82876572D01*
X180784804Y-82852773D01*
X180781204Y-82828505D01*
X180780000Y-82804001D01*
X180780000Y-82153999D01*
X180781204Y-82129495D01*
X180784804Y-82105227D01*
X180790765Y-82081428D01*
X180799030Y-82058329D01*
X180809520Y-82036150D01*
X180822132Y-82015107D01*
X180836747Y-81995401D01*
X180853223Y-81977223D01*
X180871401Y-81960747D01*
X180891107Y-81946132D01*
X180912150Y-81933520D01*
X180934329Y-81923030D01*
X180957428Y-81914765D01*
X180981227Y-81908804D01*
X181005495Y-81905204D01*
X181029999Y-81904000D01*
X181930001Y-81904000D01*
X181954505Y-81905204D01*
X181954505Y-81905204D01*
G37*
D12*
X181480000Y-82479000D03*
D10*
G36*
X181954505Y-83955204D02*
G01*
X181978773Y-83958804D01*
X182002572Y-83964765D01*
X182025671Y-83973030D01*
X182047850Y-83983520D01*
X182068893Y-83996132D01*
X182088599Y-84010747D01*
X182106777Y-84027223D01*
X182123253Y-84045401D01*
X182137868Y-84065107D01*
X182150480Y-84086150D01*
X182160970Y-84108329D01*
X182169235Y-84131428D01*
X182175196Y-84155227D01*
X182178796Y-84179495D01*
X182180000Y-84203999D01*
X182180000Y-84854001D01*
X182178796Y-84878505D01*
X182175196Y-84902773D01*
X182169235Y-84926572D01*
X182160970Y-84949671D01*
X182150480Y-84971850D01*
X182137868Y-84992893D01*
X182123253Y-85012599D01*
X182106777Y-85030777D01*
X182088599Y-85047253D01*
X182068893Y-85061868D01*
X182047850Y-85074480D01*
X182025671Y-85084970D01*
X182002572Y-85093235D01*
X181978773Y-85099196D01*
X181954505Y-85102796D01*
X181930001Y-85104000D01*
X181029999Y-85104000D01*
X181005495Y-85102796D01*
X180981227Y-85099196D01*
X180957428Y-85093235D01*
X180934329Y-85084970D01*
X180912150Y-85074480D01*
X180891107Y-85061868D01*
X180871401Y-85047253D01*
X180853223Y-85030777D01*
X180836747Y-85012599D01*
X180822132Y-84992893D01*
X180809520Y-84971850D01*
X180799030Y-84949671D01*
X180790765Y-84926572D01*
X180784804Y-84902773D01*
X180781204Y-84878505D01*
X180780000Y-84854001D01*
X180780000Y-84203999D01*
X180781204Y-84179495D01*
X180784804Y-84155227D01*
X180790765Y-84131428D01*
X180799030Y-84108329D01*
X180809520Y-84086150D01*
X180822132Y-84065107D01*
X180836747Y-84045401D01*
X180853223Y-84027223D01*
X180871401Y-84010747D01*
X180891107Y-83996132D01*
X180912150Y-83983520D01*
X180934329Y-83973030D01*
X180957428Y-83964765D01*
X180981227Y-83958804D01*
X181005495Y-83955204D01*
X181029999Y-83954000D01*
X181930001Y-83954000D01*
X181954505Y-83955204D01*
X181954505Y-83955204D01*
G37*
D12*
X181480000Y-84529000D03*
D10*
G36*
X200880505Y-105607204D02*
G01*
X200904773Y-105610804D01*
X200928572Y-105616765D01*
X200951671Y-105625030D01*
X200973850Y-105635520D01*
X200994893Y-105648132D01*
X201014599Y-105662747D01*
X201032777Y-105679223D01*
X201049253Y-105697401D01*
X201063868Y-105717107D01*
X201076480Y-105738150D01*
X201086970Y-105760329D01*
X201095235Y-105783428D01*
X201101196Y-105807227D01*
X201104796Y-105831495D01*
X201106000Y-105855999D01*
X201106000Y-106506001D01*
X201104796Y-106530505D01*
X201101196Y-106554773D01*
X201095235Y-106578572D01*
X201086970Y-106601671D01*
X201076480Y-106623850D01*
X201063868Y-106644893D01*
X201049253Y-106664599D01*
X201032777Y-106682777D01*
X201014599Y-106699253D01*
X200994893Y-106713868D01*
X200973850Y-106726480D01*
X200951671Y-106736970D01*
X200928572Y-106745235D01*
X200904773Y-106751196D01*
X200880505Y-106754796D01*
X200856001Y-106756000D01*
X199955999Y-106756000D01*
X199931495Y-106754796D01*
X199907227Y-106751196D01*
X199883428Y-106745235D01*
X199860329Y-106736970D01*
X199838150Y-106726480D01*
X199817107Y-106713868D01*
X199797401Y-106699253D01*
X199779223Y-106682777D01*
X199762747Y-106664599D01*
X199748132Y-106644893D01*
X199735520Y-106623850D01*
X199725030Y-106601671D01*
X199716765Y-106578572D01*
X199710804Y-106554773D01*
X199707204Y-106530505D01*
X199706000Y-106506001D01*
X199706000Y-105855999D01*
X199707204Y-105831495D01*
X199710804Y-105807227D01*
X199716765Y-105783428D01*
X199725030Y-105760329D01*
X199735520Y-105738150D01*
X199748132Y-105717107D01*
X199762747Y-105697401D01*
X199779223Y-105679223D01*
X199797401Y-105662747D01*
X199817107Y-105648132D01*
X199838150Y-105635520D01*
X199860329Y-105625030D01*
X199883428Y-105616765D01*
X199907227Y-105610804D01*
X199931495Y-105607204D01*
X199955999Y-105606000D01*
X200856001Y-105606000D01*
X200880505Y-105607204D01*
X200880505Y-105607204D01*
G37*
D12*
X200406000Y-106181000D03*
D10*
G36*
X200880505Y-103557204D02*
G01*
X200904773Y-103560804D01*
X200928572Y-103566765D01*
X200951671Y-103575030D01*
X200973850Y-103585520D01*
X200994893Y-103598132D01*
X201014599Y-103612747D01*
X201032777Y-103629223D01*
X201049253Y-103647401D01*
X201063868Y-103667107D01*
X201076480Y-103688150D01*
X201086970Y-103710329D01*
X201095235Y-103733428D01*
X201101196Y-103757227D01*
X201104796Y-103781495D01*
X201106000Y-103805999D01*
X201106000Y-104456001D01*
X201104796Y-104480505D01*
X201101196Y-104504773D01*
X201095235Y-104528572D01*
X201086970Y-104551671D01*
X201076480Y-104573850D01*
X201063868Y-104594893D01*
X201049253Y-104614599D01*
X201032777Y-104632777D01*
X201014599Y-104649253D01*
X200994893Y-104663868D01*
X200973850Y-104676480D01*
X200951671Y-104686970D01*
X200928572Y-104695235D01*
X200904773Y-104701196D01*
X200880505Y-104704796D01*
X200856001Y-104706000D01*
X199955999Y-104706000D01*
X199931495Y-104704796D01*
X199907227Y-104701196D01*
X199883428Y-104695235D01*
X199860329Y-104686970D01*
X199838150Y-104676480D01*
X199817107Y-104663868D01*
X199797401Y-104649253D01*
X199779223Y-104632777D01*
X199762747Y-104614599D01*
X199748132Y-104594893D01*
X199735520Y-104573850D01*
X199725030Y-104551671D01*
X199716765Y-104528572D01*
X199710804Y-104504773D01*
X199707204Y-104480505D01*
X199706000Y-104456001D01*
X199706000Y-103805999D01*
X199707204Y-103781495D01*
X199710804Y-103757227D01*
X199716765Y-103733428D01*
X199725030Y-103710329D01*
X199735520Y-103688150D01*
X199748132Y-103667107D01*
X199762747Y-103647401D01*
X199779223Y-103629223D01*
X199797401Y-103612747D01*
X199817107Y-103598132D01*
X199838150Y-103585520D01*
X199860329Y-103575030D01*
X199883428Y-103566765D01*
X199907227Y-103560804D01*
X199931495Y-103557204D01*
X199955999Y-103556000D01*
X200856001Y-103556000D01*
X200880505Y-103557204D01*
X200880505Y-103557204D01*
G37*
D12*
X200406000Y-104131000D03*
D10*
G36*
X190085505Y-107893204D02*
G01*
X190109773Y-107896804D01*
X190133572Y-107902765D01*
X190156671Y-107911030D01*
X190178850Y-107921520D01*
X190199893Y-107934132D01*
X190219599Y-107948747D01*
X190237777Y-107965223D01*
X190254253Y-107983401D01*
X190268868Y-108003107D01*
X190281480Y-108024150D01*
X190291970Y-108046329D01*
X190300235Y-108069428D01*
X190306196Y-108093227D01*
X190309796Y-108117495D01*
X190311000Y-108141999D01*
X190311000Y-108792001D01*
X190309796Y-108816505D01*
X190306196Y-108840773D01*
X190300235Y-108864572D01*
X190291970Y-108887671D01*
X190281480Y-108909850D01*
X190268868Y-108930893D01*
X190254253Y-108950599D01*
X190237777Y-108968777D01*
X190219599Y-108985253D01*
X190199893Y-108999868D01*
X190178850Y-109012480D01*
X190156671Y-109022970D01*
X190133572Y-109031235D01*
X190109773Y-109037196D01*
X190085505Y-109040796D01*
X190061001Y-109042000D01*
X189160999Y-109042000D01*
X189136495Y-109040796D01*
X189112227Y-109037196D01*
X189088428Y-109031235D01*
X189065329Y-109022970D01*
X189043150Y-109012480D01*
X189022107Y-108999868D01*
X189002401Y-108985253D01*
X188984223Y-108968777D01*
X188967747Y-108950599D01*
X188953132Y-108930893D01*
X188940520Y-108909850D01*
X188930030Y-108887671D01*
X188921765Y-108864572D01*
X188915804Y-108840773D01*
X188912204Y-108816505D01*
X188911000Y-108792001D01*
X188911000Y-108141999D01*
X188912204Y-108117495D01*
X188915804Y-108093227D01*
X188921765Y-108069428D01*
X188930030Y-108046329D01*
X188940520Y-108024150D01*
X188953132Y-108003107D01*
X188967747Y-107983401D01*
X188984223Y-107965223D01*
X189002401Y-107948747D01*
X189022107Y-107934132D01*
X189043150Y-107921520D01*
X189065329Y-107911030D01*
X189088428Y-107902765D01*
X189112227Y-107896804D01*
X189136495Y-107893204D01*
X189160999Y-107892000D01*
X190061001Y-107892000D01*
X190085505Y-107893204D01*
X190085505Y-107893204D01*
G37*
D12*
X189611000Y-108467000D03*
D10*
G36*
X190085505Y-105843204D02*
G01*
X190109773Y-105846804D01*
X190133572Y-105852765D01*
X190156671Y-105861030D01*
X190178850Y-105871520D01*
X190199893Y-105884132D01*
X190219599Y-105898747D01*
X190237777Y-105915223D01*
X190254253Y-105933401D01*
X190268868Y-105953107D01*
X190281480Y-105974150D01*
X190291970Y-105996329D01*
X190300235Y-106019428D01*
X190306196Y-106043227D01*
X190309796Y-106067495D01*
X190311000Y-106091999D01*
X190311000Y-106742001D01*
X190309796Y-106766505D01*
X190306196Y-106790773D01*
X190300235Y-106814572D01*
X190291970Y-106837671D01*
X190281480Y-106859850D01*
X190268868Y-106880893D01*
X190254253Y-106900599D01*
X190237777Y-106918777D01*
X190219599Y-106935253D01*
X190199893Y-106949868D01*
X190178850Y-106962480D01*
X190156671Y-106972970D01*
X190133572Y-106981235D01*
X190109773Y-106987196D01*
X190085505Y-106990796D01*
X190061001Y-106992000D01*
X189160999Y-106992000D01*
X189136495Y-106990796D01*
X189112227Y-106987196D01*
X189088428Y-106981235D01*
X189065329Y-106972970D01*
X189043150Y-106962480D01*
X189022107Y-106949868D01*
X189002401Y-106935253D01*
X188984223Y-106918777D01*
X188967747Y-106900599D01*
X188953132Y-106880893D01*
X188940520Y-106859850D01*
X188930030Y-106837671D01*
X188921765Y-106814572D01*
X188915804Y-106790773D01*
X188912204Y-106766505D01*
X188911000Y-106742001D01*
X188911000Y-106091999D01*
X188912204Y-106067495D01*
X188915804Y-106043227D01*
X188921765Y-106019428D01*
X188930030Y-105996329D01*
X188940520Y-105974150D01*
X188953132Y-105953107D01*
X188967747Y-105933401D01*
X188984223Y-105915223D01*
X189002401Y-105898747D01*
X189022107Y-105884132D01*
X189043150Y-105871520D01*
X189065329Y-105861030D01*
X189088428Y-105852765D01*
X189112227Y-105846804D01*
X189136495Y-105843204D01*
X189160999Y-105842000D01*
X190061001Y-105842000D01*
X190085505Y-105843204D01*
X190085505Y-105843204D01*
G37*
D12*
X189611000Y-106417000D03*
D21*
X204216000Y-105688000D03*
X205166000Y-108688000D03*
X203266000Y-108688000D03*
X211516000Y-101603000D03*
X209616000Y-101603000D03*
X210566000Y-104603000D03*
D10*
G36*
X187037505Y-100636204D02*
G01*
X187061773Y-100639804D01*
X187085572Y-100645765D01*
X187108671Y-100654030D01*
X187130850Y-100664520D01*
X187151893Y-100677132D01*
X187171599Y-100691747D01*
X187189777Y-100708223D01*
X187206253Y-100726401D01*
X187220868Y-100746107D01*
X187233480Y-100767150D01*
X187243970Y-100789329D01*
X187252235Y-100812428D01*
X187258196Y-100836227D01*
X187261796Y-100860495D01*
X187263000Y-100884999D01*
X187263000Y-101535001D01*
X187261796Y-101559505D01*
X187258196Y-101583773D01*
X187252235Y-101607572D01*
X187243970Y-101630671D01*
X187233480Y-101652850D01*
X187220868Y-101673893D01*
X187206253Y-101693599D01*
X187189777Y-101711777D01*
X187171599Y-101728253D01*
X187151893Y-101742868D01*
X187130850Y-101755480D01*
X187108671Y-101765970D01*
X187085572Y-101774235D01*
X187061773Y-101780196D01*
X187037505Y-101783796D01*
X187013001Y-101785000D01*
X186112999Y-101785000D01*
X186088495Y-101783796D01*
X186064227Y-101780196D01*
X186040428Y-101774235D01*
X186017329Y-101765970D01*
X185995150Y-101755480D01*
X185974107Y-101742868D01*
X185954401Y-101728253D01*
X185936223Y-101711777D01*
X185919747Y-101693599D01*
X185905132Y-101673893D01*
X185892520Y-101652850D01*
X185882030Y-101630671D01*
X185873765Y-101607572D01*
X185867804Y-101583773D01*
X185864204Y-101559505D01*
X185863000Y-101535001D01*
X185863000Y-100884999D01*
X185864204Y-100860495D01*
X185867804Y-100836227D01*
X185873765Y-100812428D01*
X185882030Y-100789329D01*
X185892520Y-100767150D01*
X185905132Y-100746107D01*
X185919747Y-100726401D01*
X185936223Y-100708223D01*
X185954401Y-100691747D01*
X185974107Y-100677132D01*
X185995150Y-100664520D01*
X186017329Y-100654030D01*
X186040428Y-100645765D01*
X186064227Y-100639804D01*
X186088495Y-100636204D01*
X186112999Y-100635000D01*
X187013001Y-100635000D01*
X187037505Y-100636204D01*
X187037505Y-100636204D01*
G37*
D12*
X186563000Y-101210000D03*
D10*
G36*
X187037505Y-102686204D02*
G01*
X187061773Y-102689804D01*
X187085572Y-102695765D01*
X187108671Y-102704030D01*
X187130850Y-102714520D01*
X187151893Y-102727132D01*
X187171599Y-102741747D01*
X187189777Y-102758223D01*
X187206253Y-102776401D01*
X187220868Y-102796107D01*
X187233480Y-102817150D01*
X187243970Y-102839329D01*
X187252235Y-102862428D01*
X187258196Y-102886227D01*
X187261796Y-102910495D01*
X187263000Y-102934999D01*
X187263000Y-103585001D01*
X187261796Y-103609505D01*
X187258196Y-103633773D01*
X187252235Y-103657572D01*
X187243970Y-103680671D01*
X187233480Y-103702850D01*
X187220868Y-103723893D01*
X187206253Y-103743599D01*
X187189777Y-103761777D01*
X187171599Y-103778253D01*
X187151893Y-103792868D01*
X187130850Y-103805480D01*
X187108671Y-103815970D01*
X187085572Y-103824235D01*
X187061773Y-103830196D01*
X187037505Y-103833796D01*
X187013001Y-103835000D01*
X186112999Y-103835000D01*
X186088495Y-103833796D01*
X186064227Y-103830196D01*
X186040428Y-103824235D01*
X186017329Y-103815970D01*
X185995150Y-103805480D01*
X185974107Y-103792868D01*
X185954401Y-103778253D01*
X185936223Y-103761777D01*
X185919747Y-103743599D01*
X185905132Y-103723893D01*
X185892520Y-103702850D01*
X185882030Y-103680671D01*
X185873765Y-103657572D01*
X185867804Y-103633773D01*
X185864204Y-103609505D01*
X185863000Y-103585001D01*
X185863000Y-102934999D01*
X185864204Y-102910495D01*
X185867804Y-102886227D01*
X185873765Y-102862428D01*
X185882030Y-102839329D01*
X185892520Y-102817150D01*
X185905132Y-102796107D01*
X185919747Y-102776401D01*
X185936223Y-102758223D01*
X185954401Y-102741747D01*
X185974107Y-102727132D01*
X185995150Y-102714520D01*
X186017329Y-102704030D01*
X186040428Y-102695765D01*
X186064227Y-102689804D01*
X186088495Y-102686204D01*
X186112999Y-102685000D01*
X187013001Y-102685000D01*
X187037505Y-102686204D01*
X187037505Y-102686204D01*
G37*
D12*
X186563000Y-103260000D03*
D10*
G36*
X184243505Y-102686204D02*
G01*
X184267773Y-102689804D01*
X184291572Y-102695765D01*
X184314671Y-102704030D01*
X184336850Y-102714520D01*
X184357893Y-102727132D01*
X184377599Y-102741747D01*
X184395777Y-102758223D01*
X184412253Y-102776401D01*
X184426868Y-102796107D01*
X184439480Y-102817150D01*
X184449970Y-102839329D01*
X184458235Y-102862428D01*
X184464196Y-102886227D01*
X184467796Y-102910495D01*
X184469000Y-102934999D01*
X184469000Y-103585001D01*
X184467796Y-103609505D01*
X184464196Y-103633773D01*
X184458235Y-103657572D01*
X184449970Y-103680671D01*
X184439480Y-103702850D01*
X184426868Y-103723893D01*
X184412253Y-103743599D01*
X184395777Y-103761777D01*
X184377599Y-103778253D01*
X184357893Y-103792868D01*
X184336850Y-103805480D01*
X184314671Y-103815970D01*
X184291572Y-103824235D01*
X184267773Y-103830196D01*
X184243505Y-103833796D01*
X184219001Y-103835000D01*
X183318999Y-103835000D01*
X183294495Y-103833796D01*
X183270227Y-103830196D01*
X183246428Y-103824235D01*
X183223329Y-103815970D01*
X183201150Y-103805480D01*
X183180107Y-103792868D01*
X183160401Y-103778253D01*
X183142223Y-103761777D01*
X183125747Y-103743599D01*
X183111132Y-103723893D01*
X183098520Y-103702850D01*
X183088030Y-103680671D01*
X183079765Y-103657572D01*
X183073804Y-103633773D01*
X183070204Y-103609505D01*
X183069000Y-103585001D01*
X183069000Y-102934999D01*
X183070204Y-102910495D01*
X183073804Y-102886227D01*
X183079765Y-102862428D01*
X183088030Y-102839329D01*
X183098520Y-102817150D01*
X183111132Y-102796107D01*
X183125747Y-102776401D01*
X183142223Y-102758223D01*
X183160401Y-102741747D01*
X183180107Y-102727132D01*
X183201150Y-102714520D01*
X183223329Y-102704030D01*
X183246428Y-102695765D01*
X183270227Y-102689804D01*
X183294495Y-102686204D01*
X183318999Y-102685000D01*
X184219001Y-102685000D01*
X184243505Y-102686204D01*
X184243505Y-102686204D01*
G37*
D12*
X183769000Y-103260000D03*
D10*
G36*
X184243505Y-100636204D02*
G01*
X184267773Y-100639804D01*
X184291572Y-100645765D01*
X184314671Y-100654030D01*
X184336850Y-100664520D01*
X184357893Y-100677132D01*
X184377599Y-100691747D01*
X184395777Y-100708223D01*
X184412253Y-100726401D01*
X184426868Y-100746107D01*
X184439480Y-100767150D01*
X184449970Y-100789329D01*
X184458235Y-100812428D01*
X184464196Y-100836227D01*
X184467796Y-100860495D01*
X184469000Y-100884999D01*
X184469000Y-101535001D01*
X184467796Y-101559505D01*
X184464196Y-101583773D01*
X184458235Y-101607572D01*
X184449970Y-101630671D01*
X184439480Y-101652850D01*
X184426868Y-101673893D01*
X184412253Y-101693599D01*
X184395777Y-101711777D01*
X184377599Y-101728253D01*
X184357893Y-101742868D01*
X184336850Y-101755480D01*
X184314671Y-101765970D01*
X184291572Y-101774235D01*
X184267773Y-101780196D01*
X184243505Y-101783796D01*
X184219001Y-101785000D01*
X183318999Y-101785000D01*
X183294495Y-101783796D01*
X183270227Y-101780196D01*
X183246428Y-101774235D01*
X183223329Y-101765970D01*
X183201150Y-101755480D01*
X183180107Y-101742868D01*
X183160401Y-101728253D01*
X183142223Y-101711777D01*
X183125747Y-101693599D01*
X183111132Y-101673893D01*
X183098520Y-101652850D01*
X183088030Y-101630671D01*
X183079765Y-101607572D01*
X183073804Y-101583773D01*
X183070204Y-101559505D01*
X183069000Y-101535001D01*
X183069000Y-100884999D01*
X183070204Y-100860495D01*
X183073804Y-100836227D01*
X183079765Y-100812428D01*
X183088030Y-100789329D01*
X183098520Y-100767150D01*
X183111132Y-100746107D01*
X183125747Y-100726401D01*
X183142223Y-100708223D01*
X183160401Y-100691747D01*
X183180107Y-100677132D01*
X183201150Y-100664520D01*
X183223329Y-100654030D01*
X183246428Y-100645765D01*
X183270227Y-100639804D01*
X183294495Y-100636204D01*
X183318999Y-100635000D01*
X184219001Y-100635000D01*
X184243505Y-100636204D01*
X184243505Y-100636204D01*
G37*
D12*
X183769000Y-101210000D03*
M02*
