M48
; DRILL file {KiCad 5.1.4-e60b266~84~ubuntu19.04.1} date Thu 27 Feb 2020 18:00:11 AEDT
; FORMAT={-:-/ absolute / inch / decimal}
; #@! TF.CreationDate,2020-02-27T18:00:11+11:00
; #@! TF.GenerationSoftware,Kicad,Pcbnew,5.1.4-e60b266~84~ubuntu19.04.1
FMAT,2
INCH
T1C0.0157
T2C0.0197
T3C0.0394
T4C0.0512
T5C0.0256
%
G90
G05
T1
X7.2348Y-3.5148
X7.4106Y-3.5856
X7.4236Y-3.7212
X7.4727Y-3.713
X7.5401Y-4.0966
X7.5411Y-4.0572
X7.5874Y-4.1696
X7.5995Y-4.2421
X7.635Y-4.545
X7.6805Y-3.9354
X7.7Y-4.295
X7.72Y-4.545
X7.7424Y-4.2829
X7.7808Y-4.1786
X7.8102Y-3.718
X7.8378Y-3.9346
X7.9388Y-3.718
X7.9414Y-4.1609
X7.948Y-3.8772
X8.0574Y-4.018
X8.2995Y-3.9353
T3
X8.0Y-4.55
X8.1Y-4.55
X8.2Y-4.55
X7.13Y-4.21
X7.23Y-4.21
X7.33Y-4.21
X8.49Y-3.37
X8.49Y-3.47
X8.49Y-3.57
X8.49Y-3.67
X8.49Y-3.77
X8.49Y-3.87
X8.49Y-3.97
X8.49Y-4.07
X8.49Y-4.17
X8.49Y-4.27
X8.59Y-3.37
X8.59Y-3.47
X8.59Y-3.57
X8.59Y-3.67
X8.59Y-3.77
X8.59Y-3.87
X8.59Y-3.97
X8.59Y-4.07
X8.59Y-4.17
X8.59Y-4.27
T4
X7.125Y-4.5748
X7.325Y-4.5748
T5
X7.5354Y-4.4051
T2
G00X7.5004Y-4.6768
M15
G01X7.5004Y-4.7004
M16
G05
G00X7.5146Y-4.4425
M15
G01X7.5146Y-4.4661
M16
G05
G00X7.8398Y-4.4425
M15
G01X7.8398Y-4.4661
M16
G05
G00X7.8539Y-4.6768
M15
G01X7.8539Y-4.7004
M16
G05
T5
G00X7.813Y-4.4051
M15
G01X7.8248Y-4.4051
M16
G05
T0
M30
