G04 #@! TF.GenerationSoftware,KiCad,Pcbnew,5.1.4-e60b266~84~ubuntu19.04.1*
G04 #@! TF.CreationDate,2020-02-27T18:00:07+11:00*
G04 #@! TF.ProjectId,esp32_saab_devboard,65737033-325f-4736-9161-625f64657662,rev?*
G04 #@! TF.SameCoordinates,Original*
G04 #@! TF.FileFunction,Copper,L2,Bot*
G04 #@! TF.FilePolarity,Positive*
%FSLAX46Y46*%
G04 Gerber Fmt 4.6, Leading zero omitted, Abs format (unit mm)*
G04 Created by KiCad (PCBNEW 5.1.4-e60b266~84~ubuntu19.04.1) date 2020-02-27 18:00:07*
%MOMM*%
%LPD*%
G04 APERTURE LIST*
%ADD10O,0.800000X1.400000*%
%ADD11R,1.700000X1.700000*%
%ADD12O,1.700000X1.700000*%
%ADD13R,2.600000X2.600000*%
%ADD14C,2.600000*%
%ADD15C,0.800000*%
%ADD16C,0.250000*%
G04 APERTURE END LIST*
D10*
X190870000Y-113140000D03*
X199130000Y-113140000D03*
X199490000Y-119090000D03*
X190510000Y-119090000D03*
D11*
X208280000Y-115570000D03*
D12*
X205740000Y-115570000D03*
X203200000Y-115570000D03*
D11*
X218186000Y-108458000D03*
D12*
X215646000Y-108458000D03*
X218186000Y-105918000D03*
X215646000Y-105918000D03*
X218186000Y-103378000D03*
X215646000Y-103378000D03*
X218186000Y-100838000D03*
X215646000Y-100838000D03*
X218186000Y-98298000D03*
X215646000Y-98298000D03*
X218186000Y-95758000D03*
X215646000Y-95758000D03*
X218186000Y-93218000D03*
X215646000Y-93218000D03*
X218186000Y-90678000D03*
X215646000Y-90678000D03*
X218186000Y-88138000D03*
X215646000Y-88138000D03*
X218186000Y-85598000D03*
X215646000Y-85598000D03*
D11*
X181102000Y-106934000D03*
D12*
X183642000Y-106934000D03*
X186182000Y-106934000D03*
D13*
X180975000Y-116200000D03*
D14*
X186055000Y-116200000D03*
D15*
X197631200Y-106136200D03*
X183763700Y-89276400D03*
X201712800Y-105688000D03*
X192720000Y-105906800D03*
X193027600Y-107749400D03*
X201646400Y-94437000D03*
X199080600Y-99940000D03*
X198380300Y-94437000D03*
X195085300Y-99959100D03*
X191544700Y-103054000D03*
X196658000Y-108785000D03*
X196088000Y-115443000D03*
X191519300Y-104054400D03*
X195580000Y-109093000D03*
X193929000Y-115443000D03*
X201878100Y-98480300D03*
X204657700Y-102056300D03*
X189806400Y-94309300D03*
X188560700Y-94517700D03*
X210808400Y-99955800D03*
X188229000Y-91075000D03*
D16*
X199130000Y-113668200D02*
X197631200Y-112169400D01*
X197631200Y-112169400D02*
X197631200Y-106136200D01*
X199130000Y-113668200D02*
X199130000Y-114165300D01*
X199130000Y-113140000D02*
X199130000Y-113668200D01*
X201259700Y-116295000D02*
X199130000Y-114165300D01*
X202024700Y-115570000D02*
X201299700Y-116295000D01*
X201299700Y-116295000D02*
X201259700Y-116295000D01*
X201259700Y-116295000D02*
X199490000Y-118064700D01*
X199490000Y-119090000D02*
X199490000Y-118064700D01*
X203200000Y-115570000D02*
X202024700Y-115570000D01*
X190870000Y-113140000D02*
X190870000Y-114165300D01*
X189772100Y-117833800D02*
X189772100Y-115263200D01*
X189772100Y-115263200D02*
X190870000Y-114165300D01*
X190510000Y-118577300D02*
X189772100Y-117839400D01*
X189772100Y-117839400D02*
X189772100Y-117833800D01*
X189772100Y-117833800D02*
X184234100Y-117833800D01*
X184234100Y-117833800D02*
X182600300Y-116200000D01*
X180975000Y-116200000D02*
X182600300Y-116200000D01*
X190510000Y-119090000D02*
X190510000Y-118577300D01*
X215646000Y-105918000D02*
X215646000Y-108458000D01*
X183763700Y-89276400D02*
X183763700Y-90771800D01*
X183763700Y-90771800D02*
X198679900Y-105688000D01*
X198679900Y-105688000D02*
X201712800Y-105688000D01*
X192212200Y-106934000D02*
X193027600Y-107749400D01*
X186182000Y-106934000D02*
X192212200Y-106934000D01*
X192212200Y-106934000D02*
X192212200Y-106414600D01*
X192212200Y-106414600D02*
X192720000Y-105906800D01*
X181102000Y-106934000D02*
X181102000Y-108109300D01*
X181102000Y-108109300D02*
X186055000Y-113062300D01*
X186055000Y-113062300D02*
X186055000Y-116200000D01*
X200456500Y-99940000D02*
X199080600Y-99940000D01*
X208280000Y-115570000D02*
X208280000Y-107763500D01*
X208280000Y-107763500D02*
X200456500Y-99940000D01*
X201646400Y-94437000D02*
X200456500Y-95626900D01*
X200456500Y-95626900D02*
X200456500Y-99940000D01*
X197359600Y-99959100D02*
X197359600Y-95457700D01*
X197359600Y-95457700D02*
X198380300Y-94437000D01*
X205740000Y-114394700D02*
X205740000Y-108339500D01*
X205740000Y-108339500D02*
X197359600Y-99959100D01*
X195085300Y-99959100D02*
X197359600Y-99959100D01*
X205740000Y-115570000D02*
X205740000Y-114394700D01*
X196658000Y-108785000D02*
X196658000Y-108167300D01*
X196658000Y-108167300D02*
X191544700Y-103054000D01*
X196088000Y-115443000D02*
X195580000Y-114935000D01*
X195580000Y-114935000D02*
X195580000Y-110429000D01*
X195580000Y-110429000D02*
X196658000Y-109350000D01*
X196658000Y-109350000D02*
X196658000Y-108785000D01*
X195580000Y-109093000D02*
X195580000Y-107741000D01*
X195580000Y-107741000D02*
X191893400Y-104054400D01*
X191893400Y-104054400D02*
X191519300Y-104054400D01*
X193929000Y-115443000D02*
X193929000Y-110744000D01*
X193929000Y-110744000D02*
X195580000Y-109093000D01*
X204657700Y-102056300D02*
X201878100Y-99276700D01*
X201878100Y-99276700D02*
X201878100Y-98480300D01*
X189806400Y-94309300D02*
X190435500Y-93680200D01*
X190435500Y-93680200D02*
X203507100Y-93680200D01*
X203507100Y-93680200D02*
X212029600Y-102202700D01*
X212029600Y-102202700D02*
X216202800Y-102202700D01*
X216202800Y-102202700D02*
X217010700Y-103010600D01*
X217010700Y-103010600D02*
X217010700Y-103378000D01*
X218186000Y-103378000D02*
X217010700Y-103378000D01*
X217010700Y-100838000D02*
X217010700Y-100470600D01*
X217010700Y-100470600D02*
X216202800Y-99662700D01*
X216202800Y-99662700D02*
X214565300Y-99662700D01*
X214565300Y-99662700D02*
X208132500Y-93229900D01*
X208132500Y-93229900D02*
X189848500Y-93229900D01*
X189848500Y-93229900D02*
X188560700Y-94517700D01*
X218186000Y-100838000D02*
X217010700Y-100838000D01*
X215646000Y-100838000D02*
X211690600Y-100838000D01*
X211690600Y-100838000D02*
X210808400Y-99955800D01*
X215646000Y-90678000D02*
X214470700Y-90678000D01*
X214470700Y-90678000D02*
X188626000Y-90678000D01*
X188626000Y-90678000D02*
X188229000Y-91075000D01*
M02*
