G04 #@! TF.GenerationSoftware,KiCad,Pcbnew,5.1.5-52549c5~86~ubuntu19.04.1*
G04 #@! TF.CreationDate,2020-05-13T19:24:15+10:00*
G04 #@! TF.ProjectId,saab_bluetooth_aux_kit,73616162-5f62-46c7-9565-746f6f74685f,rev?*
G04 #@! TF.SameCoordinates,Original*
G04 #@! TF.FileFunction,Legend,Top*
G04 #@! TF.FilePolarity,Positive*
%FSLAX46Y46*%
G04 Gerber Fmt 4.6, Leading zero omitted, Abs format (unit mm)*
G04 Created by KiCad (PCBNEW 5.1.5-52549c5~86~ubuntu19.04.1) date 2020-05-13 19:24:15*
%MOMM*%
%LPD*%
G04 APERTURE LIST*
%ADD10C,0.150000*%
%ADD11C,0.120000*%
%ADD12C,0.375000*%
G04 APERTURE END LIST*
D10*
X130183333Y-122372380D02*
X129611904Y-122372380D01*
X129897619Y-122372380D02*
X129897619Y-121372380D01*
X129802380Y-121515238D01*
X129707142Y-121610476D01*
X129611904Y-121658095D01*
X130564285Y-121467619D02*
X130611904Y-121420000D01*
X130707142Y-121372380D01*
X130945238Y-121372380D01*
X131040476Y-121420000D01*
X131088095Y-121467619D01*
X131135714Y-121562857D01*
X131135714Y-121658095D01*
X131088095Y-121800952D01*
X130516666Y-122372380D01*
X131135714Y-122372380D01*
X131421428Y-121372380D02*
X131754761Y-122372380D01*
X132088095Y-121372380D01*
X133183333Y-122372380D02*
X133183333Y-121372380D01*
X133659523Y-122372380D02*
X133659523Y-121372380D01*
X134230952Y-122372380D01*
X134230952Y-121372380D01*
X134707142Y-122372380D02*
X134707142Y-121372380D01*
X135088095Y-121372380D01*
X135183333Y-121420000D01*
X135230952Y-121467619D01*
X135278571Y-121562857D01*
X135278571Y-121705714D01*
X135230952Y-121800952D01*
X135183333Y-121848571D01*
X135088095Y-121896190D01*
X134707142Y-121896190D01*
X135707142Y-121372380D02*
X135707142Y-122181904D01*
X135754761Y-122277142D01*
X135802380Y-122324761D01*
X135897619Y-122372380D01*
X136088095Y-122372380D01*
X136183333Y-122324761D01*
X136230952Y-122277142D01*
X136278571Y-122181904D01*
X136278571Y-121372380D01*
X136611904Y-121372380D02*
X137183333Y-121372380D01*
X136897619Y-122372380D02*
X136897619Y-121372380D01*
X97823976Y-130452761D02*
X97966833Y-130500380D01*
X98204928Y-130500380D01*
X98300166Y-130452761D01*
X98347785Y-130405142D01*
X98395404Y-130309904D01*
X98395404Y-130214666D01*
X98347785Y-130119428D01*
X98300166Y-130071809D01*
X98204928Y-130024190D01*
X98014452Y-129976571D01*
X97919214Y-129928952D01*
X97871595Y-129881333D01*
X97823976Y-129786095D01*
X97823976Y-129690857D01*
X97871595Y-129595619D01*
X97919214Y-129548000D01*
X98014452Y-129500380D01*
X98252547Y-129500380D01*
X98395404Y-129548000D01*
X98776357Y-130214666D02*
X99252547Y-130214666D01*
X98681119Y-130500380D02*
X99014452Y-129500380D01*
X99347785Y-130500380D01*
X99633500Y-130214666D02*
X100109690Y-130214666D01*
X99538261Y-130500380D02*
X99871595Y-129500380D01*
X100204928Y-130500380D01*
X100871595Y-129976571D02*
X101014452Y-130024190D01*
X101062071Y-130071809D01*
X101109690Y-130167047D01*
X101109690Y-130309904D01*
X101062071Y-130405142D01*
X101014452Y-130452761D01*
X100919214Y-130500380D01*
X100538261Y-130500380D01*
X100538261Y-129500380D01*
X100871595Y-129500380D01*
X100966833Y-129548000D01*
X101014452Y-129595619D01*
X101062071Y-129690857D01*
X101062071Y-129786095D01*
X101014452Y-129881333D01*
X100966833Y-129928952D01*
X100871595Y-129976571D01*
X100538261Y-129976571D01*
X102633500Y-129976571D02*
X102776357Y-130024190D01*
X102823976Y-130071809D01*
X102871595Y-130167047D01*
X102871595Y-130309904D01*
X102823976Y-130405142D01*
X102776357Y-130452761D01*
X102681119Y-130500380D01*
X102300166Y-130500380D01*
X102300166Y-129500380D01*
X102633500Y-129500380D01*
X102728738Y-129548000D01*
X102776357Y-129595619D01*
X102823976Y-129690857D01*
X102823976Y-129786095D01*
X102776357Y-129881333D01*
X102728738Y-129928952D01*
X102633500Y-129976571D01*
X102300166Y-129976571D01*
X103776357Y-130500380D02*
X103300166Y-130500380D01*
X103300166Y-129500380D01*
X104109690Y-129500380D02*
X104109690Y-130309904D01*
X104157309Y-130405142D01*
X104204928Y-130452761D01*
X104300166Y-130500380D01*
X104490642Y-130500380D01*
X104585880Y-130452761D01*
X104633500Y-130405142D01*
X104681119Y-130309904D01*
X104681119Y-129500380D01*
X105157309Y-129976571D02*
X105490642Y-129976571D01*
X105633500Y-130500380D02*
X105157309Y-130500380D01*
X105157309Y-129500380D01*
X105633500Y-129500380D01*
X105919214Y-129500380D02*
X106490642Y-129500380D01*
X106204928Y-130500380D02*
X106204928Y-129500380D01*
X107014452Y-129500380D02*
X107204928Y-129500380D01*
X107300166Y-129548000D01*
X107395404Y-129643238D01*
X107443023Y-129833714D01*
X107443023Y-130167047D01*
X107395404Y-130357523D01*
X107300166Y-130452761D01*
X107204928Y-130500380D01*
X107014452Y-130500380D01*
X106919214Y-130452761D01*
X106823976Y-130357523D01*
X106776357Y-130167047D01*
X106776357Y-129833714D01*
X106823976Y-129643238D01*
X106919214Y-129548000D01*
X107014452Y-129500380D01*
X108062071Y-129500380D02*
X108252547Y-129500380D01*
X108347785Y-129548000D01*
X108443023Y-129643238D01*
X108490642Y-129833714D01*
X108490642Y-130167047D01*
X108443023Y-130357523D01*
X108347785Y-130452761D01*
X108252547Y-130500380D01*
X108062071Y-130500380D01*
X107966833Y-130452761D01*
X107871595Y-130357523D01*
X107823976Y-130167047D01*
X107823976Y-129833714D01*
X107871595Y-129643238D01*
X107966833Y-129548000D01*
X108062071Y-129500380D01*
X108776357Y-129500380D02*
X109347785Y-129500380D01*
X109062071Y-130500380D02*
X109062071Y-129500380D01*
X109681119Y-130500380D02*
X109681119Y-129500380D01*
X109681119Y-129976571D02*
X110252547Y-129976571D01*
X110252547Y-130500380D02*
X110252547Y-129500380D01*
X111443023Y-130214666D02*
X111919214Y-130214666D01*
X111347785Y-130500380D02*
X111681119Y-129500380D01*
X112014452Y-130500380D01*
X112347785Y-129500380D02*
X112347785Y-130309904D01*
X112395404Y-130405142D01*
X112443023Y-130452761D01*
X112538261Y-130500380D01*
X112728738Y-130500380D01*
X112823976Y-130452761D01*
X112871595Y-130405142D01*
X112919214Y-130309904D01*
X112919214Y-129500380D01*
X113300166Y-129500380D02*
X113966833Y-130500380D01*
X113966833Y-129500380D02*
X113300166Y-130500380D01*
X115109690Y-129500380D02*
X115109690Y-130309904D01*
X115157309Y-130405142D01*
X115204928Y-130452761D01*
X115300166Y-130500380D01*
X115490642Y-130500380D01*
X115585880Y-130452761D01*
X115633500Y-130405142D01*
X115681119Y-130309904D01*
X115681119Y-129500380D01*
X116157309Y-130500380D02*
X116157309Y-129500380D01*
X116538261Y-129500380D01*
X116633500Y-129548000D01*
X116681119Y-129595619D01*
X116728738Y-129690857D01*
X116728738Y-129833714D01*
X116681119Y-129928952D01*
X116633500Y-129976571D01*
X116538261Y-130024190D01*
X116157309Y-130024190D01*
X117681119Y-129548000D02*
X117585880Y-129500380D01*
X117443023Y-129500380D01*
X117300166Y-129548000D01*
X117204928Y-129643238D01*
X117157309Y-129738476D01*
X117109690Y-129928952D01*
X117109690Y-130071809D01*
X117157309Y-130262285D01*
X117204928Y-130357523D01*
X117300166Y-130452761D01*
X117443023Y-130500380D01*
X117538261Y-130500380D01*
X117681119Y-130452761D01*
X117728738Y-130405142D01*
X117728738Y-130071809D01*
X117538261Y-130071809D01*
X118728738Y-130500380D02*
X118395404Y-130024190D01*
X118157309Y-130500380D02*
X118157309Y-129500380D01*
X118538261Y-129500380D01*
X118633500Y-129548000D01*
X118681119Y-129595619D01*
X118728738Y-129690857D01*
X118728738Y-129833714D01*
X118681119Y-129928952D01*
X118633500Y-129976571D01*
X118538261Y-130024190D01*
X118157309Y-130024190D01*
X119109690Y-130214666D02*
X119585880Y-130214666D01*
X119014452Y-130500380D02*
X119347785Y-129500380D01*
X119681119Y-130500380D01*
X120014452Y-130500380D02*
X120014452Y-129500380D01*
X120252547Y-129500380D01*
X120395404Y-129548000D01*
X120490642Y-129643238D01*
X120538261Y-129738476D01*
X120585880Y-129928952D01*
X120585880Y-130071809D01*
X120538261Y-130262285D01*
X120490642Y-130357523D01*
X120395404Y-130452761D01*
X120252547Y-130500380D01*
X120014452Y-130500380D01*
X121014452Y-129976571D02*
X121347785Y-129976571D01*
X121490642Y-130500380D02*
X121014452Y-130500380D01*
X121014452Y-129500380D01*
X121490642Y-129500380D01*
X122681119Y-130500380D02*
X122681119Y-129500380D01*
X122681119Y-129881333D02*
X122776357Y-129833714D01*
X122966833Y-129833714D01*
X123062071Y-129881333D01*
X123109690Y-129928952D01*
X123157309Y-130024190D01*
X123157309Y-130309904D01*
X123109690Y-130405142D01*
X123062071Y-130452761D01*
X122966833Y-130500380D01*
X122776357Y-130500380D01*
X122681119Y-130452761D01*
X123490642Y-129833714D02*
X123728738Y-130500380D01*
X123966833Y-129833714D02*
X123728738Y-130500380D01*
X123633500Y-130738476D01*
X123585880Y-130786095D01*
X123490642Y-130833714D01*
X125585880Y-130500380D02*
X125109690Y-130500380D01*
X125109690Y-129500380D01*
X126300166Y-130452761D02*
X126204928Y-130500380D01*
X126014452Y-130500380D01*
X125919214Y-130452761D01*
X125871595Y-130357523D01*
X125871595Y-129976571D01*
X125919214Y-129881333D01*
X126014452Y-129833714D01*
X126204928Y-129833714D01*
X126300166Y-129881333D01*
X126347785Y-129976571D01*
X126347785Y-130071809D01*
X125871595Y-130167047D01*
X126776357Y-130500380D02*
X126776357Y-129833714D01*
X126776357Y-129500380D02*
X126728738Y-129548000D01*
X126776357Y-129595619D01*
X126823976Y-129548000D01*
X126776357Y-129500380D01*
X126776357Y-129595619D01*
X127681119Y-129833714D02*
X127681119Y-130643238D01*
X127633500Y-130738476D01*
X127585880Y-130786095D01*
X127490642Y-130833714D01*
X127347785Y-130833714D01*
X127252547Y-130786095D01*
X127681119Y-130452761D02*
X127585880Y-130500380D01*
X127395404Y-130500380D01*
X127300166Y-130452761D01*
X127252547Y-130405142D01*
X127204928Y-130309904D01*
X127204928Y-130024190D01*
X127252547Y-129928952D01*
X127300166Y-129881333D01*
X127395404Y-129833714D01*
X127585880Y-129833714D01*
X127681119Y-129881333D01*
X128157309Y-130500380D02*
X128157309Y-129500380D01*
X128585880Y-130500380D02*
X128585880Y-129976571D01*
X128538261Y-129881333D01*
X128443023Y-129833714D01*
X128300166Y-129833714D01*
X128204928Y-129881333D01*
X128157309Y-129928952D01*
X130014452Y-129500380D02*
X130204928Y-129500380D01*
X130300166Y-129548000D01*
X130395404Y-129643238D01*
X130443023Y-129833714D01*
X130443023Y-130167047D01*
X130395404Y-130357523D01*
X130300166Y-130452761D01*
X130204928Y-130500380D01*
X130014452Y-130500380D01*
X129919214Y-130452761D01*
X129823976Y-130357523D01*
X129776357Y-130167047D01*
X129776357Y-129833714D01*
X129823976Y-129643238D01*
X129919214Y-129548000D01*
X130014452Y-129500380D01*
X131014452Y-130500380D02*
X130919214Y-130452761D01*
X130871595Y-130357523D01*
X130871595Y-129500380D01*
X131395404Y-130500380D02*
X131395404Y-129833714D01*
X131395404Y-129500380D02*
X131347785Y-129548000D01*
X131395404Y-129595619D01*
X131443023Y-129548000D01*
X131395404Y-129500380D01*
X131395404Y-129595619D01*
X131776357Y-129833714D02*
X132014452Y-130500380D01*
X132252547Y-129833714D01*
X133014452Y-130452761D02*
X132919214Y-130500380D01*
X132728738Y-130500380D01*
X132633499Y-130452761D01*
X132585880Y-130357523D01*
X132585880Y-129976571D01*
X132633499Y-129881333D01*
X132728738Y-129833714D01*
X132919214Y-129833714D01*
X133014452Y-129881333D01*
X133062071Y-129976571D01*
X133062071Y-130071809D01*
X132585880Y-130167047D01*
X133490642Y-130500380D02*
X133490642Y-129833714D01*
X133490642Y-130024190D02*
X133538261Y-129928952D01*
X133585880Y-129881333D01*
X133681119Y-129833714D01*
X133776357Y-129833714D01*
D11*
X128750000Y-103140000D02*
X130850000Y-103140000D01*
X128450000Y-102840000D02*
X128450000Y-104440000D01*
X130150000Y-102840000D02*
X128450000Y-102840000D01*
X137950000Y-103140000D02*
X137950000Y-104940000D01*
X135850000Y-103140000D02*
X137950000Y-103140000D01*
X128750000Y-117840000D02*
X128750000Y-103140000D01*
X137950000Y-117840000D02*
X128750000Y-117840000D01*
X137950000Y-109340000D02*
X137950000Y-117840000D01*
X178562000Y-117602000D02*
X180594000Y-119634000D01*
X178562000Y-113030000D02*
X180594000Y-115062000D01*
X181060000Y-118618000D02*
G75*
G03X181060000Y-118618000I-1500000J0D01*
G01*
X181060000Y-114046000D02*
G75*
G03X181060000Y-114046000I-1500000J0D01*
G01*
X177165000Y-111379000D02*
X177165000Y-121285000D01*
X175060000Y-121332000D02*
X182499000Y-121332000D01*
X175060000Y-111332000D02*
X182499000Y-111332000D01*
X175060000Y-111332000D02*
X175060000Y-121332000D01*
X182060000Y-128332000D02*
G75*
G03X182060000Y-128332000I-1500000J0D01*
G01*
X146060000Y-128332000D02*
G75*
G03X146060000Y-128332000I-1500000J0D01*
G01*
X182060000Y-104332000D02*
G75*
G03X182060000Y-104332000I-1500000J0D01*
G01*
X146060000Y-104332000D02*
G75*
G03X146060000Y-104332000I-1500000J0D01*
G01*
X182560000Y-130332000D02*
X182560000Y-102332000D01*
X142560000Y-102332000D02*
X142560000Y-130332000D01*
X182560000Y-130332000D02*
X142560000Y-130332000D01*
X142560000Y-102332000D02*
X182560000Y-102332000D01*
X184658000Y-91440000D02*
X182626000Y-91440000D01*
X184658000Y-86360000D02*
X182626000Y-86360000D01*
X184658000Y-86360000D02*
X184658000Y-91440000D01*
X168656000Y-85852000D02*
X168656000Y-91948000D01*
X182626000Y-85852000D02*
X168656000Y-85852000D01*
X182626000Y-91948000D02*
X168656000Y-91948000D01*
X182626000Y-85852000D02*
X182626000Y-91948000D01*
X181509810Y-78232000D02*
G75*
G03X181509810Y-78232000I-915810J0D01*
G01*
X181509810Y-99187000D02*
G75*
G03X181509810Y-99187000I-915810J0D01*
G01*
X147092810Y-99187000D02*
G75*
G03X147092810Y-99187000I-915810J0D01*
G01*
X147092810Y-78232000D02*
G75*
G03X147092810Y-78232000I-915810J0D01*
G01*
X146177000Y-101219000D02*
G75*
G02X144145000Y-99187000I0J2032000D01*
G01*
X182626000Y-99187000D02*
G75*
G02X180594000Y-101219000I-2032000J0D01*
G01*
X180594000Y-76200000D02*
G75*
G02X182626000Y-78232000I0J-2032000D01*
G01*
X144145000Y-78232000D02*
G75*
G02X146177000Y-76200000I2032000J0D01*
G01*
X144145000Y-99187000D02*
X144145000Y-78232000D01*
X180594000Y-101219000D02*
X146177000Y-101219000D01*
X182626000Y-78232000D02*
X182626000Y-99187000D01*
X146177000Y-76200000D02*
X180594000Y-76200000D01*
X99314000Y-127762000D02*
G75*
G02X96520000Y-124968000I0J2794000D01*
G01*
X124714000Y-124968000D02*
G75*
G02X121920000Y-127762000I-2794000J0D01*
G01*
X121920000Y-76200000D02*
G75*
G02X124714000Y-78994000I0J-2794000D01*
G01*
X96520000Y-78994000D02*
G75*
G02X99314000Y-76200000I2794000J0D01*
G01*
X101600000Y-83312000D02*
X119634000Y-83312000D01*
X119634000Y-102108000D02*
X119634000Y-76200000D01*
X101600000Y-76200000D02*
X101600000Y-102108000D01*
X101600000Y-102108000D02*
X119634000Y-102108000D01*
X100814000Y-124968000D02*
G75*
G03X100814000Y-124968000I-1500000J0D01*
G01*
X123420000Y-124968000D02*
G75*
G03X123420000Y-124968000I-1500000J0D01*
G01*
X123420000Y-78994000D02*
G75*
G03X123420000Y-78994000I-1500000J0D01*
G01*
X100814000Y-78994000D02*
G75*
G03X100814000Y-78994000I-1500000J0D01*
G01*
X96520000Y-124968000D02*
X96520000Y-78994000D01*
X121920000Y-127762000D02*
X99314000Y-127762000D01*
X124714000Y-78994000D02*
X124714000Y-124968000D01*
X99314000Y-76200000D02*
X121920000Y-76200000D01*
X126111000Y-99949000D02*
X126111000Y-77089000D01*
X142621000Y-99949000D02*
X126111000Y-99949000D01*
X142621000Y-77089000D02*
X126111000Y-77089000D01*
X142621000Y-99949000D02*
X142621000Y-77089000D01*
D10*
X133016666Y-101092380D02*
X133016666Y-101806666D01*
X132969047Y-101949523D01*
X132873809Y-102044761D01*
X132730952Y-102092380D01*
X132635714Y-102092380D01*
X134016666Y-102092380D02*
X133445238Y-102092380D01*
X133730952Y-102092380D02*
X133730952Y-101092380D01*
X133635714Y-101235238D01*
X133540476Y-101330476D01*
X133445238Y-101378095D01*
X133016666Y-118832380D02*
X133016666Y-119546666D01*
X132969047Y-119689523D01*
X132873809Y-119784761D01*
X132730952Y-119832380D01*
X132635714Y-119832380D01*
X134016666Y-119832380D02*
X133445238Y-119832380D01*
X133730952Y-119832380D02*
X133730952Y-118832380D01*
X133635714Y-118975238D01*
X133540476Y-119070476D01*
X133445238Y-119118095D01*
X155329761Y-116657380D02*
X155329761Y-115657380D01*
X155663095Y-116371666D01*
X155996428Y-115657380D01*
X155996428Y-116657380D01*
X157044047Y-116562142D02*
X156996428Y-116609761D01*
X156853571Y-116657380D01*
X156758333Y-116657380D01*
X156615476Y-116609761D01*
X156520238Y-116514523D01*
X156472619Y-116419285D01*
X156425000Y-116228809D01*
X156425000Y-116085952D01*
X156472619Y-115895476D01*
X156520238Y-115800238D01*
X156615476Y-115705000D01*
X156758333Y-115657380D01*
X156853571Y-115657380D01*
X156996428Y-115705000D01*
X157044047Y-115752619D01*
X157472619Y-116657380D02*
X157472619Y-115657380D01*
X157853571Y-115657380D01*
X157948809Y-115705000D01*
X157996428Y-115752619D01*
X158044047Y-115847857D01*
X158044047Y-115990714D01*
X157996428Y-116085952D01*
X157948809Y-116133571D01*
X157853571Y-116181190D01*
X157472619Y-116181190D01*
X158425000Y-115752619D02*
X158472619Y-115705000D01*
X158567857Y-115657380D01*
X158805952Y-115657380D01*
X158901190Y-115705000D01*
X158948809Y-115752619D01*
X158996428Y-115847857D01*
X158996428Y-115943095D01*
X158948809Y-116085952D01*
X158377380Y-116657380D01*
X158996428Y-116657380D01*
X159901190Y-115657380D02*
X159425000Y-115657380D01*
X159377380Y-116133571D01*
X159425000Y-116085952D01*
X159520238Y-116038333D01*
X159758333Y-116038333D01*
X159853571Y-116085952D01*
X159901190Y-116133571D01*
X159948809Y-116228809D01*
X159948809Y-116466904D01*
X159901190Y-116562142D01*
X159853571Y-116609761D01*
X159758333Y-116657380D01*
X159520238Y-116657380D01*
X159425000Y-116609761D01*
X159377380Y-116562142D01*
X160901190Y-116657380D02*
X160329761Y-116657380D01*
X160615476Y-116657380D02*
X160615476Y-115657380D01*
X160520238Y-115800238D01*
X160425000Y-115895476D01*
X160329761Y-115943095D01*
X161805952Y-115657380D02*
X161329761Y-115657380D01*
X161282142Y-116133571D01*
X161329761Y-116085952D01*
X161425000Y-116038333D01*
X161663095Y-116038333D01*
X161758333Y-116085952D01*
X161805952Y-116133571D01*
X161853571Y-116228809D01*
X161853571Y-116466904D01*
X161805952Y-116562142D01*
X161758333Y-116609761D01*
X161663095Y-116657380D01*
X161425000Y-116657380D01*
X161329761Y-116609761D01*
X161282142Y-116562142D01*
X162044047Y-116752619D02*
X162805952Y-116752619D01*
X163044047Y-116657380D02*
X163044047Y-115657380D01*
X163377380Y-116371666D01*
X163710714Y-115657380D01*
X163710714Y-116657380D01*
X164377380Y-115657380D02*
X164567857Y-115657380D01*
X164663095Y-115705000D01*
X164758333Y-115800238D01*
X164805952Y-115990714D01*
X164805952Y-116324047D01*
X164758333Y-116514523D01*
X164663095Y-116609761D01*
X164567857Y-116657380D01*
X164377380Y-116657380D01*
X164282142Y-116609761D01*
X164186904Y-116514523D01*
X164139285Y-116324047D01*
X164139285Y-115990714D01*
X164186904Y-115800238D01*
X164282142Y-115705000D01*
X164377380Y-115657380D01*
X165234523Y-116657380D02*
X165234523Y-115657380D01*
X165472619Y-115657380D01*
X165615476Y-115705000D01*
X165710714Y-115800238D01*
X165758333Y-115895476D01*
X165805952Y-116085952D01*
X165805952Y-116228809D01*
X165758333Y-116419285D01*
X165710714Y-116514523D01*
X165615476Y-116609761D01*
X165472619Y-116657380D01*
X165234523Y-116657380D01*
X166234523Y-115657380D02*
X166234523Y-116466904D01*
X166282142Y-116562142D01*
X166329761Y-116609761D01*
X166425000Y-116657380D01*
X166615476Y-116657380D01*
X166710714Y-116609761D01*
X166758333Y-116562142D01*
X166805952Y-116466904D01*
X166805952Y-115657380D01*
X167758333Y-116657380D02*
X167282142Y-116657380D01*
X167282142Y-115657380D01*
X168091666Y-116133571D02*
X168425000Y-116133571D01*
X168567857Y-116657380D02*
X168091666Y-116657380D01*
X168091666Y-115657380D01*
X168567857Y-115657380D01*
X144972738Y-123404380D02*
X145306071Y-124404380D01*
X145639404Y-123404380D01*
X145972738Y-124404380D02*
X145972738Y-123404380D01*
X146448928Y-124404380D02*
X146448928Y-123404380D01*
X147020357Y-124404380D01*
X147020357Y-123404380D01*
X145639404Y-120912000D02*
X145544166Y-120864380D01*
X145401309Y-120864380D01*
X145258452Y-120912000D01*
X145163214Y-121007238D01*
X145115595Y-121102476D01*
X145067976Y-121292952D01*
X145067976Y-121435809D01*
X145115595Y-121626285D01*
X145163214Y-121721523D01*
X145258452Y-121816761D01*
X145401309Y-121864380D01*
X145496547Y-121864380D01*
X145639404Y-121816761D01*
X145687023Y-121769142D01*
X145687023Y-121435809D01*
X145496547Y-121435809D01*
X146115595Y-121864380D02*
X146115595Y-120864380D01*
X146687023Y-121864380D01*
X146687023Y-120864380D01*
X147163214Y-121864380D02*
X147163214Y-120864380D01*
X147401309Y-120864380D01*
X147544166Y-120912000D01*
X147639404Y-121007238D01*
X147687023Y-121102476D01*
X147734642Y-121292952D01*
X147734642Y-121435809D01*
X147687023Y-121626285D01*
X147639404Y-121721523D01*
X147544166Y-121816761D01*
X147401309Y-121864380D01*
X147163214Y-121864380D01*
X145687023Y-119229142D02*
X145639404Y-119276761D01*
X145496547Y-119324380D01*
X145401309Y-119324380D01*
X145258452Y-119276761D01*
X145163214Y-119181523D01*
X145115595Y-119086285D01*
X145067976Y-118895809D01*
X145067976Y-118752952D01*
X145115595Y-118562476D01*
X145163214Y-118467238D01*
X145258452Y-118372000D01*
X145401309Y-118324380D01*
X145496547Y-118324380D01*
X145639404Y-118372000D01*
X145687023Y-118419619D01*
X146067976Y-119276761D02*
X146210833Y-119324380D01*
X146448928Y-119324380D01*
X146544166Y-119276761D01*
X146591785Y-119229142D01*
X146639404Y-119133904D01*
X146639404Y-119038666D01*
X146591785Y-118943428D01*
X146544166Y-118895809D01*
X146448928Y-118848190D01*
X146258452Y-118800571D01*
X146163214Y-118752952D01*
X146115595Y-118705333D01*
X146067976Y-118610095D01*
X146067976Y-118514857D01*
X146115595Y-118419619D01*
X146163214Y-118372000D01*
X146258452Y-118324380D01*
X146496547Y-118324380D01*
X146639404Y-118372000D01*
X145115595Y-116784380D02*
X145115595Y-115784380D01*
X145448928Y-116498666D01*
X145782261Y-115784380D01*
X145782261Y-116784380D01*
X146258452Y-116784380D02*
X146258452Y-115784380D01*
X146687023Y-116736761D02*
X146829880Y-116784380D01*
X147067976Y-116784380D01*
X147163214Y-116736761D01*
X147210833Y-116689142D01*
X147258452Y-116593904D01*
X147258452Y-116498666D01*
X147210833Y-116403428D01*
X147163214Y-116355809D01*
X147067976Y-116308190D01*
X146877500Y-116260571D01*
X146782261Y-116212952D01*
X146734642Y-116165333D01*
X146687023Y-116070095D01*
X146687023Y-115974857D01*
X146734642Y-115879619D01*
X146782261Y-115832000D01*
X146877500Y-115784380D01*
X147115595Y-115784380D01*
X147258452Y-115832000D01*
X147877500Y-115784380D02*
X148067976Y-115784380D01*
X148163214Y-115832000D01*
X148258452Y-115927238D01*
X148306071Y-116117714D01*
X148306071Y-116451047D01*
X148258452Y-116641523D01*
X148163214Y-116736761D01*
X148067976Y-116784380D01*
X147877500Y-116784380D01*
X147782261Y-116736761D01*
X147687023Y-116641523D01*
X147639404Y-116451047D01*
X147639404Y-116117714D01*
X147687023Y-115927238D01*
X147782261Y-115832000D01*
X147877500Y-115784380D01*
X145115595Y-114244380D02*
X145115595Y-113244380D01*
X145448928Y-113958666D01*
X145782261Y-113244380D01*
X145782261Y-114244380D01*
X146448928Y-113244380D02*
X146639404Y-113244380D01*
X146734642Y-113292000D01*
X146829880Y-113387238D01*
X146877500Y-113577714D01*
X146877500Y-113911047D01*
X146829880Y-114101523D01*
X146734642Y-114196761D01*
X146639404Y-114244380D01*
X146448928Y-114244380D01*
X146353690Y-114196761D01*
X146258452Y-114101523D01*
X146210833Y-113911047D01*
X146210833Y-113577714D01*
X146258452Y-113387238D01*
X146353690Y-113292000D01*
X146448928Y-113244380D01*
X147258452Y-114196761D02*
X147401309Y-114244380D01*
X147639404Y-114244380D01*
X147734642Y-114196761D01*
X147782261Y-114149142D01*
X147829880Y-114053904D01*
X147829880Y-113958666D01*
X147782261Y-113863428D01*
X147734642Y-113815809D01*
X147639404Y-113768190D01*
X147448928Y-113720571D01*
X147353690Y-113672952D01*
X147306071Y-113625333D01*
X147258452Y-113530095D01*
X147258452Y-113434857D01*
X147306071Y-113339619D01*
X147353690Y-113292000D01*
X147448928Y-113244380D01*
X147687023Y-113244380D01*
X147829880Y-113292000D01*
X148258452Y-114244380D02*
X148258452Y-113244380D01*
X145067976Y-111656761D02*
X145210833Y-111704380D01*
X145448928Y-111704380D01*
X145544166Y-111656761D01*
X145591785Y-111609142D01*
X145639404Y-111513904D01*
X145639404Y-111418666D01*
X145591785Y-111323428D01*
X145544166Y-111275809D01*
X145448928Y-111228190D01*
X145258452Y-111180571D01*
X145163214Y-111132952D01*
X145115595Y-111085333D01*
X145067976Y-110990095D01*
X145067976Y-110894857D01*
X145115595Y-110799619D01*
X145163214Y-110752000D01*
X145258452Y-110704380D01*
X145496547Y-110704380D01*
X145639404Y-110752000D01*
X146639404Y-111609142D02*
X146591785Y-111656761D01*
X146448928Y-111704380D01*
X146353690Y-111704380D01*
X146210833Y-111656761D01*
X146115595Y-111561523D01*
X146067976Y-111466285D01*
X146020357Y-111275809D01*
X146020357Y-111132952D01*
X146067976Y-110942476D01*
X146115595Y-110847238D01*
X146210833Y-110752000D01*
X146353690Y-110704380D01*
X146448928Y-110704380D01*
X146591785Y-110752000D01*
X146639404Y-110799619D01*
X147544166Y-111704380D02*
X147067976Y-111704380D01*
X147067976Y-110704380D01*
X147877500Y-111704380D02*
X147877500Y-110704380D01*
X148448928Y-111704380D02*
X148020357Y-111132952D01*
X148448928Y-110704380D02*
X147877500Y-111275809D01*
X145115595Y-109164380D02*
X145115595Y-108164380D01*
X145591785Y-109164380D02*
X145591785Y-108164380D01*
X146163214Y-109164380D01*
X146163214Y-108164380D01*
X146496547Y-108164380D02*
X147067976Y-108164380D01*
X146782261Y-109164380D02*
X146782261Y-108164380D01*
D12*
X173603392Y-119550571D02*
X172889107Y-119550571D01*
X172889107Y-118050571D01*
X172531964Y-114470571D02*
X172531964Y-112970571D01*
X172531964Y-113684857D02*
X173389107Y-113684857D01*
X173389107Y-114470571D02*
X173389107Y-112970571D01*
D10*
X144972738Y-123404380D02*
X145306071Y-124404380D01*
X145639404Y-123404380D01*
X146544166Y-124309142D02*
X146496547Y-124356761D01*
X146353690Y-124404380D01*
X146258452Y-124404380D01*
X146115595Y-124356761D01*
X146020357Y-124261523D01*
X145972738Y-124166285D01*
X145925119Y-123975809D01*
X145925119Y-123832952D01*
X145972738Y-123642476D01*
X146020357Y-123547238D01*
X146115595Y-123452000D01*
X146258452Y-123404380D01*
X146353690Y-123404380D01*
X146496547Y-123452000D01*
X146544166Y-123499619D01*
X147544166Y-124309142D02*
X147496547Y-124356761D01*
X147353690Y-124404380D01*
X147258452Y-124404380D01*
X147115595Y-124356761D01*
X147020357Y-124261523D01*
X146972738Y-124166285D01*
X146925119Y-123975809D01*
X146925119Y-123832952D01*
X146972738Y-123642476D01*
X147020357Y-123547238D01*
X147115595Y-123452000D01*
X147258452Y-123404380D01*
X147353690Y-123404380D01*
X147496547Y-123452000D01*
X147544166Y-123499619D01*
X150376904Y-88352380D02*
X150376904Y-89161904D01*
X150424523Y-89257142D01*
X150472142Y-89304761D01*
X150567380Y-89352380D01*
X150757857Y-89352380D01*
X150853095Y-89304761D01*
X150900714Y-89257142D01*
X150948333Y-89161904D01*
X150948333Y-88352380D01*
X151424523Y-89352380D02*
X151424523Y-88352380D01*
X151662619Y-88352380D01*
X151805476Y-88400000D01*
X151900714Y-88495238D01*
X151948333Y-88590476D01*
X151995952Y-88780952D01*
X151995952Y-88923809D01*
X151948333Y-89114285D01*
X151900714Y-89209523D01*
X151805476Y-89304761D01*
X151662619Y-89352380D01*
X151424523Y-89352380D01*
X152376904Y-89066666D02*
X152853095Y-89066666D01*
X152281666Y-89352380D02*
X152615000Y-88352380D01*
X152948333Y-89352380D01*
X153805476Y-89352380D02*
X153234047Y-89352380D01*
X153519761Y-89352380D02*
X153519761Y-88352380D01*
X153424523Y-88495238D01*
X153329285Y-88590476D01*
X153234047Y-88638095D01*
X154138809Y-88352380D02*
X154757857Y-88352380D01*
X154424523Y-88733333D01*
X154567380Y-88733333D01*
X154662619Y-88780952D01*
X154710238Y-88828571D01*
X154757857Y-88923809D01*
X154757857Y-89161904D01*
X154710238Y-89257142D01*
X154662619Y-89304761D01*
X154567380Y-89352380D01*
X154281666Y-89352380D01*
X154186428Y-89304761D01*
X154138809Y-89257142D01*
X155091190Y-88352380D02*
X155710238Y-88352380D01*
X155376904Y-88733333D01*
X155519761Y-88733333D01*
X155615000Y-88780952D01*
X155662619Y-88828571D01*
X155710238Y-88923809D01*
X155710238Y-89161904D01*
X155662619Y-89257142D01*
X155615000Y-89304761D01*
X155519761Y-89352380D01*
X155234047Y-89352380D01*
X155138809Y-89304761D01*
X155091190Y-89257142D01*
X156567380Y-88685714D02*
X156567380Y-89352380D01*
X156329285Y-88304761D02*
X156091190Y-89019047D01*
X156710238Y-89019047D01*
X157043571Y-89066666D02*
X157519761Y-89066666D01*
X156948333Y-89352380D02*
X157281666Y-88352380D01*
X157615000Y-89352380D01*
X157710238Y-89447619D02*
X158472142Y-89447619D01*
X159043571Y-88828571D02*
X159186428Y-88876190D01*
X159234047Y-88923809D01*
X159281666Y-89019047D01*
X159281666Y-89161904D01*
X159234047Y-89257142D01*
X159186428Y-89304761D01*
X159091190Y-89352380D01*
X158710238Y-89352380D01*
X158710238Y-88352380D01*
X159043571Y-88352380D01*
X159138809Y-88400000D01*
X159186428Y-88447619D01*
X159234047Y-88542857D01*
X159234047Y-88638095D01*
X159186428Y-88733333D01*
X159138809Y-88780952D01*
X159043571Y-88828571D01*
X158710238Y-88828571D01*
X160281666Y-89352380D02*
X159948333Y-88876190D01*
X159710238Y-89352380D02*
X159710238Y-88352380D01*
X160091190Y-88352380D01*
X160186428Y-88400000D01*
X160234047Y-88447619D01*
X160281666Y-88542857D01*
X160281666Y-88685714D01*
X160234047Y-88780952D01*
X160186428Y-88828571D01*
X160091190Y-88876190D01*
X159710238Y-88876190D01*
X160710238Y-88828571D02*
X161043571Y-88828571D01*
X161186428Y-89352380D02*
X160710238Y-89352380D01*
X160710238Y-88352380D01*
X161186428Y-88352380D01*
X161567380Y-89066666D02*
X162043571Y-89066666D01*
X161472142Y-89352380D02*
X161805476Y-88352380D01*
X162138809Y-89352380D01*
X162472142Y-89352380D02*
X162472142Y-88352380D01*
X163043571Y-89352380D02*
X162615000Y-88780952D01*
X163043571Y-88352380D02*
X162472142Y-88923809D01*
X163662619Y-88352380D02*
X163853095Y-88352380D01*
X163948333Y-88400000D01*
X164043571Y-88495238D01*
X164091190Y-88685714D01*
X164091190Y-89019047D01*
X164043571Y-89209523D01*
X163948333Y-89304761D01*
X163853095Y-89352380D01*
X163662619Y-89352380D01*
X163567380Y-89304761D01*
X163472142Y-89209523D01*
X163424523Y-89019047D01*
X163424523Y-88685714D01*
X163472142Y-88495238D01*
X163567380Y-88400000D01*
X163662619Y-88352380D01*
X164519761Y-88352380D02*
X164519761Y-89161904D01*
X164567380Y-89257142D01*
X164615000Y-89304761D01*
X164710238Y-89352380D01*
X164900714Y-89352380D01*
X164995952Y-89304761D01*
X165043571Y-89257142D01*
X165091190Y-89161904D01*
X165091190Y-88352380D01*
X165424523Y-88352380D02*
X165995952Y-88352380D01*
X165710238Y-89352380D02*
X165710238Y-88352380D01*
X101704285Y-109783571D02*
X102037619Y-109783571D01*
X102180476Y-110307380D02*
X101704285Y-110307380D01*
X101704285Y-109307380D01*
X102180476Y-109307380D01*
X102561428Y-110259761D02*
X102704285Y-110307380D01*
X102942380Y-110307380D01*
X103037619Y-110259761D01*
X103085238Y-110212142D01*
X103132857Y-110116904D01*
X103132857Y-110021666D01*
X103085238Y-109926428D01*
X103037619Y-109878809D01*
X102942380Y-109831190D01*
X102751904Y-109783571D01*
X102656666Y-109735952D01*
X102609047Y-109688333D01*
X102561428Y-109593095D01*
X102561428Y-109497857D01*
X102609047Y-109402619D01*
X102656666Y-109355000D01*
X102751904Y-109307380D01*
X102990000Y-109307380D01*
X103132857Y-109355000D01*
X103561428Y-110307380D02*
X103561428Y-109307380D01*
X103942380Y-109307380D01*
X104037619Y-109355000D01*
X104085238Y-109402619D01*
X104132857Y-109497857D01*
X104132857Y-109640714D01*
X104085238Y-109735952D01*
X104037619Y-109783571D01*
X103942380Y-109831190D01*
X103561428Y-109831190D01*
X104466190Y-109307380D02*
X105085238Y-109307380D01*
X104751904Y-109688333D01*
X104894761Y-109688333D01*
X104990000Y-109735952D01*
X105037619Y-109783571D01*
X105085238Y-109878809D01*
X105085238Y-110116904D01*
X105037619Y-110212142D01*
X104990000Y-110259761D01*
X104894761Y-110307380D01*
X104609047Y-110307380D01*
X104513809Y-110259761D01*
X104466190Y-110212142D01*
X105466190Y-109402619D02*
X105513809Y-109355000D01*
X105609047Y-109307380D01*
X105847142Y-109307380D01*
X105942380Y-109355000D01*
X105990000Y-109402619D01*
X106037619Y-109497857D01*
X106037619Y-109593095D01*
X105990000Y-109735952D01*
X105418571Y-110307380D01*
X106037619Y-110307380D01*
X106466190Y-109926428D02*
X107228095Y-109926428D01*
X107609047Y-109307380D02*
X107847142Y-110307380D01*
X108037619Y-109593095D01*
X108228095Y-110307380D01*
X108466190Y-109307380D01*
X109418571Y-110307380D02*
X109085238Y-109831190D01*
X108847142Y-110307380D02*
X108847142Y-109307380D01*
X109228095Y-109307380D01*
X109323333Y-109355000D01*
X109370952Y-109402619D01*
X109418571Y-109497857D01*
X109418571Y-109640714D01*
X109370952Y-109735952D01*
X109323333Y-109783571D01*
X109228095Y-109831190D01*
X108847142Y-109831190D01*
X110037619Y-109307380D02*
X110228095Y-109307380D01*
X110323333Y-109355000D01*
X110418571Y-109450238D01*
X110466190Y-109640714D01*
X110466190Y-109974047D01*
X110418571Y-110164523D01*
X110323333Y-110259761D01*
X110228095Y-110307380D01*
X110037619Y-110307380D01*
X109942380Y-110259761D01*
X109847142Y-110164523D01*
X109799523Y-109974047D01*
X109799523Y-109640714D01*
X109847142Y-109450238D01*
X109942380Y-109355000D01*
X110037619Y-109307380D01*
X111085238Y-109307380D02*
X111275714Y-109307380D01*
X111370952Y-109355000D01*
X111466190Y-109450238D01*
X111513809Y-109640714D01*
X111513809Y-109974047D01*
X111466190Y-110164523D01*
X111370952Y-110259761D01*
X111275714Y-110307380D01*
X111085238Y-110307380D01*
X110990000Y-110259761D01*
X110894761Y-110164523D01*
X110847142Y-109974047D01*
X110847142Y-109640714D01*
X110894761Y-109450238D01*
X110990000Y-109355000D01*
X111085238Y-109307380D01*
X111942380Y-110307380D02*
X111942380Y-109307380D01*
X112275714Y-110021666D01*
X112609047Y-109307380D01*
X112609047Y-110307380D01*
X113085238Y-109926428D02*
X113847142Y-109926428D01*
X114228095Y-109307380D02*
X114847142Y-109307380D01*
X114513809Y-109688333D01*
X114656666Y-109688333D01*
X114751904Y-109735952D01*
X114799523Y-109783571D01*
X114847142Y-109878809D01*
X114847142Y-110116904D01*
X114799523Y-110212142D01*
X114751904Y-110259761D01*
X114656666Y-110307380D01*
X114370952Y-110307380D01*
X114275714Y-110259761D01*
X114228095Y-110212142D01*
X115466190Y-109307380D02*
X115561428Y-109307380D01*
X115656666Y-109355000D01*
X115704285Y-109402619D01*
X115751904Y-109497857D01*
X115799523Y-109688333D01*
X115799523Y-109926428D01*
X115751904Y-110116904D01*
X115704285Y-110212142D01*
X115656666Y-110259761D01*
X115561428Y-110307380D01*
X115466190Y-110307380D01*
X115370952Y-110259761D01*
X115323333Y-110212142D01*
X115275714Y-110116904D01*
X115228095Y-109926428D01*
X115228095Y-109688333D01*
X115275714Y-109497857D01*
X115323333Y-109402619D01*
X115370952Y-109355000D01*
X115466190Y-109307380D01*
X116751904Y-109355000D02*
X116656666Y-109307380D01*
X116513809Y-109307380D01*
X116370952Y-109355000D01*
X116275714Y-109450238D01*
X116228095Y-109545476D01*
X116180476Y-109735952D01*
X116180476Y-109878809D01*
X116228095Y-110069285D01*
X116275714Y-110164523D01*
X116370952Y-110259761D01*
X116513809Y-110307380D01*
X116609047Y-110307380D01*
X116751904Y-110259761D01*
X116799523Y-110212142D01*
X116799523Y-109878809D01*
X116609047Y-109878809D01*
X117228095Y-110307380D02*
X117228095Y-109307380D01*
X117609047Y-109307380D01*
X117704285Y-109355000D01*
X117751904Y-109402619D01*
X117799523Y-109497857D01*
X117799523Y-109640714D01*
X117751904Y-109735952D01*
X117704285Y-109783571D01*
X117609047Y-109831190D01*
X117228095Y-109831190D01*
X118228095Y-110307380D02*
X118228095Y-109307380D01*
X118894761Y-109307380D02*
X119085238Y-109307380D01*
X119180476Y-109355000D01*
X119275714Y-109450238D01*
X119323333Y-109640714D01*
X119323333Y-109974047D01*
X119275714Y-110164523D01*
X119180476Y-110259761D01*
X119085238Y-110307380D01*
X118894761Y-110307380D01*
X118799523Y-110259761D01*
X118704285Y-110164523D01*
X118656666Y-109974047D01*
X118656666Y-109640714D01*
X118704285Y-109450238D01*
X118799523Y-109355000D01*
X118894761Y-109307380D01*
X129199333Y-89257142D02*
X129151714Y-89304761D01*
X129008857Y-89352380D01*
X128913619Y-89352380D01*
X128770761Y-89304761D01*
X128675523Y-89209523D01*
X128627904Y-89114285D01*
X128580285Y-88923809D01*
X128580285Y-88780952D01*
X128627904Y-88590476D01*
X128675523Y-88495238D01*
X128770761Y-88400000D01*
X128913619Y-88352380D01*
X129008857Y-88352380D01*
X129151714Y-88400000D01*
X129199333Y-88447619D01*
X130199333Y-89257142D02*
X130151714Y-89304761D01*
X130008857Y-89352380D01*
X129913619Y-89352380D01*
X129770761Y-89304761D01*
X129675523Y-89209523D01*
X129627904Y-89114285D01*
X129580285Y-88923809D01*
X129580285Y-88780952D01*
X129627904Y-88590476D01*
X129675523Y-88495238D01*
X129770761Y-88400000D01*
X129913619Y-88352380D01*
X130008857Y-88352380D01*
X130151714Y-88400000D01*
X130199333Y-88447619D01*
X130532666Y-88352380D02*
X131151714Y-88352380D01*
X130818380Y-88733333D01*
X130961238Y-88733333D01*
X131056476Y-88780952D01*
X131104095Y-88828571D01*
X131151714Y-88923809D01*
X131151714Y-89161904D01*
X131104095Y-89257142D01*
X131056476Y-89304761D01*
X130961238Y-89352380D01*
X130675523Y-89352380D01*
X130580285Y-89304761D01*
X130532666Y-89257142D01*
X131580285Y-88971428D02*
X132342190Y-88971428D01*
X133342190Y-89352380D02*
X132770761Y-89352380D01*
X133056476Y-89352380D02*
X133056476Y-88352380D01*
X132961238Y-88495238D01*
X132866000Y-88590476D01*
X132770761Y-88638095D01*
X133723142Y-88447619D02*
X133770761Y-88400000D01*
X133866000Y-88352380D01*
X134104095Y-88352380D01*
X134199333Y-88400000D01*
X134246952Y-88447619D01*
X134294571Y-88542857D01*
X134294571Y-88638095D01*
X134246952Y-88780952D01*
X133675523Y-89352380D01*
X134294571Y-89352380D01*
X134913619Y-88352380D02*
X135008857Y-88352380D01*
X135104095Y-88400000D01*
X135151714Y-88447619D01*
X135199333Y-88542857D01*
X135246952Y-88733333D01*
X135246952Y-88971428D01*
X135199333Y-89161904D01*
X135151714Y-89257142D01*
X135104095Y-89304761D01*
X135008857Y-89352380D01*
X134913619Y-89352380D01*
X134818380Y-89304761D01*
X134770761Y-89257142D01*
X134723142Y-89161904D01*
X134675523Y-88971428D01*
X134675523Y-88733333D01*
X134723142Y-88542857D01*
X134770761Y-88447619D01*
X134818380Y-88400000D01*
X134913619Y-88352380D01*
X136151714Y-88352380D02*
X135675523Y-88352380D01*
X135627904Y-88828571D01*
X135675523Y-88780952D01*
X135770761Y-88733333D01*
X136008857Y-88733333D01*
X136104095Y-88780952D01*
X136151714Y-88828571D01*
X136199333Y-88923809D01*
X136199333Y-89161904D01*
X136151714Y-89257142D01*
X136104095Y-89304761D01*
X136008857Y-89352380D01*
X135770761Y-89352380D01*
X135675523Y-89304761D01*
X135627904Y-89257142D01*
X136580285Y-89304761D02*
X136723142Y-89352380D01*
X136961238Y-89352380D01*
X137056476Y-89304761D01*
X137104095Y-89257142D01*
X137151714Y-89161904D01*
X137151714Y-89066666D01*
X137104095Y-88971428D01*
X137056476Y-88923809D01*
X136961238Y-88876190D01*
X136770761Y-88828571D01*
X136675523Y-88780952D01*
X136627904Y-88733333D01*
X136580285Y-88638095D01*
X136580285Y-88542857D01*
X136627904Y-88447619D01*
X136675523Y-88400000D01*
X136770761Y-88352380D01*
X137008857Y-88352380D01*
X137151714Y-88400000D01*
X137913619Y-88828571D02*
X137580285Y-88828571D01*
X137580285Y-89352380D02*
X137580285Y-88352380D01*
X138056476Y-88352380D01*
X138437428Y-88971428D02*
X139199333Y-88971428D01*
X139675523Y-88828571D02*
X140008857Y-88828571D01*
X140151714Y-89352380D02*
X139675523Y-89352380D01*
X139675523Y-88352380D01*
X140151714Y-88352380D01*
X131897428Y-82694595D02*
X131897428Y-81932690D01*
X131278380Y-81599357D02*
X132278380Y-81266023D01*
X131278380Y-80932690D01*
X132278380Y-80456500D02*
X132230761Y-80551738D01*
X132183142Y-80599357D01*
X132087904Y-80646976D01*
X131802190Y-80646976D01*
X131706952Y-80599357D01*
X131659333Y-80551738D01*
X131611714Y-80456500D01*
X131611714Y-80313642D01*
X131659333Y-80218404D01*
X131706952Y-80170785D01*
X131802190Y-80123166D01*
X132087904Y-80123166D01*
X132183142Y-80170785D01*
X132230761Y-80218404D01*
X132278380Y-80313642D01*
X132278380Y-80456500D01*
X131611714Y-79266023D02*
X132278380Y-79266023D01*
X131611714Y-79694595D02*
X132135523Y-79694595D01*
X132230761Y-79646976D01*
X132278380Y-79551738D01*
X132278380Y-79408880D01*
X132230761Y-79313642D01*
X132183142Y-79266023D01*
X131611714Y-78932690D02*
X131611714Y-78551738D01*
X131278380Y-78789833D02*
X132135523Y-78789833D01*
X132230761Y-78742214D01*
X132278380Y-78646976D01*
X132278380Y-78551738D01*
X139517428Y-82694595D02*
X139517428Y-81932690D01*
X139898380Y-82313642D02*
X139136476Y-82313642D01*
X138898380Y-81599357D02*
X139898380Y-81266023D01*
X138898380Y-80932690D01*
X139898380Y-80456500D02*
X139850761Y-80551738D01*
X139803142Y-80599357D01*
X139707904Y-80646976D01*
X139422190Y-80646976D01*
X139326952Y-80599357D01*
X139279333Y-80551738D01*
X139231714Y-80456500D01*
X139231714Y-80313642D01*
X139279333Y-80218404D01*
X139326952Y-80170785D01*
X139422190Y-80123166D01*
X139707904Y-80123166D01*
X139803142Y-80170785D01*
X139850761Y-80218404D01*
X139898380Y-80313642D01*
X139898380Y-80456500D01*
X139231714Y-79266023D02*
X139898380Y-79266023D01*
X139231714Y-79694595D02*
X139755523Y-79694595D01*
X139850761Y-79646976D01*
X139898380Y-79551738D01*
X139898380Y-79408880D01*
X139850761Y-79313642D01*
X139803142Y-79266023D01*
X139231714Y-78932690D02*
X139231714Y-78551738D01*
X138898380Y-78789833D02*
X139755523Y-78789833D01*
X139850761Y-78742214D01*
X139898380Y-78646976D01*
X139898380Y-78551738D01*
X129357428Y-98343404D02*
X129357428Y-97581500D01*
X128738380Y-97248166D02*
X129738380Y-96914833D01*
X128738380Y-96581500D01*
X129738380Y-96248166D02*
X129071714Y-96248166D01*
X128738380Y-96248166D02*
X128786000Y-96295785D01*
X128833619Y-96248166D01*
X128786000Y-96200547D01*
X128738380Y-96248166D01*
X128833619Y-96248166D01*
X129071714Y-95771976D02*
X129738380Y-95771976D01*
X129166952Y-95771976D02*
X129119333Y-95724357D01*
X129071714Y-95629119D01*
X129071714Y-95486261D01*
X129119333Y-95391023D01*
X129214571Y-95343404D01*
X129738380Y-95343404D01*
X139517428Y-98343404D02*
X139517428Y-97581500D01*
X139898380Y-97962452D02*
X139136476Y-97962452D01*
X138898380Y-97248166D02*
X139898380Y-96914833D01*
X138898380Y-96581500D01*
X139898380Y-96248166D02*
X139231714Y-96248166D01*
X138898380Y-96248166D02*
X138946000Y-96295785D01*
X138993619Y-96248166D01*
X138946000Y-96200547D01*
X138898380Y-96248166D01*
X138993619Y-96248166D01*
X139231714Y-95771976D02*
X139898380Y-95771976D01*
X139326952Y-95771976D02*
X139279333Y-95724357D01*
X139231714Y-95629119D01*
X139231714Y-95486261D01*
X139279333Y-95391023D01*
X139374571Y-95343404D01*
X139898380Y-95343404D01*
M02*
