G04 #@! TF.GenerationSoftware,KiCad,Pcbnew,5.1.5-52549c5~86~ubuntu19.04.1*
G04 #@! TF.CreationDate,2020-05-13T19:24:15+10:00*
G04 #@! TF.ProjectId,saab_bluetooth_aux_kit,73616162-5f62-46c7-9565-746f6f74685f,rev?*
G04 #@! TF.SameCoordinates,Original*
G04 #@! TF.FileFunction,Copper,L1,Top*
G04 #@! TF.FilePolarity,Positive*
%FSLAX46Y46*%
G04 Gerber Fmt 4.6, Leading zero omitted, Abs format (unit mm)*
G04 Created by KiCad (PCBNEW 5.1.5-52549c5~86~ubuntu19.04.1) date 2020-05-13 19:24:15*
%MOMM*%
%LPD*%
G04 APERTURE LIST*
%ADD10R,4.400000X1.800000*%
%ADD11O,4.000000X1.800000*%
%ADD12O,1.800000X4.000000*%
%ADD13C,1.524000*%
%ADD14C,0.750000*%
G04 APERTURE END LIST*
D10*
X133350000Y-104140000D03*
D11*
X133350000Y-109940000D03*
D12*
X138150000Y-107140000D03*
D13*
X143510000Y-123952000D03*
X143510000Y-121412000D03*
X143510000Y-118872000D03*
X143510000Y-116332000D03*
X143510000Y-113792000D03*
X143510000Y-111252000D03*
X143510000Y-108712000D03*
X172085000Y-99060000D03*
X169545000Y-99060000D03*
X167005000Y-99060000D03*
X164465000Y-99060000D03*
X161925000Y-99060000D03*
X159385000Y-99060000D03*
X156845000Y-99060000D03*
X151765000Y-99060000D03*
X154305000Y-99060000D03*
X167005000Y-78740000D03*
X164465000Y-78740000D03*
X161925000Y-78740000D03*
X159385000Y-78740000D03*
X156845000Y-78740000D03*
X154305000Y-78740000D03*
X97663000Y-95885000D03*
X123571000Y-118745000D03*
X123571000Y-116205000D03*
X123571000Y-113665000D03*
X123571000Y-111125000D03*
X123571000Y-108585000D03*
X123571000Y-106045000D03*
X123571000Y-103505000D03*
X123571000Y-100965000D03*
X123571000Y-98425000D03*
X123571000Y-95885000D03*
X123571000Y-93345000D03*
X123571000Y-90805000D03*
X123571000Y-88265000D03*
X123571000Y-85725000D03*
X123571000Y-83185000D03*
X97663000Y-118745000D03*
X97663000Y-116205000D03*
X97663000Y-113665000D03*
X97663000Y-111125000D03*
X97663000Y-108585000D03*
X97663000Y-106045000D03*
X97663000Y-103505000D03*
X97663000Y-100965000D03*
X97663000Y-98425000D03*
X97663000Y-93345000D03*
X97663000Y-90805000D03*
X97663000Y-88265000D03*
X97663000Y-85725000D03*
X97663000Y-83185000D03*
X131826000Y-77089000D03*
X129286000Y-77089000D03*
X136906000Y-77089000D03*
X139446000Y-77089000D03*
X129286000Y-99949000D03*
X131826000Y-99949000D03*
X139446000Y-99949000D03*
D14*
X156845000Y-99060000D02*
X156845000Y-107752700D01*
X156845000Y-107752700D02*
X143510000Y-121087700D01*
X143510000Y-121087700D02*
X143510000Y-121412000D01*
X97663000Y-116205000D02*
X123571000Y-116205000D01*
X143510000Y-121087700D02*
X128453700Y-121087700D01*
X128453700Y-121087700D02*
X123571000Y-116205000D01*
X134239000Y-79502000D02*
X152400000Y-79502000D01*
X131826000Y-77089000D02*
X134239000Y-79502000D01*
X152400000Y-79502000D02*
X153416000Y-80518000D01*
X153416000Y-80518000D02*
X155194000Y-80518000D01*
X156845000Y-78867000D02*
X156845000Y-78740000D01*
X155194000Y-80518000D02*
X156845000Y-78867000D01*
X143510000Y-123952000D02*
X102870000Y-123952000D01*
X102870000Y-123952000D02*
X97663000Y-118745000D01*
X143510000Y-118745000D02*
X143510000Y-118872000D01*
X140335000Y-115570000D02*
X143510000Y-118745000D01*
X123571000Y-100965000D02*
X125476000Y-102870000D01*
X125476000Y-109728000D02*
X131318000Y-115570000D01*
X125476000Y-102870000D02*
X125476000Y-109728000D01*
X131318000Y-115570000D02*
X140335000Y-115570000D01*
X140208000Y-114554000D02*
X143510000Y-111252000D01*
X132080000Y-114554000D02*
X140208000Y-114554000D01*
X126746000Y-109220000D02*
X132080000Y-114554000D01*
X123571000Y-98425000D02*
X126746000Y-101600000D01*
X126746000Y-101600000D02*
X126746000Y-109220000D01*
X161925000Y-98425000D02*
X161925000Y-99060000D01*
X158138603Y-94665196D02*
X158269909Y-94769909D01*
X157987288Y-94592327D02*
X158138603Y-94665196D01*
X156149306Y-95430503D02*
X156317253Y-95430503D01*
X156678920Y-93178920D02*
X155702950Y-94154889D01*
X156795673Y-93062166D02*
X156678920Y-93178920D01*
X155735015Y-92001508D02*
X155763922Y-91978454D01*
X154642292Y-93094231D02*
X155735015Y-92001508D01*
X154510986Y-93198944D02*
X154642292Y-93094231D01*
X154359671Y-93271813D02*
X154510986Y-93198944D01*
X154195935Y-93309185D02*
X154359671Y-93271813D01*
X154027988Y-93309185D02*
X154195935Y-93309185D01*
X153864252Y-93271813D02*
X154027988Y-93309185D01*
X157823552Y-94554955D02*
X157987288Y-94592327D01*
X153404050Y-92811610D02*
X153476919Y-92962925D01*
X157655605Y-94554955D02*
X157823552Y-94554955D01*
X153366678Y-92647874D02*
X153404050Y-92811610D01*
X156632304Y-95320262D02*
X156763610Y-95215549D01*
X154557602Y-91057602D02*
X153581632Y-92033571D01*
X156480989Y-95393131D02*
X156632304Y-95320262D01*
X154674355Y-90940848D02*
X154557602Y-91057602D01*
X156317253Y-95430503D02*
X156480989Y-95393131D01*
X154697409Y-90911941D02*
X154674355Y-90940848D01*
X155834256Y-95320262D02*
X155985570Y-95393131D01*
X154721679Y-90805609D02*
X154721678Y-90842581D01*
X155702950Y-95215549D02*
X155834256Y-95320262D01*
X154713450Y-90769561D02*
X154721679Y-90805609D01*
X155598237Y-95084243D02*
X155702950Y-95215549D01*
X154697409Y-90736249D02*
X154713450Y-90769561D01*
X155487996Y-94769192D02*
X155525368Y-94932928D01*
X153847203Y-89880189D02*
X154674356Y-90707342D01*
X155487996Y-94601246D02*
X155487996Y-94769192D01*
X153818296Y-89857136D02*
X153847203Y-89880189D01*
X153748936Y-89832865D02*
X153784983Y-89841093D01*
X153711962Y-89832865D02*
X153748936Y-89832865D01*
X156834769Y-92999947D02*
X156818727Y-93033259D01*
X152520974Y-90972913D02*
X153613697Y-89880190D01*
X156795674Y-92828660D02*
X156818727Y-92857567D01*
X151742934Y-91150495D02*
X151906670Y-91187867D01*
X155968521Y-92001507D02*
X156795674Y-92828660D01*
X151591620Y-91077626D02*
X151742934Y-91150495D01*
X155939614Y-91978454D02*
X155968521Y-92001507D01*
X151460314Y-90972913D02*
X151591620Y-91077626D01*
X155906301Y-91962411D02*
X155939614Y-91978454D01*
X151355601Y-90841607D02*
X151460314Y-90972913D01*
X155797233Y-91962410D02*
X155833280Y-91954183D01*
X151245360Y-90358610D02*
X151245360Y-90526556D01*
X155763922Y-91978454D02*
X155797233Y-91962410D01*
X151282732Y-90194874D02*
X151245360Y-90358610D01*
X151355601Y-90043559D02*
X151282732Y-90194874D01*
X152576091Y-88790623D02*
X152553037Y-88819530D01*
X152600360Y-88721263D02*
X152592133Y-88757311D01*
X152576091Y-88614931D02*
X152592132Y-88648243D01*
X151725885Y-87758871D02*
X152553038Y-88586024D01*
X151696978Y-87735818D02*
X151725885Y-87758871D01*
X151663665Y-87719775D02*
X151696978Y-87735818D01*
X151627618Y-87711547D02*
X151663665Y-87719775D01*
X151590644Y-87711547D02*
X151627618Y-87711547D01*
X151554597Y-87719774D02*
X151590644Y-87711547D01*
X151492379Y-87758872D02*
X151521286Y-87735818D01*
X153712938Y-93198944D02*
X153864252Y-93271813D01*
X150399656Y-88851595D02*
X151492379Y-87758872D01*
X153581632Y-93094231D02*
X153712938Y-93198944D01*
X150268350Y-88956308D02*
X150399656Y-88851595D01*
X149953299Y-89066549D02*
X150117035Y-89029177D01*
X149785352Y-89066549D02*
X149953299Y-89066549D01*
X149234283Y-88720289D02*
X149338996Y-88851595D01*
X149124042Y-88405238D02*
X149161414Y-88568974D01*
X149124042Y-88237292D02*
X149124042Y-88405238D01*
X154713451Y-90878629D02*
X154697409Y-90911941D01*
X149161414Y-88073556D02*
X149124042Y-88237292D01*
X155985570Y-95393131D02*
X156149306Y-95430503D01*
X154721678Y-90842581D02*
X154713451Y-90878629D01*
X149234283Y-87922241D02*
X149161414Y-88073556D01*
X149338996Y-87790935D02*
X149234283Y-87922241D01*
X150314966Y-86814966D02*
X149338996Y-87790935D01*
X150431719Y-86698212D02*
X150314966Y-86814966D01*
X155525368Y-94932928D02*
X155598237Y-95084243D01*
X154674356Y-90707342D02*
X154697409Y-90736249D01*
X150454773Y-86669305D02*
X150431719Y-86698212D01*
X150470815Y-86635993D02*
X150454773Y-86669305D01*
X150479042Y-86599945D02*
X150470815Y-86635993D01*
X150479043Y-86562973D02*
X150479042Y-86599945D01*
X150470814Y-86526925D02*
X150479043Y-86562973D01*
X155702950Y-94154889D02*
X155598237Y-94286195D01*
X150454773Y-86493613D02*
X150470814Y-86526925D01*
X153675915Y-89841092D02*
X153711962Y-89832865D01*
X150431720Y-86464706D02*
X150454773Y-86493613D01*
X153642604Y-89857136D02*
X153675915Y-89841092D01*
X149604567Y-85637553D02*
X150431720Y-86464706D01*
X153613697Y-89880190D02*
X153642604Y-89857136D01*
X149575660Y-85614500D02*
X149604567Y-85637553D01*
X149542347Y-85598457D02*
X149575660Y-85614500D01*
X156842996Y-92963899D02*
X156834769Y-92999947D01*
X152389668Y-91077626D02*
X152520974Y-90972913D01*
X149506300Y-85590229D02*
X149542347Y-85598457D01*
X156842997Y-92926927D02*
X156842996Y-92963899D01*
X152238353Y-91150495D02*
X152389668Y-91077626D01*
X149469326Y-85590229D02*
X149506300Y-85590229D01*
X156834768Y-92890879D02*
X156842997Y-92926927D01*
X152074617Y-91187867D02*
X152238353Y-91150495D01*
X149433279Y-85598456D02*
X149469326Y-85590229D01*
X156818727Y-92857567D02*
X156834768Y-92890879D01*
X151906670Y-91187867D02*
X152074617Y-91187867D01*
X149399968Y-85614500D02*
X149433279Y-85598456D01*
X149371061Y-85637554D02*
X149399968Y-85614500D01*
X148278338Y-86730277D02*
X149371061Y-85637554D01*
X148147032Y-86834990D02*
X148278338Y-86730277D01*
X147995717Y-86907859D02*
X148147032Y-86834990D01*
X155833280Y-91954183D02*
X155870254Y-91954183D01*
X151245360Y-90526556D02*
X151282732Y-90690292D01*
X147664034Y-86945231D02*
X147831981Y-86945231D01*
X147040096Y-86447656D02*
X147112965Y-86598971D01*
X147002724Y-86283920D02*
X147040096Y-86447656D01*
X147002724Y-86115974D02*
X147002724Y-86283920D01*
X147040096Y-85952238D02*
X147002724Y-86115974D01*
X136755935Y-81765284D02*
X136787114Y-81761771D01*
X136726320Y-81775647D02*
X136755935Y-81765284D01*
X158269909Y-94769909D02*
X161925000Y-98425000D01*
X132116431Y-81814526D02*
X132133124Y-81841092D01*
X129429382Y-84008602D02*
X129571587Y-84097955D01*
X136063890Y-84153424D02*
X136222412Y-84097955D01*
X135897000Y-84172229D02*
X136063890Y-84153424D01*
X135310626Y-83889846D02*
X135429382Y-84008602D01*
X135221273Y-83747641D02*
X135310626Y-83889846D01*
X135165804Y-83589119D02*
X135221273Y-83747641D01*
X132143487Y-81870707D02*
X132147000Y-81901885D01*
X151460314Y-89912253D02*
X151355601Y-90043559D01*
X135147000Y-81901885D02*
X135147000Y-83422229D01*
X135143487Y-81870707D02*
X135147000Y-81901885D01*
X135133124Y-81841092D02*
X135143487Y-81870707D01*
X135067679Y-81775647D02*
X135094245Y-81792340D01*
X149161414Y-88568974D02*
X149234283Y-88720289D01*
X135006886Y-81761771D02*
X135038064Y-81765284D01*
X133726320Y-81775647D02*
X133755935Y-81765284D01*
X133699754Y-81792340D02*
X133726320Y-81775647D01*
X132221273Y-83747641D02*
X132310626Y-83889846D01*
X133628195Y-83589119D02*
X133647000Y-83422229D01*
X133572726Y-83747641D02*
X133628195Y-83589119D01*
X133483373Y-83889846D02*
X133572726Y-83747641D01*
X133364617Y-84008602D02*
X133483373Y-83889846D01*
X133222412Y-84097955D02*
X133364617Y-84008602D01*
X139660875Y-81841092D02*
X139677568Y-81814526D01*
X133063890Y-84153424D02*
X133222412Y-84097955D01*
X135116431Y-81814526D02*
X135133124Y-81841092D01*
X132897000Y-84172229D02*
X133063890Y-84153424D01*
X156763610Y-95215549D02*
X157209249Y-94769909D01*
X153581632Y-92033571D02*
X153476919Y-92164877D01*
X148333455Y-84547987D02*
X148310401Y-84576894D01*
X132165804Y-83589119D02*
X132221273Y-83747641D01*
X136677568Y-81814526D02*
X136699754Y-81792340D01*
X130364617Y-84008602D02*
X130483373Y-83889846D01*
X130650512Y-81870707D02*
X130660875Y-81841092D01*
X129730109Y-84153424D02*
X129897000Y-84172229D01*
X128983373Y-82324382D02*
X129072726Y-82466587D01*
X142647000Y-83422229D02*
X142647000Y-82792000D01*
X147454342Y-83493182D02*
X147483249Y-83516235D01*
X129897000Y-84172229D02*
X130063890Y-84153424D01*
X130755935Y-81765284D02*
X130787114Y-81761771D01*
X138147000Y-81901885D02*
X138147000Y-83422229D01*
X132310626Y-83889846D02*
X132429382Y-84008602D01*
X145378980Y-84786541D02*
X145542716Y-84823913D01*
X127254000Y-82042000D02*
X128397000Y-82042000D01*
X128722412Y-82116273D02*
X128864617Y-82205626D01*
X148193648Y-84693648D02*
X147217678Y-85669617D01*
X157209249Y-94769909D02*
X157340555Y-94665196D01*
X153476919Y-92164877D02*
X153404050Y-92316192D01*
X149338996Y-88851595D02*
X149470302Y-88956308D01*
X138006886Y-81761771D02*
X138038064Y-81765284D01*
X133660875Y-81841092D02*
X133677568Y-81814526D01*
X128563890Y-82060804D02*
X128722412Y-82116273D01*
X155870254Y-91954183D02*
X155906301Y-91962411D01*
X151282732Y-90690292D02*
X151355601Y-90841607D01*
X147831981Y-86945231D02*
X147995717Y-86907859D01*
X130660875Y-81841092D02*
X130677568Y-81814526D01*
X129165804Y-83589119D02*
X129221273Y-83747641D01*
X152553038Y-88586024D02*
X152576091Y-88614931D01*
X130628195Y-83589119D02*
X130647000Y-83422229D01*
X147217678Y-86730277D02*
X147348984Y-86834990D01*
X133647000Y-81901885D02*
X133650512Y-81870707D01*
X128864617Y-82205626D02*
X128983373Y-82324382D01*
X129310626Y-83889846D02*
X129429382Y-84008602D01*
X135147000Y-83422229D02*
X135165804Y-83589119D01*
X152600361Y-88684291D02*
X152600360Y-88721263D01*
X129128195Y-82625109D02*
X129147000Y-82792000D01*
X152592132Y-88648243D02*
X152600361Y-88684291D01*
X129221273Y-83747641D02*
X129310626Y-83889846D01*
X152436284Y-88936284D02*
X151460314Y-89912253D01*
X148349496Y-84405607D02*
X148357725Y-84441655D01*
X130572726Y-83747641D02*
X130628195Y-83589119D01*
X130726320Y-81775647D02*
X130755935Y-81765284D01*
X145542000Y-82042000D02*
X145646713Y-82173306D01*
X132571587Y-84097955D02*
X132730109Y-84153424D01*
X133787114Y-81761771D02*
X135006886Y-81761771D01*
X147500298Y-86907859D02*
X147664034Y-86945231D01*
X130483373Y-83889846D02*
X130572726Y-83747641D01*
X132133124Y-81841092D02*
X132143487Y-81870707D01*
X133677568Y-81814526D02*
X133699754Y-81792340D01*
X136787114Y-81761771D02*
X138006886Y-81761771D01*
X133755935Y-81765284D02*
X133787114Y-81761771D01*
X132094245Y-81792340D02*
X132116431Y-81814526D01*
X148357725Y-84441655D02*
X148357724Y-84478627D01*
X139755935Y-81765284D02*
X139787114Y-81761771D01*
X129072726Y-82466587D02*
X129128195Y-82625109D01*
X136650512Y-81870707D02*
X136660875Y-81841092D01*
X141571587Y-84097955D02*
X141730109Y-84153424D01*
X145874399Y-84786541D02*
X146025714Y-84713672D01*
X141147000Y-81901885D02*
X141147000Y-83422229D01*
X145096360Y-83548299D02*
X144991647Y-83679605D01*
X136364617Y-84008602D02*
X136483373Y-83889846D01*
X129147000Y-83422229D02*
X129165804Y-83589119D01*
X139364617Y-84008602D02*
X139483373Y-83889846D01*
X142628195Y-83589119D02*
X142647000Y-83422229D01*
X147112965Y-86598971D02*
X147217678Y-86730277D01*
X133647000Y-83422229D02*
X133647000Y-81901885D01*
X139787114Y-81761771D02*
X141006886Y-81761771D01*
X151521286Y-87735818D02*
X151554597Y-87719774D01*
X130222412Y-84097955D02*
X130364617Y-84008602D01*
X157491869Y-94592327D02*
X157655605Y-94554955D01*
X153366678Y-92479928D02*
X153366678Y-92647874D01*
X149621616Y-89029177D02*
X149785352Y-89066549D01*
X138067679Y-81775647D02*
X138094245Y-81792340D01*
X130647000Y-83422229D02*
X130647000Y-81901885D01*
X147217678Y-85669617D02*
X147112965Y-85800923D01*
X147421029Y-83477139D02*
X147454342Y-83493182D01*
X130647000Y-81901885D02*
X130650512Y-81870707D01*
X139650512Y-81870707D02*
X139660875Y-81841092D01*
X147348984Y-86834990D02*
X147500298Y-86907859D01*
X133650512Y-81870707D02*
X133660875Y-81841092D01*
X141310626Y-83889846D02*
X141429382Y-84008602D01*
X130699754Y-81792340D02*
X130726320Y-81775647D01*
X135094245Y-81792340D02*
X135116431Y-81814526D01*
X132006886Y-81761771D02*
X132038064Y-81765284D01*
X142364617Y-84008602D02*
X142483373Y-83889846D01*
X132067679Y-81775647D02*
X132094245Y-81792340D01*
X147311961Y-83477138D02*
X147348008Y-83468911D01*
X157340555Y-94665196D02*
X157491869Y-94592327D01*
X153404050Y-92316192D02*
X153366678Y-92479928D01*
X149470302Y-88956308D02*
X149621616Y-89029177D01*
X138038064Y-81765284D02*
X138067679Y-81775647D01*
X136699754Y-81792340D02*
X136726320Y-81775647D01*
X132038064Y-81765284D02*
X132067679Y-81775647D01*
X153476919Y-92962925D02*
X153581632Y-93094231D01*
X150117035Y-89029177D02*
X150268350Y-88956308D01*
X128397000Y-82042000D02*
X128563890Y-82060804D01*
X155598237Y-94286195D02*
X155525368Y-94437510D01*
X130063890Y-84153424D02*
X130222412Y-84097955D01*
X130787114Y-81761771D02*
X132006886Y-81761771D01*
X138897000Y-84172229D02*
X139063890Y-84153424D01*
X132147000Y-81901885D02*
X132147000Y-83422229D01*
X129571587Y-84097955D02*
X129730109Y-84153424D01*
X141897000Y-84172229D02*
X142063890Y-84153424D01*
X146157020Y-84608959D02*
X147249743Y-83516236D01*
X135038064Y-81765284D02*
X135067679Y-81775647D01*
X132730109Y-84153424D02*
X132897000Y-84172229D01*
X152553037Y-88819530D02*
X152436284Y-88936284D01*
X148333455Y-84372295D02*
X148349496Y-84405607D01*
X138094245Y-81792340D02*
X138116431Y-81814526D01*
X138116431Y-81814526D02*
X138133124Y-81841092D01*
X144991647Y-84477653D02*
X145096360Y-84608959D01*
X138133124Y-81841092D02*
X138143487Y-81870707D01*
X145096360Y-84608959D02*
X145227666Y-84713672D01*
X138143487Y-81870707D02*
X138147000Y-81901885D01*
X145227666Y-84713672D02*
X145378980Y-84786541D01*
X138147000Y-83422229D02*
X138165804Y-83589119D01*
X138165804Y-83589119D02*
X138221273Y-83747641D01*
X138221273Y-83747641D02*
X138310626Y-83889846D01*
X156818727Y-93033259D02*
X156795673Y-93062166D01*
X138310626Y-83889846D02*
X138429382Y-84008602D01*
X130677568Y-81814526D02*
X130699754Y-81792340D01*
X138429382Y-84008602D02*
X138571587Y-84097955D01*
X138571587Y-84097955D02*
X138730109Y-84153424D01*
X138730109Y-84153424D02*
X138897000Y-84172229D01*
X155525368Y-94437510D02*
X155487996Y-94601246D01*
X153784983Y-89841093D02*
X153818296Y-89857136D01*
X139063890Y-84153424D02*
X139222412Y-84097955D01*
X132429382Y-84008602D02*
X132571587Y-84097955D01*
X139222412Y-84097955D02*
X139364617Y-84008602D01*
X142572726Y-83747641D02*
X142628195Y-83589119D01*
X139483373Y-83889846D02*
X139572726Y-83747641D01*
X139572726Y-83747641D02*
X139628195Y-83589119D01*
X139628195Y-83589119D02*
X139647000Y-83422229D01*
X139647000Y-83422229D02*
X139647000Y-81901885D01*
X142721273Y-82466587D02*
X142810626Y-82324382D01*
X139647000Y-81901885D02*
X139650512Y-81870707D01*
X139677568Y-81814526D02*
X139699754Y-81792340D01*
X148349497Y-84514675D02*
X148333455Y-84547987D01*
X139699754Y-81792340D02*
X139726320Y-81775647D01*
X139726320Y-81775647D02*
X139755935Y-81765284D01*
X141006886Y-81761771D02*
X141038064Y-81765284D01*
X141038064Y-81765284D02*
X141067679Y-81775647D01*
X141067679Y-81775647D02*
X141094245Y-81792340D01*
X141094245Y-81792340D02*
X141116431Y-81814526D01*
X144918778Y-83830919D02*
X144881406Y-83994655D01*
X145646713Y-82971354D02*
X145542000Y-83102660D01*
X141133124Y-81841092D02*
X141143487Y-81870707D01*
X136483373Y-83889846D02*
X136572726Y-83747641D01*
X141147000Y-83422229D02*
X141165804Y-83589119D01*
X136572726Y-83747641D02*
X136628195Y-83589119D01*
X141165804Y-83589119D02*
X141221273Y-83747641D01*
X136628195Y-83589119D02*
X136647000Y-83422229D01*
X141221273Y-83747641D02*
X141310626Y-83889846D01*
X145710663Y-84823913D02*
X145874399Y-84786541D01*
X129147000Y-82792000D02*
X129147000Y-83422229D01*
X136660875Y-81841092D02*
X136677568Y-81814526D01*
X141730109Y-84153424D02*
X141897000Y-84172229D01*
X146025714Y-84713672D02*
X146157020Y-84608959D01*
X142063890Y-84153424D02*
X142222412Y-84097955D01*
X142222412Y-84097955D02*
X142364617Y-84008602D01*
X123571000Y-85725000D02*
X127254000Y-82042000D01*
X147278650Y-83493182D02*
X147311961Y-83477138D01*
X142483373Y-83889846D02*
X142572726Y-83747641D01*
X147348008Y-83468911D02*
X147384982Y-83468911D01*
X142647000Y-82792000D02*
X142665804Y-82625109D01*
X147483249Y-83516235D02*
X148310402Y-84343388D01*
X132147000Y-83422229D02*
X132165804Y-83589119D01*
X142665804Y-82625109D02*
X142721273Y-82466587D01*
X148310402Y-84343388D02*
X148333455Y-84372295D01*
X147384982Y-83468911D02*
X147421029Y-83477139D01*
X142810626Y-82324382D02*
X142929382Y-82205626D01*
X144881406Y-83994655D02*
X144881406Y-84162602D01*
X142929382Y-82205626D02*
X143071587Y-82116273D01*
X136647000Y-83422229D02*
X136647000Y-81901885D01*
X144881406Y-84162602D02*
X144918778Y-84326338D01*
X143071587Y-82116273D02*
X143230109Y-82060804D01*
X136647000Y-81901885D02*
X136650512Y-81870707D01*
X141429382Y-84008602D02*
X141571587Y-84097955D01*
X144918778Y-84326338D02*
X144991647Y-84477653D01*
X152592133Y-88757311D02*
X152576091Y-88790623D01*
X143230109Y-82060804D02*
X143397000Y-82042000D01*
X143397000Y-82042000D02*
X145542000Y-82042000D01*
X145646713Y-82173306D02*
X145719582Y-82324620D01*
X135429382Y-84008602D02*
X135571587Y-84097955D01*
X145719582Y-82324620D02*
X145756954Y-82488356D01*
X135571587Y-84097955D02*
X135730109Y-84153424D01*
X145756954Y-82488356D02*
X145756954Y-82656303D01*
X135730109Y-84153424D02*
X135897000Y-84172229D01*
X145756954Y-82656303D02*
X145719582Y-82820039D01*
X141116431Y-81814526D02*
X141133124Y-81841092D01*
X145719582Y-82820039D02*
X145646713Y-82971354D01*
X136222412Y-84097955D02*
X136364617Y-84008602D01*
X141143487Y-81870707D02*
X141147000Y-81901885D01*
X145542000Y-83102660D02*
X145096360Y-83548299D01*
X144991647Y-83679605D02*
X144918778Y-83830919D01*
X145542716Y-84823913D02*
X145710663Y-84823913D01*
X147249743Y-83516236D02*
X147278650Y-83493182D01*
X148357724Y-84478627D02*
X148349497Y-84514675D01*
X148310401Y-84576894D02*
X148193648Y-84693648D01*
X147112965Y-85800923D02*
X147040096Y-85952238D01*
X163703001Y-98298001D02*
X164465000Y-99060000D01*
X114304084Y-88047010D02*
X114392871Y-88004252D01*
X112038402Y-88119197D02*
X112038402Y-88020651D01*
X114109463Y-88068938D02*
X114208009Y-88068938D01*
X114181650Y-85803256D02*
X114224407Y-85714470D01*
X113924600Y-88004252D02*
X114013387Y-88047010D01*
X113847554Y-87942810D02*
X113924600Y-88004252D01*
X112963283Y-87194317D02*
X113059357Y-87216246D01*
X112864735Y-87194318D02*
X112963283Y-87194317D01*
X112768661Y-87216245D02*
X112864735Y-87194318D01*
X112602826Y-87320447D02*
X112679873Y-87259004D01*
X116425403Y-85925691D02*
X116514190Y-85882933D01*
X112103088Y-87835789D02*
X112164531Y-87758741D01*
X112060331Y-87924575D02*
X112103088Y-87835789D01*
X112038402Y-88020651D02*
X112060331Y-87924575D01*
X117090975Y-85306148D02*
X117133733Y-85217361D01*
X117090975Y-84837877D02*
X116968089Y-84683783D01*
X112103089Y-88304059D02*
X112060330Y-88215273D01*
X112164531Y-88381105D02*
X112103089Y-88304059D01*
X112475713Y-88692287D02*
X112164531Y-88381105D01*
X112433340Y-88734656D02*
X112475713Y-88692287D01*
X112164531Y-87758741D02*
X112602826Y-87320447D01*
X117155661Y-85121286D02*
X117155661Y-85022739D01*
X111421955Y-89980371D02*
X111518030Y-90002299D01*
X117029532Y-84138465D02*
X120396000Y-80772000D01*
X113148145Y-87259003D02*
X113225192Y-87320446D01*
X111518030Y-90002299D02*
X111606817Y-90045057D01*
X111760910Y-90167942D02*
X111849697Y-90210700D01*
X114889980Y-85094926D02*
X114986054Y-85072999D01*
X114013387Y-88047010D02*
X114109463Y-88068938D01*
X115269464Y-85137684D02*
X115346511Y-85199127D01*
X112870652Y-89307748D02*
X112848724Y-89211673D01*
X111323409Y-89980371D02*
X111421955Y-89980371D01*
X116045919Y-85882933D02*
X116134706Y-85925691D01*
X111138546Y-90045057D02*
X111227333Y-90002299D01*
X114469918Y-87942810D02*
X114908213Y-87504514D01*
X115012414Y-87338680D02*
X115034342Y-87242605D01*
X111849697Y-90210700D02*
X111945773Y-90232628D01*
X111945773Y-90232628D02*
X112044319Y-90232628D01*
X111227333Y-90002299D02*
X111323409Y-89980371D01*
X112744523Y-89668204D02*
X112805966Y-89591157D01*
X112744523Y-89045839D02*
X112433340Y-88734656D01*
X97663000Y-103505000D02*
X111061500Y-90106500D01*
X112229181Y-90167942D02*
X112306228Y-90106500D01*
X111061500Y-90106500D02*
X111138546Y-90045057D01*
X116968089Y-84683783D02*
X116925331Y-84594996D01*
X112044319Y-90232628D02*
X112140394Y-90210700D01*
X114801192Y-85137685D02*
X114889980Y-85094926D01*
X112848724Y-89502370D02*
X112870652Y-89406295D01*
X112805966Y-89122886D02*
X112744523Y-89045839D01*
X116591237Y-85821491D02*
X117029532Y-85383195D01*
X112870652Y-89406295D02*
X112870652Y-89307748D01*
X114181649Y-86093954D02*
X114159721Y-85997878D01*
X114392871Y-88004252D02*
X114469918Y-87942810D01*
X114908213Y-87504514D02*
X114969656Y-87427467D01*
X113225192Y-87320446D02*
X113847554Y-87942810D01*
X114159721Y-85997878D02*
X114159721Y-85899332D01*
X114285850Y-85637422D02*
X114724145Y-85199128D01*
X114969656Y-87427467D02*
X115012414Y-87338680D01*
X113059357Y-87216246D02*
X113148145Y-87259003D01*
X115034342Y-87242605D02*
X115034342Y-87144058D01*
X115012414Y-87047983D02*
X114969656Y-86959196D01*
X114969656Y-86959196D02*
X114908213Y-86882149D01*
X115034342Y-87144058D02*
X115012414Y-87047983D01*
X114908213Y-86882149D02*
X114285850Y-86259786D01*
X116329328Y-85947619D02*
X116425403Y-85925691D01*
X115346511Y-85199127D02*
X115968873Y-85821491D01*
X114285850Y-86259786D02*
X114224408Y-86182740D01*
X114224408Y-86182740D02*
X114181649Y-86093954D01*
X114159721Y-85899332D02*
X114181650Y-85803256D01*
X112306228Y-90106500D02*
X112744523Y-89668204D01*
X114224407Y-85714470D02*
X114285850Y-85637422D01*
X116925331Y-84304299D02*
X116968089Y-84215512D01*
X116903403Y-84400374D02*
X116925331Y-84304299D01*
X146177000Y-80772000D02*
X163703001Y-98298001D01*
X112805966Y-89591157D02*
X112848724Y-89502370D01*
X114724145Y-85199128D02*
X114801192Y-85137685D01*
X114986054Y-85072999D02*
X115084602Y-85072998D01*
X115084602Y-85072998D02*
X115180676Y-85094927D01*
X112060330Y-88215273D02*
X112038402Y-88119197D01*
X112848724Y-89211673D02*
X112805966Y-89122886D01*
X117155661Y-85022739D02*
X117133733Y-84926664D01*
X120396000Y-80772000D02*
X146177000Y-80772000D01*
X115180676Y-85094927D02*
X115269464Y-85137684D01*
X115968873Y-85821491D02*
X116045919Y-85882933D01*
X111606817Y-90045057D02*
X111760910Y-90167942D01*
X112140394Y-90210700D02*
X112229181Y-90167942D01*
X116134706Y-85925691D02*
X116230782Y-85947619D01*
X116514190Y-85882933D02*
X116591237Y-85821491D01*
X116968089Y-84215512D02*
X117029532Y-84138465D01*
X116230782Y-85947619D02*
X116329328Y-85947619D01*
X117029532Y-85383195D02*
X117090975Y-85306148D01*
X114208009Y-88068938D02*
X114304084Y-88047010D01*
X117133733Y-85217361D02*
X117155661Y-85121286D01*
X117133733Y-84926664D02*
X117090975Y-84837877D01*
X116925331Y-84594996D02*
X116903403Y-84498920D01*
X112679873Y-87259004D02*
X112768661Y-87216245D01*
X116903403Y-84498920D02*
X116903403Y-84400374D01*
M02*
