G04 #@! TF.GenerationSoftware,KiCad,Pcbnew,5.1.5-52549c5~86~ubuntu19.04.1*
G04 #@! TF.CreationDate,2020-05-13T19:24:15+10:00*
G04 #@! TF.ProjectId,saab_bluetooth_aux_kit,73616162-5f62-46c7-9565-746f6f74685f,rev?*
G04 #@! TF.SameCoordinates,Original*
G04 #@! TF.FileFunction,Legend,Bot*
G04 #@! TF.FilePolarity,Positive*
%FSLAX46Y46*%
G04 Gerber Fmt 4.6, Leading zero omitted, Abs format (unit mm)*
G04 Created by KiCad (PCBNEW 5.1.5-52549c5~86~ubuntu19.04.1) date 2020-05-13 19:24:15*
%MOMM*%
%LPD*%
G04 APERTURE LIST*
%ADD10C,0.010000*%
G04 APERTURE END LIST*
D10*
G36*
X174400624Y-112558182D02*
G01*
X174377549Y-112577130D01*
X174343413Y-112607743D01*
X174302218Y-112646511D01*
X174148659Y-112780928D01*
X173993427Y-112891074D01*
X173837101Y-112976595D01*
X173680261Y-113037133D01*
X173653450Y-113044953D01*
X173611605Y-113055658D01*
X173571578Y-113063298D01*
X173527801Y-113068353D01*
X173474705Y-113071303D01*
X173406722Y-113072627D01*
X173329600Y-113072827D01*
X173251523Y-113072196D01*
X173181983Y-113070189D01*
X173116778Y-113066231D01*
X173051704Y-113059744D01*
X172982558Y-113050155D01*
X172905134Y-113036886D01*
X172815231Y-113019362D01*
X172708644Y-112997008D01*
X172594075Y-112972085D01*
X172460661Y-112943735D01*
X172348131Y-112922145D01*
X172252999Y-112906915D01*
X172171778Y-112897645D01*
X172100983Y-112893936D01*
X172037128Y-112895387D01*
X171977929Y-112901429D01*
X171831129Y-112932802D01*
X171688647Y-112984054D01*
X171554962Y-113052774D01*
X171434556Y-113136551D01*
X171331908Y-113232972D01*
X171305988Y-113263095D01*
X171278484Y-113299052D01*
X171248823Y-113341413D01*
X171220316Y-113384927D01*
X171196272Y-113424345D01*
X171180001Y-113454415D01*
X171174813Y-113469889D01*
X171175168Y-113470600D01*
X171187324Y-113466767D01*
X171215057Y-113452559D01*
X171252391Y-113431042D01*
X171252808Y-113430791D01*
X171355234Y-113380181D01*
X171475083Y-113339255D01*
X171605937Y-113308933D01*
X171741376Y-113290140D01*
X171874982Y-113283797D01*
X172000337Y-113290827D01*
X172099738Y-113309071D01*
X172141504Y-113320792D01*
X172201964Y-113338809D01*
X172275696Y-113361451D01*
X172357274Y-113387050D01*
X172441274Y-113413937D01*
X172454555Y-113418240D01*
X172541743Y-113445907D01*
X172630569Y-113472977D01*
X172714720Y-113497606D01*
X172787887Y-113517949D01*
X172843756Y-113532163D01*
X172847000Y-113532914D01*
X172920544Y-113547074D01*
X173003213Y-113558616D01*
X173087863Y-113566943D01*
X173167346Y-113571458D01*
X173234516Y-113571566D01*
X173272450Y-113568406D01*
X173441044Y-113532279D01*
X173600399Y-113475668D01*
X173746608Y-113400137D01*
X173825760Y-113346862D01*
X173904005Y-113282075D01*
X173987728Y-113200906D01*
X174070958Y-113109644D01*
X174147724Y-113014581D01*
X174170239Y-112983982D01*
X174195597Y-112946106D01*
X174226865Y-112895627D01*
X174261636Y-112836879D01*
X174297504Y-112774193D01*
X174332063Y-112711902D01*
X174362904Y-112654340D01*
X174387622Y-112605839D01*
X174403810Y-112570731D01*
X174409100Y-112553959D01*
X174400624Y-112558182D01*
G37*
X174400624Y-112558182D02*
X174377549Y-112577130D01*
X174343413Y-112607743D01*
X174302218Y-112646511D01*
X174148659Y-112780928D01*
X173993427Y-112891074D01*
X173837101Y-112976595D01*
X173680261Y-113037133D01*
X173653450Y-113044953D01*
X173611605Y-113055658D01*
X173571578Y-113063298D01*
X173527801Y-113068353D01*
X173474705Y-113071303D01*
X173406722Y-113072627D01*
X173329600Y-113072827D01*
X173251523Y-113072196D01*
X173181983Y-113070189D01*
X173116778Y-113066231D01*
X173051704Y-113059744D01*
X172982558Y-113050155D01*
X172905134Y-113036886D01*
X172815231Y-113019362D01*
X172708644Y-112997008D01*
X172594075Y-112972085D01*
X172460661Y-112943735D01*
X172348131Y-112922145D01*
X172252999Y-112906915D01*
X172171778Y-112897645D01*
X172100983Y-112893936D01*
X172037128Y-112895387D01*
X171977929Y-112901429D01*
X171831129Y-112932802D01*
X171688647Y-112984054D01*
X171554962Y-113052774D01*
X171434556Y-113136551D01*
X171331908Y-113232972D01*
X171305988Y-113263095D01*
X171278484Y-113299052D01*
X171248823Y-113341413D01*
X171220316Y-113384927D01*
X171196272Y-113424345D01*
X171180001Y-113454415D01*
X171174813Y-113469889D01*
X171175168Y-113470600D01*
X171187324Y-113466767D01*
X171215057Y-113452559D01*
X171252391Y-113431042D01*
X171252808Y-113430791D01*
X171355234Y-113380181D01*
X171475083Y-113339255D01*
X171605937Y-113308933D01*
X171741376Y-113290140D01*
X171874982Y-113283797D01*
X172000337Y-113290827D01*
X172099738Y-113309071D01*
X172141504Y-113320792D01*
X172201964Y-113338809D01*
X172275696Y-113361451D01*
X172357274Y-113387050D01*
X172441274Y-113413937D01*
X172454555Y-113418240D01*
X172541743Y-113445907D01*
X172630569Y-113472977D01*
X172714720Y-113497606D01*
X172787887Y-113517949D01*
X172843756Y-113532163D01*
X172847000Y-113532914D01*
X172920544Y-113547074D01*
X173003213Y-113558616D01*
X173087863Y-113566943D01*
X173167346Y-113571458D01*
X173234516Y-113571566D01*
X173272450Y-113568406D01*
X173441044Y-113532279D01*
X173600399Y-113475668D01*
X173746608Y-113400137D01*
X173825760Y-113346862D01*
X173904005Y-113282075D01*
X173987728Y-113200906D01*
X174070958Y-113109644D01*
X174147724Y-113014581D01*
X174170239Y-112983982D01*
X174195597Y-112946106D01*
X174226865Y-112895627D01*
X174261636Y-112836879D01*
X174297504Y-112774193D01*
X174332063Y-112711902D01*
X174362904Y-112654340D01*
X174387622Y-112605839D01*
X174403810Y-112570731D01*
X174409100Y-112553959D01*
X174400624Y-112558182D01*
G36*
X165923731Y-107818000D02*
G01*
X165933436Y-107841282D01*
X165952261Y-107886383D01*
X165979532Y-107951685D01*
X166014571Y-108035572D01*
X166056705Y-108136426D01*
X166105257Y-108252632D01*
X166159551Y-108382571D01*
X166218913Y-108524628D01*
X166282666Y-108677185D01*
X166350135Y-108838625D01*
X166420644Y-109007333D01*
X166493519Y-109181690D01*
X166508787Y-109218219D01*
X166581218Y-109391764D01*
X166650748Y-109558849D01*
X166716761Y-109717971D01*
X166778644Y-109867628D01*
X166835781Y-110006317D01*
X166887559Y-110132537D01*
X166933363Y-110244784D01*
X166972579Y-110341557D01*
X167004593Y-110421352D01*
X167028790Y-110482668D01*
X167044555Y-110524002D01*
X167051276Y-110543851D01*
X167051448Y-110545369D01*
X167041513Y-110560453D01*
X167018897Y-110590823D01*
X166986958Y-110632070D01*
X166949056Y-110679783D01*
X166949024Y-110679823D01*
X166911797Y-110726834D01*
X166881248Y-110766729D01*
X166860482Y-110795359D01*
X166852605Y-110808573D01*
X166852600Y-110808669D01*
X166841390Y-110808625D01*
X166811020Y-110801671D01*
X166766385Y-110789060D01*
X166722397Y-110775320D01*
X166569784Y-110734469D01*
X166410205Y-110707584D01*
X166248609Y-110694704D01*
X166089947Y-110695866D01*
X165939171Y-110711106D01*
X165801230Y-110740463D01*
X165719125Y-110767784D01*
X165694194Y-110781306D01*
X165684200Y-110793915D01*
X165689920Y-110815944D01*
X165706070Y-110857248D01*
X165731136Y-110914688D01*
X165763605Y-110985122D01*
X165801963Y-111065410D01*
X165844695Y-111152412D01*
X165890289Y-111242987D01*
X165937229Y-111333995D01*
X165984003Y-111422294D01*
X166011514Y-111472953D01*
X166050191Y-111546204D01*
X166074399Y-111598674D01*
X166084169Y-111630436D01*
X166083001Y-111639746D01*
X166070390Y-111655056D01*
X166044684Y-111684922D01*
X166009698Y-111724950D01*
X165971645Y-111768043D01*
X165863692Y-111901185D01*
X165759710Y-112051344D01*
X165665188Y-112210180D01*
X165609161Y-112318800D01*
X165524767Y-112513696D01*
X165458147Y-112712911D01*
X165408561Y-112919991D01*
X165375273Y-113138483D01*
X165357546Y-113371934D01*
X165354000Y-113546101D01*
X165354788Y-113623232D01*
X165356975Y-113704451D01*
X165360300Y-113785568D01*
X165364503Y-113862392D01*
X165369320Y-113930734D01*
X165374491Y-113986404D01*
X165379755Y-114025211D01*
X165384849Y-114042964D01*
X165385028Y-114043161D01*
X165396869Y-114039112D01*
X165422299Y-114024194D01*
X165438237Y-114013655D01*
X165491061Y-113981147D01*
X165561311Y-113943182D01*
X165642538Y-113902975D01*
X165728296Y-113863743D01*
X165796784Y-113834835D01*
X165853886Y-113812938D01*
X165914050Y-113791824D01*
X165972248Y-113773016D01*
X166023455Y-113758040D01*
X166062642Y-113748423D01*
X166084783Y-113745690D01*
X166087532Y-113746598D01*
X166083848Y-113759033D01*
X166069763Y-113788156D01*
X166047854Y-113828820D01*
X166034630Y-113852120D01*
X165948888Y-114012846D01*
X165871379Y-114181978D01*
X165805454Y-114351489D01*
X165754466Y-114513353D01*
X165747601Y-114539237D01*
X165710825Y-114719341D01*
X165688158Y-114915147D01*
X165679456Y-115121333D01*
X165684576Y-115332574D01*
X165703374Y-115543549D01*
X165735707Y-115748934D01*
X165781432Y-115943407D01*
X165785831Y-115958915D01*
X165811476Y-116038876D01*
X165845846Y-116132974D01*
X165885632Y-116232977D01*
X165927529Y-116330654D01*
X165968229Y-116417771D01*
X165978023Y-116437316D01*
X166009053Y-116498183D01*
X166093591Y-116373816D01*
X166183285Y-116251306D01*
X166281848Y-116133262D01*
X166382951Y-116026938D01*
X166451636Y-115963548D01*
X166491079Y-115930147D01*
X166523219Y-115904215D01*
X166543350Y-115889491D01*
X166547428Y-115887500D01*
X166548174Y-115899100D01*
X166544337Y-115930624D01*
X166536636Y-115977153D01*
X166526648Y-116029523D01*
X166482949Y-116294370D01*
X166460836Y-116547148D01*
X166460268Y-116787614D01*
X166481207Y-117015531D01*
X166523614Y-117230657D01*
X166587448Y-117432752D01*
X166672671Y-117621576D01*
X166779242Y-117796890D01*
X166827713Y-117863014D01*
X166885646Y-117931492D01*
X166958147Y-118007187D01*
X167038398Y-118083608D01*
X167119584Y-118154263D01*
X167194888Y-118212663D01*
X167194931Y-118212694D01*
X167301590Y-118288937D01*
X167341796Y-118189943D01*
X167400955Y-118056174D01*
X167474221Y-117909911D01*
X167558230Y-117757099D01*
X167649623Y-117603687D01*
X167745036Y-117455620D01*
X167809765Y-117362050D01*
X167913050Y-117217351D01*
X167921203Y-117660500D01*
X167925598Y-117842356D01*
X167931905Y-118002298D01*
X167940508Y-118143766D01*
X167951793Y-118270200D01*
X167966145Y-118385041D01*
X167983948Y-118491730D01*
X168005589Y-118593706D01*
X168031451Y-118694409D01*
X168040520Y-118726371D01*
X168069399Y-118821514D01*
X168097443Y-118901162D01*
X168127571Y-118970091D01*
X168162703Y-119033079D01*
X168205760Y-119094902D01*
X168259662Y-119160338D01*
X168327329Y-119234163D01*
X168391610Y-119300712D01*
X168558123Y-119457730D01*
X168737405Y-119601128D01*
X168931168Y-119731819D01*
X169141129Y-119850714D01*
X169369001Y-119958727D01*
X169616500Y-120056769D01*
X169885340Y-120145752D01*
X170088988Y-120203632D01*
X170150456Y-120219662D01*
X170191167Y-120229050D01*
X170214754Y-120232250D01*
X170224850Y-120229717D01*
X170225087Y-120221904D01*
X170224614Y-120220604D01*
X170209214Y-120175158D01*
X170190549Y-120111297D01*
X170170317Y-120035517D01*
X170150212Y-119954314D01*
X170131931Y-119874185D01*
X170122850Y-119830850D01*
X170082526Y-119603377D01*
X170048613Y-119355395D01*
X170021386Y-119091040D01*
X170001121Y-118814451D01*
X169988093Y-118529765D01*
X169982578Y-118241121D01*
X169984849Y-117952654D01*
X169988782Y-117815605D01*
X169992172Y-117719983D01*
X169995247Y-117631934D01*
X169997893Y-117554849D01*
X169999994Y-117492119D01*
X170001437Y-117447137D01*
X170002105Y-117423294D01*
X170002138Y-117421025D01*
X170005304Y-117402344D01*
X170015277Y-117402824D01*
X170033004Y-117423511D01*
X170059433Y-117465456D01*
X170088166Y-117516275D01*
X170170270Y-117680497D01*
X170247811Y-117864600D01*
X170319051Y-118063219D01*
X170382254Y-118270992D01*
X170435682Y-118482557D01*
X170477597Y-118692550D01*
X170486203Y-118745000D01*
X170496407Y-118809170D01*
X170505586Y-118865007D01*
X170512870Y-118907342D01*
X170517388Y-118931012D01*
X170517976Y-118933385D01*
X170527391Y-118937996D01*
X170549339Y-118927568D01*
X170584771Y-118901340D01*
X170634637Y-118858551D01*
X170699887Y-118798440D01*
X170768826Y-118732510D01*
X170931961Y-118562463D01*
X171071058Y-118390749D01*
X171187468Y-118215043D01*
X171282545Y-118033023D01*
X171357641Y-117842368D01*
X171414109Y-117640755D01*
X171419918Y-117614700D01*
X171431576Y-117541107D01*
X171439580Y-117449194D01*
X171443927Y-117345777D01*
X171444617Y-117237672D01*
X171441649Y-117131696D01*
X171435021Y-117034663D01*
X171424731Y-116953390D01*
X171420044Y-116928900D01*
X171366763Y-116727909D01*
X171294206Y-116524631D01*
X171205868Y-116328032D01*
X171133608Y-116194196D01*
X171109691Y-116151427D01*
X171092719Y-116117518D01*
X171085324Y-116097886D01*
X171085547Y-116095320D01*
X171100562Y-116096462D01*
X171132407Y-116108109D01*
X171176067Y-116127809D01*
X171226525Y-116153110D01*
X171278765Y-116181562D01*
X171327770Y-116210713D01*
X171346823Y-116223001D01*
X171443882Y-116298048D01*
X171542725Y-116394200D01*
X171640163Y-116507655D01*
X171733010Y-116634609D01*
X171818080Y-116771259D01*
X171841502Y-116813380D01*
X171892358Y-116907411D01*
X171902910Y-116845130D01*
X171907193Y-116804449D01*
X171910307Y-116743211D01*
X171912291Y-116666231D01*
X171913184Y-116578321D01*
X171913023Y-116484298D01*
X171911846Y-116388974D01*
X171909693Y-116297165D01*
X171906600Y-116213684D01*
X171902607Y-116143345D01*
X171897752Y-116090964D01*
X171896866Y-116084350D01*
X171857576Y-115857578D01*
X171806563Y-115644236D01*
X171744626Y-115446755D01*
X171672561Y-115267563D01*
X171591168Y-115109093D01*
X171559801Y-115057685D01*
X171534059Y-115013544D01*
X171525123Y-114987735D01*
X171529297Y-114980101D01*
X171548973Y-114976766D01*
X171586550Y-114972447D01*
X171634597Y-114967979D01*
X171644390Y-114967175D01*
X171764665Y-114950399D01*
X171891192Y-114920338D01*
X172012754Y-114880057D01*
X172097034Y-114843453D01*
X172155555Y-114812075D01*
X172206265Y-114778269D01*
X172257069Y-114736138D01*
X172314222Y-114681432D01*
X172394403Y-114592659D01*
X172459480Y-114500014D01*
X172510723Y-114399999D01*
X172549399Y-114289118D01*
X172576779Y-114163872D01*
X172594131Y-114020765D01*
X172601713Y-113889179D01*
X172609285Y-113675209D01*
X172490018Y-113757505D01*
X172321995Y-113861756D01*
X172156566Y-113940827D01*
X172050480Y-113978717D01*
X172008450Y-113991189D01*
X171971843Y-114000223D01*
X171935255Y-114006361D01*
X171893283Y-114010145D01*
X171840527Y-114012118D01*
X171771582Y-114012820D01*
X171710350Y-114012846D01*
X171626608Y-114012477D01*
X171562801Y-114011257D01*
X171513468Y-114008624D01*
X171473147Y-114004016D01*
X171436375Y-113996874D01*
X171397689Y-113986635D01*
X171367520Y-113977623D01*
X171183611Y-113908176D01*
X171006974Y-113814620D01*
X170838119Y-113697327D01*
X170677555Y-113556671D01*
X170525791Y-113393024D01*
X170461910Y-113313801D01*
X170421109Y-113261053D01*
X170545030Y-113198134D01*
X170636103Y-113154112D01*
X170736392Y-113109394D01*
X170839356Y-113066619D01*
X170938454Y-113028423D01*
X171027145Y-112997445D01*
X171088050Y-112979137D01*
X171240042Y-112925703D01*
X171381858Y-112850359D01*
X171510256Y-112755157D01*
X171621993Y-112642145D01*
X171622921Y-112641044D01*
X171674882Y-112581021D01*
X171717196Y-112537064D01*
X171755118Y-112504669D01*
X171793902Y-112479331D01*
X171837350Y-112457219D01*
X171942627Y-112420588D01*
X172063064Y-112401674D01*
X172199003Y-112400541D01*
X172350784Y-112417251D01*
X172518750Y-112451868D01*
X172703241Y-112504455D01*
X172904598Y-112575074D01*
X173123162Y-112663789D01*
X173243875Y-112717159D01*
X173316900Y-112750279D01*
X173316778Y-112709164D01*
X173314545Y-112661783D01*
X173308571Y-112595315D01*
X173299622Y-112515671D01*
X173288466Y-112428762D01*
X173275871Y-112340497D01*
X173262603Y-112256786D01*
X173262023Y-112253556D01*
X172948600Y-112253556D01*
X172937763Y-112256864D01*
X172908849Y-112251392D01*
X172875575Y-112241051D01*
X172837265Y-112228749D01*
X172780764Y-112212033D01*
X172712500Y-112192741D01*
X172638902Y-112172709D01*
X172605700Y-112163928D01*
X172528143Y-112144069D01*
X172466251Y-112129839D01*
X172412124Y-112120118D01*
X172357861Y-112113784D01*
X172295560Y-112109715D01*
X172217322Y-112106792D01*
X172199300Y-112106252D01*
X172116380Y-112104258D01*
X172052684Y-112104074D01*
X172002079Y-112106097D01*
X171958430Y-112110722D01*
X171915602Y-112118344D01*
X171877194Y-112127011D01*
X171808711Y-112147035D01*
X171733560Y-112174654D01*
X171666789Y-112204286D01*
X171661294Y-112207073D01*
X171617717Y-112230979D01*
X171578238Y-112256682D01*
X171538164Y-112287997D01*
X171492800Y-112328737D01*
X171437450Y-112382717D01*
X171405550Y-112414862D01*
X171346562Y-112474010D01*
X171300232Y-112518223D01*
X171261924Y-112551168D01*
X171227003Y-112576511D01*
X171190831Y-112597920D01*
X171148771Y-112619060D01*
X171145200Y-112620761D01*
X171080336Y-112648828D01*
X171004743Y-112677453D01*
X170932427Y-112701412D01*
X170916600Y-112706032D01*
X170755518Y-112756070D01*
X170608884Y-112810995D01*
X170478097Y-112869890D01*
X170364558Y-112931833D01*
X170269667Y-112995908D01*
X170194823Y-113061194D01*
X170141427Y-113126772D01*
X170110877Y-113191724D01*
X170103800Y-113239674D01*
X170105990Y-113269212D01*
X170114015Y-113298725D01*
X170130060Y-113332071D01*
X170156310Y-113373111D01*
X170194950Y-113425704D01*
X170246193Y-113491231D01*
X170319856Y-113579006D01*
X170404485Y-113671631D01*
X170495196Y-113764324D01*
X170587107Y-113852301D01*
X170675335Y-113930780D01*
X170754997Y-113994980D01*
X170777026Y-114011119D01*
X170863322Y-114067972D01*
X170960657Y-114124527D01*
X171061788Y-114177072D01*
X171159477Y-114221899D01*
X171246481Y-114255297D01*
X171265265Y-114261289D01*
X171444033Y-114302931D01*
X171630627Y-114322871D01*
X171819611Y-114321074D01*
X172005550Y-114297502D01*
X172133991Y-114267170D01*
X172172624Y-114257788D01*
X172200697Y-114254073D01*
X172209921Y-114255587D01*
X172208387Y-114269864D01*
X172196976Y-114300110D01*
X172178091Y-114340057D01*
X172175961Y-114344195D01*
X172112162Y-114440372D01*
X172029308Y-114520497D01*
X171928327Y-114584198D01*
X171810150Y-114631100D01*
X171675704Y-114660830D01*
X171525918Y-114673015D01*
X171370384Y-114668010D01*
X171321945Y-114662885D01*
X171256529Y-114654290D01*
X171178977Y-114643028D01*
X171094128Y-114629897D01*
X171006823Y-114615698D01*
X170921902Y-114601230D01*
X170844204Y-114587295D01*
X170778570Y-114574692D01*
X170729840Y-114564222D01*
X170708258Y-114558552D01*
X170708429Y-114563430D01*
X170725356Y-114581946D01*
X170756320Y-114611434D01*
X170798601Y-114649229D01*
X170817051Y-114665198D01*
X170986890Y-114823462D01*
X171133111Y-114986801D01*
X171257308Y-115157209D01*
X171361074Y-115336679D01*
X171372983Y-115360450D01*
X171457259Y-115555124D01*
X171519036Y-115750527D01*
X171557259Y-115943295D01*
X171558201Y-115950288D01*
X171567362Y-116019426D01*
X171530906Y-115995154D01*
X171351354Y-115886719D01*
X171169810Y-115800097D01*
X170982159Y-115733918D01*
X170784285Y-115686813D01*
X170572071Y-115657413D01*
X170497545Y-115651319D01*
X170365067Y-115642194D01*
X170413197Y-115698172D01*
X170548162Y-115860324D01*
X170664753Y-116011945D01*
X170765590Y-116156799D01*
X170853296Y-116298650D01*
X170929828Y-116439950D01*
X171004936Y-116600726D01*
X171061918Y-116751877D01*
X171102487Y-116899634D01*
X171128357Y-117050231D01*
X171141177Y-117208300D01*
X171139559Y-117407798D01*
X171116621Y-117594675D01*
X171071625Y-117771191D01*
X171003834Y-117939608D01*
X170912512Y-118102186D01*
X170798507Y-118259225D01*
X170767682Y-118296200D01*
X170742711Y-118323993D01*
X170727917Y-118337859D01*
X170726205Y-118338600D01*
X170719754Y-118327162D01*
X170709873Y-118296789D01*
X170698417Y-118253389D01*
X170695288Y-118240175D01*
X170674552Y-118160275D01*
X170646134Y-118064517D01*
X170612414Y-117959853D01*
X170575767Y-117853238D01*
X170538571Y-117751625D01*
X170503204Y-117661969D01*
X170477119Y-117602000D01*
X170353004Y-117356371D01*
X170218254Y-117132672D01*
X170071796Y-116929299D01*
X169912563Y-116744651D01*
X169884839Y-116715720D01*
X169846560Y-116678111D01*
X169814545Y-116649900D01*
X169792866Y-116634488D01*
X169785989Y-116633170D01*
X169781292Y-116648838D01*
X169774598Y-116684803D01*
X169766712Y-116736117D01*
X169758444Y-116797832D01*
X169756376Y-116814600D01*
X169712909Y-117247941D01*
X169685485Y-117694297D01*
X169674233Y-118146880D01*
X169679286Y-118598906D01*
X169700775Y-119043589D01*
X169710626Y-119176800D01*
X169716831Y-119246982D01*
X169724833Y-119326786D01*
X169734063Y-119411549D01*
X169743955Y-119496609D01*
X169753940Y-119577305D01*
X169763451Y-119648974D01*
X169771920Y-119706953D01*
X169778781Y-119746581D01*
X169781366Y-119757825D01*
X169784427Y-119774105D01*
X169780288Y-119782759D01*
X169765504Y-119783355D01*
X169736634Y-119775460D01*
X169690232Y-119758642D01*
X169643341Y-119740494D01*
X169448082Y-119657500D01*
X169259313Y-119564339D01*
X169082821Y-119464134D01*
X168924397Y-119360008D01*
X168885936Y-119331974D01*
X168829475Y-119286901D01*
X168763391Y-119229466D01*
X168692387Y-119164219D01*
X168621169Y-119095708D01*
X168554440Y-119028483D01*
X168496904Y-118967093D01*
X168453267Y-118916089D01*
X168445478Y-118906022D01*
X168404002Y-118839326D01*
X168366813Y-118754532D01*
X168333512Y-118650192D01*
X168303698Y-118524860D01*
X168276973Y-118377088D01*
X168253552Y-118210374D01*
X168247838Y-118160667D01*
X168243127Y-118109661D01*
X168239331Y-118054384D01*
X168236360Y-117991862D01*
X168234125Y-117919125D01*
X168232538Y-117833200D01*
X168231508Y-117731115D01*
X168230948Y-117609898D01*
X168230768Y-117466577D01*
X168230768Y-117449600D01*
X168231212Y-117283208D01*
X168232492Y-117132636D01*
X168234569Y-116999683D01*
X168237406Y-116886152D01*
X168240962Y-116793843D01*
X168245200Y-116724559D01*
X168246668Y-116707820D01*
X168252187Y-116646170D01*
X168255995Y-116594221D01*
X168257796Y-116556880D01*
X168257292Y-116539057D01*
X168256955Y-116538321D01*
X168243415Y-116541751D01*
X168213606Y-116559184D01*
X168170775Y-116588366D01*
X168118168Y-116627045D01*
X168059032Y-116672966D01*
X168034189Y-116692928D01*
X167897739Y-116813709D01*
X167760293Y-116954218D01*
X167625977Y-117109303D01*
X167498916Y-117273815D01*
X167383237Y-117442603D01*
X167283065Y-117610517D01*
X167251438Y-117670065D01*
X167226191Y-117718974D01*
X167205274Y-117758843D01*
X167191347Y-117784640D01*
X167187180Y-117791631D01*
X167175318Y-117787747D01*
X167151878Y-117767873D01*
X167120792Y-117736137D01*
X167085987Y-117696667D01*
X167051394Y-117653590D01*
X167036060Y-117632901D01*
X166944663Y-117487794D01*
X166872227Y-117332428D01*
X166818207Y-117164847D01*
X166782058Y-116983099D01*
X166763234Y-116785228D01*
X166760041Y-116643150D01*
X166768546Y-116424723D01*
X166793123Y-116208629D01*
X166834610Y-115990958D01*
X166893845Y-115767803D01*
X166971664Y-115535256D01*
X167029785Y-115384218D01*
X167049921Y-115332729D01*
X167065266Y-115290672D01*
X167074039Y-115263114D01*
X167075197Y-115254963D01*
X167061633Y-115257342D01*
X167029426Y-115268913D01*
X166982810Y-115287828D01*
X166926019Y-115312241D01*
X166863286Y-115340303D01*
X166798846Y-115370169D01*
X166736931Y-115399990D01*
X166697818Y-115419615D01*
X166591217Y-115478695D01*
X166481030Y-115547768D01*
X166372913Y-115622758D01*
X166272523Y-115699587D01*
X166185515Y-115774178D01*
X166129662Y-115829161D01*
X166106765Y-115851100D01*
X166090831Y-115861873D01*
X166089524Y-115862100D01*
X166082449Y-115850326D01*
X166072048Y-115817956D01*
X166059354Y-115769418D01*
X166045402Y-115709139D01*
X166031224Y-115641545D01*
X166017855Y-115571064D01*
X166008052Y-115513156D01*
X165982945Y-115274981D01*
X165982723Y-115037229D01*
X166006897Y-114801389D01*
X166054975Y-114568950D01*
X166126465Y-114341403D01*
X166220876Y-114120236D01*
X166337717Y-113906940D01*
X166476497Y-113703004D01*
X166636723Y-113509917D01*
X166686147Y-113457185D01*
X166770050Y-113370021D01*
X166611300Y-113378307D01*
X166491514Y-113385539D01*
X166384960Y-113394510D01*
X166286676Y-113406187D01*
X166191697Y-113421536D01*
X166095059Y-113441523D01*
X165991798Y-113467115D01*
X165876950Y-113499278D01*
X165745550Y-113538978D01*
X165678961Y-113559791D01*
X165669657Y-113561625D01*
X165663341Y-113557842D01*
X165659698Y-113544816D01*
X165658413Y-113518922D01*
X165659173Y-113476532D01*
X165661663Y-113414022D01*
X165663252Y-113378607D01*
X165675448Y-113201020D01*
X165695061Y-113035274D01*
X165721405Y-112886600D01*
X165735815Y-112824513D01*
X165793090Y-112634847D01*
X165866673Y-112451159D01*
X165954302Y-112277801D01*
X166053715Y-112119123D01*
X166162649Y-111979477D01*
X166192077Y-111947010D01*
X166275589Y-111857857D01*
X166472020Y-112054184D01*
X166626751Y-112201117D01*
X166782168Y-112332301D01*
X166942468Y-112450429D01*
X167111846Y-112558192D01*
X167294498Y-112658281D01*
X167494620Y-112753389D01*
X167690800Y-112836017D01*
X167756606Y-112862098D01*
X167820441Y-112886941D01*
X167875267Y-112907836D01*
X167914047Y-112922071D01*
X167915831Y-112922697D01*
X167982112Y-112945833D01*
X167876345Y-113049479D01*
X167763859Y-113171523D01*
X167675180Y-113295083D01*
X167608781Y-113423485D01*
X167563134Y-113560055D01*
X167536711Y-113708119D01*
X167529413Y-113804700D01*
X167528497Y-113921355D01*
X167537001Y-114029370D01*
X167556229Y-114137615D01*
X167587481Y-114254957D01*
X167602668Y-114303427D01*
X167651182Y-114432602D01*
X167715744Y-114572837D01*
X167793187Y-114718585D01*
X167880343Y-114864296D01*
X167974044Y-115004421D01*
X168071123Y-115133410D01*
X168088981Y-115155345D01*
X168139793Y-115216940D01*
X168168128Y-115090597D01*
X168220013Y-114895850D01*
X168284769Y-114715128D01*
X168361188Y-114551136D01*
X168448062Y-114406574D01*
X168512079Y-114321250D01*
X168541700Y-114285351D01*
X168541948Y-114435550D01*
X168553655Y-114658715D01*
X168587765Y-114871229D01*
X168643889Y-115072336D01*
X168721639Y-115261281D01*
X168820630Y-115437309D01*
X168940472Y-115599663D01*
X169080778Y-115747589D01*
X169241162Y-115880330D01*
X169306643Y-115926201D01*
X169359657Y-115960462D01*
X169415821Y-115994772D01*
X169470299Y-116026403D01*
X169518255Y-116052630D01*
X169554854Y-116070728D01*
X169575261Y-116077969D01*
X169575923Y-116078000D01*
X169577788Y-116066166D01*
X169578127Y-116034036D01*
X169576983Y-115986664D01*
X169574718Y-115935125D01*
X169573296Y-115797705D01*
X169582004Y-115641177D01*
X169600506Y-115469573D01*
X169628468Y-115286930D01*
X169628540Y-115286515D01*
X169640262Y-115220419D01*
X169650944Y-115162176D01*
X169659618Y-115116916D01*
X169665318Y-115089769D01*
X169666430Y-115085503D01*
X169673611Y-115078213D01*
X169688901Y-115084907D01*
X169715539Y-115107588D01*
X169739126Y-115130511D01*
X169782911Y-115171368D01*
X169836542Y-115217533D01*
X169889121Y-115259658D01*
X169893981Y-115263348D01*
X169982612Y-115330231D01*
X169993291Y-115294540D01*
X169997663Y-115268037D01*
X170001582Y-115222604D01*
X170004607Y-115164713D01*
X170006260Y-115103615D01*
X170008550Y-114948380D01*
X169957750Y-114908158D01*
X169910583Y-114867123D01*
X169852979Y-114811372D01*
X169790012Y-114746306D01*
X169726749Y-114677327D01*
X169668263Y-114609837D01*
X169619624Y-114549238D01*
X169614660Y-114542646D01*
X169581848Y-114499678D01*
X169554397Y-114465554D01*
X169535923Y-114444668D01*
X169530411Y-114440268D01*
X169522121Y-114451578D01*
X169508799Y-114483706D01*
X169491599Y-114532835D01*
X169471673Y-114595149D01*
X169450175Y-114666829D01*
X169428256Y-114744059D01*
X169407070Y-114823021D01*
X169387770Y-114899898D01*
X169375051Y-114954679D01*
X169357155Y-115039607D01*
X169339385Y-115131623D01*
X169323519Y-115221030D01*
X169311333Y-115298128D01*
X169308848Y-115316000D01*
X169300315Y-115378119D01*
X169292457Y-115432053D01*
X169286111Y-115472261D01*
X169282116Y-115493202D01*
X169281947Y-115493800D01*
X169272867Y-115497965D01*
X169252305Y-115483928D01*
X169218679Y-115450560D01*
X169213276Y-115444755D01*
X169103401Y-115307382D01*
X169013400Y-115154978D01*
X168943407Y-114988500D01*
X168893558Y-114808903D01*
X168863988Y-114617144D01*
X168854832Y-114414179D01*
X168866225Y-114200963D01*
X168898303Y-113978453D01*
X168951200Y-113747604D01*
X168965865Y-113695027D01*
X168982083Y-113637144D01*
X168994790Y-113588780D01*
X169002779Y-113554763D01*
X169004843Y-113539917D01*
X169004728Y-113539714D01*
X168991293Y-113542849D01*
X168960271Y-113557950D01*
X168915235Y-113582931D01*
X168859758Y-113615707D01*
X168797412Y-113654192D01*
X168731770Y-113696300D01*
X168696240Y-113719793D01*
X168601342Y-113789363D01*
X168504125Y-113871559D01*
X168410319Y-113960816D01*
X168325653Y-114051571D01*
X168255857Y-114138262D01*
X168235979Y-114166650D01*
X168200453Y-114223124D01*
X168160384Y-114292031D01*
X168121844Y-114362731D01*
X168102313Y-114400912D01*
X168036578Y-114533575D01*
X167994266Y-114451712D01*
X167933758Y-114327896D01*
X167888244Y-114218017D01*
X167856190Y-114116729D01*
X167836060Y-114018684D01*
X167826317Y-113918536D01*
X167824835Y-113861850D01*
X167829917Y-113747921D01*
X167847871Y-113648281D01*
X167880976Y-113554133D01*
X167928518Y-113461800D01*
X167973585Y-113396309D01*
X168035304Y-113323523D01*
X168108298Y-113248786D01*
X168187188Y-113177444D01*
X168266595Y-113114840D01*
X168302994Y-113089675D01*
X168372913Y-113046746D01*
X168457761Y-112999156D01*
X168550268Y-112950607D01*
X168643163Y-112904799D01*
X168729177Y-112865434D01*
X168800223Y-112836515D01*
X168840050Y-112820895D01*
X168857680Y-112811111D01*
X168855236Y-112805674D01*
X168846500Y-112804041D01*
X168823095Y-112800728D01*
X168779928Y-112794091D01*
X168722297Y-112784964D01*
X168655499Y-112774180D01*
X168623518Y-112768953D01*
X168319220Y-112707965D01*
X168028443Y-112627297D01*
X167751903Y-112527378D01*
X167490317Y-112408641D01*
X167244403Y-112271514D01*
X167014876Y-112116430D01*
X166802453Y-111943818D01*
X166607852Y-111754109D01*
X166431788Y-111547735D01*
X166309816Y-111378510D01*
X166280937Y-111333709D01*
X166247854Y-111279894D01*
X166213110Y-111221510D01*
X166179243Y-111163002D01*
X166148796Y-111108815D01*
X166124309Y-111063393D01*
X166108321Y-111031183D01*
X166103300Y-111017200D01*
X166115064Y-111012968D01*
X166147029Y-111011655D01*
X166194206Y-111012916D01*
X166251608Y-111016410D01*
X166314246Y-111021792D01*
X166377131Y-111028719D01*
X166435275Y-111036847D01*
X166465749Y-111042147D01*
X166659121Y-111091848D01*
X166849805Y-111166013D01*
X167036440Y-111263741D01*
X167217666Y-111384130D01*
X167392124Y-111526280D01*
X167558453Y-111689289D01*
X167711751Y-111867764D01*
X167751751Y-111918378D01*
X167819891Y-111871448D01*
X167864376Y-111838388D01*
X167907326Y-111802565D01*
X167930698Y-111780497D01*
X167973365Y-111736475D01*
X167892719Y-111637112D01*
X167762646Y-111487493D01*
X167618463Y-111340510D01*
X167466312Y-111201850D01*
X167312337Y-111077197D01*
X167202634Y-110998528D01*
X167154318Y-110964509D01*
X167126032Y-110938944D01*
X167115988Y-110917282D01*
X167122399Y-110894970D01*
X167143477Y-110867459D01*
X167148807Y-110861475D01*
X167174528Y-110832900D01*
X170624427Y-110832900D01*
X170672875Y-110876669D01*
X170708537Y-110915161D01*
X170742845Y-110962021D01*
X170755009Y-110982331D01*
X170771399Y-111016565D01*
X170790996Y-111063658D01*
X170811925Y-111118258D01*
X170832314Y-111175014D01*
X170850290Y-111228577D01*
X170863979Y-111273593D01*
X170871508Y-111304713D01*
X170871828Y-111316021D01*
X170855819Y-111323646D01*
X170820195Y-111332088D01*
X170770686Y-111340522D01*
X170713026Y-111348126D01*
X170652945Y-111354076D01*
X170596176Y-111357549D01*
X170579560Y-111358004D01*
X170531862Y-111357929D01*
X170465727Y-111356600D01*
X170388078Y-111354217D01*
X170305834Y-111350980D01*
X170256200Y-111348663D01*
X170046202Y-111345242D01*
X169851920Y-111356501D01*
X169674943Y-111382252D01*
X169516858Y-111422305D01*
X169454086Y-111444260D01*
X169395646Y-111467713D01*
X169358632Y-111486967D01*
X169340397Y-111505925D01*
X169338292Y-111528484D01*
X169349668Y-111558547D01*
X169361340Y-111580847D01*
X169387897Y-111625494D01*
X169416802Y-111668053D01*
X169430117Y-111685248D01*
X169464466Y-111726392D01*
X169517690Y-111705096D01*
X169552099Y-111692198D01*
X169576494Y-111684631D01*
X169581492Y-111683800D01*
X169589850Y-111695039D01*
X169603258Y-111725106D01*
X169619394Y-111768521D01*
X169626931Y-111790970D01*
X169683417Y-111928477D01*
X169757337Y-112049024D01*
X169847476Y-112151462D01*
X169952620Y-112234644D01*
X170071554Y-112297421D01*
X170203063Y-112338645D01*
X170207114Y-112339520D01*
X170325364Y-112354680D01*
X170450924Y-112352935D01*
X170577124Y-112335402D01*
X170697291Y-112303198D01*
X170804756Y-112257438D01*
X170847852Y-112232296D01*
X170942052Y-112156659D01*
X171020134Y-112063366D01*
X171080554Y-111955564D01*
X171121770Y-111836400D01*
X171142240Y-111709020D01*
X171143878Y-111628570D01*
X171143638Y-111621167D01*
X170881658Y-111621167D01*
X170873111Y-111687408D01*
X170860717Y-111763114D01*
X170843945Y-111822451D01*
X170819772Y-111874410D01*
X170798953Y-111908048D01*
X170744232Y-111970893D01*
X170672845Y-112025035D01*
X170593405Y-112064223D01*
X170575349Y-112070326D01*
X170524047Y-112080632D01*
X170456382Y-112086739D01*
X170381053Y-112088584D01*
X170306760Y-112086103D01*
X170242199Y-112079233D01*
X170211750Y-112072977D01*
X170139571Y-112049045D01*
X170078413Y-112016600D01*
X170018247Y-111969891D01*
X169995240Y-111948799D01*
X169945229Y-111890530D01*
X169899133Y-111817227D01*
X169862752Y-111739189D01*
X169844917Y-111681949D01*
X169842109Y-111662061D01*
X169847289Y-111648622D01*
X169864652Y-111639621D01*
X169898395Y-111633052D01*
X169952712Y-111626906D01*
X169961786Y-111626006D01*
X170050969Y-111617218D01*
X170079186Y-111682811D01*
X170124073Y-111756791D01*
X170186405Y-111813839D01*
X170263437Y-111852435D01*
X170352426Y-111871059D01*
X170419824Y-111871437D01*
X170513029Y-111854275D01*
X170590651Y-111817112D01*
X170653136Y-111759657D01*
X170698249Y-111687337D01*
X170716907Y-111658035D01*
X170740674Y-111646753D01*
X170757112Y-111645700D01*
X170798068Y-111641969D01*
X170838888Y-111633433D01*
X170881658Y-111621167D01*
X171143638Y-111621167D01*
X171141035Y-111540907D01*
X171190743Y-111510052D01*
X171222117Y-111491886D01*
X171269498Y-111466029D01*
X171326149Y-111436100D01*
X171378452Y-111409201D01*
X171556017Y-111328573D01*
X171724307Y-111271478D01*
X171883249Y-111237899D01*
X172032768Y-111227815D01*
X172172789Y-111241208D01*
X172303240Y-111278059D01*
X172424045Y-111338350D01*
X172535130Y-111422062D01*
X172636421Y-111529175D01*
X172727845Y-111659671D01*
X172786645Y-111766350D01*
X172814012Y-111825848D01*
X172842807Y-111896589D01*
X172871282Y-111973314D01*
X172897687Y-112050762D01*
X172920276Y-112123675D01*
X172937299Y-112186793D01*
X172947009Y-112234858D01*
X172948600Y-112253556D01*
X173262023Y-112253556D01*
X173249431Y-112183541D01*
X173246857Y-112170579D01*
X173194228Y-111956538D01*
X173126770Y-111759799D01*
X173045018Y-111581176D01*
X172949510Y-111421482D01*
X172840782Y-111281531D01*
X172719372Y-111162135D01*
X172585817Y-111064108D01*
X172477573Y-111004898D01*
X172362152Y-110957134D01*
X172249639Y-110926164D01*
X172130775Y-110909956D01*
X172027850Y-110906255D01*
X171903182Y-110911392D01*
X171780602Y-110927965D01*
X171655644Y-110957167D01*
X171523842Y-111000189D01*
X171380727Y-111058222D01*
X171273369Y-111107486D01*
X171213692Y-111135684D01*
X171162863Y-111159183D01*
X171124916Y-111176159D01*
X171103886Y-111184789D01*
X171100987Y-111185435D01*
X171096464Y-111172713D01*
X171086083Y-111141331D01*
X171071666Y-111096839D01*
X171063255Y-111070596D01*
X171018398Y-110957077D01*
X170957848Y-110843180D01*
X170886879Y-110737805D01*
X170818806Y-110657971D01*
X170740062Y-110577120D01*
X170896319Y-110204250D01*
X170658307Y-110204250D01*
X170588868Y-110372525D01*
X170519430Y-110540800D01*
X167300571Y-110540800D01*
X167231133Y-110372525D01*
X167161694Y-110204250D01*
X168035847Y-110200988D01*
X168217212Y-110200429D01*
X168418000Y-110200019D01*
X168632238Y-110199759D01*
X168853949Y-110199647D01*
X169077158Y-110199684D01*
X169295890Y-110199870D01*
X169504168Y-110200205D01*
X169696019Y-110200689D01*
X169784154Y-110200988D01*
X170658307Y-110204250D01*
X170896319Y-110204250D01*
X171315811Y-109203235D01*
X171390580Y-109024817D01*
X171462867Y-108852316D01*
X171532037Y-108687250D01*
X171597454Y-108531137D01*
X171658481Y-108385496D01*
X171714483Y-108251845D01*
X171764824Y-108131701D01*
X171808866Y-108026583D01*
X171845975Y-107938009D01*
X171875514Y-107867497D01*
X171896847Y-107816565D01*
X171909338Y-107786731D01*
X171912165Y-107779971D01*
X171932770Y-107730593D01*
X171821560Y-107739591D01*
X171648239Y-107761263D01*
X171492119Y-107796304D01*
X171353922Y-107843852D01*
X171234369Y-107903043D01*
X171134184Y-107973016D01*
X171054086Y-108052906D01*
X170994799Y-108141852D01*
X170957043Y-108238990D01*
X170941541Y-108343457D01*
X170949014Y-108454392D01*
X170980183Y-108570931D01*
X171031398Y-108684192D01*
X171054549Y-108728438D01*
X171072075Y-108764452D01*
X171081086Y-108786209D01*
X171081700Y-108789175D01*
X171073241Y-108800980D01*
X171050792Y-108796890D01*
X171018751Y-108778535D01*
X170989514Y-108754991D01*
X170907102Y-108694571D01*
X170818075Y-108657642D01*
X170718402Y-108642662D01*
X170694350Y-108642160D01*
X170636393Y-108643707D01*
X170592228Y-108649997D01*
X170550352Y-108663475D01*
X170510200Y-108681349D01*
X170421183Y-108736208D01*
X170343446Y-108808827D01*
X170283138Y-108893193D01*
X170272074Y-108914249D01*
X170255639Y-108950713D01*
X170245344Y-108983841D01*
X170239790Y-109021583D01*
X170237581Y-109071889D01*
X170237278Y-109112245D01*
X170237860Y-109172790D01*
X170240827Y-109216241D01*
X170247797Y-109250892D01*
X170260385Y-109285038D01*
X170278425Y-109323352D01*
X170337799Y-109416010D01*
X170415799Y-109491965D01*
X170507976Y-109548030D01*
X170552279Y-109566313D01*
X170594064Y-109576678D01*
X170643853Y-109581136D01*
X170684809Y-109581817D01*
X170732797Y-109582938D01*
X170769226Y-109585809D01*
X170788175Y-109589886D01*
X170789584Y-109591438D01*
X170779167Y-109614601D01*
X170751053Y-109645595D01*
X170710039Y-109680452D01*
X170660923Y-109715208D01*
X170608504Y-109745895D01*
X170593882Y-109753221D01*
X170498944Y-109794646D01*
X170407274Y-109824844D01*
X170311474Y-109845486D01*
X170204150Y-109858241D01*
X170103357Y-109863950D01*
X169987214Y-109865470D01*
X169888672Y-109860109D01*
X169800639Y-109846923D01*
X169716022Y-109824971D01*
X169657018Y-109804630D01*
X169550404Y-109753214D01*
X169447034Y-109681915D01*
X169353282Y-109596059D01*
X169275521Y-109500971D01*
X169254312Y-109468235D01*
X169228982Y-109422852D01*
X169219697Y-109396536D01*
X169226464Y-109388659D01*
X169249289Y-109398593D01*
X169254974Y-109402141D01*
X169313211Y-109429380D01*
X169386922Y-109448870D01*
X169466859Y-109458677D01*
X169524942Y-109458540D01*
X169631546Y-109439649D01*
X169727685Y-109398782D01*
X169810748Y-109338094D01*
X169878124Y-109259739D01*
X169927200Y-109165872D01*
X169944418Y-109112431D01*
X169960682Y-109028145D01*
X169961172Y-108952316D01*
X169945631Y-108873292D01*
X169938642Y-108849862D01*
X169894088Y-108748946D01*
X169829684Y-108663034D01*
X169747313Y-108593982D01*
X169648858Y-108543644D01*
X169616699Y-108532542D01*
X169523215Y-108513128D01*
X169434823Y-108516163D01*
X169344945Y-108542090D01*
X169320779Y-108552519D01*
X169282826Y-108569036D01*
X169255343Y-108579384D01*
X169245039Y-108581372D01*
X169249617Y-108569825D01*
X169265559Y-108543918D01*
X169284551Y-108516188D01*
X169334925Y-108427673D01*
X169363644Y-108332236D01*
X169372379Y-108229400D01*
X169362299Y-108129643D01*
X169330946Y-108040700D01*
X169276807Y-107959228D01*
X169226023Y-107906220D01*
X169148123Y-107845052D01*
X169067349Y-107805489D01*
X168977110Y-107784963D01*
X168903345Y-107780535D01*
X168845796Y-107781607D01*
X168802072Y-107787372D01*
X168760704Y-107800216D01*
X168717181Y-107819249D01*
X168624426Y-107875399D01*
X168550308Y-107946559D01*
X168495512Y-108029768D01*
X168460722Y-108122068D01*
X168446624Y-108220499D01*
X168453901Y-108322102D01*
X168483239Y-108423918D01*
X168535321Y-108522987D01*
X168549585Y-108543684D01*
X168570144Y-108572218D01*
X168508297Y-108544137D01*
X168433001Y-108521429D01*
X168346661Y-108513717D01*
X168258594Y-108520807D01*
X168178112Y-108542505D01*
X168157678Y-108551426D01*
X168070823Y-108606782D01*
X167995115Y-108681492D01*
X167935764Y-108770212D01*
X167926790Y-108788163D01*
X167907866Y-108830732D01*
X167896229Y-108866749D01*
X167890158Y-108905175D01*
X167887930Y-108954967D01*
X167887719Y-108991400D01*
X167888717Y-109052564D01*
X167892722Y-109097327D01*
X167901372Y-109134651D01*
X167916305Y-109173498D01*
X167924221Y-109191074D01*
X167968014Y-109263974D01*
X168027749Y-109332884D01*
X168096191Y-109390520D01*
X168157516Y-109425969D01*
X168243075Y-109451512D01*
X168338479Y-109459346D01*
X168436007Y-109450111D01*
X168527941Y-109424446D01*
X168596841Y-109389592D01*
X168626781Y-109371721D01*
X168646786Y-109362841D01*
X168650690Y-109362856D01*
X168650022Y-109378717D01*
X168636438Y-109409389D01*
X168613020Y-109449950D01*
X168582846Y-109495481D01*
X168548998Y-109541061D01*
X168514556Y-109581769D01*
X168511791Y-109584749D01*
X168393263Y-109693294D01*
X168259014Y-109783631D01*
X168113249Y-109853229D01*
X168008300Y-109887798D01*
X167929394Y-109902453D01*
X167835161Y-109909498D01*
X167734479Y-109909028D01*
X167636223Y-109901139D01*
X167549269Y-109885927D01*
X167536578Y-109882707D01*
X167418538Y-109842144D01*
X167300139Y-109785119D01*
X167220900Y-109736621D01*
X167180863Y-109708034D01*
X167138520Y-109675566D01*
X167098801Y-109643299D01*
X167066636Y-109615313D01*
X167046957Y-109595692D01*
X167043188Y-109589486D01*
X167054913Y-109585836D01*
X167085923Y-109582921D01*
X167130105Y-109581262D01*
X167141719Y-109581110D01*
X167204780Y-109578170D01*
X167254634Y-109569033D01*
X167303183Y-109551338D01*
X167312131Y-109547323D01*
X167402874Y-109492470D01*
X167481202Y-109418563D01*
X167541367Y-109331058D01*
X167542761Y-109328415D01*
X167560951Y-109291881D01*
X167572616Y-109261141D01*
X167579195Y-109228660D01*
X167582125Y-109186904D01*
X167582844Y-109128340D01*
X167582850Y-109118400D01*
X167582198Y-109055719D01*
X167579364Y-109010841D01*
X167573033Y-108976184D01*
X167561888Y-108944166D01*
X167547057Y-108912159D01*
X167490575Y-108824412D01*
X167414875Y-108748277D01*
X167325322Y-108688975D01*
X167309837Y-108681289D01*
X167212495Y-108648574D01*
X167112476Y-108639849D01*
X167013548Y-108654536D01*
X166919476Y-108692055D01*
X166834027Y-108751826D01*
X166830487Y-108754991D01*
X166791189Y-108784322D01*
X166757283Y-108799188D01*
X166732410Y-108800425D01*
X166720212Y-108788870D01*
X166724332Y-108765359D01*
X166744513Y-108735247D01*
X166805355Y-108645241D01*
X166847860Y-108544375D01*
X166871314Y-108437620D01*
X166875001Y-108329947D01*
X166858207Y-108226328D01*
X166828908Y-108148392D01*
X166770602Y-108058003D01*
X166690134Y-107976785D01*
X166589367Y-107905662D01*
X166470163Y-107845557D01*
X166334382Y-107797393D01*
X166183888Y-107762094D01*
X166020542Y-107740582D01*
X166003757Y-107739239D01*
X165887336Y-107730450D01*
X165923731Y-107818000D01*
G37*
X165923731Y-107818000D02*
X165933436Y-107841282D01*
X165952261Y-107886383D01*
X165979532Y-107951685D01*
X166014571Y-108035572D01*
X166056705Y-108136426D01*
X166105257Y-108252632D01*
X166159551Y-108382571D01*
X166218913Y-108524628D01*
X166282666Y-108677185D01*
X166350135Y-108838625D01*
X166420644Y-109007333D01*
X166493519Y-109181690D01*
X166508787Y-109218219D01*
X166581218Y-109391764D01*
X166650748Y-109558849D01*
X166716761Y-109717971D01*
X166778644Y-109867628D01*
X166835781Y-110006317D01*
X166887559Y-110132537D01*
X166933363Y-110244784D01*
X166972579Y-110341557D01*
X167004593Y-110421352D01*
X167028790Y-110482668D01*
X167044555Y-110524002D01*
X167051276Y-110543851D01*
X167051448Y-110545369D01*
X167041513Y-110560453D01*
X167018897Y-110590823D01*
X166986958Y-110632070D01*
X166949056Y-110679783D01*
X166949024Y-110679823D01*
X166911797Y-110726834D01*
X166881248Y-110766729D01*
X166860482Y-110795359D01*
X166852605Y-110808573D01*
X166852600Y-110808669D01*
X166841390Y-110808625D01*
X166811020Y-110801671D01*
X166766385Y-110789060D01*
X166722397Y-110775320D01*
X166569784Y-110734469D01*
X166410205Y-110707584D01*
X166248609Y-110694704D01*
X166089947Y-110695866D01*
X165939171Y-110711106D01*
X165801230Y-110740463D01*
X165719125Y-110767784D01*
X165694194Y-110781306D01*
X165684200Y-110793915D01*
X165689920Y-110815944D01*
X165706070Y-110857248D01*
X165731136Y-110914688D01*
X165763605Y-110985122D01*
X165801963Y-111065410D01*
X165844695Y-111152412D01*
X165890289Y-111242987D01*
X165937229Y-111333995D01*
X165984003Y-111422294D01*
X166011514Y-111472953D01*
X166050191Y-111546204D01*
X166074399Y-111598674D01*
X166084169Y-111630436D01*
X166083001Y-111639746D01*
X166070390Y-111655056D01*
X166044684Y-111684922D01*
X166009698Y-111724950D01*
X165971645Y-111768043D01*
X165863692Y-111901185D01*
X165759710Y-112051344D01*
X165665188Y-112210180D01*
X165609161Y-112318800D01*
X165524767Y-112513696D01*
X165458147Y-112712911D01*
X165408561Y-112919991D01*
X165375273Y-113138483D01*
X165357546Y-113371934D01*
X165354000Y-113546101D01*
X165354788Y-113623232D01*
X165356975Y-113704451D01*
X165360300Y-113785568D01*
X165364503Y-113862392D01*
X165369320Y-113930734D01*
X165374491Y-113986404D01*
X165379755Y-114025211D01*
X165384849Y-114042964D01*
X165385028Y-114043161D01*
X165396869Y-114039112D01*
X165422299Y-114024194D01*
X165438237Y-114013655D01*
X165491061Y-113981147D01*
X165561311Y-113943182D01*
X165642538Y-113902975D01*
X165728296Y-113863743D01*
X165796784Y-113834835D01*
X165853886Y-113812938D01*
X165914050Y-113791824D01*
X165972248Y-113773016D01*
X166023455Y-113758040D01*
X166062642Y-113748423D01*
X166084783Y-113745690D01*
X166087532Y-113746598D01*
X166083848Y-113759033D01*
X166069763Y-113788156D01*
X166047854Y-113828820D01*
X166034630Y-113852120D01*
X165948888Y-114012846D01*
X165871379Y-114181978D01*
X165805454Y-114351489D01*
X165754466Y-114513353D01*
X165747601Y-114539237D01*
X165710825Y-114719341D01*
X165688158Y-114915147D01*
X165679456Y-115121333D01*
X165684576Y-115332574D01*
X165703374Y-115543549D01*
X165735707Y-115748934D01*
X165781432Y-115943407D01*
X165785831Y-115958915D01*
X165811476Y-116038876D01*
X165845846Y-116132974D01*
X165885632Y-116232977D01*
X165927529Y-116330654D01*
X165968229Y-116417771D01*
X165978023Y-116437316D01*
X166009053Y-116498183D01*
X166093591Y-116373816D01*
X166183285Y-116251306D01*
X166281848Y-116133262D01*
X166382951Y-116026938D01*
X166451636Y-115963548D01*
X166491079Y-115930147D01*
X166523219Y-115904215D01*
X166543350Y-115889491D01*
X166547428Y-115887500D01*
X166548174Y-115899100D01*
X166544337Y-115930624D01*
X166536636Y-115977153D01*
X166526648Y-116029523D01*
X166482949Y-116294370D01*
X166460836Y-116547148D01*
X166460268Y-116787614D01*
X166481207Y-117015531D01*
X166523614Y-117230657D01*
X166587448Y-117432752D01*
X166672671Y-117621576D01*
X166779242Y-117796890D01*
X166827713Y-117863014D01*
X166885646Y-117931492D01*
X166958147Y-118007187D01*
X167038398Y-118083608D01*
X167119584Y-118154263D01*
X167194888Y-118212663D01*
X167194931Y-118212694D01*
X167301590Y-118288937D01*
X167341796Y-118189943D01*
X167400955Y-118056174D01*
X167474221Y-117909911D01*
X167558230Y-117757099D01*
X167649623Y-117603687D01*
X167745036Y-117455620D01*
X167809765Y-117362050D01*
X167913050Y-117217351D01*
X167921203Y-117660500D01*
X167925598Y-117842356D01*
X167931905Y-118002298D01*
X167940508Y-118143766D01*
X167951793Y-118270200D01*
X167966145Y-118385041D01*
X167983948Y-118491730D01*
X168005589Y-118593706D01*
X168031451Y-118694409D01*
X168040520Y-118726371D01*
X168069399Y-118821514D01*
X168097443Y-118901162D01*
X168127571Y-118970091D01*
X168162703Y-119033079D01*
X168205760Y-119094902D01*
X168259662Y-119160338D01*
X168327329Y-119234163D01*
X168391610Y-119300712D01*
X168558123Y-119457730D01*
X168737405Y-119601128D01*
X168931168Y-119731819D01*
X169141129Y-119850714D01*
X169369001Y-119958727D01*
X169616500Y-120056769D01*
X169885340Y-120145752D01*
X170088988Y-120203632D01*
X170150456Y-120219662D01*
X170191167Y-120229050D01*
X170214754Y-120232250D01*
X170224850Y-120229717D01*
X170225087Y-120221904D01*
X170224614Y-120220604D01*
X170209214Y-120175158D01*
X170190549Y-120111297D01*
X170170317Y-120035517D01*
X170150212Y-119954314D01*
X170131931Y-119874185D01*
X170122850Y-119830850D01*
X170082526Y-119603377D01*
X170048613Y-119355395D01*
X170021386Y-119091040D01*
X170001121Y-118814451D01*
X169988093Y-118529765D01*
X169982578Y-118241121D01*
X169984849Y-117952654D01*
X169988782Y-117815605D01*
X169992172Y-117719983D01*
X169995247Y-117631934D01*
X169997893Y-117554849D01*
X169999994Y-117492119D01*
X170001437Y-117447137D01*
X170002105Y-117423294D01*
X170002138Y-117421025D01*
X170005304Y-117402344D01*
X170015277Y-117402824D01*
X170033004Y-117423511D01*
X170059433Y-117465456D01*
X170088166Y-117516275D01*
X170170270Y-117680497D01*
X170247811Y-117864600D01*
X170319051Y-118063219D01*
X170382254Y-118270992D01*
X170435682Y-118482557D01*
X170477597Y-118692550D01*
X170486203Y-118745000D01*
X170496407Y-118809170D01*
X170505586Y-118865007D01*
X170512870Y-118907342D01*
X170517388Y-118931012D01*
X170517976Y-118933385D01*
X170527391Y-118937996D01*
X170549339Y-118927568D01*
X170584771Y-118901340D01*
X170634637Y-118858551D01*
X170699887Y-118798440D01*
X170768826Y-118732510D01*
X170931961Y-118562463D01*
X171071058Y-118390749D01*
X171187468Y-118215043D01*
X171282545Y-118033023D01*
X171357641Y-117842368D01*
X171414109Y-117640755D01*
X171419918Y-117614700D01*
X171431576Y-117541107D01*
X171439580Y-117449194D01*
X171443927Y-117345777D01*
X171444617Y-117237672D01*
X171441649Y-117131696D01*
X171435021Y-117034663D01*
X171424731Y-116953390D01*
X171420044Y-116928900D01*
X171366763Y-116727909D01*
X171294206Y-116524631D01*
X171205868Y-116328032D01*
X171133608Y-116194196D01*
X171109691Y-116151427D01*
X171092719Y-116117518D01*
X171085324Y-116097886D01*
X171085547Y-116095320D01*
X171100562Y-116096462D01*
X171132407Y-116108109D01*
X171176067Y-116127809D01*
X171226525Y-116153110D01*
X171278765Y-116181562D01*
X171327770Y-116210713D01*
X171346823Y-116223001D01*
X171443882Y-116298048D01*
X171542725Y-116394200D01*
X171640163Y-116507655D01*
X171733010Y-116634609D01*
X171818080Y-116771259D01*
X171841502Y-116813380D01*
X171892358Y-116907411D01*
X171902910Y-116845130D01*
X171907193Y-116804449D01*
X171910307Y-116743211D01*
X171912291Y-116666231D01*
X171913184Y-116578321D01*
X171913023Y-116484298D01*
X171911846Y-116388974D01*
X171909693Y-116297165D01*
X171906600Y-116213684D01*
X171902607Y-116143345D01*
X171897752Y-116090964D01*
X171896866Y-116084350D01*
X171857576Y-115857578D01*
X171806563Y-115644236D01*
X171744626Y-115446755D01*
X171672561Y-115267563D01*
X171591168Y-115109093D01*
X171559801Y-115057685D01*
X171534059Y-115013544D01*
X171525123Y-114987735D01*
X171529297Y-114980101D01*
X171548973Y-114976766D01*
X171586550Y-114972447D01*
X171634597Y-114967979D01*
X171644390Y-114967175D01*
X171764665Y-114950399D01*
X171891192Y-114920338D01*
X172012754Y-114880057D01*
X172097034Y-114843453D01*
X172155555Y-114812075D01*
X172206265Y-114778269D01*
X172257069Y-114736138D01*
X172314222Y-114681432D01*
X172394403Y-114592659D01*
X172459480Y-114500014D01*
X172510723Y-114399999D01*
X172549399Y-114289118D01*
X172576779Y-114163872D01*
X172594131Y-114020765D01*
X172601713Y-113889179D01*
X172609285Y-113675209D01*
X172490018Y-113757505D01*
X172321995Y-113861756D01*
X172156566Y-113940827D01*
X172050480Y-113978717D01*
X172008450Y-113991189D01*
X171971843Y-114000223D01*
X171935255Y-114006361D01*
X171893283Y-114010145D01*
X171840527Y-114012118D01*
X171771582Y-114012820D01*
X171710350Y-114012846D01*
X171626608Y-114012477D01*
X171562801Y-114011257D01*
X171513468Y-114008624D01*
X171473147Y-114004016D01*
X171436375Y-113996874D01*
X171397689Y-113986635D01*
X171367520Y-113977623D01*
X171183611Y-113908176D01*
X171006974Y-113814620D01*
X170838119Y-113697327D01*
X170677555Y-113556671D01*
X170525791Y-113393024D01*
X170461910Y-113313801D01*
X170421109Y-113261053D01*
X170545030Y-113198134D01*
X170636103Y-113154112D01*
X170736392Y-113109394D01*
X170839356Y-113066619D01*
X170938454Y-113028423D01*
X171027145Y-112997445D01*
X171088050Y-112979137D01*
X171240042Y-112925703D01*
X171381858Y-112850359D01*
X171510256Y-112755157D01*
X171621993Y-112642145D01*
X171622921Y-112641044D01*
X171674882Y-112581021D01*
X171717196Y-112537064D01*
X171755118Y-112504669D01*
X171793902Y-112479331D01*
X171837350Y-112457219D01*
X171942627Y-112420588D01*
X172063064Y-112401674D01*
X172199003Y-112400541D01*
X172350784Y-112417251D01*
X172518750Y-112451868D01*
X172703241Y-112504455D01*
X172904598Y-112575074D01*
X173123162Y-112663789D01*
X173243875Y-112717159D01*
X173316900Y-112750279D01*
X173316778Y-112709164D01*
X173314545Y-112661783D01*
X173308571Y-112595315D01*
X173299622Y-112515671D01*
X173288466Y-112428762D01*
X173275871Y-112340497D01*
X173262603Y-112256786D01*
X173262023Y-112253556D01*
X172948600Y-112253556D01*
X172937763Y-112256864D01*
X172908849Y-112251392D01*
X172875575Y-112241051D01*
X172837265Y-112228749D01*
X172780764Y-112212033D01*
X172712500Y-112192741D01*
X172638902Y-112172709D01*
X172605700Y-112163928D01*
X172528143Y-112144069D01*
X172466251Y-112129839D01*
X172412124Y-112120118D01*
X172357861Y-112113784D01*
X172295560Y-112109715D01*
X172217322Y-112106792D01*
X172199300Y-112106252D01*
X172116380Y-112104258D01*
X172052684Y-112104074D01*
X172002079Y-112106097D01*
X171958430Y-112110722D01*
X171915602Y-112118344D01*
X171877194Y-112127011D01*
X171808711Y-112147035D01*
X171733560Y-112174654D01*
X171666789Y-112204286D01*
X171661294Y-112207073D01*
X171617717Y-112230979D01*
X171578238Y-112256682D01*
X171538164Y-112287997D01*
X171492800Y-112328737D01*
X171437450Y-112382717D01*
X171405550Y-112414862D01*
X171346562Y-112474010D01*
X171300232Y-112518223D01*
X171261924Y-112551168D01*
X171227003Y-112576511D01*
X171190831Y-112597920D01*
X171148771Y-112619060D01*
X171145200Y-112620761D01*
X171080336Y-112648828D01*
X171004743Y-112677453D01*
X170932427Y-112701412D01*
X170916600Y-112706032D01*
X170755518Y-112756070D01*
X170608884Y-112810995D01*
X170478097Y-112869890D01*
X170364558Y-112931833D01*
X170269667Y-112995908D01*
X170194823Y-113061194D01*
X170141427Y-113126772D01*
X170110877Y-113191724D01*
X170103800Y-113239674D01*
X170105990Y-113269212D01*
X170114015Y-113298725D01*
X170130060Y-113332071D01*
X170156310Y-113373111D01*
X170194950Y-113425704D01*
X170246193Y-113491231D01*
X170319856Y-113579006D01*
X170404485Y-113671631D01*
X170495196Y-113764324D01*
X170587107Y-113852301D01*
X170675335Y-113930780D01*
X170754997Y-113994980D01*
X170777026Y-114011119D01*
X170863322Y-114067972D01*
X170960657Y-114124527D01*
X171061788Y-114177072D01*
X171159477Y-114221899D01*
X171246481Y-114255297D01*
X171265265Y-114261289D01*
X171444033Y-114302931D01*
X171630627Y-114322871D01*
X171819611Y-114321074D01*
X172005550Y-114297502D01*
X172133991Y-114267170D01*
X172172624Y-114257788D01*
X172200697Y-114254073D01*
X172209921Y-114255587D01*
X172208387Y-114269864D01*
X172196976Y-114300110D01*
X172178091Y-114340057D01*
X172175961Y-114344195D01*
X172112162Y-114440372D01*
X172029308Y-114520497D01*
X171928327Y-114584198D01*
X171810150Y-114631100D01*
X171675704Y-114660830D01*
X171525918Y-114673015D01*
X171370384Y-114668010D01*
X171321945Y-114662885D01*
X171256529Y-114654290D01*
X171178977Y-114643028D01*
X171094128Y-114629897D01*
X171006823Y-114615698D01*
X170921902Y-114601230D01*
X170844204Y-114587295D01*
X170778570Y-114574692D01*
X170729840Y-114564222D01*
X170708258Y-114558552D01*
X170708429Y-114563430D01*
X170725356Y-114581946D01*
X170756320Y-114611434D01*
X170798601Y-114649229D01*
X170817051Y-114665198D01*
X170986890Y-114823462D01*
X171133111Y-114986801D01*
X171257308Y-115157209D01*
X171361074Y-115336679D01*
X171372983Y-115360450D01*
X171457259Y-115555124D01*
X171519036Y-115750527D01*
X171557259Y-115943295D01*
X171558201Y-115950288D01*
X171567362Y-116019426D01*
X171530906Y-115995154D01*
X171351354Y-115886719D01*
X171169810Y-115800097D01*
X170982159Y-115733918D01*
X170784285Y-115686813D01*
X170572071Y-115657413D01*
X170497545Y-115651319D01*
X170365067Y-115642194D01*
X170413197Y-115698172D01*
X170548162Y-115860324D01*
X170664753Y-116011945D01*
X170765590Y-116156799D01*
X170853296Y-116298650D01*
X170929828Y-116439950D01*
X171004936Y-116600726D01*
X171061918Y-116751877D01*
X171102487Y-116899634D01*
X171128357Y-117050231D01*
X171141177Y-117208300D01*
X171139559Y-117407798D01*
X171116621Y-117594675D01*
X171071625Y-117771191D01*
X171003834Y-117939608D01*
X170912512Y-118102186D01*
X170798507Y-118259225D01*
X170767682Y-118296200D01*
X170742711Y-118323993D01*
X170727917Y-118337859D01*
X170726205Y-118338600D01*
X170719754Y-118327162D01*
X170709873Y-118296789D01*
X170698417Y-118253389D01*
X170695288Y-118240175D01*
X170674552Y-118160275D01*
X170646134Y-118064517D01*
X170612414Y-117959853D01*
X170575767Y-117853238D01*
X170538571Y-117751625D01*
X170503204Y-117661969D01*
X170477119Y-117602000D01*
X170353004Y-117356371D01*
X170218254Y-117132672D01*
X170071796Y-116929299D01*
X169912563Y-116744651D01*
X169884839Y-116715720D01*
X169846560Y-116678111D01*
X169814545Y-116649900D01*
X169792866Y-116634488D01*
X169785989Y-116633170D01*
X169781292Y-116648838D01*
X169774598Y-116684803D01*
X169766712Y-116736117D01*
X169758444Y-116797832D01*
X169756376Y-116814600D01*
X169712909Y-117247941D01*
X169685485Y-117694297D01*
X169674233Y-118146880D01*
X169679286Y-118598906D01*
X169700775Y-119043589D01*
X169710626Y-119176800D01*
X169716831Y-119246982D01*
X169724833Y-119326786D01*
X169734063Y-119411549D01*
X169743955Y-119496609D01*
X169753940Y-119577305D01*
X169763451Y-119648974D01*
X169771920Y-119706953D01*
X169778781Y-119746581D01*
X169781366Y-119757825D01*
X169784427Y-119774105D01*
X169780288Y-119782759D01*
X169765504Y-119783355D01*
X169736634Y-119775460D01*
X169690232Y-119758642D01*
X169643341Y-119740494D01*
X169448082Y-119657500D01*
X169259313Y-119564339D01*
X169082821Y-119464134D01*
X168924397Y-119360008D01*
X168885936Y-119331974D01*
X168829475Y-119286901D01*
X168763391Y-119229466D01*
X168692387Y-119164219D01*
X168621169Y-119095708D01*
X168554440Y-119028483D01*
X168496904Y-118967093D01*
X168453267Y-118916089D01*
X168445478Y-118906022D01*
X168404002Y-118839326D01*
X168366813Y-118754532D01*
X168333512Y-118650192D01*
X168303698Y-118524860D01*
X168276973Y-118377088D01*
X168253552Y-118210374D01*
X168247838Y-118160667D01*
X168243127Y-118109661D01*
X168239331Y-118054384D01*
X168236360Y-117991862D01*
X168234125Y-117919125D01*
X168232538Y-117833200D01*
X168231508Y-117731115D01*
X168230948Y-117609898D01*
X168230768Y-117466577D01*
X168230768Y-117449600D01*
X168231212Y-117283208D01*
X168232492Y-117132636D01*
X168234569Y-116999683D01*
X168237406Y-116886152D01*
X168240962Y-116793843D01*
X168245200Y-116724559D01*
X168246668Y-116707820D01*
X168252187Y-116646170D01*
X168255995Y-116594221D01*
X168257796Y-116556880D01*
X168257292Y-116539057D01*
X168256955Y-116538321D01*
X168243415Y-116541751D01*
X168213606Y-116559184D01*
X168170775Y-116588366D01*
X168118168Y-116627045D01*
X168059032Y-116672966D01*
X168034189Y-116692928D01*
X167897739Y-116813709D01*
X167760293Y-116954218D01*
X167625977Y-117109303D01*
X167498916Y-117273815D01*
X167383237Y-117442603D01*
X167283065Y-117610517D01*
X167251438Y-117670065D01*
X167226191Y-117718974D01*
X167205274Y-117758843D01*
X167191347Y-117784640D01*
X167187180Y-117791631D01*
X167175318Y-117787747D01*
X167151878Y-117767873D01*
X167120792Y-117736137D01*
X167085987Y-117696667D01*
X167051394Y-117653590D01*
X167036060Y-117632901D01*
X166944663Y-117487794D01*
X166872227Y-117332428D01*
X166818207Y-117164847D01*
X166782058Y-116983099D01*
X166763234Y-116785228D01*
X166760041Y-116643150D01*
X166768546Y-116424723D01*
X166793123Y-116208629D01*
X166834610Y-115990958D01*
X166893845Y-115767803D01*
X166971664Y-115535256D01*
X167029785Y-115384218D01*
X167049921Y-115332729D01*
X167065266Y-115290672D01*
X167074039Y-115263114D01*
X167075197Y-115254963D01*
X167061633Y-115257342D01*
X167029426Y-115268913D01*
X166982810Y-115287828D01*
X166926019Y-115312241D01*
X166863286Y-115340303D01*
X166798846Y-115370169D01*
X166736931Y-115399990D01*
X166697818Y-115419615D01*
X166591217Y-115478695D01*
X166481030Y-115547768D01*
X166372913Y-115622758D01*
X166272523Y-115699587D01*
X166185515Y-115774178D01*
X166129662Y-115829161D01*
X166106765Y-115851100D01*
X166090831Y-115861873D01*
X166089524Y-115862100D01*
X166082449Y-115850326D01*
X166072048Y-115817956D01*
X166059354Y-115769418D01*
X166045402Y-115709139D01*
X166031224Y-115641545D01*
X166017855Y-115571064D01*
X166008052Y-115513156D01*
X165982945Y-115274981D01*
X165982723Y-115037229D01*
X166006897Y-114801389D01*
X166054975Y-114568950D01*
X166126465Y-114341403D01*
X166220876Y-114120236D01*
X166337717Y-113906940D01*
X166476497Y-113703004D01*
X166636723Y-113509917D01*
X166686147Y-113457185D01*
X166770050Y-113370021D01*
X166611300Y-113378307D01*
X166491514Y-113385539D01*
X166384960Y-113394510D01*
X166286676Y-113406187D01*
X166191697Y-113421536D01*
X166095059Y-113441523D01*
X165991798Y-113467115D01*
X165876950Y-113499278D01*
X165745550Y-113538978D01*
X165678961Y-113559791D01*
X165669657Y-113561625D01*
X165663341Y-113557842D01*
X165659698Y-113544816D01*
X165658413Y-113518922D01*
X165659173Y-113476532D01*
X165661663Y-113414022D01*
X165663252Y-113378607D01*
X165675448Y-113201020D01*
X165695061Y-113035274D01*
X165721405Y-112886600D01*
X165735815Y-112824513D01*
X165793090Y-112634847D01*
X165866673Y-112451159D01*
X165954302Y-112277801D01*
X166053715Y-112119123D01*
X166162649Y-111979477D01*
X166192077Y-111947010D01*
X166275589Y-111857857D01*
X166472020Y-112054184D01*
X166626751Y-112201117D01*
X166782168Y-112332301D01*
X166942468Y-112450429D01*
X167111846Y-112558192D01*
X167294498Y-112658281D01*
X167494620Y-112753389D01*
X167690800Y-112836017D01*
X167756606Y-112862098D01*
X167820441Y-112886941D01*
X167875267Y-112907836D01*
X167914047Y-112922071D01*
X167915831Y-112922697D01*
X167982112Y-112945833D01*
X167876345Y-113049479D01*
X167763859Y-113171523D01*
X167675180Y-113295083D01*
X167608781Y-113423485D01*
X167563134Y-113560055D01*
X167536711Y-113708119D01*
X167529413Y-113804700D01*
X167528497Y-113921355D01*
X167537001Y-114029370D01*
X167556229Y-114137615D01*
X167587481Y-114254957D01*
X167602668Y-114303427D01*
X167651182Y-114432602D01*
X167715744Y-114572837D01*
X167793187Y-114718585D01*
X167880343Y-114864296D01*
X167974044Y-115004421D01*
X168071123Y-115133410D01*
X168088981Y-115155345D01*
X168139793Y-115216940D01*
X168168128Y-115090597D01*
X168220013Y-114895850D01*
X168284769Y-114715128D01*
X168361188Y-114551136D01*
X168448062Y-114406574D01*
X168512079Y-114321250D01*
X168541700Y-114285351D01*
X168541948Y-114435550D01*
X168553655Y-114658715D01*
X168587765Y-114871229D01*
X168643889Y-115072336D01*
X168721639Y-115261281D01*
X168820630Y-115437309D01*
X168940472Y-115599663D01*
X169080778Y-115747589D01*
X169241162Y-115880330D01*
X169306643Y-115926201D01*
X169359657Y-115960462D01*
X169415821Y-115994772D01*
X169470299Y-116026403D01*
X169518255Y-116052630D01*
X169554854Y-116070728D01*
X169575261Y-116077969D01*
X169575923Y-116078000D01*
X169577788Y-116066166D01*
X169578127Y-116034036D01*
X169576983Y-115986664D01*
X169574718Y-115935125D01*
X169573296Y-115797705D01*
X169582004Y-115641177D01*
X169600506Y-115469573D01*
X169628468Y-115286930D01*
X169628540Y-115286515D01*
X169640262Y-115220419D01*
X169650944Y-115162176D01*
X169659618Y-115116916D01*
X169665318Y-115089769D01*
X169666430Y-115085503D01*
X169673611Y-115078213D01*
X169688901Y-115084907D01*
X169715539Y-115107588D01*
X169739126Y-115130511D01*
X169782911Y-115171368D01*
X169836542Y-115217533D01*
X169889121Y-115259658D01*
X169893981Y-115263348D01*
X169982612Y-115330231D01*
X169993291Y-115294540D01*
X169997663Y-115268037D01*
X170001582Y-115222604D01*
X170004607Y-115164713D01*
X170006260Y-115103615D01*
X170008550Y-114948380D01*
X169957750Y-114908158D01*
X169910583Y-114867123D01*
X169852979Y-114811372D01*
X169790012Y-114746306D01*
X169726749Y-114677327D01*
X169668263Y-114609837D01*
X169619624Y-114549238D01*
X169614660Y-114542646D01*
X169581848Y-114499678D01*
X169554397Y-114465554D01*
X169535923Y-114444668D01*
X169530411Y-114440268D01*
X169522121Y-114451578D01*
X169508799Y-114483706D01*
X169491599Y-114532835D01*
X169471673Y-114595149D01*
X169450175Y-114666829D01*
X169428256Y-114744059D01*
X169407070Y-114823021D01*
X169387770Y-114899898D01*
X169375051Y-114954679D01*
X169357155Y-115039607D01*
X169339385Y-115131623D01*
X169323519Y-115221030D01*
X169311333Y-115298128D01*
X169308848Y-115316000D01*
X169300315Y-115378119D01*
X169292457Y-115432053D01*
X169286111Y-115472261D01*
X169282116Y-115493202D01*
X169281947Y-115493800D01*
X169272867Y-115497965D01*
X169252305Y-115483928D01*
X169218679Y-115450560D01*
X169213276Y-115444755D01*
X169103401Y-115307382D01*
X169013400Y-115154978D01*
X168943407Y-114988500D01*
X168893558Y-114808903D01*
X168863988Y-114617144D01*
X168854832Y-114414179D01*
X168866225Y-114200963D01*
X168898303Y-113978453D01*
X168951200Y-113747604D01*
X168965865Y-113695027D01*
X168982083Y-113637144D01*
X168994790Y-113588780D01*
X169002779Y-113554763D01*
X169004843Y-113539917D01*
X169004728Y-113539714D01*
X168991293Y-113542849D01*
X168960271Y-113557950D01*
X168915235Y-113582931D01*
X168859758Y-113615707D01*
X168797412Y-113654192D01*
X168731770Y-113696300D01*
X168696240Y-113719793D01*
X168601342Y-113789363D01*
X168504125Y-113871559D01*
X168410319Y-113960816D01*
X168325653Y-114051571D01*
X168255857Y-114138262D01*
X168235979Y-114166650D01*
X168200453Y-114223124D01*
X168160384Y-114292031D01*
X168121844Y-114362731D01*
X168102313Y-114400912D01*
X168036578Y-114533575D01*
X167994266Y-114451712D01*
X167933758Y-114327896D01*
X167888244Y-114218017D01*
X167856190Y-114116729D01*
X167836060Y-114018684D01*
X167826317Y-113918536D01*
X167824835Y-113861850D01*
X167829917Y-113747921D01*
X167847871Y-113648281D01*
X167880976Y-113554133D01*
X167928518Y-113461800D01*
X167973585Y-113396309D01*
X168035304Y-113323523D01*
X168108298Y-113248786D01*
X168187188Y-113177444D01*
X168266595Y-113114840D01*
X168302994Y-113089675D01*
X168372913Y-113046746D01*
X168457761Y-112999156D01*
X168550268Y-112950607D01*
X168643163Y-112904799D01*
X168729177Y-112865434D01*
X168800223Y-112836515D01*
X168840050Y-112820895D01*
X168857680Y-112811111D01*
X168855236Y-112805674D01*
X168846500Y-112804041D01*
X168823095Y-112800728D01*
X168779928Y-112794091D01*
X168722297Y-112784964D01*
X168655499Y-112774180D01*
X168623518Y-112768953D01*
X168319220Y-112707965D01*
X168028443Y-112627297D01*
X167751903Y-112527378D01*
X167490317Y-112408641D01*
X167244403Y-112271514D01*
X167014876Y-112116430D01*
X166802453Y-111943818D01*
X166607852Y-111754109D01*
X166431788Y-111547735D01*
X166309816Y-111378510D01*
X166280937Y-111333709D01*
X166247854Y-111279894D01*
X166213110Y-111221510D01*
X166179243Y-111163002D01*
X166148796Y-111108815D01*
X166124309Y-111063393D01*
X166108321Y-111031183D01*
X166103300Y-111017200D01*
X166115064Y-111012968D01*
X166147029Y-111011655D01*
X166194206Y-111012916D01*
X166251608Y-111016410D01*
X166314246Y-111021792D01*
X166377131Y-111028719D01*
X166435275Y-111036847D01*
X166465749Y-111042147D01*
X166659121Y-111091848D01*
X166849805Y-111166013D01*
X167036440Y-111263741D01*
X167217666Y-111384130D01*
X167392124Y-111526280D01*
X167558453Y-111689289D01*
X167711751Y-111867764D01*
X167751751Y-111918378D01*
X167819891Y-111871448D01*
X167864376Y-111838388D01*
X167907326Y-111802565D01*
X167930698Y-111780497D01*
X167973365Y-111736475D01*
X167892719Y-111637112D01*
X167762646Y-111487493D01*
X167618463Y-111340510D01*
X167466312Y-111201850D01*
X167312337Y-111077197D01*
X167202634Y-110998528D01*
X167154318Y-110964509D01*
X167126032Y-110938944D01*
X167115988Y-110917282D01*
X167122399Y-110894970D01*
X167143477Y-110867459D01*
X167148807Y-110861475D01*
X167174528Y-110832900D01*
X170624427Y-110832900D01*
X170672875Y-110876669D01*
X170708537Y-110915161D01*
X170742845Y-110962021D01*
X170755009Y-110982331D01*
X170771399Y-111016565D01*
X170790996Y-111063658D01*
X170811925Y-111118258D01*
X170832314Y-111175014D01*
X170850290Y-111228577D01*
X170863979Y-111273593D01*
X170871508Y-111304713D01*
X170871828Y-111316021D01*
X170855819Y-111323646D01*
X170820195Y-111332088D01*
X170770686Y-111340522D01*
X170713026Y-111348126D01*
X170652945Y-111354076D01*
X170596176Y-111357549D01*
X170579560Y-111358004D01*
X170531862Y-111357929D01*
X170465727Y-111356600D01*
X170388078Y-111354217D01*
X170305834Y-111350980D01*
X170256200Y-111348663D01*
X170046202Y-111345242D01*
X169851920Y-111356501D01*
X169674943Y-111382252D01*
X169516858Y-111422305D01*
X169454086Y-111444260D01*
X169395646Y-111467713D01*
X169358632Y-111486967D01*
X169340397Y-111505925D01*
X169338292Y-111528484D01*
X169349668Y-111558547D01*
X169361340Y-111580847D01*
X169387897Y-111625494D01*
X169416802Y-111668053D01*
X169430117Y-111685248D01*
X169464466Y-111726392D01*
X169517690Y-111705096D01*
X169552099Y-111692198D01*
X169576494Y-111684631D01*
X169581492Y-111683800D01*
X169589850Y-111695039D01*
X169603258Y-111725106D01*
X169619394Y-111768521D01*
X169626931Y-111790970D01*
X169683417Y-111928477D01*
X169757337Y-112049024D01*
X169847476Y-112151462D01*
X169952620Y-112234644D01*
X170071554Y-112297421D01*
X170203063Y-112338645D01*
X170207114Y-112339520D01*
X170325364Y-112354680D01*
X170450924Y-112352935D01*
X170577124Y-112335402D01*
X170697291Y-112303198D01*
X170804756Y-112257438D01*
X170847852Y-112232296D01*
X170942052Y-112156659D01*
X171020134Y-112063366D01*
X171080554Y-111955564D01*
X171121770Y-111836400D01*
X171142240Y-111709020D01*
X171143878Y-111628570D01*
X171143638Y-111621167D01*
X170881658Y-111621167D01*
X170873111Y-111687408D01*
X170860717Y-111763114D01*
X170843945Y-111822451D01*
X170819772Y-111874410D01*
X170798953Y-111908048D01*
X170744232Y-111970893D01*
X170672845Y-112025035D01*
X170593405Y-112064223D01*
X170575349Y-112070326D01*
X170524047Y-112080632D01*
X170456382Y-112086739D01*
X170381053Y-112088584D01*
X170306760Y-112086103D01*
X170242199Y-112079233D01*
X170211750Y-112072977D01*
X170139571Y-112049045D01*
X170078413Y-112016600D01*
X170018247Y-111969891D01*
X169995240Y-111948799D01*
X169945229Y-111890530D01*
X169899133Y-111817227D01*
X169862752Y-111739189D01*
X169844917Y-111681949D01*
X169842109Y-111662061D01*
X169847289Y-111648622D01*
X169864652Y-111639621D01*
X169898395Y-111633052D01*
X169952712Y-111626906D01*
X169961786Y-111626006D01*
X170050969Y-111617218D01*
X170079186Y-111682811D01*
X170124073Y-111756791D01*
X170186405Y-111813839D01*
X170263437Y-111852435D01*
X170352426Y-111871059D01*
X170419824Y-111871437D01*
X170513029Y-111854275D01*
X170590651Y-111817112D01*
X170653136Y-111759657D01*
X170698249Y-111687337D01*
X170716907Y-111658035D01*
X170740674Y-111646753D01*
X170757112Y-111645700D01*
X170798068Y-111641969D01*
X170838888Y-111633433D01*
X170881658Y-111621167D01*
X171143638Y-111621167D01*
X171141035Y-111540907D01*
X171190743Y-111510052D01*
X171222117Y-111491886D01*
X171269498Y-111466029D01*
X171326149Y-111436100D01*
X171378452Y-111409201D01*
X171556017Y-111328573D01*
X171724307Y-111271478D01*
X171883249Y-111237899D01*
X172032768Y-111227815D01*
X172172789Y-111241208D01*
X172303240Y-111278059D01*
X172424045Y-111338350D01*
X172535130Y-111422062D01*
X172636421Y-111529175D01*
X172727845Y-111659671D01*
X172786645Y-111766350D01*
X172814012Y-111825848D01*
X172842807Y-111896589D01*
X172871282Y-111973314D01*
X172897687Y-112050762D01*
X172920276Y-112123675D01*
X172937299Y-112186793D01*
X172947009Y-112234858D01*
X172948600Y-112253556D01*
X173262023Y-112253556D01*
X173249431Y-112183541D01*
X173246857Y-112170579D01*
X173194228Y-111956538D01*
X173126770Y-111759799D01*
X173045018Y-111581176D01*
X172949510Y-111421482D01*
X172840782Y-111281531D01*
X172719372Y-111162135D01*
X172585817Y-111064108D01*
X172477573Y-111004898D01*
X172362152Y-110957134D01*
X172249639Y-110926164D01*
X172130775Y-110909956D01*
X172027850Y-110906255D01*
X171903182Y-110911392D01*
X171780602Y-110927965D01*
X171655644Y-110957167D01*
X171523842Y-111000189D01*
X171380727Y-111058222D01*
X171273369Y-111107486D01*
X171213692Y-111135684D01*
X171162863Y-111159183D01*
X171124916Y-111176159D01*
X171103886Y-111184789D01*
X171100987Y-111185435D01*
X171096464Y-111172713D01*
X171086083Y-111141331D01*
X171071666Y-111096839D01*
X171063255Y-111070596D01*
X171018398Y-110957077D01*
X170957848Y-110843180D01*
X170886879Y-110737805D01*
X170818806Y-110657971D01*
X170740062Y-110577120D01*
X170896319Y-110204250D01*
X170658307Y-110204250D01*
X170588868Y-110372525D01*
X170519430Y-110540800D01*
X167300571Y-110540800D01*
X167231133Y-110372525D01*
X167161694Y-110204250D01*
X168035847Y-110200988D01*
X168217212Y-110200429D01*
X168418000Y-110200019D01*
X168632238Y-110199759D01*
X168853949Y-110199647D01*
X169077158Y-110199684D01*
X169295890Y-110199870D01*
X169504168Y-110200205D01*
X169696019Y-110200689D01*
X169784154Y-110200988D01*
X170658307Y-110204250D01*
X170896319Y-110204250D01*
X171315811Y-109203235D01*
X171390580Y-109024817D01*
X171462867Y-108852316D01*
X171532037Y-108687250D01*
X171597454Y-108531137D01*
X171658481Y-108385496D01*
X171714483Y-108251845D01*
X171764824Y-108131701D01*
X171808866Y-108026583D01*
X171845975Y-107938009D01*
X171875514Y-107867497D01*
X171896847Y-107816565D01*
X171909338Y-107786731D01*
X171912165Y-107779971D01*
X171932770Y-107730593D01*
X171821560Y-107739591D01*
X171648239Y-107761263D01*
X171492119Y-107796304D01*
X171353922Y-107843852D01*
X171234369Y-107903043D01*
X171134184Y-107973016D01*
X171054086Y-108052906D01*
X170994799Y-108141852D01*
X170957043Y-108238990D01*
X170941541Y-108343457D01*
X170949014Y-108454392D01*
X170980183Y-108570931D01*
X171031398Y-108684192D01*
X171054549Y-108728438D01*
X171072075Y-108764452D01*
X171081086Y-108786209D01*
X171081700Y-108789175D01*
X171073241Y-108800980D01*
X171050792Y-108796890D01*
X171018751Y-108778535D01*
X170989514Y-108754991D01*
X170907102Y-108694571D01*
X170818075Y-108657642D01*
X170718402Y-108642662D01*
X170694350Y-108642160D01*
X170636393Y-108643707D01*
X170592228Y-108649997D01*
X170550352Y-108663475D01*
X170510200Y-108681349D01*
X170421183Y-108736208D01*
X170343446Y-108808827D01*
X170283138Y-108893193D01*
X170272074Y-108914249D01*
X170255639Y-108950713D01*
X170245344Y-108983841D01*
X170239790Y-109021583D01*
X170237581Y-109071889D01*
X170237278Y-109112245D01*
X170237860Y-109172790D01*
X170240827Y-109216241D01*
X170247797Y-109250892D01*
X170260385Y-109285038D01*
X170278425Y-109323352D01*
X170337799Y-109416010D01*
X170415799Y-109491965D01*
X170507976Y-109548030D01*
X170552279Y-109566313D01*
X170594064Y-109576678D01*
X170643853Y-109581136D01*
X170684809Y-109581817D01*
X170732797Y-109582938D01*
X170769226Y-109585809D01*
X170788175Y-109589886D01*
X170789584Y-109591438D01*
X170779167Y-109614601D01*
X170751053Y-109645595D01*
X170710039Y-109680452D01*
X170660923Y-109715208D01*
X170608504Y-109745895D01*
X170593882Y-109753221D01*
X170498944Y-109794646D01*
X170407274Y-109824844D01*
X170311474Y-109845486D01*
X170204150Y-109858241D01*
X170103357Y-109863950D01*
X169987214Y-109865470D01*
X169888672Y-109860109D01*
X169800639Y-109846923D01*
X169716022Y-109824971D01*
X169657018Y-109804630D01*
X169550404Y-109753214D01*
X169447034Y-109681915D01*
X169353282Y-109596059D01*
X169275521Y-109500971D01*
X169254312Y-109468235D01*
X169228982Y-109422852D01*
X169219697Y-109396536D01*
X169226464Y-109388659D01*
X169249289Y-109398593D01*
X169254974Y-109402141D01*
X169313211Y-109429380D01*
X169386922Y-109448870D01*
X169466859Y-109458677D01*
X169524942Y-109458540D01*
X169631546Y-109439649D01*
X169727685Y-109398782D01*
X169810748Y-109338094D01*
X169878124Y-109259739D01*
X169927200Y-109165872D01*
X169944418Y-109112431D01*
X169960682Y-109028145D01*
X169961172Y-108952316D01*
X169945631Y-108873292D01*
X169938642Y-108849862D01*
X169894088Y-108748946D01*
X169829684Y-108663034D01*
X169747313Y-108593982D01*
X169648858Y-108543644D01*
X169616699Y-108532542D01*
X169523215Y-108513128D01*
X169434823Y-108516163D01*
X169344945Y-108542090D01*
X169320779Y-108552519D01*
X169282826Y-108569036D01*
X169255343Y-108579384D01*
X169245039Y-108581372D01*
X169249617Y-108569825D01*
X169265559Y-108543918D01*
X169284551Y-108516188D01*
X169334925Y-108427673D01*
X169363644Y-108332236D01*
X169372379Y-108229400D01*
X169362299Y-108129643D01*
X169330946Y-108040700D01*
X169276807Y-107959228D01*
X169226023Y-107906220D01*
X169148123Y-107845052D01*
X169067349Y-107805489D01*
X168977110Y-107784963D01*
X168903345Y-107780535D01*
X168845796Y-107781607D01*
X168802072Y-107787372D01*
X168760704Y-107800216D01*
X168717181Y-107819249D01*
X168624426Y-107875399D01*
X168550308Y-107946559D01*
X168495512Y-108029768D01*
X168460722Y-108122068D01*
X168446624Y-108220499D01*
X168453901Y-108322102D01*
X168483239Y-108423918D01*
X168535321Y-108522987D01*
X168549585Y-108543684D01*
X168570144Y-108572218D01*
X168508297Y-108544137D01*
X168433001Y-108521429D01*
X168346661Y-108513717D01*
X168258594Y-108520807D01*
X168178112Y-108542505D01*
X168157678Y-108551426D01*
X168070823Y-108606782D01*
X167995115Y-108681492D01*
X167935764Y-108770212D01*
X167926790Y-108788163D01*
X167907866Y-108830732D01*
X167896229Y-108866749D01*
X167890158Y-108905175D01*
X167887930Y-108954967D01*
X167887719Y-108991400D01*
X167888717Y-109052564D01*
X167892722Y-109097327D01*
X167901372Y-109134651D01*
X167916305Y-109173498D01*
X167924221Y-109191074D01*
X167968014Y-109263974D01*
X168027749Y-109332884D01*
X168096191Y-109390520D01*
X168157516Y-109425969D01*
X168243075Y-109451512D01*
X168338479Y-109459346D01*
X168436007Y-109450111D01*
X168527941Y-109424446D01*
X168596841Y-109389592D01*
X168626781Y-109371721D01*
X168646786Y-109362841D01*
X168650690Y-109362856D01*
X168650022Y-109378717D01*
X168636438Y-109409389D01*
X168613020Y-109449950D01*
X168582846Y-109495481D01*
X168548998Y-109541061D01*
X168514556Y-109581769D01*
X168511791Y-109584749D01*
X168393263Y-109693294D01*
X168259014Y-109783631D01*
X168113249Y-109853229D01*
X168008300Y-109887798D01*
X167929394Y-109902453D01*
X167835161Y-109909498D01*
X167734479Y-109909028D01*
X167636223Y-109901139D01*
X167549269Y-109885927D01*
X167536578Y-109882707D01*
X167418538Y-109842144D01*
X167300139Y-109785119D01*
X167220900Y-109736621D01*
X167180863Y-109708034D01*
X167138520Y-109675566D01*
X167098801Y-109643299D01*
X167066636Y-109615313D01*
X167046957Y-109595692D01*
X167043188Y-109589486D01*
X167054913Y-109585836D01*
X167085923Y-109582921D01*
X167130105Y-109581262D01*
X167141719Y-109581110D01*
X167204780Y-109578170D01*
X167254634Y-109569033D01*
X167303183Y-109551338D01*
X167312131Y-109547323D01*
X167402874Y-109492470D01*
X167481202Y-109418563D01*
X167541367Y-109331058D01*
X167542761Y-109328415D01*
X167560951Y-109291881D01*
X167572616Y-109261141D01*
X167579195Y-109228660D01*
X167582125Y-109186904D01*
X167582844Y-109128340D01*
X167582850Y-109118400D01*
X167582198Y-109055719D01*
X167579364Y-109010841D01*
X167573033Y-108976184D01*
X167561888Y-108944166D01*
X167547057Y-108912159D01*
X167490575Y-108824412D01*
X167414875Y-108748277D01*
X167325322Y-108688975D01*
X167309837Y-108681289D01*
X167212495Y-108648574D01*
X167112476Y-108639849D01*
X167013548Y-108654536D01*
X166919476Y-108692055D01*
X166834027Y-108751826D01*
X166830487Y-108754991D01*
X166791189Y-108784322D01*
X166757283Y-108799188D01*
X166732410Y-108800425D01*
X166720212Y-108788870D01*
X166724332Y-108765359D01*
X166744513Y-108735247D01*
X166805355Y-108645241D01*
X166847860Y-108544375D01*
X166871314Y-108437620D01*
X166875001Y-108329947D01*
X166858207Y-108226328D01*
X166828908Y-108148392D01*
X166770602Y-108058003D01*
X166690134Y-107976785D01*
X166589367Y-107905662D01*
X166470163Y-107845557D01*
X166334382Y-107797393D01*
X166183888Y-107762094D01*
X166020542Y-107740582D01*
X166003757Y-107739239D01*
X165887336Y-107730450D01*
X165923731Y-107818000D01*
G36*
X173970950Y-120784609D02*
G01*
X173765257Y-120787626D01*
X173581636Y-120795564D01*
X173417148Y-120808916D01*
X173268855Y-120828176D01*
X173133818Y-120853836D01*
X173009099Y-120886388D01*
X172891759Y-120926326D01*
X172778859Y-120974142D01*
X172745400Y-120990104D01*
X172681005Y-121023742D01*
X172628705Y-121057192D01*
X172579265Y-121097124D01*
X172523456Y-121150211D01*
X172522484Y-121151180D01*
X172446293Y-121235574D01*
X172389348Y-121319721D01*
X172348658Y-121409999D01*
X172321233Y-121512787D01*
X172306418Y-121612025D01*
X172297620Y-121691400D01*
X173532800Y-121691400D01*
X173532800Y-121646223D01*
X173542882Y-121558725D01*
X173574179Y-121483334D01*
X173620581Y-121423766D01*
X173663044Y-121386143D01*
X173710350Y-121358094D01*
X173767256Y-121338080D01*
X173838518Y-121324559D01*
X173928893Y-121315991D01*
X173958813Y-121314242D01*
X174094964Y-121313571D01*
X174211338Y-121326764D01*
X174307539Y-121353662D01*
X174383171Y-121394106D01*
X174437838Y-121447938D01*
X174471144Y-121514997D01*
X174472748Y-121520477D01*
X174483099Y-121598081D01*
X174471265Y-121670803D01*
X174438963Y-121734415D01*
X174387911Y-121784686D01*
X174358282Y-121802327D01*
X174327478Y-121816408D01*
X174295235Y-121827993D01*
X174258503Y-121837440D01*
X174214231Y-121845107D01*
X174159368Y-121851352D01*
X174090865Y-121856534D01*
X174005671Y-121861009D01*
X173900736Y-121865137D01*
X173793150Y-121868657D01*
X173596496Y-121876152D01*
X173422546Y-121886036D01*
X173268681Y-121898762D01*
X173132280Y-121914782D01*
X173010722Y-121934549D01*
X172901386Y-121958516D01*
X172801651Y-121987134D01*
X172708897Y-122020857D01*
X172620503Y-122060136D01*
X172586981Y-122076886D01*
X172492020Y-122136306D01*
X172406300Y-122210395D01*
X172333367Y-122294777D01*
X172276765Y-122385076D01*
X172240037Y-122476917D01*
X172231184Y-122516107D01*
X172223691Y-122548122D01*
X172215416Y-122566205D01*
X172212874Y-122567700D01*
X172206683Y-122556221D01*
X172198896Y-122538866D01*
X171140407Y-122538866D01*
X171136615Y-122543629D01*
X171125639Y-122547354D01*
X171105039Y-122550166D01*
X171072377Y-122552194D01*
X171025213Y-122553563D01*
X170961109Y-122554401D01*
X170877627Y-122554833D01*
X170772326Y-122554987D01*
X170714759Y-122555000D01*
X170612739Y-122554822D01*
X170519275Y-122554319D01*
X170437278Y-122553532D01*
X170369660Y-122552503D01*
X170319331Y-122551275D01*
X170289204Y-122549889D01*
X170281600Y-122548718D01*
X170286190Y-122535120D01*
X170299170Y-122500940D01*
X170319356Y-122449124D01*
X170345564Y-122382618D01*
X170376610Y-122304366D01*
X170411310Y-122217315D01*
X170448481Y-122124409D01*
X170486938Y-122028594D01*
X170525497Y-121932815D01*
X170562974Y-121840017D01*
X170598187Y-121753146D01*
X170629949Y-121675147D01*
X170657078Y-121608966D01*
X170678390Y-121557547D01*
X170692700Y-121523836D01*
X170698826Y-121510779D01*
X170698830Y-121510774D01*
X170704862Y-121520642D01*
X170719519Y-121551121D01*
X170741590Y-121599404D01*
X170769865Y-121662685D01*
X170803134Y-121738155D01*
X170840187Y-121823007D01*
X170879815Y-121914434D01*
X170920806Y-122009630D01*
X170961950Y-122105785D01*
X171002039Y-122200094D01*
X171039860Y-122289749D01*
X171074205Y-122371943D01*
X171103863Y-122443868D01*
X171127624Y-122502717D01*
X171139452Y-122532938D01*
X171140407Y-122538866D01*
X172198896Y-122538866D01*
X172191778Y-122523005D01*
X172168919Y-122469881D01*
X172138866Y-122398677D01*
X172102378Y-122311225D01*
X172060215Y-122209352D01*
X172013138Y-122094889D01*
X171961905Y-121969665D01*
X171907278Y-121835508D01*
X171850016Y-121694249D01*
X171848865Y-121691402D01*
X171494450Y-120815105D01*
X170713400Y-120815102D01*
X169932350Y-120815100D01*
X169546286Y-121754900D01*
X169486053Y-121901262D01*
X169428483Y-122040639D01*
X169374315Y-122171270D01*
X169324291Y-122291395D01*
X169279149Y-122399254D01*
X169239630Y-122493086D01*
X169206473Y-122571132D01*
X169180418Y-122631630D01*
X169162206Y-122672820D01*
X169152575Y-122692942D01*
X169151307Y-122694700D01*
X169145209Y-122683237D01*
X169130242Y-122650023D01*
X169107145Y-122596817D01*
X169086615Y-122548713D01*
X168021000Y-122548713D01*
X168021000Y-122548718D01*
X168008786Y-122550198D01*
X167974083Y-122551553D01*
X167919802Y-122552742D01*
X167848856Y-122553723D01*
X167764156Y-122554452D01*
X167668612Y-122554889D01*
X167587842Y-122555000D01*
X167471493Y-122554934D01*
X167378102Y-122554652D01*
X167305229Y-122554027D01*
X167250430Y-122552929D01*
X167211265Y-122551233D01*
X167185293Y-122548809D01*
X167170071Y-122545530D01*
X167163158Y-122541269D01*
X167162112Y-122535897D01*
X167163020Y-122532775D01*
X167179689Y-122490002D01*
X167203451Y-122431371D01*
X167233090Y-122359703D01*
X167267386Y-122277825D01*
X167305123Y-122188559D01*
X167345082Y-122094731D01*
X167386046Y-121999164D01*
X167426797Y-121904683D01*
X167466117Y-121814112D01*
X167502789Y-121730275D01*
X167535594Y-121655996D01*
X167563315Y-121594100D01*
X167584734Y-121547411D01*
X167598634Y-121518753D01*
X167603716Y-121510720D01*
X167609823Y-121523720D01*
X167624119Y-121557383D01*
X167645419Y-121608761D01*
X167672540Y-121674911D01*
X167704298Y-121752886D01*
X167739508Y-121839741D01*
X167776986Y-121932531D01*
X167815549Y-122028310D01*
X167854012Y-122124133D01*
X167891192Y-122217055D01*
X167925903Y-122304130D01*
X167956963Y-122382413D01*
X167983186Y-122448957D01*
X168003390Y-122500819D01*
X168016389Y-122535053D01*
X168021000Y-122548713D01*
X169086615Y-122548713D01*
X169076657Y-122525381D01*
X169039520Y-122437474D01*
X168996472Y-122334857D01*
X168948254Y-122219290D01*
X168895605Y-122092534D01*
X168839266Y-121956349D01*
X168779977Y-121812495D01*
X168756321Y-121754954D01*
X168370250Y-120815209D01*
X167589154Y-120815154D01*
X166808057Y-120815100D01*
X166396341Y-121821575D01*
X166333769Y-121974412D01*
X166273567Y-122121218D01*
X166216479Y-122260188D01*
X166163252Y-122389519D01*
X166114631Y-122507409D01*
X166071361Y-122612053D01*
X166034187Y-122701650D01*
X166003854Y-122774395D01*
X165981109Y-122828485D01*
X165966695Y-122862118D01*
X165961974Y-122872500D01*
X165957930Y-122879726D01*
X165954397Y-122883461D01*
X165951338Y-122882167D01*
X165948719Y-122874306D01*
X165946504Y-122858341D01*
X165944658Y-122832734D01*
X165943146Y-122795949D01*
X165941931Y-122746447D01*
X165940978Y-122682691D01*
X165940253Y-122603144D01*
X165939847Y-122529600D01*
X164922200Y-122529600D01*
X164922200Y-122936000D01*
X164417375Y-122935980D01*
X164289390Y-122935889D01*
X164184287Y-122935559D01*
X164099548Y-122934889D01*
X164032658Y-122933775D01*
X163981098Y-122932118D01*
X163942351Y-122929814D01*
X163913901Y-122926761D01*
X163893228Y-122922859D01*
X163877818Y-122918004D01*
X163868354Y-122913755D01*
X163817086Y-122874490D01*
X163779332Y-122817637D01*
X163759420Y-122751407D01*
X163761545Y-122685268D01*
X163785727Y-122624108D01*
X163828785Y-122574458D01*
X163853956Y-122557337D01*
X163866898Y-122550415D01*
X163880397Y-122544752D01*
X163897000Y-122540222D01*
X163919252Y-122536699D01*
X163949697Y-122534055D01*
X163990881Y-122532165D01*
X164045350Y-122530903D01*
X164115649Y-122530141D01*
X164204323Y-122529755D01*
X164313917Y-122529616D01*
X164412755Y-122529600D01*
X164922200Y-122529600D01*
X165939847Y-122529600D01*
X165939718Y-122506268D01*
X165939341Y-122390526D01*
X165939083Y-122254381D01*
X165938911Y-122096294D01*
X165938789Y-121914729D01*
X165938762Y-121865531D01*
X165938568Y-121500900D01*
X164922200Y-121500900D01*
X164922200Y-121932700D01*
X164458243Y-121932700D01*
X164329731Y-121932498D01*
X164224337Y-121931840D01*
X164139780Y-121930649D01*
X164073781Y-121928846D01*
X164024059Y-121926352D01*
X163988334Y-121923091D01*
X163964328Y-121918983D01*
X163952825Y-121915376D01*
X163902122Y-121882130D01*
X163858820Y-121831191D01*
X163829343Y-121770248D01*
X163827999Y-121765927D01*
X163821050Y-121706069D01*
X163831321Y-121642717D01*
X163856455Y-121586544D01*
X163872065Y-121566368D01*
X163887684Y-121550083D01*
X163902941Y-121536751D01*
X163920421Y-121526076D01*
X163942711Y-121517763D01*
X163972397Y-121511517D01*
X164012065Y-121507042D01*
X164064300Y-121504043D01*
X164131689Y-121502225D01*
X164216818Y-121501291D01*
X164322273Y-121500948D01*
X164445320Y-121500900D01*
X164922200Y-121500900D01*
X165938568Y-121500900D01*
X165938200Y-120814113D01*
X164601525Y-120818408D01*
X164382769Y-120819090D01*
X164187865Y-120819708D01*
X164015264Y-120820348D01*
X163863420Y-120821095D01*
X163730783Y-120822036D01*
X163615806Y-120823257D01*
X163516941Y-120824843D01*
X163432641Y-120826881D01*
X163361357Y-120829456D01*
X163301541Y-120832654D01*
X163251646Y-120836563D01*
X163210124Y-120841266D01*
X163175426Y-120846851D01*
X163146005Y-120853403D01*
X163120314Y-120861009D01*
X163096803Y-120869754D01*
X163073925Y-120879724D01*
X163050133Y-120891005D01*
X163023878Y-120903684D01*
X163018321Y-120906335D01*
X162952686Y-120945764D01*
X162882903Y-121001378D01*
X162815906Y-121066505D01*
X162758629Y-121134473D01*
X162721431Y-121191978D01*
X162689574Y-121265479D01*
X162662941Y-121352535D01*
X162644320Y-121442005D01*
X162636500Y-121522746D01*
X162636421Y-121531506D01*
X162647855Y-121664680D01*
X162680828Y-121784905D01*
X162734532Y-121891138D01*
X162808164Y-121982340D01*
X162900918Y-122057467D01*
X163011989Y-122115479D01*
X163113784Y-122148941D01*
X163160224Y-122161213D01*
X163196068Y-122171429D01*
X163215104Y-122177796D01*
X163216540Y-122178605D01*
X163208004Y-122182739D01*
X163181190Y-122188245D01*
X163160419Y-122191387D01*
X163034024Y-122220658D01*
X162916862Y-122271760D01*
X162811888Y-122342562D01*
X162722063Y-122430935D01*
X162650343Y-122534748D01*
X162630843Y-122572687D01*
X162589327Y-122674687D01*
X162565159Y-122772256D01*
X162555761Y-122876717D01*
X162555418Y-122904250D01*
X162559092Y-122990724D01*
X162571524Y-123069054D01*
X162594826Y-123147757D01*
X162631110Y-123235353D01*
X162644741Y-123264429D01*
X162714490Y-123383364D01*
X162800682Y-123482955D01*
X162903420Y-123563286D01*
X163022806Y-123624442D01*
X163118800Y-123656559D01*
X163131622Y-123659711D01*
X163146533Y-123662554D01*
X163164834Y-123665104D01*
X163187826Y-123667377D01*
X163216811Y-123669388D01*
X163253090Y-123671153D01*
X163297965Y-123672689D01*
X163352736Y-123674010D01*
X163418705Y-123675133D01*
X163497173Y-123676074D01*
X163589441Y-123676848D01*
X163696811Y-123677472D01*
X163820584Y-123677961D01*
X163962061Y-123678331D01*
X164122544Y-123678597D01*
X164303334Y-123678777D01*
X164505732Y-123678885D01*
X164731039Y-123678937D01*
X164958102Y-123678950D01*
X166714854Y-123678950D01*
X166777405Y-123526550D01*
X166804766Y-123459999D01*
X166832185Y-123393504D01*
X166856362Y-123335054D01*
X166873107Y-123294775D01*
X166906258Y-123215400D01*
X168295213Y-123215400D01*
X168389882Y-123450213D01*
X168484550Y-123685026D01*
X169818050Y-123685026D01*
X170007388Y-123215400D01*
X171419320Y-123215400D01*
X171503108Y-123447175D01*
X171586897Y-123678950D01*
X172127625Y-123682261D01*
X172668354Y-123685572D01*
X172626180Y-123587011D01*
X172598358Y-123521612D01*
X172580549Y-123477167D01*
X172572804Y-123451261D01*
X172575173Y-123441484D01*
X172587708Y-123445423D01*
X172610458Y-123460665D01*
X172628566Y-123473889D01*
X172739821Y-123542246D01*
X172873340Y-123600724D01*
X173027852Y-123648992D01*
X173202082Y-123686718D01*
X173394759Y-123713570D01*
X173604608Y-123729217D01*
X173609000Y-123729415D01*
X173733844Y-123734688D01*
X173838852Y-123738403D01*
X173929538Y-123740612D01*
X174011414Y-123741366D01*
X174089996Y-123740719D01*
X174170795Y-123738722D01*
X174256700Y-123735536D01*
X174498056Y-123719562D01*
X174717021Y-123692485D01*
X174914129Y-123654143D01*
X175089915Y-123604373D01*
X175244911Y-123543013D01*
X175379651Y-123469900D01*
X175494669Y-123384871D01*
X175538113Y-123344686D01*
X175629560Y-123237276D01*
X175698039Y-123119101D01*
X175743383Y-122990508D01*
X175763203Y-122877367D01*
X175771508Y-122796300D01*
X174550601Y-122796300D01*
X174536045Y-122866415D01*
X174506906Y-122949445D01*
X174456291Y-123020044D01*
X174383723Y-123078707D01*
X174288721Y-123125932D01*
X174284097Y-123127724D01*
X174213470Y-123147037D01*
X174126107Y-123158972D01*
X174028301Y-123163779D01*
X173926348Y-123161710D01*
X173826542Y-123153014D01*
X173735176Y-123137941D01*
X173658547Y-123116740D01*
X173622779Y-123101451D01*
X173559474Y-123055940D01*
X173515107Y-122996946D01*
X173490664Y-122928952D01*
X173487126Y-122856440D01*
X173505479Y-122783893D01*
X173540016Y-122724239D01*
X173587554Y-122679904D01*
X173657143Y-122643078D01*
X173749210Y-122613669D01*
X173864181Y-122591584D01*
X174002483Y-122576732D01*
X174164544Y-122569019D01*
X174263050Y-122567789D01*
X174480714Y-122562291D01*
X174683827Y-122546835D01*
X174869529Y-122521739D01*
X175034963Y-122487320D01*
X175069500Y-122478213D01*
X175215489Y-122427508D01*
X175341683Y-122361439D01*
X175447730Y-122280437D01*
X175533278Y-122184937D01*
X175597975Y-122075370D01*
X175641469Y-121952169D01*
X175663407Y-121815767D01*
X175666180Y-121744839D01*
X175661150Y-121656234D01*
X175647010Y-121561730D01*
X175625766Y-121471987D01*
X175601782Y-121403040D01*
X175539530Y-121289689D01*
X175454666Y-121186034D01*
X175348350Y-121092833D01*
X175221746Y-121010844D01*
X175076015Y-120940825D01*
X174912321Y-120883534D01*
X174740932Y-120841528D01*
X174652497Y-120824809D01*
X174569853Y-120811517D01*
X174488410Y-120801314D01*
X174403579Y-120793859D01*
X174310767Y-120788813D01*
X174205386Y-120785837D01*
X174082844Y-120784592D01*
X173970950Y-120784609D01*
G37*
X173970950Y-120784609D02*
X173765257Y-120787626D01*
X173581636Y-120795564D01*
X173417148Y-120808916D01*
X173268855Y-120828176D01*
X173133818Y-120853836D01*
X173009099Y-120886388D01*
X172891759Y-120926326D01*
X172778859Y-120974142D01*
X172745400Y-120990104D01*
X172681005Y-121023742D01*
X172628705Y-121057192D01*
X172579265Y-121097124D01*
X172523456Y-121150211D01*
X172522484Y-121151180D01*
X172446293Y-121235574D01*
X172389348Y-121319721D01*
X172348658Y-121409999D01*
X172321233Y-121512787D01*
X172306418Y-121612025D01*
X172297620Y-121691400D01*
X173532800Y-121691400D01*
X173532800Y-121646223D01*
X173542882Y-121558725D01*
X173574179Y-121483334D01*
X173620581Y-121423766D01*
X173663044Y-121386143D01*
X173710350Y-121358094D01*
X173767256Y-121338080D01*
X173838518Y-121324559D01*
X173928893Y-121315991D01*
X173958813Y-121314242D01*
X174094964Y-121313571D01*
X174211338Y-121326764D01*
X174307539Y-121353662D01*
X174383171Y-121394106D01*
X174437838Y-121447938D01*
X174471144Y-121514997D01*
X174472748Y-121520477D01*
X174483099Y-121598081D01*
X174471265Y-121670803D01*
X174438963Y-121734415D01*
X174387911Y-121784686D01*
X174358282Y-121802327D01*
X174327478Y-121816408D01*
X174295235Y-121827993D01*
X174258503Y-121837440D01*
X174214231Y-121845107D01*
X174159368Y-121851352D01*
X174090865Y-121856534D01*
X174005671Y-121861009D01*
X173900736Y-121865137D01*
X173793150Y-121868657D01*
X173596496Y-121876152D01*
X173422546Y-121886036D01*
X173268681Y-121898762D01*
X173132280Y-121914782D01*
X173010722Y-121934549D01*
X172901386Y-121958516D01*
X172801651Y-121987134D01*
X172708897Y-122020857D01*
X172620503Y-122060136D01*
X172586981Y-122076886D01*
X172492020Y-122136306D01*
X172406300Y-122210395D01*
X172333367Y-122294777D01*
X172276765Y-122385076D01*
X172240037Y-122476917D01*
X172231184Y-122516107D01*
X172223691Y-122548122D01*
X172215416Y-122566205D01*
X172212874Y-122567700D01*
X172206683Y-122556221D01*
X172198896Y-122538866D01*
X171140407Y-122538866D01*
X171136615Y-122543629D01*
X171125639Y-122547354D01*
X171105039Y-122550166D01*
X171072377Y-122552194D01*
X171025213Y-122553563D01*
X170961109Y-122554401D01*
X170877627Y-122554833D01*
X170772326Y-122554987D01*
X170714759Y-122555000D01*
X170612739Y-122554822D01*
X170519275Y-122554319D01*
X170437278Y-122553532D01*
X170369660Y-122552503D01*
X170319331Y-122551275D01*
X170289204Y-122549889D01*
X170281600Y-122548718D01*
X170286190Y-122535120D01*
X170299170Y-122500940D01*
X170319356Y-122449124D01*
X170345564Y-122382618D01*
X170376610Y-122304366D01*
X170411310Y-122217315D01*
X170448481Y-122124409D01*
X170486938Y-122028594D01*
X170525497Y-121932815D01*
X170562974Y-121840017D01*
X170598187Y-121753146D01*
X170629949Y-121675147D01*
X170657078Y-121608966D01*
X170678390Y-121557547D01*
X170692700Y-121523836D01*
X170698826Y-121510779D01*
X170698830Y-121510774D01*
X170704862Y-121520642D01*
X170719519Y-121551121D01*
X170741590Y-121599404D01*
X170769865Y-121662685D01*
X170803134Y-121738155D01*
X170840187Y-121823007D01*
X170879815Y-121914434D01*
X170920806Y-122009630D01*
X170961950Y-122105785D01*
X171002039Y-122200094D01*
X171039860Y-122289749D01*
X171074205Y-122371943D01*
X171103863Y-122443868D01*
X171127624Y-122502717D01*
X171139452Y-122532938D01*
X171140407Y-122538866D01*
X172198896Y-122538866D01*
X172191778Y-122523005D01*
X172168919Y-122469881D01*
X172138866Y-122398677D01*
X172102378Y-122311225D01*
X172060215Y-122209352D01*
X172013138Y-122094889D01*
X171961905Y-121969665D01*
X171907278Y-121835508D01*
X171850016Y-121694249D01*
X171848865Y-121691402D01*
X171494450Y-120815105D01*
X170713400Y-120815102D01*
X169932350Y-120815100D01*
X169546286Y-121754900D01*
X169486053Y-121901262D01*
X169428483Y-122040639D01*
X169374315Y-122171270D01*
X169324291Y-122291395D01*
X169279149Y-122399254D01*
X169239630Y-122493086D01*
X169206473Y-122571132D01*
X169180418Y-122631630D01*
X169162206Y-122672820D01*
X169152575Y-122692942D01*
X169151307Y-122694700D01*
X169145209Y-122683237D01*
X169130242Y-122650023D01*
X169107145Y-122596817D01*
X169086615Y-122548713D01*
X168021000Y-122548713D01*
X168021000Y-122548718D01*
X168008786Y-122550198D01*
X167974083Y-122551553D01*
X167919802Y-122552742D01*
X167848856Y-122553723D01*
X167764156Y-122554452D01*
X167668612Y-122554889D01*
X167587842Y-122555000D01*
X167471493Y-122554934D01*
X167378102Y-122554652D01*
X167305229Y-122554027D01*
X167250430Y-122552929D01*
X167211265Y-122551233D01*
X167185293Y-122548809D01*
X167170071Y-122545530D01*
X167163158Y-122541269D01*
X167162112Y-122535897D01*
X167163020Y-122532775D01*
X167179689Y-122490002D01*
X167203451Y-122431371D01*
X167233090Y-122359703D01*
X167267386Y-122277825D01*
X167305123Y-122188559D01*
X167345082Y-122094731D01*
X167386046Y-121999164D01*
X167426797Y-121904683D01*
X167466117Y-121814112D01*
X167502789Y-121730275D01*
X167535594Y-121655996D01*
X167563315Y-121594100D01*
X167584734Y-121547411D01*
X167598634Y-121518753D01*
X167603716Y-121510720D01*
X167609823Y-121523720D01*
X167624119Y-121557383D01*
X167645419Y-121608761D01*
X167672540Y-121674911D01*
X167704298Y-121752886D01*
X167739508Y-121839741D01*
X167776986Y-121932531D01*
X167815549Y-122028310D01*
X167854012Y-122124133D01*
X167891192Y-122217055D01*
X167925903Y-122304130D01*
X167956963Y-122382413D01*
X167983186Y-122448957D01*
X168003390Y-122500819D01*
X168016389Y-122535053D01*
X168021000Y-122548713D01*
X169086615Y-122548713D01*
X169076657Y-122525381D01*
X169039520Y-122437474D01*
X168996472Y-122334857D01*
X168948254Y-122219290D01*
X168895605Y-122092534D01*
X168839266Y-121956349D01*
X168779977Y-121812495D01*
X168756321Y-121754954D01*
X168370250Y-120815209D01*
X167589154Y-120815154D01*
X166808057Y-120815100D01*
X166396341Y-121821575D01*
X166333769Y-121974412D01*
X166273567Y-122121218D01*
X166216479Y-122260188D01*
X166163252Y-122389519D01*
X166114631Y-122507409D01*
X166071361Y-122612053D01*
X166034187Y-122701650D01*
X166003854Y-122774395D01*
X165981109Y-122828485D01*
X165966695Y-122862118D01*
X165961974Y-122872500D01*
X165957930Y-122879726D01*
X165954397Y-122883461D01*
X165951338Y-122882167D01*
X165948719Y-122874306D01*
X165946504Y-122858341D01*
X165944658Y-122832734D01*
X165943146Y-122795949D01*
X165941931Y-122746447D01*
X165940978Y-122682691D01*
X165940253Y-122603144D01*
X165939847Y-122529600D01*
X164922200Y-122529600D01*
X164922200Y-122936000D01*
X164417375Y-122935980D01*
X164289390Y-122935889D01*
X164184287Y-122935559D01*
X164099548Y-122934889D01*
X164032658Y-122933775D01*
X163981098Y-122932118D01*
X163942351Y-122929814D01*
X163913901Y-122926761D01*
X163893228Y-122922859D01*
X163877818Y-122918004D01*
X163868354Y-122913755D01*
X163817086Y-122874490D01*
X163779332Y-122817637D01*
X163759420Y-122751407D01*
X163761545Y-122685268D01*
X163785727Y-122624108D01*
X163828785Y-122574458D01*
X163853956Y-122557337D01*
X163866898Y-122550415D01*
X163880397Y-122544752D01*
X163897000Y-122540222D01*
X163919252Y-122536699D01*
X163949697Y-122534055D01*
X163990881Y-122532165D01*
X164045350Y-122530903D01*
X164115649Y-122530141D01*
X164204323Y-122529755D01*
X164313917Y-122529616D01*
X164412755Y-122529600D01*
X164922200Y-122529600D01*
X165939847Y-122529600D01*
X165939718Y-122506268D01*
X165939341Y-122390526D01*
X165939083Y-122254381D01*
X165938911Y-122096294D01*
X165938789Y-121914729D01*
X165938762Y-121865531D01*
X165938568Y-121500900D01*
X164922200Y-121500900D01*
X164922200Y-121932700D01*
X164458243Y-121932700D01*
X164329731Y-121932498D01*
X164224337Y-121931840D01*
X164139780Y-121930649D01*
X164073781Y-121928846D01*
X164024059Y-121926352D01*
X163988334Y-121923091D01*
X163964328Y-121918983D01*
X163952825Y-121915376D01*
X163902122Y-121882130D01*
X163858820Y-121831191D01*
X163829343Y-121770248D01*
X163827999Y-121765927D01*
X163821050Y-121706069D01*
X163831321Y-121642717D01*
X163856455Y-121586544D01*
X163872065Y-121566368D01*
X163887684Y-121550083D01*
X163902941Y-121536751D01*
X163920421Y-121526076D01*
X163942711Y-121517763D01*
X163972397Y-121511517D01*
X164012065Y-121507042D01*
X164064300Y-121504043D01*
X164131689Y-121502225D01*
X164216818Y-121501291D01*
X164322273Y-121500948D01*
X164445320Y-121500900D01*
X164922200Y-121500900D01*
X165938568Y-121500900D01*
X165938200Y-120814113D01*
X164601525Y-120818408D01*
X164382769Y-120819090D01*
X164187865Y-120819708D01*
X164015264Y-120820348D01*
X163863420Y-120821095D01*
X163730783Y-120822036D01*
X163615806Y-120823257D01*
X163516941Y-120824843D01*
X163432641Y-120826881D01*
X163361357Y-120829456D01*
X163301541Y-120832654D01*
X163251646Y-120836563D01*
X163210124Y-120841266D01*
X163175426Y-120846851D01*
X163146005Y-120853403D01*
X163120314Y-120861009D01*
X163096803Y-120869754D01*
X163073925Y-120879724D01*
X163050133Y-120891005D01*
X163023878Y-120903684D01*
X163018321Y-120906335D01*
X162952686Y-120945764D01*
X162882903Y-121001378D01*
X162815906Y-121066505D01*
X162758629Y-121134473D01*
X162721431Y-121191978D01*
X162689574Y-121265479D01*
X162662941Y-121352535D01*
X162644320Y-121442005D01*
X162636500Y-121522746D01*
X162636421Y-121531506D01*
X162647855Y-121664680D01*
X162680828Y-121784905D01*
X162734532Y-121891138D01*
X162808164Y-121982340D01*
X162900918Y-122057467D01*
X163011989Y-122115479D01*
X163113784Y-122148941D01*
X163160224Y-122161213D01*
X163196068Y-122171429D01*
X163215104Y-122177796D01*
X163216540Y-122178605D01*
X163208004Y-122182739D01*
X163181190Y-122188245D01*
X163160419Y-122191387D01*
X163034024Y-122220658D01*
X162916862Y-122271760D01*
X162811888Y-122342562D01*
X162722063Y-122430935D01*
X162650343Y-122534748D01*
X162630843Y-122572687D01*
X162589327Y-122674687D01*
X162565159Y-122772256D01*
X162555761Y-122876717D01*
X162555418Y-122904250D01*
X162559092Y-122990724D01*
X162571524Y-123069054D01*
X162594826Y-123147757D01*
X162631110Y-123235353D01*
X162644741Y-123264429D01*
X162714490Y-123383364D01*
X162800682Y-123482955D01*
X162903420Y-123563286D01*
X163022806Y-123624442D01*
X163118800Y-123656559D01*
X163131622Y-123659711D01*
X163146533Y-123662554D01*
X163164834Y-123665104D01*
X163187826Y-123667377D01*
X163216811Y-123669388D01*
X163253090Y-123671153D01*
X163297965Y-123672689D01*
X163352736Y-123674010D01*
X163418705Y-123675133D01*
X163497173Y-123676074D01*
X163589441Y-123676848D01*
X163696811Y-123677472D01*
X163820584Y-123677961D01*
X163962061Y-123678331D01*
X164122544Y-123678597D01*
X164303334Y-123678777D01*
X164505732Y-123678885D01*
X164731039Y-123678937D01*
X164958102Y-123678950D01*
X166714854Y-123678950D01*
X166777405Y-123526550D01*
X166804766Y-123459999D01*
X166832185Y-123393504D01*
X166856362Y-123335054D01*
X166873107Y-123294775D01*
X166906258Y-123215400D01*
X168295213Y-123215400D01*
X168389882Y-123450213D01*
X168484550Y-123685026D01*
X169818050Y-123685026D01*
X170007388Y-123215400D01*
X171419320Y-123215400D01*
X171503108Y-123447175D01*
X171586897Y-123678950D01*
X172127625Y-123682261D01*
X172668354Y-123685572D01*
X172626180Y-123587011D01*
X172598358Y-123521612D01*
X172580549Y-123477167D01*
X172572804Y-123451261D01*
X172575173Y-123441484D01*
X172587708Y-123445423D01*
X172610458Y-123460665D01*
X172628566Y-123473889D01*
X172739821Y-123542246D01*
X172873340Y-123600724D01*
X173027852Y-123648992D01*
X173202082Y-123686718D01*
X173394759Y-123713570D01*
X173604608Y-123729217D01*
X173609000Y-123729415D01*
X173733844Y-123734688D01*
X173838852Y-123738403D01*
X173929538Y-123740612D01*
X174011414Y-123741366D01*
X174089996Y-123740719D01*
X174170795Y-123738722D01*
X174256700Y-123735536D01*
X174498056Y-123719562D01*
X174717021Y-123692485D01*
X174914129Y-123654143D01*
X175089915Y-123604373D01*
X175244911Y-123543013D01*
X175379651Y-123469900D01*
X175494669Y-123384871D01*
X175538113Y-123344686D01*
X175629560Y-123237276D01*
X175698039Y-123119101D01*
X175743383Y-122990508D01*
X175763203Y-122877367D01*
X175771508Y-122796300D01*
X174550601Y-122796300D01*
X174536045Y-122866415D01*
X174506906Y-122949445D01*
X174456291Y-123020044D01*
X174383723Y-123078707D01*
X174288721Y-123125932D01*
X174284097Y-123127724D01*
X174213470Y-123147037D01*
X174126107Y-123158972D01*
X174028301Y-123163779D01*
X173926348Y-123161710D01*
X173826542Y-123153014D01*
X173735176Y-123137941D01*
X173658547Y-123116740D01*
X173622779Y-123101451D01*
X173559474Y-123055940D01*
X173515107Y-122996946D01*
X173490664Y-122928952D01*
X173487126Y-122856440D01*
X173505479Y-122783893D01*
X173540016Y-122724239D01*
X173587554Y-122679904D01*
X173657143Y-122643078D01*
X173749210Y-122613669D01*
X173864181Y-122591584D01*
X174002483Y-122576732D01*
X174164544Y-122569019D01*
X174263050Y-122567789D01*
X174480714Y-122562291D01*
X174683827Y-122546835D01*
X174869529Y-122521739D01*
X175034963Y-122487320D01*
X175069500Y-122478213D01*
X175215489Y-122427508D01*
X175341683Y-122361439D01*
X175447730Y-122280437D01*
X175533278Y-122184937D01*
X175597975Y-122075370D01*
X175641469Y-121952169D01*
X175663407Y-121815767D01*
X175666180Y-121744839D01*
X175661150Y-121656234D01*
X175647010Y-121561730D01*
X175625766Y-121471987D01*
X175601782Y-121403040D01*
X175539530Y-121289689D01*
X175454666Y-121186034D01*
X175348350Y-121092833D01*
X175221746Y-121010844D01*
X175076015Y-120940825D01*
X174912321Y-120883534D01*
X174740932Y-120841528D01*
X174652497Y-120824809D01*
X174569853Y-120811517D01*
X174488410Y-120801314D01*
X174403579Y-120793859D01*
X174310767Y-120788813D01*
X174205386Y-120785837D01*
X174082844Y-120784592D01*
X173970950Y-120784609D01*
G36*
X168746835Y-106216768D02*
G01*
X168605182Y-106217463D01*
X168481159Y-106218876D01*
X168370882Y-106221190D01*
X168270466Y-106224589D01*
X168176027Y-106229258D01*
X168083682Y-106235379D01*
X167989546Y-106243136D01*
X167889735Y-106252714D01*
X167780366Y-106264296D01*
X167690800Y-106274287D01*
X167184734Y-106344315D01*
X166682770Y-106439191D01*
X166185900Y-106558555D01*
X165695120Y-106702046D01*
X165211423Y-106869304D01*
X164735803Y-107059966D01*
X164269253Y-107273673D01*
X163812768Y-107510065D01*
X163367342Y-107768779D01*
X163092250Y-107943462D01*
X162667596Y-108237236D01*
X162259423Y-108549652D01*
X161868217Y-108879927D01*
X161494462Y-109227277D01*
X161138642Y-109590916D01*
X160801245Y-109970061D01*
X160482753Y-110363928D01*
X160183653Y-110771732D01*
X159904428Y-111192689D01*
X159645566Y-111626014D01*
X159407549Y-112070925D01*
X159190864Y-112526635D01*
X158995995Y-112992361D01*
X158823428Y-113467319D01*
X158673647Y-113950724D01*
X158547137Y-114441793D01*
X158444384Y-114939740D01*
X158365872Y-115443782D01*
X158344288Y-115620800D01*
X158331101Y-115739765D01*
X158320055Y-115846292D01*
X158310965Y-115944264D01*
X158303648Y-116037564D01*
X158297920Y-116130079D01*
X158293597Y-116225690D01*
X158290496Y-116328283D01*
X158288433Y-116441740D01*
X158287223Y-116569948D01*
X158286684Y-116716788D01*
X158286608Y-116840000D01*
X158286971Y-117014341D01*
X158288107Y-117167297D01*
X158290231Y-117302873D01*
X158293562Y-117425079D01*
X158298314Y-117537921D01*
X158304703Y-117645408D01*
X158312946Y-117751547D01*
X158323258Y-117860345D01*
X158335856Y-117975810D01*
X158350955Y-118101950D01*
X158357438Y-118153864D01*
X158434521Y-118665201D01*
X158535846Y-119169741D01*
X158660997Y-119666770D01*
X158809557Y-120155578D01*
X158981107Y-120635452D01*
X159175231Y-121105680D01*
X159391511Y-121565551D01*
X159629531Y-122014352D01*
X159888872Y-122451372D01*
X160169118Y-122875898D01*
X160469851Y-123287218D01*
X160790654Y-123684621D01*
X161131109Y-124067394D01*
X161490800Y-124434825D01*
X161869309Y-124786203D01*
X162266219Y-125120816D01*
X162585400Y-125367550D01*
X162996050Y-125657558D01*
X163422930Y-125928990D01*
X163863818Y-126180693D01*
X164316493Y-126411516D01*
X164778734Y-126620306D01*
X165248318Y-126805911D01*
X165582600Y-126922208D01*
X166002623Y-127051275D01*
X166419894Y-127161280D01*
X166839068Y-127253132D01*
X167264795Y-127327740D01*
X167701729Y-127386011D01*
X168154522Y-127428853D01*
X168192450Y-127431706D01*
X168275432Y-127436656D01*
X168378818Y-127440966D01*
X168497738Y-127444583D01*
X168627322Y-127447455D01*
X168762700Y-127449528D01*
X168899001Y-127450750D01*
X169031355Y-127451067D01*
X169154893Y-127450428D01*
X169264743Y-127448778D01*
X169356036Y-127446066D01*
X169386250Y-127444672D01*
X169913144Y-127405346D01*
X170429170Y-127343244D01*
X170934985Y-127258226D01*
X171431249Y-127150148D01*
X171918618Y-127018872D01*
X172397751Y-126864254D01*
X172815250Y-126707911D01*
X173297093Y-126502350D01*
X173763883Y-126276369D01*
X174215977Y-126029731D01*
X174653731Y-125762200D01*
X175077504Y-125473543D01*
X175487653Y-125163523D01*
X175884534Y-124831905D01*
X176268504Y-124478454D01*
X176409797Y-124339674D01*
X176771239Y-123960763D01*
X177111788Y-123567537D01*
X177431272Y-123160252D01*
X177729519Y-122739163D01*
X178006357Y-122304525D01*
X178261614Y-121856594D01*
X178495118Y-121395624D01*
X178695568Y-120948410D01*
X178884051Y-120468043D01*
X179048498Y-119979959D01*
X179188781Y-119485021D01*
X179304771Y-118984091D01*
X179396339Y-118478032D01*
X179463358Y-117967708D01*
X179505698Y-117453979D01*
X179520809Y-117009031D01*
X179238183Y-117009031D01*
X179217189Y-117520972D01*
X179171319Y-118029112D01*
X179100694Y-118532819D01*
X179005438Y-119031457D01*
X178885673Y-119524395D01*
X178741521Y-120010998D01*
X178573106Y-120490632D01*
X178380549Y-120962664D01*
X178361055Y-121006976D01*
X178143738Y-121466685D01*
X177904594Y-121913969D01*
X177644320Y-122348099D01*
X177363612Y-122768346D01*
X177063165Y-123173980D01*
X176743675Y-123564273D01*
X176405837Y-123938497D01*
X176050348Y-124295921D01*
X175677902Y-124635818D01*
X175289197Y-124957459D01*
X174884927Y-125260113D01*
X174465788Y-125543054D01*
X174032476Y-125805551D01*
X173585688Y-126046876D01*
X173517918Y-126081019D01*
X173055921Y-126298354D01*
X172589810Y-126491020D01*
X172118485Y-126659323D01*
X171640847Y-126803569D01*
X171155797Y-126924065D01*
X170662236Y-127021118D01*
X170159066Y-127095033D01*
X169716450Y-127140440D01*
X169661830Y-127144689D01*
X169603396Y-127148638D01*
X169538207Y-127152423D01*
X169463323Y-127156178D01*
X169375804Y-127160039D01*
X169272707Y-127164141D01*
X169151092Y-127168618D01*
X169008019Y-127173605D01*
X168954450Y-127175425D01*
X168928176Y-127175439D01*
X168880517Y-127174591D01*
X168815470Y-127172986D01*
X168737031Y-127170732D01*
X168649198Y-127167934D01*
X168567100Y-127165099D01*
X168307974Y-127153514D01*
X168065899Y-127137592D01*
X167832777Y-127116571D01*
X167600511Y-127089684D01*
X167361006Y-127056169D01*
X167278050Y-127043374D01*
X166783142Y-126952614D01*
X166293619Y-126837254D01*
X165810385Y-126697696D01*
X165334346Y-126534342D01*
X164866405Y-126347594D01*
X164407468Y-126137853D01*
X163958440Y-125905522D01*
X163520225Y-125651002D01*
X163093727Y-125374695D01*
X162679852Y-125077003D01*
X162452050Y-124899598D01*
X162189726Y-124680649D01*
X161924314Y-124442270D01*
X161660546Y-124189194D01*
X161403157Y-123926158D01*
X161156879Y-123657895D01*
X160926446Y-123389141D01*
X160856951Y-123303963D01*
X160550551Y-122903435D01*
X160263476Y-122486842D01*
X159996437Y-122055408D01*
X159750147Y-121610354D01*
X159525319Y-121152902D01*
X159322665Y-120684274D01*
X159308896Y-120650000D01*
X159133652Y-120177536D01*
X158982372Y-119697587D01*
X158855099Y-119211210D01*
X158751877Y-118719461D01*
X158672750Y-118223399D01*
X158617760Y-117724081D01*
X158586952Y-117222563D01*
X158580368Y-116719903D01*
X158598052Y-116217158D01*
X158640048Y-115715386D01*
X158706400Y-115215644D01*
X158797150Y-114718988D01*
X158912342Y-114226477D01*
X159027825Y-113817400D01*
X159181201Y-113356136D01*
X159358655Y-112898444D01*
X159558880Y-112447056D01*
X159780568Y-112004700D01*
X160022412Y-111574108D01*
X160283103Y-111158010D01*
X160347722Y-111061500D01*
X160646131Y-110643872D01*
X160963544Y-110242730D01*
X161299257Y-109858643D01*
X161652565Y-109492183D01*
X162022764Y-109143920D01*
X162409149Y-108814424D01*
X162811017Y-108504267D01*
X163227662Y-108214020D01*
X163658379Y-107944252D01*
X164102466Y-107695536D01*
X164559216Y-107468441D01*
X165027927Y-107263538D01*
X165042850Y-107257462D01*
X165512998Y-107080098D01*
X165991066Y-106926559D01*
X166475974Y-106796916D01*
X166966639Y-106691243D01*
X167461981Y-106609611D01*
X167960918Y-106552093D01*
X168462370Y-106518763D01*
X168965254Y-106509691D01*
X169468490Y-106524952D01*
X169970996Y-106564618D01*
X170471692Y-106628760D01*
X170969495Y-106717453D01*
X171450000Y-106827371D01*
X171940384Y-106965056D01*
X172422734Y-107126578D01*
X172896074Y-107311448D01*
X173359427Y-107519177D01*
X173811815Y-107749279D01*
X174252263Y-108001265D01*
X174679791Y-108274647D01*
X175093424Y-108568938D01*
X175373964Y-108786950D01*
X175576271Y-108955273D01*
X175786184Y-109139915D01*
X175998061Y-109335523D01*
X176206264Y-109536741D01*
X176405153Y-109738216D01*
X176589088Y-109934593D01*
X176626601Y-109976149D01*
X176954179Y-110360564D01*
X177261422Y-110759764D01*
X177547965Y-111172836D01*
X177813444Y-111598870D01*
X178057494Y-112036955D01*
X178279752Y-112486181D01*
X178479852Y-112945635D01*
X178657430Y-113414408D01*
X178812122Y-113891588D01*
X178943563Y-114376265D01*
X179051389Y-114867528D01*
X179135235Y-115364465D01*
X179194737Y-115866165D01*
X179229531Y-116371719D01*
X179234177Y-116493924D01*
X179238183Y-117009031D01*
X179520809Y-117009031D01*
X179523232Y-116937710D01*
X179515830Y-116419762D01*
X179483363Y-115900999D01*
X179469606Y-115754150D01*
X179405521Y-115242961D01*
X179316785Y-114737171D01*
X179203716Y-114237519D01*
X179066633Y-113744743D01*
X178905853Y-113259581D01*
X178721695Y-112782773D01*
X178514478Y-112315056D01*
X178284518Y-111857169D01*
X178032134Y-111409851D01*
X177757645Y-110973840D01*
X177461367Y-110549875D01*
X177143621Y-110138694D01*
X176951885Y-109909002D01*
X176606017Y-109525284D01*
X176243248Y-109160075D01*
X175864393Y-108813834D01*
X175470268Y-108487023D01*
X175061687Y-108180101D01*
X174639465Y-107893531D01*
X174204420Y-107627772D01*
X173757365Y-107383285D01*
X173299116Y-107160532D01*
X172830488Y-106959972D01*
X172352297Y-106782067D01*
X171865359Y-106627278D01*
X171370488Y-106496065D01*
X170868499Y-106388888D01*
X170656250Y-106351239D01*
X170467966Y-106320857D01*
X170293886Y-106295154D01*
X170129544Y-106273784D01*
X169970473Y-106256403D01*
X169812209Y-106242668D01*
X169650284Y-106232233D01*
X169480232Y-106224755D01*
X169297588Y-106219889D01*
X169097886Y-106217291D01*
X168910000Y-106216607D01*
X168746835Y-106216768D01*
G37*
X168746835Y-106216768D02*
X168605182Y-106217463D01*
X168481159Y-106218876D01*
X168370882Y-106221190D01*
X168270466Y-106224589D01*
X168176027Y-106229258D01*
X168083682Y-106235379D01*
X167989546Y-106243136D01*
X167889735Y-106252714D01*
X167780366Y-106264296D01*
X167690800Y-106274287D01*
X167184734Y-106344315D01*
X166682770Y-106439191D01*
X166185900Y-106558555D01*
X165695120Y-106702046D01*
X165211423Y-106869304D01*
X164735803Y-107059966D01*
X164269253Y-107273673D01*
X163812768Y-107510065D01*
X163367342Y-107768779D01*
X163092250Y-107943462D01*
X162667596Y-108237236D01*
X162259423Y-108549652D01*
X161868217Y-108879927D01*
X161494462Y-109227277D01*
X161138642Y-109590916D01*
X160801245Y-109970061D01*
X160482753Y-110363928D01*
X160183653Y-110771732D01*
X159904428Y-111192689D01*
X159645566Y-111626014D01*
X159407549Y-112070925D01*
X159190864Y-112526635D01*
X158995995Y-112992361D01*
X158823428Y-113467319D01*
X158673647Y-113950724D01*
X158547137Y-114441793D01*
X158444384Y-114939740D01*
X158365872Y-115443782D01*
X158344288Y-115620800D01*
X158331101Y-115739765D01*
X158320055Y-115846292D01*
X158310965Y-115944264D01*
X158303648Y-116037564D01*
X158297920Y-116130079D01*
X158293597Y-116225690D01*
X158290496Y-116328283D01*
X158288433Y-116441740D01*
X158287223Y-116569948D01*
X158286684Y-116716788D01*
X158286608Y-116840000D01*
X158286971Y-117014341D01*
X158288107Y-117167297D01*
X158290231Y-117302873D01*
X158293562Y-117425079D01*
X158298314Y-117537921D01*
X158304703Y-117645408D01*
X158312946Y-117751547D01*
X158323258Y-117860345D01*
X158335856Y-117975810D01*
X158350955Y-118101950D01*
X158357438Y-118153864D01*
X158434521Y-118665201D01*
X158535846Y-119169741D01*
X158660997Y-119666770D01*
X158809557Y-120155578D01*
X158981107Y-120635452D01*
X159175231Y-121105680D01*
X159391511Y-121565551D01*
X159629531Y-122014352D01*
X159888872Y-122451372D01*
X160169118Y-122875898D01*
X160469851Y-123287218D01*
X160790654Y-123684621D01*
X161131109Y-124067394D01*
X161490800Y-124434825D01*
X161869309Y-124786203D01*
X162266219Y-125120816D01*
X162585400Y-125367550D01*
X162996050Y-125657558D01*
X163422930Y-125928990D01*
X163863818Y-126180693D01*
X164316493Y-126411516D01*
X164778734Y-126620306D01*
X165248318Y-126805911D01*
X165582600Y-126922208D01*
X166002623Y-127051275D01*
X166419894Y-127161280D01*
X166839068Y-127253132D01*
X167264795Y-127327740D01*
X167701729Y-127386011D01*
X168154522Y-127428853D01*
X168192450Y-127431706D01*
X168275432Y-127436656D01*
X168378818Y-127440966D01*
X168497738Y-127444583D01*
X168627322Y-127447455D01*
X168762700Y-127449528D01*
X168899001Y-127450750D01*
X169031355Y-127451067D01*
X169154893Y-127450428D01*
X169264743Y-127448778D01*
X169356036Y-127446066D01*
X169386250Y-127444672D01*
X169913144Y-127405346D01*
X170429170Y-127343244D01*
X170934985Y-127258226D01*
X171431249Y-127150148D01*
X171918618Y-127018872D01*
X172397751Y-126864254D01*
X172815250Y-126707911D01*
X173297093Y-126502350D01*
X173763883Y-126276369D01*
X174215977Y-126029731D01*
X174653731Y-125762200D01*
X175077504Y-125473543D01*
X175487653Y-125163523D01*
X175884534Y-124831905D01*
X176268504Y-124478454D01*
X176409797Y-124339674D01*
X176771239Y-123960763D01*
X177111788Y-123567537D01*
X177431272Y-123160252D01*
X177729519Y-122739163D01*
X178006357Y-122304525D01*
X178261614Y-121856594D01*
X178495118Y-121395624D01*
X178695568Y-120948410D01*
X178884051Y-120468043D01*
X179048498Y-119979959D01*
X179188781Y-119485021D01*
X179304771Y-118984091D01*
X179396339Y-118478032D01*
X179463358Y-117967708D01*
X179505698Y-117453979D01*
X179520809Y-117009031D01*
X179238183Y-117009031D01*
X179217189Y-117520972D01*
X179171319Y-118029112D01*
X179100694Y-118532819D01*
X179005438Y-119031457D01*
X178885673Y-119524395D01*
X178741521Y-120010998D01*
X178573106Y-120490632D01*
X178380549Y-120962664D01*
X178361055Y-121006976D01*
X178143738Y-121466685D01*
X177904594Y-121913969D01*
X177644320Y-122348099D01*
X177363612Y-122768346D01*
X177063165Y-123173980D01*
X176743675Y-123564273D01*
X176405837Y-123938497D01*
X176050348Y-124295921D01*
X175677902Y-124635818D01*
X175289197Y-124957459D01*
X174884927Y-125260113D01*
X174465788Y-125543054D01*
X174032476Y-125805551D01*
X173585688Y-126046876D01*
X173517918Y-126081019D01*
X173055921Y-126298354D01*
X172589810Y-126491020D01*
X172118485Y-126659323D01*
X171640847Y-126803569D01*
X171155797Y-126924065D01*
X170662236Y-127021118D01*
X170159066Y-127095033D01*
X169716450Y-127140440D01*
X169661830Y-127144689D01*
X169603396Y-127148638D01*
X169538207Y-127152423D01*
X169463323Y-127156178D01*
X169375804Y-127160039D01*
X169272707Y-127164141D01*
X169151092Y-127168618D01*
X169008019Y-127173605D01*
X168954450Y-127175425D01*
X168928176Y-127175439D01*
X168880517Y-127174591D01*
X168815470Y-127172986D01*
X168737031Y-127170732D01*
X168649198Y-127167934D01*
X168567100Y-127165099D01*
X168307974Y-127153514D01*
X168065899Y-127137592D01*
X167832777Y-127116571D01*
X167600511Y-127089684D01*
X167361006Y-127056169D01*
X167278050Y-127043374D01*
X166783142Y-126952614D01*
X166293619Y-126837254D01*
X165810385Y-126697696D01*
X165334346Y-126534342D01*
X164866405Y-126347594D01*
X164407468Y-126137853D01*
X163958440Y-125905522D01*
X163520225Y-125651002D01*
X163093727Y-125374695D01*
X162679852Y-125077003D01*
X162452050Y-124899598D01*
X162189726Y-124680649D01*
X161924314Y-124442270D01*
X161660546Y-124189194D01*
X161403157Y-123926158D01*
X161156879Y-123657895D01*
X160926446Y-123389141D01*
X160856951Y-123303963D01*
X160550551Y-122903435D01*
X160263476Y-122486842D01*
X159996437Y-122055408D01*
X159750147Y-121610354D01*
X159525319Y-121152902D01*
X159322665Y-120684274D01*
X159308896Y-120650000D01*
X159133652Y-120177536D01*
X158982372Y-119697587D01*
X158855099Y-119211210D01*
X158751877Y-118719461D01*
X158672750Y-118223399D01*
X158617760Y-117724081D01*
X158586952Y-117222563D01*
X158580368Y-116719903D01*
X158598052Y-116217158D01*
X158640048Y-115715386D01*
X158706400Y-115215644D01*
X158797150Y-114718988D01*
X158912342Y-114226477D01*
X159027825Y-113817400D01*
X159181201Y-113356136D01*
X159358655Y-112898444D01*
X159558880Y-112447056D01*
X159780568Y-112004700D01*
X160022412Y-111574108D01*
X160283103Y-111158010D01*
X160347722Y-111061500D01*
X160646131Y-110643872D01*
X160963544Y-110242730D01*
X161299257Y-109858643D01*
X161652565Y-109492183D01*
X162022764Y-109143920D01*
X162409149Y-108814424D01*
X162811017Y-108504267D01*
X163227662Y-108214020D01*
X163658379Y-107944252D01*
X164102466Y-107695536D01*
X164559216Y-107468441D01*
X165027927Y-107263538D01*
X165042850Y-107257462D01*
X165512998Y-107080098D01*
X165991066Y-106926559D01*
X166475974Y-106796916D01*
X166966639Y-106691243D01*
X167461981Y-106609611D01*
X167960918Y-106552093D01*
X168462370Y-106518763D01*
X168965254Y-106509691D01*
X169468490Y-106524952D01*
X169970996Y-106564618D01*
X170471692Y-106628760D01*
X170969495Y-106717453D01*
X171450000Y-106827371D01*
X171940384Y-106965056D01*
X172422734Y-107126578D01*
X172896074Y-107311448D01*
X173359427Y-107519177D01*
X173811815Y-107749279D01*
X174252263Y-108001265D01*
X174679791Y-108274647D01*
X175093424Y-108568938D01*
X175373964Y-108786950D01*
X175576271Y-108955273D01*
X175786184Y-109139915D01*
X175998061Y-109335523D01*
X176206264Y-109536741D01*
X176405153Y-109738216D01*
X176589088Y-109934593D01*
X176626601Y-109976149D01*
X176954179Y-110360564D01*
X177261422Y-110759764D01*
X177547965Y-111172836D01*
X177813444Y-111598870D01*
X178057494Y-112036955D01*
X178279752Y-112486181D01*
X178479852Y-112945635D01*
X178657430Y-113414408D01*
X178812122Y-113891588D01*
X178943563Y-114376265D01*
X179051389Y-114867528D01*
X179135235Y-115364465D01*
X179194737Y-115866165D01*
X179229531Y-116371719D01*
X179234177Y-116493924D01*
X179238183Y-117009031D01*
X179520809Y-117009031D01*
X179523232Y-116937710D01*
X179515830Y-116419762D01*
X179483363Y-115900999D01*
X179469606Y-115754150D01*
X179405521Y-115242961D01*
X179316785Y-114737171D01*
X179203716Y-114237519D01*
X179066633Y-113744743D01*
X178905853Y-113259581D01*
X178721695Y-112782773D01*
X178514478Y-112315056D01*
X178284518Y-111857169D01*
X178032134Y-111409851D01*
X177757645Y-110973840D01*
X177461367Y-110549875D01*
X177143621Y-110138694D01*
X176951885Y-109909002D01*
X176606017Y-109525284D01*
X176243248Y-109160075D01*
X175864393Y-108813834D01*
X175470268Y-108487023D01*
X175061687Y-108180101D01*
X174639465Y-107893531D01*
X174204420Y-107627772D01*
X173757365Y-107383285D01*
X173299116Y-107160532D01*
X172830488Y-106959972D01*
X172352297Y-106782067D01*
X171865359Y-106627278D01*
X171370488Y-106496065D01*
X170868499Y-106388888D01*
X170656250Y-106351239D01*
X170467966Y-106320857D01*
X170293886Y-106295154D01*
X170129544Y-106273784D01*
X169970473Y-106256403D01*
X169812209Y-106242668D01*
X169650284Y-106232233D01*
X169480232Y-106224755D01*
X169297588Y-106219889D01*
X169097886Y-106217291D01*
X168910000Y-106216607D01*
X168746835Y-106216768D01*
G36*
X168510966Y-104616436D02*
G01*
X167963143Y-104645911D01*
X167417821Y-104699839D01*
X166875773Y-104778135D01*
X166337770Y-104880713D01*
X165804583Y-105007489D01*
X165276984Y-105158378D01*
X164755743Y-105333294D01*
X164241633Y-105532153D01*
X163735425Y-105754869D01*
X163487100Y-105874368D01*
X162996287Y-106131407D01*
X162519536Y-106409186D01*
X162057392Y-106707054D01*
X161610402Y-107024357D01*
X161179109Y-107360445D01*
X160764060Y-107714663D01*
X160365799Y-108086361D01*
X159984872Y-108474885D01*
X159621823Y-108879583D01*
X159277198Y-109299804D01*
X158951542Y-109734895D01*
X158645400Y-110184203D01*
X158359318Y-110647076D01*
X158093840Y-111122863D01*
X157849511Y-111610910D01*
X157626878Y-112110565D01*
X157426485Y-112621177D01*
X157248876Y-113142092D01*
X157156400Y-113449100D01*
X157015455Y-113986352D01*
X156899076Y-114529109D01*
X156807371Y-115076289D01*
X156740444Y-115626810D01*
X156698401Y-116179592D01*
X156681347Y-116733552D01*
X156689388Y-117287611D01*
X156722630Y-117840687D01*
X156724990Y-117868700D01*
X156785087Y-118424464D01*
X156869812Y-118974458D01*
X156978926Y-119518077D01*
X157112187Y-120054719D01*
X157269356Y-120583777D01*
X157450192Y-121104649D01*
X157654455Y-121616729D01*
X157881904Y-122119413D01*
X158132298Y-122612098D01*
X158405399Y-123094178D01*
X158700964Y-123565051D01*
X159018753Y-124024110D01*
X159344927Y-124453650D01*
X159643784Y-124814261D01*
X159963876Y-125170498D01*
X160301039Y-125518110D01*
X160651110Y-125852846D01*
X161009924Y-126170454D01*
X161104102Y-126249675D01*
X161538689Y-126594850D01*
X161988338Y-126919812D01*
X162452078Y-127223983D01*
X162928942Y-127506784D01*
X163417960Y-127767635D01*
X163918163Y-128005957D01*
X164348156Y-128189074D01*
X164865766Y-128384371D01*
X165389077Y-128555077D01*
X165918458Y-128701270D01*
X166454280Y-128823031D01*
X166996914Y-128920439D01*
X167546729Y-128993576D01*
X168104096Y-129042520D01*
X168370250Y-129057255D01*
X168476717Y-129061130D01*
X168600392Y-129064092D01*
X168735095Y-129066115D01*
X168874645Y-129067172D01*
X169012861Y-129067234D01*
X169143561Y-129066276D01*
X169260566Y-129064268D01*
X169348150Y-129061578D01*
X169913577Y-129026635D01*
X170472517Y-128967224D01*
X171024676Y-128883433D01*
X171569762Y-128775353D01*
X172107481Y-128643070D01*
X172637541Y-128486675D01*
X173159648Y-128306256D01*
X173673510Y-128101901D01*
X174178834Y-127873699D01*
X174675326Y-127621739D01*
X175162693Y-127346109D01*
X175310800Y-127256534D01*
X175767868Y-126961026D01*
X176212706Y-126643688D01*
X176644230Y-126305512D01*
X177061357Y-125947494D01*
X177463003Y-125570626D01*
X177848083Y-125175903D01*
X178215514Y-124764317D01*
X178564211Y-124336863D01*
X178722416Y-124129289D01*
X179043244Y-123677833D01*
X179342088Y-123214092D01*
X179618740Y-122738852D01*
X179872994Y-122252902D01*
X180104641Y-121757029D01*
X180313475Y-121252021D01*
X180499290Y-120738664D01*
X180661877Y-120217747D01*
X180801029Y-119690057D01*
X180916540Y-119156382D01*
X181008202Y-118617508D01*
X181075809Y-118074224D01*
X181119152Y-117527318D01*
X181138026Y-116977575D01*
X181134064Y-116600819D01*
X180475916Y-116600819D01*
X180474066Y-117133499D01*
X180447766Y-117666248D01*
X180396944Y-118198094D01*
X180321532Y-118728067D01*
X180221458Y-119255193D01*
X180135283Y-119627650D01*
X179993873Y-120143494D01*
X179828648Y-120651223D01*
X179640110Y-121150061D01*
X179428758Y-121639234D01*
X179195095Y-122117966D01*
X178939621Y-122585482D01*
X178662837Y-123041008D01*
X178365245Y-123483769D01*
X178047345Y-123912989D01*
X177709638Y-124327894D01*
X177352626Y-124727710D01*
X176976810Y-125111661D01*
X176582690Y-125478972D01*
X176170768Y-125828868D01*
X176076723Y-125904291D01*
X175645096Y-126230744D01*
X175200391Y-126535648D01*
X174743384Y-126818712D01*
X174274847Y-127079643D01*
X173795556Y-127318151D01*
X173306283Y-127533944D01*
X172807804Y-127726729D01*
X172300892Y-127896217D01*
X171786321Y-128042114D01*
X171264866Y-128164130D01*
X170737300Y-128261972D01*
X170204398Y-128335350D01*
X169666933Y-128383971D01*
X169462450Y-128395857D01*
X169318805Y-128401483D01*
X169158643Y-128405252D01*
X168989088Y-128407157D01*
X168817265Y-128407194D01*
X168650298Y-128405354D01*
X168495310Y-128401632D01*
X168375287Y-128396834D01*
X167833797Y-128358235D01*
X167302247Y-128296582D01*
X166779335Y-128211595D01*
X166263759Y-128102995D01*
X165754216Y-127970505D01*
X165249405Y-127813845D01*
X164748024Y-127632738D01*
X164680900Y-127606546D01*
X164192330Y-127400647D01*
X163713726Y-127171758D01*
X163245957Y-126920607D01*
X162789891Y-126647920D01*
X162346397Y-126354422D01*
X161916342Y-126040840D01*
X161500595Y-125707899D01*
X161100025Y-125356326D01*
X160715499Y-124986846D01*
X160347886Y-124600186D01*
X159998054Y-124197072D01*
X159666872Y-123778229D01*
X159355207Y-123344383D01*
X159081382Y-122924453D01*
X158806786Y-122458613D01*
X158555413Y-121983040D01*
X158327366Y-121498520D01*
X158122747Y-121005836D01*
X157941658Y-120505774D01*
X157784203Y-119999117D01*
X157650483Y-119486651D01*
X157540601Y-118969159D01*
X157454660Y-118447427D01*
X157392762Y-117922238D01*
X157355010Y-117394378D01*
X157341507Y-116864630D01*
X157352354Y-116333779D01*
X157387654Y-115802609D01*
X157447510Y-115271906D01*
X157532024Y-114742453D01*
X157641300Y-114215036D01*
X157775438Y-113690437D01*
X157843954Y-113455450D01*
X158007406Y-112959238D01*
X158194947Y-112469705D01*
X158405890Y-111987948D01*
X158639545Y-111515061D01*
X158895223Y-111052143D01*
X159172235Y-110600290D01*
X159469892Y-110160598D01*
X159787505Y-109734163D01*
X160124386Y-109322083D01*
X160479844Y-108925453D01*
X160853192Y-108545371D01*
X161041707Y-108366197D01*
X161447568Y-108006243D01*
X161868265Y-107666590D01*
X162303075Y-107347646D01*
X162751271Y-107049818D01*
X163212129Y-106773512D01*
X163684921Y-106519134D01*
X164168924Y-106287093D01*
X164663411Y-106077794D01*
X165167657Y-105891644D01*
X165680937Y-105729050D01*
X165812183Y-105691684D01*
X166331025Y-105560375D01*
X166854578Y-105453673D01*
X167381822Y-105371524D01*
X167911736Y-105313870D01*
X168443302Y-105280655D01*
X168975501Y-105271822D01*
X169507312Y-105287314D01*
X170037717Y-105327075D01*
X170565695Y-105391049D01*
X171090228Y-105479179D01*
X171610295Y-105591408D01*
X172124878Y-105727679D01*
X172632957Y-105887937D01*
X173133513Y-106072124D01*
X173208950Y-106102242D01*
X173409268Y-106185872D01*
X173620907Y-106279376D01*
X173837798Y-106379826D01*
X174053873Y-106484297D01*
X174263062Y-106589861D01*
X174459297Y-106693593D01*
X174615307Y-106780385D01*
X175082163Y-107061870D01*
X175533590Y-107363158D01*
X175969058Y-107683644D01*
X176388033Y-108022726D01*
X176789983Y-108379799D01*
X177174378Y-108754259D01*
X177540683Y-109145503D01*
X177888367Y-109552926D01*
X178216899Y-109975925D01*
X178525745Y-110413895D01*
X178814374Y-110866234D01*
X179082254Y-111332336D01*
X179328852Y-111811599D01*
X179553636Y-112303418D01*
X179618874Y-112458500D01*
X179810113Y-112955638D01*
X179977461Y-113460621D01*
X180120847Y-113972476D01*
X180240203Y-114490231D01*
X180335458Y-115012915D01*
X180406542Y-115539556D01*
X180453384Y-116069181D01*
X180475916Y-116600819D01*
X181134064Y-116600819D01*
X181132222Y-116425785D01*
X181101534Y-115872734D01*
X181045755Y-115319210D01*
X181043778Y-115303300D01*
X180962388Y-114753056D01*
X180856615Y-114209542D01*
X180726713Y-113673315D01*
X180572939Y-113144931D01*
X180395547Y-112624949D01*
X180194793Y-112113927D01*
X179970933Y-111612421D01*
X179724222Y-111120991D01*
X179454915Y-110640192D01*
X179163267Y-110170584D01*
X178849535Y-109712723D01*
X178513973Y-109267167D01*
X178156837Y-108834474D01*
X177998797Y-108654850D01*
X177932885Y-108582901D01*
X177852324Y-108497480D01*
X177760981Y-108402498D01*
X177662723Y-108301870D01*
X177561417Y-108199508D01*
X177460930Y-108099327D01*
X177365130Y-108005240D01*
X177277883Y-107921160D01*
X177219453Y-107866155D01*
X176809818Y-107502914D01*
X176383781Y-107158531D01*
X175942422Y-106833586D01*
X175486817Y-106528658D01*
X175018047Y-106244326D01*
X174537189Y-105981170D01*
X174045321Y-105739769D01*
X173543523Y-105520704D01*
X173032872Y-105324552D01*
X172514447Y-105151895D01*
X171989326Y-105003311D01*
X171807243Y-104957846D01*
X171260609Y-104838822D01*
X170711848Y-104744760D01*
X170161732Y-104675575D01*
X169611032Y-104631183D01*
X169060519Y-104611498D01*
X168510966Y-104616436D01*
G37*
X168510966Y-104616436D02*
X167963143Y-104645911D01*
X167417821Y-104699839D01*
X166875773Y-104778135D01*
X166337770Y-104880713D01*
X165804583Y-105007489D01*
X165276984Y-105158378D01*
X164755743Y-105333294D01*
X164241633Y-105532153D01*
X163735425Y-105754869D01*
X163487100Y-105874368D01*
X162996287Y-106131407D01*
X162519536Y-106409186D01*
X162057392Y-106707054D01*
X161610402Y-107024357D01*
X161179109Y-107360445D01*
X160764060Y-107714663D01*
X160365799Y-108086361D01*
X159984872Y-108474885D01*
X159621823Y-108879583D01*
X159277198Y-109299804D01*
X158951542Y-109734895D01*
X158645400Y-110184203D01*
X158359318Y-110647076D01*
X158093840Y-111122863D01*
X157849511Y-111610910D01*
X157626878Y-112110565D01*
X157426485Y-112621177D01*
X157248876Y-113142092D01*
X157156400Y-113449100D01*
X157015455Y-113986352D01*
X156899076Y-114529109D01*
X156807371Y-115076289D01*
X156740444Y-115626810D01*
X156698401Y-116179592D01*
X156681347Y-116733552D01*
X156689388Y-117287611D01*
X156722630Y-117840687D01*
X156724990Y-117868700D01*
X156785087Y-118424464D01*
X156869812Y-118974458D01*
X156978926Y-119518077D01*
X157112187Y-120054719D01*
X157269356Y-120583777D01*
X157450192Y-121104649D01*
X157654455Y-121616729D01*
X157881904Y-122119413D01*
X158132298Y-122612098D01*
X158405399Y-123094178D01*
X158700964Y-123565051D01*
X159018753Y-124024110D01*
X159344927Y-124453650D01*
X159643784Y-124814261D01*
X159963876Y-125170498D01*
X160301039Y-125518110D01*
X160651110Y-125852846D01*
X161009924Y-126170454D01*
X161104102Y-126249675D01*
X161538689Y-126594850D01*
X161988338Y-126919812D01*
X162452078Y-127223983D01*
X162928942Y-127506784D01*
X163417960Y-127767635D01*
X163918163Y-128005957D01*
X164348156Y-128189074D01*
X164865766Y-128384371D01*
X165389077Y-128555077D01*
X165918458Y-128701270D01*
X166454280Y-128823031D01*
X166996914Y-128920439D01*
X167546729Y-128993576D01*
X168104096Y-129042520D01*
X168370250Y-129057255D01*
X168476717Y-129061130D01*
X168600392Y-129064092D01*
X168735095Y-129066115D01*
X168874645Y-129067172D01*
X169012861Y-129067234D01*
X169143561Y-129066276D01*
X169260566Y-129064268D01*
X169348150Y-129061578D01*
X169913577Y-129026635D01*
X170472517Y-128967224D01*
X171024676Y-128883433D01*
X171569762Y-128775353D01*
X172107481Y-128643070D01*
X172637541Y-128486675D01*
X173159648Y-128306256D01*
X173673510Y-128101901D01*
X174178834Y-127873699D01*
X174675326Y-127621739D01*
X175162693Y-127346109D01*
X175310800Y-127256534D01*
X175767868Y-126961026D01*
X176212706Y-126643688D01*
X176644230Y-126305512D01*
X177061357Y-125947494D01*
X177463003Y-125570626D01*
X177848083Y-125175903D01*
X178215514Y-124764317D01*
X178564211Y-124336863D01*
X178722416Y-124129289D01*
X179043244Y-123677833D01*
X179342088Y-123214092D01*
X179618740Y-122738852D01*
X179872994Y-122252902D01*
X180104641Y-121757029D01*
X180313475Y-121252021D01*
X180499290Y-120738664D01*
X180661877Y-120217747D01*
X180801029Y-119690057D01*
X180916540Y-119156382D01*
X181008202Y-118617508D01*
X181075809Y-118074224D01*
X181119152Y-117527318D01*
X181138026Y-116977575D01*
X181134064Y-116600819D01*
X180475916Y-116600819D01*
X180474066Y-117133499D01*
X180447766Y-117666248D01*
X180396944Y-118198094D01*
X180321532Y-118728067D01*
X180221458Y-119255193D01*
X180135283Y-119627650D01*
X179993873Y-120143494D01*
X179828648Y-120651223D01*
X179640110Y-121150061D01*
X179428758Y-121639234D01*
X179195095Y-122117966D01*
X178939621Y-122585482D01*
X178662837Y-123041008D01*
X178365245Y-123483769D01*
X178047345Y-123912989D01*
X177709638Y-124327894D01*
X177352626Y-124727710D01*
X176976810Y-125111661D01*
X176582690Y-125478972D01*
X176170768Y-125828868D01*
X176076723Y-125904291D01*
X175645096Y-126230744D01*
X175200391Y-126535648D01*
X174743384Y-126818712D01*
X174274847Y-127079643D01*
X173795556Y-127318151D01*
X173306283Y-127533944D01*
X172807804Y-127726729D01*
X172300892Y-127896217D01*
X171786321Y-128042114D01*
X171264866Y-128164130D01*
X170737300Y-128261972D01*
X170204398Y-128335350D01*
X169666933Y-128383971D01*
X169462450Y-128395857D01*
X169318805Y-128401483D01*
X169158643Y-128405252D01*
X168989088Y-128407157D01*
X168817265Y-128407194D01*
X168650298Y-128405354D01*
X168495310Y-128401632D01*
X168375287Y-128396834D01*
X167833797Y-128358235D01*
X167302247Y-128296582D01*
X166779335Y-128211595D01*
X166263759Y-128102995D01*
X165754216Y-127970505D01*
X165249405Y-127813845D01*
X164748024Y-127632738D01*
X164680900Y-127606546D01*
X164192330Y-127400647D01*
X163713726Y-127171758D01*
X163245957Y-126920607D01*
X162789891Y-126647920D01*
X162346397Y-126354422D01*
X161916342Y-126040840D01*
X161500595Y-125707899D01*
X161100025Y-125356326D01*
X160715499Y-124986846D01*
X160347886Y-124600186D01*
X159998054Y-124197072D01*
X159666872Y-123778229D01*
X159355207Y-123344383D01*
X159081382Y-122924453D01*
X158806786Y-122458613D01*
X158555413Y-121983040D01*
X158327366Y-121498520D01*
X158122747Y-121005836D01*
X157941658Y-120505774D01*
X157784203Y-119999117D01*
X157650483Y-119486651D01*
X157540601Y-118969159D01*
X157454660Y-118447427D01*
X157392762Y-117922238D01*
X157355010Y-117394378D01*
X157341507Y-116864630D01*
X157352354Y-116333779D01*
X157387654Y-115802609D01*
X157447510Y-115271906D01*
X157532024Y-114742453D01*
X157641300Y-114215036D01*
X157775438Y-113690437D01*
X157843954Y-113455450D01*
X158007406Y-112959238D01*
X158194947Y-112469705D01*
X158405890Y-111987948D01*
X158639545Y-111515061D01*
X158895223Y-111052143D01*
X159172235Y-110600290D01*
X159469892Y-110160598D01*
X159787505Y-109734163D01*
X160124386Y-109322083D01*
X160479844Y-108925453D01*
X160853192Y-108545371D01*
X161041707Y-108366197D01*
X161447568Y-108006243D01*
X161868265Y-107666590D01*
X162303075Y-107347646D01*
X162751271Y-107049818D01*
X163212129Y-106773512D01*
X163684921Y-106519134D01*
X164168924Y-106287093D01*
X164663411Y-106077794D01*
X165167657Y-105891644D01*
X165680937Y-105729050D01*
X165812183Y-105691684D01*
X166331025Y-105560375D01*
X166854578Y-105453673D01*
X167381822Y-105371524D01*
X167911736Y-105313870D01*
X168443302Y-105280655D01*
X168975501Y-105271822D01*
X169507312Y-105287314D01*
X170037717Y-105327075D01*
X170565695Y-105391049D01*
X171090228Y-105479179D01*
X171610295Y-105591408D01*
X172124878Y-105727679D01*
X172632957Y-105887937D01*
X173133513Y-106072124D01*
X173208950Y-106102242D01*
X173409268Y-106185872D01*
X173620907Y-106279376D01*
X173837798Y-106379826D01*
X174053873Y-106484297D01*
X174263062Y-106589861D01*
X174459297Y-106693593D01*
X174615307Y-106780385D01*
X175082163Y-107061870D01*
X175533590Y-107363158D01*
X175969058Y-107683644D01*
X176388033Y-108022726D01*
X176789983Y-108379799D01*
X177174378Y-108754259D01*
X177540683Y-109145503D01*
X177888367Y-109552926D01*
X178216899Y-109975925D01*
X178525745Y-110413895D01*
X178814374Y-110866234D01*
X179082254Y-111332336D01*
X179328852Y-111811599D01*
X179553636Y-112303418D01*
X179618874Y-112458500D01*
X179810113Y-112955638D01*
X179977461Y-113460621D01*
X180120847Y-113972476D01*
X180240203Y-114490231D01*
X180335458Y-115012915D01*
X180406542Y-115539556D01*
X180453384Y-116069181D01*
X180475916Y-116600819D01*
X181134064Y-116600819D01*
X181132222Y-116425785D01*
X181101534Y-115872734D01*
X181045755Y-115319210D01*
X181043778Y-115303300D01*
X180962388Y-114753056D01*
X180856615Y-114209542D01*
X180726713Y-113673315D01*
X180572939Y-113144931D01*
X180395547Y-112624949D01*
X180194793Y-112113927D01*
X179970933Y-111612421D01*
X179724222Y-111120991D01*
X179454915Y-110640192D01*
X179163267Y-110170584D01*
X178849535Y-109712723D01*
X178513973Y-109267167D01*
X178156837Y-108834474D01*
X177998797Y-108654850D01*
X177932885Y-108582901D01*
X177852324Y-108497480D01*
X177760981Y-108402498D01*
X177662723Y-108301870D01*
X177561417Y-108199508D01*
X177460930Y-108099327D01*
X177365130Y-108005240D01*
X177277883Y-107921160D01*
X177219453Y-107866155D01*
X176809818Y-107502914D01*
X176383781Y-107158531D01*
X175942422Y-106833586D01*
X175486817Y-106528658D01*
X175018047Y-106244326D01*
X174537189Y-105981170D01*
X174045321Y-105739769D01*
X173543523Y-105520704D01*
X173032872Y-105324552D01*
X172514447Y-105151895D01*
X171989326Y-105003311D01*
X171807243Y-104957846D01*
X171260609Y-104838822D01*
X170711848Y-104744760D01*
X170161732Y-104675575D01*
X169611032Y-104631183D01*
X169060519Y-104611498D01*
X168510966Y-104616436D01*
M02*
