M48
; DRILL file {KiCad 5.1.5-52549c5~86~ubuntu19.04.1} date Wed 13 May 2020 19:26:59 AEST
; FORMAT={-:-/ absolute / inch / decimal}
; #@! TF.CreationDate,2020-05-13T19:26:59+10:00
; #@! TF.GenerationSoftware,Kicad,Pcbnew,5.1.5-52549c5~86~ubuntu19.04.1
FMAT,2
INCH
T1C0.0300
T2C0.0315
%
G90
G05
T1
X5.09Y-3.035
X5.09Y-3.935
X5.19Y-3.035
X5.19Y-3.935
X5.39Y-3.035
X5.49Y-3.035
X5.49Y-3.935
X3.845Y-3.275
X3.845Y-3.375
X3.845Y-3.475
X3.845Y-3.575
X3.845Y-3.675
X3.845Y-3.775
X3.845Y-3.875
X3.845Y-3.975
X3.845Y-4.075
X3.845Y-4.175
X3.845Y-4.275
X3.845Y-4.375
X3.845Y-4.475
X3.845Y-4.575
X3.845Y-4.675
X4.865Y-3.275
X4.865Y-3.375
X4.865Y-3.475
X4.865Y-3.575
X4.865Y-3.675
X4.865Y-3.775
X4.865Y-3.875
X4.865Y-3.975
X4.865Y-4.075
X4.865Y-4.175
X4.865Y-4.275
X4.865Y-4.375
X4.865Y-4.475
X4.865Y-4.575
X4.865Y-4.675
X5.65Y-4.28
X5.65Y-4.38
X5.65Y-4.48
X5.65Y-4.58
X5.65Y-4.68
X5.65Y-4.78
X5.65Y-4.88
X5.975Y-3.9
X6.075Y-3.1
X6.075Y-3.9
X6.175Y-3.1
X6.175Y-3.9
X6.275Y-3.1
X6.275Y-3.9
X6.375Y-3.1
X6.375Y-3.9
X6.475Y-3.1
X6.475Y-3.9
X6.575Y-3.1
X6.575Y-3.9
X6.675Y-3.9
X6.775Y-3.9
T2
X5.1988Y-4.1G85X5.3012Y-4.1
G05
X5.2067Y-4.3283G85X5.2933Y-4.3283
G05
X5.439Y-4.2614G85X5.439Y-4.1748
G05
T0
M30
